<svg id="Layer_1" data-name="Layer 1" xmlns="http://www.w3.org/2000/svg" viewBox="0 0 1443.06 829.28"><defs><style>.cls-1{fill:#fff;}.cls-2{fill:#be965f;}.cls-3{fill:#231f20;}.cls-3,.cls-4{stroke:#fff;}.cls-3,.cls-4,.cls-7,.cls-8,.cls-9{stroke-miterlimit:10;}.cls-4,.cls-7,.cls-8,.cls-9{fill:none;}.cls-5{fill:#b64026;}.cls-6{fill:#d3a69f;}.cls-7{stroke:#b64026;stroke-width:3px;}.cls-8{stroke:#be965f;}.cls-9{stroke:#d3a69f;stroke-width:2px;}</style></defs><rect width="1443.06" height="829.28"/><ellipse class="cls-1" cx="679.8" cy="351.34" rx="177" ry="177.25"/><ellipse class="cls-2" cx="778.69" cy="207.56" rx="20" ry="20.5"/><rect class="cls-3" x="195.07" y="490.85" width="189.66" height="98.68"/><rect class="cls-4" x="220.51" y="490.08" width="146.48" height="98.68"/><rect class="cls-3" x="385.49" y="470.03" width="29.3" height="104.85"/><rect class="cls-3" x="166.54" y="496.25" width="29.3" height="53.97"/><line class="cls-4" x1="181.19" y1="550.21" x2="195.84" y2="578.05"/><path class="cls-3" d="M183.16,553.51s-13.16,4.81-13,10.17l-33.71,47,7.71,3.08,32.38-44.71S183.59,561.13,183.16,553.51Z" transform="translate(0 0.42)"/><polygon class="cls-1" points="121.05 635.79 138.67 612 144.18 614.2 125.68 638.87 121.05 635.79"/><path class="cls-1" d="M104.26,632.46h33.59S120.7,652.53,104.26,632.46Z" transform="translate(0 0.42)"/><polygon class="cls-3" points="289.89 567.55 299.14 567.17 299.14 628.44 289.89 628.44 289.89 567.55"/><rect class="cls-1" x="290.66" y="628.08" width="7.71" height="33.92"/><polygon class="cls-1" points="152.88 602.19 195.07 589.53 195.84 584.08 156.06 597.81 152.88 602.19"/><path class="cls-3" d="M401.79,550.45s13.16,4.81,13,10.17l33.73,47-7.71,3.09L408.43,566S401.36,558.05,401.79,550.45Z" transform="translate(0 0.42)"/><polygon class="cls-1" points="463.9 632.7 446.28 608.91 440.77 611.12 459.27 635.79 463.9 632.7"/><path class="cls-1" d="M480.84,628H447.25S464.45,648.05,480.84,628Z" transform="translate(0 0.42)"/><polygon class="cls-1" points="432.08 599.11 389.89 586.45 389.12 581 428.9 594.72 432.08 599.11"/><ellipse class="cls-1" cx="207.45" cy="477.42" rx="12.34" ry="13.11"/><ellipse class="cls-1" cx="294.52" cy="665.09" rx="21.59" ry="3.85"/><rect class="cls-4" x="232.95" y="491.44" width="123" height="59"/><rect class="cls-1" x="263.95" y="550.44" width="56" height="28"/><ellipse class="cls-5" cx="571.3" cy="493.09" rx="20" ry="20.5"/><path class="cls-5" d="M78.1,327.78a7.68,7.68,0,0,1,5.75-2.31q4.66,0,6.83,3.09a6.74,6.74,0,0,1,1.28,3.5H88.05a5.39,5.39,0,0,0-1-2,4.25,4.25,0,0,0-6.39.51,8.41,8.41,0,0,0-1.2,4.86,7.37,7.37,0,0,0,1.27,4.72A4,4,0,0,0,84,341.68a3.66,3.66,0,0,0,3.07-1.35,5.88,5.88,0,0,0,1-2.17h3.88a8.45,8.45,0,0,1-2.56,5,7.49,7.49,0,0,1-5.3,1.92,8,8,0,0,1-6.28-2.59,10.48,10.48,0,0,1-2.28-7.14C75.5,332.06,76.36,329.55,78.1,327.78Z" transform="translate(0 0.42)"/><path class="cls-5" d="M104.74,330.77a4.13,4.13,0,0,1,1.71,1.36,3.71,3.71,0,0,1,.7,1.6,20.7,20.7,0,0,1,.12,2.67v8.14h-3.69v-8.43a3.77,3.77,0,0,0-.38-1.81,1.9,1.9,0,0,0-1.87-1,2.58,2.58,0,0,0-2.16,1,4.43,4.43,0,0,0-.73,2.74v7.5H94.82V325.89h3.62v6.6a4.38,4.38,0,0,1,1.81-1.69,5.23,5.23,0,0,1,2.17-.47A6,6,0,0,1,104.74,330.77Z" transform="translate(0 0.42)"/><path class="cls-5" d="M116.16,336.12a5.79,5.79,0,0,0,1.44-.32,1.09,1.09,0,0,0,.78-1,1.21,1.21,0,0,0-.6-1.17,3.7,3.7,0,0,0-1.75-.33,2.31,2.31,0,0,0-1.84.64,2.64,2.64,0,0,0-.52,1.27h-3.49a5.31,5.31,0,0,1,1-3q1.44-1.83,5-1.83a8.81,8.81,0,0,1,4,.9,3.45,3.45,0,0,1,1.77,3.4V341c0,.44,0,1,0,1.6a2.06,2.06,0,0,0,.21,1,1.31,1.31,0,0,0,.54.42v.54h-3.94a4.86,4.86,0,0,1-.23-.79c0-.25-.07-.53-.1-.84a7.51,7.51,0,0,1-1.73,1.38,5.26,5.26,0,0,1-2.66.68,4.56,4.56,0,0,1-3.12-1.08,3.8,3.8,0,0,1-1.23-3,3.93,3.93,0,0,1,2-3.69,8.76,8.76,0,0,1,3.2-.89Zm2.21,1.69a4.57,4.57,0,0,1-.7.35,6.36,6.36,0,0,1-1,.24l-.82.16a5.35,5.35,0,0,0-1.66.49,1.66,1.66,0,0,0-.86,1.54,1.61,1.61,0,0,0,.53,1.34,2,2,0,0,0,1.27.41,3.76,3.76,0,0,0,2.18-.69,2.89,2.89,0,0,0,1-2.5Z" transform="translate(0 0.42)"/><path class="cls-5" d="M136.29,331.49a4.57,4.57,0,0,1,1.36,3.73v9.32H134v-8.42a3.93,3.93,0,0,0-.29-1.68,2,2,0,0,0-2-1.06,2.5,2.5,0,0,0-2.51,1.56,5.5,5.5,0,0,0-.35,2.11v7.49h-3.62V330.72h3.5v2a6.25,6.25,0,0,1,1.32-1.53,4.54,4.54,0,0,1,2.82-.84A5.28,5.28,0,0,1,136.29,331.49Z" transform="translate(0 0.42)"/><path class="cls-5" d="M147.86,330.68a4.39,4.39,0,0,1,2.13,2v-2h3.53v13.12a7.35,7.35,0,0,1-.9,4q-1.55,2.34-5.94,2.34a8.14,8.14,0,0,1-4.33-1,3.82,3.82,0,0,1-1.85-3.11h3.93a1.63,1.63,0,0,0,.5.91,3,3,0,0,0,2,.5,2.65,2.65,0,0,0,2.62-1.31,6.61,6.61,0,0,0,.43-2.82v-.89a4.37,4.37,0,0,1-1.12,1.33,4.46,4.46,0,0,1-2.8.83,5.33,5.33,0,0,1-4.26-1.87,7.59,7.59,0,0,1-1.59-5.08,8.57,8.57,0,0,1,1.53-5.18,5.06,5.06,0,0,1,4.35-2.1A4.76,4.76,0,0,1,147.86,330.68Zm1.23,9.93a4.42,4.42,0,0,0,.88-3.06,4.67,4.67,0,0,0-.83-3,2.69,2.69,0,0,0-2.22-1,2.63,2.63,0,0,0-2.62,1.79,6.42,6.42,0,0,0-.38,2.35,5.34,5.34,0,0,0,.41,2.14,2.63,2.63,0,0,0,2.63,1.75A2.76,2.76,0,0,0,149.09,340.61Z" transform="translate(0 0.42)"/><path class="cls-5" d="M157,331.69a2.81,2.81,0,0,0,1.81-1.34,2.15,2.15,0,0,0,.23-1.13h-2.1v-3.33h3.73v2.67a4.48,4.48,0,0,1-1,3A4.66,4.66,0,0,1,157,333Z" transform="translate(0 0.42)"/><path class="cls-5" d="M173.14,331a5.65,5.65,0,0,1,2.39,2,6.83,6.83,0,0,1,1.1,2.87,17,17,0,0,1,.12,2.74H166.67a3.33,3.33,0,0,0,1.45,2.92,3.66,3.66,0,0,0,2,.52,3.1,3.1,0,0,0,2-.63,3.2,3.2,0,0,0,.74-.95h3.69a4.46,4.46,0,0,1-1.34,2.5,6.73,6.73,0,0,1-5.2,2,7.53,7.53,0,0,1-4.88-1.71q-2.12-1.69-2.11-5.54a7.5,7.5,0,0,1,1.91-5.51,6.66,6.66,0,0,1,4.94-1.92A7.94,7.94,0,0,1,173.14,331Zm-5.41,3.12a3.77,3.77,0,0,0-1,2.15H173a3,3,0,0,0-1-2.19,3.14,3.14,0,0,0-2.14-.75A2.89,2.89,0,0,0,167.73,334.1Z" transform="translate(0 0.42)"/><path class="cls-5" d="M197.71,340.57h-2.08v4h-3.54v-4H184.8v-3.16l6.77-11.17h4.06v11.5h2.08Zm-5.62-2.83v-7.93l-4.59,7.93Z" transform="translate(0 0.42)"/><path class="cls-5" d="M77,382.75H89v2.11H79.38v5.23h8.45v2.05H79.38V400H77Z" transform="translate(0 0.42)"/><path class="cls-5" d="M93.31,387.41v8.34a3.43,3.43,0,0,0,.31,1.57,2.11,2.11,0,0,0,2.09,1.12,3,3,0,0,0,3-2,7.76,7.76,0,0,0,.44-2.89v-6.17h2.11V400h-2l0-1.86a4.34,4.34,0,0,1-4,2.19c-1.79,0-3-.59-3.66-1.79a5.33,5.33,0,0,1-.53-2.56v-8.54Z" transform="translate(0 0.42)"/><path class="cls-5" d="M112.37,387.76a4.88,4.88,0,0,1,1.91,1.62,5.64,5.64,0,0,1,.84,2.22,14.86,14.86,0,0,1,.19,2.76h-9.2a5.4,5.4,0,0,0,.9,3.07,3,3,0,0,0,2.61,1.15,3.38,3.38,0,0,0,2.64-1.09,3.79,3.79,0,0,0,.8-1.46h2.07a4.45,4.45,0,0,1-.54,1.54,5.73,5.73,0,0,1-1,1.39,4.94,4.94,0,0,1-2.38,1.26,7,7,0,0,1-1.72.19,5.32,5.32,0,0,1-4-1.7,6.67,6.67,0,0,1-1.62-4.78,7.18,7.18,0,0,1,1.64-4.91,5.4,5.4,0,0,1,4.29-1.89A5.72,5.72,0,0,1,112.37,387.76Zm.77,4.93a5.5,5.5,0,0,0-.6-2.19,3.06,3.06,0,0,0-2.89-1.53,3.22,3.22,0,0,0-2.44,1,4,4,0,0,0-1,2.67Z" transform="translate(0 0.42)"/><path class="cls-5" d="M132.38,387.76a4.81,4.81,0,0,1,1.91,1.62,5.64,5.64,0,0,1,.84,2.22,14,14,0,0,1,.19,2.76h-9.2a5.32,5.32,0,0,0,.91,3.07,3,3,0,0,0,2.61,1.15,3.38,3.38,0,0,0,2.64-1.09,3.65,3.65,0,0,0,.79-1.46h2.08a4.5,4.5,0,0,1-.55,1.54,5.49,5.49,0,0,1-1,1.39,5,5,0,0,1-2.37,1.26,7,7,0,0,1-1.73.19,5.31,5.31,0,0,1-4-1.7,6.63,6.63,0,0,1-1.63-4.78A7.23,7.23,0,0,1,125.5,389a5.43,5.43,0,0,1,4.29-1.89A5.72,5.72,0,0,1,132.38,387.76Zm.77,4.93a5.35,5.35,0,0,0-.59-2.19,3.07,3.07,0,0,0-2.9-1.53,3.22,3.22,0,0,0-2.44,1,4,4,0,0,0-1,2.67Z" transform="translate(0 0.42)"/><path class="cls-5" d="M138,382.75h2.11V400H138Z" transform="translate(0 0.42)"/><path class="cls-5" d="M149.75,387.47h2.05v1.67a5.23,5.23,0,0,1,1.38-1.33,4.45,4.45,0,0,1,2.51-.7,4.71,4.71,0,0,1,3.62,1.63,6.72,6.72,0,0,1,1.49,4.67q0,4.11-2.15,5.86a4.79,4.79,0,0,1-3.16,1.12,4.32,4.32,0,0,1-2.38-.62,5.72,5.72,0,0,1-1.25-1.21V405h-2.11Zm7.91,9.84a5.84,5.84,0,0,0,1-3.7,6.81,6.81,0,0,0-.43-2.57,3.18,3.18,0,0,0-6,.11,8.7,8.7,0,0,0-.43,3,6.28,6.28,0,0,0,.43,2.47,3.18,3.18,0,0,0,5.45.71Z" transform="translate(0 0.42)"/><path class="cls-5" d="M163.32,387.41h2v2.17a5,5,0,0,1,1.21-1.54,3.15,3.15,0,0,1,2.21-.91h.2l.48.05v2.23a2.33,2.33,0,0,0-.34-.05h-.35a3,3,0,0,0-2.45,1,3.61,3.61,0,0,0-.85,2.37V400h-2.11Z" transform="translate(0 0.42)"/><path class="cls-5" d="M171.25,382.75h2.15v2.39h-2.15Zm0,4.72h2.15V400h-2.15Z" transform="translate(0 0.42)"/><path class="cls-5" d="M176.58,387.41h2.09v1.79a6.82,6.82,0,0,1,1.36-1.35,4,4,0,0,1,2.37-.72,3.73,3.73,0,0,1,2.41.74,4,4,0,0,1,.94,1.24,4.55,4.55,0,0,1,1.65-1.49,4.64,4.64,0,0,1,2.13-.49A3.49,3.49,0,0,1,193,389a6,6,0,0,1,.49,2.65V400h-2.19v-8.72a2,2,0,0,0-.63-1.73,2.51,2.51,0,0,0-1.53-.47,3,3,0,0,0-2.14.84,3.67,3.67,0,0,0-.89,2.77V400h-2.15v-8.2a4.3,4.3,0,0,0-.3-1.86,1.85,1.85,0,0,0-1.79-.88,3.09,3.09,0,0,0-2.18.93,4.53,4.53,0,0,0-1,3.35V400h-2.11Z" transform="translate(0 0.42)"/><path class="cls-5" d="M204.39,387.76a4.74,4.74,0,0,1,1.91,1.62,5.65,5.65,0,0,1,.85,2.22,15.07,15.07,0,0,1,.18,2.76h-9.2a5.32,5.32,0,0,0,.91,3.07,3,3,0,0,0,2.61,1.15,3.38,3.38,0,0,0,2.64-1.09,3.65,3.65,0,0,0,.79-1.46h2.08a4.5,4.5,0,0,1-.55,1.54,5.71,5.71,0,0,1-1,1.39,5,5,0,0,1-2.38,1.26,7,7,0,0,1-1.73.19,5.31,5.31,0,0,1-4-1.7,6.67,6.67,0,0,1-1.63-4.78,7.23,7.23,0,0,1,1.64-4.91,5.43,5.43,0,0,1,4.29-1.89A5.69,5.69,0,0,1,204.39,387.76Zm.78,4.93a5.5,5.5,0,0,0-.6-2.19,3.06,3.06,0,0,0-2.9-1.53,3.19,3.19,0,0,0-2.43,1,4,4,0,0,0-1.05,2.67Z" transform="translate(0 0.42)"/><path class="cls-5" d="M210,387.41h2v2.17a4.76,4.76,0,0,1,1.2-1.54,3.16,3.16,0,0,1,2.22-.91h.2l.48.05v2.23a2.45,2.45,0,0,0-.35-.05h-.34a3,3,0,0,0-2.45,1,3.62,3.62,0,0,0-.86,2.37V400H210Z" transform="translate(0 0.42)"/><path class="cls-5" d="M224.58,382.75h2.15v2.39h-2.15Zm0,4.72h2.15V400h-2.15Z" transform="translate(0 0.42)"/><path class="cls-5" d="M229.92,387.41h2v1.79a5.5,5.5,0,0,1,1.89-1.59,5,5,0,0,1,2.21-.48c1.78,0,3,.62,3.61,1.87a6.64,6.64,0,0,1,.52,2.91V400H238v-7.92a4.25,4.25,0,0,0-.34-1.85,2.05,2.05,0,0,0-2-1.17,4.21,4.21,0,0,0-1.23.15,3.21,3.21,0,0,0-1.52,1,3.16,3.16,0,0,0-.69,1.28,9.06,9.06,0,0,0-.15,1.89V400h-2.11Z" transform="translate(0 0.42)"/><path class="cls-5" d="M244.52,396a3.09,3.09,0,0,0,.52,1.61,3.34,3.34,0,0,0,2.77,1,4.06,4.06,0,0,0,2.06-.51,1.67,1.67,0,0,0,.89-1.57,1.33,1.33,0,0,0-.71-1.23,9,9,0,0,0-1.81-.6l-1.67-.42a8.3,8.3,0,0,1-2.37-.89,2.66,2.66,0,0,1-1.36-2.37,3.59,3.59,0,0,1,1.29-2.88,5.07,5.07,0,0,1,3.45-1.1,4.79,4.79,0,0,1,4.09,1.66,3.65,3.65,0,0,1,.76,2.27h-2a2.45,2.45,0,0,0-.51-1.3,3.22,3.22,0,0,0-2.52-.83,3,3,0,0,0-1.81.46,1.41,1.41,0,0,0-.61,1.2,1.5,1.5,0,0,0,.8,1.32,5.25,5.25,0,0,0,1.39.51l1.39.34a11,11,0,0,1,3.05,1.07,2.83,2.83,0,0,1,1.23,2.54,3.88,3.88,0,0,1-1.27,2.9,5.43,5.43,0,0,1-3.87,1.22c-1.87,0-3.19-.43-4-1.28a4.74,4.74,0,0,1-1.25-3.14Z" transform="translate(0 0.42)"/><path class="cls-5" d="M255.69,383.91h2.13v3.5h2v1.73h-2v8.19a.9.9,0,0,0,.44.88,2,2,0,0,0,.82.13h.33l.41,0V400a4.53,4.53,0,0,1-.75.15,7.69,7.69,0,0,1-.85,0,2.3,2.3,0,0,1-2-.75,3.38,3.38,0,0,1-.52-2v-8.31H254v-1.73h1.7Z" transform="translate(0 0.42)"/><path class="cls-5" d="M262,387.41h2v2.17A5,5,0,0,1,265.2,388a3.16,3.16,0,0,1,2.22-.91h.2l.48.05v2.23a2.45,2.45,0,0,0-.35-.05h-.35a3,3,0,0,0-2.44,1,3.57,3.57,0,0,0-.86,2.37V400H262Z" transform="translate(0 0.42)"/><path class="cls-5" d="M272,387.41v8.34a3.43,3.43,0,0,0,.31,1.57,2.12,2.12,0,0,0,2.1,1.12,3,3,0,0,0,3-2,8,8,0,0,0,.43-2.89v-6.17H280V400h-2l0-1.86a4.14,4.14,0,0,1-1,1.21,4.45,4.45,0,0,1-2.93,1c-1.79,0-3-.59-3.66-1.79a5.34,5.34,0,0,1-.52-2.56v-8.54Z" transform="translate(0 0.42)"/><path class="cls-5" d="M283.27,387.41h2.09v1.79a6.82,6.82,0,0,1,1.36-1.35,4,4,0,0,1,2.36-.72,3.76,3.76,0,0,1,2.42.74,4.11,4.11,0,0,1,.94,1.24,4.47,4.47,0,0,1,1.65-1.49,4.64,4.64,0,0,1,2.13-.49,3.49,3.49,0,0,1,3.45,1.83,6.11,6.11,0,0,1,.49,2.65V400H298v-8.72a2,2,0,0,0-.63-1.73,2.51,2.51,0,0,0-1.53-.47,3,3,0,0,0-2.14.84,3.63,3.63,0,0,0-.89,2.77V400h-2.15v-8.2a4.3,4.3,0,0,0-.3-1.86,1.86,1.86,0,0,0-1.8-.88,3.09,3.09,0,0,0-2.17.93,4.53,4.53,0,0,0-1,3.35V400h-2.11Z" transform="translate(0 0.42)"/><path class="cls-5" d="M311.08,387.76a4.81,4.81,0,0,1,1.91,1.62,5.64,5.64,0,0,1,.84,2.22,14,14,0,0,1,.19,2.76h-9.2a5.4,5.4,0,0,0,.9,3.07,3,3,0,0,0,2.62,1.15,3.35,3.35,0,0,0,2.63-1.09,3.55,3.55,0,0,0,.8-1.46h2.08a4.5,4.5,0,0,1-.55,1.54,5.49,5.49,0,0,1-1,1.39,4.94,4.94,0,0,1-2.38,1.26,6.91,6.91,0,0,1-1.72.19,5.31,5.31,0,0,1-4-1.7,6.63,6.63,0,0,1-1.63-4.78A7.23,7.23,0,0,1,304.2,389a5.4,5.4,0,0,1,4.29-1.89A5.72,5.72,0,0,1,311.08,387.76Zm.77,4.93a5.35,5.35,0,0,0-.59-2.19,3.07,3.07,0,0,0-2.9-1.53,3.22,3.22,0,0,0-2.44,1,4,4,0,0,0-1,2.67Z" transform="translate(0 0.42)"/><path class="cls-5" d="M316.61,387.41h2v1.79a5.57,5.57,0,0,1,1.88-1.59,5.05,5.05,0,0,1,2.22-.48,3.65,3.65,0,0,1,3.61,1.87,6.66,6.66,0,0,1,.51,2.91V400H324.7v-7.92a4.4,4.4,0,0,0-.34-1.85,2.07,2.07,0,0,0-2-1.17,4.21,4.21,0,0,0-1.23.15,3.23,3.23,0,0,0-1.53,1,3,3,0,0,0-.68,1.28,8.31,8.31,0,0,0-.16,1.89V400h-2.11Z" transform="translate(0 0.42)"/><path class="cls-5" d="M330.38,383.91h2.13v3.5h2v1.73h-2v8.19a.88.88,0,0,0,.45.88,2,2,0,0,0,.82.13h.33l.41,0V400a4.65,4.65,0,0,1-.76.15,7.46,7.46,0,0,1-.85,0,2.29,2.29,0,0,1-2-.75,3.38,3.38,0,0,1-.53-2v-8.31h-1.7v-1.73h1.7Z" transform="translate(0 0.42)"/><path class="cls-5" d="M345.79,388.67a6.3,6.3,0,0,1,1.68,4.76,8.18,8.18,0,0,1-1.48,5,5.33,5.33,0,0,1-4.58,2,5.18,5.18,0,0,1-4.12-1.75,7,7,0,0,1-1.52-4.7,7.49,7.49,0,0,1,1.61-5,5.38,5.38,0,0,1,4.31-1.88A5.67,5.67,0,0,1,345.79,388.67ZM344.48,397a7.93,7.93,0,0,0,.78-3.54,6.18,6.18,0,0,0-.56-2.85,3.16,3.16,0,0,0-3.07-1.74,3,3,0,0,0-2.81,1.48,6.79,6.79,0,0,0-.88,3.56,5.91,5.91,0,0,0,.88,3.34,3.09,3.09,0,0,0,2.79,1.34A2.9,2.9,0,0,0,344.48,397Z" transform="translate(0 0.42)"/><path class="cls-5" d="M356.64,382.69h2.11v6.42a6.12,6.12,0,0,1,1.35-1.33,4.51,4.51,0,0,1,2.54-.67,3.78,3.78,0,0,1,3.71,1.91,6.55,6.55,0,0,1,.52,2.89V400h-2.16v-7.92a4.31,4.31,0,0,0-.36-2,2.23,2.23,0,0,0-2.15-1,3.59,3.59,0,0,0-2.38.9c-.71.6-1.07,1.74-1.07,3.41V400h-2.11Z" transform="translate(0 0.42)"/><path class="cls-5" d="M372.1,387.41v8.34a3.57,3.57,0,0,0,.3,1.57,2.13,2.13,0,0,0,2.1,1.12,3,3,0,0,0,3-2,7.76,7.76,0,0,0,.44-2.89v-6.17H380V400h-2l0-1.86a4.34,4.34,0,0,1-3.95,2.19c-1.79,0-3-.59-3.66-1.79a5.33,5.33,0,0,1-.53-2.56v-8.54Z" transform="translate(0 0.42)"/><path class="cls-5" d="M383.34,387.41h2.08v1.79a7.09,7.09,0,0,1,1.36-1.35,4.09,4.09,0,0,1,2.37-.72,3.71,3.71,0,0,1,2.41.74,3.81,3.81,0,0,1,.94,1.24,4.55,4.55,0,0,1,1.65-1.49,4.71,4.71,0,0,1,2.14-.49,3.49,3.49,0,0,1,3.44,1.83,6,6,0,0,1,.49,2.65V400H398v-8.72a2.07,2.07,0,0,0-.62-1.73,2.51,2.51,0,0,0-1.53-.47,3,3,0,0,0-2.14.84,3.63,3.63,0,0,0-.9,2.77V400H390.7v-8.2a4.13,4.13,0,0,0-.31-1.86,1.85,1.85,0,0,0-1.79-.88,3.07,3.07,0,0,0-2.17.93c-.66.61-1,1.73-1,3.35V400h-2.11Z" transform="translate(0 0.42)"/><path class="cls-5" d="M410.06,392.36a1.14,1.14,0,0,0,1-.61,1.93,1.93,0,0,0,.14-.81,1.7,1.7,0,0,0-.77-1.56,4,4,0,0,0-2.19-.49,2.8,2.8,0,0,0-2.35.89,3,3,0,0,0-.5,1.47h-2a3.63,3.63,0,0,1,1.5-3.23,6.17,6.17,0,0,1,3.36-.91,6.85,6.85,0,0,1,3.6.84,2.88,2.88,0,0,1,1.37,2.63v7.23a1,1,0,0,0,.14.53.64.64,0,0,0,.56.2l.32,0,.38,0V400a4.77,4.77,0,0,1-.75.18,6.62,6.62,0,0,1-.71,0,1.73,1.73,0,0,1-1.58-.77,3,3,0,0,1-.36-1.16,5.52,5.52,0,0,1-1.85,1.47,5.82,5.82,0,0,1-2.66.62,4,4,0,0,1-2.86-1.06,3.54,3.54,0,0,1-1.11-2.66,3.43,3.43,0,0,1,1.09-2.7,5.15,5.15,0,0,1,2.86-1.19Zm-4.44,5.71a2.46,2.46,0,0,0,1.58.52,4.82,4.82,0,0,0,2.15-.51,2.9,2.9,0,0,0,1.76-2.8v-1.7a3.83,3.83,0,0,1-1,.41,7.67,7.67,0,0,1-1.2.23l-1.28.17a4.83,4.83,0,0,0-1.72.48,1.86,1.86,0,0,0-1,1.76A1.73,1.73,0,0,0,405.62,398.07Z" transform="translate(0 0.42)"/><path class="cls-5" d="M416.68,387.41h2v1.79a5.59,5.59,0,0,1,1.89-1.59,5,5,0,0,1,2.21-.48c1.78,0,3,.62,3.61,1.87a6.5,6.5,0,0,1,.52,2.91V400h-2.15v-7.92a4.25,4.25,0,0,0-.34-1.85,2.05,2.05,0,0,0-2-1.17,4.21,4.21,0,0,0-1.23.15,3.26,3.26,0,0,0-1.52,1,3,3,0,0,0-.68,1.28,8.31,8.31,0,0,0-.16,1.89V400h-2.11Z" transform="translate(0 0.42)"/><path class="cls-5" d="M439.19,388.67a6.3,6.3,0,0,1,1.68,4.76,8.18,8.18,0,0,1-1.48,5,5.35,5.35,0,0,1-4.58,2,5.18,5.18,0,0,1-4.12-1.75,7,7,0,0,1-1.52-4.7,7.49,7.49,0,0,1,1.61-5,5.38,5.38,0,0,1,4.31-1.88A5.67,5.67,0,0,1,439.19,388.67ZM437.88,397a7.93,7.93,0,0,0,.78-3.54,6.31,6.31,0,0,0-.56-2.85,3.16,3.16,0,0,0-3.07-1.74,3,3,0,0,0-2.81,1.48,6.79,6.79,0,0,0-.88,3.56,5.91,5.91,0,0,0,.88,3.34,3.09,3.09,0,0,0,2.79,1.34A2.91,2.91,0,0,0,437.88,397Z" transform="translate(0 0.42)"/><path class="cls-5" d="M457.86,387.76a4.88,4.88,0,0,1,1.91,1.62,5.64,5.64,0,0,1,.84,2.22,14,14,0,0,1,.19,2.76h-9.2a5.4,5.4,0,0,0,.9,3.07,3,3,0,0,0,2.62,1.15,3.35,3.35,0,0,0,2.63-1.09,3.67,3.67,0,0,0,.8-1.46h2.07a4.26,4.26,0,0,1-.54,1.54,5.73,5.73,0,0,1-1,1.39,4.94,4.94,0,0,1-2.38,1.26,7,7,0,0,1-1.72.19,5.29,5.29,0,0,1-4-1.7,6.63,6.63,0,0,1-1.63-4.78A7.18,7.18,0,0,1,451,389a5.4,5.4,0,0,1,4.29-1.89A5.72,5.72,0,0,1,457.86,387.76Zm.77,4.93a5.34,5.34,0,0,0-.6-2.19,3,3,0,0,0-2.89-1.53,3.22,3.22,0,0,0-2.44,1,4,4,0,0,0-1,2.67Z" transform="translate(0 0.42)"/><path class="cls-5" d="M463.39,387.41h2v1.79a5.69,5.69,0,0,1,1.89-1.59,5,5,0,0,1,2.21-.48c1.79,0,3,.62,3.61,1.87a6.5,6.5,0,0,1,.52,2.91V400h-2.15v-7.92a4.25,4.25,0,0,0-.34-1.85,2,2,0,0,0-2-1.17,4.21,4.21,0,0,0-1.23.15,3.23,3.23,0,0,0-1.53,1,3,3,0,0,0-.68,1.28,8.31,8.31,0,0,0-.16,1.89V400h-2.11Z" transform="translate(0 0.42)"/><path class="cls-5" d="M84.36,416.56a4.88,4.88,0,0,1,1.91,1.62,5.64,5.64,0,0,1,.84,2.22,14,14,0,0,1,.19,2.76H78.1a5.4,5.4,0,0,0,.9,3.07,3,3,0,0,0,2.62,1.15,3.35,3.35,0,0,0,2.63-1.09,3.67,3.67,0,0,0,.8-1.46h2.07a4.26,4.26,0,0,1-.54,1.54,5.73,5.73,0,0,1-1,1.39A4.94,4.94,0,0,1,83.16,429a7,7,0,0,1-1.72.19,5.29,5.29,0,0,1-4-1.7,6.63,6.63,0,0,1-1.63-4.78,7.18,7.18,0,0,1,1.64-4.91,5.4,5.4,0,0,1,4.29-1.89A5.72,5.72,0,0,1,84.36,416.56Zm.77,4.93a5.34,5.34,0,0,0-.6-2.19,3,3,0,0,0-2.89-1.53,3.22,3.22,0,0,0-2.44,1.05,4,4,0,0,0-1,2.67Z" transform="translate(0 0.42)"/><path class="cls-5" d="M88.69,416.21h2.73l2.89,4.42,2.91-4.42,2.57.06-4.23,6.06,4.42,6.43h-2.7l-3.11-4.71-3,4.71H88.47l4.42-6.43Z" transform="translate(0 0.42)"/><path class="cls-5" d="M101.72,416.27h2.06v1.67a5.23,5.23,0,0,1,1.38-1.33,4.45,4.45,0,0,1,2.51-.7,4.72,4.72,0,0,1,3.62,1.63,6.72,6.72,0,0,1,1.49,4.67q0,4.11-2.15,5.86a4.81,4.81,0,0,1-3.16,1.12,4.32,4.32,0,0,1-2.38-.62,5.52,5.52,0,0,1-1.26-1.21v6.41h-2.11Zm7.92,9.84a5.9,5.9,0,0,0,1-3.7,7,7,0,0,0-.43-2.57,3.18,3.18,0,0,0-6,.11,8.68,8.68,0,0,0-.44,3,6.27,6.27,0,0,0,.44,2.47,3,3,0,0,0,3,2A3,3,0,0,0,109.64,426.11Z" transform="translate(0 0.42)"/><path class="cls-5" d="M115.29,411.55h2.11v17.21h-2.11Z" transform="translate(0 0.42)"/><path class="cls-5" d="M129.73,417.47a6.3,6.3,0,0,1,1.68,4.76,8.12,8.12,0,0,1-1.48,5,5.33,5.33,0,0,1-4.58,2,5.15,5.15,0,0,1-4.11-1.75,6.92,6.92,0,0,1-1.53-4.71,7.48,7.48,0,0,1,1.61-5,5.39,5.39,0,0,1,4.31-1.88A5.66,5.66,0,0,1,129.73,417.47Zm-1.3,8.35a7.93,7.93,0,0,0,.78-3.54,6.17,6.17,0,0,0-.57-2.85,3.15,3.15,0,0,0-3.07-1.74,3,3,0,0,0-2.81,1.48,6.79,6.79,0,0,0-.88,3.56,5.91,5.91,0,0,0,.88,3.34,3.11,3.11,0,0,0,2.79,1.34A2.91,2.91,0,0,0,128.43,425.82Z" transform="translate(0 0.42)"/><path class="cls-5" d="M134,416.21h2v2.17a4.68,4.68,0,0,1,1.21-1.54,3.14,3.14,0,0,1,2.21-.91h.2l.48.05v2.23a2.27,2.27,0,0,0-.35-.05h-.34a3,3,0,0,0-2.45,1,3.62,3.62,0,0,0-.86,2.37v7.21H134Z" transform="translate(0 0.42)"/><path class="cls-5" d="M148.63,421.16a1.16,1.16,0,0,0,1-.61,1.93,1.93,0,0,0,.14-.81,1.7,1.7,0,0,0-.77-1.56,4.05,4.05,0,0,0-2.2-.49,2.8,2.8,0,0,0-2.34.89,2.86,2.86,0,0,0-.5,1.47h-2a3.63,3.63,0,0,1,1.5-3.23,6.17,6.17,0,0,1,3.36-.91,6.85,6.85,0,0,1,3.6.84,2.88,2.88,0,0,1,1.37,2.63v7.23a1,1,0,0,0,.13.53.66.66,0,0,0,.57.2l.32,0,.37-.06v1.56a4.3,4.3,0,0,1-.75.18,6.29,6.29,0,0,1-.7,0,1.72,1.72,0,0,1-1.58-.77,3.16,3.16,0,0,1-.37-1.16,5.33,5.33,0,0,1-1.85,1.47,5.76,5.76,0,0,1-2.66.62,4,4,0,0,1-2.85-1.06,3.54,3.54,0,0,1-1.11-2.66,3.47,3.47,0,0,1,1.09-2.71,5.21,5.21,0,0,1,2.86-1.18Zm-4.44,5.71a2.51,2.51,0,0,0,1.59.52,4.82,4.82,0,0,0,2.15-.51,2.91,2.91,0,0,0,1.76-2.8v-1.7a3.77,3.77,0,0,1-1,.41,7.34,7.34,0,0,1-1.19.23l-1.28.17a4.83,4.83,0,0,0-1.72.48,1.86,1.86,0,0,0-1,1.76A1.77,1.77,0,0,0,144.19,426.87Z" transform="translate(0 0.42)"/><path class="cls-5" d="M155.31,416.21h2v2.17a4.68,4.68,0,0,1,1.21-1.54,3.14,3.14,0,0,1,2.21-.91h.2l.48.05v2.23a2.45,2.45,0,0,0-.35-.05h-.34a3,3,0,0,0-2.45,1,3.62,3.62,0,0,0-.86,2.37v7.21h-2.11Z" transform="translate(0 0.42)"/><path class="cls-5" d="M170,411.55h2.11v17.21H170Z" transform="translate(0 0.42)"/><path class="cls-5" d="M182,421.16a1.16,1.16,0,0,0,1-.61,1.93,1.93,0,0,0,.14-.81,1.7,1.7,0,0,0-.77-1.56,4.05,4.05,0,0,0-2.2-.49,2.8,2.8,0,0,0-2.34.89,2.86,2.86,0,0,0-.5,1.47h-2a3.63,3.63,0,0,1,1.5-3.23,6.17,6.17,0,0,1,3.36-.91,6.85,6.85,0,0,1,3.6.84,2.88,2.88,0,0,1,1.37,2.63v7.23a1,1,0,0,0,.13.53.66.66,0,0,0,.57.2l.32,0,.37-.06v1.56a4.3,4.3,0,0,1-.75.18,6.29,6.29,0,0,1-.7,0,1.72,1.72,0,0,1-1.58-.77,3.16,3.16,0,0,1-.37-1.16,5.33,5.33,0,0,1-1.85,1.47,5.76,5.76,0,0,1-2.66.62,4,4,0,0,1-2.85-1.06,3.54,3.54,0,0,1-1.11-2.66,3.47,3.47,0,0,1,1.09-2.71,5.21,5.21,0,0,1,2.86-1.18Zm-4.44,5.71a2.51,2.51,0,0,0,1.59.52,4.82,4.82,0,0,0,2.15-.51,2.91,2.91,0,0,0,1.76-2.8v-1.7a3.77,3.77,0,0,1-1,.41,7.34,7.34,0,0,1-1.19.23l-1.28.17a4.77,4.77,0,0,0-1.72.48,1.86,1.86,0,0,0-1,1.76A1.77,1.77,0,0,0,177.53,426.87Z" transform="translate(0 0.42)"/><path class="cls-5" d="M203.55,416.88a4.93,4.93,0,0,1,1.6,3.55H203.1a3.76,3.76,0,0,0-.85-1.92,2.69,2.69,0,0,0-2.15-.77,3,3,0,0,0-2.88,2,7.89,7.89,0,0,0-.56,3.15,5.81,5.81,0,0,0,.8,3.17,3.08,3.08,0,0,0,4.58.49,4.37,4.37,0,0,0,1.06-2.2h2.05a5,5,0,0,1-5.35,4.81,4.81,4.81,0,0,1-3.93-1.8,6.92,6.92,0,0,1-1.46-4.49,7.58,7.58,0,0,1,1.6-5.15,5.19,5.19,0,0,1,4.09-1.84A5.43,5.43,0,0,1,203.55,416.88Z" transform="translate(0 0.42)"/><path class="cls-5" d="M214,421.16a1.14,1.14,0,0,0,1-.61,1.79,1.79,0,0,0,.14-.81,1.7,1.7,0,0,0-.76-1.56,4.1,4.1,0,0,0-2.2-.49,2.83,2.83,0,0,0-2.35.89,3.05,3.05,0,0,0-.5,1.47h-2a3.61,3.61,0,0,1,1.51-3.23,6.13,6.13,0,0,1,3.36-.91,6.84,6.84,0,0,1,3.59.84,2.86,2.86,0,0,1,1.37,2.63v7.23a1,1,0,0,0,.14.53.66.66,0,0,0,.57.2l.31,0,.38-.06v1.56a4.77,4.77,0,0,1-.75.18,6.41,6.41,0,0,1-.7,0,1.74,1.74,0,0,1-1.59-.77,3,3,0,0,1-.36-1.16,5.52,5.52,0,0,1-1.85,1.47,5.79,5.79,0,0,1-2.66.62,4,4,0,0,1-2.85-1.06,3.54,3.54,0,0,1-1.11-2.66,3.43,3.43,0,0,1,1.09-2.71,5.18,5.18,0,0,1,2.86-1.18Zm-4.44,5.71a2.46,2.46,0,0,0,1.58.52,4.89,4.89,0,0,0,2.16-.51,2.9,2.9,0,0,0,1.75-2.8v-1.7a3.55,3.55,0,0,1-1,.41,7.67,7.67,0,0,1-1.2.23l-1.27.17a4.89,4.89,0,0,0-1.73.48,1.88,1.88,0,0,0-1,1.76A1.75,1.75,0,0,0,209.55,426.87Z" transform="translate(0 0.42)"/><path class="cls-5" d="M220.67,416.21h2v2.17a5,5,0,0,1,1.21-1.54,3.16,3.16,0,0,1,2.22-.91h.19l.49.05v2.23a2.45,2.45,0,0,0-.35-.05h-.35a3,3,0,0,0-2.45,1,3.61,3.61,0,0,0-.85,2.37v7.21h-2.11Z" transform="translate(0 0.42)"/><path class="cls-5" d="M235.33,421.16a1.14,1.14,0,0,0,1-.61,1.79,1.79,0,0,0,.14-.81,1.7,1.7,0,0,0-.76-1.56,4.1,4.1,0,0,0-2.2-.49,2.83,2.83,0,0,0-2.35.89,3.05,3.05,0,0,0-.5,1.47h-2a3.61,3.61,0,0,1,1.51-3.23,6.13,6.13,0,0,1,3.36-.91,6.84,6.84,0,0,1,3.59.84,2.86,2.86,0,0,1,1.37,2.63v7.23a1,1,0,0,0,.14.53.66.66,0,0,0,.57.2l.31,0,.38-.06v1.56a4.77,4.77,0,0,1-.75.18,6.41,6.41,0,0,1-.7,0,1.74,1.74,0,0,1-1.59-.77,3,3,0,0,1-.36-1.16,5.52,5.52,0,0,1-1.85,1.47,5.79,5.79,0,0,1-2.66.62,4,4,0,0,1-2.85-1.06,3.54,3.54,0,0,1-1.11-2.66,3.43,3.43,0,0,1,1.09-2.71,5.18,5.18,0,0,1,2.86-1.18Zm-4.44,5.71a2.46,2.46,0,0,0,1.58.52,4.89,4.89,0,0,0,2.16-.51,2.9,2.9,0,0,0,1.75-2.8v-1.7a3.69,3.69,0,0,1-1,.41,7.67,7.67,0,0,1-1.2.23l-1.27.17a4.89,4.89,0,0,0-1.73.48,1.86,1.86,0,0,0-1,1.76A1.75,1.75,0,0,0,230.89,426.87Z" transform="translate(0 0.42)"/><path class="cls-5" d="M257.78,417.47a6.3,6.3,0,0,1,1.68,4.76,8.12,8.12,0,0,1-1.48,5,5.33,5.33,0,0,1-4.58,2,5.15,5.15,0,0,1-4.11-1.75,6.92,6.92,0,0,1-1.53-4.71,7.48,7.48,0,0,1,1.61-5,5.39,5.39,0,0,1,4.31-1.88A5.66,5.66,0,0,1,257.78,417.47Zm-1.3,8.35a7.93,7.93,0,0,0,.78-3.54,6.17,6.17,0,0,0-.57-2.85,3.15,3.15,0,0,0-3.07-1.74,3,3,0,0,0-2.81,1.48,6.79,6.79,0,0,0-.88,3.56,5.91,5.91,0,0,0,.88,3.34,3.11,3.11,0,0,0,2.79,1.34A2.91,2.91,0,0,0,256.48,425.82Z" transform="translate(0 0.42)"/><path class="cls-5" d="M270.26,416.88a5,5,0,0,1,1.6,3.55h-2.05a3.77,3.77,0,0,0-.86-1.92,2.66,2.66,0,0,0-2.14-.77,3,3,0,0,0-2.89,2,7.89,7.89,0,0,0-.56,3.15,5.89,5.89,0,0,0,.8,3.17,3.09,3.09,0,0,0,4.59.49,4.45,4.45,0,0,0,1.06-2.2h2.05a5,5,0,0,1-5.36,4.81,4.78,4.78,0,0,1-3.92-1.8,6.87,6.87,0,0,1-1.47-4.49,7.58,7.58,0,0,1,1.61-5.15,5.17,5.17,0,0,1,4.09-1.84A5.47,5.47,0,0,1,270.26,416.88Z" transform="translate(0 0.42)"/><path class="cls-5" d="M276.08,416.21v8.34a3.57,3.57,0,0,0,.3,1.57,2.13,2.13,0,0,0,2.1,1.12,3,3,0,0,0,3-2,7.79,7.79,0,0,0,.43-2.89v-6.17H284v12.55h-2l0-1.85a4.14,4.14,0,0,1-1,1.21,4.45,4.45,0,0,1-2.93,1c-1.79,0-3-.59-3.65-1.79a5.33,5.33,0,0,1-.53-2.56v-8.54Z" transform="translate(0 0.42)"/><path class="cls-5" d="M287.37,411.55h2.11v17.21h-2.11Z" transform="translate(0 0.42)"/><path class="cls-5" d="M293.07,412.71h2.13v3.5h2v1.73h-2v8.19a.88.88,0,0,0,.45.88,2,2,0,0,0,.82.13h.32l.42,0v1.66a4,4,0,0,1-.76.16,7.58,7.58,0,0,1-.85,0,2.29,2.29,0,0,1-2-.75,3.31,3.31,0,0,1-.53-2v-8.31h-1.7v-1.73h1.7Z" transform="translate(0 0.42)"/><path class="cls-5" d="M306,421.16a1.13,1.13,0,0,0,1-.61,1.79,1.79,0,0,0,.14-.81,1.7,1.7,0,0,0-.76-1.56,4.08,4.08,0,0,0-2.2-.49,2.8,2.8,0,0,0-2.34.89,3,3,0,0,0-.51,1.47h-2a3.61,3.61,0,0,1,1.51-3.23,6.13,6.13,0,0,1,3.36-.91,6.84,6.84,0,0,1,3.59.84,2.87,2.87,0,0,1,1.38,2.63v7.23a1,1,0,0,0,.13.53.66.66,0,0,0,.57.2l.31,0,.38-.06v1.56a4.77,4.77,0,0,1-.75.18,6.41,6.41,0,0,1-.7,0,1.74,1.74,0,0,1-1.59-.77,3,3,0,0,1-.36-1.16,5.52,5.52,0,0,1-1.85,1.47,5.79,5.79,0,0,1-2.66.62,4,4,0,0,1-2.85-1.06,3.54,3.54,0,0,1-1.11-2.66,3.43,3.43,0,0,1,1.09-2.71,5.18,5.18,0,0,1,2.86-1.18Zm-4.44,5.71a2.46,2.46,0,0,0,1.58.52,4.89,4.89,0,0,0,2.16-.51,2.91,2.91,0,0,0,1.76-2.8v-1.7a3.77,3.77,0,0,1-1,.41,7.67,7.67,0,0,1-1.2.23l-1.27.17a4.89,4.89,0,0,0-1.73.48,1.88,1.88,0,0,0-1,1.76A1.75,1.75,0,0,0,301.6,426.87Z" transform="translate(0 0.42)"/><path class="cls-5" d="M326.26,416.6a5.9,5.9,0,0,1,1.27,1.23v-6.34h2v17.27h-1.9V427a4.53,4.53,0,0,1-1.74,1.67,5,5,0,0,1-2.31.52,4.71,4.71,0,0,1-3.64-1.76,6.92,6.92,0,0,1-1.53-4.7,8.14,8.14,0,0,1,1.4-4.75,4.58,4.58,0,0,1,4-2A4.46,4.46,0,0,1,326.26,416.6ZM321.52,426a3,3,0,0,0,2.74,1.36,2.89,2.89,0,0,0,2.41-1.26,5.92,5.92,0,0,0,.95-3.61,5.37,5.37,0,0,0-1-3.53,3,3,0,0,0-2.4-1.14,3.18,3.18,0,0,0-2.58,1.22,5.59,5.59,0,0,0-1,3.59A6.22,6.22,0,0,0,321.52,426Z" transform="translate(0 0.42)"/><path class="cls-5" d="M340.49,416.56a4.74,4.74,0,0,1,1.91,1.62,5.51,5.51,0,0,1,.85,2.22,14.86,14.86,0,0,1,.19,2.76h-9.2a5.4,5.4,0,0,0,.9,3.07,3,3,0,0,0,2.61,1.15,3.38,3.38,0,0,0,2.64-1.09,3.79,3.79,0,0,0,.8-1.46h2.07a4.3,4.3,0,0,1-.55,1.54,5.46,5.46,0,0,1-1,1.39A5,5,0,0,1,339.3,429a7,7,0,0,1-1.72.19,5.32,5.32,0,0,1-4-1.7,6.67,6.67,0,0,1-1.63-4.78,7.18,7.18,0,0,1,1.65-4.91,5.39,5.39,0,0,1,4.28-1.89A5.69,5.69,0,0,1,340.49,416.56Zm.78,4.93a5.5,5.5,0,0,0-.6-2.19,3.06,3.06,0,0,0-2.89-1.53,3.2,3.2,0,0,0-2.44,1.05,4,4,0,0,0-1,2.67Z" transform="translate(0 0.42)"/><path class="cls-5" d="M352.75,411.55h2.11v17.21h-2.11Z" transform="translate(0 0.42)"/><path class="cls-5" d="M364.75,421.16a1.13,1.13,0,0,0,1-.61,1.77,1.77,0,0,0,.15-.81,1.7,1.7,0,0,0-.77-1.56,4.08,4.08,0,0,0-2.2-.49,2.8,2.8,0,0,0-2.34.89,3,3,0,0,0-.51,1.47h-2a3.63,3.63,0,0,1,1.51-3.23,6.13,6.13,0,0,1,3.36-.91,6.84,6.84,0,0,1,3.59.84,2.87,2.87,0,0,1,1.38,2.63v7.23a1,1,0,0,0,.13.53.66.66,0,0,0,.57.2l.32,0,.37-.06v1.56a4.77,4.77,0,0,1-.75.18,6.41,6.41,0,0,1-.7,0,1.71,1.71,0,0,1-1.58-.77,2.83,2.83,0,0,1-.37-1.16,5.42,5.42,0,0,1-1.85,1.47,5.76,5.76,0,0,1-2.66.62,4,4,0,0,1-2.85-1.06,3.54,3.54,0,0,1-1.11-2.66,3.43,3.43,0,0,1,1.09-2.71,5.21,5.21,0,0,1,2.86-1.18Zm-4.44,5.71a2.48,2.48,0,0,0,1.58.52,4.89,4.89,0,0,0,2.16-.51,2.91,2.91,0,0,0,1.76-2.8v-1.7a3.77,3.77,0,0,1-1,.41,7.55,7.55,0,0,1-1.19.23l-1.28.17a4.77,4.77,0,0,0-1.72.48,1.87,1.87,0,0,0-1,1.76A1.77,1.77,0,0,0,360.31,426.87Z" transform="translate(0 0.42)"/><path class="cls-5" d="M378.1,411.55h2.11v17.21H378.1Z" transform="translate(0 0.42)"/><path class="cls-5" d="M385.48,416.21v8.34a3.43,3.43,0,0,0,.31,1.57,2.11,2.11,0,0,0,2.09,1.12,3,3,0,0,0,3-2,7.76,7.76,0,0,0,.44-2.89v-6.17h2.11v12.55h-2l0-1.85a4.14,4.14,0,0,1-1,1.21,4.47,4.47,0,0,1-2.93,1c-1.79,0-3-.59-3.66-1.79a5.34,5.34,0,0,1-.52-2.56v-8.54Z" transform="translate(0 0.42)"/><path class="cls-5" d="M396.72,416.21h2V418a5.69,5.69,0,0,1,1.89-1.59,5.05,5.05,0,0,1,2.22-.48,3.65,3.65,0,0,1,3.61,1.87,6.66,6.66,0,0,1,.51,2.91v8.05h-2.14v-7.91a4.4,4.4,0,0,0-.34-1.85,2.07,2.07,0,0,0-2-1.17,4.21,4.21,0,0,0-1.23.15,3.29,3.29,0,0,0-1.53,1,3.11,3.11,0,0,0-.68,1.29,8.31,8.31,0,0,0-.16,1.89v6.57h-2.11Z" transform="translate(0 0.42)"/><path class="cls-5" d="M416.79,421.16a1.16,1.16,0,0,0,1-.61,1.93,1.93,0,0,0,.14-.81,1.7,1.7,0,0,0-.77-1.56,4.05,4.05,0,0,0-2.2-.49,2.8,2.8,0,0,0-2.34.89,2.86,2.86,0,0,0-.5,1.47h-2a3.63,3.63,0,0,1,1.5-3.23,6.17,6.17,0,0,1,3.36-.91,6.85,6.85,0,0,1,3.6.84,2.88,2.88,0,0,1,1.37,2.63v7.23a1,1,0,0,0,.13.53.66.66,0,0,0,.57.2l.32,0,.37-.06v1.56a4.3,4.3,0,0,1-.75.18,6.29,6.29,0,0,1-.7,0,1.72,1.72,0,0,1-1.58-.77,3,3,0,0,1-.36-1.16,5.46,5.46,0,0,1-1.86,1.47,5.76,5.76,0,0,1-2.66.62,4,4,0,0,1-2.85-1.06,3.54,3.54,0,0,1-1.11-2.66,3.47,3.47,0,0,1,1.09-2.71,5.21,5.21,0,0,1,2.86-1.18Zm-4.44,5.71a2.51,2.51,0,0,0,1.59.52,4.82,4.82,0,0,0,2.15-.51,2.91,2.91,0,0,0,1.76-2.8v-1.7a3.77,3.77,0,0,1-1,.41,7.34,7.34,0,0,1-1.19.23l-1.28.17a4.83,4.83,0,0,0-1.72.48,1.86,1.86,0,0,0-1,1.76A1.77,1.77,0,0,0,412.35,426.87Z" transform="translate(0 0.42)"/><path class="cls-6" d="M746.52,589.53h2.33v15.16h8.72v2H746.52Z" transform="translate(0 0.42)"/><path class="cls-6" d="M766.32,599.14a1.18,1.18,0,0,0,1-.61,1.93,1.93,0,0,0,.14-.81,1.73,1.73,0,0,0-.77-1.57,4.15,4.15,0,0,0-2.2-.48,2.77,2.77,0,0,0-2.34.89,2.82,2.82,0,0,0-.5,1.46h-2a3.65,3.65,0,0,1,1.5-3.23,6.26,6.26,0,0,1,3.36-.9,6.85,6.85,0,0,1,3.6.84,2.87,2.87,0,0,1,1.37,2.62v7.24a.91.91,0,0,0,.13.52c.09.14.28.2.57.2a1.83,1.83,0,0,0,.32,0l.37,0v1.56a7.57,7.57,0,0,1-.75.18,6.29,6.29,0,0,1-.7,0,1.74,1.74,0,0,1-1.58-.77,3.05,3.05,0,0,1-.36-1.16,5.33,5.33,0,0,1-1.86,1.46,5.64,5.64,0,0,1-2.66.62,3.94,3.94,0,0,1-2.85-1.06,3.5,3.5,0,0,1-1.11-2.65,3.44,3.44,0,0,1,1.09-2.71,5.21,5.21,0,0,1,2.86-1.18Zm-4.45,5.7a2.52,2.52,0,0,0,1.59.53,4.7,4.7,0,0,0,2.15-.52,2.9,2.9,0,0,0,1.76-2.8v-1.7a3.2,3.2,0,0,1-1,.41,8.65,8.65,0,0,1-1.19.24l-1.28.16a5,5,0,0,0-1.72.48,1.88,1.88,0,0,0-1,1.76A1.74,1.74,0,0,0,761.87,604.84Z" transform="translate(0 0.42)"/><path class="cls-6" d="M774.19,602.8a3,3,0,0,0,.53,1.62,3.3,3.3,0,0,0,2.76,1,4.13,4.13,0,0,0,2.07-.51,1.7,1.7,0,0,0,.89-1.58,1.36,1.36,0,0,0-.72-1.23,8.15,8.15,0,0,0-1.8-.59l-1.68-.43a8,8,0,0,1-2.37-.89,2.67,2.67,0,0,1-1.36-2.36A3.63,3.63,0,0,1,773.8,595a5.12,5.12,0,0,1,3.45-1.1,4.8,4.8,0,0,1,4.09,1.67,3.59,3.59,0,0,1,.76,2.27h-2a2.42,2.42,0,0,0-.51-1.3,3.18,3.18,0,0,0-2.52-.83,3.06,3.06,0,0,0-1.81.45,1.44,1.44,0,0,0-.61,1.21,1.47,1.47,0,0,0,.81,1.31,4.7,4.7,0,0,0,1.38.52l1.4.34a10.58,10.58,0,0,1,3,1.07,2.8,2.8,0,0,1,1.23,2.54,3.85,3.85,0,0,1-1.27,2.89,5.38,5.38,0,0,1-3.87,1.22c-1.87,0-3.19-.42-4-1.27a4.84,4.84,0,0,1-1.25-3.15Z" transform="translate(0 0.42)"/><path class="cls-6" d="M791.44,594.25h2v1.66a5,5,0,0,1,1.38-1.32,4.45,4.45,0,0,1,2.51-.7,4.71,4.71,0,0,1,3.62,1.63,6.67,6.67,0,0,1,1.49,4.67q0,4.11-2.14,5.86a4.86,4.86,0,0,1-3.17,1.11,4.26,4.26,0,0,1-2.38-.62,5.41,5.41,0,0,1-1.25-1.2v6.41h-2.11Zm7.92,9.84a5.92,5.92,0,0,0,1-3.7,6.9,6.9,0,0,0-.43-2.58,3.18,3.18,0,0,0-6,.12,8.66,8.66,0,0,0-.43,3,6.31,6.31,0,0,0,.43,2.47,3,3,0,0,0,3,1.94A3,3,0,0,0,799.36,604.09Z" transform="translate(0 0.42)"/><path class="cls-6" d="M805,594.19h2v2.17a4.86,4.86,0,0,1,1.21-1.54,3.12,3.12,0,0,1,2.22-.91h.2l.48.05v2.22l-.35,0h-.35a3,3,0,0,0-2.44,1,3.58,3.58,0,0,0-.86,2.36v7.22H805Z" transform="translate(0 0.42)"/><path class="cls-6" d="M822.11,595.44a6.32,6.32,0,0,1,1.67,4.76,8.19,8.19,0,0,1-1.47,5,5.35,5.35,0,0,1-4.58,2,5.21,5.21,0,0,1-4.12-1.75,7,7,0,0,1-1.52-4.71,7.49,7.49,0,0,1,1.6-5,5.39,5.39,0,0,1,4.32-1.87A5.72,5.72,0,0,1,822.11,595.44Zm-1.31,8.35a7.86,7.86,0,0,0,.78-3.53,6.38,6.38,0,0,0-.56-2.86,3.18,3.18,0,0,0-3.07-1.73,3,3,0,0,0-2.81,1.47,6.85,6.85,0,0,0-.88,3.57,5.93,5.93,0,0,0,.88,3.34,3.07,3.07,0,0,0,2.78,1.33A2.91,2.91,0,0,0,820.8,603.79Zm-.34-14.65-3.13,3.39h-1.62l2.14-3.39Z" transform="translate(0 0.42)"/><path class="cls-6" d="M825.1,594.19h2.73l2.88,4.42,2.92-4.42,2.56.06L832,600.31l4.42,6.43h-2.69L830.57,602l-3,4.71h-2.68l4.42-6.43Z" transform="translate(0 0.42)"/><path class="cls-6" d="M838.29,589.53h2.15v2.39h-2.15Zm0,4.72h2.15v12.49h-2.15Z" transform="translate(0 0.42)"/><path class="cls-6" d="M843.62,594.19h2.09V596a7.1,7.1,0,0,1,1.36-1.35,4.11,4.11,0,0,1,2.37-.71,3.73,3.73,0,0,1,2.41.74,3.84,3.84,0,0,1,.94,1.24,4.38,4.38,0,0,1,3.78-2,3.49,3.49,0,0,1,3.45,1.83,5.94,5.94,0,0,1,.49,2.65v8.35h-2.19V598a2,2,0,0,0-.63-1.72,2.51,2.51,0,0,0-1.53-.47,3.06,3.06,0,0,0-2.14.83,3.69,3.69,0,0,0-.89,2.78v7.3H851v-8.19a4.3,4.3,0,0,0-.3-1.86,1.85,1.85,0,0,0-1.79-.88,3.12,3.12,0,0,0-2.18.92,4.57,4.57,0,0,0-1,3.36v6.65h-2.11Z" transform="translate(0 0.42)"/><path class="cls-6" d="M870.34,599.14a1.18,1.18,0,0,0,1-.61,1.93,1.93,0,0,0,.14-.81,1.73,1.73,0,0,0-.77-1.57,4.18,4.18,0,0,0-2.2-.48,2.77,2.77,0,0,0-2.34.89,2.91,2.91,0,0,0-.51,1.46h-2a3.66,3.66,0,0,1,1.51-3.23,6.23,6.23,0,0,1,3.36-.9,6.9,6.9,0,0,1,3.6.84,2.87,2.87,0,0,1,1.37,2.62v7.24a.91.91,0,0,0,.13.52c.09.14.28.2.57.2a1.89,1.89,0,0,0,.32,0l.37,0v1.56q-.49.13-.75.18a6.29,6.29,0,0,1-.7,0,1.73,1.73,0,0,1-1.58-.77,2.88,2.88,0,0,1-.37-1.16,5.29,5.29,0,0,1-1.85,1.46,5.64,5.64,0,0,1-2.66.62,3.94,3.94,0,0,1-2.85-1.06,3.5,3.5,0,0,1-1.11-2.65,3.4,3.4,0,0,1,1.09-2.71,5.21,5.21,0,0,1,2.86-1.18Zm-4.44,5.7a2.49,2.49,0,0,0,1.58.53,4.74,4.74,0,0,0,2.16-.52,2.9,2.9,0,0,0,1.76-2.8v-1.7a3.2,3.2,0,0,1-1,.41,8.65,8.65,0,0,1-1.19.24l-1.28.16a5,5,0,0,0-1.72.48,1.89,1.89,0,0,0-1,1.76A1.75,1.75,0,0,0,865.9,604.84Z" transform="translate(0 0.42)"/><path class="cls-6" d="M878.22,602.8a3,3,0,0,0,.53,1.62,3.3,3.3,0,0,0,2.76,1,4.06,4.06,0,0,0,2.06-.51,1.68,1.68,0,0,0,.89-1.58,1.36,1.36,0,0,0-.71-1.23,8.5,8.5,0,0,0-1.81-.59l-1.67-.43a8,8,0,0,1-2.37-.89,2.67,2.67,0,0,1-1.36-2.36,3.63,3.63,0,0,1,1.29-2.89,5.12,5.12,0,0,1,3.45-1.1,4.8,4.8,0,0,1,4.09,1.67,3.65,3.65,0,0,1,.76,2.27h-2a2.42,2.42,0,0,0-.51-1.3,3.18,3.18,0,0,0-2.52-.83,3.06,3.06,0,0,0-1.81.45,1.44,1.44,0,0,0-.61,1.21,1.47,1.47,0,0,0,.81,1.31,4.7,4.7,0,0,0,1.38.52l1.39.34a10.68,10.68,0,0,1,3.05,1.07,2.8,2.8,0,0,1,1.23,2.54,3.85,3.85,0,0,1-1.27,2.89,5.38,5.38,0,0,1-3.87,1.22c-1.87,0-3.19-.42-4-1.27a4.84,4.84,0,0,1-1.25-3.15Z" transform="translate(0 0.42)"/><path class="cls-6" d="M895.63,594.19h2.09V596a7.1,7.1,0,0,1,1.36-1.35,4.1,4.1,0,0,1,2.36-.71,3.76,3.76,0,0,1,2.42.74,4,4,0,0,1,.94,1.24,4.38,4.38,0,0,1,3.78-2,3.49,3.49,0,0,1,3.45,1.83,6.08,6.08,0,0,1,.49,2.65v8.35h-2.19V598a2,2,0,0,0-.63-1.72,2.51,2.51,0,0,0-1.53-.47,3.06,3.06,0,0,0-2.14.83,3.65,3.65,0,0,0-.89,2.78v7.3H903v-8.19a4.3,4.3,0,0,0-.3-1.86,1.86,1.86,0,0,0-1.8-.88,3.12,3.12,0,0,0-2.17.92,4.57,4.57,0,0,0-1,3.36v6.65h-2.11Z" transform="translate(0 0.42)"/><path class="cls-6" d="M915.62,589.53h2.15v2.39h-2.15Zm0,4.72h2.15v12.49h-2.15Z" transform="translate(0 0.42)"/><path class="cls-6" d="M922.21,602.8a3,3,0,0,0,.53,1.62,3.3,3.3,0,0,0,2.76,1,4.13,4.13,0,0,0,2.07-.51,1.7,1.7,0,0,0,.89-1.58,1.36,1.36,0,0,0-.72-1.23,8.35,8.35,0,0,0-1.8-.59l-1.68-.43a8,8,0,0,1-2.37-.89,2.67,2.67,0,0,1-1.36-2.36,3.63,3.63,0,0,1,1.29-2.89,5.12,5.12,0,0,1,3.45-1.1,4.8,4.8,0,0,1,4.09,1.67,3.59,3.59,0,0,1,.76,2.27h-2a2.42,2.42,0,0,0-.51-1.3,3.18,3.18,0,0,0-2.52-.83,3.06,3.06,0,0,0-1.81.45,1.44,1.44,0,0,0-.61,1.21,1.47,1.47,0,0,0,.81,1.31,4.7,4.7,0,0,0,1.38.52l1.39.34a10.56,10.56,0,0,1,3,1.07,2.8,2.8,0,0,1,1.23,2.54,3.85,3.85,0,0,1-1.27,2.89,5.38,5.38,0,0,1-3.87,1.22c-1.87,0-3.19-.42-4-1.27a4.84,4.84,0,0,1-1.25-3.15Z" transform="translate(0 0.42)"/><path class="cls-6" d="M933,589.53h2.14v2.39H933Zm0,4.72h2.14v12.49H933Z" transform="translate(0 0.42)"/><path class="cls-6" d="M947.45,595.44a6.32,6.32,0,0,1,1.68,4.76,8.13,8.13,0,0,1-1.48,5,5.33,5.33,0,0,1-4.58,2,5.18,5.18,0,0,1-4.11-1.75,6.92,6.92,0,0,1-1.53-4.71,7.49,7.49,0,0,1,1.61-5,5.39,5.39,0,0,1,4.31-1.87A5.71,5.71,0,0,1,947.45,595.44Zm-1.3,8.35a7.85,7.85,0,0,0,.77-3.53,6.25,6.25,0,0,0-.56-2.86,3.16,3.16,0,0,0-3.07-1.73,3,3,0,0,0-2.81,1.47,6.85,6.85,0,0,0-.88,3.57,5.93,5.93,0,0,0,.88,3.34,3.1,3.1,0,0,0,2.79,1.33A2.91,2.91,0,0,0,946.15,603.79Z" transform="translate(0 0.42)"/><path class="cls-6" d="M951.64,594.19h2V596a5.58,5.58,0,0,1,1.89-1.58,5,5,0,0,1,2.21-.48c1.78,0,3,.62,3.61,1.86a6.69,6.69,0,0,1,.52,2.92v8h-2.15v-7.91a4.25,4.25,0,0,0-.34-1.85,2.05,2.05,0,0,0-2-1.17,4.21,4.21,0,0,0-1.23.15,3.19,3.19,0,0,0-1.52,1,3.23,3.23,0,0,0-.69,1.28,9.24,9.24,0,0,0-.15,1.9v6.57h-2.11Z" transform="translate(0 0.42)"/><path class="cls-6" d="M972.8,594.54a4.73,4.73,0,0,1,1.91,1.62,5.6,5.6,0,0,1,.84,2.21,14.07,14.07,0,0,1,.19,2.77h-9.2a5.39,5.39,0,0,0,.9,3.06,3,3,0,0,0,2.62,1.16,3.35,3.35,0,0,0,2.63-1.09,3.64,3.64,0,0,0,.8-1.47h2.08a4.43,4.43,0,0,1-.55,1.54,5.31,5.31,0,0,1-1,1.39A4.87,4.87,0,0,1,971.6,607a7.42,7.42,0,0,1-1.72.19,5.28,5.28,0,0,1-4-1.71,6.62,6.62,0,0,1-1.63-4.77,7.21,7.21,0,0,1,1.64-4.91,5.4,5.4,0,0,1,4.29-1.89A5.72,5.72,0,0,1,972.8,594.54Zm.77,4.92a5.44,5.44,0,0,0-.59-2.19,3.08,3.08,0,0,0-2.9-1.52,3.22,3.22,0,0,0-2.44,1,4,4,0,0,0-1,2.66Z" transform="translate(0 0.42)"/><path class="cls-6" d="M979.58,602.8a3.1,3.1,0,0,0,.53,1.62,3.32,3.32,0,0,0,2.77,1,4.06,4.06,0,0,0,2.06-.51,1.7,1.7,0,0,0,.89-1.58,1.37,1.37,0,0,0-.71-1.23,8.5,8.5,0,0,0-1.81-.59l-1.67-.43a8,8,0,0,1-2.37-.89,2.65,2.65,0,0,1-1.36-2.36,3.65,3.65,0,0,1,1.28-2.89,5.16,5.16,0,0,1,3.45-1.1,4.79,4.79,0,0,1,4.09,1.67,3.6,3.6,0,0,1,.77,2.27h-2a2.4,2.4,0,0,0-.5-1.3,3.21,3.21,0,0,0-2.52-.83,3,3,0,0,0-1.81.45,1.45,1.45,0,0,0-.62,1.21,1.47,1.47,0,0,0,.81,1.31,4.78,4.78,0,0,0,1.39.52l1.39.34a10.68,10.68,0,0,1,3.05,1.07,2.8,2.8,0,0,1,1.23,2.54,3.88,3.88,0,0,1-1.27,2.89,5.39,5.39,0,0,1-3.88,1.22c-1.86,0-3.19-.42-4-1.27a4.79,4.79,0,0,1-1.25-3.15Z" transform="translate(0 0.42)"/><path class="cls-6" d="M997.42,590.69h2.13v3.5h2v1.72h-2v8.19a.88.88,0,0,0,.45.88,1.82,1.82,0,0,0,.82.13h.33l.41,0v1.66a4.65,4.65,0,0,1-.76.15,5.64,5.64,0,0,1-.85.05,2.27,2.27,0,0,1-2-.76,3.34,3.34,0,0,1-.53-2v-8.31h-1.7v-1.72h1.7Z" transform="translate(0 0.42)"/><path class="cls-6" d="M1003.67,589.53h2.14v2.39h-2.14Zm0,4.72h2.14v12.49h-2.14Z" transform="translate(0 0.42)"/><path class="cls-6" d="M1016.82,594.54a4.8,4.8,0,0,1,1.91,1.62,5.6,5.6,0,0,1,.84,2.21,14.91,14.91,0,0,1,.19,2.77h-9.2a5.39,5.39,0,0,0,.9,3.06,3,3,0,0,0,2.61,1.16,3.38,3.38,0,0,0,2.64-1.09,3.76,3.76,0,0,0,.8-1.47h2.07a4.39,4.39,0,0,1-.54,1.54,5.54,5.54,0,0,1-1,1.39,4.87,4.87,0,0,1-2.38,1.27,7.48,7.48,0,0,1-1.72.19,5.29,5.29,0,0,1-4-1.71,6.66,6.66,0,0,1-1.62-4.77,7.16,7.16,0,0,1,1.64-4.91,5.4,5.4,0,0,1,4.29-1.89A5.72,5.72,0,0,1,1016.82,594.54Zm.77,4.92a5.6,5.6,0,0,0-.6-2.19,3.07,3.07,0,0,0-2.89-1.52,3.22,3.22,0,0,0-2.44,1,4,4,0,0,0-1,2.66Z" transform="translate(0 0.42)"/><path class="cls-6" d="M1022.35,594.19h2V596a5.58,5.58,0,0,1,1.89-1.58,5,5,0,0,1,2.21-.48c1.78,0,3,.62,3.61,1.86a6.55,6.55,0,0,1,.52,2.92v8h-2.15v-7.91a4.25,4.25,0,0,0-.34-1.85,2.05,2.05,0,0,0-2-1.17,4.21,4.21,0,0,0-1.23.15,3.46,3.46,0,0,0-2.21,2.31,9.24,9.24,0,0,0-.15,1.9v6.57h-2.11Z" transform="translate(0 0.42)"/><path class="cls-6" d="M1043.51,594.54a4.73,4.73,0,0,1,1.91,1.62,5.6,5.6,0,0,1,.84,2.21,14.07,14.07,0,0,1,.19,2.77h-9.2a5.31,5.31,0,0,0,.91,3.06,3,3,0,0,0,2.61,1.16,3.38,3.38,0,0,0,2.64-1.09,3.62,3.62,0,0,0,.79-1.47h2.08a4.43,4.43,0,0,1-.55,1.54,5.31,5.31,0,0,1-1,1.39,4.88,4.88,0,0,1-2.37,1.27,7.57,7.57,0,0,1-1.73.19,5.28,5.28,0,0,1-4-1.71,6.62,6.62,0,0,1-1.63-4.77,7.21,7.21,0,0,1,1.64-4.91,5.43,5.43,0,0,1,4.29-1.89A5.72,5.72,0,0,1,1043.51,594.54Zm.77,4.92a5.44,5.44,0,0,0-.59-2.19,3.08,3.08,0,0,0-2.9-1.52,3.22,3.22,0,0,0-2.44,1,4,4,0,0,0-1,2.66Z" transform="translate(0 0.42)"/><path class="cls-6" d="M1049,594.19h2V596a5.65,5.65,0,0,1,1.88-1.58,5.05,5.05,0,0,1,2.22-.48,3.66,3.66,0,0,1,3.61,1.86,6.71,6.71,0,0,1,.51,2.92v8h-2.14v-7.91a4.4,4.4,0,0,0-.34-1.85,2.07,2.07,0,0,0-2-1.17,4.21,4.21,0,0,0-1.23.15,3.14,3.14,0,0,0-1.52,1,3.11,3.11,0,0,0-.69,1.28,8.47,8.47,0,0,0-.16,1.9v6.57H1049Z" transform="translate(0 0.42)"/><path class="cls-6" d="M1077.35,594.86a4.93,4.93,0,0,1,1.6,3.55h-2a3.81,3.81,0,0,0-.86-1.93,2.7,2.7,0,0,0-2.14-.77,3,3,0,0,0-2.89,2,7.94,7.94,0,0,0-.56,3.16,5.94,5.94,0,0,0,.8,3.17,2.74,2.74,0,0,0,2.51,1.29,2.76,2.76,0,0,0,2.08-.8,4.5,4.5,0,0,0,1.06-2.2h2a5,5,0,0,1-5.36,4.8,4.77,4.77,0,0,1-3.92-1.79,6.88,6.88,0,0,1-1.47-4.5,7.56,7.56,0,0,1,1.61-5.14,5.17,5.17,0,0,1,4.09-1.84A5.47,5.47,0,0,1,1077.35,594.86Z" transform="translate(0 0.42)"/><path class="cls-6" d="M1090.22,595.44a6.32,6.32,0,0,1,1.68,4.76,8.13,8.13,0,0,1-1.48,5,5.33,5.33,0,0,1-4.58,2,5.18,5.18,0,0,1-4.11-1.75,6.92,6.92,0,0,1-1.53-4.71,7.49,7.49,0,0,1,1.61-5,5.39,5.39,0,0,1,4.31-1.87A5.71,5.71,0,0,1,1090.22,595.44Zm-1.3,8.35a8,8,0,0,0,.77-3.53,6.25,6.25,0,0,0-.56-2.86,3.17,3.17,0,0,0-3.07-1.73,3,3,0,0,0-2.81,1.47,6.85,6.85,0,0,0-.88,3.57,5.93,5.93,0,0,0,.88,3.34,3.08,3.08,0,0,0,2.79,1.33A2.91,2.91,0,0,0,1088.92,603.79Z" transform="translate(0 0.42)"/><path class="cls-6" d="M1094.41,594.19h2.08V596a7.1,7.1,0,0,1,1.36-1.35,4.14,4.14,0,0,1,2.37-.71,3.33,3.33,0,0,1,3.35,2,4.38,4.38,0,0,1,3.78-2,3.49,3.49,0,0,1,3.45,1.83,5.94,5.94,0,0,1,.49,2.65v8.35h-2.19V598a2,2,0,0,0-.63-1.72,2.47,2.47,0,0,0-1.53-.47,3,3,0,0,0-2.13.83,3.65,3.65,0,0,0-.9,2.78v7.3h-2.15v-8.19a4.3,4.3,0,0,0-.3-1.86,1.85,1.85,0,0,0-1.79-.88,3.14,3.14,0,0,0-2.18.92,4.57,4.57,0,0,0-1,3.36v6.65h-2.1Z" transform="translate(0 0.42)"/><path class="cls-6" d="M1123.56,595.44a6.32,6.32,0,0,1,1.68,4.76,8.13,8.13,0,0,1-1.48,5,5.33,5.33,0,0,1-4.58,2,5.18,5.18,0,0,1-4.11-1.75,6.92,6.92,0,0,1-1.53-4.71,7.49,7.49,0,0,1,1.61-5,5.39,5.39,0,0,1,4.31-1.87A5.71,5.71,0,0,1,1123.56,595.44Zm-1.31,8.35a7.86,7.86,0,0,0,.78-3.53,6.25,6.25,0,0,0-.56-2.86,3.17,3.17,0,0,0-3.07-1.73,3,3,0,0,0-2.81,1.47,6.85,6.85,0,0,0-.88,3.57,5.93,5.93,0,0,0,.88,3.34,3.08,3.08,0,0,0,2.79,1.33A2.89,2.89,0,0,0,1122.25,603.79Z" transform="translate(0 0.42)"/><path class="cls-6" d="M1135.4,590.36a3.23,3.23,0,0,1,2.85-1.08h.41l.48,0v1.92l-.48,0h-.27c-.64,0-1,.17-1.15.5a9.58,9.58,0,0,0-.19,2.54h2.09v1.66H1137v10.83h-2.09V595.91h-1.75v-1.66h1.75v-2A3.67,3.67,0,0,1,1135.4,590.36Z" transform="translate(0 0.42)"/><path class="cls-6" d="M1150.25,595.44a6.35,6.35,0,0,1,1.67,4.76,8.13,8.13,0,0,1-1.48,5,5.33,5.33,0,0,1-4.58,2,5.19,5.19,0,0,1-4.11-1.75,6.91,6.91,0,0,1-1.52-4.71,7.49,7.49,0,0,1,1.6-5,5.39,5.39,0,0,1,4.31-1.87A5.73,5.73,0,0,1,1150.25,595.44Zm-1.31,8.35a7.86,7.86,0,0,0,.78-3.53,6.38,6.38,0,0,0-.56-2.86,3.18,3.18,0,0,0-3.08-1.73,3,3,0,0,0-2.81,1.47,7,7,0,0,0-.88,3.57,6,6,0,0,0,.88,3.34,3.1,3.1,0,0,0,2.79,1.33A2.91,2.91,0,0,0,1148.94,603.79Z" transform="translate(0 0.42)"/><path class="cls-6" d="M1162.72,594.86a4.93,4.93,0,0,1,1.6,3.55h-2a3.81,3.81,0,0,0-.86-1.93,2.7,2.7,0,0,0-2.14-.77,3,3,0,0,0-2.88,2,7.76,7.76,0,0,0-.57,3.16,5.94,5.94,0,0,0,.8,3.17,2.74,2.74,0,0,0,2.51,1.29,2.76,2.76,0,0,0,2.08-.8,4.5,4.5,0,0,0,1.06-2.2h2a5,5,0,0,1-5.36,4.8,4.77,4.77,0,0,1-3.92-1.79,6.88,6.88,0,0,1-1.47-4.5,7.56,7.56,0,0,1,1.61-5.14,5.17,5.17,0,0,1,4.09-1.84A5.47,5.47,0,0,1,1162.72,594.86Z" transform="translate(0 0.42)"/><path class="cls-6" d="M1175.59,595.44a6.32,6.32,0,0,1,1.68,4.76,8.13,8.13,0,0,1-1.48,5,5.33,5.33,0,0,1-4.58,2,5.18,5.18,0,0,1-4.11-1.75,6.92,6.92,0,0,1-1.53-4.71,7.49,7.49,0,0,1,1.61-5,5.39,5.39,0,0,1,4.31-1.87A5.69,5.69,0,0,1,1175.59,595.44Zm-1.3,8.35a7.86,7.86,0,0,0,.78-3.53,6.24,6.24,0,0,0-.57-2.86,3.16,3.16,0,0,0-3.07-1.73,3,3,0,0,0-2.81,1.47,6.85,6.85,0,0,0-.88,3.57,5.93,5.93,0,0,0,.88,3.34,3.1,3.1,0,0,0,2.79,1.33A2.91,2.91,0,0,0,1174.29,603.79Z" transform="translate(0 0.42)"/><path class="cls-6" d="M754.06,623.34A4.8,4.8,0,0,1,756,625a5.6,5.6,0,0,1,.84,2.21,14.07,14.07,0,0,1,.19,2.77h-9.2a5.39,5.39,0,0,0,.9,3.06,3,3,0,0,0,2.62,1.16,3.35,3.35,0,0,0,2.63-1.09,3.64,3.64,0,0,0,.8-1.47h2.07a4.19,4.19,0,0,1-.54,1.54,5.54,5.54,0,0,1-1,1.39,4.87,4.87,0,0,1-2.38,1.27,7.48,7.48,0,0,1-1.72.19,5.27,5.27,0,0,1-4-1.71,6.62,6.62,0,0,1-1.63-4.77,7.16,7.16,0,0,1,1.64-4.91,5.4,5.4,0,0,1,4.29-1.89A5.72,5.72,0,0,1,754.06,623.34Zm.77,4.92a5.28,5.28,0,0,0-.6-2.19,3.06,3.06,0,0,0-2.89-1.52,3.22,3.22,0,0,0-2.44,1.05,4,4,0,0,0-1,2.66Z" transform="translate(0 0.42)"/><path class="cls-6" d="M758.39,623h2.73l2.89,4.42,2.91-4.42,2.57.06-4.23,6.06,4.42,6.43H767l-3.11-4.71-3,4.71h-2.67l4.42-6.43Z" transform="translate(0 0.42)"/><path class="cls-6" d="M771.42,623.05h2.06v1.66a5,5,0,0,1,1.38-1.32,4.45,4.45,0,0,1,2.51-.7,4.71,4.71,0,0,1,3.62,1.63,6.72,6.72,0,0,1,1.49,4.67c0,2.73-.72,4.69-2.15,5.86a4.86,4.86,0,0,1-3.16,1.11,4.24,4.24,0,0,1-2.38-.62,5.29,5.29,0,0,1-1.26-1.21v6.42h-2.11Zm7.92,9.84a5.92,5.92,0,0,0,1-3.7,7.11,7.11,0,0,0-.43-2.58,3.18,3.18,0,0,0-6,.12,8.64,8.64,0,0,0-.44,3,6.31,6.31,0,0,0,.44,2.47,3.19,3.19,0,0,0,5.45.71Z" transform="translate(0 0.42)"/><path class="cls-6" d="M785,618.33h2.1v17.21H785Z" transform="translate(0 0.42)"/><path class="cls-6" d="M799.43,624.24a6.32,6.32,0,0,1,1.68,4.76,8.13,8.13,0,0,1-1.48,5,5.33,5.33,0,0,1-4.58,2,5.18,5.18,0,0,1-4.11-1.75,6.92,6.92,0,0,1-1.53-4.71,7.49,7.49,0,0,1,1.61-5,5.39,5.39,0,0,1,4.31-1.87A5.69,5.69,0,0,1,799.43,624.24Zm-1.3,8.35a7.86,7.86,0,0,0,.78-3.53,6.24,6.24,0,0,0-.57-2.86,3.16,3.16,0,0,0-3.07-1.73,3,3,0,0,0-2.81,1.47,6.85,6.85,0,0,0-.88,3.57,5.93,5.93,0,0,0,.88,3.34,3.1,3.1,0,0,0,2.79,1.33A2.91,2.91,0,0,0,798.13,632.59Z" transform="translate(0 0.42)"/><path class="cls-6" d="M803.67,623h2v2.17a4.72,4.72,0,0,1,1.21-1.54,3.09,3.09,0,0,1,2.21-.91h.2l.48,0V625l-.35,0h-.34a3,3,0,0,0-2.45,1,3.58,3.58,0,0,0-.86,2.36v7.22h-2.11Z" transform="translate(0 0.42)"/><path class="cls-6" d="M818.33,627.94a1.18,1.18,0,0,0,1-.61,1.93,1.93,0,0,0,.14-.81,1.73,1.73,0,0,0-.77-1.57,4.15,4.15,0,0,0-2.2-.48,2.77,2.77,0,0,0-2.34.89,2.82,2.82,0,0,0-.5,1.46h-2a3.65,3.65,0,0,1,1.5-3.23,6.26,6.26,0,0,1,3.36-.9,6.85,6.85,0,0,1,3.6.84,2.87,2.87,0,0,1,1.37,2.62v7.23a.93.93,0,0,0,.13.53c.09.14.28.2.57.2a1.83,1.83,0,0,0,.32,0l.37-.05v1.56a7.57,7.57,0,0,1-.75.18,6.29,6.29,0,0,1-.7,0,1.74,1.74,0,0,1-1.58-.77,3.05,3.05,0,0,1-.36-1.16,5.33,5.33,0,0,1-1.86,1.46A5.64,5.64,0,0,1,815,636a3.94,3.94,0,0,1-2.85-1.06,3.5,3.5,0,0,1-1.11-2.65,3.44,3.44,0,0,1,1.09-2.71,5.21,5.21,0,0,1,2.86-1.18Zm-4.44,5.7a2.52,2.52,0,0,0,1.59.53,4.7,4.7,0,0,0,2.15-.52,2.9,2.9,0,0,0,1.76-2.8v-1.7a3.2,3.2,0,0,1-1,.41,8.65,8.65,0,0,1-1.19.24l-1.28.16a4.83,4.83,0,0,0-1.72.48,1.88,1.88,0,0,0-1,1.76A1.74,1.74,0,0,0,813.89,633.64Z" transform="translate(0 0.42)"/><path class="cls-6" d="M825,623h2v2.17a4.58,4.58,0,0,1,1.21-1.54,3.09,3.09,0,0,1,2.21-.91h.2l.48,0V625l-.35,0h-.34a3,3,0,0,0-2.45,1,3.58,3.58,0,0,0-.86,2.36v7.22H825Z" transform="translate(0 0.42)"/><path class="cls-6" d="M847.43,623.34a4.66,4.66,0,0,1,1.91,1.62,5.61,5.61,0,0,1,.85,2.21,15.12,15.12,0,0,1,.18,2.77h-9.2a5.31,5.31,0,0,0,.91,3.06,3,3,0,0,0,2.61,1.16,3.38,3.38,0,0,0,2.64-1.09,3.62,3.62,0,0,0,.79-1.47h2.08a4.43,4.43,0,0,1-.55,1.54,5.52,5.52,0,0,1-1,1.39,4.92,4.92,0,0,1-2.38,1.27,7.51,7.51,0,0,1-1.73.19,5.28,5.28,0,0,1-4-1.71,6.66,6.66,0,0,1-1.63-4.77,7.21,7.21,0,0,1,1.64-4.91,5.43,5.43,0,0,1,4.29-1.89A5.69,5.69,0,0,1,847.43,623.34Zm.78,4.92a5.6,5.6,0,0,0-.6-2.19,3.07,3.07,0,0,0-2.9-1.52,3.19,3.19,0,0,0-2.43,1.05,4,4,0,0,0-1,2.66Z" transform="translate(0 0.42)"/><path class="cls-6" d="M853,618.33h2.11v17.21H853Z" transform="translate(0 0.42)"/><path class="cls-6" d="M864.8,623.05h2.05v1.66a5,5,0,0,1,1.38-1.32,4.45,4.45,0,0,1,2.51-.7,4.71,4.71,0,0,1,3.62,1.63,6.72,6.72,0,0,1,1.49,4.67c0,2.73-.71,4.69-2.14,5.86a4.86,4.86,0,0,1-3.17,1.11,4.26,4.26,0,0,1-2.38-.62,5.28,5.28,0,0,1-1.25-1.21v6.42H864.8Zm7.92,9.84a5.92,5.92,0,0,0,1-3.7,6.9,6.9,0,0,0-.43-2.58,3.18,3.18,0,0,0-6,.12,8.66,8.66,0,0,0-.43,3,6.31,6.31,0,0,0,.43,2.47,3.2,3.2,0,0,0,5.46.71Z" transform="translate(0 0.42)"/><path class="cls-6" d="M887.48,624.24a6.35,6.35,0,0,1,1.67,4.76,8.13,8.13,0,0,1-1.48,5,5.33,5.33,0,0,1-4.58,2,5.21,5.21,0,0,1-4.11-1.75,6.91,6.91,0,0,1-1.52-4.71,7.49,7.49,0,0,1,1.6-5,5.39,5.39,0,0,1,4.31-1.87A5.73,5.73,0,0,1,887.48,624.24Zm-1.31,8.35a7.86,7.86,0,0,0,.78-3.53,6.38,6.38,0,0,0-.56-2.86,3.18,3.18,0,0,0-3.07-1.73,3,3,0,0,0-2.82,1.47,7,7,0,0,0-.88,3.57,6,6,0,0,0,.88,3.34,3.1,3.1,0,0,0,2.79,1.33A2.91,2.91,0,0,0,886.17,632.59Z" transform="translate(0 0.42)"/><path class="cls-6" d="M891.72,618.33h2.11v17.21h-2.11Z" transform="translate(0 0.42)"/><path class="cls-6" d="M906.16,624.24a6.35,6.35,0,0,1,1.67,4.76,8.13,8.13,0,0,1-1.48,5,5.33,5.33,0,0,1-4.58,2,5.19,5.19,0,0,1-4.11-1.75,6.91,6.91,0,0,1-1.52-4.71,7.49,7.49,0,0,1,1.6-5,5.39,5.39,0,0,1,4.31-1.87A5.73,5.73,0,0,1,906.16,624.24Zm-1.31,8.35a7.86,7.86,0,0,0,.78-3.53,6.38,6.38,0,0,0-.56-2.86,3.18,3.18,0,0,0-3.07-1.73,3,3,0,0,0-2.82,1.47,7,7,0,0,0-.88,3.57,6,6,0,0,0,.88,3.34,3.1,3.1,0,0,0,2.79,1.33A2.91,2.91,0,0,0,904.85,632.59Z" transform="translate(0 0.42)"/><path class="cls-6" d="M918.26,631.6a3,3,0,0,0,.53,1.62,3.3,3.3,0,0,0,2.76,1,4.13,4.13,0,0,0,2.07-.51,1.7,1.7,0,0,0,.89-1.58,1.36,1.36,0,0,0-.72-1.23,8.15,8.15,0,0,0-1.8-.59l-1.68-.43a8,8,0,0,1-2.37-.89,2.67,2.67,0,0,1-1.36-2.36,3.63,3.63,0,0,1,1.29-2.89,5.12,5.12,0,0,1,3.45-1.1,4.8,4.8,0,0,1,4.09,1.67,3.59,3.59,0,0,1,.76,2.27h-2a2.42,2.42,0,0,0-.51-1.3,3.17,3.17,0,0,0-2.51-.83,3.07,3.07,0,0,0-1.82.45,1.44,1.44,0,0,0-.61,1.21,1.47,1.47,0,0,0,.81,1.31,4.7,4.7,0,0,0,1.38.52l1.4.34a10.58,10.58,0,0,1,3,1.07,2.8,2.8,0,0,1,1.23,2.54,3.85,3.85,0,0,1-1.27,2.89,5.38,5.38,0,0,1-3.87,1.22c-1.87,0-3.19-.42-4-1.27a4.84,4.84,0,0,1-1.25-3.15Z" transform="translate(0 0.42)"/><path class="cls-6" d="M931.12,623v8.33a3.54,3.54,0,0,0,.3,1.57,2.14,2.14,0,0,0,2.1,1.13,3,3,0,0,0,3-2,7.81,7.81,0,0,0,.43-2.9V623h2.11v12.55h-2l0-1.85a4.14,4.14,0,0,1-1,1.21,4.51,4.51,0,0,1-2.93,1c-1.79,0-3-.6-3.65-1.79a5.37,5.37,0,0,1-.53-2.57V623Z" transform="translate(0 0.42)"/><path class="cls-6" d="M942.41,623h2v2.17a4.66,4.66,0,0,1,1.2-1.54,3.12,3.12,0,0,1,2.22-.91h.2l.48,0V625l-.35,0h-.34a3,3,0,0,0-2.45,1,3.58,3.58,0,0,0-.86,2.36v7.22h-2.11Z" transform="translate(0 0.42)"/><path class="cls-6" d="M963.94,623.38a5.46,5.46,0,0,1,1.28,1.23v-6.34h2v17.27h-1.9V633.8a4.62,4.62,0,0,1-1.75,1.67,5,5,0,0,1-2.31.52,4.66,4.66,0,0,1-3.63-1.77,6.9,6.9,0,0,1-1.54-4.69,8.12,8.12,0,0,1,1.4-4.75,4.6,4.6,0,0,1,4-2A4.42,4.42,0,0,1,963.94,623.38Zm-4.73,9.41a3,3,0,0,0,2.74,1.36,2.9,2.9,0,0,0,2.41-1.26,6,6,0,0,0,.94-3.62,5.34,5.34,0,0,0-1-3.52,3,3,0,0,0-2.41-1.14,3.15,3.15,0,0,0-2.58,1.22,5.56,5.56,0,0,0-1,3.58A6.24,6.24,0,0,0,959.21,632.79Z" transform="translate(0 0.42)"/><path class="cls-6" d="M978.18,623.34a4.8,4.8,0,0,1,1.91,1.62,5.6,5.6,0,0,1,.84,2.21,14.07,14.07,0,0,1,.19,2.77h-9.2a5.39,5.39,0,0,0,.9,3.06,3,3,0,0,0,2.62,1.16,3.35,3.35,0,0,0,2.63-1.09,3.64,3.64,0,0,0,.8-1.47h2.07a4.19,4.19,0,0,1-.54,1.54,5.31,5.31,0,0,1-1,1.39A4.87,4.87,0,0,1,977,635.8a7.42,7.42,0,0,1-1.72.19,5.27,5.27,0,0,1-4-1.71,6.62,6.62,0,0,1-1.63-4.77,7.21,7.21,0,0,1,1.64-4.91,5.4,5.4,0,0,1,4.29-1.89A5.72,5.72,0,0,1,978.18,623.34Zm.77,4.92a5.28,5.28,0,0,0-.6-2.19,3.06,3.06,0,0,0-2.89-1.52A3.22,3.22,0,0,0,973,625.6a4,4,0,0,0-1,2.66Z" transform="translate(0 0.42)"/><path class="cls-6" d="M990.44,618.33h2.11v17.21h-2.11Z" transform="translate(0 0.42)"/><path class="cls-6" d="M1002.44,627.94a1.17,1.17,0,0,0,1-.61,1.93,1.93,0,0,0,.14-.81,1.73,1.73,0,0,0-.77-1.57,4.15,4.15,0,0,0-2.2-.48,2.77,2.77,0,0,0-2.34.89,2.91,2.91,0,0,0-.5,1.46h-2a3.65,3.65,0,0,1,1.5-3.23,6.26,6.26,0,0,1,3.36-.9,6.85,6.85,0,0,1,3.6.84,2.87,2.87,0,0,1,1.37,2.62v7.23a.92.92,0,0,0,.14.53c.09.14.27.2.56.2a1.83,1.83,0,0,0,.32,0l.38-.05v1.56q-.5.14-.75.18a6.62,6.62,0,0,1-.71,0A1.75,1.75,0,0,1,1004,635a3.05,3.05,0,0,1-.36-1.16,5.38,5.38,0,0,1-1.85,1.46,5.71,5.71,0,0,1-2.67.62,3.94,3.94,0,0,1-2.85-1.06,3.5,3.5,0,0,1-1.11-2.65,3.44,3.44,0,0,1,1.09-2.71,5.21,5.21,0,0,1,2.86-1.18Zm-4.44,5.7a2.47,2.47,0,0,0,1.58.53,4.7,4.7,0,0,0,2.15-.52,2.89,2.89,0,0,0,1.76-2.8v-1.7a3.24,3.24,0,0,1-1,.41,9.1,9.1,0,0,1-1.2.24L1000,630a4.83,4.83,0,0,0-1.72.48,1.88,1.88,0,0,0-1,1.76A1.72,1.72,0,0,0,998,633.64Z" transform="translate(0 0.42)"/><path class="cls-6" d="M1015.78,618.33h2.11v17.21h-2.11Z" transform="translate(0 0.42)"/><path class="cls-6" d="M1023.17,623v8.33a3.54,3.54,0,0,0,.3,1.57,2.14,2.14,0,0,0,2.1,1.13,3,3,0,0,0,3-2,7.81,7.81,0,0,0,.43-2.9V623h2.11v12.55h-2l0-1.85a4.14,4.14,0,0,1-1,1.21,4.51,4.51,0,0,1-2.93,1,3.79,3.79,0,0,1-3.65-1.79,5.37,5.37,0,0,1-.53-2.57V623Z" transform="translate(0 0.42)"/><path class="cls-6" d="M1034.41,623h2v1.78a5.58,5.58,0,0,1,1.89-1.58,5,5,0,0,1,2.21-.48c1.78,0,3,.62,3.61,1.86a6.66,6.66,0,0,1,.52,2.92v8h-2.15v-7.91a4.25,4.25,0,0,0-.34-1.85,2.05,2.05,0,0,0-2-1.17,4.21,4.21,0,0,0-1.23.15,3.19,3.19,0,0,0-1.52,1,3.23,3.23,0,0,0-.69,1.28,9.11,9.11,0,0,0-.16,1.9v6.57h-2.1Z" transform="translate(0 0.42)"/><path class="cls-6" d="M1054.48,627.94a1.17,1.17,0,0,0,1-.61,1.79,1.79,0,0,0,.14-.81,1.73,1.73,0,0,0-.76-1.57,4.2,4.2,0,0,0-2.2-.48,2.8,2.8,0,0,0-2.35.89,3,3,0,0,0-.5,1.46h-2a3.63,3.63,0,0,1,1.51-3.23,6.2,6.2,0,0,1,3.35-.9,6.85,6.85,0,0,1,3.6.84,2.85,2.85,0,0,1,1.37,2.62v7.23a.92.92,0,0,0,.14.53c.09.14.28.2.57.2a1.72,1.72,0,0,0,.31,0l.38-.05v1.56q-.49.14-.75.18a6.49,6.49,0,0,1-.71,0A1.75,1.75,0,0,1,1056,635a3.05,3.05,0,0,1-.36-1.16,5.38,5.38,0,0,1-1.85,1.46,5.67,5.67,0,0,1-2.66.62,4,4,0,0,1-2.86-1.06,3.53,3.53,0,0,1-1.1-2.65,3.4,3.4,0,0,1,1.09-2.71,5.18,5.18,0,0,1,2.86-1.18Zm-4.44,5.7a2.47,2.47,0,0,0,1.58.53,4.77,4.77,0,0,0,2.16-.52,2.89,2.89,0,0,0,1.75-2.8v-1.7a3.14,3.14,0,0,1-1,.41,9.1,9.1,0,0,1-1.2.24l-1.27.16a4.89,4.89,0,0,0-1.73.48,1.88,1.88,0,0,0-1,1.76A1.72,1.72,0,0,0,1050,633.64Z" transform="translate(0 0.42)"/><path class="cls-6" d="M747.46,536.76a7.72,7.72,0,0,1,5.75-2.32c3.12,0,5.4,1,6.84,3.1a6.83,6.83,0,0,1,1.28,3.49h-3.91a5.41,5.41,0,0,0-1-2,3.87,3.87,0,0,0-3.1-1.22,3.82,3.82,0,0,0-3.29,1.72,8.37,8.37,0,0,0-1.21,4.87,7.45,7.45,0,0,0,1.27,4.72,4,4,0,0,0,3.24,1.57,3.67,3.67,0,0,0,3.07-1.35,6,6,0,0,0,1-2.17h3.88a8.4,8.4,0,0,1-2.57,5,7.5,7.5,0,0,1-5.29,1.91,7.93,7.93,0,0,1-6.28-2.59,10.39,10.39,0,0,1-2.29-7.13Q744.86,539.41,747.46,536.76Z" transform="translate(0 0.42)"/><path class="cls-6" d="M774.1,539.75a4.1,4.1,0,0,1,1.72,1.36,3.57,3.57,0,0,1,.69,1.6,18.51,18.51,0,0,1,.13,2.67v8.13h-3.7v-8.42a3.78,3.78,0,0,0-.37-1.81,1.9,1.9,0,0,0-1.87-1,2.55,2.55,0,0,0-2.16,1,4.41,4.41,0,0,0-.74,2.73v7.5h-3.62V534.86h3.62v6.61a4.46,4.46,0,0,1,1.82-1.69,5.19,5.19,0,0,1,2.16-.47A5.92,5.92,0,0,1,774.1,539.75Z" transform="translate(0 0.42)"/><path class="cls-6" d="M785.52,545.1a5.78,5.78,0,0,0,1.45-.32,1.09,1.09,0,0,0,.78-1,1.2,1.2,0,0,0-.6-1.17,3.74,3.74,0,0,0-1.76-.33,2.29,2.29,0,0,0-1.84.64,2.5,2.5,0,0,0-.51,1.27h-3.49a5.23,5.23,0,0,1,1-3q1.44-1.83,4.94-1.83a8.86,8.86,0,0,1,4.06.91,3.45,3.45,0,0,1,1.77,3.4V550c0,.44,0,1,0,1.6a1.94,1.94,0,0,0,.21,1,1.34,1.34,0,0,0,.53.42v.53h-3.93a4,4,0,0,1-.23-.78c0-.25-.08-.53-.1-.84a7.36,7.36,0,0,1-1.74,1.38,5.22,5.22,0,0,1-2.65.67,4.59,4.59,0,0,1-3.13-1.07,3.81,3.81,0,0,1-1.23-3,3.93,3.93,0,0,1,2-3.69,8.82,8.82,0,0,1,3.2-.89Zm2.21,1.68a3.52,3.52,0,0,1-.7.35,6,6,0,0,1-1,.25l-.82.15a5.48,5.48,0,0,0-1.67.5,1.64,1.64,0,0,0-.85,1.53,1.59,1.59,0,0,0,.52,1.34,2,2,0,0,0,1.27.42,3.79,3.79,0,0,0,2.19-.69,2.9,2.9,0,0,0,1-2.5Z" transform="translate(0 0.42)"/><path class="cls-6" d="M805.66,540.47a4.56,4.56,0,0,1,1.36,3.72v9.32h-3.71V545.1a3.93,3.93,0,0,0-.29-1.68,2,2,0,0,0-2-1.07,2.49,2.49,0,0,0-2.51,1.57,5.28,5.28,0,0,0-.36,2.1v7.49h-3.61V539.7H798v2a6.09,6.09,0,0,1,1.32-1.54,4.53,4.53,0,0,1,2.81-.84A5.31,5.31,0,0,1,805.66,540.47Z" transform="translate(0 0.42)"/><path class="cls-6" d="M817.23,539.66a4.34,4.34,0,0,1,2.13,2v-2h3.53V552.8a7.37,7.37,0,0,1-.9,4q-1.56,2.34-6,2.34a8,8,0,0,1-4.32-1,3.84,3.84,0,0,1-1.86-3.11h3.94a1.62,1.62,0,0,0,.49.92,3.07,3.07,0,0,0,2,.49,2.65,2.65,0,0,0,2.62-1.3,6.77,6.77,0,0,0,.43-2.82v-.89a4.37,4.37,0,0,1-1.12,1.33,4.49,4.49,0,0,1-2.81.83,5.3,5.3,0,0,1-4.25-1.88,7.52,7.52,0,0,1-1.6-5.07,8.51,8.51,0,0,1,1.54-5.18,5.07,5.07,0,0,1,4.35-2.11A4.8,4.8,0,0,1,817.23,539.66Zm1.23,9.92a4.45,4.45,0,0,0,.87-3.05,4.66,4.66,0,0,0-.83-3,2.7,2.7,0,0,0-2.21-1,2.61,2.61,0,0,0-2.62,1.79,6.37,6.37,0,0,0-.38,2.34,5.39,5.39,0,0,0,.4,2.15,2.64,2.64,0,0,0,2.63,1.75A2.77,2.77,0,0,0,818.46,549.58Z" transform="translate(0 0.42)"/><path class="cls-6" d="M826.32,540.67a2.87,2.87,0,0,0,1.81-1.34,2.28,2.28,0,0,0,.23-1.13h-2.11v-3.34H830v2.68a4.43,4.43,0,0,1-1,3,4.56,4.56,0,0,1-2.7,1.44Z" transform="translate(0 0.42)"/><path class="cls-6" d="M842.51,540a5.65,5.65,0,0,1,2.39,2,6.93,6.93,0,0,1,1.1,2.86,17.13,17.13,0,0,1,.12,2.75H836a3.33,3.33,0,0,0,1.45,2.92,3.64,3.64,0,0,0,2,.52,3.06,3.06,0,0,0,2-.63,3.15,3.15,0,0,0,.75-1h3.69a4.49,4.49,0,0,1-1.34,2.5,6.72,6.72,0,0,1-5.21,2,7.51,7.51,0,0,1-4.87-1.7c-1.41-1.14-2.11-3-2.11-5.54a7.48,7.48,0,0,1,1.9-5.51,6.67,6.67,0,0,1,5-1.92A7.78,7.78,0,0,1,842.51,540Zm-5.42,3.12a3.76,3.76,0,0,0-1,2.14h6.23a3,3,0,0,0-1-2.18,3.17,3.17,0,0,0-2.15-.75A2.85,2.85,0,0,0,837.09,543.08Z" transform="translate(0 0.42)"/><path class="cls-6" d="M863,539.74a1.86,1.86,0,0,0-.35-1,2,2,0,0,0-1.76-.86,2.6,2.6,0,0,0-2.51,2,12.24,12.24,0,0,0-.56,3.22,4.17,4.17,0,0,1,1.56-1.17,5.37,5.37,0,0,1,2-.36,5.29,5.29,0,0,1,4,1.66,6,6,0,0,1,1.57,4.25,7.21,7.21,0,0,1-1.54,4.55,5.67,5.67,0,0,1-4.77,2,5.49,5.49,0,0,1-5.13-2.91,11.82,11.82,0,0,1-1.28-5.87,28.47,28.47,0,0,1,.17-3.42,10.71,10.71,0,0,1,1.24-3.92,6.3,6.3,0,0,1,2.06-2.14,5.58,5.58,0,0,1,3.05-.81,6,6,0,0,1,4.09,1.31,5,5,0,0,1,1.71,3.5Zm-4.29,10.37a2.54,2.54,0,0,0,2,.94,2.27,2.27,0,0,0,1.9-.91,3.77,3.77,0,0,0,.69-2.35,3.49,3.49,0,0,0-.79-2.47,2.52,2.52,0,0,0-1.93-.86A2.61,2.61,0,0,0,859,545a3.17,3.17,0,0,0-1.06,2.67A3.57,3.57,0,0,0,858.73,550.11Z" transform="translate(0 0.42)"/><path class="cls-2" d="M827,78.16h2.33V93.33h8.72v2H827Z" transform="translate(0 0.42)"/><path class="cls-2" d="M846.81,87.77a1.14,1.14,0,0,0,1-.61,1.87,1.87,0,0,0,.14-.81,1.72,1.72,0,0,0-.77-1.56,4.17,4.17,0,0,0-2.2-.49,2.8,2.8,0,0,0-2.34.89,3,3,0,0,0-.51,1.47h-2a3.64,3.64,0,0,1,1.51-3.23,6.15,6.15,0,0,1,3.36-.91,6.8,6.8,0,0,1,3.6.85A2.86,2.86,0,0,1,850,86v7.23a.93.93,0,0,0,.13.53.66.66,0,0,0,.57.2l.32,0,.37-.05v1.56a5.83,5.83,0,0,1-.75.17,4.39,4.39,0,0,1-.7,0,1.71,1.71,0,0,1-1.58-.78,2.83,2.83,0,0,1-.37-1.16,5.3,5.3,0,0,1-1.85,1.47,5.76,5.76,0,0,1-2.66.62,3.94,3.94,0,0,1-2.85-1.06,3.52,3.52,0,0,1-1.11-2.66,3.4,3.4,0,0,1,1.09-2.7,5.22,5.22,0,0,1,2.86-1.19Zm-4.44,5.71A2.49,2.49,0,0,0,844,94a4.87,4.87,0,0,0,2.16-.52,2.9,2.9,0,0,0,1.76-2.8V89a3.77,3.77,0,0,1-1,.41,9,9,0,0,1-1.19.24l-1.28.16a4.77,4.77,0,0,0-1.72.48,1.88,1.88,0,0,0-1,1.76A1.75,1.75,0,0,0,842.37,93.48Z" transform="translate(0 0.42)"/><path class="cls-2" d="M859.94,82.89h2v1.66a5,5,0,0,1,1.38-1.32,4.45,4.45,0,0,1,2.51-.71,4.72,4.72,0,0,1,3.62,1.64A6.7,6.7,0,0,1,871,88.83q0,4.1-2.15,5.86a4.84,4.84,0,0,1-3.16,1.11,4.32,4.32,0,0,1-2.38-.62A5.72,5.72,0,0,1,862.05,94v6.41h-2.11Zm7.91,9.83a5.81,5.81,0,0,0,1-3.69,6.9,6.9,0,0,0-.43-2.58,3.17,3.17,0,0,0-6,.12,8.62,8.62,0,0,0-.44,3A6.27,6.27,0,0,0,862.4,92a3.18,3.18,0,0,0,5.45.71Z" transform="translate(0 0.42)"/><path class="cls-2" d="M873.51,82.83h2V85a5,5,0,0,1,1.21-1.54,3.14,3.14,0,0,1,2.21-.9h.2l.48,0v2.23l-.34,0h-.35a3,3,0,0,0-2.45,1,3.57,3.57,0,0,0-.85,2.36v7.22h-2.11Z" transform="translate(0 0.42)"/><path class="cls-2" d="M881.44,78.16h2.15v2.39h-2.15Zm0,4.73h2.15V95.38h-2.15Z" transform="translate(0 0.42)"/><path class="cls-2" d="M886.77,82.83h2.09v1.78a6.82,6.82,0,0,1,1.36-1.35,4,4,0,0,1,2.37-.71,3.72,3.72,0,0,1,2.41.73,4,4,0,0,1,.94,1.25,4.58,4.58,0,0,1,1.65-1.5,4.64,4.64,0,0,1,2.13-.48,3.49,3.49,0,0,1,3.45,1.82,6,6,0,0,1,.49,2.65v8.36h-2.19V86.66a2,2,0,0,0-.63-1.72,2.44,2.44,0,0,0-1.53-.47,3,3,0,0,0-2.14.83,3.68,3.68,0,0,0-.89,2.78v7.3h-2.15V87.19a4.32,4.32,0,0,0-.3-1.87,1.87,1.87,0,0,0-1.79-.88,3.09,3.09,0,0,0-2.18.93,4.54,4.54,0,0,0-1,3.35v6.66h-2.11Z" transform="translate(0 0.42)"/><path class="cls-2" d="M914.58,83.17a4.75,4.75,0,0,1,1.91,1.63,5.61,5.61,0,0,1,.85,2.21,15.12,15.12,0,0,1,.18,2.77h-9.2a5.31,5.31,0,0,0,.91,3.06A3,3,0,0,0,911.84,94a3.38,3.38,0,0,0,2.64-1.09,3.65,3.65,0,0,0,.79-1.46h2.08A4.5,4.5,0,0,1,916.8,93a5.52,5.52,0,0,1-1,1.39,5,5,0,0,1-2.38,1.27,7.6,7.6,0,0,1-1.73.18,5.31,5.31,0,0,1-4-1.7,6.67,6.67,0,0,1-1.63-4.78,7.25,7.25,0,0,1,1.64-4.91A5.42,5.42,0,0,1,912,82.55,5.68,5.68,0,0,1,914.58,83.17Zm.78,4.93a5.6,5.6,0,0,0-.6-2.19,3.07,3.07,0,0,0-2.9-1.52,3.21,3.21,0,0,0-2.43,1,4,4,0,0,0-1,2.67Z" transform="translate(0 0.42)"/><path class="cls-2" d="M920.17,82.83h2V85a4.76,4.76,0,0,1,1.2-1.54,3.15,3.15,0,0,1,2.22-.9h.2l.48,0v2.23l-.35,0h-.34a3,3,0,0,0-2.45,1,3.58,3.58,0,0,0-.86,2.36v7.22h-2.11Z" transform="translate(0 0.42)"/><path class="cls-2" d="M934.83,87.77a1.11,1.11,0,0,0,1-.61,2,2,0,0,0-.62-2.37,4.17,4.17,0,0,0-2.2-.49,2.8,2.8,0,0,0-2.34.89,3,3,0,0,0-.51,1.47h-2a3.64,3.64,0,0,1,1.51-3.23,6.13,6.13,0,0,1,3.36-.91,6.8,6.8,0,0,1,3.6.85A2.86,2.86,0,0,1,938,86v7.23a.93.93,0,0,0,.13.53.66.66,0,0,0,.57.2l.32,0,.37-.05v1.56a5.83,5.83,0,0,1-.75.17,4.39,4.39,0,0,1-.7,0,1.71,1.71,0,0,1-1.58-.78,2.83,2.83,0,0,1-.37-1.16,5.3,5.3,0,0,1-1.85,1.47,5.76,5.76,0,0,1-2.66.62,3.94,3.94,0,0,1-2.85-1.06,3.52,3.52,0,0,1-1.11-2.66,3.4,3.4,0,0,1,1.09-2.7,5.22,5.22,0,0,1,2.86-1.19Zm-4.44,5.71A2.49,2.49,0,0,0,932,94a4.9,4.9,0,0,0,2.16-.52,2.9,2.9,0,0,0,1.76-2.8V89a3.77,3.77,0,0,1-1,.41,9,9,0,0,1-1.19.24l-1.28.16a4.77,4.77,0,0,0-1.72.48,1.88,1.88,0,0,0-1,1.76A1.75,1.75,0,0,0,930.39,93.48Z" transform="translate(0 0.42)"/><path class="cls-2" d="M948.12,82.83h2.09v1.78a6.82,6.82,0,0,1,1.36-1.35,4,4,0,0,1,2.36-.71,3.75,3.75,0,0,1,2.42.73,4.16,4.16,0,0,1,.94,1.25,4.43,4.43,0,0,1,1.65-1.5,4.64,4.64,0,0,1,2.13-.48,3.49,3.49,0,0,1,3.45,1.82A6.11,6.11,0,0,1,965,87v8.36h-2.19V86.66a2,2,0,0,0-.63-1.72,2.44,2.44,0,0,0-1.53-.47,3,3,0,0,0-2.14.83,3.64,3.64,0,0,0-.89,2.78v7.3h-2.15V87.19a4.32,4.32,0,0,0-.3-1.87,1.88,1.88,0,0,0-1.8-.88,3.09,3.09,0,0,0-2.17.93,4.54,4.54,0,0,0-1,3.35v6.66h-2.11Z" transform="translate(0 0.42)"/><path class="cls-2" d="M968.11,78.16h2.15v2.39h-2.15Zm0,4.73h2.15V95.38h-2.15Z" transform="translate(0 0.42)"/><path class="cls-2" d="M974.7,91.44a3.07,3.07,0,0,0,.53,1.62,3.3,3.3,0,0,0,2.76,1,4.06,4.06,0,0,0,2.06-.51A1.7,1.7,0,0,0,981,92a1.34,1.34,0,0,0-.72-1.23,8.8,8.8,0,0,0-1.8-.6l-1.68-.42a8,8,0,0,1-2.37-.89A2.68,2.68,0,0,1,973,86.48a3.61,3.61,0,0,1,1.29-2.88,5.12,5.12,0,0,1,3.45-1.1,4.79,4.79,0,0,1,4.09,1.66,3.62,3.62,0,0,1,.76,2.28h-2a2.42,2.42,0,0,0-.51-1.3,3.18,3.18,0,0,0-2.52-.84,3.06,3.06,0,0,0-1.81.46,1.44,1.44,0,0,0-.61,1.21,1.49,1.49,0,0,0,.81,1.31,4.7,4.7,0,0,0,1.38.52l1.39.34a10.63,10.63,0,0,1,3,1.06A2.83,2.83,0,0,1,983,91.74a3.87,3.87,0,0,1-1.27,2.9,5.43,5.43,0,0,1-3.87,1.22,5.23,5.23,0,0,1-4-1.27,4.84,4.84,0,0,1-1.25-3.15Z" transform="translate(0 0.42)"/><path class="cls-2" d="M985.45,78.16h2.14v2.39h-2.14Zm0,4.73h2.14V95.38h-2.14Z" transform="translate(0 0.42)"/><path class="cls-2" d="M999.94,84.08a6.3,6.3,0,0,1,1.68,4.76,8.12,8.12,0,0,1-1.48,5,5.33,5.33,0,0,1-4.58,2,5.15,5.15,0,0,1-4.11-1.75,6.89,6.89,0,0,1-1.53-4.7,7.49,7.49,0,0,1,1.61-5,5.39,5.39,0,0,1,4.31-1.88A5.67,5.67,0,0,1,999.94,84.08Zm-1.31,8.35a7.92,7.92,0,0,0,.78-3.53,6.22,6.22,0,0,0-.56-2.86,3.16,3.16,0,0,0-3.07-1.74A3,3,0,0,0,993,85.78a6.79,6.79,0,0,0-.88,3.56,5.91,5.91,0,0,0,.88,3.34A3.09,3.09,0,0,0,995.76,94,2.89,2.89,0,0,0,998.63,92.43Zm-.34-14.65-3.13,3.38h-1.62l2.15-3.38Z" transform="translate(0 0.42)"/><path class="cls-2" d="M1004.13,82.83h2v1.78A5.46,5.46,0,0,1,1008,83a5,5,0,0,1,2.21-.48,3.66,3.66,0,0,1,3.61,1.86,6.66,6.66,0,0,1,.52,2.92v8h-2.15V87.47a4.19,4.19,0,0,0-.34-1.85,2,2,0,0,0-2-1.18,3.86,3.86,0,0,0-1.23.16,3.12,3.12,0,0,0-1.52,1,3.16,3.16,0,0,0-.69,1.28,8.94,8.94,0,0,0-.16,1.89v6.58h-2.1Z" transform="translate(0 0.42)"/><path class="cls-2" d="M1031.07,83.21a5.9,5.9,0,0,1,1.27,1.23V78.1h2V95.38h-1.9V93.63a4.63,4.63,0,0,1-1.74,1.68,5.07,5.07,0,0,1-2.31.51,4.65,4.65,0,0,1-3.63-1.76,6.87,6.87,0,0,1-1.54-4.69,8.15,8.15,0,0,1,1.4-4.76,5,5,0,0,1,6.42-1.4Zm-4.74,9.41a3,3,0,0,0,2.74,1.36,2.89,2.89,0,0,0,2.41-1.26,5.92,5.92,0,0,0,1-3.61,5.32,5.32,0,0,0-1-3.52,3,3,0,0,0-2.4-1.15,3.18,3.18,0,0,0-2.58,1.22,5.61,5.61,0,0,0-1,3.59A6.2,6.2,0,0,0,1026.33,92.62Z" transform="translate(0 0.42)"/><path class="cls-2" d="M1045.3,83.17a4.68,4.68,0,0,1,1.91,1.63,5.46,5.46,0,0,1,.85,2.21,14.91,14.91,0,0,1,.19,2.77h-9.2a5.39,5.39,0,0,0,.9,3.06,3,3,0,0,0,2.61,1.15,3.38,3.38,0,0,0,2.64-1.09,3.79,3.79,0,0,0,.8-1.46h2.07a4.45,4.45,0,0,1-.54,1.54,5.54,5.54,0,0,1-1,1.39,5,5,0,0,1-2.38,1.27,7.51,7.51,0,0,1-1.72.18,5.32,5.32,0,0,1-4-1.7,6.67,6.67,0,0,1-1.62-4.78,7.2,7.2,0,0,1,1.64-4.91,5.38,5.38,0,0,1,4.28-1.88A5.65,5.65,0,0,1,1045.3,83.17Zm.78,4.93a5.6,5.6,0,0,0-.6-2.19,3,3,0,0,0-2.89-1.52,3.23,3.23,0,0,0-2.44,1,3.91,3.91,0,0,0-1,2.67Z" transform="translate(0 0.42)"/><path class="cls-2" d="M1057.56,82.83h2V85a4.76,4.76,0,0,1,1.2-1.54,3.15,3.15,0,0,1,2.22-.9h.2l.48,0v2.23l-.35,0H1063a3,3,0,0,0-2.45,1,3.58,3.58,0,0,0-.86,2.36v7.22h-2.11Z" transform="translate(0 0.42)"/><path class="cls-2" d="M1073.31,83.17a4.68,4.68,0,0,1,1.91,1.63,5.61,5.61,0,0,1,.85,2.21,15.12,15.12,0,0,1,.18,2.77h-9.2a5.31,5.31,0,0,0,.91,3.06,3,3,0,0,0,2.61,1.15,3.38,3.38,0,0,0,2.64-1.09,3.65,3.65,0,0,0,.79-1.46h2.08a4.5,4.5,0,0,1-.55,1.54,5.52,5.52,0,0,1-1,1.39,5,5,0,0,1-2.38,1.27,7.54,7.54,0,0,1-1.73.18,5.31,5.31,0,0,1-4-1.7,6.67,6.67,0,0,1-1.63-4.78,7.25,7.25,0,0,1,1.64-4.91,5.42,5.42,0,0,1,4.29-1.88A5.68,5.68,0,0,1,1073.31,83.17Zm.78,4.93a5.6,5.6,0,0,0-.6-2.19,3.06,3.06,0,0,0-2.9-1.52,3.22,3.22,0,0,0-2.43,1,4,4,0,0,0-1.05,2.67Z" transform="translate(0 0.42)"/><path class="cls-2" d="M1079.27,79.32h2.13v3.51h2v1.72h-2v8.19a.9.9,0,0,0,.44.88,1.85,1.85,0,0,0,.82.13h.33l.41,0v1.67a4.53,4.53,0,0,1-.75.15,7.62,7.62,0,0,1-.85,0,2.31,2.31,0,0,1-2-.76,3.36,3.36,0,0,1-.52-2V84.55h-1.7V82.83h1.7Z" transform="translate(0 0.42)"/><path class="cls-2" d="M1094.68,84.08a6.34,6.34,0,0,1,1.67,4.76,8.18,8.18,0,0,1-1.47,5,5.36,5.36,0,0,1-4.59,2,5.17,5.17,0,0,1-4.11-1.75,6.88,6.88,0,0,1-1.52-4.7,7.49,7.49,0,0,1,1.6-5,5.39,5.39,0,0,1,4.31-1.88A5.7,5.7,0,0,1,1094.68,84.08Zm-1.31,8.35a7.92,7.92,0,0,0,.78-3.53,6.36,6.36,0,0,0-.56-2.86,3.17,3.17,0,0,0-3.07-1.74,3.05,3.05,0,0,0-2.82,1.48,6.88,6.88,0,0,0-.88,3.56,6,6,0,0,0,.88,3.34,3.11,3.11,0,0,0,2.79,1.34A2.91,2.91,0,0,0,1093.37,92.43Z" transform="translate(0 0.42)"/><path class="cls-2" d="M1098.92,82.83h2V85a5,5,0,0,1,1.21-1.54,3.14,3.14,0,0,1,2.21-.9h.2l.48,0v2.23l-.34,0h-.35a3,3,0,0,0-2.45,1,3.57,3.57,0,0,0-.85,2.36v7.22h-2.11Z" transform="translate(0 0.42)"/><path class="cls-2" d="M1106.85,82.83h2v1.78a5.53,5.53,0,0,1,1.88-1.58,5.05,5.05,0,0,1,2.22-.48,3.66,3.66,0,0,1,3.61,1.86,6.68,6.68,0,0,1,.51,2.92v8h-2.14V87.47a4.33,4.33,0,0,0-.34-1.85,2.06,2.06,0,0,0-2-1.18,3.86,3.86,0,0,0-1.23.16,3.14,3.14,0,0,0-1.53,1,3,3,0,0,0-.68,1.28,8.31,8.31,0,0,0-.16,1.89v6.58h-2.11Z" transform="translate(0 0.42)"/><path class="cls-2" d="M1129.36,84.08a6.3,6.3,0,0,1,1.68,4.76,8.12,8.12,0,0,1-1.48,5,5.33,5.33,0,0,1-4.58,2,5.15,5.15,0,0,1-4.11-1.75,6.89,6.89,0,0,1-1.53-4.7,7.49,7.49,0,0,1,1.61-5,5.39,5.39,0,0,1,4.31-1.88A5.66,5.66,0,0,1,1129.36,84.08Zm-1.3,8.35a7.92,7.92,0,0,0,.78-3.53,6.22,6.22,0,0,0-.57-2.86,3.15,3.15,0,0,0-3.07-1.74,3,3,0,0,0-2.81,1.48,6.79,6.79,0,0,0-.88,3.56,5.91,5.91,0,0,0,.88,3.34,3.11,3.11,0,0,0,2.79,1.34A2.91,2.91,0,0,0,1128.06,92.43Z" transform="translate(0 0.42)"/><path class="cls-2" d="M1147.14,83.21a5.91,5.91,0,0,1,1.28,1.23V78.1h2V95.38h-1.9V93.63a4.73,4.73,0,0,1-1.75,1.68,5,5,0,0,1-2.31.51,4.65,4.65,0,0,1-3.63-1.76,6.92,6.92,0,0,1-1.54-4.69,8.15,8.15,0,0,1,1.4-4.76,4.6,4.6,0,0,1,4-2A4.51,4.51,0,0,1,1147.14,83.21Zm-4.73,9.41a3,3,0,0,0,2.74,1.36,2.89,2.89,0,0,0,2.41-1.26,5.93,5.93,0,0,0,.94-3.61,5.32,5.32,0,0,0-1-3.52,3,3,0,0,0-2.4-1.15,3.18,3.18,0,0,0-2.59,1.22,5.61,5.61,0,0,0-1,3.59A6.2,6.2,0,0,0,1142.41,92.62Z" transform="translate(0 0.42)"/><path class="cls-2" d="M1161.38,83.17a4.82,4.82,0,0,1,1.91,1.63,5.6,5.6,0,0,1,.84,2.21,14.07,14.07,0,0,1,.19,2.77h-9.2a5.39,5.39,0,0,0,.9,3.06,3,3,0,0,0,2.62,1.15,3.35,3.35,0,0,0,2.63-1.09,3.67,3.67,0,0,0,.8-1.46h2.07a4.26,4.26,0,0,1-.54,1.54,5.31,5.31,0,0,1-1,1.39,5,5,0,0,1-2.38,1.27,7.45,7.45,0,0,1-1.72.18,5.29,5.29,0,0,1-4-1.7,6.63,6.63,0,0,1-1.63-4.78,7.25,7.25,0,0,1,1.64-4.91,5.39,5.39,0,0,1,4.29-1.88A5.71,5.71,0,0,1,1161.38,83.17Zm.77,4.93a5.28,5.28,0,0,0-.6-2.19,3,3,0,0,0-2.89-1.52,3.24,3.24,0,0,0-2.44,1,4,4,0,0,0-1,2.67Z" transform="translate(0 0.42)"/><path class="cls-2" d="M1168.16,91.44a3.16,3.16,0,0,0,.53,1.62,3.31,3.31,0,0,0,2.77,1,4.06,4.06,0,0,0,2.06-.51,1.71,1.71,0,0,0,.89-1.58,1.35,1.35,0,0,0-.71-1.23,9,9,0,0,0-1.81-.6l-1.68-.42a7.93,7.93,0,0,1-2.36-.89,2.66,2.66,0,0,1-1.36-2.37,3.63,3.63,0,0,1,1.28-2.88,5.16,5.16,0,0,1,3.45-1.1,4.78,4.78,0,0,1,4.09,1.66,3.56,3.56,0,0,1,.76,2.28h-2a2.4,2.4,0,0,0-.5-1.3,3.21,3.21,0,0,0-2.52-.84,3,3,0,0,0-1.81.46,1.45,1.45,0,0,0-.62,1.21,1.49,1.49,0,0,0,.81,1.31,4.7,4.7,0,0,0,1.38.52l1.4.34a10.87,10.87,0,0,1,3,1.06,2.83,2.83,0,0,1,1.23,2.54,3.88,3.88,0,0,1-1.28,2.9,5.39,5.39,0,0,1-3.87,1.22,5.23,5.23,0,0,1-4-1.27,4.83,4.83,0,0,1-1.24-3.15Z" transform="translate(0 0.42)"/><path class="cls-2" d="M1185.84,83.21a5.9,5.9,0,0,1,1.27,1.23V78.1h2V95.38h-1.9V93.63a4.63,4.63,0,0,1-1.74,1.68,5.09,5.09,0,0,1-2.31.51,4.68,4.68,0,0,1-3.64-1.76,6.91,6.91,0,0,1-1.53-4.69,8.15,8.15,0,0,1,1.4-4.76,5,5,0,0,1,6.42-1.4Zm-4.74,9.41a3,3,0,0,0,2.74,1.36,2.89,2.89,0,0,0,2.41-1.26,5.92,5.92,0,0,0,1-3.61,5.32,5.32,0,0,0-1-3.52,3,3,0,0,0-2.4-1.15,3.18,3.18,0,0,0-2.58,1.22,5.61,5.61,0,0,0-1,3.59A6.2,6.2,0,0,0,1181.1,92.62Z" transform="translate(0 0.42)"/><path class="cls-2" d="M1200.07,83.17A4.68,4.68,0,0,1,1202,84.8a5.46,5.46,0,0,1,.85,2.21,14.91,14.91,0,0,1,.19,2.77h-9.2a5.39,5.39,0,0,0,.9,3.06,3,3,0,0,0,2.61,1.15A3.38,3.38,0,0,0,1200,92.9a3.79,3.79,0,0,0,.8-1.46h2.07a4.3,4.3,0,0,1-.55,1.54,5.29,5.29,0,0,1-1,1.39,5,5,0,0,1-2.38,1.27,7.51,7.51,0,0,1-1.72.18,5.32,5.32,0,0,1-4-1.7,6.67,6.67,0,0,1-1.63-4.78,7.2,7.2,0,0,1,1.65-4.91,5.38,5.38,0,0,1,4.28-1.88A5.65,5.65,0,0,1,1200.07,83.17Zm.78,4.93a5.6,5.6,0,0,0-.6-2.19,3,3,0,0,0-2.89-1.52,3.23,3.23,0,0,0-2.44,1,3.91,3.91,0,0,0-1,2.67Z" transform="translate(0 0.42)"/><path class="cls-2" d="M826.8,107h2.11v17.22H826.8Z" transform="translate(0 0.42)"/><path class="cls-2" d="M838.8,116.57a1.13,1.13,0,0,0,1-.61,1.87,1.87,0,0,0,.14-.81,1.72,1.72,0,0,0-.77-1.56,4.13,4.13,0,0,0-2.19-.49,2.8,2.8,0,0,0-2.35.89,3,3,0,0,0-.5,1.47h-2a3.64,3.64,0,0,1,1.5-3.23,6.17,6.17,0,0,1,3.36-.91,6.76,6.76,0,0,1,3.6.85,2.86,2.86,0,0,1,1.37,2.62V122a.92.92,0,0,0,.14.53.65.65,0,0,0,.56.2l.32,0,.38,0v1.56a5.83,5.83,0,0,1-.75.17,4.53,4.53,0,0,1-.71,0,1.74,1.74,0,0,1-1.58-.78,3,3,0,0,1-.36-1.16,5.4,5.4,0,0,1-1.85,1.47,5.82,5.82,0,0,1-2.66.62,4,4,0,0,1-2.86-1.06,3.52,3.52,0,0,1-1.11-2.66,3.43,3.43,0,0,1,1.09-2.7,5.22,5.22,0,0,1,2.86-1.19Zm-4.44,5.71a2.47,2.47,0,0,0,1.58.53,4.83,4.83,0,0,0,2.15-.52,2.89,2.89,0,0,0,1.76-2.8v-1.7a3.83,3.83,0,0,1-1,.41,9.1,9.1,0,0,1-1.2.24l-1.28.16a4.83,4.83,0,0,0-1.72.48,1.87,1.87,0,0,0-1,1.76A1.72,1.72,0,0,0,834.36,122.28Z" transform="translate(0 0.42)"/><path class="cls-2" d="M852.14,107h2.11v17.22h-2.11Z" transform="translate(0 0.42)"/><path class="cls-2" d="M859.53,111.63V120a3.57,3.57,0,0,0,.3,1.57,2.13,2.13,0,0,0,2.1,1.12,3,3,0,0,0,3-2,7.84,7.84,0,0,0,.43-2.9v-6.16h2.11v12.55h-2l0-1.85a4.23,4.23,0,0,1-1,1.2,4.46,4.46,0,0,1-2.93,1,3.78,3.78,0,0,1-3.65-1.8,5.33,5.33,0,0,1-.53-2.56v-8.53Z" transform="translate(0 0.42)"/><path class="cls-2" d="M870.77,111.63h2v1.78a5.46,5.46,0,0,1,1.89-1.58,5,5,0,0,1,2.21-.48c1.78,0,3,.62,3.61,1.86a6.66,6.66,0,0,1,.52,2.92v8.05h-2.15v-7.91a4.19,4.19,0,0,0-.34-1.85,2,2,0,0,0-2-1.18,3.86,3.86,0,0,0-1.23.16,3.12,3.12,0,0,0-1.52,1,3.16,3.16,0,0,0-.69,1.28,9.06,9.06,0,0,0-.15,1.89v6.58h-2.11Z" transform="translate(0 0.42)"/><path class="cls-2" d="M890.84,116.57a1.13,1.13,0,0,0,1-.61,1.73,1.73,0,0,0,.14-.81,1.71,1.71,0,0,0-.76-1.56,4.19,4.19,0,0,0-2.2-.49,2.83,2.83,0,0,0-2.35.89,3.05,3.05,0,0,0-.5,1.47h-2a3.62,3.62,0,0,1,1.51-3.23,6.13,6.13,0,0,1,3.36-.91,6.74,6.74,0,0,1,3.59.85,2.84,2.84,0,0,1,1.37,2.62V122a.92.92,0,0,0,.14.53.66.66,0,0,0,.57.2l.31,0,.38,0v1.56a5.83,5.83,0,0,1-.75.17,4.39,4.39,0,0,1-.7,0,1.74,1.74,0,0,1-1.59-.78,3,3,0,0,1-.36-1.16,5.4,5.4,0,0,1-1.85,1.47,5.79,5.79,0,0,1-2.66.62,4,4,0,0,1-2.86-1.06,3.55,3.55,0,0,1-1.1-2.66,3.4,3.4,0,0,1,1.09-2.7,5.19,5.19,0,0,1,2.86-1.19Zm-4.44,5.71a2.47,2.47,0,0,0,1.58.53,4.9,4.9,0,0,0,2.16-.52,2.89,2.89,0,0,0,1.75-2.8v-1.7a3.69,3.69,0,0,1-1,.41,9.1,9.1,0,0,1-1.2.24l-1.27.16a4.89,4.89,0,0,0-1.73.48,1.87,1.87,0,0,0-1,1.76A1.72,1.72,0,0,0,886.4,122.28Z" transform="translate(0 0.42)"/><path class="cls-2" d="M898,121.62h2.45v2.56H898Z" transform="translate(0 0.42)"/><path class="cls-2" d="M911.08,107h2.75l8.7,14V107h2.21v17.22h-2.61l-8.83-13.94v13.94h-2.22Z" transform="translate(0 0.42)"/><path class="cls-2" d="M937.29,112.88a6.3,6.3,0,0,1,1.68,4.76,8.12,8.12,0,0,1-1.48,5,5.33,5.33,0,0,1-4.58,2,5.15,5.15,0,0,1-4.11-1.75,6.89,6.89,0,0,1-1.53-4.7,7.49,7.49,0,0,1,1.61-5,5.39,5.39,0,0,1,4.31-1.88A5.66,5.66,0,0,1,937.29,112.88Zm-1.3,8.35a7.92,7.92,0,0,0,.78-3.53,6.22,6.22,0,0,0-.57-2.86,3.15,3.15,0,0,0-3.07-1.74,3,3,0,0,0-2.81,1.48,6.79,6.79,0,0,0-.88,3.56,5.91,5.91,0,0,0,.88,3.34,3.11,3.11,0,0,0,2.79,1.34A2.91,2.91,0,0,0,936,121.23Z" transform="translate(0 0.42)"/><path class="cls-2" d="M957.31,112.88a6.3,6.3,0,0,1,1.67,4.76,8.18,8.18,0,0,1-1.47,5,5.35,5.35,0,0,1-4.58,2,5.18,5.18,0,0,1-4.12-1.75,6.93,6.93,0,0,1-1.52-4.7,7.49,7.49,0,0,1,1.6-5,5.4,5.4,0,0,1,4.32-1.88A5.69,5.69,0,0,1,957.31,112.88ZM956,121.23a7.92,7.92,0,0,0,.78-3.53,6.36,6.36,0,0,0-.56-2.86,3.16,3.16,0,0,0-3.07-1.74,3,3,0,0,0-2.81,1.48,6.79,6.79,0,0,0-.88,3.56,5.91,5.91,0,0,0,.88,3.34,3.09,3.09,0,0,0,2.79,1.34A2.91,2.91,0,0,0,956,121.23Z" transform="translate(0 0.42)"/><path class="cls-2" d="M969.78,112.29a5,5,0,0,1,1.6,3.56h-2a3.76,3.76,0,0,0-.85-1.93,2.72,2.72,0,0,0-2.15-.77,3,3,0,0,0-2.88,2,7.72,7.72,0,0,0-.56,3.15,6,6,0,0,0,.79,3.18,3.08,3.08,0,0,0,4.59.48,4.34,4.34,0,0,0,1.06-2.19h2a4.94,4.94,0,0,1-5.35,4.8,4.81,4.81,0,0,1-3.93-1.8,6.92,6.92,0,0,1-1.46-4.49,7.58,7.58,0,0,1,1.6-5.15,5.22,5.22,0,0,1,4.09-1.84A5.49,5.49,0,0,1,969.78,112.29Z" transform="translate(0 0.42)"/><path class="cls-2" d="M975.6,111.63V120a3.43,3.43,0,0,0,.31,1.57,2.11,2.11,0,0,0,2.09,1.12,3,3,0,0,0,3-2,7.82,7.82,0,0,0,.44-2.9v-6.16h2.11v12.55h-2l0-1.85a4.57,4.57,0,0,1-1,1.2,4.48,4.48,0,0,1-2.93,1q-2.68,0-3.66-1.8a5.34,5.34,0,0,1-.52-2.56v-8.53Z" transform="translate(0 0.42)"/><path class="cls-2" d="M986.9,111.63h2v2.16a5,5,0,0,1,1.21-1.54,3.14,3.14,0,0,1,2.21-.9h.2l.48,0v2.23l-.34,0h-.35a3,3,0,0,0-2.45,1A3.57,3.57,0,0,0,989,117v7.22H986.9Z" transform="translate(0 0.42)"/><path class="cls-2" d="M994.89,111.63h2v2.16a5,5,0,0,1,1.21-1.54,3.15,3.15,0,0,1,2.22-.9h.2l.48,0v2.23l-.35,0h-.35a3,3,0,0,0-2.44,1A3.58,3.58,0,0,0,997,117v7.22h-2.11Z" transform="translate(0 0.42)"/><path class="cls-2" d="M1002.82,107H1005v2.39h-2.15Zm0,4.73H1005v12.49h-2.15Z" transform="translate(0 0.42)"/><path class="cls-2" d="M1014.88,116.57a1.14,1.14,0,0,0,1-.61,1.87,1.87,0,0,0,.14-.81,1.72,1.72,0,0,0-.77-1.56,4.17,4.17,0,0,0-2.2-.49,2.8,2.8,0,0,0-2.34.89,3,3,0,0,0-.51,1.47h-2a3.64,3.64,0,0,1,1.51-3.23,6.15,6.15,0,0,1,3.36-.91,6.8,6.8,0,0,1,3.6.85,2.86,2.86,0,0,1,1.37,2.62V122a.93.93,0,0,0,.13.53.66.66,0,0,0,.57.2l.32,0,.37,0v1.56a5.83,5.83,0,0,1-.75.17,4.31,4.31,0,0,1-.7,0,1.71,1.71,0,0,1-1.58-.78,2.83,2.83,0,0,1-.37-1.16,5.3,5.3,0,0,1-1.85,1.47,5.76,5.76,0,0,1-2.66.62,3.94,3.94,0,0,1-2.85-1.06,3.52,3.52,0,0,1-1.11-2.66,3.4,3.4,0,0,1,1.09-2.7,5.22,5.22,0,0,1,2.86-1.19Zm-4.44,5.71a2.49,2.49,0,0,0,1.58.53,4.87,4.87,0,0,0,2.16-.52,2.9,2.9,0,0,0,1.76-2.8v-1.7a3.77,3.77,0,0,1-1,.41,8.65,8.65,0,0,1-1.19.24l-1.28.16a4.77,4.77,0,0,0-1.72.48,1.88,1.88,0,0,0-1,1.76A1.75,1.75,0,0,0,1010.44,122.28Z" transform="translate(0 0.42)"/><path class="cls-2" d="M1035.1,112a6.14,6.14,0,0,1,1.28,1.23V106.9h2v17.28h-1.9v-1.75a4.63,4.63,0,0,1-1.74,1.68,5,5,0,0,1-2.31.51,4.68,4.68,0,0,1-3.63-1.76,6.87,6.87,0,0,1-1.54-4.69,8.15,8.15,0,0,1,1.4-4.76,5,5,0,0,1,6.42-1.4Zm-4.74,9.41a3,3,0,0,0,2.75,1.36,2.88,2.88,0,0,0,2.4-1.26,5.92,5.92,0,0,0,1-3.61,5.32,5.32,0,0,0-1-3.52,3,3,0,0,0-2.4-1.15,3.18,3.18,0,0,0-2.58,1.22,5.61,5.61,0,0,0-1,3.59A6.2,6.2,0,0,0,1030.36,121.42Z" transform="translate(0 0.42)"/><path class="cls-2" d="M1049.34,112a4.82,4.82,0,0,1,1.91,1.63,5.6,5.6,0,0,1,.84,2.21,14.91,14.91,0,0,1,.19,2.77h-9.2a5.39,5.39,0,0,0,.9,3.06,3,3,0,0,0,2.61,1.15,3.37,3.37,0,0,0,2.64-1.09,3.67,3.67,0,0,0,.8-1.46h2.07a4.26,4.26,0,0,1-.54,1.54,5.54,5.54,0,0,1-1,1.39,5,5,0,0,1-2.38,1.27,7.51,7.51,0,0,1-1.72.18,5.29,5.29,0,0,1-4-1.7,6.63,6.63,0,0,1-1.63-4.78,7.2,7.2,0,0,1,1.64-4.91,5.39,5.39,0,0,1,4.29-1.88A5.71,5.71,0,0,1,1049.34,112Zm.77,4.93a5.6,5.6,0,0,0-.6-2.19,3,3,0,0,0-2.89-1.52,3.21,3.21,0,0,0-2.44,1,4,4,0,0,0-1,2.67Z" transform="translate(0 0.42)"/><path class="cls-2" d="M1056.12,120.24a3.07,3.07,0,0,0,.53,1.62,3.3,3.3,0,0,0,2.76,1,4.1,4.1,0,0,0,2.07-.51,1.71,1.71,0,0,0,.89-1.58,1.34,1.34,0,0,0-.72-1.23,8.57,8.57,0,0,0-1.8-.6l-1.68-.42a8,8,0,0,1-2.37-.89,2.67,2.67,0,0,1-1.35-2.37,3.6,3.6,0,0,1,1.28-2.88,5.12,5.12,0,0,1,3.45-1.1,4.79,4.79,0,0,1,4.09,1.66,3.62,3.62,0,0,1,.76,2.28h-2a2.48,2.48,0,0,0-.5-1.3,3.21,3.21,0,0,0-2.52-.84,3,3,0,0,0-1.81.46,1.41,1.41,0,0,0-.62,1.21,1.49,1.49,0,0,0,.81,1.31,4.7,4.7,0,0,0,1.38.52l1.4.34a10.65,10.65,0,0,1,3,1.06,2.83,2.83,0,0,1,1.23,2.54,3.87,3.87,0,0,1-1.27,2.9,5.43,5.43,0,0,1-3.87,1.22,5.23,5.23,0,0,1-4-1.27,4.84,4.84,0,0,1-1.25-3.15Z" transform="translate(0 0.42)"/><path class="cls-2" d="M1073.79,112a5.91,5.91,0,0,1,1.28,1.23V106.9h2v17.28h-1.9v-1.75a4.59,4.59,0,0,1-1.75,1.68,5,5,0,0,1-2.31.51,4.71,4.71,0,0,1-3.63-1.76,6.91,6.91,0,0,1-1.53-4.69,8.08,8.08,0,0,1,1.4-4.76,4.57,4.57,0,0,1,4-2A4.51,4.51,0,0,1,1073.79,112Zm-4.73,9.41a3,3,0,0,0,2.74,1.36,2.89,2.89,0,0,0,2.41-1.26,5.93,5.93,0,0,0,.94-3.61,5.32,5.32,0,0,0-1-3.52,3,3,0,0,0-2.4-1.15,3.18,3.18,0,0,0-2.59,1.22,5.61,5.61,0,0,0-1,3.59A6.2,6.2,0,0,0,1069.06,121.42Z" transform="translate(0 0.42)"/><path class="cls-2" d="M1088,112a4.75,4.75,0,0,1,1.91,1.63,5.76,5.76,0,0,1,.85,2.21,15.12,15.12,0,0,1,.18,2.77h-9.2a5.31,5.31,0,0,0,.91,3.06,3,3,0,0,0,2.61,1.15,3.38,3.38,0,0,0,2.64-1.09,3.65,3.65,0,0,0,.79-1.46h2.08a4.5,4.5,0,0,1-.55,1.54,5.31,5.31,0,0,1-1,1.39,5,5,0,0,1-2.37,1.27,7.6,7.6,0,0,1-1.73.18,5.31,5.31,0,0,1-4-1.7,6.63,6.63,0,0,1-1.63-4.78,7.25,7.25,0,0,1,1.64-4.91,5.42,5.42,0,0,1,4.29-1.88A5.68,5.68,0,0,1,1088,112Zm.77,4.93a5.44,5.44,0,0,0-.59-2.19,3.07,3.07,0,0,0-2.9-1.52,3.17,3.17,0,0,0-2.43,1,4,4,0,0,0-1.05,2.67Z" transform="translate(0 0.42)"/><path class="cls-2" d="M1101,112.29v-1.61a8.58,8.58,0,0,0,3.19-.75,3.67,3.67,0,0,0,1.35-2.46h1.66v16.71h-2.25V112.29Z" transform="translate(0 0.42)"/><path class="cls-2" d="M1115.22,120.12a2.66,2.66,0,0,0,1.35,2.42,3,3,0,0,0,1.45.35,3.26,3.26,0,0,0,2.58-1.26q1.07-1.26,1.51-5.12a3.89,3.89,0,0,1-1.74,1.57,5.55,5.55,0,0,1-2.23.45,5,5,0,0,1-3.84-1.51,5.49,5.49,0,0,1-1.41-3.89,6.2,6.2,0,0,1,1.39-4,5,5,0,0,1,4.11-1.74,5.06,5.06,0,0,1,5.07,3.31,11.72,11.72,0,0,1,.77,4.54,15,15,0,0,1-.93,5.47q-1.53,4-5.2,4a5,5,0,0,1-3.74-1.29,4.42,4.42,0,0,1-1.27-3.24Zm5.49-4.27a3.5,3.5,0,0,0,1-2.89,3.68,3.68,0,0,0-.94-2.76,3.28,3.28,0,0,0-2.37-.91,3.09,3.09,0,0,0-2.45,1,4,4,0,0,0-.91,2.77,3.92,3.92,0,0,0,.8,2.61,3.08,3.08,0,0,0,2.54,1A3.61,3.61,0,0,0,1120.71,115.85Z" transform="translate(0 0.42)"/><path class="cls-2" d="M1137.93,107.68v1.84a18.81,18.81,0,0,0-2.15,2.73,26.25,26.25,0,0,0-2.37,4.19,28.62,28.62,0,0,0-1.55,4c-.23.77-.52,2-.88,3.74h-2.33a28.78,28.78,0,0,1,3.51-9.57,30.53,30.53,0,0,1,3.38-4.81h-9.28v-2.12Z" transform="translate(0 0.42)"/><path class="cls-2" d="M1149.67,108.78a5,5,0,0,1,1.1,3h-2.08a4,4,0,0,0-.6-1.56,2.67,2.67,0,0,0-2.31-1,3.18,3.18,0,0,0-2.81,1.63,9.39,9.39,0,0,0-1.16,4.68,4.51,4.51,0,0,1,1.83-1.59,5.3,5.3,0,0,1,2.25-.47,5.49,5.49,0,0,1,3.68,1.35,5,5,0,0,1,1.57,4,6.13,6.13,0,0,1-1.49,4,5.26,5.26,0,0,1-4.24,1.76,5.42,5.42,0,0,1-4.07-1.79q-1.71-1.78-1.71-6a16.12,16.12,0,0,1,.76-5.31c1-2.78,2.76-4.17,5.36-4.17C1147.62,107.33,1148.93,107.81,1149.67,108.78Zm-1.59,12.84a4.36,4.36,0,0,0,.83-2.65,4.53,4.53,0,0,0-.74-2.45,2.91,2.91,0,0,0-2.68-1.17,3.48,3.48,0,0,0-2.39.91,3.42,3.42,0,0,0-1,2.71,4,4,0,0,0,.93,2.68,3.23,3.23,0,0,0,2.58,1.09A2.91,2.91,0,0,0,1148.08,121.62Z" transform="translate(0 0.42)"/><path class="cls-2" d="M827.42,27.93a7.71,7.71,0,0,1,5.75-2.32c3.12,0,5.39,1,6.83,3.1a6.66,6.66,0,0,1,1.28,3.49h-3.91a5.26,5.26,0,0,0-1-2,4.25,4.25,0,0,0-6.4.5,8.44,8.44,0,0,0-1.2,4.87,7.39,7.39,0,0,0,1.27,4.72,4,4,0,0,0,3.24,1.57,3.64,3.64,0,0,0,3.06-1.35,5.88,5.88,0,0,0,1-2.17h3.89a8.51,8.51,0,0,1-2.57,5,7.47,7.47,0,0,1-5.3,1.91,8,8,0,0,1-6.28-2.59,10.44,10.44,0,0,1-2.28-7.13Q824.82,30.58,827.42,27.93Z" transform="translate(0 0.42)"/><path class="cls-2" d="M854.06,30.92a4,4,0,0,1,1.71,1.36,3.71,3.71,0,0,1,.7,1.6,20.59,20.59,0,0,1,.12,2.67v8.13H852.9V36.26a3.77,3.77,0,0,0-.38-1.81,1.89,1.89,0,0,0-1.86-1,2.55,2.55,0,0,0-2.16,1,4.35,4.35,0,0,0-.74,2.73v7.5h-3.62V26h3.62v6.61A4.44,4.44,0,0,1,849.57,31a5.23,5.23,0,0,1,2.17-.47A6,6,0,0,1,854.06,30.92Z" transform="translate(0 0.42)"/><path class="cls-2" d="M865.48,36.27a5.79,5.79,0,0,0,1.44-.32,1.09,1.09,0,0,0,.78-1,1.2,1.2,0,0,0-.6-1.17,3.67,3.67,0,0,0-1.75-.33,2.28,2.28,0,0,0-1.84.64,2.6,2.6,0,0,0-.52,1.27H859.5a5.37,5.37,0,0,1,1-3c1-1.22,2.61-1.82,5-1.82a8.81,8.81,0,0,1,4,.9,3.44,3.44,0,0,1,1.78,3.4v6.35c0,.44,0,1,0,1.6a2,2,0,0,0,.22,1,1.27,1.27,0,0,0,.53.42v.53h-3.94a4.67,4.67,0,0,1-.22-.78c0-.25-.08-.53-.11-.84a7.51,7.51,0,0,1-1.73,1.38,5.23,5.23,0,0,1-2.66.67A4.55,4.55,0,0,1,860.29,44a3.81,3.81,0,0,1-1.23-3,3.93,3.93,0,0,1,2-3.69,8.76,8.76,0,0,1,3.2-.89ZM867.69,38a3.81,3.81,0,0,1-.7.35,5.35,5.35,0,0,1-1,.25l-.83.15a5.4,5.4,0,0,0-1.66.5,1.65,1.65,0,0,0-.85,1.54,1.58,1.58,0,0,0,.52,1.33,2,2,0,0,0,1.27.42,3.74,3.74,0,0,0,2.18-.69,2.88,2.88,0,0,0,1-2.5Z" transform="translate(0 0.42)"/><path class="cls-2" d="M885.62,31.64A4.59,4.59,0,0,1,887,35.36v9.32h-3.7V36.27a3.93,3.93,0,0,0-.29-1.68,2,2,0,0,0-2-1.07,2.5,2.5,0,0,0-2.51,1.57,5.48,5.48,0,0,0-.35,2.1v7.49h-3.62V30.87H878v2a6.3,6.3,0,0,1,1.31-1.54,4.54,4.54,0,0,1,2.82-.83A5.33,5.33,0,0,1,885.62,31.64Z" transform="translate(0 0.42)"/><path class="cls-2" d="M897.18,30.83a4.34,4.34,0,0,1,2.13,2v-2h3.53V44a7.37,7.37,0,0,1-.9,4q-1.55,2.34-5.94,2.34a8,8,0,0,1-4.33-1.05,3.83,3.83,0,0,1-1.85-3.11h3.93a1.68,1.68,0,0,0,.5.92,3.06,3.06,0,0,0,2,.49,2.64,2.64,0,0,0,2.61-1.3,6.61,6.61,0,0,0,.43-2.82v-.89a4.35,4.35,0,0,1-1.11,1.33,4.51,4.51,0,0,1-2.81.83,5.31,5.31,0,0,1-4.26-1.88,7.55,7.55,0,0,1-1.59-5.07A8.57,8.57,0,0,1,891,32.62a5.09,5.09,0,0,1,4.35-2.1A4.76,4.76,0,0,1,897.18,30.83Zm1.24,9.92a4.45,4.45,0,0,0,.87-3,4.72,4.72,0,0,0-.83-3,2.71,2.71,0,0,0-2.22-1,2.6,2.6,0,0,0-2.61,1.79,6.19,6.19,0,0,0-.38,2.35,5.37,5.37,0,0,0,.4,2.14,2.64,2.64,0,0,0,2.63,1.75A2.8,2.8,0,0,0,898.42,40.75Z" transform="translate(0 0.42)"/><path class="cls-2" d="M906.27,31.84a2.89,2.89,0,0,0,1.82-1.34,2.39,2.39,0,0,0,.23-1.13h-2.11V26h3.73v2.68a4.43,4.43,0,0,1-1,3,4.58,4.58,0,0,1-2.71,1.44Z" transform="translate(0 0.42)"/><path class="cls-2" d="M922.46,31.13a5.59,5.59,0,0,1,2.39,2A6.8,6.8,0,0,1,926,36a19.88,19.88,0,0,1,.12,2.75H916a3.32,3.32,0,0,0,1.44,2.92,3.68,3.68,0,0,0,2,.52,3.1,3.1,0,0,0,2-.63,3,3,0,0,0,.74-1h3.7a4.51,4.51,0,0,1-1.35,2.5,6.7,6.7,0,0,1-5.2,2,7.54,7.54,0,0,1-4.88-1.7c-1.4-1.13-2.11-3-2.11-5.54a7.48,7.48,0,0,1,1.91-5.51,6.67,6.67,0,0,1,5-1.92A7.73,7.73,0,0,1,922.46,31.13Zm-5.41,3.12a3.84,3.84,0,0,0-1,2.14h6.24a3,3,0,0,0-1-2.18,3.14,3.14,0,0,0-2.14-.75A2.85,2.85,0,0,0,917.05,34.25Z" transform="translate(0 0.42)"/><path class="cls-2" d="M937.73,39.76a3.54,3.54,0,0,0,.82,1.82,2.34,2.34,0,0,0,1.78.64,2.41,2.41,0,0,0,2-.94,3.92,3.92,0,0,0,.71-2.39,4.14,4.14,0,0,0-.66-2.38,2.33,2.33,0,0,0-2-1,3.51,3.51,0,0,0-1.14.17A2.22,2.22,0,0,0,938,36.84l-3.25-.15L936,26.52h10.13v3.07H938.6l-.65,4a7.66,7.66,0,0,1,1.3-.72,5.66,5.66,0,0,1,1.92-.29,5.55,5.55,0,0,1,5.68,6,7,7,0,0,1-1.64,4.56,5.94,5.94,0,0,1-4.9,2A6.5,6.5,0,0,1,936,43.76a5.48,5.48,0,0,1-1.87-4Z" transform="translate(0 0.42)"/><polyline class="cls-7" points="516.05 489.03 475.29 442.15 126.99 442.15 74.99 442.15"/><polyline class="cls-8" points="798.69 179.06 823.34 137.85 990.95 137.85 1220.43 137.85"/><polyline class="cls-9" points="714.8 694.09 739.45 652.88 907.05 652.88 1136.53 652.88 1231.76 652.88"/><ellipse class="cls-6" cx="699.8" cy="513.59" rx="20" ry="20.5"/><path class="cls-1" d="M49.36,35.56h8l12,33.82H61.66l-2.23-6.95H47l-2.29,6.95h-7.4Zm-.47,21h8.67L53.28,43.29Z" transform="translate(0 0.42)"/><path class="cls-1" d="M70.53,49.26V44.6H74v-7h6.47v7h4.06v4.66H80.49V62.47a3,3,0,0,0,.39,1.92,4.33,4.33,0,0,0,2.39.38h.63l.65,0v4.89l-3.1.12c-3.09.1-5.2-.43-6.33-1.61A4.8,4.8,0,0,1,74,64.65V49.26Z" transform="translate(0 0.42)"/><path class="cls-1" d="M105.05,44.87a10.28,10.28,0,0,1,4.33,3.7,12.5,12.5,0,0,1,2,5.18,31.84,31.84,0,0,1,.21,5H93.37Q93.52,62.47,96,64a6.63,6.63,0,0,0,3.61.94,5.5,5.5,0,0,0,3.63-1.15,5.23,5.23,0,0,0,1.34-1.72h6.68a8.1,8.1,0,0,1-2.42,4.52q-3.36,3.66-9.41,3.65a13.58,13.58,0,0,1-8.81-3.08q-3.82-3.08-3.82-10,0-6.49,3.44-10a12.08,12.08,0,0,1,9-3.47A14.22,14.22,0,0,1,105.05,44.87Zm-9.78,5.65a6.75,6.75,0,0,0-1.74,3.88h11.26a5.48,5.48,0,0,0-1.74-4,5.76,5.76,0,0,0-3.88-1.34A5.18,5.18,0,0,0,95.27,50.52Z" transform="translate(0 0.42)"/><path class="cls-1" d="M128.79,43.78l.56,0v6.7c-.41-.05-.78-.08-1.1-.09l-.78,0q-3.94,0-5.3,2.57a10,10,0,0,0-.76,4.46V69.38h-6.59v-25h6.24v4.36a13.75,13.75,0,0,1,2.64-3.42,7.19,7.19,0,0,1,4.78-1.54Z" transform="translate(0 0.42)"/><path class="cls-1" d="M147.08,43.78l.56,0v6.7c-.41-.05-.78-.08-1.1-.09l-.78,0q-3.94,0-5.3,2.57a10,10,0,0,0-.76,4.46V69.38h-6.59v-25h6.25v4.36A13.76,13.76,0,0,1,142,45.31a7.19,7.19,0,0,1,4.78-1.54Z" transform="translate(0 0.42)"/><path class="cls-1" d="M158.2,41.38h-6.64v-6h6.64Zm-6.64,3h6.64v25h-6.64Z" transform="translate(0 0.42)"/><path class="cls-1" d="M163.11,49.69V44.37h19.78v5.44L170.62,64h12.71v5.37H162.24V64.29l12.4-14.6Z" transform="translate(0 0.42)"/><path class="cls-1" d="M197.94,54.17a10.49,10.49,0,0,0,2.61-.58A2,2,0,0,0,202,51.73a2.2,2.2,0,0,0-1.08-2.12A6.85,6.85,0,0,0,197.7,49a4.18,4.18,0,0,0-3.32,1.14,4.69,4.69,0,0,0-.93,2.3h-6.31A9.48,9.48,0,0,1,189,47.08q2.61-3.31,8.94-3.31a15.89,15.89,0,0,1,7.33,1.63q3.21,1.64,3.21,6.15V63c0,.79,0,1.76,0,2.89a3.72,3.72,0,0,0,.39,1.74,2.37,2.37,0,0,0,1,.76v1h-7.12a6.73,6.73,0,0,1-.41-1.42c-.08-.44-.14-.95-.19-1.51A13.67,13.67,0,0,1,199,69a9.52,9.52,0,0,1-4.81,1.21,8.24,8.24,0,0,1-5.64-1.94,6.87,6.87,0,0,1-2.23-5.49,7.13,7.13,0,0,1,3.59-6.68,15.92,15.92,0,0,1,5.78-1.61Zm4,3a7.14,7.14,0,0,1-1.27.63,11,11,0,0,1-1.76.45l-1.49.27a10,10,0,0,0-3,.9,3,3,0,0,0-1.55,2.78,2.91,2.91,0,0,0,.95,2.42,3.61,3.61,0,0,0,2.29.74,6.8,6.8,0,0,0,3.95-1.24c1.21-.82,1.83-2.33,1.88-4.52Z" transform="translate(0 0.42)"/><path class="cls-1" d="M211.32,74.18l.78.06h.42a2.07,2.07,0,0,0,1.46-.47,2.59,2.59,0,0,0,.49-1.83V44.48H221V72.07q0,3.78-1.49,5.6t-5.85,1.81l-.89,0-1.46,0ZM221,41.38h-6.54v-6H221Z" transform="translate(0 0.42)"/><path class="cls-1" d="M243.53,44.87a10.31,10.31,0,0,1,4.32,3.7,12.23,12.23,0,0,1,2,5.18,31.59,31.59,0,0,1,.22,5H231.84q.15,3.76,2.62,5.28a6.61,6.61,0,0,0,3.6.94,5.5,5.5,0,0,0,3.63-1.15A5.38,5.38,0,0,0,243,62.06h6.68a8.19,8.19,0,0,1-2.43,4.52q-3.36,3.66-9.41,3.65a13.6,13.6,0,0,1-8.81-3.08q-3.81-3.08-3.82-10,0-6.49,3.45-10a12.08,12.08,0,0,1,9-3.47A14.29,14.29,0,0,1,243.53,44.87Zm-9.79,5.65A6.88,6.88,0,0,0,232,54.4h11.27a5.48,5.48,0,0,0-1.74-4,5.79,5.79,0,0,0-3.88-1.34A5.21,5.21,0,0,0,233.74,50.52Z" transform="translate(0 0.42)"/><path class="cls-1" d="M258.44,61.4a4.32,4.32,0,0,0,.9,2.47c.81.88,2.32,1.31,4.52,1.31a7,7,0,0,0,3.08-.57,1.84,1.84,0,0,0,1.14-1.72,1.87,1.87,0,0,0-.92-1.68,38,38,0,0,0-6.84-2q-4.27-1.05-6-2.64a5.74,5.74,0,0,1-1.75-4.5,7.78,7.78,0,0,1,2.73-6c1.82-1.66,4.37-2.49,7.67-2.49a14.07,14.07,0,0,1,7.65,1.87c2,1.24,3.1,3.4,3.39,6.46h-6.54a3.81,3.81,0,0,0-.72-2,4.47,4.47,0,0,0-3.68-1.33,5.36,5.36,0,0,0-3.05.66,2,2,0,0,0-.91,1.57,1.7,1.7,0,0,0,1,1.62,41.17,41.17,0,0,0,6.83,1.82,12.57,12.57,0,0,1,5.86,2.77,6.35,6.35,0,0,1,1.93,4.71,7.62,7.62,0,0,1-2.77,6.07q-2.78,2.36-8.57,2.35t-8.73-2.49a8.1,8.1,0,0,1-2.81-6.34Z" transform="translate(0 0.42)"/><path class="cls-5" d="M76.64,369.06a7.22,7.22,0,0,1,3-2.92l2.25-1.3a10.66,10.66,0,0,0,2.12-1.5,3.27,3.27,0,0,0,.08-4.55,3.16,3.16,0,0,0-2.34-.87,3.07,3.07,0,0,0-3,1.65A5.75,5.75,0,0,0,78.3,362H76.15a7.66,7.66,0,0,1,.81-3.57Q78.34,356,81.8,356a5,5,0,0,1,5.55,5,4.73,4.73,0,0,1-1.42,3.44,13.87,13.87,0,0,1-2.94,2l-1.61.89a9.45,9.45,0,0,0-1.8,1.21,4.32,4.32,0,0,0-1.48,2.26h9.16v2H75.74A9.82,9.82,0,0,1,76.64,369.06Z" transform="translate(0 0.42)"/><path class="cls-5" d="M99.54,358.73a12,12,0,0,1,1.13,5.69,13.71,13.71,0,0,1-1,5.66,5,5,0,0,1-4.83,3.21,4.85,4.85,0,0,1-4.5-2.63,12,12,0,0,1-1.23-5.88,14.58,14.58,0,0,1,.74-4.91q1.38-3.83,5-3.82A4.94,4.94,0,0,1,99.54,358.73Zm-2.12,11.18q1-1.46,1-5.41a13.35,13.35,0,0,0-.71-4.71A2.67,2.67,0,0,0,95,358a2.84,2.84,0,0,0-2.72,1.75,12,12,0,0,0-.86,5.16,12.64,12.64,0,0,0,.55,4.13c.56,1.58,1.52,2.38,2.88,2.38A3,3,0,0,0,97.42,369.91Z" transform="translate(0 0.42)"/><path class="cls-5" d="M104,361v-1.62a8.76,8.76,0,0,0,3.18-.74,3.69,3.69,0,0,0,1.35-2.47h1.67v16.71h-2.25V361Z" transform="translate(0 0.42)"/><path class="cls-5" d="M117.32,363a3.3,3.3,0,0,1-.92-2.44,4.36,4.36,0,0,1,1.36-3.22,5.22,5.22,0,0,1,3.85-1.35,5.41,5.41,0,0,1,3.79,1.27,4,4,0,0,1,1.37,3,3.91,3.91,0,0,1-.8,2.55,5.17,5.17,0,0,1-1.38,1.08,5.33,5.33,0,0,1,1.64,1.1,4.23,4.23,0,0,1,1.11,3,5.18,5.18,0,0,1-1.49,3.76,5.55,5.55,0,0,1-4.2,1.54A6.49,6.49,0,0,1,117.5,372a4.61,4.61,0,0,1-1.69-3.86,4.3,4.3,0,0,1,2.88-4.23A4.21,4.21,0,0,1,117.32,363Zm6.8,7.59a2.87,2.87,0,0,0,1-2.36,3.09,3.09,0,0,0-1-2.48,3.85,3.85,0,0,0-2.56-.84,3.57,3.57,0,0,0-2.47.86,3.08,3.08,0,0,0-.95,2.39,3.23,3.23,0,0,0,.87,2.26,3.47,3.47,0,0,0,2.7,1A3.68,3.68,0,0,0,124.12,370.6Zm-.38-8.3a2.51,2.51,0,0,0,.79-1.86,2.44,2.44,0,0,0-.75-1.72,3,3,0,0,0-2.29-.78,2.78,2.78,0,0,0-2.2.78,2.74,2.74,0,0,0-.68,1.84,2.17,2.17,0,0,0,.88,1.85,3.31,3.31,0,0,0,2.07.67A3,3,0,0,0,123.74,362.3Z" transform="translate(0 0.42)"/><path class="cls-2" d="M826.84,65.61a7.28,7.28,0,0,1,3-2.92l2.25-1.3a11,11,0,0,0,2.12-1.5,3.27,3.27,0,0,0,.08-4.55,3.17,3.17,0,0,0-2.34-.86,3,3,0,0,0-3,1.64,5.78,5.78,0,0,0-.49,2.43h-2.15a7.54,7.54,0,0,1,.81-3.57c.91-1.62,2.53-2.44,4.84-2.44a5,5,0,0,1,5.54,5A4.76,4.76,0,0,1,836.13,61a14.16,14.16,0,0,1-3,2l-1.6.89a10.44,10.44,0,0,0-1.81,1.21,4.36,4.36,0,0,0-1.47,2.26h9.16v2H825.94A9.82,9.82,0,0,1,826.84,65.61Z" transform="translate(0 0.42)"/><path class="cls-2" d="M849.74,55.28A12,12,0,0,1,850.87,61a13.68,13.68,0,0,1-1,5.66A5,5,0,0,1,845,69.84a4.83,4.83,0,0,1-4.5-2.63,12,12,0,0,1-1.23-5.88,14.62,14.62,0,0,1,.74-4.91q1.38-3.83,5-3.82A5,5,0,0,1,849.74,55.28Zm-2.12,11.18c.65-1,1-2.77,1-5.41a13.31,13.31,0,0,0-.7-4.7,2.67,2.67,0,0,0-2.73-1.85,2.84,2.84,0,0,0-2.72,1.75,12,12,0,0,0-.87,5.16,12.61,12.61,0,0,0,.56,4.13c.56,1.58,1.52,2.38,2.88,2.38A3,3,0,0,0,847.62,66.46Z" transform="translate(0 0.42)"/><path class="cls-2" d="M853.53,65.61a7.34,7.34,0,0,1,3-2.92l2.25-1.3a11.11,11.11,0,0,0,2.13-1.5,3.09,3.09,0,0,0,1-2.23,3.12,3.12,0,0,0-.88-2.32,3.2,3.2,0,0,0-2.35-.86,3.06,3.06,0,0,0-3,1.64,5.94,5.94,0,0,0-.49,2.43h-2.14a7.42,7.42,0,0,1,.81-3.57c.91-1.62,2.52-2.44,4.84-2.44a5,5,0,0,1,5.54,5A4.73,4.73,0,0,1,862.82,61a14.31,14.31,0,0,1-2.94,2l-1.61.89a10.71,10.71,0,0,0-1.8,1.21A4.45,4.45,0,0,0,855,67.39h9.17v2H852.64A9.64,9.64,0,0,1,853.53,65.61Z" transform="translate(0 0.42)"/><path class="cls-2" d="M876.44,55.28A12,12,0,0,1,877.56,61a13.68,13.68,0,0,1-1,5.66,5,5,0,0,1-4.83,3.21,4.85,4.85,0,0,1-4.5-2.63A12,12,0,0,1,866,61.33a14.62,14.62,0,0,1,.74-4.91q1.38-3.83,5-3.82A5,5,0,0,1,876.44,55.28Zm-2.12,11.18c.64-1,1-2.77,1-5.41a13.54,13.54,0,0,0-.7-4.7,2.67,2.67,0,0,0-2.73-1.85,2.85,2.85,0,0,0-2.73,1.75,12.17,12.17,0,0,0-.86,5.16,12.64,12.64,0,0,0,.55,4.13c.56,1.58,1.52,2.38,2.88,2.38A3,3,0,0,0,874.32,66.46Z" transform="translate(0 0.42)"/><path class="cls-6" d="M746.34,576.8a7.28,7.28,0,0,1,3-2.92l2.25-1.3a10.66,10.66,0,0,0,2.12-1.5,3.27,3.27,0,0,0,.08-4.55,3.16,3.16,0,0,0-2.34-.86,3.06,3.06,0,0,0-3,1.64,5.78,5.78,0,0,0-.49,2.43h-2.15a7.66,7.66,0,0,1,.81-3.57c.92-1.62,2.53-2.44,4.84-2.44a5,5,0,0,1,5.55,5,4.77,4.77,0,0,1-1.42,3.45,14.31,14.31,0,0,1-2.94,2l-1.61.89a10.31,10.31,0,0,0-1.8,1.21,4.38,4.38,0,0,0-1.48,2.26H757v2H745.44A9.82,9.82,0,0,1,746.34,576.8Z" transform="translate(0 0.42)"/><path class="cls-6" d="M769.25,566.47a12,12,0,0,1,1.12,5.69,13.68,13.68,0,0,1-1,5.66,5,5,0,0,1-4.83,3.21,4.85,4.85,0,0,1-4.5-2.63,12,12,0,0,1-1.23-5.88,14.62,14.62,0,0,1,.74-4.91q1.38-3.83,5-3.82A5,5,0,0,1,769.25,566.47Zm-2.13,11.18c.65-1,1-2.77,1-5.41a13.29,13.29,0,0,0-.71-4.7,2.67,2.67,0,0,0-2.73-1.85,2.84,2.84,0,0,0-2.72,1.75,12,12,0,0,0-.86,5.16,12.64,12.64,0,0,0,.55,4.13c.56,1.58,1.52,2.38,2.88,2.38A3,3,0,0,0,767.12,577.65Z" transform="translate(0 0.42)"/><path class="cls-6" d="M773,576.8a7.28,7.28,0,0,1,3-2.92l2.25-1.3a11.3,11.3,0,0,0,2.12-1.5,3.27,3.27,0,0,0,.08-4.55,3.19,3.19,0,0,0-2.34-.86,3,3,0,0,0-3,1.64,5.93,5.93,0,0,0-.5,2.43h-2.14a7.42,7.42,0,0,1,.81-3.57c.91-1.62,2.53-2.44,4.84-2.44a5,5,0,0,1,5.54,5,4.73,4.73,0,0,1-1.42,3.45,13.76,13.76,0,0,1-2.94,2l-1.6.89a10.44,10.44,0,0,0-1.81,1.21,4.36,4.36,0,0,0-1.47,2.26h9.16v2H772.14A9.82,9.82,0,0,1,773,576.8Z" transform="translate(0 0.42)"/><path class="cls-6" d="M792.71,580.57v-4.1h-7.36v-2.06L793,563.74h1.79v10.89h2.47v1.84h-2.47v4.1Zm0-5.94V567l-5.38,7.6Z" transform="translate(0 0.42)"/></svg>