<?xml version="1.0" encoding="utf-8"?>
<!-- Generator: Adobe Illustrator 24.3.0, SVG Export Plug-In . SVG Version: 6.00 Build 0)  -->
<svg version="1.1" id="Layer_1" xmlns="http://www.w3.org/2000/svg" xmlns:xlink="http://www.w3.org/1999/xlink" x="0px" y="0px"
	 viewBox="0 0 424.9 586.3" style="enable-background:new 0 0 424.9 586.3;" xml:space="preserve">
<style type="text/css">
	.st0{fill:none;stroke:#FFFFFF;stroke-miterlimit:10;}
	.st1{fill:#020202;stroke:#FFFFFF;stroke-miterlimit:10;}
	.st2{fill:none;stroke:#FEFEFE;stroke-miterlimit:10;}
	.st3{fill:#FFFFFF;stroke:#000000;stroke-miterlimit:10;}
	.st4{fill:none;stroke:#DA5027;stroke-miterlimit:10;}
	.st5{fill:#BD9660;}
	.st6{fill:#B74226;}
	.st7{stroke:#FFFFFF;stroke-miterlimit:10;}
	.st8{fill:#FFFFFF;}
	.st9{font-family:'Consolas';}
	.st10{font-size:12px;}
	.st11{fill:none;stroke:#BD9660;stroke-miterlimit:10;}
	.st12{font-family:'MyriadPro-Regular';}
	.st13{font-size:18px;}
	.st14{fill:none;stroke:#B74226;stroke-miterlimit:10;}
	.st15{font-family:'Helvetica';}
	.st16{font-size:20px;}
</style>
<rect x="0.5" y="0.5" width="425" height="586"/>
<line class="st0" x1="95.8" y1="82.1" x2="95" y2="224"/>
<path class="st0" d="M95,217.2C4.8,182.3,44.8,104,44.8,104"/>
<path class="st0" d="M95.9,217.1c90.5-35.3,50.3-114.3,50.3-114.3"/>
<path class="st0" d="M74.2,84.5c0,0-20,30.7-11.7,71.3c0,0,10.1,43,32.4,61.2"/>
<path class="st0" d="M113.5,82c0,0,28.8,28.7,12,85.2c0,0-9.6,41.1-31,50.3"/>
<path class="st0" d="M42,107.1c0,0,56.8-25,111.4,3.7"/>
<path class="st0" d="M26,145.5c0,0-1.1-13,69.7-18.5c0,0,47.2-5,70.8,24"/>
<path class="st0" d="M33,185.9c0,0,12.4-25.3,63.6-22.3c0,0,47.6-4.4,63.4,24.4"/>
<path class="st0" d="M62.1,214.3c0,0-12.5-12.4,16.5-17.5c0,0,29.3-1.9,35.7,2.4c0,0,27.6,7.9,11.4,19.2"/>
<path class="st1" d="M107.4,157.8c-1.6-1.6-2.4-1.2-4.5-1.7c-1.6-0.4-3-1.6-4.7-1.8c-1-0.1-1.6,0.2-2.4,0c-0.8-0.2-0.7-0.7-1.6-0.7
	c-1.3,0-3.1,2.7-4.2,1c-0.6-1,1.3-3.6,1.2-4.9c-0.1-1.6-0.7-4.2-2.3-5.1c-0.6-0.3-1.9-0.4-2.6-0.7c-0.9-0.3-1.7-0.9-2.5-1.3
	c-1-0.6-2.9-1.7-3.4-2.9c-1.2,0-2.1-0.7-3.3-0.7c-1.1,0-1.9,0.5-3.1,0.4c-1.1-0.1-2.2-1-3.3-0.8c-0.8,0.1-1.9,1.1-2.6,1.5
	c-1.7,1-3.6,1.7-5.5,2c-3,0.6-3.5-0.6-3.3-3.3l-0.4-0.9c1.1-3.1-0.9-3.3-3.1-4c-0.3-2.2,2.4-3.7,1.3-6.1c-2.3-0.1-4.8,6.3-6.7,3.5
	c-1.3-1.8,0.7-6.9,1.8-8.5c1.1-1.6,5.2-4.4,7.2-4.6c1.5-0.2,2.8,0.5,3.4,1.8c0.6,1.4-0.2,2.8,0,4.4c1.9-0.4,1.4-2.9,1.3-4.2
	c-0.1-2.2,1-2,2.1-3.6c1-1.4,1.2-3.1,2.4-4.5c1-1.1,2.2-2.2,3.2-3.2c1.2-1.1,2.6-1,3.9-1.9c1.9-1.3-0.6-3.6,2.2-3.5
	c1,0.1,0.5,0.7,1.9,0.4c0.6-0.1,1.6-0.7,2.2-0.9c2.7-1.1,0.8-1.4-0.5-2.8c-1.6-1.8,0.7-1.5,2.3-1.8c1.2-0.2,0.9-0.6,2,0.1
	c0.9,0.6,0.4,1.4,1.7,1.4c2.6-0.1,0.8-2.7,0.2-3.5c-1-1.5-1.2-2.5-3.3-2.5c0.2-0.7,0.2-1.5-0.1-2.2c-1.7,0.2-2-1-3.4-1.5
	c-2.2-0.8-1.9,1-2.8,2.2c-0.9,1.3-2.7,1.1-3.4,2.6c-0.7,1.6,0,2.9-2.6,2.4c0.4-1,0.2-2.2,0.2-3.3c-0.8-0.1-1.5-0.3-2.2-0.5
	c0-2.6,2.9-2.8,4.9-3.1c2.2-0.3,2.9-2.5,4.9-2.9c1.8-0.4,3.2,2.6,5.4,0.9c1.3-1,0.7-1.6,0.2-2.5c-0.1-0.2-0.7-0.8-0.9-1
	c-1.5-0.5-2.5-1.7-2.9-3.1c-12.2,2.8-23.2,8.6-32.2,16.6c0,0,0,0.1,0,0.1c0.6,1.3,0.8,2.5,0.5,3.9c0,0.2-0.1,0.3-0.1,0.4
	c0,0,0.1-0.1,0.1-0.1c-0.2,0.7-0.5,1.5-0.9,2.1c-1,1.5-2.7,2.1-3.8,3.6c-1,1.3-1.8,3.3-2.1,4.7c-0.4,1.6-0.2,3.5-0.7,5.1
	c-0.7,2-2,3.2-1.8,5.5c2.8,0.8,1.6-4.1,3.9-4.4c0.7,1.8,0.3,5.3,0,7.3c-0.3,2.8-0.8,3.5,0.8,5.8c1.3,1.9,1.8,3.1,4.3,3.4
	c2.3,0.3,3.3,1.3,4.3,3.6c1.8,0.4,2.9,0.7,3.1,2.7c0.8,0.4,2.2,1.8,3.1,2c1.2,0.3,3.2-1.4,4.3-0.1c1.9,2.2-2.4,7.9-3.1,9.8
	c-1.1,2.9-1.3,7.1,1.5,9.2c1.4,1.1,2.9,1.6,3.4,3.5c0.4,1.8,0.1,3.3,0.9,4.9c1.2,2.6,4.1,3.5,6.1,5.5c2.6,2.6,2.5,6,2.5,9.8
	c0,3.9,1.5,6.9,2,10.4c0.5,3.7,1.6,7.1,2.4,10.6c0.6,2.7,2.9,6.7,6.3,6.2c0.2-1.3-1.1-2.3-1.3-3.5c-0.2-1.1,0.2-2.3-0.1-3.6
	c-0.5-2.4-0.4-3.8,1.2-5.9c0.6-0.7,1.4-1.4,1.9-2.1c1.1-1.4,0.3-1,0.2-2.6c-0.1-2,0.5-1,1.7-1.6c0.6-0.3,1.3-1.3,1.8-1.8
	c1-1.1,2.7-2.4,3.5-3.7c0.9-1.4,0.8-3.5,1.7-4.9c1.1-1.7,2.6-1.7,4.1-2.8c1.9-1.4,1.1-3,1.5-4.9c0.6-3.3,2.1-7,4.2-9.6
	C109.5,163.8,110.6,161,107.4,157.8z"/>
<path class="st1" d="M163.7,171.8c0.1-0.2,0.2-0.4,0.3-0.6c0,0.1-0.1,0.2-0.1,0.3c0.1-0.2,0.3-0.3,0.4-0.5c0.6-0.6,1.4-1,2.2-1.3
	c0.4-0.1,0.9-0.1,1.3-0.2c0.1,0,0.1,0,0.2,0c1.4-5.5,2.1-11.3,2.1-17.3c0-33.5-22.9-61.6-54-69.7c0.7,1.2,0.9,2.6,0.5,3.9
	c0.4,0.5,0.7,0.9,1.1,1.5c0.9,1.3,1.5,2.5,3.2,3c1,0.3,4.1,0.3,2.8,2.5c-1.2,2.1-2.5-0.6-3.1-1.3c-0.8-0.9-3.3-1.9-3.2,0.2
	c0.1,3.1,7,2.6,5.6,5.9c0.8,0.5,2.5,1.3,2.2,2.5c-0.3,1.5-2.3,0.5-2.2,2.4c0.1,2.7,3,4.9,5.8,3.9c2.9-1,0.7-5.1,4.1-5.5
	c1.3-0.2,2.1,0.2,3.3,1.2c1,0.8,1.6,2.5,2.9,2.4c0.1-0.8-0.5-1.4-0.6-2.2c1,0.3,3.1,1.5,3.7,2.4c0.9,1.3,0.8,3.3,3,1.6
	c-0.3-0.3-0.5-0.9-0.7-1.1c2.8,0,4.7,1.2,5.9,3.6c2.7,5.4-3.9,1.1-4.2,3.9c-1.6-0.5-2.3-1.8-3.7-2.6c-0.7-0.4-1.9-0.2-2.4-0.5
	c-0.7-0.5-0.5-1.4-1.1-2c-2.4-2-8,1.2-10.2,2.5c-0.6,0.3-1.3,0.4-1.7,1c-0.7,1.1,0.3,1.4,0.1,2.5c-0.3,1.5-2.3,2.2-2.9,3.4
	c-1.4,2.9,1.5,7,1.1,10.2c-0.2,1.8-2.1,3.7-1.4,5.2c0.3,0.6,1.4,1.2,1.8,1.9c0.4,0.7,0.5,1.6,1.1,2.3c1.6,2.3,4,4.8,5.9,7
	c1.1,1.2,2.6,1.6,4.2,1.2c1.4-0.3,3.4-0.7,4.7-1.3c1.7-0.8,1.9-1.9,3.7-1.2c1.4,0.6,2.6,2.4,4.3,0.9c1.4,1.3-0.1,3.6-0.4,5.1
	c-0.4,1.9,0.4,3.5,1.5,5.1c1.4,1.9,1.7,2.3,1.4,4.8c-0.2,2-0.7,3.8-1.2,5.8c-0.4,1.9-1.6,3.3-1.6,5.3c0.1,1.9,0.9,3.3,0.6,5.3
	c-0.2,1.7-0.3,3.8-0.8,5.5c-0.5,1.8-1.7,3.3-2.2,5.1c-0.5,1.7-0.4,3.9,0.8,5.3c1.2,1.5,2.5,0.6,4-0.5c2.9-2.2,4.2-5.9,6.1-8.8
	c1.9-2.9,3.8-5.5,5.1-8.5C163,172.9,163.3,172.3,163.7,171.8z"/>
<ellipse class="st2" cx="97.8" cy="152.2" rx="72.2" ry="71.8"/>
<g>
	<path class="st2" d="M89.5,84.2c0.1,0,1.4,2.1,1.8,2.8c0.3,0.5,0.8,0.8,1.1,1.4c0.3,0.6-0.4,1.4,0.4,1.8c1.2,0.6,4.7-3.6,5.6-4.2
		c1.1-0.9,1.7-1.3,1.5-2.2c0.1,0,0.2,0,0.3,0c-0.1-0.6,0-1.2,0.1-1.8c0.1-0.6,0.4-1.2,0.8-1.7c-1.1,0-2.2-0.1-3.3-0.1
		c-2.2,0-4.5,0.1-6.7,0.3C91.1,82,90.6,83.3,89.5,84.2z"/>
	<polygon class="st2" points="88,81 91.7,80.5 94,84 89.5,84.2 	"/>
</g>
<path class="st0" d="M33,183c0,0,24.2,36.8,62,33.2"/>
<path class="st0" d="M165,166.8c0,0-21.6,55.8-71,49.8"/>
<path class="st0" d="M95,216c-2.4,4-27,1.6-27,1.6"/>
<path class="st0" d="M138,211c0,0-36.1,14.6-43.1,4.8"/>
<ellipse class="st3" cx="371" cy="210.5" rx="19" ry="19.5"/>
<path class="st4" d="M256.1,124.6"/>
<g>
	<path class="st5" d="M371,210.5c0.9,2.1,2,4.1,3.5,5.8c1.4,1.7,3.3,3.1,5.5,3.8c2.1,0.7,4.5,0.5,6.6-0.1c2.1-0.6,4.2-1.7,5.9-3l0,0
		c1.6-2,2.8-4.3,3.5-6.7c0.7-2.4,0.8-5,0.6-7.5c-0.3-2.5-0.9-5-1.8-7.4c-0.5-1.2-1-2.3-1.6-3.5c-0.3-0.6-0.6-1.1-0.9-1.7l-0.5-0.8
		c-0.1-0.2-0.4-0.5-0.6-0.7c-3.2-3.9-7.4-7.1-12-9c-4.7-2-9.8-2.7-14.8-2.4c-2.5,0.1-5,0.5-7.5,1.1c-0.6,0.2-1.2,0.3-1.8,0.5
		l-1.8,0.7c-0.6,0.2-1.1,0.5-1.7,0.8c-0.6,0.3-1.1,0.5-1.7,0.9c-4.4,2.4-8.2,5.9-10.7,10.2c-2.5,4.3-3.7,9.3-4,14.3
		c-0.2,5,0.4,10.2,1.7,14.9l-0.1-0.1c2.4,4.9,5.6,9.4,9.6,13.1c2,1.8,4.2,3.4,6.6,4.7c2.4,1.2,4.9,2.2,7.5,2.8
		c5.2,1.3,10.8,1.2,16.1,0.3c5.3-0.9,10.6-2.7,15.4-5.2c4.7-2.4,8.3-6.7,10.5-11.5c1.1-2.4,1.9-5,2.3-7.6c0.4-2.6,0.4-5.3,0.2-8
		c-0.3-2.7-0.8-5.3-1.7-7.9c-0.8-2.6-2-5-3.4-7.3c-2.7-4.7-6.3-8.8-10.4-12.4c-4.1-3.6-8.7-6.6-13.6-9c-2.4-1.2-5-2.3-7.5-3.3
		c-2.6-1-5.2-1.9-7.8-2.8c-10.5-3.4-21.5-5.5-32.4-8c-10.9-2.5-21.7-5.2-32.6-7.5c-10.9-2.4-21.8-4.6-32.8-5.8
		c-11-1.3-22.1-1.8-33.2-1.7c-11.1,0.2-22.2,1-33.2,2.5c-5.5,0.7-11,1.6-16.5,2.6c-5.5,1-10.9,2.1-16.4,3.2
		c-10.9,2.3-21.7,4.9-32.5,7.6c-10.8,2.8-21.5,5.8-32.2,9c-5.3,1.6-10.7,3.2-16,4.9L67,178.2l-8,2.6c-2.6,0.9-5.3,1.8-7.9,2.7
		c-5.3,1.7-10.9,3.1-16.6,2.5c-2.8-0.3-5.6-1.2-8-2.5c-2.5-1.4-4.6-3.4-5.9-6c-1.3-2.5-1.5-5.5-1-8.2c0.6-2.7,2.2-5.3,4.7-6.6
		c-2.5,1.4-4,4-4.6,6.7c-0.5,2.7-0.2,5.6,1.1,8c1.3,2.5,3.4,4.4,5.8,5.7c2.4,1.3,5.1,2.1,7.9,2.3c5.5,0.5,11-0.9,16.2-2.7
		c2.6-0.9,5.2-1.9,7.9-2.8l7.9-2.7l15.9-5.4c5.3-1.7,10.6-3.4,16-5c10.7-3.3,21.4-6.4,32.2-9.3c10.8-2.9,21.6-5.6,32.6-8
		c10.9-2.4,21.9-4.7,33-6.2c11.1-1.6,22.3-2.4,33.5-2.6c11.2-0.2,22.4,0.3,33.6,1.6c11.2,1.2,22.2,3.4,33.1,5.8
		c10.9,2.4,21.8,5,32.7,7.4c10.8,2.5,21.8,4.7,32.6,8.2c2.7,0.9,5.3,1.8,8,2.9c2.6,1,5.2,2.2,7.8,3.5c5.1,2.6,9.9,5.7,14.2,9.5
		c4.3,3.8,8.1,8.2,10.9,13.2c1.4,2.5,2.7,5.1,3.6,7.9c0.9,2.7,1.5,5.6,1.8,8.5c0.3,2.9,0.2,5.8-0.2,8.7c-0.4,2.9-1.3,5.7-2.5,8.3
		c-1.2,2.7-2.9,5.1-4.8,7.3c-2,2.2-4.3,4-6.9,5.4c-5.1,2.6-10.6,4.4-16.2,5.4c-5.6,1-11.5,1-17.1-0.4c-2.8-0.7-5.5-1.8-8.1-3.1
		c-2.5-1.4-4.8-3.2-7-5.1c-4.2-4-7.4-8.8-9.9-13.9l0-0.1l0-0.1c-1.4-5.1-2-10.4-1.7-15.7c0.3-5.2,1.6-10.5,4.4-15.1
		c2.7-4.6,6.8-8.3,11.4-10.8c0.6-0.3,1.2-0.6,1.8-0.9c0.6-0.3,1.2-0.6,1.8-0.8l1.8-0.7c0.7-0.3,1.3-0.4,1.9-0.6
		c2.6-0.6,5.2-0.9,7.8-1c5.2-0.2,10.6,0.7,15.4,2.8c4.8,2.1,9.1,5.4,12.3,9.5c0.2,0.3,0.4,0.5,0.6,0.8c0.2,0.3,0.3,0.6,0.5,0.8
		c0.3,0.6,0.6,1.1,0.9,1.7c0.6,1.2,1.1,2.4,1.5,3.6c0.9,2.4,1.5,5,1.8,7.6c0.2,2.6,0,5.3-0.7,7.8c-0.7,2.5-2,4.8-3.7,6.9l0,0l0,0
		c-1.9,1.4-3.9,2.4-6.2,3c-2.2,0.6-4.6,0.7-6.8,0c-2.2-0.7-4.1-2.2-5.5-3.9C372.9,214.6,371.9,212.6,371,210.5z"/>
</g>
<g>
	<path class="st6" d="M29.9,119.3c-4.1,1.2-7.9,3.2-11.4,5.6c-3.4,2.4-6.5,5.4-8.9,8.9c-2.4,3.4-4,7.3-4.6,11.4
		c-0.6,4,0,8.2,1.6,11.9l0-0.1c2,3.8,5,7.1,8.5,9.6c3.5,2.6,7.5,4.5,11.6,5.8c2.1,0.6,4.2,1.1,6.3,1.5c2.2,0.3,4.4,0.6,6.7,0.9
		c4.5,0.6,8.9,0.9,13.4,1.3c8.9,0.6,17.9,0.8,26.8,0c8.9-0.7,17.7-2.2,26.3-4.6c2.2-0.6,4.3-1.4,6.4-2l6.6-1.9
		c4.4-1.2,8.7-2.4,13-3.7c8.6-2.6,17-5.7,24.8-10c3.8-2.2,7.5-4.7,10.8-7.6c0.4-0.3,0.8-0.7,1.2-1.1l1.2-1.2
		c0.8-0.8,1.6-1.5,2.3-2.4l2.2-2.5c0.7-0.9,1.3-1.8,1.9-2.7l1-1.4c0.3-0.5,0.5-0.9,0.8-1.4c0.5-1,1-2,1.3-3c0.8-2,1.3-4.2,1.5-6.3
		c0.1-2.1-0.1-4.3-1-6.3c-0.8-2-2.2-3.7-4-5.1l0,0c-2.4-1.5-5-2.8-7.8-3c-1.4-0.1-2.8,0.1-4.1,0.8c-1.3,0.6-2.3,1.6-3.3,2.7
		c0.8-1.2,1.8-2.2,3.1-3c1.3-0.8,2.8-1.1,4.2-1.1c1.5,0,2.9,0.4,4.3,0.9c1.4,0.5,2.7,1.2,4,1.9l0,0l0,0c1.9,1.4,3.5,3.2,4.6,5.3
		c1,2.2,1.5,4.6,1.4,6.9c0,2.4-0.5,4.7-1.3,6.9c-0.4,1.1-0.8,2.2-1.3,3.3c-0.3,0.5-0.5,1.1-0.8,1.6l-0.9,1.5c-0.6,1-1.3,2-1.9,2.9
		l-2.2,2.7c-0.7,0.9-1.5,1.8-2.3,2.6c-0.8,0.8-1.6,1.7-2.4,2.5c-3.4,3.2-7.2,5.8-11.1,8.3c-4,2.3-8.1,4.4-12.3,6.1
		c-4.2,1.7-8.5,3.3-12.9,4.7c-4.3,1.4-8.7,2.7-13,3.9l-6.5,1.9c-2.2,0.6-4.3,1.4-6.5,2c-2.2,0.6-4.4,1.3-6.7,1.7
		c-2.2,0.6-4.5,1-6.7,1.4c-4.5,0.8-9.1,1.3-13.7,1.6c-9.1,0.7-18.3,0.5-27.4-0.2c-4.5-0.4-9.1-0.9-13.6-1.5c-2.3-0.3-4.5-0.6-6.8-1
		c-2.3-0.4-4.6-1-6.8-1.8c-4.4-1.5-8.7-3.7-12.4-6.6c-3.7-2.9-6.9-6.6-9-10.8l0-0.1l0,0c-1.6-4.2-2.1-8.8-1.3-13.2
		c0.8-4.4,2.9-8.4,5.5-11.9c2.7-3.5,5.9-6.4,9.6-8.7C21.7,121.9,25.8,120.2,29.9,119.3z"/>
</g>
<g>
	<path class="st6" d="M371.3,210.7c-2.4-2.4-3.8-5.8-4.1-9.2c-0.3-3.5,0.4-7,1.9-10.1l0,0l0,0c0.7-1.2,1.6-2.3,2.6-3.3
		c1-1,2.2-1.8,3.6-2.3c2.6-1.1,5.6-1.3,8.4-0.9l0,0l0.1,0c4,1,7.7,2.8,11.1,5.1c3.4,2.3,6.3,5.2,8.8,8.5c2.4,3.3,4.3,7.1,5.2,11.2
		c0.9,4.1,0.6,8.6-0.9,12.5l0-0.1c-1.3,4.2-3.4,8.2-6,11.7c-2.7,3.5-5.9,6.5-9.4,9.1c-7.1,5.1-15.2,8.5-23.6,10.6l-0.1,0l-0.1,0
		c-6.2,0.7-12.4,0.5-18.6-0.7c-3.1-0.6-6.1-1.4-9-2.6l-4.2-1.8l-4.2-1.8c-11.1-5-21.7-10.7-32.2-16.8c-5.2-3-10.4-6.1-15.5-9.3
		l-15.4-9.5c-1.3-0.8-2.6-1.5-3.9-2.4l-3.8-2.6l-7.4-5.2c-4.9-3.4-9.8-6.8-14.9-10l-0.1,0l0,0c-5-3.7-10-7.4-15-11.1l-14.8-11.3
		L195.1,157c-4.9-3.8-9.9-7.5-14.8-11.2l0,0c-2-1-4-2.1-6.1-3.1c-2-1-4.1-1.9-6.3-2.7c4.4,1.3,8.5,3.2,12.6,5.2l0,0l0,0
		c5.1,3.5,10.2,7.1,15.3,10.6c5.1,3.6,10.1,7.2,15.2,10.8c10.1,7.3,20.1,14.5,30.3,21.6l-0.1-0.1c5.2,3.1,10.3,6.4,15.3,9.8l7.5,5.1
		l3.7,2.5c1.2,0.8,2.6,1.5,3.8,2.3c10.3,6.1,20.6,12.4,31,18.4c10.4,6,21,11.6,31.8,16.6l4.1,1.8l4.1,1.7c2.7,1.1,5.5,1.9,8.3,2.5
		c5.7,1.2,11.6,1.3,17.4,0.8l-0.2,0c8-1.8,15.8-5,22.4-9.7c3.3-2.4,6.3-5.1,8.9-8.3c2.5-3.2,4.5-6.8,5.7-10.6l0-0.1l0,0
		c1.4-3.4,1.7-7.2,1-10.9c-0.7-3.7-2.3-7.2-4.5-10.4c-2.2-3.1-4.9-5.9-8.1-8.2c-3.1-2.3-6.6-4.1-10.3-5.2l0.1,0
		c-2.6-0.5-5.2-0.4-7.6,0.5c-2.4,0.9-4.4,2.7-5.8,5l0,0c-1.5,2.9-2.3,6.3-2.2,9.7C367.9,204.7,369,208.1,371.3,210.7z"/>
</g>
<circle cx="177.5" cy="116.5" r="6.5"/>
<circle cx="19.5" cy="183.5" r="6.5"/>
<circle cx="229.5" cy="141.5" r="6.5"/>
<circle cx="337.5" cy="220.5" r="6.5"/>
<circle class="st7" cx="373.5" cy="208.5" r="9.5"/>
<circle cx="366.5" cy="253.5" r="6.5"/>
<circle cx="203.5" cy="159.5" r="6.5"/>
<circle cx="10.5" cy="161.5" r="6.5"/>
<g>
	<text transform="matrix(1 0 0 1 16.2021 187.3338)" class="st8 st9 st10">1</text>
</g>
<g>
	<text transform="matrix(1 0 0 1 226.3872 145.2221)" class="st8 st9 st10">2</text>
</g>
<text transform="matrix(1 0 0 1 334.3872 224.2221)" class="st8 st9 st10">3</text>
<text transform="matrix(1 0 0 1 369.2656 212.6742)" class="st8 st9 st10">4</text>
<text transform="matrix(1 0 0 1 363.3086 256.8021)" class="st8 st9 st10">5</text>
<g>
	<text transform="matrix(1 0 0 1 200.585 163.5042)" class="st8 st9 st10">6</text>
</g>
<g>
	<text transform="matrix(1 0 0 1 6.9468 165.1634)" class="st8 st9 st10">7</text>
</g>
<g>
	<text transform="matrix(1 0 0 1 174.1172 120.6532)" class="st8 st9 st10">8</text>
</g>
<g>
	<g>
		<path class="st11" d="M154.4,374.2c-0.6-0.7-1-1.2-1.6-1.9c-0.1,0.9,0,1.8-0.3,1.9c-1.1,0.6-1.7,2.1-3.5,1.9
			c-0.8-0.1-1.6,0.7-2.5,1.1c-0.4,0.1-0.8,0.1-1.5,0.1c-0.5,0.5-0.5,1.2,0.3,2c0.1,0.1,0.2,0.5,0.1,0.6c-0.2,0.1-0.5,0.1-0.7,0.2
			c-0.2,0-0.4,0.1-0.6,0.1c-0.4-0.9-2-1.8-0.1-3.3c-1,0.1-1.7,0.3-2.2,0.2c-0.6-0.1-1.1-0.6-1.7-0.9c-0.1,0.1-0.4,0.5-0.5,0.5
			c-1-0.1-2-0.2-3-0.5c-0.5-0.1-0.9-0.5-1.3-0.8c-0.5-0.5-0.9-1-0.3-1.7c0.1-0.1,0.2-0.4,0.2-0.6c0-0.1-0.3-0.2-0.5-0.2
			c-1.1-0.1-2.3,0-3-1.1c-0.3-0.4-1.7,0.1-1.9,0.7c-0.1,0.2-0.1,0.6-0.3,0.6c-1.3,0.2-2.5,0.4-3.8,0.7c0-0.1-0.1-0.2-0.1-0.3
			c-0.2,0.2-0.4,0.5-0.4,0.6c-0.5-0.1-1.1-0.4-1.2-0.3c-0.7,0.9-2.8,0.3-2.5,2.2c0.1,0.6,0.2,1.2,0.3,1.8c-1.4,0.3-1.5,0.2-1.5-1.3
			c-0.7,0.2-1.4,0.4-2,0.5c-1.3,0.3-1.3,0.3-1.3-1c0-0.1-0.1-0.3-0.1-0.4c-0.7,0-1.3-0.1-1.9-0.1c0.4-0.8,0.8-1.5,1.1-2.2
			c0.3-0.6-0.1-0.9-0.7-1c-1.1-0.1-1.5-0.5-1.6-1.4c-0.5-0.4-0.8-0.8-1.4-1.3c-0.3,0.1-0.9,0.3-1.3,0.4c-0.4-0.6-0.9-1.3-1.3-1.9
			c-0.4-0.6,0.2-1.8,0.8-2c0.2-0.6,0.3-1.1,0.5-1.4c1-1.2,0.7-2.5,0.5-3.8c-0.2-1.5-1.5-2.2-2.2-3.4c-0.1-0.2-0.8,0-1.1-0.1
			c-1-0.2-1.9-0.5-2.9-0.7c0.4-1.4,0.2-1.9-1-2.1c0.1-0.3,0.2-0.7,0.2-1c-1.3-0.8-2-0.6-2.5,0.7c-0.8-0.2-1.6-0.3-2.7-0.6
			c-0.1,0.2-0.4,0.6-0.7,1c-0.1,0.2-0.3,0.6-0.5,0.6c-1.6-0.1-2.2,1.4-3.3,2.1c-0.7,0.4-1.3,0.8-2.1,1.1c-0.6,0.2-0.6,0.9-0.1,1.4
			c0.3,0.3,0.5,0.7,0.5,1.1c0,0.2-0.6,0.5-0.9,0.5c-0.8,0.1-1.6,0-2.4,0.1c-0.2,0-0.5,0-0.6,0.2c-0.6,0.8-1.3,0.6-2,0.1
			c-0.2-0.1-0.6-0.2-0.9-0.2c-1,0-1.3-0.4-1.4-1.4c0-0.7-0.4-1.4-0.7-2c-0.4,0.1-1.1,0.3-1.2,0.4c-0.1,0.8,0.1,1.5,0.1,2.3
			c0,0.5,0.2,1.4-0.1,1.6c-0.4,0.3-1.2,0.2-1.8,0.3c-1.8,0.2-3.2-1.4-5.1-0.8c-0.7,0.2-1.8-0.1-2.1-1c-0.3-0.8-0.9-0.9-1.4-0.8
			c-2.2,0.5-4.1-0.5-6.1-1.1c-0.1,0-0.3-0.1-0.4-0.2c-1.1-1.7-3-2-4.6-2.8c-0.2-0.1-0.4-0.7-0.3-1c0.2-1.1,0.7-2.1,0.8-3.2
			c0.2-1.4-2.4-3.1-3.7-2.7c-0.2,0.1-0.6-0.1-0.7-0.2c-0.4-1-0.7-2-1.1-3c-0.4-0.9-0.9-1.8-1.9-2.2c-0.4-0.2-0.6-0.4-1-0.6
			c-0.3-0.2-0.6-0.3-0.9-0.3c-0.4-0.1-0.9,0-1.3-0.2c-0.9-0.5-2-0.2-3,0.8c-0.4,0.4-0.7,0.9-0.9,1.2c-0.5-0.1-1-0.1-1.4-0.2
			c-0.4-0.1-0.9-0.3-1.3-0.5c-0.5-0.2-1-0.6-1.5-0.8c-0.9-0.3-1.5-0.8-1.7-1.8c-0.2-0.8-0.4-1.7-0.8-2.4c-0.4-0.9,0.2-1.4,0.6-1.9
			c0.5-0.6,0.9-0.8-0.1-1.3c-0.7-0.4-1.3-1.2-2-1.8c-0.2-0.2-0.5-0.2-0.8-0.3c-0.3-0.1-0.8-0.1-0.8-0.3c-0.1-0.4-0.1-1,0.2-1.2
			c0.8-0.6,1.3-1.5,2.5-1.6c1.5,0,1.8-1.4,2.2-2.4c0-0.1-0.1-0.2-0.1-0.2c-1.4,0.5-3.1-0.4-4.4,0.7c-0.7,0.6-1.3,1.2-2,1.7
			c-0.4,0.3-1.1,0.6-1.3,0.5c-0.4-0.3-0.6-0.9-0.8-1.5c-0.1-0.4,0-0.9-0.1-1.3c-0.1-0.3-0.3-0.7-0.4-1c-0.1-0.3-0.3-0.6-0.3-0.8
			c0.2-0.9-0.5-1.1-1-1.2c-0.7-0.2-0.8,0.4-0.9,0.9c-0.1,0.6-0.3,1.2-0.6,1.7c-0.1,0.2-0.5,0.5-0.8,0.5c-1,0-1.2,0.2-1.1,1.1
			c-0.1,0-0.1,0.1-0.2,0.1c-1-0.5-1.8-0.2-2.8,0.5c-1,0.6-1.7,0.1-1.5-1.1c0.1-0.8,0.4-1.5,0.7-2.2c0.2-0.5,0.3-0.9-0.2-1.3
			c-0.2-0.2-0.5-0.6-0.4-0.8c0.5-1.4-0.3-1.2-1.2-0.9c-0.2-0.2-0.4-0.4-0.5-0.7c-0.5-0.9-0.1-1.5,0.9-1.4c1.2,0.1,1.6-0.7,2.1-1.5
			c0.1-0.2,0.4-0.3,0.6-0.4c0.5-0.2,0.9-0.4,1.5-0.6c-0.2-0.3-0.3-0.4-0.4-0.5c-1-0.5-0.7-0.9,0.1-1.2c0.7-0.3,1.4-0.7,2.2-1.2
			c0.6,1.1,1.6,0.7,2.6,0.6c0.4,0,0.8-0.4,1-0.8c0.1-0.2-0.2-0.7-0.5-0.9c-0.3-0.3-0.7-0.5-1.1-0.8c-0.2,1.3-0.7,1.6-1.6,0.7
			c-0.4-0.3-1-0.4-1.6-0.6c0.2-0.3,0.3-0.5,0.4-0.8c0.4-0.9,0.9-1.7,1.1-2.6c0.3-1.1,0.9-0.7,1.5-0.6c1.5,0.2,3.1,0.3,4.8,0.4
			c-0.1-0.9-0.1-1.5-0.2-2.4c1.2,0.1,2.2,0.2,3.3,0.4c1.1,0.2,2.1,0.6,3.3,0c0.7-0.4,1.7-0.4,2.6-0.3c1.6,0.1,3.3,0.3,4.9,0.5
			c0.4,0.1,0.7,0.4,1.1,0.6c0.4,0.3,0.8,0.6,1.2,0.8c0.5,0.2,0.9,0.1,1-0.6c0.2-0.8,0.6-1.6,0.7-2.4c0.1-0.4-0.2-0.9-0.5-1.3
			c-0.7-1.3-1.4-2.5-1.3-4.2c-0.2,0-0.5,0-0.8-0.1c-0.3-0.1-0.5-0.3-0.8-0.5c0.3-0.2,0.5-0.6,0.8-0.7c0.8-0.2,1.6-0.3,2.4-0.4
			c0.6-0.1,1.3,0,1.9-0.1c0.5-0.1,0.9-0.5,1.3-0.8c-0.1-0.1-0.3-0.1-0.4-0.2c-0.1-0.6-0.4-1.2-0.4-1.7c0.1-1.4,0.4-2.8,0.6-4.1
			c0.1-0.7,0.5-0.7,1-0.6c1.2,0.2,2.5,0.5,3.7,0.4c0.7-0.1,1.4-0.8,1.9-1.4c0.2-0.2-0.2-0.8-0.3-1.3c-0.2-0.6-0.3-1.2-0.5-1.8
			c-0.1-0.6,0.2-1,0.8-1.3c0.3-0.2,0.5-0.7,0.8-1.1c0.6-0.7,1.2-1.3,1.8-1.9c0.1-0.1,0.7,0.2,0.8,0.4c0.5,1.9,2.5,2.6,3.3,4.2
			c0.1,0.1,0.2,0.1,0.4,0.2c0.6-0.7,1.1-1.3,1.9-0.3c0.1,0.1,0.4,0.2,0.6,0.2c1.3-0.3,2.1,0.2,2.6,1.5c0.3,0.7,0.8,1.2,1.2,1.8
			c0.3,0.6,0.5,1.2,0.7,1.8c0.1,0.3,0.2,0.6,0.2,0.9c0,0.3,0,0.6-0.1,0.8c-0.6,1-0.3,2.2,0.8,2.6c1.5,0.5,3.1,0.9,4.8,0.4
			c0.6-0.2,1.3,0,1.9,0.3c1,0.4,1.9,1,2.9,1.4c0.6,0.3,1.2,0.4,1.7,0.7c0.6,0.4,1.3,0.9,1.7,1.5c0.8,1.2,1.4,2.5,2.1,3.7
			c0.1,0.2,0.4,0.4,0.7,0.5c2.5,0,4.9,0,7.4-0.1c0.5,0,1-0.4,1.6-0.6c0.4-0.1,0.7-0.1,1.1-0.2c0.4,0,0.9-0.1,1.3,0
			c1.3,0.1,2.5,0.2,3.7,1c1.5,1,3.3,1.4,5.1,2c0.5,0.2,1.2-0.2,1.8-0.3c0.7,1.1,1.4,1.2,2.4,0.2c2.1-2.2,4.8-2.7,7.6-3.4
			c0.7-0.2,1.3-0.5,2-0.7c0.2-0.1,0.4-0.3,0.7-0.3c3-0.3,3-3.4,5.1-4.8c-0.7-0.4-1.1-0.7-1.5-0.9c-1-0.4-1.2-1.2-1.2-2.2
			c-0.1-1.4,1.7-2.3,3-1.8c0.8,0.3,1.6,0.7,2.5,1.1c0.8-0.9,1.5-1.8,2.3-2.7c0.1-0.1,0.4-0.3,0.5-0.3c1.2,0.4,1.8-0.6,2.8-0.9
			c0.2-0.1,0.4-0.4,0.4-0.7c0.1-0.9,0.4-1.6,1.3-2.2c0.9-0.6,2-0.8,2.8-1.8c0.4-0.4,1.7-0.1,2.7-0.1c0.7-1.2,0.6-1.7-0.5-2.7
			c-0.9-0.8-1.5-1.7-2.4-2.4c-0.4-0.4-1.1-0.6-1.7-0.6c-0.7,0-1,0.5-0.9,1.3c0,0.3-0.3,0.6-0.4,1c-1.2-0.6-2.3-1-3.5-0.2
			c-0.6,0.4-1.9-0.5-1.9-1.4c0.1-1.2,0.2-2.5,0.4-3.7c0.2-1.2,0.3-2.5,0.5-3.8c0.6,0,1.2-0.1,1.6,0.2c0.9,0.5,1.4,0,2-0.6
			c0.4-0.4,1-0.6,1.5-0.9c0.3-0.2,0.7-0.6,0.9-0.9c0.1-0.1-0.4-0.5-0.6-0.8c-0.1-0.2-0.3-0.5-0.3-0.7c0-1.4,0.2-2.8-0.1-4.3
			c-0.1-0.6,0.6-1.5,1-2.2c0.5-0.8,0.1-2.8-0.8-3c-0.4-0.1-0.9,0.2-1.4,0.3c-0.4-1,0.5-2.9,1.5-3.2c1.7-0.5,3.3-1.3,5-1.6
			c0.9-0.2,1.9,0.1,2.8,0.4c0.8,0.2,1.5,0.8,2.4,0.2c0.2-0.1,0.7-0.1,0.9,0.1c0.7,0.5,1.4,1,2,1.6c0.8,0.8,1.6,1.5,2.2,2.4
			c0.8,1.1,1.4,2.3,2.1,3.4c0.5,0.8,1.2,1.5,1.8,2.2c0.2,0.3,0.4,0.6,0.6,1c0.8,1.2,0.9,2.8,2.3,3.5c0.3,0.1,0.6,0.3,0.9,0.3
			c0.8,0,1.5,0.1,2.2,0.4c0.5,0.3,1.2,0.2,1.8,0.2c1.4,0.9,2.3,2.9,4.4,2.1c0.2,0.9,0.8,1.8,0.6,2.5c-0.3,1.3,1,1.5,1.2,2.4
			c0.4-0.1,0.7-0.2,1-0.4c0.9,0.9,2.7,0.5,3.1-0.6c0.5-1.4,1.9-2,3-2.8c0.7-0.5,1.7,0.2,1.8,1.1c0.1,0.5,0.5,1,0.7,1.5
			c0.1,0.4,0.2,1.2,0.1,1.3c-0.8,0.4-0.5,1-0.4,1.6c0.2,1.5,0.2,3.1,0.3,4.6c0,0.4-0.1,0.8-0.1,1.3c-0.1,0.9-0.2,1.8-0.3,2.9
			c-0.7-0.1-1.6-0.4-2.4-0.4c-0.4,0-0.8,0.2-1.1,0.4c-0.4,0.4-0.7,0.9-1.2,1.5c1.6,2.1,1.8,4.8,1.8,7.6c-0.9-0.1-1.6,0.1-0.8,1.3
			c-0.1,0-0.3,0.1-0.4,0.1c-0.5-0.5-1-1-1.7-1.6c-0.1,2.3-1.1,3.8-3.1,4.7c0,0.1,0,0.1,0,0.2c0.3,0.5,0.9,1,0.8,1.4
			c-0.1,0.9-1,0.5-1.5,0.5c-1.1,0-2.2,0-3-1.2c-0.1,0.4-0.2,0.8-0.3,1.1c-0.4,0.9-0.7,1.8-1.2,2.6c-0.6,1.1-1.4,2.1-2.1,3.1
			c-0.3,0.5-0.4,1.1-0.8,1.5c-0.1,0.2-0.5,0.4-0.7,0.4c-1.7,0-3,1-4,2.1c-0.7,0.8-1.3,1.6-2.1,2.2c0,0-0.1,0-0.2,0
			c-0.2-0.2-0.4-0.4-0.7-0.8c0.6-0.3,1.1-0.5,1.7-0.7c0-0.3,0.1-0.7,0.1-1c-0.2,0-0.6,0.1-0.7,0.1c-0.2-0.6-0.5-1-0.5-1.5
			c0.1-0.6,0.4-1.3,0.7-1.9c0.1-0.3,0.3-0.5,0.5-0.7c0.5-0.5,0.3-0.8-0.3-1.2c-0.5-0.3-0.9-0.7-1.4-1.1c-0.1,0.1-0.2,0.2-0.4,0.3
			c-0.4,0.1-1.1-0.1-1.2,0.2c-0.5,0.6-0.9,1.4-1.1,2.1c-0.2,0.7-0.5,1.3-1.3,1.5c-1.2,0.3-1.3,1.3-1.3,2.2c-0.2,1.6-0.3,1.8-1.8,1.7
			c-0.4,0-1.2-0.1-1.3,0.1c-0.3,0.6-0.4,1.3-0.3,1.9c0,0.4,0.5,0.8,0.8,1.1c0.1,0.1,0.4,0.2,0.4,0.3c0.5,1.2,1.5,1.1,2.6,1.1
			c0,0.4,0.1,0.6,0.1,0.9c0.2,1.5,1.2,2.1,2.5,1.5c0.1,0,0.2-0.2,0.3-0.3c0.3-0.6,0.6-1.2,1-1.8c0.3-0.6,1.7-0.6,2.2-0.3
			c0.5,0.3,1.2,0.7,1.8,0.7c0.9,0.1,1.9-0.1,2.8-0.2c-0.1,0.8-0.1,1.5-0.2,2.3c-0.1,0.5-0.3,0.8-0.9,0.3c-0.2-0.1-0.7,0-1,0.1
			c-0.8,0.3-1.5,0.6-2.3,1c0,0,0.1,0.2,0.3,0.4c-0.5,0.3-1.1,0.5-1.4,0.9c-0.2,0.2-0.1,0.7-0.1,1.1c0.1,0,0.2,0.1,0.3,0.1
			c-0.5,0.4-1.4,0.7-1.5,1.2c-0.2,1.1-0.2,2.4,0,3.5c0.1,0.4,1,0.8,1.6,0.9c1.4,0.3,1.9,1.3,2.4,2.4c0.3,0.8,0.5,1.7,1.3,2.3
			c0.2,0.1,0.2,0.4,0.2,0.7c0.3,0.7,0.6,1.2,1.5,1.5c0.8,0.3,1.3,1.2,2,1.8c-0.1,0.1-0.1,0.2-0.2,0.3c-1-0.1-2.1-0.2-3.1-0.3
			c0.8,1.4,3.2,1.4,3.6,3.3c-0.6,0.4-1.3,0.6-1.7,1.1c-0.4,0.7-0.9,0.8-1.7,0.5c0.5,0.9,0.9,1.7,1.9,0.7c0.1-0.1,0.7,0.1,1,0.3
			c0.5,0.3,0.9,0.7,1.5,1.1c-0.5,0.4-1.2,0.9-1.8,1.4c0.1,0.1,0.1,0.2,0.2,0.2c0.6-0.3,1.2-0.6,1.9-1c0.1,0.3,0.2,0.7,0.3,1.1
			c-0.6,0.2-1.3,0.4-1.9,0.6c0,0.1,0,0.2,0.1,0.3c0.3,0,0.6,0.1,1,0.2c-0.2,0.6-0.3,1.1-0.5,1.7c0.1,0.1,0.3,0.2,0.7,0.4
			c-0.1,0.2-0.2,0.5-0.4,0.5c-1.6,0.2-1.6,1.4-1.7,2.6c0,0.3-0.4,0.7-0.7,1.1c-0.1-0.1,0.1,0,0.3,0.2c-0.7,0.1-0.6,1.5-1.8,0.7
			c-0.1,0.2-0.2,0.5-0.3,0.7c0.6,0.1-0.2,1.6,1.1,1.2c-0.4,0.3-0.8,0.5-1.4,0.8c0.3,0.1,0.6,0.2,0.6,0.2c0,0.8,0.1,1.6,0.1,2.4
			c-0.2-0.3-0.4-0.5-0.9-1c-0.1,0.6-0.2,0.9-0.3,1.4c0,0-0.2-0.1-0.6-0.2c0.2,0.4,0.4,0.7,0.6,1.1c-0.3,0-0.5-0.1-0.9-0.1
			c0.2,0.3,0.4,0.6,0.5,0.7c-0.8,0.2-1.6,0.5-2.3,0.7c0,0.1,0,0.2,0,0.3c0.4,0.1,0.7,0.2,1.3,0.3c-0.9,0.6-1.6,1.2-2.5,1.9
			c-1.1-0.1-1.1-0.1-1.5,2c-1.1,0.4-2.1,0.8-3.2,1.2C156.3,372.6,155.2,373.3,154.4,374.2z M162,341.7c0.8,0,2.1-0.4,2.3-0.1
			c0.9,1.2,1.5,0.8,2.4,0c-0.9,0.4-1.9,0.9-2.2-0.7C163.7,341.6,162.5,340.7,162,341.7z"/>
		<path class="st11" d="M172.8,375.3c-0.2-0.2-0.3-0.4-0.5-0.6c-0.3-0.4-0.4-0.9-0.8-1.1c-0.9-0.5-1.1-1.3-1.2-2.1
			c-0.1-1-0.2-2.1,0.1-3c0.6-1.5,1-3.2,2.4-4.2c0.2-0.1,0.4-0.3,0.6-0.2c0.6,0.1,1.2,1.3,1.1,1.9c-0.2,1.6-0.4,3.2-0.6,4.8
			c0,0.4,0,1-0.2,1.2c-0.8,0.9-1,2-0.7,3.2C173.1,375.1,172.9,375.2,172.8,375.3z"/>
		<path class="st11" d="M143.6,386.5c0,0-0.2-0.1-0.4-0.2c-1.6-0.5-2.2-1.2-2.2-2.8c0-0.2,0.1-0.3,0.2-0.5c1.3-1.5,3-2.2,4.9-2
			c0.8,0.1,1.4,0.8,0.9,1.7c-0.3,0.6-0.4,1.3-0.7,1.8c-0.3,0.5-0.9,0.9-1.4,1.3C144.6,386.1,144.2,386.2,143.6,386.5z"/>
	</g>
</g>
<g>
	<text transform="matrix(1 0 0 1 206.2021 296.096)" class="st5 st12 st13">1</text>
</g>
<path class="st14" d="M128.1,502.5c0.1-0.4,0.3-0.7,0.4-1.1c0.2-0.5,0.4-0.7,0.9-0.2c0.2,0.2,0.7,0.2,0.8,0.1c0.9-0.8,1.9-1.3,3.2-1
	c0.4,0.1,0.8-0.2,1.2-0.2c0.1,0,0.3,0,0.4,0c0.9,0.6,2,0.8,3.1,0.6c0.4-0.1,1.1-0.1,1.2-0.4c0.2-0.3,0.1-1,0-1.4
	c-0.5-1.7-2.2-2.6-3-4c-0.7-1.2-2.2-1.3-2.7-2.6c-0.2-0.4-1.2-0.6-1.9-0.6c-1.1,0-2.2,0.2-2.7,1.4c-0.2,0.4-0.5,0.7-0.8,1.1
	c-1-0.7-1.7-1.8-3.2-1.4c-1.1,0.3-2.5-0.4-3.1,1.3c-0.1,0-0.2,0-0.3,0c-0.5-0.8-1-1.6-1.4-2.5c-0.1-0.2,0.2-0.8,0.5-0.9
	c0.6-0.3,0.7-0.6,0.7-1.2c0-0.6,0.2-1.3,0.5-1.8c0.8-1.9,1.6-3.8,2.4-5.7c0.3-0.7,0.6-1.4,0.9-2.1c1.5,0.6,3,1.2,4.6,1.7
	c0.3,0.1,0.7,0,1-0.2c0.9-0.7,1.8-1.6,2.7-2.2c0.5-0.4,1.2-0.6,1.8-0.7c1.6-0.2,1.7-0.3,1.7-1.9c0-0.2,0.1-0.3,0.1-0.5
	c-0.3-0.1-0.6-0.2-0.8-0.3c0.5-1.1,1.1-2.2,1.6-3.4c0.1-0.2,0.1-0.4,0.2-0.6c1.2-1.3,1.4-3.1,2.2-4.6c0.5-0.9,1.4-1.5,2.2-2.2
	c0.9-0.7,1.1-1.9,0.6-2.8c-0.2-0.5,0-1.2,0-1.9c-0.6-0.5-1.2-0.6-2.1-0.4c-1.3,0.3-0.4-0.8-0.7-1c0.9-1,1.8-1.9,2.6-2.8
	c0.6-0.7,1.1-1.4,2.3-1.1c0.5,0.1,1.1-0.3,1.8,0.2c1,0.8,1.2,1.8,0.4,2.7c-0.6,0.7-1.4,1.4-2.1,2c1,0.9,1.9,1.6,2.9,2.3
	c0.2,0.1,0.8,0,1-0.3c0.3-0.3,0.4-0.7,0.6-1.2c1.2,0.2,1.1,2.2,2.8,1.8c-1,0.7-0.7,1.3-0.5,2c0.2,0.9,0.4,1.9,0.6,2.9
	c0.2,0.9,0.7,1.4,1.5,1.7c0.6,0.2,1.2,0.5,1.8,0.7c0.2,0.1,0.7,0,0.8-0.2c0.6-0.9,1.3-0.5,2.1-0.5c0.3,0,0.6-0.1,0.9-0.2
	c0.1,0,0.2-0.2,0.3-0.2c1.6,0.5,1.9-1,2.7-1.8c0.9,0.1,1.6,0.6,2,1.5c0.3,0.7,1,1.3,1.5,1.9c0.5,0.6,0.9,1.1,0,1.8
	c-0.5,0.4-0.8,0.9-0.6,1.6c0.1,0.2-0.1,0.6-0.2,0.8c-1.4,1.6-2.5,3.2-2.4,5.5c0.1,1,0.1,2.1,0,3.1c0,0.6-0.2,1.1-1,0.7
	c-0.2-0.1-0.7,0.2-0.8,0.5c-0.5,1.2-0.9,2.3-1.2,3.5c-0.2,0.9,0,1.9,0,2.8c-0.1,0-0.2,0.1-0.4,0.1c-0.3-0.8-0.6-1.7-1-2.8
	c-0.8,0.8-1.5,1.6-2.3,2.4c-0.5,0.5-1.1,0.9-1.6,1.4c-0.2,0.2-0.3,0.5-0.5,0.7c-0.5,0.4-1.1,0.8-1.6,1.3c-0.7,0.6-1.5,1.3-2.4,2.2
	c0.8,0.7,1.3,1.3,1.9,1.9c0.2,0.3,0.5,0.6,0.7,0.9c0.8,1.2,1.1,1.2,2.1,0.1c0.2,0.1,0.5,0.3,0.9,0.5c0.1,1.1-0.7,1.6-2.6,1.2
	c0.1,0.7,0.1,1.4,0.3,1.9c0.5,1.1,0.4,1.4-0.8,1.5c-0.1,0-0.2,0-0.3,0.1c-0.1,0.8-0.2,1.5-0.3,2.3c-0.1,0-0.2,0.1-0.3,0.1
	c-0.4-0.5-0.8-0.9-1.2-1.4c-0.2,0.2-0.4,0.4-0.6,0.7c-0.6-0.5-1.3-0.9-1.8-1.3c-0.3,0.8-0.5,1.3-0.7,2c0.1,0,0.4,0.2,0.5,0.1
	c0.5-0.1,0.7,0.1,0.8,0.6c0,0.3,0.3,0.6,0.6,0.8c0.7,0.6,0.6,1.4-0.1,1.9c-0.1,0.1-0.3,0.3-0.3,0.4c0.1,1.2-0.1,2.4,0.7,3.5
	c0.3,0.4,0.4,1.1,0.6,1.8c1.2-0.1,2.2-1.1,3.4-1.8c0.7,1.8,1.3,3.6,1.9,5.3c-1,0.8-1,0.9,0.1,1.6c0.2,0.1,0.5,0.5,0.5,0.7
	c-0.1,0.5-0.3,1.1-0.6,1.3c-0.7,0.4-1.4,0.6-1.8,1.4c-0.3,0.5-1.2,0.8-2,0.3c-0.3-0.2-0.7-0.3-1.3-0.6c0.1,0.6,0.2,0.9,0.4,1.4
	c-0.5-0.1-0.9-0.2-1.3-0.3c-0.5-0.2-0.8-0.2-1,0.4c-0.2,0.4-0.6,0.7-1,1.1c-0.7-0.9-1.3-0.7-1.8,0c-0.6,0.8-1.4,0.8-2.2,1.1
	c-1.4,0.6-2.1,2-3.1,3.2c-0.3-1.6-1.1-2.9-2.4-3.9c-0.2,0.1-0.5,0.3-0.8,0.5c-0.2,0.1-0.4,0.6-0.3,0.6c0.7,0.5,0.2,1.2,0.2,1.7
	c0.1,0.6,0.1,1.3,0.2,1.9c0.2,1.1-0.1,1.5-1.2,1.4c-1-0.1-2.1-0.2-3.2-0.3c-0.2-0.6-0.6-1.5-0.9-2.3c0.8-0.2,0.8-0.2,0.4-1.9
	c-0.1,0.1-0.3,0.2-0.4,0.3c-0.5-1.1-1-2.3-1.5-3.3c-0.6,0-0.9,0.1-1.5,0.1c0,0.1-0.2,0.4-0.3,0.5c-0.6,0.1-1.2,0-1.7,0.2
	c-0.6,0.2-1,0.5-0.7,1.3c0.1,0.4-0.1,1-0.4,1.3c-0.5,0.6-1.2,0.5-1.7-0.1c-0.5,0.4-1,0.8-1.5,1.2c-0.2-0.3-0.4-0.5-0.6-0.8
	c-0.8,0.4-1.9,0.6-2.3,1.3c-0.6,1.1-1.4,0.5-2.1,0.7c-0.1-1.1-0.1-2.1-0.2-3.2c-1.4,0-2.7,1.3-2.9,2.5c0,0.5-0.1,0.9-0.7,1.1
	c-0.7,0.3-0.8,1.2-0.3,1.9c-0.2,0.2-0.4,0.4-0.6,0.7c0.4,0.7,0.8,1.3,1.1,1.7c-0.1,0.6-0.2,1.1-0.3,1.6c-0.7,0.3-1.6,0.7-2.5,1
	c-0.2,0.1-0.7,0.1-0.8,0c-0.7-0.9-1.3-0.3-1.7,0.2c-0.5,0.7-0.9,0.8-1.6,0.4c-0.6-0.4-1.1-0.2-1.4,0.4c-0.4,0.8-0.9,1.6-1.3,2.4
	c-0.3,0.7-0.6,0.9-1.4,0.6c-0.4-0.2-0.7-0.2-1,0.4c-0.2,0.5-0.9,0.8-1.3,1.1c-0.1-0.1-0.1-0.1-0.2-0.2c0.1-0.3,0.1-0.5,0.2-0.9
	c-1.2,0.1-1.5,1.1-2.1,1.8c-0.2-0.3-0.4-0.5-0.6-0.8c-0.7,0.7-1.1,0.1-1.7-0.6c0.1,0.6,0.1,0.9,0.1,0.9c-0.9,1-1.7,1.9-2.6,2.8
	c-0.6,0.7-1.4,1.2-2,1.9c-0.5,0.6-1.1,1.3-0.5,2.2c0.1,0.2-0.1,0.6-0.2,0.8c-1.5-0.2-0.6,1-1.2,1.5c-0.8,0.1-1.7,0.1-2.7,0.2
	c-0.1,0-0.4,0-0.4-0.1c-0.3-1.1-1.6-0.7-2-1.3c-1.2-1.6-3.3-1.2-4.7-2.2c0.7-1.2,1.3-2.4,1.9-3.5c0.1-0.3,0-0.7-0.1-1
	c-0.2-0.5-0.4-1-0.6-1.6c-0.6,0.2-1.2,0.4-1.7,0.5c-0.5,0.4-1,0.6-1.1,1c-0.5,1.1-0.9,2.2-1.2,3.4c-0.2,1-0.1,2-0.2,3.1
	c-0.1,0.9-0.7,1.2-1.5,1.2c-0.6,0-1.4,0.1-1.8,0.5c-0.6,0.7-1.3,0.6-2,0.6c-0.3,0-0.7,0-0.8,0.2c-0.5,0.8-1,0.4-1.4,0.1
	c-1-0.7-1.9-1.4-2.8-2.1c-0.5-0.4-0.3-1.4,0.3-1.9c-0.1-0.4-0.2-0.9-0.4-1.4c0.4-0.2,0.8-0.4,1.1-0.7c0.8-0.8,1.5-1.7,2.1-2.6
	c0.1-0.2-0.1-0.6-0.2-0.9c-0.2-0.5-0.4-0.9-0.7-1.5c-1.3,0-2.6,0.4-3.6,1.2c-0.8,0.6-1.6,0.7-2.4,0.3c-0.8-0.4-1.5-0.2-2.2,0.1
	c-0.4,0.2-0.9,0.3-1.4,0.5c0.3,0.4,0.6,0.7,0.9,1.1c-0.4,0.8-1,1.3-1.9,1c-0.9-0.2-1.6-0.7-1.7-1.7c-1.1,0-1.4-0.4-1.6-2.3
	c-1.1,0-1.8-0.6-2.6-1.4c-0.8-0.8-2.2-1.1-3.4-1.6c0.3-0.3,0.8-0.7,1.2-1.2c0.7-0.9,1.4-1.7,2-2.7c0.3-0.6-0.5-1.8-1.1-1.7
	c-1.5,0.2-3,0.5-4.5,0.8c-0.2,0-0.5,0.3-0.6,0.5c-0.6,0.8-1.4,0.9-2.3,0.8c0-0.1-0.1-0.1-0.1-0.2c0.5-1.2,0.5-2.1-0.8-2.9
	c-0.6-0.4-1.1-1.1-1.5-1.7c-0.3-0.4-0.4-0.8,0.1-1.1c0.5-0.3,0.4-0.7,0.2-1.2c-0.9-2-1.8-4-2.7-6.2c1.9,0.2,3.8,0.5,5.6,0.7
	c1.2,0.2,2.3,0.3,3.5,0.5c0.4,0.1,0.9,0.1,1.3,0c1.6-0.8,3.3-0.3,4.9-0.1c1.1,0.2,2.2,0.2,3.2,0.3c0.8,0.1,1.4,0.2,1.8,1
	c0.4,0.8,1,1.2,1.9,1.4c2.1,0.4,4.1,1,6,2c0.6,0.3,1.6,0,2.5-0.1c0.4,0,0.9-0.2,1.4-0.3c0,0.4,0.1,0.8,0.1,1.2
	c0.7,0.1,1.4,0.2,2.1,0.3c0.1,0,0.2-0.1,0.3-0.2c2.4-1.3,4.8-2.9,7.4-3.7c2.7-0.8,5.7-1.3,8.7-1c1.4,0.1,3,0.3,4.3-0.7
	c0.3-0.3,0.8-0.4,1.3-0.5c1.3-0.4,2.4-1.1,3-2.3c0.8-1.5,2.1-2.3,3.6-2.9c0.7-0.3,1.5-0.7,1.9-1.3c0.2-0.3-0.2-1.1-0.5-1.6
	c-0.5-0.8-1.1-1.5-1.7-2.2c-0.1-0.1-0.1-0.3,0-0.4c0.4-1.1,0.8-2.1,1.3-3.2c0.6-1.3,2.7-1.4,3.7-0.4c0.3,0.4,0.9,0.7,1.4,0.8
	c1,0.3,2,0.4,3,0.6c0.1,0,0.3,0,0.5-0.1c1.4-1.1,3.2-1.9,3.9-3.7c0.1-0.2,0.7-0.4,1.1-0.3c1.7,0.2,3.4,0.3,4.7-1.1
	c0.3-0.3,0.7-0.4,1-0.6c0.3-0.2,0.6-0.6,0.6-0.9c0-1.9,1.9-3.7,3.7-3.4C127.4,502.5,127.7,502.5,128.1,502.5z"/>
<g>
	<text transform="matrix(1 0 0 1 205.2021 478.096)" class="st6 st15 st16">8</text>
</g>
<polyline class="st11" points="195.3,367.6 207.9,346.5 293.6,346.5 411,346.5 "/>
<g>
	<g>
		<path class="st5" d="M208.4,305.4c0.6-0.1,1.4-0.2,2.2-0.2c1.5,0,2.6,0.3,3.3,1c0.7,0.7,1.1,1.6,1.1,2.9c0,1.3-0.4,2.4-1.2,3.1
			c-0.8,0.8-2,1.2-3.6,1.2c-0.7,0-1.4,0-1.9-0.1V305.4z M209.4,312.6c0.3,0,0.6,0.1,1.1,0.1c2.2,0,3.4-1.2,3.4-3.4
			c0-1.9-1.1-3.1-3.3-3.1c-0.5,0-0.9,0-1.2,0.1V312.6z"/>
		<path class="st5" d="M217,310.7c0,1.4,0.9,2,2,2c0.8,0,1.2-0.1,1.6-0.3l0.2,0.8c-0.4,0.2-1,0.4-1.9,0.4c-1.8,0-2.9-1.2-2.9-2.9
			s1-3.1,2.7-3.1c1.9,0,2.4,1.7,2.4,2.7c0,0.2,0,0.4,0,0.5H217z M220.1,309.9c0-0.7-0.3-1.7-1.5-1.7c-1.1,0-1.5,1-1.6,1.7H220.1z"/>
		<path class="st5" d="M222.3,312.3c0.3,0.2,0.9,0.4,1.4,0.4c0.8,0,1.1-0.4,1.1-0.9c0-0.5-0.3-0.8-1.1-1.1c-1-0.4-1.5-0.9-1.5-1.6
			c0-0.9,0.8-1.7,2-1.7c0.6,0,1.1,0.2,1.4,0.4l-0.3,0.8c-0.2-0.1-0.6-0.3-1.2-0.3c-0.6,0-1,0.4-1,0.8c0,0.5,0.3,0.7,1.1,1
			c1,0.4,1.5,0.9,1.5,1.8c0,1-0.8,1.7-2.2,1.7c-0.6,0-1.2-0.2-1.6-0.4L222.3,312.3z"/>
		<path class="st5" d="M227.2,309.5c0-0.7,0-1.3,0-1.9h0.9l0,1h0c0.4-0.7,1.1-1.1,2.1-1.1c1.4,0,2.5,1.2,2.5,3
			c0,2.1-1.3,3.1-2.6,3.1c-0.8,0-1.4-0.3-1.8-0.9h0v3.2h-1V309.5z M228.2,311.1c0,0.2,0,0.3,0,0.4c0.2,0.7,0.8,1.2,1.6,1.2
			c1.1,0,1.8-0.9,1.8-2.2c0-1.2-0.6-2.2-1.7-2.2c-0.7,0-1.4,0.5-1.6,1.3c0,0.1-0.1,0.3-0.1,0.4V311.1z"/>
		<path class="st5" d="M234.6,310.7c0,1.4,0.9,2,2,2c0.8,0,1.2-0.1,1.6-0.3l0.2,0.8c-0.4,0.2-1,0.4-1.9,0.4c-1.8,0-2.9-1.2-2.9-2.9
			s1-3.1,2.7-3.1c1.9,0,2.4,1.7,2.4,2.7c0,0.2,0,0.4,0,0.5H234.6z M237.7,309.9c0-0.7-0.3-1.7-1.5-1.7c-1.1,0-1.5,1-1.6,1.7H237.7z"
			/>
		<path class="st5" d="M245,307.6c0,0.4,0,0.9,0,1.6v3.4c0,1.3-0.3,2.1-0.8,2.7c-0.6,0.5-1.4,0.7-2.1,0.7c-0.7,0-1.5-0.2-1.9-0.5
			l0.3-0.8c0.4,0.2,1,0.5,1.7,0.5c1.1,0,1.9-0.6,1.9-2v-0.6h0c-0.3,0.5-0.9,1-1.8,1c-1.4,0-2.5-1.2-2.5-2.8c0-2,1.3-3.1,2.6-3.1
			c1,0,1.6,0.5,1.8,1h0l0-0.9H245z M243.9,309.9c0-0.2,0-0.3-0.1-0.5c-0.2-0.6-0.7-1.1-1.5-1.1c-1,0-1.7,0.9-1.7,2.2
			c0,1.1,0.6,2.1,1.7,2.1c0.6,0,1.2-0.4,1.5-1.1c0.1-0.2,0.1-0.4,0.1-0.6V309.9z"/>
		<path class="st5" d="M252,310.5c0,2.1-1.5,3.1-2.9,3.1c-1.6,0-2.8-1.2-2.8-3c0-1.9,1.3-3.1,2.9-3.1
			C250.8,307.5,252,308.7,252,310.5z M247.4,310.5c0,1.3,0.7,2.2,1.8,2.2c1,0,1.8-0.9,1.8-2.3c0-1-0.5-2.2-1.7-2.2
			C247.9,308.3,247.4,309.4,247.4,310.5z M250.7,305.1l-1.5,1.7h-0.8l1.1-1.7H250.7z"/>
		<path class="st5" d="M256.4,310.7c0,1.4,0.9,2,2,2c0.8,0,1.2-0.1,1.6-0.3l0.2,0.8c-0.4,0.2-1,0.4-1.9,0.4c-1.8,0-2.9-1.2-2.9-2.9
			s1-3.1,2.7-3.1c1.9,0,2.4,1.7,2.4,2.7c0,0.2,0,0.4,0,0.5H256.4z M259.5,309.9c0-0.7-0.3-1.7-1.5-1.7c-1.1,0-1.5,1-1.6,1.7H259.5z"
			/>
		<path class="st5" d="M261.9,304.9h1.1v8.5h-1.1V304.9z"/>
		<path class="st5" d="M266.9,313.4v-0.6l0.8-0.8c2-1.9,2.9-2.9,2.9-4.1c0-0.8-0.4-1.5-1.5-1.5c-0.7,0-1.3,0.4-1.7,0.7l-0.3-0.7
			c0.5-0.5,1.3-0.8,2.2-0.8c1.7,0,2.4,1.2,2.4,2.3c0,1.4-1,2.6-2.7,4.2l-0.6,0.6v0h3.5v0.9H266.9z"/>
		<path class="st5" d="M276.3,313.4v-2.1h-3.6v-0.7l3.5-5h1.1v4.8h1.1v0.8h-1.1v2.1H276.3z M276.3,310.5v-2.6c0-0.4,0-0.8,0-1.2h0
			c-0.2,0.5-0.4,0.8-0.6,1.2l-1.9,2.7v0H276.3z"/>
		<path class="st5" d="M287.1,304.9v7c0,0.5,0,1.1,0,1.5h-0.9l0-1h0c-0.3,0.6-1,1.1-2,1.1c-1.4,0-2.5-1.2-2.5-3
			c0-1.9,1.2-3.1,2.6-3.1c0.9,0,1.5,0.4,1.8,0.9h0v-3.5H287.1z M286,310c0-0.1,0-0.3,0-0.4c-0.2-0.7-0.7-1.2-1.5-1.2
			c-1.1,0-1.7,1-1.7,2.2c0,1.2,0.6,2.1,1.7,2.1c0.7,0,1.4-0.5,1.5-1.3c0-0.1,0-0.3,0-0.5V310z"/>
		<path class="st5" d="M289.4,310.7c0,1.4,0.9,2,2,2c0.8,0,1.2-0.1,1.6-0.3l0.2,0.8c-0.4,0.2-1,0.4-1.9,0.4c-1.8,0-2.9-1.2-2.9-2.9
			s1-3.1,2.7-3.1c1.9,0,2.4,1.7,2.4,2.7c0,0.2,0,0.4,0,0.5H289.4z M292.5,309.9c0-0.7-0.3-1.7-1.5-1.7c-1.1,0-1.5,1-1.6,1.7H292.5z"
			/>
		<path class="st5" d="M297.4,309.2c0-0.6,0-1.1,0-1.6h0.9l0.1,1h0c0.3-0.6,1-1.1,1.9-1.1c0.8,0,2.1,0.5,2.1,2.5v3.5h-1.1v-3.3
			c0-0.9-0.3-1.7-1.3-1.7c-0.7,0-1.2,0.5-1.4,1.1c0,0.1-0.1,0.3-0.1,0.5v3.5h-1.1V309.2z"/>
		<path class="st5" d="M309.3,310.5c0,2.1-1.5,3.1-2.9,3.1c-1.6,0-2.8-1.2-2.8-3c0-1.9,1.3-3.1,2.9-3.1
			C308.2,307.5,309.3,308.7,309.3,310.5z M304.7,310.5c0,1.3,0.7,2.2,1.8,2.2c1,0,1.8-0.9,1.8-2.3c0-1-0.5-2.2-1.7-2.2
			C305.3,308.3,304.7,309.4,304.7,310.5z"/>
		<path class="st5" d="M311,307.6l1.1,3.3c0.2,0.5,0.3,1,0.5,1.5h0c0.1-0.5,0.3-1,0.5-1.5l1.1-3.3h1.1l-2.3,5.8h-1l-2.2-5.8H311z"/>
		<path class="st5" d="M317.5,306c0,0.4-0.3,0.6-0.7,0.6c-0.4,0-0.6-0.3-0.6-0.6c0-0.4,0.3-0.7,0.7-0.7
			C317.3,305.3,317.5,305.6,317.5,306z M316.4,313.4v-5.8h1.1v5.8H316.4z"/>
		<path class="st5" d="M319.7,310.7c0,1.4,0.9,2,2,2c0.8,0,1.2-0.1,1.6-0.3l0.2,0.8c-0.4,0.2-1,0.4-1.9,0.4c-1.8,0-2.9-1.2-2.9-2.9
			s1-3.1,2.7-3.1c1.9,0,2.4,1.7,2.4,2.7c0,0.2,0,0.4,0,0.5H319.7z M322.8,309.9c0-0.7-0.3-1.7-1.5-1.7c-1.1,0-1.5,1-1.6,1.7H322.8z"
			/>
		<path class="st5" d="M325.2,309.2c0-0.6,0-1.1,0-1.6h0.9l0,0.9h0c0.3-0.6,0.9-1.1,1.8-1.1c0.8,0,1.4,0.5,1.6,1.2h0
			c0.2-0.3,0.4-0.6,0.6-0.8c0.3-0.3,0.7-0.4,1.3-0.4c0.8,0,1.9,0.5,1.9,2.5v3.4h-1v-3.3c0-1.1-0.4-1.8-1.3-1.8c-0.6,0-1.1,0.4-1.2,1
			c0,0.1-0.1,0.3-0.1,0.5v3.6h-1v-3.5c0-0.9-0.4-1.6-1.2-1.6c-0.7,0-1.1,0.5-1.3,1.1c-0.1,0.2-0.1,0.3-0.1,0.5v3.5h-1V309.2z"/>
		<path class="st5" d="M335.1,313.4c0-0.4,0-1,0-1.5v-7h1v3.6h0c0.4-0.6,1-1.1,2-1.1c1.4,0,2.5,1.2,2.4,3c0,2.1-1.3,3.1-2.6,3.1
			c-0.8,0-1.5-0.3-1.9-1.1h0l0,1H335.1z M336.2,311.1c0,0.1,0,0.3,0,0.4c0.2,0.7,0.8,1.2,1.6,1.2c1.1,0,1.8-0.9,1.8-2.2
			c0-1.2-0.6-2.2-1.7-2.2c-0.7,0-1.4,0.5-1.6,1.3c0,0.1-0.1,0.3-0.1,0.4V311.1z"/>
		<path class="st5" d="M342,309.4c0-0.7,0-1.3,0-1.8h0.9l0,1.1h0c0.3-0.8,0.9-1.3,1.6-1.3c0.1,0,0.2,0,0.3,0v1c-0.1,0-0.2,0-0.4,0
			c-0.7,0-1.3,0.6-1.4,1.4c0,0.1,0,0.3,0,0.5v3.1h-1V309.4z"/>
		<path class="st5" d="M346.4,310.7c0,1.4,0.9,2,2,2c0.8,0,1.2-0.1,1.6-0.3l0.2,0.8c-0.4,0.2-1,0.4-1.9,0.4c-1.8,0-2.9-1.2-2.9-2.9
			s1-3.1,2.7-3.1c1.9,0,2.4,1.7,2.4,2.7c0,0.2,0,0.4,0,0.5H346.4z M349.5,309.9c0-0.7-0.3-1.7-1.5-1.7c-1.1,0-1.5,1-1.6,1.7H349.5z"
			/>
		<path class="st5" d="M359.4,304.9v7c0,0.5,0,1.1,0,1.5h-0.9l0-1h0c-0.3,0.6-1,1.1-2,1.1c-1.4,0-2.5-1.2-2.5-3
			c0-1.9,1.2-3.1,2.6-3.1c0.9,0,1.5,0.4,1.8,0.9h0v-3.5H359.4z M358.3,310c0-0.1,0-0.3,0-0.4c-0.2-0.7-0.7-1.2-1.5-1.2
			c-1.1,0-1.7,1-1.7,2.2c0,1.2,0.6,2.1,1.7,2.1c0.7,0,1.4-0.5,1.5-1.3c0-0.1,0-0.3,0-0.5V310z"/>
		<path class="st5" d="M361.7,310.7c0,1.4,0.9,2,2,2c0.8,0,1.2-0.1,1.6-0.3l0.2,0.8c-0.4,0.2-1,0.4-1.9,0.4c-1.8,0-2.9-1.2-2.9-2.9
			s1-3.1,2.7-3.1c1.9,0,2.4,1.7,2.4,2.7c0,0.2,0,0.4,0,0.5H361.7z M364.8,309.9c0-0.7-0.3-1.7-1.5-1.7c-1.1,0-1.5,1-1.6,1.7H364.8z"
			/>
		<path class="st5" d="M367.1,304.9h1.1v8.5h-1.1V304.9z"/>
		<path class="st5" d="M372.2,313.4v-0.6l0.8-0.8c2-1.9,2.9-2.9,2.9-4.1c0-0.8-0.4-1.5-1.5-1.5c-0.7,0-1.3,0.4-1.7,0.7l-0.3-0.7
			c0.5-0.5,1.3-0.8,2.2-0.8c1.7,0,2.4,1.2,2.4,2.3c0,1.4-1,2.6-2.7,4.2l-0.6,0.6v0h3.5v0.9H372.2z"/>
		<path class="st5" d="M383.5,309.4c0,2.7-1,4.1-2.7,4.1c-1.5,0-2.6-1.4-2.6-4c0-2.6,1.1-4.1,2.7-4.1
			C382.6,305.5,383.5,306.9,383.5,309.4z M379.3,309.6c0,2,0.6,3.2,1.6,3.2c1.1,0,1.6-1.3,1.6-3.2c0-1.9-0.5-3.2-1.6-3.2
			C380,306.3,379.3,307.4,379.3,309.6z"/>
		<path class="st5" d="M384.5,313.4v-0.6l0.8-0.8c2-1.9,2.9-2.9,2.9-4.1c0-0.8-0.4-1.5-1.5-1.5c-0.7,0-1.3,0.4-1.7,0.7l-0.3-0.7
			c0.5-0.5,1.3-0.8,2.2-0.8c1.7,0,2.4,1.2,2.4,2.3c0,1.4-1,2.6-2.7,4.2l-0.6,0.6v0h3.5v0.9H384.5z"/>
		<path class="st5" d="M395.8,309.4c0,2.7-1,4.1-2.7,4.1c-1.5,0-2.6-1.4-2.6-4c0-2.6,1.1-4.1,2.7-4.1
			C394.9,305.5,395.8,306.9,395.8,309.4z M391.6,309.6c0,2,0.6,3.2,1.6,3.2c1.1,0,1.6-1.3,1.6-3.2c0-1.9-0.5-3.2-1.6-3.2
			C392.3,306.3,391.6,307.4,391.6,309.6z"/>
		<path class="st5" d="M400.3,310.7c0,1.4,0.9,2,2,2c0.8,0,1.2-0.1,1.6-0.3l0.2,0.8c-0.4,0.2-1,0.4-1.9,0.4c-1.8,0-2.9-1.2-2.9-2.9
			s1-3.1,2.7-3.1c1.9,0,2.4,1.7,2.4,2.7c0,0.2,0,0.4,0,0.5H400.3z M403.4,309.9c0-0.7-0.3-1.7-1.5-1.7c-1.1,0-1.5,1-1.6,1.7H403.4z"
			/>
		<path class="st5" d="M405.7,309.2c0-0.6,0-1.1,0-1.6h0.9l0.1,1h0c0.3-0.6,1-1.1,1.9-1.1c0.8,0,2.1,0.5,2.1,2.5v3.5h-1.1v-3.3
			c0-0.9-0.3-1.7-1.3-1.7c-0.7,0-1.2,0.5-1.4,1.1c0,0.1-0.1,0.3-0.1,0.5v3.5h-1.1V309.2z"/>
		<path class="st5" d="M209,325.1c0,1.4,0.9,2,2,2c0.8,0,1.2-0.1,1.6-0.3l0.2,0.8c-0.4,0.2-1,0.4-1.9,0.4c-1.8,0-2.9-1.2-2.9-2.9
			s1-3.1,2.7-3.1c1.9,0,2.4,1.7,2.4,2.7c0,0.2,0,0.4,0,0.5H209z M212,324.3c0-0.7-0.3-1.7-1.5-1.7c-1.1,0-1.5,1-1.6,1.7H212z"/>
		<path class="st5" d="M214.4,319.3h1.1v8.5h-1.1V319.3z"/>
		<path class="st5" d="M225.4,327.5c-0.4,0.2-1.2,0.4-2.1,0.4c-2.3,0-4-1.4-4-4.1c0-2.5,1.7-4.2,4.2-4.2c1,0,1.6,0.2,1.9,0.4
			l-0.3,0.9c-0.4-0.2-1-0.3-1.6-0.3c-1.9,0-3.2,1.2-3.2,3.3c0,2,1.1,3.2,3.1,3.2c0.6,0,1.3-0.1,1.7-0.3L225.4,327.5z"/>
		<path class="st5" d="M227.2,325.1c0,1.4,0.9,2,2,2c0.8,0,1.2-0.1,1.6-0.3l0.2,0.8c-0.4,0.2-1,0.4-1.9,0.4c-1.8,0-2.9-1.2-2.9-2.9
			s1-3.1,2.7-3.1c1.9,0,2.4,1.7,2.4,2.7c0,0.2,0,0.4,0,0.5H227.2z M230.3,324.3c0-0.7-0.3-1.7-1.5-1.7c-1.1,0-1.5,1-1.6,1.7H230.3z"
			/>
		<path class="st5" d="M232.6,323.6c0-0.6,0-1.1,0-1.6h0.9l0.1,1h0c0.3-0.6,1-1.1,1.9-1.1c0.8,0,2.1,0.5,2.1,2.5v3.5h-1.1v-3.3
			c0-0.9-0.3-1.7-1.3-1.7c-0.7,0-1.2,0.5-1.4,1.1c0,0.1-0.1,0.3-0.1,0.5v3.5h-1.1V323.6z"/>
		<path class="st5" d="M240.5,320.3v1.7h1.5v0.8h-1.5v3.1c0,0.7,0.2,1.1,0.8,1.1c0.3,0,0.5,0,0.6-0.1l0,0.8
			c-0.2,0.1-0.5,0.1-0.9,0.1c-0.5,0-0.9-0.2-1.1-0.4c-0.3-0.3-0.4-0.8-0.4-1.5v-3.2h-0.9V322h0.9v-1.4L240.5,320.3z"/>
		<path class="st5" d="M243.2,323.8c0-0.7,0-1.3,0-1.8h0.9l0,1.1h0c0.3-0.8,0.9-1.3,1.6-1.3c0.1,0,0.2,0,0.3,0v1c-0.1,0-0.2,0-0.4,0
			c-0.7,0-1.3,0.6-1.4,1.4c0,0.1,0,0.3,0,0.5v3.1h-1V323.8z"/>
		<path class="st5" d="M252.2,324.9c0,2.1-1.5,3.1-2.9,3.1c-1.6,0-2.8-1.2-2.8-3c0-1.9,1.3-3.1,2.9-3.1
			C251.1,321.9,252.2,323.1,252.2,324.9z M247.6,324.9c0,1.3,0.7,2.2,1.8,2.2c1,0,1.8-0.9,1.8-2.3c0-1-0.5-2.2-1.7-2.2
			C248.2,322.7,247.6,323.8,247.6,324.9z"/>
		<path class="st5" d="M261.1,319.3v7c0,0.5,0,1.1,0,1.5h-0.9l0-1h0c-0.3,0.6-1,1.1-2,1.1c-1.4,0-2.5-1.2-2.5-3
			c0-1.9,1.2-3.1,2.6-3.1c0.9,0,1.5,0.4,1.8,0.9h0v-3.5H261.1z M260.1,324.4c0-0.1,0-0.3,0-0.4c-0.2-0.7-0.7-1.2-1.5-1.2
			c-1.1,0-1.7,1-1.7,2.2c0,1.2,0.6,2.1,1.7,2.1c0.7,0,1.4-0.5,1.5-1.3c0-0.1,0-0.3,0-0.5V324.4z"/>
		<path class="st5" d="M263.5,325.1c0,1.4,0.9,2,2,2c0.8,0,1.2-0.1,1.6-0.3l0.2,0.8c-0.4,0.2-1,0.4-1.9,0.4c-1.8,0-2.9-1.2-2.9-2.9
			s1-3.1,2.7-3.1c1.9,0,2.4,1.7,2.4,2.7c0,0.2,0,0.4,0,0.5H263.5z M266.6,324.3c0-0.7-0.3-1.7-1.5-1.7c-1.1,0-1.5,1-1.6,1.7H266.6z"
			/>
		<path class="st5" d="M271.5,319.7h1v7.2h3.5v0.9h-4.5V319.7z"/>
		<path class="st5" d="M280.3,327.8l-0.1-0.7h0c-0.3,0.5-0.9,0.9-1.8,0.9c-1.2,0-1.8-0.8-1.8-1.7c0-1.4,1.2-2.2,3.5-2.2V324
			c0-0.5-0.1-1.3-1.3-1.3c-0.5,0-1.1,0.2-1.5,0.4l-0.2-0.7c0.5-0.3,1.2-0.5,1.9-0.5c1.8,0,2.2,1.2,2.2,2.4v2.2c0,0.5,0,1,0.1,1.4
			H280.3z M280.2,324.9c-1.2,0-2.5,0.2-2.5,1.3c0,0.7,0.5,1,1,1c0.8,0,1.2-0.5,1.4-1c0-0.1,0.1-0.2,0.1-0.3V324.9z"/>
		<path class="st5" d="M282.9,323.6c0-0.6,0-1.1,0-1.6h0.9l0.1,1h0c0.3-0.6,1-1.1,1.9-1.1c0.8,0,2.1,0.5,2.1,2.5v3.5h-1.1v-3.3
			c0-0.9-0.3-1.7-1.3-1.7c-0.7,0-1.2,0.5-1.4,1.1c0,0.1-0.1,0.3-0.1,0.5v3.5h-1.1V323.6z"/>
		<path class="st5" d="M288.9,327.2l2.6-3.4c0.3-0.3,0.5-0.6,0.8-0.9v0h-3.1V322h4.4l0,0.7l-2.6,3.4c-0.2,0.3-0.5,0.6-0.7,0.9v0h3.4
			v0.8h-4.7V327.2z"/>
		<path class="st5" d="M297.9,327.8l-0.1-0.7h0c-0.3,0.5-0.9,0.9-1.8,0.9c-1.2,0-1.8-0.8-1.8-1.7c0-1.4,1.2-2.2,3.5-2.2V324
			c0-0.5-0.1-1.3-1.3-1.3c-0.5,0-1.1,0.2-1.5,0.4l-0.2-0.7c0.5-0.3,1.2-0.5,1.9-0.5c1.8,0,2.2,1.2,2.2,2.4v2.2c0,0.5,0,1,0.1,1.4
			H297.9z M297.7,324.9c-1.2,0-2.5,0.2-2.5,1.3c0,0.7,0.5,1,1,1c0.8,0,1.2-0.5,1.4-1c0-0.1,0.1-0.2,0.1-0.3V324.9z"/>
		<path class="st5" d="M300.5,323.6c0-0.6,0-1.1,0-1.6h0.9l0,0.9h0c0.3-0.6,0.9-1.1,1.8-1.1c0.8,0,1.4,0.5,1.6,1.2h0
			c0.2-0.3,0.4-0.6,0.6-0.8c0.3-0.3,0.7-0.4,1.3-0.4c0.8,0,1.9,0.5,1.9,2.5v3.4h-1v-3.3c0-1.1-0.4-1.8-1.3-1.8c-0.6,0-1.1,0.4-1.2,1
			c0,0.1-0.1,0.3-0.1,0.5v3.6h-1v-3.5c0-0.9-0.4-1.6-1.2-1.6c-0.7,0-1.1,0.5-1.3,1.1c-0.1,0.2-0.1,0.3-0.1,0.5v3.5h-1V323.6z"/>
		<path class="st5" d="M311.6,320.4c0,0.4-0.3,0.6-0.7,0.6c-0.4,0-0.6-0.3-0.6-0.6c0-0.4,0.3-0.7,0.7-0.7
			C311.4,319.7,311.6,320,311.6,320.4z M310.5,327.8V322h1.1v5.8H310.5z"/>
		<path class="st5" d="M313.9,325.1c0,1.4,0.9,2,2,2c0.8,0,1.2-0.1,1.6-0.3l0.2,0.8c-0.4,0.2-1,0.4-1.9,0.4c-1.8,0-2.9-1.2-2.9-2.9
			s1-3.1,2.7-3.1c1.9,0,2.4,1.7,2.4,2.7c0,0.2,0,0.4,0,0.5H313.9z M317,324.3c0-0.7-0.3-1.7-1.5-1.7c-1.1,0-1.5,1-1.6,1.7H317z"/>
		<path class="st5" d="M319.3,323.6c0-0.6,0-1.1,0-1.6h0.9l0.1,1h0c0.3-0.6,1-1.1,1.9-1.1c0.8,0,2.1,0.5,2.1,2.5v3.5h-1.1v-3.3
			c0-0.9-0.3-1.7-1.3-1.7c-0.7,0-1.2,0.5-1.4,1.1c0,0.1-0.1,0.3-0.1,0.5v3.5h-1.1V323.6z"/>
		<path class="st5" d="M327.2,320.3v1.7h1.5v0.8h-1.5v3.1c0,0.7,0.2,1.1,0.8,1.1c0.3,0,0.5,0,0.6-0.1l0,0.8
			c-0.2,0.1-0.5,0.1-0.9,0.1c-0.5,0-0.9-0.2-1.1-0.4c-0.3-0.3-0.4-0.8-0.4-1.5v-3.2h-0.9V322h0.9v-1.4L327.2,320.3z"/>
		<path class="st5" d="M335.1,324.9c0,2.1-1.5,3.1-2.9,3.1c-1.6,0-2.8-1.2-2.8-3c0-1.9,1.3-3.1,2.9-3.1
			C333.9,321.9,335.1,323.1,335.1,324.9z M330.5,324.9c0,1.3,0.7,2.2,1.8,2.2c1,0,1.8-0.9,1.8-2.3c0-1-0.5-2.2-1.7-2.2
			C331,322.7,330.5,323.8,330.5,324.9z"/>
		<path class="st5" d="M343.9,319.3v7c0,0.5,0,1.1,0,1.5H343l0-1h0c-0.3,0.6-1,1.1-2,1.1c-1.4,0-2.5-1.2-2.5-3
			c0-1.9,1.2-3.1,2.6-3.1c0.9,0,1.5,0.4,1.8,0.9h0v-3.5H343.9z M342.9,324.4c0-0.1,0-0.3,0-0.4c-0.2-0.7-0.7-1.2-1.5-1.2
			c-1.1,0-1.7,1-1.7,2.2c0,1.2,0.6,2.1,1.7,2.1c0.7,0,1.4-0.5,1.5-1.3c0-0.1,0-0.3,0-0.5V324.4z"/>
		<path class="st5" d="M346.3,325.1c0,1.4,0.9,2,2,2c0.8,0,1.2-0.1,1.6-0.3l0.2,0.8c-0.4,0.2-1,0.4-1.9,0.4c-1.8,0-2.9-1.2-2.9-2.9
			s1-3.1,2.7-3.1c1.9,0,2.4,1.7,2.4,2.7c0,0.2,0,0.4,0,0.5H346.3z M349.4,324.3c0-0.7-0.3-1.7-1.5-1.7c-1.1,0-1.5,1-1.6,1.7H349.4z"
			/>
		<path class="st5" d="M354.1,326.5c0.5,0.3,1.2,0.5,1.9,0.5c1.1,0,1.7-0.6,1.7-1.4c0-0.8-0.4-1.2-1.5-1.6c-1.3-0.5-2.1-1.2-2.1-2.3
			c0-1.3,1-2.2,2.6-2.2c0.8,0,1.4,0.2,1.8,0.4l-0.3,0.9c-0.3-0.1-0.8-0.4-1.5-0.4c-1.1,0-1.5,0.7-1.5,1.2c0,0.8,0.5,1.1,1.6,1.6
			c1.4,0.5,2.1,1.2,2.1,2.4c0,1.2-0.9,2.3-2.8,2.3c-0.8,0-1.6-0.2-2.1-0.5L354.1,326.5z"/>
		<path class="st5" d="M363.4,327.8l-0.1-0.7h0c-0.3,0.5-0.9,0.9-1.8,0.9c-1.2,0-1.8-0.8-1.8-1.7c0-1.4,1.2-2.2,3.5-2.2V324
			c0-0.5-0.1-1.3-1.3-1.3c-0.5,0-1.1,0.2-1.5,0.4l-0.2-0.7c0.5-0.3,1.2-0.5,1.9-0.5c1.8,0,2.2,1.2,2.2,2.4v2.2c0,0.5,0,1,0.1,1.4
			H363.4z M363.3,324.9c-1.2,0-2.5,0.2-2.5,1.3c0,0.7,0.5,1,1,1c0.8,0,1.2-0.5,1.4-1c0-0.1,0.1-0.2,0.1-0.3V324.9z"/>
		<path class="st5" d="M367.2,320.3v1.7h1.5v0.8h-1.5v3.1c0,0.7,0.2,1.1,0.8,1.1c0.3,0,0.5,0,0.6-0.1l0,0.8
			c-0.2,0.1-0.5,0.1-0.9,0.1c-0.5,0-0.9-0.2-1.1-0.4c-0.3-0.3-0.4-0.8-0.4-1.5v-3.2h-0.9V322h0.9v-1.4L367.2,320.3z"/>
		<path class="st5" d="M370.4,325.1c0,1.4,0.9,2,2,2c0.8,0,1.2-0.1,1.6-0.3l0.2,0.8c-0.4,0.2-1,0.4-1.9,0.4c-1.8,0-2.9-1.2-2.9-2.9
			s1-3.1,2.7-3.1c1.9,0,2.4,1.7,2.4,2.7c0,0.2,0,0.4,0,0.5H370.4z M373.5,324.3c0-0.7-0.3-1.7-1.5-1.7c-1.1,0-1.5,1-1.6,1.7H373.5z
			 M373.8,319.5l-1.5,1.7h-0.8l1.1-1.7H373.8z"/>
		<path class="st5" d="M375.9,319.3h1.1v8.5h-1.1V319.3z"/>
		<path class="st5" d="M379.9,320.4c0,0.4-0.3,0.6-0.7,0.6c-0.4,0-0.6-0.3-0.6-0.6c0-0.4,0.3-0.7,0.7-0.7
			C379.6,319.7,379.9,320,379.9,320.4z M378.7,327.8V322h1.1v5.8H378.7z"/>
		<path class="st5" d="M382.8,320.3v1.7h1.5v0.8h-1.5v3.1c0,0.7,0.2,1.1,0.8,1.1c0.3,0,0.5,0,0.6-0.1l0,0.8
			c-0.2,0.1-0.5,0.1-0.9,0.1c-0.5,0-0.9-0.2-1.1-0.4c-0.3-0.3-0.4-0.8-0.4-1.5v-3.2h-0.9V322h0.9v-1.4L382.8,320.3z"/>
		<path class="st5" d="M386,325.1c0,1.4,0.9,2,2,2c0.8,0,1.2-0.1,1.6-0.3l0.2,0.8c-0.4,0.2-1,0.4-1.9,0.4c-1.8,0-2.9-1.2-2.9-2.9
			s1-3.1,2.7-3.1c1.9,0,2.4,1.7,2.4,2.7c0,0.2,0,0.4,0,0.5H386z M389.1,324.3c0-0.7-0.3-1.7-1.5-1.7c-1.1,0-1.5,1-1.6,1.7H389.1z"/>
		<path class="st5" d="M391.3,326.7c0.3,0.2,0.9,0.4,1.4,0.4c0.8,0,1.1-0.4,1.1-0.9c0-0.5-0.3-0.8-1.1-1.1c-1-0.4-1.5-0.9-1.5-1.6
			c0-0.9,0.8-1.7,2-1.7c0.6,0,1.1,0.2,1.4,0.4l-0.3,0.8c-0.2-0.1-0.6-0.3-1.2-0.3c-0.6,0-1,0.4-1,0.8c0,0.5,0.3,0.7,1.1,1
			c1,0.4,1.5,0.9,1.5,1.8c0,1-0.8,1.7-2.2,1.7c-0.6,0-1.2-0.2-1.6-0.4L391.3,326.7z"/>
		<path class="st5" d="M403.7,319.3v7c0,0.5,0,1.1,0,1.5h-0.9l0-1h0c-0.3,0.6-1,1.1-2,1.1c-1.4,0-2.5-1.2-2.5-3
			c0-1.9,1.2-3.1,2.6-3.1c0.9,0,1.5,0.4,1.8,0.9h0v-3.5H403.7z M402.7,324.4c0-0.1,0-0.3,0-0.4c-0.2-0.7-0.7-1.2-1.5-1.2
			c-1.1,0-1.7,1-1.7,2.2c0,1.2,0.6,2.1,1.7,2.1c0.7,0,1.4-0.5,1.5-1.3c0-0.1,0-0.3,0-0.5V324.4z"/>
		<path class="st5" d="M406.1,325.1c0,1.4,0.9,2,2,2c0.8,0,1.2-0.1,1.6-0.3l0.2,0.8c-0.4,0.2-1,0.4-1.9,0.4c-1.8,0-2.9-1.2-2.9-2.9
			s1-3.1,2.7-3.1c1.9,0,2.4,1.7,2.4,2.7c0,0.2,0,0.4,0,0.5H406.1z M409.2,324.3c0-0.7-0.3-1.7-1.5-1.7c-1.1,0-1.5,1-1.6,1.7H409.2z"
			/>
		<path class="st5" d="M209.7,342.2l-2.1-8.1h1.1l1,4.1c0.2,1,0.5,2,0.6,2.8h0c0.1-0.8,0.4-1.8,0.7-2.8l1.1-4.1h1.1l1,4.1
			c0.2,1,0.4,1.9,0.6,2.8h0c0.2-0.9,0.4-1.8,0.6-2.8l1.1-4.1h1.1l-2.3,8.1h-1.1l-1-4.2c-0.3-1-0.4-1.8-0.5-2.6h0
			c-0.1,0.8-0.3,1.6-0.6,2.6l-1.2,4.2H209.7z"/>
		<path class="st5" d="M218.7,339.5c0,1.4,0.9,2,2,2c0.8,0,1.2-0.1,1.6-0.3l0.2,0.8c-0.4,0.2-1,0.4-1.9,0.4c-1.8,0-2.9-1.2-2.9-2.9
			s1-3.1,2.7-3.1c1.9,0,2.4,1.7,2.4,2.7c0,0.2,0,0.4,0,0.5H218.7z M221.8,338.7c0-0.7-0.3-1.7-1.5-1.7c-1.1,0-1.5,1-1.6,1.7H221.8z"
			/>
		<path class="st5" d="M224.1,338c0-0.6,0-1.1,0-1.6h0.9l0.1,1h0c0.3-0.6,1-1.1,1.9-1.1c0.8,0,2.1,0.5,2.1,2.5v3.5H228v-3.3
			c0-0.9-0.3-1.7-1.3-1.7c-0.7,0-1.2,0.5-1.4,1.1c0,0.1-0.1,0.3-0.1,0.5v3.5h-1.1V338z"/>
		<path class="st5" d="M234.9,342c-0.3,0.1-0.9,0.3-1.7,0.3c-1.8,0-2.9-1.2-2.9-3c0-1.8,1.2-3.1,3.1-3.1c0.6,0,1.2,0.2,1.5,0.3
			l-0.2,0.8c-0.3-0.1-0.6-0.3-1.2-0.3c-1.3,0-2.1,1-2.1,2.2c0,1.3,0.9,2.2,2,2.2c0.6,0,1-0.2,1.3-0.3L234.9,342z"/>
		<path class="st5" d="M236.2,333.7h1.1v3.6h0c0.2-0.3,0.4-0.6,0.8-0.7c0.3-0.2,0.7-0.3,1.1-0.3c0.8,0,2,0.5,2,2.5v3.5h-1.1v-3.3
			c0-0.9-0.3-1.7-1.3-1.7c-0.7,0-1.2,0.5-1.4,1.1c-0.1,0.1-0.1,0.3-0.1,0.5v3.5h-1.1V333.7z"/>
		<path class="st5" d="M246,342.2l-0.1-0.7h0c-0.3,0.5-0.9,0.9-1.8,0.9c-1.2,0-1.8-0.8-1.8-1.7c0-1.4,1.2-2.2,3.5-2.2v-0.1
			c0-0.5-0.1-1.3-1.3-1.3c-0.5,0-1.1,0.2-1.5,0.4l-0.2-0.7c0.5-0.3,1.2-0.5,1.9-0.5c1.8,0,2.2,1.2,2.2,2.4v2.2c0,0.5,0,1,0.1,1.4
			H246z M245.9,339.3c-1.2,0-2.5,0.2-2.5,1.3c0,0.7,0.5,1,1,1c0.8,0,1.2-0.5,1.4-1c0-0.1,0.1-0.2,0.1-0.3V339.3z"/>
		<path class="st5" d="M248.6,338c0-0.6,0-1.1,0-1.6h0.9l0.1,1h0c0.3-0.6,1-1.1,1.9-1.1c0.8,0,2.1,0.5,2.1,2.5v3.5h-1.1v-3.3
			c0-0.9-0.3-1.7-1.3-1.7c-0.7,0-1.2,0.5-1.4,1.1c0,0.1-0.1,0.3-0.1,0.5v3.5h-1.1V338z"/>
		<path class="st5" d="M260.3,336.4c0,0.4,0,0.9,0,1.6v3.4c0,1.3-0.3,2.1-0.8,2.7c-0.6,0.5-1.4,0.7-2.1,0.7c-0.7,0-1.5-0.2-1.9-0.5
			l0.3-0.8c0.4,0.2,1,0.5,1.7,0.5c1.1,0,1.9-0.6,1.9-2v-0.6h0c-0.3,0.5-0.9,1-1.8,1c-1.4,0-2.5-1.2-2.5-2.8c0-2,1.3-3.1,2.6-3.1
			c1,0,1.6,0.5,1.8,1h0l0-0.9H260.3z M259.2,338.7c0-0.2,0-0.3-0.1-0.5c-0.2-0.6-0.7-1.1-1.5-1.1c-1,0-1.7,0.9-1.7,2.2
			c0,1.1,0.6,2.1,1.7,2.1c0.6,0,1.2-0.4,1.5-1.1c0.1-0.2,0.1-0.4,0.1-0.6V338.7z"/>
	</g>
</g>
<polyline class="st14" points="189.3,538.6 201.9,517.5 287.6,517.5 405,517.5 "/>
<g>
	<path class="st6" d="M207.4,486.8h1.3l3.1,8.6h-1.3l-0.9-2.6h-3.4l-0.9,2.6h-1.2L207.4,486.8z M209.3,491.9l-1.3-3.8l-1.4,3.8
		H209.3z"/>
	<path class="st6" d="M213,487.4h1.1v1.8h1v0.9h-1v4.1c0,0.2,0.1,0.4,0.2,0.4c0.1,0,0.2,0.1,0.4,0.1c0.1,0,0.1,0,0.2,0s0.1,0,0.2,0
		v0.8c-0.1,0-0.2,0.1-0.4,0.1s-0.3,0-0.4,0c-0.5,0-0.8-0.1-1-0.4s-0.3-0.6-0.3-1V490h-0.8v-0.9h0.8V487.4z"/>
	<path class="st6" d="M220,489.3c0.4,0.2,0.7,0.5,1,0.8c0.2,0.3,0.4,0.7,0.4,1.1c0.1,0.3,0.1,0.8,0.1,1.4h-4.6
		c0,0.6,0.2,1.1,0.5,1.5s0.7,0.6,1.3,0.6c0.6,0,1-0.2,1.3-0.5c0.2-0.2,0.3-0.5,0.4-0.7h1c0,0.2-0.1,0.5-0.3,0.8s-0.3,0.5-0.5,0.7
		c-0.3,0.3-0.7,0.5-1.2,0.6c-0.3,0.1-0.5,0.1-0.9,0.1c-0.8,0-1.4-0.3-2-0.9s-0.8-1.4-0.8-2.4c0-1,0.3-1.8,0.8-2.5s1.3-0.9,2.1-0.9
		C219.2,489,219.6,489.1,220,489.3z M220.4,491.8c0-0.5-0.1-0.8-0.3-1.1c-0.3-0.5-0.8-0.8-1.4-0.8c-0.5,0-0.9,0.2-1.2,0.5
		s-0.5,0.8-0.5,1.3H220.4z"/>
	<path class="st6" d="M222.8,489.1h1v1.1c0.1-0.2,0.3-0.5,0.6-0.8s0.7-0.5,1.1-0.5c0,0,0.1,0,0.1,0s0.1,0,0.2,0v1.1
		c-0.1,0-0.1,0-0.2,0s-0.1,0-0.2,0c-0.5,0-0.9,0.2-1.2,0.5s-0.4,0.7-0.4,1.2v3.6h-1.1V489.1z"/>
	<path class="st6" d="M226.8,489.1h1v1.1c0.1-0.2,0.3-0.5,0.6-0.8s0.7-0.5,1.1-0.5c0,0,0.1,0,0.1,0s0.1,0,0.2,0v1.1
		c-0.1,0-0.1,0-0.2,0s-0.1,0-0.2,0c-0.5,0-0.9,0.2-1.2,0.5s-0.4,0.7-0.4,1.2v3.6h-1.1V489.1z"/>
	<path class="st6" d="M230.8,486.8h1.1v1.2h-1.1V486.8z M230.8,489.2h1.1v6.2h-1.1V489.2z"/>
	<path class="st6" d="M233,494.6l3.7-4.5h-3.4v-0.9h4.9v0.9l-3.7,4.5h3.8v0.9H233V494.6z"/>
	<path class="st6" d="M244,489.8c0.6,0.5,0.8,1.3,0.8,2.4c0,1-0.2,1.8-0.7,2.5s-1.3,1-2.3,1c-0.9,0-1.5-0.3-2.1-0.9
		s-0.8-1.4-0.8-2.4c0-1.1,0.3-1.9,0.8-2.5s1.3-0.9,2.2-0.9C242.8,489,243.5,489.2,244,489.8z M243.4,494c0.3-0.5,0.4-1.1,0.4-1.8
		c0-0.6-0.1-1.1-0.3-1.4c-0.3-0.6-0.8-0.9-1.5-0.9c-0.6,0-1.1,0.2-1.4,0.7s-0.4,1.1-0.4,1.8c0,0.7,0.1,1.2,0.4,1.7s0.8,0.7,1.4,0.7
		C242.6,494.7,243.1,494.5,243.4,494z M243.2,486.6l-1.6,1.7h-0.8l1.1-1.7H243.2z"/>
	<path class="st6" d="M253.4,489.3c0.4,0.2,0.7,0.5,1,0.8c0.2,0.3,0.4,0.7,0.4,1.1c0.1,0.3,0.1,0.8,0.1,1.4h-4.6
		c0,0.6,0.2,1.1,0.5,1.5s0.7,0.6,1.3,0.6c0.6,0,1-0.2,1.3-0.5c0.2-0.2,0.3-0.5,0.4-0.7h1c0,0.2-0.1,0.5-0.3,0.8s-0.3,0.5-0.5,0.7
		c-0.3,0.3-0.7,0.5-1.2,0.6c-0.3,0.1-0.5,0.1-0.9,0.1c-0.8,0-1.4-0.3-2-0.9s-0.8-1.4-0.8-2.4c0-1,0.3-1.8,0.8-2.5s1.3-0.9,2.1-0.9
		C252.5,489,252.9,489.1,253.4,489.3z M253.7,491.8c0-0.5-0.1-0.8-0.3-1.1c-0.3-0.5-0.8-0.8-1.4-0.8c-0.5,0-0.9,0.2-1.2,0.5
		s-0.5,0.8-0.5,1.3H253.7z"/>
	<path class="st6" d="M256.2,486.8h1.1v8.6h-1.1V486.8z"/>
	<path class="st6" d="M262.5,489.5v-0.8c0.8-0.1,1.3-0.2,1.6-0.4s0.5-0.6,0.7-1.2h0.8v8.4h-1.1v-5.9H262.5z"/>
	<path class="st6" d="M273.5,487.7c0.4,0.5,0.6,1,0.6,1.5h-1c-0.1-0.3-0.2-0.6-0.3-0.8c-0.3-0.4-0.6-0.5-1.2-0.5
		c-0.6,0-1.1,0.3-1.4,0.8s-0.5,1.3-0.6,2.3c0.2-0.4,0.5-0.6,0.9-0.8c0.3-0.2,0.7-0.2,1.1-0.2c0.7,0,1.3,0.2,1.8,0.7s0.8,1.1,0.8,2
		c0,0.8-0.2,1.4-0.7,2s-1.2,0.9-2.1,0.9c-0.8,0-1.5-0.3-2-0.9s-0.9-1.6-0.9-3c0-1,0.1-1.9,0.4-2.7c0.5-1.4,1.4-2.1,2.7-2.1
		C272.5,487,273.1,487.2,273.5,487.7z M272.7,494.1c0.3-0.4,0.4-0.8,0.4-1.3c0-0.4-0.1-0.8-0.4-1.2s-0.7-0.6-1.3-0.6
		c-0.5,0-0.9,0.2-1.2,0.5s-0.5,0.8-0.5,1.4c0,0.5,0.2,1,0.5,1.3s0.7,0.5,1.3,0.5C272,494.7,272.4,494.5,272.7,494.1z"/>
	<path class="st6" d="M282.3,489.3c0.2,0.1,0.4,0.3,0.6,0.6v-3.2h1v8.6H283v-0.9c-0.2,0.4-0.5,0.7-0.9,0.8s-0.7,0.3-1.2,0.3
		c-0.7,0-1.3-0.3-1.8-0.9s-0.8-1.4-0.8-2.3c0-0.9,0.2-1.7,0.7-2.4s1.1-1,2-1C281.5,489,281.9,489.1,282.3,489.3z M279.9,494
		c0.3,0.5,0.7,0.7,1.4,0.7c0.5,0,0.9-0.2,1.2-0.6s0.5-1,0.5-1.8c0-0.8-0.2-1.4-0.5-1.8s-0.7-0.6-1.2-0.6c-0.5,0-1,0.2-1.3,0.6
		s-0.5,1-0.5,1.8C279.5,493,279.6,493.6,279.9,494z"/>
	<path class="st6" d="M289.4,489.3c0.4,0.2,0.7,0.5,1,0.8c0.2,0.3,0.4,0.7,0.4,1.1c0.1,0.3,0.1,0.8,0.1,1.4h-4.6
		c0,0.6,0.2,1.1,0.5,1.5s0.7,0.6,1.3,0.6c0.6,0,1-0.2,1.3-0.5c0.2-0.2,0.3-0.5,0.4-0.7h1c0,0.2-0.1,0.5-0.3,0.8s-0.3,0.5-0.5,0.7
		c-0.3,0.3-0.7,0.5-1.2,0.6c-0.3,0.1-0.5,0.1-0.9,0.1c-0.8,0-1.4-0.3-2-0.9s-0.8-1.4-0.8-2.4c0-1,0.3-1.8,0.8-2.5s1.3-0.9,2.1-0.9
		C288.5,489,289,489.1,289.4,489.3z M289.8,491.8c0-0.5-0.1-0.8-0.3-1.1c-0.3-0.5-0.8-0.8-1.4-0.8c-0.5,0-0.9,0.2-1.2,0.5
		s-0.5,0.8-0.5,1.3H289.8z"/>
	<path class="st6" d="M299,489.3c0.2,0.1,0.4,0.3,0.6,0.6v-3.2h1v8.6h-0.9v-0.9c-0.2,0.4-0.5,0.7-0.9,0.8s-0.7,0.3-1.2,0.3
		c-0.7,0-1.3-0.3-1.8-0.9s-0.8-1.4-0.8-2.3c0-0.9,0.2-1.7,0.7-2.4s1.1-1,2-1C298.2,489,298.6,489.1,299,489.3z M296.6,494
		c0.3,0.5,0.7,0.7,1.4,0.7c0.5,0,0.9-0.2,1.2-0.6s0.5-1,0.5-1.8c0-0.8-0.2-1.4-0.5-1.8s-0.7-0.6-1.2-0.6c-0.5,0-1,0.2-1.3,0.6
		s-0.5,1-0.5,1.8C296.2,493,296.3,493.6,296.6,494z"/>
	<path class="st6" d="M302.2,486.8h1.1v1.2h-1.1V486.8z M302.2,489.2h1.1v6.2h-1.1V489.2z"/>
	<path class="st6" d="M309,489.5c0.4,0.3,0.7,0.9,0.8,1.8h-1c-0.1-0.4-0.2-0.7-0.4-1s-0.6-0.4-1.1-0.4c-0.7,0-1.2,0.3-1.4,1
		c-0.2,0.4-0.3,1-0.3,1.6c0,0.6,0.1,1.2,0.4,1.6s0.7,0.6,1.3,0.6c0.4,0,0.8-0.1,1-0.4s0.4-0.6,0.5-1.1h1c-0.1,0.8-0.4,1.4-0.9,1.8
		s-1.1,0.6-1.8,0.6c-0.8,0-1.5-0.3-2-0.9s-0.7-1.3-0.7-2.2c0-1.1,0.3-2,0.8-2.6s1.2-0.9,2-0.9C308,489,308.5,489.1,309,489.5z"/>
	<path class="st6" d="M310.8,486.8h1.1v1.2h-1.1V486.8z M310.8,489.2h1.1v6.2h-1.1V489.2z"/>
	<path class="st6" d="M317.4,489.3c0.4,0.2,0.7,0.5,1,0.8c0.2,0.3,0.4,0.7,0.4,1.1c0.1,0.3,0.1,0.8,0.1,1.4h-4.6
		c0,0.6,0.2,1.1,0.5,1.5s0.7,0.6,1.3,0.6c0.6,0,1-0.2,1.3-0.5c0.2-0.2,0.3-0.5,0.4-0.7h1c0,0.2-0.1,0.5-0.3,0.8s-0.3,0.5-0.5,0.7
		c-0.3,0.3-0.7,0.5-1.2,0.6c-0.3,0.1-0.5,0.1-0.9,0.1c-0.8,0-1.4-0.3-2-0.9s-0.8-1.4-0.8-2.4c0-1,0.3-1.8,0.8-2.5s1.3-0.9,2.1-0.9
		C316.6,489,317,489.1,317.4,489.3z M317.8,491.8c0-0.5-0.1-0.8-0.3-1.1c-0.3-0.5-0.8-0.8-1.4-0.8c-0.5,0-0.9,0.2-1.2,0.5
		s-0.5,0.8-0.5,1.3H317.8z"/>
	<path class="st6" d="M320.2,489.1h1v0.9c0.2-0.3,0.5-0.5,0.7-0.7c0.3-0.2,0.7-0.4,1.2-0.4c0.5,0,0.9,0.1,1.2,0.4
		c0.2,0.1,0.3,0.3,0.5,0.6c0.2-0.3,0.5-0.6,0.8-0.7s0.7-0.2,1.1-0.2c0.8,0,1.4,0.3,1.7,0.9c0.2,0.3,0.2,0.8,0.2,1.3v4.2h-1.1v-4.4
		c0-0.4-0.1-0.7-0.3-0.9s-0.5-0.2-0.8-0.2c-0.4,0-0.8,0.1-1.1,0.4s-0.4,0.7-0.4,1.4v3.7h-1.1v-4.1c0-0.4-0.1-0.7-0.2-0.9
		c-0.2-0.3-0.5-0.4-0.9-0.4c-0.4,0-0.8,0.2-1.1,0.5s-0.5,0.9-0.5,1.7v3.3h-1.1V489.1z"/>
	<path class="st6" d="M330.1,486.8h1v3.1c0.2-0.3,0.5-0.5,0.8-0.7s0.7-0.2,1-0.2c0.8,0,1.4,0.3,1.9,0.8s0.7,1.3,0.7,2.4
		c0,1-0.2,1.8-0.7,2.5s-1.1,1-2,1c-0.5,0-0.9-0.1-1.2-0.3c-0.2-0.1-0.4-0.4-0.6-0.7v0.8h-1V486.8z M334.1,494
		c0.3-0.5,0.4-1.1,0.4-1.8c0-0.7-0.1-1.2-0.4-1.6s-0.7-0.7-1.3-0.7c-0.5,0-0.9,0.2-1.3,0.5s-0.5,0.9-0.5,1.8c0,0.6,0.1,1.1,0.2,1.4
		c0.3,0.7,0.8,1,1.6,1C333.4,494.7,333.8,494.5,334.1,494z"/>
	<path class="st6" d="M336.9,489.1h1v1.1c0.1-0.2,0.3-0.5,0.6-0.8s0.7-0.5,1.1-0.5c0,0,0.1,0,0.1,0s0.1,0,0.2,0v1.1
		c-0.1,0-0.1,0-0.2,0s-0.1,0-0.2,0c-0.5,0-0.9,0.2-1.2,0.5s-0.4,0.7-0.4,1.2v3.6h-1.1V489.1z"/>
	<path class="st6" d="M344.7,489.3c0.4,0.2,0.7,0.5,1,0.8c0.2,0.3,0.4,0.7,0.4,1.1c0.1,0.3,0.1,0.8,0.1,1.4h-4.6
		c0,0.6,0.2,1.1,0.5,1.5s0.7,0.6,1.3,0.6c0.6,0,1-0.2,1.3-0.5c0.2-0.2,0.3-0.5,0.4-0.7h1c0,0.2-0.1,0.5-0.3,0.8s-0.3,0.5-0.5,0.7
		c-0.3,0.3-0.7,0.5-1.2,0.6c-0.3,0.1-0.5,0.1-0.9,0.1c-0.8,0-1.4-0.3-2-0.9s-0.8-1.4-0.8-2.4c0-1,0.3-1.8,0.8-2.5s1.3-0.9,2.1-0.9
		C343.9,489,344.3,489.1,344.7,489.3z M345.1,491.8c0-0.5-0.1-0.8-0.3-1.1c-0.3-0.5-0.8-0.8-1.4-0.8c-0.5,0-0.9,0.2-1.2,0.5
		s-0.5,0.8-0.5,1.3H345.1z"/>
	<path class="st6" d="M354.3,489.3c0.2,0.1,0.4,0.3,0.6,0.6v-3.2h1v8.6H355v-0.9c-0.2,0.4-0.5,0.7-0.9,0.8s-0.7,0.3-1.2,0.3
		c-0.7,0-1.3-0.3-1.8-0.9s-0.8-1.4-0.8-2.3c0-0.9,0.2-1.7,0.7-2.4s1.1-1,2-1C353.6,489,354,489.1,354.3,489.3z M351.9,494
		c0.3,0.5,0.7,0.7,1.4,0.7c0.5,0,0.9-0.2,1.2-0.6s0.5-1,0.5-1.8c0-0.8-0.2-1.4-0.5-1.8s-0.7-0.6-1.2-0.6c-0.5,0-1,0.2-1.3,0.6
		s-0.5,1-0.5,1.8C351.5,493,351.7,493.6,351.9,494z"/>
	<path class="st6" d="M361.4,489.3c0.4,0.2,0.7,0.5,1,0.8c0.2,0.3,0.4,0.7,0.4,1.1c0.1,0.3,0.1,0.8,0.1,1.4h-4.6
		c0,0.6,0.2,1.1,0.5,1.5s0.7,0.6,1.3,0.6c0.6,0,1-0.2,1.3-0.5c0.2-0.2,0.3-0.5,0.4-0.7h1c0,0.2-0.1,0.5-0.3,0.8s-0.3,0.5-0.5,0.7
		c-0.3,0.3-0.7,0.5-1.2,0.6c-0.3,0.1-0.5,0.1-0.9,0.1c-0.8,0-1.4-0.3-2-0.9s-0.8-1.4-0.8-2.4c0-1,0.3-1.8,0.8-2.5s1.3-0.9,2.1-0.9
		C360.6,489,361,489.1,361.4,489.3z M361.8,491.8c0-0.5-0.1-0.8-0.3-1.1c-0.3-0.5-0.8-0.8-1.4-0.8c-0.5,0-0.9,0.2-1.2,0.5
		s-0.5,0.8-0.5,1.3H361.8z"/>
	<path class="st6" d="M364.2,486.8h1.1v8.6h-1.1V486.8z"/>
	<path class="st6" d="M370.2,493.5c0.3-0.5,0.8-1,1.5-1.5l1.1-0.7c0.5-0.3,0.9-0.5,1.1-0.8c0.3-0.3,0.5-0.7,0.5-1.1
		c0-0.5-0.1-0.9-0.4-1.2s-0.7-0.4-1.2-0.4c-0.7,0-1.2,0.3-1.5,0.8c-0.1,0.3-0.2,0.7-0.2,1.2H370c0-0.7,0.1-1.3,0.4-1.8
		c0.5-0.8,1.3-1.2,2.4-1.2c1,0,1.7,0.3,2.1,0.8s0.7,1.1,0.7,1.7c0,0.7-0.2,1.2-0.7,1.7c-0.3,0.3-0.8,0.6-1.5,1l-0.8,0.4
		c-0.4,0.2-0.7,0.4-0.9,0.6c-0.4,0.3-0.6,0.7-0.7,1.1h4.6v1h-5.8C369.8,494.7,370,494.1,370.2,493.5z"/>
	<path class="st6" d="M381.7,488.4c0.4,0.7,0.6,1.6,0.6,2.8c0,1.1-0.2,2.1-0.5,2.8c-0.5,1.1-1.3,1.6-2.4,1.6c-1,0-1.8-0.4-2.2-1.3
		c-0.4-0.7-0.6-1.7-0.6-2.9c0-1,0.1-1.8,0.4-2.5c0.5-1.3,1.3-1.9,2.5-1.9C380.4,487,381.2,487.5,381.7,488.4z M380.6,494
		c0.3-0.5,0.5-1.4,0.5-2.7c0-1-0.1-1.7-0.4-2.4s-0.7-0.9-1.4-0.9c-0.6,0-1.1,0.3-1.4,0.9s-0.4,1.4-0.4,2.6c0,0.9,0.1,1.5,0.3,2.1
		c0.3,0.8,0.8,1.2,1.4,1.2C379.9,494.7,380.3,494.4,380.6,494z"/>
	<path class="st6" d="M383.6,493.5c0.3-0.5,0.8-1,1.5-1.5l1.1-0.7c0.5-0.3,0.9-0.5,1.1-0.8c0.3-0.3,0.5-0.7,0.5-1.1
		c0-0.5-0.1-0.9-0.4-1.2s-0.7-0.4-1.2-0.4c-0.7,0-1.2,0.3-1.5,0.8c-0.1,0.3-0.2,0.7-0.2,1.2h-1.1c0-0.7,0.1-1.3,0.4-1.8
		c0.5-0.8,1.3-1.2,2.4-1.2c1,0,1.7,0.3,2.1,0.8s0.7,1.1,0.7,1.7c0,0.7-0.2,1.2-0.7,1.7c-0.3,0.3-0.8,0.6-1.5,1l-0.8,0.4
		c-0.4,0.2-0.7,0.4-0.9,0.6c-0.4,0.3-0.6,0.7-0.7,1.1h4.6v1h-5.8C383.2,494.7,383.3,494.1,383.6,493.5z"/>
	<path class="st6" d="M395,488.4c0.4,0.7,0.6,1.6,0.6,2.8c0,1.1-0.2,2.1-0.5,2.8c-0.5,1.1-1.3,1.6-2.4,1.6c-1,0-1.8-0.4-2.2-1.3
		c-0.4-0.7-0.6-1.7-0.6-2.9c0-1,0.1-1.8,0.4-2.5c0.5-1.3,1.3-1.9,2.5-1.9C393.8,487,394.6,487.5,395,488.4z M394,494
		c0.3-0.5,0.5-1.4,0.5-2.7c0-1-0.1-1.7-0.4-2.4s-0.7-0.9-1.4-0.9c-0.6,0-1.1,0.3-1.4,0.9s-0.4,1.4-0.4,2.6c0,0.9,0.1,1.5,0.3,2.1
		c0.3,0.8,0.8,1.2,1.4,1.2C393.2,494.7,393.7,494.4,394,494z"/>
	<path class="st6" d="M208.7,503.7c0.4,0.2,0.7,0.5,1,0.8c0.2,0.3,0.4,0.7,0.4,1.1c0.1,0.3,0.1,0.8,0.1,1.4h-4.6
		c0,0.6,0.2,1.1,0.5,1.5s0.7,0.6,1.3,0.6c0.6,0,1-0.2,1.3-0.5c0.2-0.2,0.3-0.5,0.4-0.7h1c0,0.2-0.1,0.5-0.3,0.8s-0.3,0.5-0.5,0.7
		c-0.3,0.3-0.7,0.5-1.2,0.6c-0.3,0.1-0.5,0.1-0.9,0.1c-0.8,0-1.4-0.3-2-0.9s-0.8-1.4-0.8-2.4c0-1,0.3-1.8,0.8-2.5s1.3-0.9,2.1-0.9
		C207.8,503.4,208.3,503.5,208.7,503.7z M209.1,506.2c0-0.5-0.1-0.8-0.3-1.1c-0.3-0.5-0.8-0.8-1.4-0.8c-0.5,0-0.9,0.2-1.2,0.5
		s-0.5,0.8-0.5,1.3H209.1z"/>
	<path class="st6" d="M211.4,503.5h1v0.9c0.3-0.4,0.6-0.6,0.9-0.8s0.7-0.2,1.1-0.2c0.9,0,1.5,0.3,1.8,0.9c0.2,0.3,0.3,0.8,0.3,1.5v4
		h-1.1v-4c0-0.4-0.1-0.7-0.2-0.9c-0.2-0.4-0.5-0.6-1-0.6c-0.2,0-0.5,0-0.6,0.1c-0.3,0.1-0.5,0.3-0.8,0.5c-0.2,0.2-0.3,0.4-0.3,0.6
		s-0.1,0.5-0.1,0.9v3.3h-1.1V503.5z"/>
	<path class="st6" d="M221.6,501.2h1.7l2.5,7.3l2.5-7.3h1.7v8.6h-1.1v-5.1c0-0.2,0-0.5,0-0.9s0-0.8,0-1.3l-2.5,7.3h-1.2l-2.5-7.3
		v0.3c0,0.2,0,0.5,0,1s0,0.7,0,1v5.1h-1.1V501.2z"/>
	<path class="st6" d="M236,504.2c0.6,0.5,0.8,1.3,0.8,2.4c0,1-0.2,1.8-0.7,2.5s-1.3,1-2.3,1c-0.9,0-1.5-0.3-2.1-0.9
		s-0.8-1.4-0.8-2.4c0-1.1,0.3-1.9,0.8-2.5s1.3-0.9,2.2-0.9C234.8,503.4,235.5,503.6,236,504.2z M235.4,508.4
		c0.3-0.5,0.4-1.1,0.4-1.8c0-0.6-0.1-1.1-0.3-1.4c-0.3-0.6-0.8-0.9-1.5-0.9c-0.6,0-1.1,0.2-1.4,0.7s-0.4,1.1-0.4,1.8
		c0,0.7,0.1,1.2,0.4,1.7s0.8,0.7,1.4,0.7C234.6,509.1,235.1,508.9,235.4,508.4z"/>
	<path class="st6" d="M238.1,503.5h1v0.9c0.3-0.4,0.6-0.6,0.9-0.8s0.7-0.2,1.1-0.2c0.9,0,1.5,0.3,1.8,0.9c0.2,0.3,0.3,0.8,0.3,1.5v4
		h-1.1v-4c0-0.4-0.1-0.7-0.2-0.9c-0.2-0.4-0.5-0.6-1-0.6c-0.2,0-0.5,0-0.6,0.1c-0.3,0.1-0.5,0.3-0.8,0.5c-0.2,0.2-0.3,0.4-0.3,0.6
		s-0.1,0.5-0.1,0.9v3.3h-1.1V503.5z"/>
	<path class="st6" d="M248.3,503.8c0.2,0.1,0.4,0.3,0.6,0.6v-0.8h1v5.7c0,0.8-0.1,1.4-0.4,1.9c-0.4,0.9-1.3,1.3-2.5,1.3
		c-0.7,0-1.2-0.2-1.7-0.5s-0.7-0.8-0.8-1.4h1.1c0.1,0.3,0.2,0.5,0.3,0.7c0.2,0.2,0.6,0.4,1.1,0.4c0.8,0,1.3-0.3,1.6-0.9
		c0.1-0.3,0.2-0.9,0.2-1.8c-0.2,0.3-0.5,0.6-0.8,0.7s-0.7,0.2-1.2,0.2c-0.7,0-1.3-0.2-1.8-0.7s-0.8-1.3-0.8-2.4
		c0-1.1,0.3-1.9,0.8-2.5s1.1-0.9,1.9-0.9C247.5,503.4,247.9,503.6,248.3,503.8z M248.4,504.9c-0.3-0.4-0.7-0.6-1.2-0.6
		c-0.7,0-1.2,0.3-1.5,1c-0.1,0.4-0.2,0.9-0.2,1.5c0,0.7,0.1,1.2,0.4,1.6s0.7,0.6,1.2,0.6c0.8,0,1.3-0.3,1.6-1
		c0.2-0.4,0.3-0.8,0.3-1.4C248.9,505.9,248.8,505.3,248.4,504.9z"/>
	<path class="st6" d="M256.1,504.2c0.6,0.5,0.8,1.3,0.8,2.4c0,1-0.2,1.8-0.7,2.5s-1.3,1-2.3,1c-0.9,0-1.5-0.3-2.1-0.9
		s-0.8-1.4-0.8-2.4c0-1.1,0.3-1.9,0.8-2.5s1.3-0.9,2.2-0.9C254.8,503.4,255.5,503.6,256.1,504.2z M255.4,508.4
		c0.3-0.5,0.4-1.1,0.4-1.8c0-0.6-0.1-1.1-0.3-1.4c-0.3-0.6-0.8-0.9-1.5-0.9c-0.6,0-1.1,0.2-1.4,0.7s-0.4,1.1-0.4,1.8
		c0,0.7,0.1,1.2,0.4,1.7s0.8,0.7,1.4,0.7C254.7,509.1,255.1,508.9,255.4,508.4z"/>
	<path class="st6" d="M258.2,501.2h1.1v8.6h-1.1V501.2z"/>
	<path class="st6" d="M260.8,501.2h1.1v1.2h-1.1V501.2z M260.8,503.6h1.1v6.2h-1.1V503.6z"/>
	<path class="st6" d="M266.8,506c0.2,0,0.4-0.1,0.5-0.3c0-0.1,0.1-0.2,0.1-0.4c0-0.4-0.1-0.6-0.4-0.8s-0.6-0.2-1.1-0.2
		c-0.6,0-0.9,0.1-1.2,0.4c-0.1,0.2-0.2,0.4-0.3,0.7h-1c0-0.8,0.3-1.3,0.8-1.6s1-0.5,1.7-0.5c0.7,0,1.3,0.1,1.8,0.4
		c0.5,0.3,0.7,0.7,0.7,1.3v3.6c0,0.1,0,0.2,0.1,0.3s0.1,0.1,0.3,0.1c0,0,0.1,0,0.2,0s0.1,0,0.2,0v0.8c-0.2,0-0.3,0.1-0.4,0.1
		s-0.2,0-0.4,0c-0.4,0-0.6-0.1-0.8-0.4c-0.1-0.1-0.1-0.3-0.2-0.6c-0.2,0.3-0.5,0.5-0.9,0.7s-0.8,0.3-1.3,0.3c-0.6,0-1.1-0.2-1.4-0.5
		s-0.6-0.8-0.6-1.3c0-0.6,0.2-1,0.5-1.4s0.8-0.5,1.4-0.6L266.8,506z M264.6,508.9c0.2,0.2,0.5,0.3,0.8,0.3c0.4,0,0.7-0.1,1.1-0.3
		c0.6-0.3,0.9-0.8,0.9-1.4v-0.8c-0.1,0.1-0.3,0.2-0.5,0.2s-0.4,0.1-0.6,0.1l-0.6,0.1c-0.4,0.1-0.7,0.1-0.9,0.2
		c-0.3,0.2-0.5,0.5-0.5,0.9C264.3,508.5,264.4,508.7,264.6,508.9z"/>
	<path class="st6" d="M273.5,501.2h1.1v1.2h-1.1V501.2z M273.5,503.6h1.1v6.2h-1.1V503.6z"/>
	<path class="st6" d="M276.2,503.5h1v0.9c0.3-0.4,0.6-0.6,0.9-0.8s0.7-0.2,1.1-0.2c0.9,0,1.5,0.3,1.8,0.9c0.2,0.3,0.3,0.8,0.3,1.5v4
		h-1.1v-4c0-0.4-0.1-0.7-0.2-0.9c-0.2-0.4-0.5-0.6-1-0.6c-0.2,0-0.5,0-0.6,0.1c-0.3,0.1-0.5,0.3-0.8,0.5c-0.2,0.2-0.3,0.4-0.3,0.6
		s-0.1,0.5-0.1,0.9v3.3h-1.1V503.5z"/>
	<path class="st6" d="M283,501.8h1.1v1.8h1v0.9h-1v4.1c0,0.2,0.1,0.4,0.2,0.4c0.1,0,0.2,0.1,0.4,0.1c0.1,0,0.1,0,0.2,0s0.1,0,0.2,0
		v0.8c-0.1,0-0.2,0.1-0.4,0.1s-0.3,0-0.4,0c-0.5,0-0.8-0.1-1-0.4s-0.3-0.6-0.3-1v-4.2h-0.8v-0.9h0.8V501.8z"/>
	<path class="st6" d="M290.1,503.7c0.4,0.2,0.7,0.5,1,0.8c0.2,0.3,0.4,0.7,0.4,1.1c0.1,0.3,0.1,0.8,0.1,1.4h-4.6
		c0,0.6,0.2,1.1,0.5,1.5s0.7,0.6,1.3,0.6c0.6,0,1-0.2,1.3-0.5c0.2-0.2,0.3-0.5,0.4-0.7h1c0,0.2-0.1,0.5-0.3,0.8s-0.3,0.5-0.5,0.7
		c-0.3,0.3-0.7,0.5-1.2,0.6c-0.3,0.1-0.5,0.1-0.9,0.1c-0.8,0-1.4-0.3-2-0.9s-0.8-1.4-0.8-2.4c0-1,0.3-1.8,0.8-2.5s1.3-0.9,2.1-0.9
		C289.2,503.4,289.7,503.5,290.1,503.7z M290.5,506.2c0-0.5-0.1-0.8-0.3-1.1c-0.3-0.5-0.8-0.8-1.4-0.8c-0.5,0-0.9,0.2-1.2,0.5
		s-0.5,0.8-0.5,1.3H290.5z"/>
	<path class="st6" d="M292.9,503.5h1v1.1c0.1-0.2,0.3-0.5,0.6-0.8s0.7-0.5,1.1-0.5c0,0,0.1,0,0.1,0s0.1,0,0.2,0v1.1
		c-0.1,0-0.1,0-0.2,0s-0.1,0-0.2,0c-0.5,0-0.9,0.2-1.2,0.5s-0.4,0.7-0.4,1.2v3.6h-1.1V503.5z"/>
	<path class="st6" d="M296.8,501.2h1.1v1.2h-1.1V501.2z M296.8,503.6h1.1v6.2h-1.1V503.6z"/>
	<path class="st6" d="M304.1,504.2c0.6,0.5,0.8,1.3,0.8,2.4c0,1-0.2,1.8-0.7,2.5s-1.3,1-2.3,1c-0.9,0-1.5-0.3-2.1-0.9
		s-0.8-1.4-0.8-2.4c0-1.1,0.3-1.9,0.8-2.5s1.3-0.9,2.2-0.9C302.8,503.4,303.5,503.6,304.1,504.2z M303.4,508.4
		c0.3-0.5,0.4-1.1,0.4-1.8c0-0.6-0.1-1.1-0.3-1.4c-0.3-0.6-0.8-0.9-1.5-0.9c-0.6,0-1.1,0.2-1.4,0.7s-0.4,1.1-0.4,1.8
		c0,0.7,0.1,1.2,0.4,1.7s0.8,0.7,1.4,0.7C302.7,509.1,303.2,508.9,303.4,508.4z"/>
	<path class="st6" d="M306.2,503.5h1v1.1c0.1-0.2,0.3-0.5,0.6-0.8s0.7-0.5,1.1-0.5c0,0,0.1,0,0.1,0s0.1,0,0.2,0v1.1
		c-0.1,0-0.1,0-0.2,0s-0.1,0-0.2,0c-0.5,0-0.9,0.2-1.2,0.5s-0.4,0.7-0.4,1.2v3.6h-1.1V503.5z"/>
	<path class="st6" d="M309.7,511c0.3,0,0.5-0.2,0.6-0.6c0.1-0.2,0.1-0.3,0.1-0.5c0,0,0-0.1,0-0.1s0,0,0-0.1h-0.6v-1.3h1.3v1.2
		c0,0.5-0.1,0.9-0.3,1.2s-0.5,0.6-1,0.7V511z"/>
	<path class="st6" d="M319.5,506c0.2,0,0.4-0.1,0.5-0.3c0-0.1,0.1-0.2,0.1-0.4c0-0.4-0.1-0.6-0.4-0.8s-0.6-0.2-1.1-0.2
		c-0.6,0-0.9,0.1-1.2,0.4c-0.1,0.2-0.2,0.4-0.3,0.7h-1c0-0.8,0.3-1.3,0.8-1.6s1-0.5,1.7-0.5c0.7,0,1.3,0.1,1.8,0.4
		c0.5,0.3,0.7,0.7,0.7,1.3v3.6c0,0.1,0,0.2,0.1,0.3s0.1,0.1,0.3,0.1c0,0,0.1,0,0.2,0s0.1,0,0.2,0v0.8c-0.2,0-0.3,0.1-0.4,0.1
		s-0.2,0-0.4,0c-0.4,0-0.6-0.1-0.8-0.4c-0.1-0.1-0.1-0.3-0.2-0.6c-0.2,0.3-0.5,0.5-0.9,0.7s-0.8,0.3-1.3,0.3c-0.6,0-1.1-0.2-1.4-0.5
		s-0.6-0.8-0.6-1.3c0-0.6,0.2-1,0.5-1.4s0.8-0.5,1.4-0.6L319.5,506z M317.3,508.9c0.2,0.2,0.5,0.3,0.8,0.3c0.4,0,0.7-0.1,1.1-0.3
		c0.6-0.3,0.9-0.8,0.9-1.4v-0.8c-0.1,0.1-0.3,0.2-0.5,0.2s-0.4,0.1-0.6,0.1l-0.6,0.1c-0.4,0.1-0.7,0.1-0.9,0.2
		c-0.3,0.2-0.5,0.5-0.5,0.9C317,508.5,317.1,508.7,317.3,508.9z"/>
	<path class="st6" d="M322.9,501.2h1.1v8.6h-1.1V501.2z"/>
	<path class="st6" d="M328.9,503.5h1v0.9c0.3-0.4,0.6-0.6,0.9-0.8s0.7-0.2,1.1-0.2c0.9,0,1.5,0.3,1.8,0.9c0.2,0.3,0.3,0.8,0.3,1.5v4
		h-1.1v-4c0-0.4-0.1-0.7-0.2-0.9c-0.2-0.4-0.5-0.6-1-0.6c-0.2,0-0.5,0-0.6,0.1c-0.3,0.1-0.5,0.3-0.8,0.5c-0.2,0.2-0.3,0.4-0.3,0.6
		s-0.1,0.5-0.1,0.9v3.3h-1.1V503.5z"/>
	<path class="st6" d="M340.1,504.2c0.6,0.5,0.8,1.3,0.8,2.4c0,1-0.2,1.8-0.7,2.5s-1.3,1-2.3,1c-0.9,0-1.5-0.3-2.1-0.9
		s-0.8-1.4-0.8-2.4c0-1.1,0.3-1.9,0.8-2.5s1.3-0.9,2.2-0.9C338.9,503.4,339.5,503.6,340.1,504.2z M339.5,508.4
		c0.3-0.5,0.4-1.1,0.4-1.8c0-0.6-0.1-1.1-0.3-1.4c-0.3-0.6-0.8-0.9-1.5-0.9c-0.6,0-1.1,0.2-1.4,0.7s-0.4,1.1-0.4,1.8
		c0,0.7,0.1,1.2,0.4,1.7s0.8,0.7,1.4,0.7C338.7,509.1,339.2,508.9,339.5,508.4z"/>
	<path class="st6" d="M342.2,503.5h1v1.1c0.1-0.2,0.3-0.5,0.6-0.8s0.7-0.5,1.1-0.5c0,0,0.1,0,0.1,0s0.1,0,0.2,0v1.1
		c-0.1,0-0.1,0-0.2,0s-0.1,0-0.2,0c-0.5,0-0.9,0.2-1.2,0.5s-0.4,0.7-0.4,1.2v3.6h-1.1V503.5z"/>
	<path class="st6" d="M346.4,501.8h1.1v1.8h1v0.9h-1v4.1c0,0.2,0.1,0.4,0.2,0.4c0.1,0,0.2,0.1,0.4,0.1c0.1,0,0.1,0,0.2,0
		s0.1,0,0.2,0v0.8c-0.1,0-0.2,0.1-0.4,0.1s-0.3,0-0.4,0c-0.5,0-0.8-0.1-1-0.4s-0.3-0.6-0.3-1v-4.2h-0.8v-0.9h0.8V501.8z"/>
	<path class="st6" d="M353.4,503.7c0.4,0.2,0.7,0.5,1,0.8c0.2,0.3,0.4,0.7,0.4,1.1c0.1,0.3,0.1,0.8,0.1,1.4h-4.6
		c0,0.6,0.2,1.1,0.5,1.5s0.7,0.6,1.3,0.6c0.6,0,1-0.2,1.3-0.5c0.2-0.2,0.3-0.5,0.4-0.7h1c0,0.2-0.1,0.5-0.3,0.8s-0.3,0.5-0.5,0.7
		c-0.3,0.3-0.7,0.5-1.2,0.6c-0.3,0.1-0.5,0.1-0.9,0.1c-0.8,0-1.4-0.3-2-0.9s-0.8-1.4-0.8-2.4c0-1,0.3-1.8,0.8-2.5s1.3-0.9,2.1-0.9
		C352.6,503.4,353,503.5,353.4,503.7z M353.8,506.2c0-0.5-0.1-0.8-0.3-1.1c-0.3-0.5-0.8-0.8-1.4-0.8c-0.5,0-0.9,0.2-1.2,0.5
		s-0.5,0.8-0.5,1.3H353.8z"/>
	<path class="st6" d="M363,503.7c0.2,0.1,0.4,0.3,0.6,0.6v-3.2h1v8.6h-0.9V509c-0.2,0.4-0.5,0.7-0.9,0.8s-0.7,0.3-1.2,0.3
		c-0.7,0-1.3-0.3-1.8-0.9s-0.8-1.4-0.8-2.3c0-0.9,0.2-1.7,0.7-2.4s1.1-1,2-1C362.3,503.4,362.7,503.5,363,503.7z M360.6,508.4
		c0.3,0.5,0.7,0.7,1.4,0.7c0.5,0,0.9-0.2,1.2-0.6s0.5-1,0.5-1.8c0-0.8-0.2-1.4-0.5-1.8s-0.7-0.6-1.2-0.6c-0.5,0-1,0.2-1.3,0.6
		s-0.5,1-0.5,1.8C360.2,507.4,360.3,508,360.6,508.4z"/>
	<path class="st6" d="M370.1,503.7c0.4,0.2,0.7,0.5,1,0.8c0.2,0.3,0.4,0.7,0.4,1.1c0.1,0.3,0.1,0.8,0.1,1.4H367
		c0,0.6,0.2,1.1,0.5,1.5s0.7,0.6,1.3,0.6c0.6,0,1-0.2,1.3-0.5c0.2-0.2,0.3-0.5,0.4-0.7h1c0,0.2-0.1,0.5-0.3,0.8s-0.3,0.5-0.5,0.7
		c-0.3,0.3-0.7,0.5-1.2,0.6c-0.3,0.1-0.5,0.1-0.9,0.1c-0.8,0-1.4-0.3-2-0.9s-0.8-1.4-0.8-2.4c0-1,0.3-1.8,0.8-2.5s1.3-0.9,2.1-0.9
		C369.3,503.4,369.7,503.5,370.1,503.7z M370.5,506.2c0-0.5-0.1-0.8-0.3-1.1c-0.3-0.5-0.8-0.8-1.4-0.8c-0.5,0-0.9,0.2-1.2,0.5
		s-0.5,0.8-0.5,1.3H370.5z"/>
	<path class="st6" d="M382.5,501.8c0.6,0.6,0.9,1.2,1,2h-1.1c-0.1-0.6-0.4-1-0.8-1.3s-0.9-0.5-1.6-0.5c-0.8,0-1.5,0.3-2.1,0.9
		s-0.8,1.5-0.8,2.7c0,1,0.2,1.8,0.7,2.5s1.2,0.9,2.1,0.9c0.9,0,1.5-0.3,2-1c0.2-0.3,0.4-0.8,0.5-1.4h1.1c-0.1,0.9-0.4,1.7-1,2.3
		c-0.7,0.7-1.6,1.1-2.8,1.1c-1,0-1.8-0.3-2.5-0.9c-0.9-0.8-1.3-2-1.3-3.7c0-1.3,0.3-2.3,1-3.1c0.7-0.9,1.7-1.3,3-1.3
		C381.1,501,381.9,501.3,382.5,501.8z"/>
	<path class="st6" d="M384.9,501.2h1.1v3.2c0.2-0.3,0.5-0.5,0.7-0.7c0.3-0.2,0.8-0.3,1.3-0.3c0.9,0,1.5,0.3,1.9,1
		c0.2,0.3,0.3,0.8,0.3,1.4v4h-1.1v-4c0-0.5-0.1-0.8-0.2-1c-0.2-0.3-0.6-0.5-1.1-0.5c-0.4,0-0.8,0.2-1.2,0.5s-0.5,0.9-0.5,1.7v3.3
		h-1.1V501.2z"/>
	<path class="st6" d="M391.6,501.2h1.1v1.2h-1.1V501.2z M391.6,503.6h1.1v6.2h-1.1V503.6z"/>
	<path class="st6" d="M394.2,503.5h1v0.9c0.3-0.4,0.6-0.6,0.9-0.8s0.7-0.2,1.1-0.2c0.9,0,1.5,0.3,1.8,0.9c0.2,0.3,0.3,0.8,0.3,1.5v4
		h-1.1v-4c0-0.4-0.1-0.7-0.2-0.9c-0.2-0.4-0.5-0.6-1-0.6c-0.2,0-0.5,0-0.6,0.1c-0.3,0.1-0.5,0.3-0.8,0.5c-0.2,0.2-0.3,0.4-0.3,0.6
		s-0.1,0.5-0.1,0.9v3.3h-1.1V503.5z"/>
	<path class="st6" d="M404.3,506c0.2,0,0.4-0.1,0.5-0.3c0-0.1,0.1-0.2,0.1-0.4c0-0.4-0.1-0.6-0.4-0.8s-0.6-0.2-1.1-0.2
		c-0.6,0-0.9,0.1-1.2,0.4c-0.1,0.2-0.2,0.4-0.3,0.7h-1c0-0.8,0.3-1.3,0.8-1.6s1-0.5,1.7-0.5c0.7,0,1.3,0.1,1.8,0.4
		c0.5,0.3,0.7,0.7,0.7,1.3v3.6c0,0.1,0,0.2,0.1,0.3s0.1,0.1,0.3,0.1c0,0,0.1,0,0.2,0s0.1,0,0.2,0v0.8c-0.2,0-0.3,0.1-0.4,0.1
		s-0.2,0-0.4,0c-0.4,0-0.6-0.1-0.8-0.4c-0.1-0.1-0.1-0.3-0.2-0.6c-0.2,0.3-0.5,0.5-0.9,0.7s-0.8,0.3-1.3,0.3c-0.6,0-1.1-0.2-1.4-0.5
		s-0.6-0.8-0.6-1.3c0-0.6,0.2-1,0.5-1.4s0.8-0.5,1.4-0.6L404.3,506z M402,508.9c0.2,0.2,0.5,0.3,0.8,0.3c0.4,0,0.7-0.1,1.1-0.3
		c0.6-0.3,0.9-0.8,0.9-1.4v-0.8c-0.1,0.1-0.3,0.2-0.5,0.2s-0.4,0.1-0.6,0.1l-0.6,0.1c-0.4,0.1-0.7,0.1-0.9,0.2
		c-0.3,0.2-0.5,0.5-0.5,0.9C401.7,508.5,401.8,508.7,402,508.9z"/>
</g>
<g>
	<path class="st8" d="M167.3,38.8c1.2-1.2,2.6-1.8,4.4-1.8c2.4,0,4.1,0.8,5.3,2.4c0.6,0.9,0.9,1.8,1,2.7h-3
		c-0.2-0.7-0.4-1.2-0.7-1.6c-0.5-0.6-1.3-0.9-2.4-0.9c-1.1,0-1.9,0.4-2.5,1.3s-0.9,2.1-0.9,3.7s0.3,2.8,1,3.6s1.5,1.2,2.5,1.2
		c1,0,1.8-0.3,2.4-1c0.3-0.4,0.5-0.9,0.7-1.7h3c-0.3,1.6-0.9,2.8-2,3.8c-1.1,1-2.4,1.5-4.1,1.5c-2,0-3.7-0.7-4.8-2
		c-1.2-1.3-1.8-3.2-1.8-5.5C165.3,42.1,166,40.2,167.3,38.8z"/>
	<path class="st8" d="M187.8,41.1c0.5,0.2,1,0.6,1.3,1c0.3,0.4,0.5,0.8,0.5,1.2c0.1,0.4,0.1,1.1,0.1,2.1v6.3h-2.8v-6.5
		c0-0.6-0.1-1-0.3-1.4c-0.3-0.5-0.7-0.7-1.4-0.7c-0.7,0-1.3,0.2-1.7,0.7c-0.4,0.5-0.6,1.2-0.6,2.1v5.8h-2.8V37.4h2.8v5.1
		c0.4-0.6,0.9-1,1.4-1.3c0.5-0.2,1.1-0.4,1.7-0.4C186.7,40.8,187.3,40.9,187.8,41.1z"/>
	<path class="st8" d="M196.6,45.2c0.5-0.1,0.9-0.1,1.1-0.2c0.4-0.2,0.6-0.4,0.6-0.8c0-0.4-0.2-0.7-0.5-0.9c-0.3-0.2-0.8-0.2-1.4-0.2
		c-0.7,0-1.1,0.2-1.4,0.5c-0.2,0.2-0.3,0.6-0.4,1H192c0.1-0.9,0.3-1.7,0.8-2.3c0.7-0.9,2-1.4,3.8-1.4c1.2,0,2.2,0.2,3.1,0.7
		s1.4,1.3,1.4,2.6V49c0,0.3,0,0.7,0,1.2c0,0.4,0.1,0.6,0.2,0.7s0.2,0.2,0.4,0.3v0.4h-3c-0.1-0.2-0.1-0.4-0.2-0.6s-0.1-0.4-0.1-0.6
		c-0.4,0.4-0.8,0.8-1.3,1.1c-0.6,0.3-1.3,0.5-2,0.5c-1,0-1.8-0.3-2.4-0.8s-0.9-1.3-0.9-2.3c0-1.3,0.5-2.3,1.5-2.8
		c0.6-0.3,1.4-0.5,2.5-0.7L196.6,45.2z M198.3,46.5c-0.2,0.1-0.4,0.2-0.5,0.3c-0.2,0.1-0.4,0.1-0.7,0.2l-0.6,0.1
		c-0.6,0.1-1,0.2-1.3,0.4c-0.4,0.3-0.7,0.6-0.7,1.2c0,0.5,0.1,0.8,0.4,1c0.3,0.2,0.6,0.3,1,0.3c0.6,0,1.2-0.2,1.7-0.5s0.8-1,0.8-1.9
		V46.5z"/>
	<path class="st8" d="M212.1,41.7c0.7,0.6,1,1.5,1,2.9v7.2h-2.9v-6.5c0-0.6-0.1-1-0.2-1.3c-0.3-0.5-0.8-0.8-1.6-0.8
		c-0.9,0-1.6,0.4-1.9,1.2c-0.2,0.4-0.3,1-0.3,1.6v5.8h-2.8V41.1h2.7v1.6c0.4-0.5,0.7-0.9,1-1.2c0.6-0.4,1.3-0.6,2.2-0.6
		C210.5,40.8,211.4,41.1,212.1,41.7z"/>
	<path class="st8" d="M221,41.1c0.7,0.3,1.2,0.8,1.6,1.5v-1.5h2.7v10.1c0,1.4-0.2,2.4-0.7,3.1c-0.8,1.2-2.3,1.8-4.6,1.8
		c-1.4,0-2.5-0.3-3.3-0.8s-1.3-1.3-1.4-2.4h3c0.1,0.3,0.2,0.6,0.4,0.7c0.3,0.3,0.8,0.4,1.5,0.4c1,0,1.7-0.3,2-1
		c0.2-0.4,0.3-1.2,0.3-2.2v-0.7c-0.3,0.5-0.6,0.8-0.9,1c-0.6,0.4-1.3,0.6-2.2,0.6c-1.4,0-2.5-0.5-3.3-1.4c-0.8-1-1.2-2.3-1.2-3.9
		c0-1.6,0.4-2.9,1.2-4s1.9-1.6,3.3-1.6C220.2,40.8,220.6,40.9,221,41.1z M222,48.7c0.4-0.5,0.7-1.3,0.7-2.3c0-1-0.2-1.8-0.6-2.3
		s-1-0.8-1.7-0.8c-1,0-1.6,0.5-2,1.4c-0.2,0.5-0.3,1.1-0.3,1.8c0,0.6,0.1,1.2,0.3,1.7c0.4,0.9,1.1,1.3,2,1.3
		C221,49.4,221.5,49.2,222,48.7z"/>
	<path class="st8" d="M228,41.8c0.7-0.2,1.1-0.5,1.4-1c0.1-0.3,0.2-0.6,0.2-0.9H228v-2.6h2.9v2.1c0,1-0.2,1.8-0.7,2.3
		c-0.5,0.6-1.2,0.9-2.1,1.1V41.8z"/>
	<path class="st8" d="M240.5,41.3c0.7,0.3,1.4,0.9,1.8,1.6c0.4,0.6,0.7,1.4,0.8,2.2c0.1,0.5,0.1,1.2,0.1,2.1h-7.8
		c0,1.1,0.4,1.8,1.1,2.2c0.4,0.3,0.9,0.4,1.5,0.4c0.6,0,1.2-0.2,1.5-0.5c0.2-0.2,0.4-0.4,0.6-0.7h2.8c-0.1,0.6-0.4,1.3-1,1.9
		c-1,1-2.3,1.6-4,1.6c-1.4,0-2.7-0.4-3.7-1.3s-1.6-2.3-1.6-4.3c0-1.8,0.5-3.3,1.5-4.2s2.2-1.5,3.8-1.5
		C238.9,40.8,239.7,41,240.5,41.3z M236.3,43.7c-0.4,0.4-0.6,1-0.7,1.6h4.8c-0.1-0.7-0.3-1.3-0.7-1.7c-0.4-0.4-1-0.6-1.7-0.6
		C237.2,43.1,236.7,43.3,236.3,43.7z"/>
	<path class="st8" d="M252.2,47.9c0.1,0.6,0.3,1.1,0.6,1.4c0.3,0.3,0.8,0.5,1.4,0.5c0.7,0,1.2-0.2,1.6-0.7c0.4-0.5,0.5-1.1,0.5-1.8
		c0-0.7-0.2-1.3-0.5-1.8c-0.3-0.5-0.9-0.7-1.6-0.7c-0.3,0-0.6,0-0.9,0.1c-0.4,0.2-0.8,0.4-1,0.9l-2.5-0.1l1-7.8h7.8v2.4h-5.8
		l-0.5,3.1c0.4-0.3,0.8-0.5,1-0.6c0.4-0.1,0.9-0.2,1.5-0.2c1.2,0,2.2,0.4,3.1,1.2c0.9,0.8,1.3,1.9,1.3,3.4c0,1.3-0.4,2.5-1.3,3.5
		c-0.8,1-2.1,1.5-3.8,1.5c-1.3,0-2.5-0.4-3.3-1.1s-1.3-1.7-1.4-3.1H252.2z"/>
</g>
<g>
	<g>
		<path class="st8" d="M175,14.5V17h-4.3v11.8h-3V17h-4.3v-2.5H175z"/>
		<path class="st8" d="M181.4,18c0,0,0.1,0,0.2,0v2.9c-0.2,0-0.3,0-0.5,0s-0.2,0-0.3,0c-1.1,0-1.9,0.4-2.3,1.1
			c-0.2,0.4-0.3,1-0.3,1.9v5.1h-2.8V18.2h2.7v1.9c0.4-0.7,0.8-1.2,1.1-1.5c0.5-0.4,1.2-0.7,2-0.7C181.3,18,181.4,18,181.4,18z"/>
		<path class="st8" d="M187.5,22.4c0.5-0.1,0.9-0.1,1.1-0.2c0.4-0.2,0.6-0.4,0.6-0.8c0-0.4-0.2-0.7-0.5-0.9
			c-0.3-0.2-0.8-0.2-1.4-0.2c-0.7,0-1.1,0.2-1.4,0.5c-0.2,0.2-0.3,0.6-0.4,1h-2.7c0.1-0.9,0.3-1.7,0.8-2.3c0.7-0.9,2-1.4,3.8-1.4
			c1.2,0,2.2,0.2,3.1,0.7s1.4,1.3,1.4,2.6v4.9c0,0.3,0,0.7,0,1.2c0,0.4,0.1,0.6,0.2,0.7s0.2,0.2,0.4,0.3v0.4h-3
			c-0.1-0.2-0.1-0.4-0.2-0.6s-0.1-0.4-0.1-0.6c-0.4,0.4-0.8,0.8-1.3,1.1c-0.6,0.3-1.3,0.5-2,0.5c-1,0-1.8-0.3-2.4-0.8
			s-0.9-1.3-0.9-2.3c0-1.3,0.5-2.3,1.5-2.8c0.6-0.3,1.4-0.5,2.5-0.7L187.5,22.4z M189.2,23.7c-0.2,0.1-0.4,0.2-0.5,0.3
			c-0.2,0.1-0.4,0.1-0.7,0.2l-0.6,0.1c-0.6,0.1-1,0.2-1.3,0.4c-0.4,0.3-0.7,0.6-0.7,1.2c0,0.5,0.1,0.8,0.4,1c0.3,0.2,0.6,0.3,1,0.3
			c0.6,0,1.2-0.2,1.7-0.5s0.8-1,0.8-1.9V23.7z"/>
		<path class="st8" d="M194.8,30.9l0.4,0c0.3,0,0.5,0,0.8,0s0.5-0.1,0.6-0.2c0.2-0.1,0.3-0.3,0.5-0.7s0.2-0.6,0.2-0.6l-3.9-11.1h3.1
			l2.3,7.9l2.2-7.9h3l-3.6,10.5c-0.7,2-1.3,3.3-1.7,3.8c-0.4,0.5-1.2,0.7-2.5,0.7c-0.2,0-0.4,0-0.6,0c-0.2,0-0.4,0-0.7,0V30.9z"/>
		<path class="st8" d="M212.5,18.5c0.7,0.3,1.4,0.9,1.8,1.6c0.4,0.6,0.7,1.4,0.8,2.2c0.1,0.5,0.1,1.2,0.1,2.1h-7.8
			c0,1.1,0.4,1.8,1.1,2.2c0.4,0.3,0.9,0.4,1.5,0.4c0.6,0,1.1-0.2,1.5-0.5c0.2-0.2,0.4-0.4,0.6-0.7h2.8c-0.1,0.6-0.4,1.3-1,1.9
			c-1,1-2.3,1.6-4,1.6c-1.4,0-2.7-0.4-3.7-1.3c-1.1-0.9-1.6-2.3-1.6-4.3c0-1.8,0.5-3.3,1.5-4.2s2.2-1.5,3.8-1.5
			C210.9,18,211.7,18.1,212.5,18.5z M208.3,20.9c-0.4,0.4-0.6,1-0.7,1.6h4.8c-0.1-0.7-0.3-1.3-0.7-1.7c-0.4-0.4-1-0.6-1.7-0.6
			C209.2,20.3,208.7,20.5,208.3,20.9z"/>
		<path class="st8" d="M223,22.1c-0.1-0.4-0.2-0.8-0.4-1.1c-0.3-0.4-0.8-0.6-1.5-0.6c-0.9,0-1.6,0.5-1.9,1.4c-0.2,0.5-0.3,1.1-0.3,2
			c0,0.8,0.1,1.4,0.3,1.9c0.3,0.9,1,1.3,1.9,1.3c0.7,0,1.1-0.2,1.4-0.5c0.3-0.4,0.4-0.8,0.5-1.4h2.8c-0.1,0.8-0.4,1.6-0.9,2.4
			c-0.9,1.2-2.2,1.8-3.9,1.8c-1.7,0-3-0.5-3.8-1.5c-0.8-1-1.2-2.3-1.2-4c0-1.8,0.4-3.2,1.3-4.3c0.9-1,2.1-1.5,3.7-1.5
			c1.3,0,2.4,0.3,3.3,0.9s1.4,1.7,1.5,3.2H223z"/>
		<path class="st8" d="M226.7,20.3v-2h1.5v-3h2.8v3h1.7v2h-1.7V26c0,0.4,0.1,0.7,0.2,0.8c0.1,0.1,0.4,0.2,1,0.2c0.1,0,0.2,0,0.3,0
			c0.1,0,0.2,0,0.3,0V29l-1.3,0c-1.3,0-2.2-0.2-2.7-0.7c-0.3-0.3-0.5-0.8-0.5-1.5v-6.6H226.7z"/>
		<path class="st8" d="M243.3,27.6c-0.9,1.1-2.3,1.7-4.1,1.7c-1.8,0-3.2-0.6-4.1-1.7s-1.3-2.4-1.3-4c0-1.5,0.4-2.9,1.3-4
			s2.3-1.7,4.1-1.7c1.8,0,3.2,0.6,4.1,1.7s1.3,2.5,1.3,4C244.6,25.1,244.2,26.5,243.3,27.6z M241.1,26.1c0.4-0.6,0.7-1.4,0.7-2.5
			c0-1.1-0.2-1.9-0.7-2.5c-0.4-0.6-1.1-0.9-1.9-0.9c-0.8,0-1.4,0.3-1.9,0.9c-0.4,0.6-0.7,1.4-0.7,2.5c0,1.1,0.2,1.9,0.7,2.5
			s1.1,0.9,1.9,0.9C240,26.9,240.6,26.6,241.1,26.1z"/>
		<path class="st8" d="M252.6,18c0,0,0.1,0,0.2,0v2.9c-0.2,0-0.3,0-0.5,0s-0.2,0-0.3,0c-1.1,0-1.9,0.4-2.3,1.1
			c-0.2,0.4-0.3,1-0.3,1.9v5.1h-2.8V18.2h2.7v1.9c0.4-0.7,0.8-1.2,1.1-1.5c0.5-0.4,1.2-0.7,2-0.7C252.5,18,252.5,18,252.6,18z"/>
		<path class="st8" d="M257.3,17h-2.8v-2.6h2.8V17z M254.5,18.2h2.8v10.6h-2.8V18.2z"/>
		<path class="st8" d="M264.2,22.4c0.5-0.1,0.9-0.1,1.1-0.2c0.4-0.2,0.6-0.4,0.6-0.8c0-0.4-0.2-0.7-0.5-0.9s-0.8-0.2-1.4-0.2
			c-0.7,0-1.1,0.2-1.4,0.5c-0.2,0.2-0.3,0.6-0.4,1h-2.7c0.1-0.9,0.3-1.7,0.8-2.3c0.7-0.9,2-1.4,3.8-1.4c1.2,0,2.2,0.2,3.1,0.7
			c0.9,0.5,1.4,1.3,1.4,2.6v4.9c0,0.3,0,0.7,0,1.2c0,0.4,0.1,0.6,0.2,0.7c0.1,0.1,0.2,0.2,0.4,0.3v0.4h-3c-0.1-0.2-0.1-0.4-0.2-0.6
			c0-0.2-0.1-0.4-0.1-0.6c-0.4,0.4-0.8,0.8-1.3,1.1c-0.6,0.3-1.3,0.5-2,0.5c-1,0-1.8-0.3-2.4-0.8s-0.9-1.3-0.9-2.3
			c0-1.3,0.5-2.3,1.5-2.8c0.6-0.3,1.4-0.5,2.5-0.7L264.2,22.4z M265.9,23.7c-0.2,0.1-0.4,0.2-0.5,0.3c-0.2,0.1-0.4,0.1-0.7,0.2
			l-0.6,0.1c-0.6,0.1-1,0.2-1.3,0.4c-0.4,0.3-0.7,0.6-0.7,1.2c0,0.5,0.1,0.8,0.4,1c0.3,0.2,0.6,0.3,1,0.3c0.6,0,1.2-0.2,1.7-0.5
			s0.8-1,0.8-1.9V23.7z"/>
	</g>
</g>
</svg>
