<?xml version="1.0" encoding="utf-8"?>
<!-- Generator: Adobe Illustrator 24.3.0, SVG Export Plug-In . SVG Version: 6.00 Build 0)  -->
<svg version="1.1" id="Layer_1" xmlns="http://www.w3.org/2000/svg" xmlns:xlink="http://www.w3.org/1999/xlink" x="0px" y="0px"
	 viewBox="0 0 425.2 425.2" style="enable-background:new 0 0 425.2 425.2;" xml:space="preserve">
<style type="text/css">
	.st0{fill:#231F20;stroke:#FFFFFF;stroke-miterlimit:10;}
	.st1{fill:#FFFFFF;}
	.st2{fill:none;stroke:#FFFFFF;stroke-width:3;stroke-miterlimit:10;}
	.st3{fill:none;stroke:#FFFFFF;stroke-miterlimit:10;}
	.st4{fill:#FFFFFF;stroke:#000000;stroke-miterlimit:10;}
	.st5{fill:none;stroke:#DA5027;stroke-miterlimit:10;}
	.st6{fill:url(#SVGID_1_);}
	.st7{fill:url(#SVGID_2_);}
	.st8{fill:url(#SVGID_3_);}
	.st9{fill:#FFFFFF;stroke:#000000;stroke-width:3;stroke-miterlimit:10;}
	.st10{stroke:#FFFFFF;stroke-miterlimit:10;}
	.st11{font-family:'Consolas';}
	.st12{font-size:12px;}
	.st13{fill:#FEFEFE;}
	.st14{stroke:#FFFFFF;stroke-width:3;stroke-miterlimit:10;}
	.st15{font-size:17.8154px;}
	.st16{fill:url(#SVGID_4_);}
	.st17{fill:url(#SVGID_5_);}
</style>
<rect width="425" height="586"/>
<ellipse class="st0" cx="95.2" cy="151.5" rx="70.8" ry="71"/>
<path class="st1" d="M94.7,80c-39.9,0-72.3,32.2-72.3,72c0,39.8,32.4,72,72.3,72c39.9,0,72.3-32.2,72.3-72
	C167,112.2,134.6,80,94.7,80z M143.4,200.5c-13,12.9-30.3,20.1-48.7,20.1c-18.4,0-35.7-7.1-48.7-20.1c-13-12.9-20.2-30.1-20.2-48.5
	S33,116.5,46,103.5c0.3-0.3,0.6-0.6,0.9-0.9c-0.2,0.7-0.5,1.5-0.9,2.1c-1,1.5-2.7,2.1-3.8,3.6c-1,1.3-1.8,3.3-2.1,4.7
	c-0.4,1.6-0.2,3.5-0.7,5.1c-0.7,2-2,3.2-1.8,5.5c2.8,0.8,1.6-4.1,3.9-4.4c0.7,1.8,0.3,5.3,0,7.3c-0.3,2.8-0.8,3.5,0.8,5.8
	c1.3,1.9,1.8,3.1,4.3,3.4c2.3,0.3,3.3,1.3,4.3,3.6c1.8,0.4,2.9,0.7,3.1,2.7c0.8,0.4,2.2,1.8,3.1,2c1.2,0.3,3.2-1.4,4.3-0.1
	c1.9,2.2-2.4,7.9-3.1,9.8c-1.1,2.9-1.3,7.1,1.5,9.2c1.4,1.1,2.9,1.6,3.4,3.5c0.4,1.8,0.1,3.3,0.9,4.9c1.2,2.6,4.1,3.5,6.1,5.5
	c2.6,2.6,2.5,6,2.5,9.8c0,3.9,1.5,6.9,2,10.4c0.5,3.7,1.6,7.1,2.4,10.6c0.6,2.7,2.9,6.7,6.3,6.2c0.2-1.3-1.1-2.3-1.3-3.5
	c-0.2-1.1,0.2-2.3-0.1-3.6c-0.5-2.4-0.4-3.8,1.2-5.9c0.6-0.7,1.4-1.4,1.9-2.1c1.1-1.4,0.3-1,0.2-2.6c-0.1-2,0.5-1,1.7-1.6
	c0.6-0.3,1.3-1.3,1.8-1.8c1-1.1,2.7-2.4,3.5-3.7c0.9-1.4,0.8-3.5,1.7-4.9c1.1-1.7,2.6-1.7,4.1-2.8c1.9-1.4,1.1-3,1.5-4.9
	c0.6-3.3,2.1-7,4.2-9.6c2.6-3.3,3.8-6.1,0.6-9.3c-1.6-1.6-2.4-1.2-4.5-1.7c-1.6-0.4-3-1.6-4.7-1.8c-1-0.1-1.6,0.2-2.4,0
	c-0.8-0.2-0.7-0.7-1.6-0.7c-1.3,0-3.1,2.7-4.2,1c-0.6-1,1.3-3.6,1.2-4.9c-0.1-1.6-0.7-4.2-2.3-5.1c-0.6-0.3-1.9-0.4-2.6-0.7
	c-0.9-0.3-1.7-0.9-2.5-1.3c-1-0.6-2.9-1.7-3.4-2.9c-1.2,0-2.1-0.7-3.3-0.7c-1.1,0-1.9,0.5-3.1,0.4c-1.1-0.1-2.2-1-3.3-0.8
	c-0.8,0.1-1.9,1.1-2.6,1.5c-1.7,1-3.6,1.7-5.5,2c-3,0.6-3.5-0.6-3.3-3.3l-0.4-0.9c1.1-3.1-0.9-3.3-3.1-4c-0.3-2.2,2.4-3.7,1.3-6.1
	c-2.3-0.1-4.8,6.3-6.7,3.5c-1.3-1.8,0.7-6.9,1.8-8.5c1.1-1.6,5.2-4.4,7.2-4.6c1.5-0.2,2.8,0.5,3.4,1.8c0.6,1.4-0.2,2.8,0,4.4
	c1.9-0.4,1.4-2.9,1.3-4.2c-0.1-2.2,1-2,2.1-3.6c1-1.4,1.2-3.1,2.4-4.5c1-1.1,2.2-2.2,3.2-3.2c1.2-1.1,2.6-1,3.9-1.9
	c1.9-1.3-0.6-3.6,2.2-3.5c1,0.1,0.5,0.7,1.9,0.4c0.6-0.1,1.6-0.7,2.2-0.9c2.7-1.1,0.8-1.4-0.5-2.8c-1.6-1.8,0.7-1.5,2.3-1.8
	c1.2-0.2,0.9-0.6,2,0.1c0.9,0.6,0.4,1.4,1.7,1.4c2.6-0.1,0.8-2.7,0.2-3.5c-1-1.5-1.2-2.5-3.3-2.5c0.2-0.7,0.2-1.5-0.1-2.2
	c-1.7,0.2-2-1-3.4-1.5c-2.2-0.8-1.9,1-2.8,2.2c-0.9,1.3-2.7,1.1-3.4,2.6c-0.7,1.6,0,2.9-2.6,2.4c0.4-1,0.2-2.2,0.2-3.3
	c-0.8-0.1-1.5-0.3-2.2-0.5c0-2.6,2.9-2.8,4.9-3.1c2.2-0.3,2.9-2.5,4.9-2.9c1.8-0.4,3.2,2.6,5.4,0.9c1.3-1,0.7-1.6,0.2-2.5
	c-0.1-0.3-0.8-0.8-1-1.1c0,0,0-0.1,0-0.1c1.8-0.3,3.5-0.6,5.3-0.8c0.3,1,1.1,2.1,1.5,2.8c0.3,0.5,0.8,0.8,1.1,1.4
	c0.3,0.6-0.4,1.4,0.4,1.8c1.2,0.6,4.7-3.6,5.6-4.2c1.1-0.9,1.7-1.3,1.5-2.2c5.7,0.2,11.2,1,16.5,2.5c0.4,0.5,0.9,1.1,1.3,1.7
	c0.9,1.3,1.5,2.5,3.2,3c1,0.3,4.1,0.3,2.8,2.5c-1.2,2.1-2.5-0.6-3.1-1.3c-0.8-0.9-3.3-1.9-3.2,0.2c0.1,3.1,7,2.6,5.6,5.9
	c0.8,0.5,2.5,1.3,2.2,2.5c-0.3,1.5-2.3,0.5-2.2,2.4c0.1,2.7,3,4.9,5.8,3.9c2.9-1,0.7-5.1,4.1-5.5c1.3-0.2,2.1,0.2,3.3,1.2
	c1,0.8,1.6,2.5,2.9,2.4c0.1-0.8-0.5-1.4-0.6-2.2c1,0.3,3.1,1.5,3.7,2.4c0.9,1.3,0.8,3.3,3,1.6c-0.3-0.3-0.5-0.9-0.7-1.1
	c2.8,0,4.7,1.2,5.9,3.6c2.7,5.4-3.9,1.1-4.2,3.9c-1.6-0.5-2.3-1.8-3.7-2.6c-0.7-0.4-1.9-0.2-2.4-0.5c-0.7-0.5-0.5-1.4-1.1-2
	c-2.4-2-8,1.2-10.2,2.5c-0.6,0.3-1.3,0.4-1.7,1c-0.7,1.1,0.3,1.4,0.1,2.5c-0.3,1.5-2.3,2.2-2.9,3.4c-1.4,2.9,1.5,7,1.1,10.2
	c-0.2,1.8-2.1,3.7-1.4,5.2c0.3,0.6,1.4,1.2,1.8,1.9c0.4,0.7,0.5,1.6,1.1,2.3c1.6,2.3,4,4.8,5.9,7c1.1,1.2,2.6,1.6,4.2,1.2
	c1.4-0.3,3.4-0.7,4.7-1.3c1.7-0.8,1.9-1.9,3.7-1.2c1.4,0.6,2.6,2.4,4.3,0.9c1.4,1.3-0.1,3.6-0.4,5.1c-0.4,1.9,0.4,3.5,1.5,5.1
	c1.4,1.9,1.7,2.3,1.4,4.8c-0.2,2-0.7,3.8-1.2,5.8c-0.4,1.9-1.6,3.3-1.6,5.3c0.1,1.9,0.9,3.3,0.6,5.3c-0.2,1.7-0.3,3.8-0.8,5.5
	c-0.5,1.8-1.7,3.3-2.2,5.1c-0.5,1.7-0.4,3.9,0.8,5.3c1.2,1.5,2.5,0.6,4-0.5c2.9-2.2,4.2-5.9,6.1-8.8c2-3,3.9-5.8,5.2-8.9
	c0.3-0.7,0.6-1.3,1-2C157.7,182,151.7,192.1,143.4,200.5z"/>
<line class="st2" x1="95.2" y1="81.6" x2="94.5" y2="221.5"/>
<path class="st3" d="M94.5,216.7C4,181.4,44.2,102.4,44.2,102.4"/>
<path class="st3" d="M95.4,216.6c90.5-35.3,50.3-114.3,50.3-114.3"/>
<path class="st3" d="M95,218c-22.7-17.3-33-62.6-33-62.6C54,114.7,73.3,84,73.3,84"/>
<path class="st3" d="M113,84c0,0,28.8,28.2,12,83.6c0,0-9.6,40.3-31,49.4"/>
<path class="st3" d="M40.4,106.6c0,0,57.3-25,112.5,3.7"/>
<path class="st3" d="M26,145c0,0-1.1-13,69.4-18.5c0,0,47-5,70.5,24"/>
<path class="st3" d="M32.4,184.2c0,0,12.2-24,62.4-21.1c0,0,46.7-4.2,62.2,23.1"/>
<path class="st3" d="M31.3,181.9c0,0,24.7,37.5,63.2,33.8"/>
<path class="st3" d="M164.5,166.3c0,0-21.5,55.2-70.5,49.3"/>
<path class="st3" d="M61.9,214.1c0,0-12.9-11.2,15.6-17.2c0,0,28.9-3,35.4,0.8c0,0,27.6,6.3,12.1,17.5"/>
<path class="st3" d="M94,215c-2.5,5.2-27.7,2.1-27.7,2.1"/>
<path class="st3" d="M135.1,210.2c0,0-38.6,17.5-41.1,2.4"/>
<ellipse class="st4" cx="370.5" cy="210" rx="19" ry="19.5"/>
<path class="st5" d="M255.6,124.1"/>
<g>
	<linearGradient id="SVGID_1_" gradientUnits="userSpaceOnUse" x1="329.8088" y1="302.6281" x2="105.1485" y2="77.9677">
		<stop  offset="0" style="stop-color:#F7941D"/>
		<stop  offset="1" style="stop-color:#BE1E2D"/>
	</linearGradient>
	<path class="st6" d="M370.5,210c0.9,2.1,2,4.1,3.5,5.8c1.4,1.7,3.3,3.1,5.5,3.8c2.1,0.7,4.5,0.5,6.6-0.1c2.1-0.6,4.2-1.7,5.9-3l0,0
		c1.6-2,2.8-4.3,3.5-6.7c0.7-2.4,0.8-5,0.6-7.5c-0.3-2.5-0.9-5-1.8-7.4c-0.5-1.2-1-2.3-1.6-3.5c-0.3-0.6-0.6-1.1-0.9-1.7l-0.5-0.8
		c-0.1-0.2-0.4-0.5-0.6-0.7c-3.2-3.9-7.4-7.1-12-9c-4.7-2-9.8-2.7-14.8-2.4c-2.5,0.1-5,0.5-7.5,1.1c-0.6,0.2-1.2,0.3-1.8,0.5
		c-0.6,0.2-1.2,0.4-1.8,0.7c-1.2,0.5-2.3,1-3.4,1.7c-4.4,2.4-8.2,5.9-10.7,10.3c-2.5,4.3-3.7,9.3-4,14.3c-0.2,5,0.4,10.2,1.8,14.9
		l-0.1-0.1c2.4,4.9,5.6,9.5,9.6,13.1c4,3.7,8.8,6.3,14.1,7.5c5.2,1.3,10.8,1.2,16.1,0.3c5.3-1,10.6-2.7,15.4-5.2
		c4.7-2.4,8.3-6.7,10.6-11.5c2.2-4.8,3-10.3,2.4-15.7c-0.5-5.4-2.3-10.6-5-15.2c-2.7-4.7-6.3-8.8-10.4-12.4c-4.1-3.6-8.7-6.6-13.6-9
		c-2.4-1.2-5-2.3-7.5-3.4c-2.6-1-5.2-1.9-7.8-2.8c-10.5-3.4-21.5-5.5-32.4-8c-10.9-2.5-21.7-5.2-32.6-7.5
		c-10.9-2.4-21.8-4.6-32.8-5.8c-11-1.3-22.1-1.8-33.2-1.7c-11.1,0.2-22.2,1-33.2,2.5c-11,1.5-21.9,3.6-32.9,5.9
		c-10.9,2.3-21.7,4.9-32.5,7.6c-21.6,5.6-42.9,12-64.1,18.9l-7.9,2.6c-2.6,0.9-5.3,1.9-7.9,2.7c-5.3,1.7-10.9,3.1-16.6,2.5
		c-2.8-0.3-5.6-1.2-8.1-2.5c-2.5-1.4-4.6-3.4-5.9-6c-1.3-2.6-1.5-5.5-0.9-8.3c0.6-2.7,2.3-5.3,4.8-6.6c-2.5,1.4-4,4-4.5,6.7
		c-0.5,2.7-0.1,5.6,1.1,8c1.2,2.4,3.3,4.4,5.8,5.7c2.4,1.3,5.1,2,7.8,2.3c5.5,0.5,11-0.9,16.2-2.7c2.6-0.9,5.2-1.9,7.9-2.8l7.9-2.8
		c10.5-3.7,21.2-7.1,31.9-10.4c10.7-3.3,21.4-6.4,32.2-9.3c10.8-2.9,21.6-5.6,32.6-8c10.9-2.4,21.9-4.6,33-6.1
		c11.1-1.6,22.3-2.4,33.5-2.6c11.2-0.2,22.4,0.3,33.6,1.6c11.2,1.2,22.2,3.4,33.1,5.8c10.9,2.4,21.8,5,32.7,7.4
		c10.8,2.5,21.8,4.7,32.6,8.2c2.7,0.9,5.3,1.8,8,2.9c2.6,1,5.2,2.2,7.8,3.5c5.1,2.6,9.9,5.7,14.2,9.5c4.3,3.8,8.1,8.2,10.9,13.2
		c2.9,4.9,4.8,10.6,5.3,16.3c0.5,5.8-0.3,11.7-2.7,17c-1.2,2.7-2.9,5.1-4.8,7.3c-2,2.2-4.3,4-6.9,5.4c-5.1,2.6-10.6,4.4-16.2,5.4
		c-5.6,1-11.5,1-17.1-0.4c-5.6-1.4-10.8-4.3-15-8.2c-4.2-3.9-7.4-8.8-9.9-13.9l0-0.1l0-0.1c-0.8-2.6-1.2-5.2-1.5-7.8
		c-0.3-2.6-0.4-5.2-0.2-7.9c0.3-5.2,1.6-10.5,4.4-15.1c2.7-4.6,6.8-8.3,11.4-10.8c1.2-0.6,2.3-1.2,3.6-1.7c0.6-0.3,1.2-0.5,1.8-0.7
		c0.7-0.2,1.3-0.4,1.9-0.6c2.6-0.6,5.2-0.9,7.8-1c5.2-0.2,10.6,0.7,15.4,2.8c4.8,2.1,9.1,5.4,12.3,9.5c0.2,0.3,0.4,0.5,0.6,0.8
		c0.2,0.3,0.3,0.6,0.5,0.8c0.3,0.6,0.6,1.1,0.9,1.7c0.6,1.2,1.1,2.4,1.5,3.6c0.9,2.4,1.5,5,1.8,7.6c0.2,2.6,0,5.3-0.7,7.8
		c-0.7,2.5-2,4.8-3.7,6.9l0,0l0,0c-1.9,1.4-3.9,2.4-6.2,3c-2.2,0.6-4.6,0.7-6.8,0c-2.2-0.7-4.1-2.2-5.5-3.9
		C372.4,214.1,371.4,212.1,370.5,210z"/>
</g>
<g>
	<linearGradient id="SVGID_2_" gradientUnits="userSpaceOnUse" x1="1.2358" y1="144.3497" x2="183.5" y2="144.3497">
		<stop  offset="0" style="stop-color:#27AAE1"/>
		<stop  offset="1" style="stop-color:#00A651"/>
	</linearGradient>
	<path class="st7" d="M29.4,118.8c-4.1,1.2-7.9,3.2-11.4,5.6c-3.4,2.4-6.5,5.4-8.9,8.9c-2.4,3.4-4,7.3-4.6,11.4
		c-0.6,4,0,8.2,1.6,11.9l0-0.1c2,3.8,5,7.1,8.5,9.6c3.5,2.6,7.5,4.5,11.6,5.8c2.1,0.6,4.2,1.1,6.3,1.5c2.2,0.3,4.4,0.6,6.7,0.9
		c4.5,0.6,8.9,0.9,13.4,1.3c8.9,0.6,17.9,0.8,26.8,0c8.9-0.7,17.7-2.2,26.3-4.6c2.2-0.6,4.3-1.4,6.4-2l6.6-1.9
		c4.4-1.2,8.7-2.4,13-3.7c8.6-2.6,17-5.7,24.8-10c3.8-2.2,7.5-4.7,10.8-7.6c0.4-0.3,0.8-0.7,1.2-1.1l1.2-1.2
		c0.8-0.8,1.6-1.5,2.3-2.4l2.2-2.5c0.7-0.9,1.3-1.8,1.9-2.7l1-1.4c0.3-0.5,0.5-0.9,0.8-1.4c0.5-1,1-2,1.3-3c0.8-2,1.3-4.2,1.5-6.3
		c0.1-2.1-0.1-4.3-1-6.3c-0.8-2-2.2-3.7-4-5.1l0,0c-2.4-1.5-5-2.8-7.8-3c-1.4-0.1-2.8,0.1-4.1,0.8c-1.3,0.6-2.3,1.6-3.3,2.7
		c0.8-1.2,1.8-2.2,3.1-3c1.3-0.8,2.8-1.1,4.2-1.1c1.5,0,2.9,0.4,4.3,0.9c1.4,0.5,2.7,1.2,4,1.9l0,0l0,0c1.9,1.4,3.5,3.2,4.6,5.3
		c1,2.2,1.5,4.6,1.4,6.9c0,2.4-0.5,4.7-1.3,6.9c-0.4,1.1-0.8,2.2-1.3,3.3c-0.3,0.5-0.5,1.1-0.8,1.6L178,137c-0.6,1-1.3,2-1.9,2.9
		l-2.2,2.7c-0.7,0.9-1.5,1.8-2.3,2.6c-0.8,0.8-1.6,1.7-2.4,2.5c-3.4,3.2-7.2,5.8-11.1,8.3c-4,2.3-8.1,4.4-12.3,6.1
		c-4.2,1.7-8.5,3.3-12.9,4.7c-4.3,1.4-8.7,2.7-13,3.9l-6.5,1.9c-2.2,0.6-4.3,1.4-6.5,2c-2.2,0.6-4.4,1.3-6.7,1.7
		c-2.2,0.6-4.5,1-6.7,1.4c-4.5,0.8-9.1,1.3-13.7,1.6c-9.1,0.7-18.3,0.5-27.4-0.2c-4.5-0.4-9.1-0.9-13.6-1.5c-2.3-0.3-4.5-0.6-6.8-1
		c-2.3-0.4-4.6-1-6.8-1.8c-4.4-1.5-8.7-3.7-12.4-6.6c-3.7-2.9-6.9-6.6-9-10.8l0-0.1l0,0c-1.6-4.2-2.1-8.8-1.3-13.2
		c0.8-4.4,2.9-8.4,5.5-11.9c2.7-3.5,5.9-6.4,9.6-8.7C21.2,121.4,25.3,119.7,29.4,118.8z"/>
</g>
<g>
	<linearGradient id="SVGID_3_" gradientUnits="userSpaceOnUse" x1="167.055" y1="196.1232" x2="408.9221" y2="196.1232">
		<stop  offset="0" style="stop-color:#27AAE1"/>
		<stop  offset="1" style="stop-color:#00A651"/>
	</linearGradient>
	<path class="st8" d="M370.8,210.2c-2.4-2.5-3.8-5.8-4-9.3c-0.3-3.4,0.4-6.9,1.9-10.1l0,0l0,0c1.4-2.4,3.5-4.5,6.1-5.6
		c2.6-1.1,5.5-1.3,8.3-0.9l0,0l0,0c3.9,1,7.7,2.8,11,5.1c3.3,2.3,6.3,5.2,8.7,8.5c2.4,3.3,4.3,7,5.1,11.1c0.9,4,0.6,8.4-0.9,12.3
		l0-0.1c-1.3,4.2-3.3,8.1-6,11.5c-2.6,3.5-5.8,6.5-9.3,9c-7,5.1-15.1,8.4-23.4,10.4l-0.1,0l-0.1,0c-6.1,0.7-12.3,0.5-18.4-0.7
		c-3-0.6-6-1.4-8.9-2.6l-4.2-1.8l-4.2-1.8c-11.1-4.9-21.7-10.7-32.1-16.8c-10.4-6.1-20.6-12.4-30.9-18.7c-1.3-0.8-2.6-1.5-3.9-2.4
		l-3.8-2.6l-7.4-5.2c-4.9-3.4-9.9-6.8-15-9.9l0,0l0,0c-10-7.3-19.9-14.8-29.8-22.3l-14.8-11.3c-4.9-3.7-9.9-7.5-14.9-11.1l0,0
		c-4-2.1-8.1-4.2-12.4-5.7c4.3,1.4,8.5,3.3,12.6,5.3l0,0l0,0c5.1,3.5,10.2,7.1,15.2,10.7c5,3.6,10.1,7.2,15.1,10.9
		c10,7.3,20,14.6,30.2,21.7l-0.1,0c5.2,3.1,10.3,6.4,15.3,9.8l7.4,5.1l3.7,2.5c1.2,0.8,2.6,1.6,3.8,2.3c10.3,6.2,20.6,12.5,31,18.5
		c10.4,6,21,11.6,31.9,16.6l4.1,1.8l4.1,1.7c2.7,1.1,5.5,1.9,8.4,2.5c5.7,1.2,11.7,1.4,17.5,0.8l-0.2,0c8.1-1.9,15.9-5.1,22.6-9.9
		c3.3-2.4,6.4-5.2,8.9-8.4c2.5-3.2,4.5-6.8,5.8-10.7l0-0.1l0,0c1.5-3.5,1.8-7.4,1-11.1c-0.7-3.7-2.4-7.3-4.6-10.5
		c-2.2-3.2-5-6-8.2-8.2c-3.1-2.3-6.6-4.1-10.4-5.2l0.1,0c-2.6-0.5-5.3-0.4-7.7,0.6c-2.4,0.9-4.5,2.8-5.9,5l0,0
		c-1.5,3-2.3,6.4-2.1,9.7C367.3,204.3,368.5,207.6,370.8,210.2z"/>
</g>
<circle class="st9" cx="177" cy="116" r="6.5"/>
<circle class="st9" cx="19" cy="183" r="6.5"/>
<circle class="st9" cx="229" cy="141" r="6.5"/>
<circle class="st9" cx="337" cy="220" r="6.5"/>
<circle class="st10" cx="373" cy="208" r="9.5"/>
<circle class="st9" cx="366" cy="253" r="6.5"/>
<circle class="st9" cx="203" cy="159" r="6.5"/>
<circle class="st9" cx="10" cy="161" r="6.5"/>
<text transform="matrix(1 0 0 1 15.7021 186.8511)" class="st11 st12">1</text>
<text transform="matrix(1 0 0 1 225.8872 144.7394)" class="st11 st12">2</text>
<text transform="matrix(1 0 0 1 333.8872 223.7394)" class="st11 st12">3</text>
<text transform="matrix(1 0 0 1 368.7656 212.1914)" class="st1 st11 st12">4</text>
<text transform="matrix(1 0 0 1 362.8086 256.3193)" class="st11 st12">5</text>
<text transform="matrix(1 0 0 1 200.085 163.0215)" class="st11 st12">6</text>
<text transform="matrix(1 0 0 1 6.4468 164.6807)" class="st11 st12">7</text>
<text transform="matrix(1 0 0 1 173.6172 120.1704)" class="st11 st12">8</text>
<g>
	<path class="st13" d="M153.9,373.7c-0.6-0.7-1-1.2-1.6-1.9c-0.1,0.9,0,1.8-0.3,1.9c-1.1,0.6-1.7,2.1-3.5,1.9
		c-0.8-0.1-1.6,0.7-2.5,1.1c-0.4,0.1-0.8,0.1-1.5,0.1c-0.5,0.5-0.5,1.2,0.3,2c0.1,0.1,0.2,0.5,0.1,0.6c-0.2,0.1-0.5,0.1-0.7,0.2
		c-0.2,0-0.4,0.1-0.6,0.1c-0.4-0.9-2-1.8-0.1-3.3c-1,0.1-1.7,0.3-2.2,0.2c-0.6-0.1-1.1-0.6-1.7-0.9c-0.1,0.1-0.4,0.5-0.5,0.5
		c-1-0.1-2-0.2-3-0.5c-0.5-0.1-0.9-0.5-1.3-0.8c-0.5-0.5-0.9-1-0.3-1.7c0.1-0.1,0.2-0.4,0.2-0.6c0-0.1-0.3-0.2-0.5-0.2
		c-1.1-0.1-2.3,0-3-1.1c-0.3-0.4-1.7,0.1-1.9,0.7c-0.1,0.2-0.1,0.6-0.3,0.6c-1.3,0.2-2.5,0.4-3.8,0.7c0-0.1-0.1-0.2-0.1-0.3
		c-0.2,0.2-0.4,0.5-0.4,0.6c-0.5-0.1-1.1-0.4-1.2-0.3c-0.7,0.9-2.8,0.3-2.5,2.2c0.1,0.6,0.2,1.2,0.3,1.8c-1.4,0.3-1.5,0.2-1.5-1.3
		c-0.7,0.2-1.4,0.4-2,0.5c-1.3,0.3-1.3,0.3-1.3-1c0-0.1-0.1-0.3-0.1-0.4c-0.7,0-1.3-0.1-1.9-0.1c0.4-0.8,0.8-1.5,1.1-2.2
		c0.3-0.6-0.1-0.9-0.7-1c-1.1-0.1-1.5-0.5-1.6-1.4c-0.5-0.4-0.8-0.8-1.4-1.3c-0.3,0.1-0.9,0.3-1.3,0.4c-0.4-0.6-0.9-1.3-1.3-1.9
		c-0.4-0.6,0.2-1.8,0.8-2c0.2-0.6,0.3-1.1,0.5-1.4c1-1.2,0.7-2.5,0.5-3.8c-0.2-1.5-1.5-2.2-2.2-3.4c-0.1-0.2-0.8,0-1.1-0.1
		c-1-0.2-1.9-0.5-2.9-0.7c0.4-1.4,0.2-1.9-1-2.1c0.1-0.3,0.2-0.7,0.2-1c-1.3-0.8-2-0.6-2.5,0.7c-0.8-0.2-1.6-0.3-2.7-0.6
		c-0.1,0.2-0.4,0.6-0.7,1c-0.1,0.2-0.3,0.6-0.5,0.6c-1.6-0.1-2.2,1.4-3.3,2.1c-0.7,0.4-1.3,0.8-2.1,1.1c-0.6,0.2-0.6,0.9-0.1,1.4
		c0.3,0.3,0.5,0.7,0.5,1.1c0,0.2-0.6,0.5-0.9,0.5c-0.8,0.1-1.6,0-2.4,0.1c-0.2,0-0.5,0-0.6,0.2c-0.6,0.8-1.3,0.6-2,0.1
		c-0.2-0.1-0.6-0.2-0.9-0.2c-1,0-1.3-0.4-1.4-1.4c0-0.7-0.4-1.4-0.7-2c-0.4,0.1-1.1,0.3-1.2,0.4c-0.1,0.8,0.1,1.5,0.1,2.3
		c0,0.5,0.2,1.4-0.1,1.6c-0.4,0.3-1.2,0.2-1.8,0.3c-1.8,0.2-3.2-1.4-5.1-0.8c-0.7,0.2-1.8-0.1-2.1-1c-0.3-0.8-0.9-0.9-1.4-0.8
		c-2.2,0.5-4.1-0.5-6.1-1.1c-0.1,0-0.3-0.1-0.4-0.2c-1.1-1.7-3-2-4.6-2.8c-0.2-0.1-0.4-0.7-0.3-1c0.2-1.1,0.7-2.1,0.8-3.2
		c0.2-1.4-2.4-3.1-3.7-2.7c-0.2,0.1-0.6-0.1-0.7-0.2c-0.4-1-0.7-2-1.1-3c-0.4-0.9-0.9-1.8-1.9-2.2c-0.4-0.2-0.6-0.4-1-0.6
		c-0.3-0.2-0.6-0.3-0.9-0.3c-0.4-0.1-0.9,0-1.3-0.2c-0.9-0.5-2-0.2-3,0.8c-0.4,0.4-0.7,0.9-0.9,1.2c-0.5-0.1-1-0.1-1.4-0.2
		c-0.4-0.1-0.9-0.3-1.3-0.5c-0.5-0.2-1-0.6-1.5-0.8c-0.9-0.3-1.5-0.8-1.7-1.8c-0.2-0.8-0.4-1.7-0.8-2.4c-0.4-0.9,0.2-1.4,0.6-1.9
		c0.5-0.6,0.9-0.8-0.1-1.3c-0.7-0.4-1.3-1.2-2-1.8c-0.2-0.2-0.5-0.2-0.8-0.3c-0.3-0.1-0.8-0.1-0.8-0.3c-0.1-0.4-0.1-1,0.2-1.2
		c0.8-0.6,1.3-1.5,2.5-1.6c1.5,0,1.8-1.4,2.2-2.4c0-0.1-0.1-0.2-0.1-0.2c-1.4,0.5-3.1-0.4-4.4,0.7c-0.7,0.6-1.3,1.2-2,1.7
		c-0.4,0.3-1.1,0.6-1.3,0.5c-0.4-0.3-0.6-0.9-0.8-1.5c-0.1-0.4,0-0.9-0.1-1.3c-0.1-0.3-0.3-0.7-0.4-1c-0.1-0.3-0.3-0.6-0.3-0.8
		c0.2-0.9-0.5-1.1-1-1.2c-0.7-0.2-0.8,0.4-0.9,0.9c-0.1,0.6-0.3,1.2-0.6,1.7c-0.1,0.2-0.5,0.5-0.8,0.5c-1,0-1.2,0.2-1.1,1.1
		c-0.1,0-0.1,0.1-0.2,0.1c-1-0.5-1.8-0.2-2.8,0.5c-1,0.6-1.7,0.1-1.5-1.1c0.1-0.8,0.4-1.5,0.7-2.2c0.2-0.5,0.3-0.9-0.2-1.3
		c-0.2-0.2-0.5-0.6-0.4-0.8c0.5-1.4-0.3-1.2-1.2-0.9c-0.2-0.2-0.4-0.4-0.5-0.7c-0.5-0.9-0.1-1.5,0.9-1.4c1.2,0.1,1.6-0.7,2.1-1.5
		c0.1-0.2,0.4-0.3,0.6-0.4c0.5-0.2,0.9-0.4,1.5-0.6c-0.2-0.3-0.3-0.4-0.4-0.5c-1-0.5-0.7-0.9,0.1-1.2c0.7-0.3,1.4-0.7,2.2-1.2
		c0.6,1.1,1.6,0.7,2.6,0.6c0.4,0,0.8-0.4,1-0.8c0.1-0.2-0.2-0.7-0.5-0.9c-0.3-0.3-0.7-0.5-1.1-0.8c-0.2,1.3-0.7,1.6-1.6,0.7
		c-0.4-0.3-1-0.4-1.6-0.6c0.2-0.3,0.3-0.5,0.4-0.8c0.4-0.9,0.9-1.7,1.1-2.6c0.3-1.1,0.9-0.7,1.5-0.6c1.5,0.2,3.1,0.3,4.8,0.4
		c-0.1-0.9-0.1-1.5-0.2-2.4c1.2,0.1,2.2,0.2,3.3,0.4c1.1,0.2,2.1,0.6,3.3,0c0.7-0.4,1.7-0.4,2.6-0.3c1.6,0.1,3.3,0.3,4.9,0.5
		c0.4,0.1,0.7,0.4,1.1,0.6c0.4,0.3,0.8,0.6,1.2,0.8c0.5,0.2,0.9,0.1,1-0.6c0.2-0.8,0.6-1.6,0.7-2.4c0.1-0.4-0.2-0.9-0.5-1.3
		c-0.7-1.3-1.4-2.5-1.3-4.2c-0.2,0-0.5,0-0.8-0.1c-0.3-0.1-0.5-0.3-0.8-0.5c0.3-0.2,0.5-0.6,0.8-0.7c0.8-0.2,1.6-0.3,2.4-0.4
		c0.6-0.1,1.3,0,1.9-0.1c0.5-0.1,0.9-0.5,1.3-0.8c-0.1-0.1-0.3-0.1-0.4-0.2c-0.1-0.6-0.4-1.2-0.4-1.7c0.1-1.4,0.4-2.8,0.6-4.1
		c0.1-0.7,0.5-0.7,1-0.6c1.2,0.2,2.5,0.5,3.7,0.4c0.7-0.1,1.4-0.8,1.9-1.4c0.2-0.2-0.2-0.8-0.3-1.3c-0.2-0.6-0.3-1.2-0.5-1.8
		c-0.1-0.6,0.2-1,0.8-1.3c0.3-0.2,0.5-0.7,0.8-1.1c0.6-0.7,1.2-1.3,1.8-1.9c0.1-0.1,0.7,0.2,0.8,0.4c0.5,1.9,2.5,2.6,3.3,4.2
		c0.1,0.1,0.2,0.1,0.4,0.2c0.6-0.7,1.1-1.3,1.9-0.3c0.1,0.1,0.4,0.2,0.6,0.2c1.3-0.3,2.1,0.2,2.6,1.5c0.3,0.7,0.8,1.2,1.2,1.8
		c0.3,0.6,0.5,1.2,0.7,1.8c0.1,0.3,0.2,0.6,0.2,0.9c0,0.3,0,0.6-0.1,0.8c-0.6,1-0.3,2.2,0.8,2.6c1.5,0.5,3.1,0.9,4.8,0.4
		c0.6-0.2,1.3,0,1.9,0.3c1,0.4,1.9,1,2.9,1.4c0.6,0.3,1.2,0.4,1.7,0.7c0.6,0.4,1.3,0.9,1.7,1.5c0.8,1.2,1.4,2.5,2.1,3.7
		c0.1,0.2,0.4,0.4,0.7,0.5c2.5,0,4.9,0,7.4-0.1c0.5,0,1-0.4,1.6-0.6c0.4-0.1,0.7-0.1,1.1-0.2c0.4,0,0.9-0.1,1.3,0
		c1.3,0.1,2.5,0.2,3.7,1c1.5,1,3.3,1.4,5.1,2c0.5,0.2,1.2-0.2,1.8-0.3c0.7,1.1,1.4,1.2,2.4,0.2c2.1-2.2,4.8-2.7,7.6-3.4
		c0.7-0.2,1.3-0.5,2-0.7c0.2-0.1,0.4-0.3,0.7-0.3c3-0.3,3-3.4,5.1-4.8c-0.7-0.4-1.1-0.7-1.5-0.9c-1-0.4-1.2-1.2-1.2-2.2
		c-0.1-1.4,1.7-2.3,3-1.8c0.8,0.3,1.6,0.7,2.5,1.1c0.8-0.9,1.5-1.8,2.3-2.7c0.1-0.1,0.4-0.3,0.5-0.3c1.2,0.4,1.8-0.6,2.8-0.9
		c0.2-0.1,0.4-0.4,0.4-0.7c0.1-0.9,0.4-1.6,1.3-2.2c0.9-0.6,2-0.8,2.8-1.8c0.4-0.4,1.7-0.1,2.7-0.1c0.7-1.2,0.6-1.7-0.5-2.7
		c-0.9-0.8-1.5-1.7-2.4-2.4c-0.4-0.4-1.1-0.6-1.7-0.6c-0.7,0-1,0.5-0.9,1.3c0,0.3-0.3,0.6-0.4,1c-1.2-0.6-2.3-1-3.5-0.2
		c-0.6,0.4-1.9-0.5-1.9-1.4c0.1-1.2,0.2-2.5,0.4-3.7c0.2-1.2,0.3-2.5,0.5-3.8c0.6,0,1.2-0.1,1.6,0.2c0.9,0.5,1.4,0,2-0.6
		c0.4-0.4,1-0.6,1.5-0.9c0.3-0.2,0.7-0.6,0.9-0.9c0.1-0.1-0.4-0.5-0.6-0.8c-0.1-0.2-0.3-0.5-0.3-0.7c0-1.4,0.2-2.8-0.1-4.3
		c-0.1-0.6,0.6-1.5,1-2.2c0.5-0.8,0.1-2.8-0.8-3c-0.4-0.1-0.9,0.2-1.4,0.3c-0.4-1,0.5-2.9,1.5-3.2c1.7-0.5,3.3-1.3,5-1.6
		c0.9-0.2,1.9,0.1,2.8,0.4c0.8,0.2,1.5,0.8,2.4,0.2c0.2-0.1,0.7-0.1,0.9,0.1c0.7,0.5,1.4,1,2,1.6c0.8,0.8,1.6,1.5,2.2,2.4
		c0.8,1.1,1.4,2.3,2.1,3.4c0.5,0.8,1.2,1.5,1.8,2.2c0.2,0.3,0.4,0.6,0.6,1c0.8,1.2,0.9,2.8,2.3,3.5c0.3,0.1,0.6,0.3,0.9,0.3
		c0.8,0,1.5,0.1,2.2,0.4c0.5,0.3,1.2,0.2,1.8,0.2c1.4,0.9,2.3,2.9,4.4,2.1c0.2,0.9,0.8,1.8,0.6,2.5c-0.3,1.3,1,1.5,1.2,2.4
		c0.4-0.1,0.7-0.2,1-0.4c0.9,0.9,2.7,0.5,3.1-0.6c0.5-1.4,1.9-2,3-2.8c0.7-0.5,1.7,0.2,1.8,1.1c0.1,0.5,0.5,1,0.7,1.5
		c0.1,0.4,0.2,1.2,0.1,1.3c-0.8,0.4-0.5,1-0.4,1.6c0.2,1.5,0.2,3.1,0.3,4.6c0,0.4-0.1,0.8-0.1,1.3c-0.1,0.9-0.2,1.8-0.3,2.9
		c-0.7-0.1-1.6-0.4-2.4-0.4c-0.4,0-0.8,0.2-1.1,0.4c-0.4,0.4-0.7,0.9-1.2,1.5c1.6,2.1,1.8,4.8,1.8,7.6c-0.9-0.1-1.6,0.1-0.8,1.3
		c-0.1,0-0.3,0.1-0.4,0.1c-0.5-0.5-1-1-1.7-1.6c-0.1,2.3-1.1,3.8-3.1,4.7c0,0.1,0,0.1,0,0.2c0.3,0.5,0.9,1,0.8,1.4
		c-0.1,0.9-1,0.5-1.5,0.5c-1.1,0-2.2,0-3-1.2c-0.1,0.4-0.2,0.8-0.3,1.1c-0.4,0.9-0.7,1.8-1.2,2.6c-0.6,1.1-1.4,2.1-2.1,3.1
		c-0.3,0.5-0.4,1.1-0.8,1.5c-0.1,0.2-0.5,0.4-0.7,0.4c-1.7,0-3,1-4,2.1c-0.7,0.8-1.3,1.6-2.1,2.2c0,0-0.1,0-0.2,0
		c-0.2-0.2-0.4-0.4-0.7-0.8c0.6-0.3,1.1-0.5,1.7-0.7c0-0.3,0.1-0.7,0.1-1c-0.2,0-0.6,0.1-0.7,0.1c-0.2-0.6-0.5-1-0.5-1.5
		c0.1-0.6,0.4-1.3,0.7-1.9c0.1-0.3,0.3-0.5,0.5-0.7c0.5-0.5,0.3-0.8-0.3-1.2c-0.5-0.3-0.9-0.7-1.4-1.1c-0.1,0.1-0.2,0.2-0.4,0.3
		c-0.4,0.1-1.1-0.1-1.2,0.2c-0.5,0.6-0.9,1.4-1.1,2.1c-0.2,0.7-0.5,1.3-1.3,1.5c-1.2,0.3-1.3,1.3-1.3,2.2c-0.2,1.6-0.3,1.8-1.8,1.7
		c-0.4,0-1.2-0.1-1.3,0.1c-0.3,0.6-0.4,1.3-0.3,1.9c0,0.4,0.5,0.8,0.8,1.1c0.1,0.1,0.4,0.2,0.4,0.3c0.5,1.2,1.5,1.1,2.6,1.1
		c0,0.4,0.1,0.6,0.1,0.9c0.2,1.5,1.2,2.1,2.5,1.5c0.1,0,0.2-0.2,0.3-0.3c0.3-0.6,0.6-1.2,1-1.8c0.3-0.6,1.7-0.6,2.2-0.3
		c0.5,0.3,1.2,0.7,1.8,0.7c0.9,0.1,1.9-0.1,2.8-0.2c-0.1,0.8-0.1,1.5-0.2,2.3c-0.1,0.5-0.3,0.8-0.9,0.3c-0.2-0.1-0.7,0-1,0.1
		c-0.8,0.3-1.5,0.6-2.3,1c0,0,0.1,0.2,0.3,0.4c-0.5,0.3-1.1,0.5-1.4,0.9c-0.2,0.2-0.1,0.7-0.1,1.1c0.1,0,0.2,0.1,0.3,0.1
		c-0.5,0.4-1.4,0.7-1.5,1.2c-0.2,1.1-0.2,2.4,0,3.5c0.1,0.4,1,0.8,1.6,0.9c1.4,0.3,1.9,1.3,2.4,2.4c0.3,0.8,0.5,1.7,1.3,2.3
		c0.2,0.1,0.2,0.4,0.2,0.7c0.3,0.7,0.6,1.2,1.5,1.5c0.8,0.3,1.3,1.2,2,1.8c-0.1,0.1-0.1,0.2-0.2,0.3c-1-0.1-2.1-0.2-3.1-0.3
		c0.8,1.4,3.2,1.4,3.6,3.3c-0.6,0.4-1.3,0.6-1.7,1.1c-0.4,0.7-0.9,0.8-1.7,0.5c0.5,0.9,0.9,1.7,1.9,0.7c0.1-0.1,0.7,0.1,1,0.3
		c0.5,0.3,0.9,0.7,1.5,1.1c-0.5,0.4-1.2,0.9-1.8,1.4c0.1,0.1,0.1,0.2,0.2,0.2c0.6-0.3,1.2-0.6,1.9-1c0.1,0.3,0.2,0.7,0.3,1.1
		c-0.6,0.2-1.3,0.4-1.9,0.6c0,0.1,0,0.2,0.1,0.3c0.3,0,0.6,0.1,1,0.2c-0.2,0.6-0.3,1.1-0.5,1.7c0.1,0.1,0.3,0.2,0.7,0.4
		c-0.1,0.2-0.2,0.5-0.4,0.5c-1.6,0.2-1.6,1.4-1.7,2.6c0,0.3-0.4,0.7-0.7,1.1c-0.1-0.1,0.1,0,0.3,0.2c-0.7,0.1-0.6,1.5-1.8,0.7
		c-0.1,0.2-0.2,0.5-0.3,0.7c0.6,0.1-0.2,1.6,1.1,1.2c-0.4,0.3-0.8,0.5-1.4,0.8c0.3,0.1,0.6,0.2,0.6,0.2c0,0.8,0.1,1.6,0.1,2.4
		c-0.2-0.3-0.4-0.5-0.9-1c-0.1,0.6-0.2,0.9-0.3,1.4c0,0-0.2-0.1-0.6-0.2c0.2,0.4,0.4,0.7,0.6,1.1c-0.3,0-0.5-0.1-0.9-0.1
		c0.2,0.3,0.4,0.6,0.5,0.7c-0.8,0.2-1.6,0.5-2.3,0.7c0,0.1,0,0.2,0,0.3c0.4,0.1,0.7,0.2,1.3,0.3c-0.9,0.6-1.6,1.2-2.5,1.9
		c-1.1-0.1-1.1-0.1-1.5,2c-1.1,0.4-2.1,0.8-3.2,1.2C155.8,372.1,154.7,372.8,153.9,373.7z M161.5,341.2c0.8,0,2.1-0.4,2.3-0.1
		c0.9,1.2,1.5,0.8,2.4,0c-0.9,0.4-1.9,0.9-2.2-0.7C163.2,341.1,162,340.2,161.5,341.2z"/>
	<path class="st13" d="M172.3,374.8c-0.2-0.2-0.3-0.4-0.5-0.6c-0.3-0.4-0.4-0.9-0.8-1.1c-0.9-0.5-1.1-1.3-1.2-2.1
		c-0.1-1-0.2-2.1,0.1-3c0.6-1.5,1-3.2,2.4-4.2c0.2-0.1,0.4-0.3,0.6-0.2c0.6,0.1,1.2,1.3,1.1,1.9c-0.2,1.6-0.4,3.2-0.6,4.8
		c0,0.4,0,1-0.2,1.2c-0.8,0.9-1,2-0.7,3.2C172.6,374.6,172.4,374.7,172.3,374.8z"/>
	<path class="st13" d="M143.1,386c0,0-0.2-0.1-0.4-0.2c-1.6-0.5-2.2-1.2-2.2-2.8c0-0.2,0.1-0.3,0.2-0.5c1.3-1.5,3-2.2,4.9-2
		c0.8,0.1,1.4,0.8,0.9,1.7c-0.3,0.6-0.4,1.3-0.7,1.8c-0.3,0.5-0.9,0.9-1.4,1.3C144.1,385.6,143.7,385.7,143.1,386z"/>
</g>
<circle class="st14" cx="301.5" cy="320.5" r="10"/>
<text transform="matrix(1 0 0 1 297.7021 325.6133)" class="st1 st11 st15">1</text>
<path class="st13" d="M127.6,502c0.1-0.4,0.3-0.7,0.4-1.1c0.2-0.5,0.4-0.7,0.9-0.2c0.2,0.2,0.7,0.2,0.8,0.1c0.9-0.8,1.9-1.3,3.2-1
	c0.4,0.1,0.8-0.2,1.2-0.2c0.1,0,0.3,0,0.4,0c0.9,0.6,2,0.8,3.1,0.6c0.4-0.1,1.1-0.1,1.2-0.4c0.2-0.3,0.1-1,0-1.4
	c-0.5-1.7-2.2-2.6-3-4c-0.7-1.2-2.2-1.3-2.7-2.6c-0.2-0.4-1.2-0.6-1.9-0.6c-1.1,0-2.2,0.2-2.7,1.4c-0.2,0.4-0.5,0.7-0.8,1.1
	c-1-0.7-1.7-1.8-3.2-1.4c-1.1,0.3-2.5-0.4-3.1,1.3c-0.1,0-0.2,0-0.3,0c-0.5-0.8-1-1.6-1.4-2.5c-0.1-0.2,0.2-0.8,0.5-0.9
	c0.6-0.3,0.7-0.6,0.7-1.2c0-0.6,0.2-1.3,0.5-1.8c0.8-1.9,1.6-3.8,2.4-5.7c0.3-0.7,0.6-1.4,0.9-2.1c1.5,0.6,3,1.2,4.6,1.7
	c0.3,0.1,0.7,0,1-0.2c0.9-0.7,1.8-1.6,2.7-2.2c0.5-0.4,1.2-0.6,1.8-0.7c1.6-0.2,1.7-0.3,1.7-1.9c0-0.2,0.1-0.3,0.1-0.5
	c-0.3-0.1-0.6-0.2-0.8-0.3c0.5-1.1,1.1-2.2,1.6-3.4c0.1-0.2,0.1-0.4,0.2-0.6c1.2-1.3,1.4-3.1,2.2-4.6c0.5-0.9,1.4-1.5,2.2-2.2
	c0.9-0.7,1.1-1.9,0.6-2.8c-0.2-0.5,0-1.2,0-1.9c-0.6-0.5-1.2-0.6-2.1-0.4c-1.3,0.3-0.4-0.8-0.7-1c0.9-1,1.8-1.9,2.6-2.8
	c0.6-0.7,1.1-1.4,2.3-1.1c0.5,0.1,1.1-0.3,1.8,0.2c1,0.8,1.2,1.8,0.4,2.7c-0.6,0.7-1.4,1.4-2.1,2c1,0.9,1.9,1.6,2.9,2.3
	c0.2,0.1,0.8,0,1-0.3c0.3-0.3,0.4-0.7,0.6-1.2c1.2,0.2,1.1,2.2,2.8,1.8c-1,0.7-0.7,1.3-0.5,2c0.2,0.9,0.4,1.9,0.6,2.9
	c0.2,0.9,0.7,1.4,1.5,1.7c0.6,0.2,1.2,0.5,1.8,0.7c0.2,0.1,0.7,0,0.8-0.2c0.6-0.9,1.3-0.5,2.1-0.5c0.3,0,0.6-0.1,0.9-0.2
	c0.1,0,0.2-0.2,0.3-0.2c1.6,0.5,1.9-1,2.7-1.8c0.9,0.1,1.6,0.6,2,1.5c0.3,0.7,1,1.3,1.5,1.9c0.5,0.6,0.9,1.1,0,1.8
	c-0.5,0.4-0.8,0.9-0.6,1.6c0.1,0.2-0.1,0.6-0.2,0.8c-1.4,1.6-2.5,3.2-2.4,5.5c0.1,1,0.1,2.1,0,3.1c0,0.6-0.2,1.1-1,0.7
	c-0.2-0.1-0.7,0.2-0.8,0.5c-0.5,1.2-0.9,2.3-1.2,3.5c-0.2,0.9,0,1.9,0,2.8c-0.1,0-0.2,0.1-0.4,0.1c-0.3-0.8-0.6-1.7-1-2.8
	c-0.8,0.8-1.5,1.6-2.3,2.4c-0.5,0.5-1.1,0.9-1.6,1.4c-0.2,0.2-0.3,0.5-0.5,0.7c-0.5,0.4-1.1,0.8-1.6,1.3c-0.7,0.6-1.5,1.3-2.4,2.2
	c0.8,0.7,1.3,1.3,1.9,1.9c0.2,0.3,0.5,0.6,0.7,0.9c0.8,1.2,1.1,1.2,2.1,0.1c0.2,0.1,0.5,0.3,0.9,0.5c0.1,1.1-0.7,1.6-2.6,1.2
	c0.1,0.7,0.1,1.4,0.3,1.9c0.5,1.1,0.4,1.4-0.8,1.5c-0.1,0-0.2,0-0.3,0.1c-0.1,0.8-0.2,1.5-0.3,2.3c-0.1,0-0.2,0.1-0.3,0.1
	c-0.4-0.5-0.8-0.9-1.2-1.4c-0.2,0.2-0.4,0.4-0.6,0.7c-0.6-0.5-1.3-0.9-1.8-1.3c-0.3,0.8-0.5,1.3-0.7,2c0.1,0,0.4,0.2,0.5,0.1
	c0.5-0.1,0.7,0.1,0.8,0.6c0,0.3,0.3,0.6,0.6,0.8c0.7,0.6,0.6,1.4-0.1,1.9c-0.1,0.1-0.3,0.3-0.3,0.4c0.1,1.2-0.1,2.4,0.7,3.5
	c0.3,0.4,0.4,1.1,0.6,1.8c1.2-0.1,2.2-1.1,3.4-1.8c0.7,1.8,1.3,3.6,1.9,5.3c-1,0.8-1,0.9,0.1,1.6c0.2,0.1,0.5,0.5,0.5,0.7
	c-0.1,0.5-0.3,1.1-0.6,1.3c-0.7,0.4-1.4,0.6-1.8,1.4c-0.3,0.5-1.2,0.8-2,0.3c-0.3-0.2-0.7-0.3-1.3-0.6c0.1,0.6,0.2,0.9,0.4,1.4
	c-0.5-0.1-0.9-0.2-1.3-0.3c-0.5-0.2-0.8-0.2-1,0.4c-0.2,0.4-0.6,0.7-1,1.1c-0.7-0.9-1.3-0.7-1.8,0c-0.6,0.8-1.4,0.8-2.2,1.1
	c-1.4,0.6-2.1,2-3.1,3.2c-0.3-1.6-1.1-2.9-2.4-3.9c-0.2,0.1-0.5,0.3-0.8,0.5c-0.2,0.1-0.4,0.6-0.3,0.6c0.7,0.5,0.2,1.2,0.2,1.7
	c0.1,0.6,0.1,1.3,0.2,1.9c0.2,1.1-0.1,1.5-1.2,1.4c-1-0.1-2.1-0.2-3.2-0.3c-0.2-0.6-0.6-1.5-0.9-2.3c0.8-0.2,0.8-0.2,0.4-1.9
	c-0.1,0.1-0.3,0.2-0.4,0.3c-0.5-1.1-1-2.3-1.5-3.3c-0.6,0-0.9,0.1-1.5,0.1c0,0.1-0.2,0.4-0.3,0.5c-0.6,0.1-1.2,0-1.7,0.2
	c-0.6,0.2-1,0.5-0.7,1.3c0.1,0.4-0.1,1-0.4,1.3c-0.5,0.6-1.2,0.5-1.7-0.1c-0.5,0.4-1,0.8-1.5,1.2c-0.2-0.3-0.4-0.5-0.6-0.8
	c-0.8,0.4-1.9,0.6-2.3,1.3c-0.6,1.1-1.4,0.5-2.1,0.7c-0.1-1.1-0.1-2.1-0.2-3.2c-1.4,0-2.7,1.3-2.9,2.5c0,0.5-0.1,0.9-0.7,1.1
	c-0.7,0.3-0.8,1.2-0.3,1.9c-0.2,0.2-0.4,0.4-0.6,0.7c0.4,0.7,0.8,1.3,1.1,1.7c-0.1,0.6-0.2,1.1-0.3,1.6c-0.7,0.3-1.6,0.7-2.5,1
	c-0.2,0.1-0.7,0.1-0.8,0c-0.7-0.9-1.3-0.3-1.7,0.2c-0.5,0.7-0.9,0.8-1.6,0.4c-0.6-0.4-1.1-0.2-1.4,0.4c-0.4,0.8-0.9,1.6-1.3,2.4
	c-0.3,0.7-0.6,0.9-1.4,0.6c-0.4-0.2-0.7-0.2-1,0.4c-0.2,0.5-0.9,0.8-1.3,1.1c-0.1-0.1-0.1-0.1-0.2-0.2c0.1-0.3,0.1-0.5,0.2-0.9
	c-1.2,0.1-1.5,1.1-2.1,1.8c-0.2-0.3-0.4-0.5-0.6-0.8c-0.7,0.7-1.1,0.1-1.7-0.6c0.1,0.6,0.1,0.9,0.1,0.9c-0.9,1-1.7,1.9-2.6,2.8
	c-0.6,0.7-1.4,1.2-2,1.9c-0.5,0.6-1.1,1.3-0.5,2.2c0.1,0.2-0.1,0.6-0.2,0.8c-1.5-0.2-0.6,1-1.2,1.5c-0.8,0.1-1.7,0.1-2.7,0.2
	c-0.1,0-0.4,0-0.4-0.1c-0.3-1.1-1.6-0.7-2-1.3c-1.2-1.6-3.3-1.2-4.7-2.2c0.7-1.2,1.3-2.4,1.9-3.5c0.1-0.3,0-0.7-0.1-1
	c-0.2-0.5-0.4-1-0.6-1.6c-0.6,0.2-1.2,0.4-1.7,0.5c-0.5,0.4-1,0.6-1.1,1c-0.5,1.1-0.9,2.2-1.2,3.4c-0.2,1-0.1,2-0.2,3.1
	c-0.1,0.9-0.7,1.2-1.5,1.2c-0.6,0-1.4,0.1-1.8,0.5c-0.6,0.7-1.3,0.6-2,0.6c-0.3,0-0.7,0-0.8,0.2c-0.5,0.8-1,0.4-1.4,0.1
	c-1-0.7-1.9-1.4-2.8-2.1c-0.5-0.4-0.3-1.4,0.3-1.9c-0.1-0.4-0.2-0.9-0.4-1.4c0.4-0.2,0.8-0.4,1.1-0.7c0.8-0.8,1.5-1.7,2.1-2.6
	c0.1-0.2-0.1-0.6-0.2-0.9c-0.2-0.5-0.4-0.9-0.7-1.5c-1.3,0-2.6,0.4-3.6,1.2c-0.8,0.6-1.6,0.7-2.4,0.3c-0.8-0.4-1.5-0.2-2.2,0.1
	c-0.4,0.2-0.9,0.3-1.4,0.5c0.3,0.4,0.6,0.7,0.9,1.1c-0.4,0.8-1,1.3-1.9,1c-0.9-0.2-1.6-0.7-1.7-1.7c-1.1,0-1.4-0.4-1.6-2.3
	c-1.1,0-1.8-0.6-2.6-1.4c-0.8-0.8-2.2-1.1-3.4-1.6c0.3-0.3,0.8-0.7,1.2-1.2c0.7-0.9,1.4-1.7,2-2.7c0.3-0.6-0.5-1.8-1.1-1.7
	c-1.5,0.2-3,0.5-4.5,0.8c-0.2,0-0.5,0.3-0.6,0.5c-0.6,0.8-1.4,0.9-2.3,0.8c0-0.1-0.1-0.1-0.1-0.2c0.5-1.2,0.5-2.1-0.8-2.9
	c-0.6-0.4-1.1-1.1-1.5-1.7c-0.3-0.4-0.4-0.8,0.1-1.1c0.5-0.3,0.4-0.7,0.2-1.2c-0.9-2-1.8-4-2.7-6.2c1.9,0.2,3.8,0.5,5.6,0.7
	c1.2,0.2,2.3,0.3,3.5,0.5c0.4,0.1,0.9,0.1,1.3,0c1.6-0.8,3.3-0.3,4.9-0.1c1.1,0.2,2.2,0.2,3.2,0.3c0.8,0.1,1.4,0.2,1.8,1
	c0.4,0.8,1,1.2,1.9,1.4c2.1,0.4,4.1,1,6,2c0.6,0.3,1.6,0,2.5-0.1c0.4,0,0.9-0.2,1.4-0.3c0,0.4,0.1,0.8,0.1,1.2
	c0.7,0.1,1.4,0.2,2.1,0.3c0.1,0,0.2-0.1,0.3-0.2c2.4-1.3,4.8-2.9,7.4-3.7c2.7-0.8,5.7-1.3,8.7-1c1.4,0.1,3,0.3,4.3-0.7
	c0.3-0.3,0.8-0.4,1.3-0.5c1.3-0.4,2.4-1.1,3-2.3c0.8-1.5,2.1-2.3,3.6-2.9c0.7-0.3,1.5-0.7,1.9-1.3c0.2-0.3-0.2-1.1-0.5-1.6
	c-0.5-0.8-1.1-1.5-1.7-2.2c-0.1-0.1-0.1-0.3,0-0.4c0.4-1.1,0.8-2.1,1.3-3.2c0.6-1.3,2.7-1.4,3.7-0.4c0.3,0.4,0.9,0.7,1.4,0.8
	c1,0.3,2,0.4,3,0.6c0.1,0,0.3,0,0.5-0.1c1.4-1.1,3.2-1.9,3.9-3.7c0.1-0.2,0.7-0.4,1.1-0.3c1.7,0.2,3.4,0.3,4.7-1.1
	c0.3-0.3,0.7-0.4,1-0.6c0.3-0.2,0.6-0.6,0.6-0.9c0-1.9,1.9-3.7,3.7-3.4C126.9,502,127.2,502,127.6,502z"/>
<path d="M2478.7,1096.9c-5.6,5.5-5.6,5.5-6.4,14.2C2469.3,1102.5,2470.5,1099.8,2478.7,1096.9z"/>
<path d="M2531,1115.2c0.6-3.8,1.3-8.2,2-12.1C2534.8,1109.2,2533.9,1113.6,2531,1115.2z"/>
<circle class="st14" cx="311.5" cy="464.5" r="10"/>
<text transform="matrix(1 0 0 1 306.7021 470.6133)" class="st1 st11 st15">8</text>
<g>
	<linearGradient id="SVGID_4_" gradientUnits="userSpaceOnUse" x1="138.1088" y1="366.5055" x2="283.1906" y2="329.0241">
		<stop  offset="0" style="stop-color:#F7941D"/>
		<stop  offset="1" style="stop-color:#BE1E2D"/>
	</linearGradient>
	<path class="st16" d="M143.9,384.9l2.3-4.5l2.5-4.4l2.7-4.3c1-1.4,1.9-2.8,2.9-4.1c4.1-5.4,8.7-10.4,13.7-15
		c1.3-1.1,2.5-2.3,3.8-3.4c1.3-1.1,2.6-2.1,4-3.2c1.4-1,2.7-2,4.1-3c1.4-0.9,2.8-1.9,4.3-2.8c5.8-3.6,11.9-6.8,18.2-9.4
		c6.4-2.5,12.9-4.6,19.6-6c6.7-1.4,13.5-2.3,20.3-2.5c6.8-0.2,13.6,0.1,20.3,1l5,0.9l5,1.1l4.9,1.3l4.8,1.6l-0.1,0.3
		c-12.9-3.4-26.4-4.6-39.7-3.7c-13.3,0.9-26.5,3.9-38.9,9c-12.4,5-23.9,12.1-34,20.8c-10.1,8.7-18.8,19.1-25.5,30.7L143.9,384.9z"/>
</g>
<g>
	<linearGradient id="SVGID_5_" gradientUnits="userSpaceOnUse" x1="142.1152" y1="478.5871" x2="271.0066" y2="478.5871">
		<stop  offset="0" style="stop-color:#27AAE1"/>
		<stop  offset="1" style="stop-color:#00A651"/>
	</linearGradient>
	<path class="st17" d="M143.3,504.6l2.2-4.2c0.8-1.4,1.6-2.7,2.4-4.1c0.8-1.4,1.7-2.7,2.6-4l1.3-2l1.4-1.9
		c3.8-5.1,8.1-9.9,12.8-14.3c1.2-1.1,2.4-2.2,3.6-3.2c1.3-1,2.5-2,3.8-3c1.3-0.9,2.6-1.9,4-2.8c1.4-0.9,2.7-1.8,4.1-2.6
		c5.6-3.3,11.7-5.9,18-7.6c6.3-1.7,12.9-2.5,19.4-2.3c6.5,0.2,13,1.3,19.2,3.4c6.2,2.1,12,4.9,17.4,8.4c1.3,0.9,2.6,1.8,3.9,2.8
		c1.3,1,2.5,2,3.8,3c1.2,1.1,2.4,2.1,3.6,3.2l3.3,3.4l-0.2,0.2c-9.3-8.4-20.4-15.1-32.5-18.7c-12.1-3.6-25.1-3.8-37.2-0.5
		c-12.2,3.3-23.3,9.8-32.7,18.1c-9.5,8.3-17.4,18.2-24,29L143.3,504.6z"/>
</g>
<g>
	<g>
		<path class="st1" d="M135.4,15.7c2,1.9,3.1,4.1,3.3,6.5h-3.8c-0.4-1.8-1.3-3.3-2.6-4.4c-1.3-1.1-3.1-1.6-5.4-1.6
			c-2.8,0-5.1,1-6.8,3s-2.6,5-2.6,9.1c0,3.4,0.8,6.1,2.4,8.2c1.6,2.1,3.9,3.1,7,3.1c2.9,0,5-1.1,6.5-3.3c0.8-1.2,1.4-2.7,1.8-4.6
			h3.8c-0.3,3-1.5,5.6-3.4,7.6c-2.3,2.5-5.4,3.7-9.2,3.7c-3.3,0-6.1-1-8.4-3c-3-2.7-4.5-6.8-4.5-12.4c0-4.2,1.1-7.7,3.4-10.4
			c2.4-2.9,5.8-4.4,10-4.4C130.6,12.8,133.4,13.8,135.4,15.7z"/>
		<path class="st1" d="M143.3,13.5h3.5v10.7c0.8-1.1,1.6-1.8,2.2-2.2c1.1-0.7,2.5-1.1,4.2-1.1c3,0,5.1,1.1,6.2,3.2
			c0.6,1.2,0.9,2.8,0.9,4.8v13.4h-3.6V29.1c0-1.5-0.2-2.7-0.6-3.4c-0.6-1.1-1.8-1.7-3.6-1.7c-1.5,0-2.8,0.5-4,1.5
			c-1.2,1-1.8,2.9-1.8,5.7v11.1h-3.5V13.5z"/>
		<path class="st1" d="M176.7,29.6c0.8-0.1,1.3-0.4,1.6-1c0.2-0.3,0.2-0.8,0.2-1.3c0-1.2-0.4-2.1-1.3-2.6c-0.9-0.5-2.1-0.8-3.7-0.8
			c-1.8,0-3.1,0.5-3.9,1.5c-0.4,0.5-0.7,1.4-0.8,2.4h-3.3c0.1-2.6,0.9-4.4,2.5-5.4c1.6-1,3.5-1.5,5.6-1.5c2.5,0,4.5,0.5,6,1.4
			c1.5,0.9,2.3,2.4,2.3,4.4v12.1c0,0.4,0.1,0.7,0.2,0.9c0.1,0.2,0.5,0.3,0.9,0.3c0.2,0,0.3,0,0.5,0s0.4,0,0.6-0.1v2.6
			c-0.5,0.2-1,0.3-1.2,0.3c-0.3,0-0.7,0.1-1.2,0.1c-1.2,0-2.1-0.4-2.6-1.3c-0.3-0.5-0.5-1.1-0.6-1.9c-0.7,0.9-1.7,1.8-3.1,2.4
			c-1.3,0.7-2.8,1-4.4,1c-1.9,0-3.5-0.6-4.8-1.8s-1.8-2.7-1.8-4.4c0-1.9,0.6-3.4,1.8-4.5s2.8-1.7,4.8-2L176.7,29.6z M169.3,39.2
			c0.7,0.6,1.6,0.9,2.6,0.9c1.2,0,2.4-0.3,3.6-0.9c2-1,2.9-2.5,2.9-4.7v-2.8c-0.4,0.3-1,0.5-1.7,0.7c-0.7,0.2-1.3,0.3-2,0.4
			l-2.1,0.3c-1.3,0.2-2.2,0.4-2.9,0.8c-1.1,0.6-1.6,1.6-1.6,2.9C168.2,37.8,168.6,38.6,169.3,39.2z"/>
		<path class="st1" d="M187.8,21.4h3.3v3c1-1.2,2-2.1,3.1-2.6c1.1-0.5,2.3-0.8,3.7-0.8c3,0,5,1,6,3.1c0.6,1.1,0.9,2.8,0.9,4.9v13.4
			h-3.6V29.1c0-1.3-0.2-2.3-0.6-3.1c-0.6-1.3-1.8-2-3.4-2c-0.8,0-1.5,0.1-2.1,0.3c-1,0.3-1.8,0.9-2.5,1.7c-0.6,0.7-1,1.4-1.1,2.1
			s-0.3,1.8-0.3,3.2v11h-3.5V21.4z"/>
		<path class="st1" d="M221.7,22.2c0.7,0.5,1.3,1.1,2,2v-2.6h3.2v19c0,2.7-0.4,4.8-1.2,6.3c-1.5,2.8-4.2,4.3-8.3,4.3
			c-2.3,0-4.1-0.5-5.7-1.5c-1.5-1-2.4-2.6-2.6-4.7h3.6c0.2,0.9,0.5,1.7,1,2.2c0.8,0.8,2,1.2,3.8,1.2c2.7,0,4.5-1,5.3-2.9
			c0.5-1.1,0.7-3.1,0.7-6c-0.7,1.1-1.5,1.9-2.5,2.4c-1,0.5-2.3,0.8-3.9,0.8c-2.3,0-4.2-0.8-5.9-2.4s-2.5-4.3-2.5-8
			c0-3.5,0.9-6.2,2.6-8.2c1.7-2,3.8-2.9,6.2-2.9C219,21,220.5,21.4,221.7,22.2z M222.1,26c-1.1-1.2-2.4-1.9-4.1-1.9
			c-2.5,0-4.2,1.2-5.1,3.5c-0.5,1.2-0.7,2.9-0.7,4.9c0,2.4,0.5,4.2,1.4,5.4s2.2,1.8,3.9,1.8c2.5,0,4.3-1.1,5.3-3.4
			c0.6-1.3,0.9-2.8,0.9-4.5C223.7,29.2,223.2,27.3,222.1,26z"/>
		<path class="st1" d="M233,22c0.7-0.1,1.3-0.5,1.6-1.2s0.6-1.5,0.6-2.4c0-0.1,0-0.2,0-0.2c0-0.1,0-0.2,0-0.2H233v-4.3h4.2v3.9
			c0,1.7-0.3,3.1-1,4.2c-0.7,1.2-1.7,1.8-3.1,2V22z"/>
		<path class="st1" d="M254.2,22c1.4,0.7,2.5,1.6,3.2,2.7c0.7,1.1,1.2,2.3,1.4,3.7c0.2,1,0.3,2.5,0.3,4.6h-15.3
			c0.1,2.1,0.6,3.8,1.5,5.1s2.4,1.9,4.4,1.9c1.8,0,3.3-0.6,4.4-1.8c0.6-0.7,1.1-1.5,1.3-2.4h3.5c-0.1,0.8-0.4,1.6-0.9,2.6
			c-0.5,0.9-1.1,1.7-1.7,2.3c-1.1,1-2.4,1.7-4,2.1c-0.8,0.2-1.8,0.3-2.9,0.3c-2.6,0-4.8-0.9-6.6-2.8c-1.8-1.9-2.7-4.5-2.7-8
			c0-3.4,0.9-6.1,2.7-8.2c1.8-2.1,4.2-3.1,7.1-3.1C251.3,20.9,252.8,21.3,254.2,22z M255.4,30.2c-0.1-1.5-0.5-2.7-1-3.7
			c-1-1.7-2.6-2.5-4.8-2.5c-1.6,0-3,0.6-4.1,1.7s-1.7,2.6-1.7,4.4H255.4z"/>
		<path class="st1" d="M276.9,35.2c0.2,2,1.2,3.4,2.8,4.2c0.8,0.4,1.8,0.6,2.9,0.6c2.1,0,3.6-0.7,4.6-2c1-1.3,1.5-2.8,1.5-4.4
			c0-2-0.6-3.5-1.8-4.5s-2.6-1.6-4.3-1.6c-1.2,0-2.2,0.2-3.1,0.7c-0.9,0.5-1.6,1.1-2.2,2l-3-0.2l2.1-15.1h14.5v3.4H279l-1.2,7.8
			c0.7-0.5,1.3-0.9,1.9-1.1c1-0.4,2.2-0.6,3.6-0.6c2.6,0,4.7,0.8,6.5,2.5c1.8,1.7,2.7,3.8,2.7,6.3c0,2.6-0.8,5-2.5,7
			c-1.6,2-4.2,3-7.8,3c-2.3,0-4.3-0.6-6-1.9c-1.8-1.3-2.7-3.3-2.9-5.9H276.9z"/>
	</g>
</g>
<g>
	<g>
		<path class="st1" d="M226.1,338.1h3.5c1.2,0,2.1,0.4,2.8,1.3c0.6,0.8,0.9,1.7,0.9,2.9c0,0.9-0.2,1.7-0.5,2.5c-0.6,1.3-1.6,2-3.1,2
			h-3.5V338.1z M229.4,345.7c0.4,0,0.7,0,1-0.1c0.5-0.2,0.8-0.4,1.1-0.9c0.2-0.3,0.4-0.8,0.5-1.3c0.1-0.3,0.1-0.6,0.1-0.9
			c0-1.1-0.2-1.9-0.6-2.5s-1.1-0.9-2-0.9h-2.1v6.6H229.4z"/>
		<path class="st1" d="M238.5,340.6c0.4,0.2,0.7,0.5,1,0.8c0.2,0.3,0.4,0.7,0.4,1.1c0.1,0.3,0.1,0.8,0.1,1.4h-4.6
			c0,0.6,0.2,1.1,0.5,1.5s0.7,0.6,1.3,0.6c0.6,0,1-0.2,1.3-0.5c0.2-0.2,0.3-0.5,0.4-0.7h1c0,0.2-0.1,0.5-0.3,0.8s-0.3,0.5-0.5,0.7
			c-0.3,0.3-0.7,0.5-1.2,0.6c-0.3,0.1-0.5,0.1-0.9,0.1c-0.8,0-1.4-0.3-2-0.9s-0.8-1.4-0.8-2.4c0-1,0.3-1.8,0.8-2.5s1.3-0.9,2.1-0.9
			C237.6,340.3,238.1,340.4,238.5,340.6z M238.9,343.1c0-0.5-0.1-0.8-0.3-1.1c-0.3-0.5-0.8-0.8-1.4-0.8c-0.5,0-0.9,0.2-1.2,0.5
			s-0.5,0.8-0.5,1.3H238.9z"/>
		<path class="st1" d="M241.9,344.8c0,0.4,0.1,0.6,0.3,0.8c0.3,0.3,0.7,0.5,1.4,0.5c0.4,0,0.7-0.1,1-0.3s0.4-0.4,0.4-0.8
			c0-0.3-0.1-0.5-0.4-0.6c-0.2-0.1-0.5-0.2-0.9-0.3l-0.8-0.2c-0.5-0.1-0.9-0.3-1.2-0.4c-0.5-0.3-0.7-0.7-0.7-1.2
			c0-0.6,0.2-1.1,0.6-1.4s1-0.6,1.7-0.6c0.9,0,1.6,0.3,2,0.8c0.3,0.4,0.4,0.7,0.4,1.1h-1c0-0.2-0.1-0.5-0.3-0.7
			c-0.2-0.3-0.7-0.4-1.3-0.4c-0.4,0-0.7,0.1-0.9,0.2s-0.3,0.4-0.3,0.6c0,0.3,0.1,0.5,0.4,0.7c0.2,0.1,0.4,0.2,0.7,0.3l0.7,0.2
			c0.8,0.2,1.3,0.4,1.5,0.5c0.4,0.3,0.6,0.7,0.6,1.3c0,0.6-0.2,1-0.6,1.4s-1.1,0.6-1.9,0.6c-0.9,0-1.6-0.2-2-0.6s-0.6-0.9-0.6-1.6
			H241.9z"/>
		<path class="st1" d="M247.2,340.5h1v0.8c0.2-0.3,0.4-0.5,0.7-0.7c0.4-0.2,0.8-0.4,1.3-0.4c0.7,0,1.3,0.3,1.8,0.8s0.7,1.3,0.7,2.3
			c0,1.4-0.4,2.3-1.1,2.9c-0.5,0.4-1,0.6-1.6,0.6c-0.5,0-0.9-0.1-1.2-0.3c-0.2-0.1-0.4-0.3-0.6-0.6v3.2h-1.1V340.5z M251.1,345.4
			c0.3-0.4,0.5-1,0.5-1.8c0-0.5-0.1-0.9-0.2-1.3c-0.3-0.7-0.8-1-1.5-1c-0.7,0-1.2,0.4-1.5,1.1c-0.1,0.4-0.2,0.9-0.2,1.5
			c0,0.5,0.1,0.9,0.2,1.2c0.3,0.6,0.8,1,1.5,1C250.4,346,250.8,345.8,251.1,345.4z"/>
		<path class="st1" d="M257.8,340.6c0.4,0.2,0.7,0.5,1,0.8c0.2,0.3,0.4,0.7,0.4,1.1c0.1,0.3,0.1,0.8,0.1,1.4h-4.6
			c0,0.6,0.2,1.1,0.5,1.5s0.7,0.6,1.3,0.6c0.6,0,1-0.2,1.3-0.5c0.2-0.2,0.3-0.5,0.4-0.7h1c0,0.2-0.1,0.5-0.3,0.8s-0.3,0.5-0.5,0.7
			c-0.3,0.3-0.7,0.5-1.2,0.6c-0.3,0.1-0.5,0.1-0.9,0.1c-0.8,0-1.4-0.3-2-0.9s-0.8-1.4-0.8-2.4c0-1,0.3-1.8,0.8-2.5s1.3-0.9,2.1-0.9
			C257,340.3,257.4,340.4,257.8,340.6z M258.2,343.1c0-0.5-0.1-0.8-0.3-1.1c-0.3-0.5-0.8-0.8-1.4-0.8c-0.5,0-0.9,0.2-1.2,0.5
			s-0.5,0.8-0.5,1.3H258.2z"/>
		<path class="st1" d="M264.1,340.7c0.2,0.1,0.4,0.3,0.6,0.6v-0.8h1v5.7c0,0.8-0.1,1.4-0.4,1.9c-0.4,0.9-1.3,1.3-2.5,1.3
			c-0.7,0-1.2-0.2-1.7-0.5s-0.7-0.8-0.8-1.4h1.1c0.1,0.3,0.2,0.5,0.3,0.7c0.2,0.2,0.6,0.4,1.1,0.4c0.8,0,1.3-0.3,1.6-0.9
			c0.1-0.3,0.2-0.9,0.2-1.8c-0.2,0.3-0.5,0.6-0.8,0.7s-0.7,0.2-1.2,0.2c-0.7,0-1.3-0.2-1.8-0.7s-0.8-1.3-0.8-2.4
			c0-1.1,0.3-1.9,0.8-2.5s1.1-0.9,1.9-0.9C263.3,340.3,263.7,340.5,264.1,340.7z M264.2,341.8c-0.3-0.4-0.7-0.6-1.2-0.6
			c-0.7,0-1.2,0.3-1.5,1c-0.1,0.4-0.2,0.9-0.2,1.5c0,0.7,0.1,1.2,0.4,1.6s0.7,0.6,1.2,0.6c0.8,0,1.3-0.3,1.6-1
			c0.2-0.4,0.3-0.8,0.3-1.4C264.7,342.8,264.6,342.2,264.2,341.8z"/>
		<path class="st1" d="M271.9,341.1c0.6,0.5,0.8,1.3,0.8,2.4c0,1-0.2,1.8-0.7,2.5s-1.3,1-2.3,1c-0.9,0-1.5-0.3-2.1-0.9
			s-0.8-1.4-0.8-2.4c0-1.1,0.3-1.9,0.8-2.5s1.3-0.9,2.2-0.9C270.6,340.3,271.3,340.5,271.9,341.1z M271.2,345.2
			c0.3-0.5,0.4-1.1,0.4-1.8c0-0.6-0.1-1.1-0.3-1.4c-0.3-0.6-0.8-0.9-1.5-0.9c-0.6,0-1.1,0.2-1.4,0.7s-0.4,1.1-0.4,1.8
			c0,0.7,0.1,1.2,0.4,1.7s0.8,0.7,1.4,0.7C270.5,346,270.9,345.8,271.2,345.2z M271,337.9l-1.6,1.7h-0.8l1.1-1.7H271z"/>
		<path class="st1" d="M281.2,340.6c0.4,0.2,0.7,0.5,1,0.8c0.2,0.3,0.4,0.7,0.4,1.1c0.1,0.3,0.1,0.8,0.1,1.4h-4.6
			c0,0.6,0.2,1.1,0.5,1.5s0.7,0.6,1.3,0.6c0.6,0,1-0.2,1.3-0.5c0.2-0.2,0.3-0.5,0.4-0.7h1c0,0.2-0.1,0.5-0.3,0.8s-0.3,0.5-0.5,0.7
			c-0.3,0.3-0.7,0.5-1.2,0.6c-0.3,0.1-0.5,0.1-0.9,0.1c-0.8,0-1.4-0.3-2-0.9s-0.8-1.4-0.8-2.4c0-1,0.3-1.8,0.8-2.5s1.3-0.9,2.1-0.9
			C280.3,340.3,280.8,340.4,281.2,340.6z M281.6,343.1c0-0.5-0.1-0.8-0.3-1.1c-0.3-0.5-0.8-0.8-1.4-0.8c-0.5,0-0.9,0.2-1.2,0.5
			s-0.5,0.8-0.5,1.3H281.6z"/>
		<path class="st1" d="M284,338.1h1.1v8.6H284V338.1z"/>
		<path class="st1" d="M290,344.8c0.3-0.5,0.8-1,1.5-1.5l1.1-0.7c0.5-0.3,0.9-0.5,1.1-0.8c0.3-0.3,0.5-0.7,0.5-1.1
			c0-0.5-0.1-0.9-0.4-1.2s-0.7-0.4-1.2-0.4c-0.7,0-1.2,0.3-1.5,0.8c-0.1,0.3-0.2,0.7-0.2,1.2h-1.1c0-0.7,0.1-1.3,0.4-1.8
			c0.5-0.8,1.3-1.2,2.4-1.2c1,0,1.7,0.3,2.1,0.8s0.7,1.1,0.7,1.7c0,0.7-0.2,1.2-0.7,1.7c-0.3,0.3-0.8,0.6-1.5,1l-0.8,0.4
			c-0.4,0.2-0.7,0.4-0.9,0.6c-0.4,0.3-0.6,0.7-0.7,1.1h4.6v1h-5.8C289.6,346,289.8,345.4,290,344.8z"/>
		<path class="st1" d="M296.8,346.1c-0.4-0.5-0.7-1.2-0.7-2h1.1c0,0.5,0.1,0.9,0.3,1.2c0.3,0.4,0.8,0.7,1.5,0.7c0.6,0,1-0.1,1.3-0.4
			s0.5-0.7,0.5-1.1c0-0.6-0.2-1-0.5-1.2s-0.8-0.3-1.5-0.3c-0.1,0-0.1,0-0.2,0s-0.1,0-0.2,0v-0.9c0.1,0,0.2,0,0.3,0s0.2,0,0.2,0
			c0.4,0,0.7-0.1,1-0.2c0.4-0.2,0.7-0.6,0.7-1.2c0-0.4-0.1-0.7-0.4-1s-0.6-0.3-1-0.3c-0.7,0-1.2,0.2-1.5,0.7
			c-0.1,0.3-0.2,0.6-0.3,1.1h-1c0-0.6,0.1-1.2,0.4-1.6c0.4-0.8,1.2-1.2,2.3-1.2c0.9,0,1.5,0.2,2,0.6s0.7,0.9,0.7,1.7
			c0,0.5-0.1,0.9-0.4,1.3c-0.2,0.2-0.4,0.4-0.7,0.5c0.4,0.1,0.8,0.4,1,0.7s0.4,0.8,0.4,1.3c0,0.8-0.3,1.5-0.8,2s-1.3,0.8-2.2,0.8
			C298,347,297.3,346.7,296.8,346.1z"/>
		<path class="st1" d="M310.1,340.6c0.2,0.1,0.4,0.3,0.6,0.6v-3.2h1v8.6h-0.9v-0.9c-0.2,0.4-0.5,0.7-0.9,0.8s-0.7,0.3-1.2,0.3
			c-0.7,0-1.3-0.3-1.8-0.9s-0.8-1.4-0.8-2.3c0-0.9,0.2-1.7,0.7-2.4s1.1-1,2-1C309.4,340.3,309.8,340.4,310.1,340.6z M307.7,345.3
			c0.3,0.5,0.7,0.7,1.4,0.7c0.5,0,0.9-0.2,1.2-0.6s0.5-1,0.5-1.8c0-0.8-0.2-1.4-0.5-1.8s-0.7-0.6-1.2-0.6c-0.5,0-1,0.2-1.3,0.6
			s-0.5,1-0.5,1.8C307.3,344.3,307.5,344.9,307.7,345.3z"/>
		<path class="st1" d="M317.2,340.6c0.4,0.2,0.7,0.5,1,0.8c0.2,0.3,0.4,0.7,0.4,1.1c0.1,0.3,0.1,0.8,0.1,1.4h-4.6
			c0,0.6,0.2,1.1,0.5,1.5s0.7,0.6,1.3,0.6c0.6,0,1-0.2,1.3-0.5c0.2-0.2,0.3-0.5,0.4-0.7h1c0,0.2-0.1,0.5-0.3,0.8s-0.3,0.5-0.5,0.7
			c-0.3,0.3-0.7,0.5-1.2,0.6c-0.3,0.1-0.5,0.1-0.9,0.1c-0.8,0-1.4-0.3-2-0.9s-0.8-1.4-0.8-2.4c0-1,0.3-1.8,0.8-2.5s1.3-0.9,2.1-0.9
			C316.4,340.3,316.8,340.4,317.2,340.6z M317.6,343.1c0-0.5-0.1-0.8-0.3-1.1c-0.3-0.5-0.8-0.8-1.4-0.8c-0.5,0-0.9,0.2-1.2,0.5
			s-0.5,0.8-0.5,1.3H317.6z"/>
		<path class="st1" d="M323.3,340.4h1v0.9c0.3-0.4,0.6-0.6,0.9-0.8s0.7-0.2,1.1-0.2c0.9,0,1.5,0.3,1.8,0.9c0.2,0.3,0.3,0.8,0.3,1.5
			v4h-1.1v-4c0-0.4-0.1-0.7-0.2-0.9c-0.2-0.4-0.5-0.6-1-0.6c-0.2,0-0.5,0-0.6,0.1c-0.3,0.1-0.5,0.3-0.8,0.5
			c-0.2,0.2-0.3,0.4-0.3,0.6s-0.1,0.5-0.1,0.9v3.3h-1.1V340.4z"/>
		<path class="st1" d="M334.6,341.1c0.6,0.5,0.8,1.3,0.8,2.4c0,1-0.2,1.8-0.7,2.5s-1.3,1-2.3,1c-0.9,0-1.5-0.3-2.1-0.9
			s-0.8-1.4-0.8-2.4c0-1.1,0.3-1.9,0.8-2.5s1.3-0.9,2.2-0.9C333.3,340.3,334,340.5,334.6,341.1z M333.9,345.2
			c0.3-0.5,0.4-1.1,0.4-1.8c0-0.6-0.1-1.1-0.3-1.4c-0.3-0.6-0.8-0.9-1.5-0.9c-0.6,0-1.1,0.2-1.4,0.7s-0.4,1.1-0.4,1.8
			c0,0.7,0.1,1.2,0.4,1.7s0.8,0.7,1.4,0.7C333.2,346,333.7,345.8,333.9,345.2z"/>
		<path class="st1" d="M337.2,340.4l1.7,5.1l1.8-5.1h1.2l-2.4,6.3h-1.1l-2.3-6.3H337.2z"/>
		<path class="st1" d="M342.7,338.1h1.1v1.2h-1.1V338.1z M342.7,340.5h1.1v6.2h-1.1V340.5z"/>
		<path class="st1" d="M349.2,340.6c0.4,0.2,0.7,0.5,1,0.8c0.2,0.3,0.4,0.7,0.4,1.1c0.1,0.3,0.1,0.8,0.1,1.4h-4.6
			c0,0.6,0.2,1.1,0.5,1.5s0.7,0.6,1.3,0.6c0.6,0,1-0.2,1.3-0.5c0.2-0.2,0.3-0.5,0.4-0.7h1c0,0.2-0.1,0.5-0.3,0.8s-0.3,0.5-0.5,0.7
			c-0.3,0.3-0.7,0.5-1.2,0.6c-0.3,0.1-0.5,0.1-0.9,0.1c-0.8,0-1.4-0.3-2-0.9s-0.8-1.4-0.8-2.4c0-1,0.3-1.8,0.8-2.5s1.3-0.9,2.1-0.9
			C348.4,340.3,348.8,340.4,349.2,340.6z M349.6,343.1c0-0.5-0.1-0.8-0.3-1.1c-0.3-0.5-0.8-0.8-1.4-0.8c-0.5,0-0.9,0.2-1.2,0.5
			s-0.5,0.8-0.5,1.3H349.6z"/>
		<path class="st1" d="M352,340.4h1v0.9c0.2-0.3,0.5-0.5,0.7-0.7c0.3-0.2,0.7-0.4,1.2-0.4c0.5,0,0.9,0.1,1.2,0.4
			c0.2,0.1,0.3,0.3,0.5,0.6c0.2-0.3,0.5-0.6,0.8-0.7s0.7-0.2,1.1-0.2c0.8,0,1.4,0.3,1.7,0.9c0.2,0.3,0.2,0.8,0.2,1.3v4.2h-1.1v-4.4
			c0-0.4-0.1-0.7-0.3-0.9s-0.5-0.2-0.8-0.2c-0.4,0-0.8,0.1-1.1,0.4s-0.4,0.7-0.4,1.4v3.7h-1.1v-4.1c0-0.4-0.1-0.7-0.2-0.9
			c-0.2-0.3-0.5-0.4-0.9-0.4c-0.4,0-0.8,0.2-1.1,0.5s-0.5,0.9-0.5,1.7v3.3H352V340.4z"/>
		<path class="st1" d="M361.9,338.1h1v3.1c0.2-0.3,0.5-0.5,0.8-0.7s0.7-0.2,1-0.2c0.8,0,1.4,0.3,1.9,0.8s0.7,1.3,0.7,2.4
			c0,1-0.2,1.8-0.7,2.5s-1.1,1-2,1c-0.5,0-0.9-0.1-1.2-0.3c-0.2-0.1-0.4-0.4-0.6-0.7v0.8h-1V338.1z M365.9,345.3
			c0.3-0.5,0.4-1.1,0.4-1.8c0-0.7-0.1-1.2-0.4-1.6s-0.7-0.7-1.3-0.7c-0.5,0-0.9,0.2-1.3,0.5s-0.5,0.9-0.5,1.8c0,0.6,0.1,1.1,0.2,1.4
			c0.3,0.7,0.8,1,1.6,1C365.2,346,365.7,345.8,365.9,345.3z"/>
		<path class="st1" d="M368.7,340.4h1v1.1c0.1-0.2,0.3-0.5,0.6-0.8s0.7-0.5,1.1-0.5c0,0,0.1,0,0.1,0s0.1,0,0.2,0v1.1
			c-0.1,0-0.1,0-0.2,0s-0.1,0-0.2,0c-0.5,0-0.9,0.2-1.2,0.5s-0.4,0.7-0.4,1.2v3.6h-1.1V340.4z"/>
		<path class="st1" d="M376.6,340.6c0.4,0.2,0.7,0.5,1,0.8c0.2,0.3,0.4,0.7,0.4,1.1c0.1,0.3,0.1,0.8,0.1,1.4h-4.6
			c0,0.6,0.2,1.1,0.5,1.5s0.7,0.6,1.3,0.6c0.6,0,1-0.2,1.3-0.5c0.2-0.2,0.3-0.5,0.4-0.7h1c0,0.2-0.1,0.5-0.3,0.8s-0.3,0.5-0.5,0.7
			c-0.3,0.3-0.7,0.5-1.2,0.6c-0.3,0.1-0.5,0.1-0.9,0.1c-0.8,0-1.4-0.3-2-0.9s-0.8-1.4-0.8-2.4c0-1,0.3-1.8,0.8-2.5s1.3-0.9,2.1-0.9
			C375.7,340.3,376.2,340.4,376.6,340.6z M377,343.1c0-0.5-0.1-0.8-0.3-1.1c-0.3-0.5-0.8-0.8-1.4-0.8c-0.5,0-0.9,0.2-1.2,0.5
			s-0.5,0.8-0.5,1.3H377z"/>
		<path class="st1" d="M240.4,355c0.2,0.1,0.4,0.3,0.6,0.6v-3.2h1v8.6h-0.9v-0.9c-0.2,0.4-0.5,0.7-0.9,0.8s-0.7,0.3-1.2,0.3
			c-0.7,0-1.3-0.3-1.8-0.9s-0.8-1.4-0.8-2.3c0-0.9,0.2-1.7,0.7-2.4s1.1-1,2-1C239.7,354.7,240.1,354.8,240.4,355z M238,359.7
			c0.3,0.5,0.7,0.7,1.4,0.7c0.5,0,0.9-0.2,1.2-0.6s0.5-1,0.5-1.8c0-0.8-0.2-1.4-0.5-1.8s-0.7-0.6-1.2-0.6c-0.5,0-1,0.2-1.3,0.6
			s-0.5,1-0.5,1.8C237.6,358.7,237.7,359.3,238,359.7z"/>
		<path class="st1" d="M247.5,355c0.4,0.2,0.7,0.5,1,0.8c0.2,0.3,0.4,0.7,0.4,1.1c0.1,0.3,0.1,0.8,0.1,1.4h-4.6
			c0,0.6,0.2,1.1,0.5,1.5s0.7,0.6,1.3,0.6c0.6,0,1-0.2,1.3-0.5c0.2-0.2,0.3-0.5,0.4-0.7h1c0,0.2-0.1,0.5-0.3,0.8s-0.3,0.5-0.5,0.7
			c-0.3,0.3-0.7,0.5-1.2,0.6c-0.3,0.1-0.5,0.1-0.9,0.1c-0.8,0-1.4-0.3-2-0.9s-0.8-1.4-0.8-2.4c0-1,0.3-1.8,0.8-2.5s1.3-0.9,2.1-0.9
			C246.7,354.7,247.1,354.8,247.5,355z M247.9,357.5c0-0.5-0.1-0.8-0.3-1.1c-0.3-0.5-0.8-0.8-1.4-0.8c-0.5,0-0.9,0.2-1.2,0.5
			s-0.5,0.8-0.5,1.3H247.9z"/>
		<path class="st1" d="M250.3,352.5h1.1v8.6h-1.1V352.5z"/>
		<path class="st1" d="M256.3,359.2c0.3-0.5,0.8-1,1.5-1.5l1.1-0.7c0.5-0.3,0.9-0.5,1.1-0.8c0.3-0.3,0.5-0.7,0.5-1.1
			c0-0.5-0.1-0.9-0.4-1.2s-0.7-0.4-1.2-0.4c-0.7,0-1.2,0.3-1.5,0.8c-0.1,0.3-0.2,0.7-0.2,1.2h-1.1c0-0.7,0.1-1.3,0.4-1.8
			c0.5-0.8,1.3-1.2,2.4-1.2c1,0,1.7,0.3,2.1,0.8s0.7,1.1,0.7,1.7c0,0.7-0.2,1.2-0.7,1.7c-0.3,0.3-0.8,0.6-1.5,1l-0.8,0.4
			c-0.4,0.2-0.7,0.4-0.9,0.6c-0.4,0.3-0.6,0.7-0.7,1.1h4.6v1h-5.8C255.9,360.4,256.1,359.8,256.3,359.2z"/>
		<path class="st1" d="M267.8,354.1c0.4,0.7,0.6,1.6,0.6,2.8c0,1.1-0.2,2.1-0.5,2.8c-0.5,1.1-1.3,1.6-2.4,1.6c-1,0-1.8-0.4-2.2-1.3
			c-0.4-0.7-0.6-1.7-0.6-2.9c0-1,0.1-1.8,0.4-2.5c0.5-1.3,1.3-1.9,2.5-1.9C266.5,352.7,267.3,353.2,267.8,354.1z M266.7,359.7
			c0.3-0.5,0.5-1.4,0.5-2.7c0-1-0.1-1.7-0.4-2.4s-0.7-0.9-1.4-0.9c-0.6,0-1.1,0.3-1.4,0.9s-0.4,1.4-0.4,2.6c0,0.9,0.1,1.5,0.3,2.1
			c0.3,0.8,0.8,1.2,1.4,1.2C265.9,360.4,266.4,360.1,266.7,359.7z"/>
		<path class="st1" d="M269.7,359.2c0.3-0.5,0.8-1,1.5-1.5l1.1-0.7c0.5-0.3,0.9-0.5,1.1-0.8c0.3-0.3,0.5-0.7,0.5-1.1
			c0-0.5-0.1-0.9-0.4-1.2s-0.7-0.4-1.2-0.4c-0.7,0-1.2,0.3-1.5,0.8c-0.1,0.3-0.2,0.7-0.2,1.2h-1.1c0-0.7,0.1-1.3,0.4-1.8
			c0.5-0.8,1.3-1.2,2.4-1.2c1,0,1.7,0.3,2.1,0.8s0.7,1.1,0.7,1.7c0,0.7-0.2,1.2-0.7,1.7c-0.3,0.3-0.8,0.6-1.5,1l-0.8,0.4
			c-0.4,0.2-0.7,0.4-0.9,0.6c-0.4,0.3-0.6,0.7-0.7,1.1h4.6v1h-5.8C269.3,360.4,269.4,359.8,269.7,359.2z"/>
		<path class="st1" d="M281.1,354.1c0.4,0.7,0.6,1.6,0.6,2.8c0,1.1-0.2,2.1-0.5,2.8c-0.5,1.1-1.3,1.6-2.4,1.6c-1,0-1.8-0.4-2.2-1.3
			c-0.4-0.7-0.6-1.7-0.6-2.9c0-1,0.1-1.8,0.4-2.5c0.5-1.3,1.3-1.9,2.5-1.9C279.8,352.7,280.6,353.2,281.1,354.1z M280.1,359.7
			c0.3-0.5,0.5-1.4,0.5-2.7c0-1-0.1-1.7-0.4-2.4s-0.7-0.9-1.4-0.9c-0.6,0-1.1,0.3-1.4,0.9s-0.4,1.4-0.4,2.6c0,0.9,0.1,1.5,0.3,2.1
			c0.3,0.8,0.8,1.2,1.4,1.2C279.3,360.4,279.7,360.1,280.1,359.7z"/>
		<path class="st1" d="M290.2,355c0.4,0.2,0.7,0.5,1,0.8c0.2,0.3,0.4,0.7,0.4,1.1c0.1,0.3,0.1,0.8,0.1,1.4h-4.6
			c0,0.6,0.2,1.1,0.5,1.5s0.7,0.6,1.3,0.6c0.6,0,1-0.2,1.3-0.5c0.2-0.2,0.3-0.5,0.4-0.7h1c0,0.2-0.1,0.5-0.3,0.8s-0.3,0.5-0.5,0.7
			c-0.3,0.3-0.7,0.5-1.2,0.6c-0.3,0.1-0.5,0.1-0.9,0.1c-0.8,0-1.4-0.3-2-0.9s-0.8-1.4-0.8-2.4c0-1,0.3-1.8,0.8-2.5s1.3-0.9,2.1-0.9
			C289.4,354.7,289.8,354.8,290.2,355z M290.6,357.5c0-0.5-0.1-0.8-0.3-1.1c-0.3-0.5-0.8-0.8-1.4-0.8c-0.5,0-0.9,0.2-1.2,0.5
			s-0.5,0.8-0.5,1.3H290.6z"/>
		<path class="st1" d="M293,354.8h1v0.9c0.3-0.4,0.6-0.6,0.9-0.8s0.7-0.2,1.1-0.2c0.9,0,1.5,0.3,1.8,0.9c0.2,0.3,0.3,0.8,0.3,1.5v4
			H297v-4c0-0.4-0.1-0.7-0.2-0.9c-0.2-0.4-0.5-0.6-1-0.6c-0.2,0-0.5,0-0.6,0.1c-0.3,0.1-0.5,0.3-0.8,0.5c-0.2,0.2-0.3,0.4-0.3,0.6
			s-0.1,0.5-0.1,0.9v3.3H293V354.8z"/>
		<path class="st1" d="M306.9,355c0.4,0.2,0.7,0.5,1,0.8c0.2,0.3,0.4,0.7,0.4,1.1c0.1,0.3,0.1,0.8,0.1,1.4h-4.6
			c0,0.6,0.2,1.1,0.5,1.5s0.7,0.6,1.3,0.6c0.6,0,1-0.2,1.3-0.5c0.2-0.2,0.3-0.5,0.4-0.7h1c0,0.2-0.1,0.5-0.3,0.8s-0.3,0.5-0.5,0.7
			c-0.3,0.3-0.7,0.5-1.2,0.6c-0.3,0.1-0.5,0.1-0.9,0.1c-0.8,0-1.4-0.3-2-0.9s-0.8-1.4-0.8-2.4c0-1,0.3-1.8,0.8-2.5s1.3-0.9,2.1-0.9
			C306,354.7,306.5,354.8,306.9,355z M307.3,357.5c0-0.5-0.1-0.8-0.3-1.1c-0.3-0.5-0.8-0.8-1.4-0.8c-0.5,0-0.9,0.2-1.2,0.5
			s-0.5,0.8-0.5,1.3H307.3z"/>
		<path class="st1" d="M309.7,352.5h1.1v8.6h-1.1V352.5z"/>
		<path class="st1" d="M322,353.1c0.6,0.6,0.9,1.2,1,2h-1.1c-0.1-0.6-0.4-1-0.8-1.3s-0.9-0.5-1.6-0.5c-0.8,0-1.5,0.3-2.1,0.9
			s-0.8,1.5-0.8,2.7c0,1,0.2,1.8,0.7,2.5s1.2,0.9,2.1,0.9c0.9,0,1.5-0.3,2-1c0.2-0.3,0.4-0.8,0.5-1.4h1.1c-0.1,0.9-0.4,1.7-1,2.3
			c-0.7,0.7-1.6,1.1-2.8,1.1c-1,0-1.8-0.3-2.5-0.9c-0.9-0.8-1.3-2-1.3-3.7c0-1.3,0.3-2.3,1-3.1c0.7-0.9,1.7-1.3,3-1.3
			C320.5,352.3,321.4,352.6,322,353.1z"/>
		<path class="st1" d="M328.2,355c0.4,0.2,0.7,0.5,1,0.8c0.2,0.3,0.4,0.7,0.4,1.1c0.1,0.3,0.1,0.8,0.1,1.4h-4.6
			c0,0.6,0.2,1.1,0.5,1.5s0.7,0.6,1.3,0.6c0.6,0,1-0.2,1.3-0.5c0.2-0.2,0.3-0.5,0.4-0.7h1c0,0.2-0.1,0.5-0.3,0.8s-0.3,0.5-0.5,0.7
			c-0.3,0.3-0.7,0.5-1.2,0.6c-0.3,0.1-0.5,0.1-0.9,0.1c-0.8,0-1.4-0.3-2-0.9s-0.8-1.4-0.8-2.4c0-1,0.3-1.8,0.8-2.5s1.3-0.9,2.1-0.9
			C327.4,354.7,327.8,354.8,328.2,355z M328.6,357.5c0-0.5-0.1-0.8-0.3-1.1c-0.3-0.5-0.8-0.8-1.4-0.8c-0.5,0-0.9,0.2-1.2,0.5
			s-0.5,0.8-0.5,1.3H328.6z"/>
		<path class="st1" d="M331,354.8h1v0.9c0.3-0.4,0.6-0.6,0.9-0.8s0.7-0.2,1.1-0.2c0.9,0,1.5,0.3,1.8,0.9c0.2,0.3,0.3,0.8,0.3,1.5v4
			H335v-4c0-0.4-0.1-0.7-0.2-0.9c-0.2-0.4-0.5-0.6-1-0.6c-0.2,0-0.5,0-0.6,0.1c-0.3,0.1-0.5,0.3-0.8,0.5c-0.2,0.2-0.3,0.4-0.3,0.6
			s-0.1,0.5-0.1,0.9v3.3H331V354.8z"/>
		<path class="st1" d="M337.9,353.1h1.1v1.8h1v0.9h-1v4.1c0,0.2,0.1,0.4,0.2,0.4c0.1,0,0.2,0.1,0.4,0.1c0.1,0,0.1,0,0.2,0
			s0.1,0,0.2,0v0.8c-0.1,0-0.2,0.1-0.4,0.1s-0.3,0-0.4,0c-0.5,0-0.8-0.1-1-0.4s-0.3-0.6-0.3-1v-4.2H337v-0.9h0.8V353.1z"/>
		<path class="st1" d="M341,354.8h1v1.1c0.1-0.2,0.3-0.5,0.6-0.8s0.7-0.5,1.1-0.5c0,0,0.1,0,0.1,0s0.1,0,0.2,0v1.1
			c-0.1,0-0.1,0-0.2,0s-0.1,0-0.2,0c-0.5,0-0.9,0.2-1.2,0.5s-0.4,0.7-0.4,1.2v3.6H341V354.8z"/>
		<path class="st1" d="M349.6,355.5c0.6,0.5,0.8,1.3,0.8,2.4c0,1-0.2,1.8-0.7,2.5s-1.3,1-2.3,1c-0.9,0-1.5-0.3-2.1-0.9
			s-0.8-1.4-0.8-2.4c0-1.1,0.3-1.9,0.8-2.5s1.3-0.9,2.2-0.9C348.3,354.7,349,354.9,349.6,355.5z M348.9,359.6
			c0.3-0.5,0.4-1.1,0.4-1.8c0-0.6-0.1-1.1-0.3-1.4c-0.3-0.6-0.8-0.9-1.5-0.9c-0.6,0-1.1,0.2-1.4,0.7s-0.4,1.1-0.4,1.8
			c0,0.7,0.1,1.2,0.4,1.7s0.8,0.7,1.4,0.7C348.2,360.4,348.7,360.2,348.9,359.6z"/>
		<path class="st1" d="M358.5,355c0.2,0.1,0.4,0.3,0.6,0.6v-3.2h1v8.6h-0.9v-0.9c-0.2,0.4-0.5,0.7-0.9,0.8s-0.7,0.3-1.2,0.3
			c-0.7,0-1.3-0.3-1.8-0.9s-0.8-1.4-0.8-2.3c0-0.9,0.2-1.7,0.7-2.4s1.1-1,2-1C357.7,354.7,358.1,354.8,358.5,355z M356.1,359.7
			c0.3,0.5,0.7,0.7,1.4,0.7c0.5,0,0.9-0.2,1.2-0.6s0.5-1,0.5-1.8c0-0.8-0.2-1.4-0.5-1.8s-0.7-0.6-1.2-0.6c-0.5,0-1,0.2-1.3,0.6
			s-0.5,1-0.5,1.8C355.7,358.7,355.8,359.3,356.1,359.7z"/>
		<path class="st1" d="M365.6,355c0.4,0.2,0.7,0.5,1,0.8c0.2,0.3,0.4,0.7,0.4,1.1c0.1,0.3,0.1,0.8,0.1,1.4h-4.6
			c0,0.6,0.2,1.1,0.5,1.5s0.7,0.6,1.3,0.6c0.6,0,1-0.2,1.3-0.5c0.2-0.2,0.3-0.5,0.4-0.7h1c0,0.2-0.1,0.5-0.3,0.8s-0.3,0.5-0.5,0.7
			c-0.3,0.3-0.7,0.5-1.2,0.6c-0.3,0.1-0.5,0.1-0.9,0.1c-0.8,0-1.4-0.3-2-0.9s-0.8-1.4-0.8-2.4c0-1,0.3-1.8,0.8-2.5s1.3-0.9,2.1-0.9
			C364.7,354.7,365.2,354.8,365.6,355z M366,357.5c0-0.5-0.1-0.8-0.3-1.1c-0.3-0.5-0.8-0.8-1.4-0.8c-0.5,0-0.9,0.2-1.2,0.5
			s-0.5,0.8-0.5,1.3H366z"/>
		<path class="st1" d="M227.1,366.9h1.2v7.6h4.4v1h-5.5V366.9z"/>
		<path class="st1" d="M237,371.7c0.2,0,0.4-0.1,0.5-0.3c0-0.1,0.1-0.2,0.1-0.4c0-0.4-0.1-0.6-0.4-0.8s-0.6-0.2-1.1-0.2
			c-0.6,0-0.9,0.1-1.2,0.4c-0.1,0.2-0.2,0.4-0.3,0.7h-1c0-0.8,0.3-1.3,0.8-1.6s1-0.5,1.7-0.5c0.7,0,1.3,0.1,1.8,0.4
			c0.5,0.3,0.7,0.7,0.7,1.3v3.6c0,0.1,0,0.2,0.1,0.3s0.1,0.1,0.3,0.1c0,0,0.1,0,0.2,0s0.1,0,0.2,0v0.8c-0.2,0-0.3,0.1-0.4,0.1
			s-0.2,0-0.4,0c-0.4,0-0.6-0.1-0.8-0.4c-0.1-0.1-0.1-0.3-0.2-0.6c-0.2,0.3-0.5,0.5-0.9,0.7s-0.8,0.3-1.3,0.3
			c-0.6,0-1.1-0.2-1.4-0.5s-0.6-0.8-0.6-1.3c0-0.6,0.2-1,0.5-1.4s0.8-0.5,1.4-0.6L237,371.7z M234.7,374.6c0.2,0.2,0.5,0.3,0.8,0.3
			c0.4,0,0.7-0.1,1.1-0.3c0.6-0.3,0.9-0.8,0.9-1.4v-0.8c-0.1,0.1-0.3,0.2-0.5,0.2s-0.4,0.1-0.6,0.1l-0.6,0.1
			c-0.4,0.1-0.7,0.1-0.9,0.2c-0.3,0.2-0.5,0.5-0.5,0.9C234.4,374.2,234.5,374.4,234.7,374.6z"/>
		<path class="st1" d="M240.3,369.2h1v0.9c0.3-0.4,0.6-0.6,0.9-0.8s0.7-0.2,1.1-0.2c0.9,0,1.5,0.3,1.8,0.9c0.2,0.3,0.3,0.8,0.3,1.5
			v4h-1.1v-4c0-0.4-0.1-0.7-0.2-0.9c-0.2-0.4-0.5-0.6-1-0.6c-0.2,0-0.5,0-0.6,0.1c-0.3,0.1-0.5,0.3-0.8,0.5
			c-0.2,0.2-0.3,0.4-0.3,0.6s-0.1,0.5-0.1,0.9v3.3h-1.1V369.2z"/>
		<path class="st1" d="M246.5,374.7l3.7-4.5h-3.4v-0.9h4.9v0.9l-3.7,4.5h3.8v0.9h-5.2V374.7z"/>
		<path class="st1" d="M256.3,371.7c0.2,0,0.4-0.1,0.5-0.3c0-0.1,0.1-0.2,0.1-0.4c0-0.4-0.1-0.6-0.4-0.8s-0.6-0.2-1.1-0.2
			c-0.6,0-0.9,0.1-1.2,0.4c-0.1,0.2-0.2,0.4-0.3,0.7h-1c0-0.8,0.3-1.3,0.8-1.6s1-0.5,1.7-0.5c0.7,0,1.3,0.1,1.8,0.4
			c0.5,0.3,0.7,0.7,0.7,1.3v3.6c0,0.1,0,0.2,0.1,0.3s0.1,0.1,0.3,0.1c0,0,0.1,0,0.2,0s0.1,0,0.2,0v0.8c-0.2,0-0.3,0.1-0.4,0.1
			s-0.2,0-0.4,0c-0.4,0-0.6-0.1-0.8-0.4c-0.1-0.1-0.1-0.3-0.2-0.6c-0.2,0.3-0.5,0.5-0.9,0.7s-0.8,0.3-1.3,0.3
			c-0.6,0-1.1-0.2-1.4-0.5s-0.6-0.8-0.6-1.3c0-0.6,0.2-1,0.5-1.4s0.8-0.5,1.4-0.6L256.3,371.7z M254.1,374.6
			c0.2,0.2,0.5,0.3,0.8,0.3c0.4,0,0.7-0.1,1.1-0.3c0.6-0.3,0.9-0.8,0.9-1.4v-0.8c-0.1,0.1-0.3,0.2-0.5,0.2s-0.4,0.1-0.6,0.1
			l-0.6,0.1c-0.4,0.1-0.7,0.1-0.9,0.2c-0.3,0.2-0.5,0.5-0.5,0.9C253.7,374.2,253.9,374.4,254.1,374.6z"/>
		<path class="st1" d="M259.6,369.2h1v0.9c0.2-0.3,0.5-0.5,0.7-0.7c0.3-0.2,0.7-0.4,1.2-0.4c0.5,0,0.9,0.1,1.2,0.4
			c0.2,0.1,0.3,0.3,0.5,0.6c0.2-0.3,0.5-0.6,0.8-0.7s0.7-0.2,1.1-0.2c0.8,0,1.4,0.3,1.7,0.9c0.2,0.3,0.2,0.8,0.2,1.3v4.2H267v-4.4
			c0-0.4-0.1-0.7-0.3-0.9s-0.5-0.2-0.8-0.2c-0.4,0-0.8,0.1-1.1,0.4s-0.4,0.7-0.4,1.4v3.7h-1.1v-4.1c0-0.4-0.1-0.7-0.2-0.9
			c-0.2-0.3-0.5-0.4-0.9-0.4c-0.4,0-0.8,0.2-1.1,0.5s-0.5,0.9-0.5,1.7v3.3h-1.1V369.2z"/>
		<path class="st1" d="M269.6,366.9h1.1v1.2h-1.1V366.9z M269.6,369.3h1.1v6.2h-1.1V369.3z"/>
		<path class="st1" d="M276.2,369.4c0.4,0.2,0.7,0.5,1,0.8c0.2,0.3,0.4,0.7,0.4,1.1c0.1,0.3,0.1,0.8,0.1,1.4h-4.6
			c0,0.6,0.2,1.1,0.5,1.5s0.7,0.6,1.3,0.6c0.6,0,1-0.2,1.3-0.5c0.2-0.2,0.3-0.5,0.4-0.7h1c0,0.2-0.1,0.5-0.3,0.8s-0.3,0.5-0.5,0.7
			c-0.3,0.3-0.7,0.5-1.2,0.6c-0.3,0.1-0.5,0.1-0.9,0.1c-0.8,0-1.4-0.3-2-0.9s-0.8-1.4-0.8-2.4c0-1,0.3-1.8,0.8-2.5s1.3-0.9,2.1-0.9
			C275.3,369.1,275.8,369.2,276.2,369.4z M276.6,371.9c0-0.5-0.1-0.8-0.3-1.1c-0.3-0.5-0.8-0.8-1.4-0.8c-0.5,0-0.9,0.2-1.2,0.5
			s-0.5,0.8-0.5,1.3H276.6z"/>
		<path class="st1" d="M278.9,369.2h1v0.9c0.3-0.4,0.6-0.6,0.9-0.8s0.7-0.2,1.1-0.2c0.9,0,1.5,0.3,1.8,0.9c0.2,0.3,0.3,0.8,0.3,1.5
			v4H283v-4c0-0.4-0.1-0.7-0.2-0.9c-0.2-0.4-0.5-0.6-1-0.6c-0.2,0-0.5,0-0.6,0.1c-0.3,0.1-0.5,0.3-0.8,0.5c-0.2,0.2-0.3,0.4-0.3,0.6
			s-0.1,0.5-0.1,0.9v3.3h-1.1V369.2z"/>
		<path class="st1" d="M285.8,367.5h1.1v1.8h1v0.9h-1v4.1c0,0.2,0.1,0.4,0.2,0.4c0.1,0,0.2,0.1,0.4,0.1c0.1,0,0.1,0,0.2,0
			s0.1,0,0.2,0v0.8c-0.1,0-0.2,0.1-0.4,0.1s-0.3,0-0.4,0c-0.5,0-0.8-0.1-1-0.4s-0.3-0.6-0.3-1v-4.2H285v-0.9h0.8V367.5z"/>
		<path class="st1" d="M293.5,369.9c0.6,0.5,0.8,1.3,0.8,2.4c0,1-0.2,1.8-0.7,2.5s-1.3,1-2.3,1c-0.9,0-1.5-0.3-2.1-0.9
			s-0.8-1.4-0.8-2.4c0-1.1,0.3-1.9,0.8-2.5s1.3-0.9,2.2-0.9C292.3,369.1,293,369.3,293.5,369.9z M292.9,374c0.3-0.5,0.4-1.1,0.4-1.8
			c0-0.6-0.1-1.1-0.3-1.4c-0.3-0.6-0.8-0.9-1.5-0.9c-0.6,0-1.1,0.2-1.4,0.7s-0.4,1.1-0.4,1.8c0,0.7,0.1,1.2,0.4,1.7s0.8,0.7,1.4,0.7
			C292.1,374.8,292.6,374.6,292.9,374z"/>
		<path class="st1" d="M302.4,369.4c0.2,0.1,0.4,0.3,0.6,0.6v-3.2h1v8.6h-0.9v-0.9c-0.2,0.4-0.5,0.7-0.9,0.8s-0.7,0.3-1.2,0.3
			c-0.7,0-1.3-0.3-1.8-0.9s-0.8-1.4-0.8-2.3c0-0.9,0.2-1.7,0.7-2.4s1.1-1,2-1C301.7,369.1,302.1,369.2,302.4,369.4z M300.1,374.1
			c0.3,0.5,0.7,0.7,1.4,0.7c0.5,0,0.9-0.2,1.2-0.6s0.5-1,0.5-1.8c0-0.8-0.2-1.4-0.5-1.8s-0.7-0.6-1.2-0.6c-0.5,0-1,0.2-1.3,0.6
			s-0.5,1-0.5,1.8C299.6,373.1,299.8,373.7,300.1,374.1z"/>
		<path class="st1" d="M309.5,369.4c0.4,0.2,0.7,0.5,1,0.8c0.2,0.3,0.4,0.7,0.4,1.1c0.1,0.3,0.1,0.8,0.1,1.4h-4.6
			c0,0.6,0.2,1.1,0.5,1.5s0.7,0.6,1.3,0.6c0.6,0,1-0.2,1.3-0.5c0.2-0.2,0.3-0.5,0.4-0.7h1c0,0.2-0.1,0.5-0.3,0.8s-0.3,0.5-0.5,0.7
			c-0.3,0.3-0.7,0.5-1.2,0.6c-0.3,0.1-0.5,0.1-0.9,0.1c-0.8,0-1.4-0.3-2-0.9s-0.8-1.4-0.8-2.4c0-1,0.3-1.8,0.8-2.5s1.3-0.9,2.1-0.9
			C308.7,369.1,309.1,369.2,309.5,369.4z M309.9,371.9c0-0.5-0.1-0.8-0.3-1.1c-0.3-0.5-0.8-0.8-1.4-0.8c-0.5,0-0.9,0.2-1.2,0.5
			s-0.5,0.8-0.5,1.3H309.9z"/>
		<path class="st1" d="M316.5,372.7c0,0.5,0.1,0.9,0.3,1.2c0.4,0.6,1.1,0.9,2,0.9c0.4,0,0.8-0.1,1.2-0.2c0.7-0.2,1-0.7,1-1.3
			c0-0.5-0.1-0.8-0.4-1c-0.3-0.2-0.8-0.4-1.4-0.5l-1.2-0.3c-0.8-0.2-1.3-0.4-1.6-0.6c-0.5-0.4-0.8-0.9-0.8-1.6
			c0-0.8,0.3-1.4,0.8-1.9s1.3-0.7,2.3-0.7c0.9,0,1.7,0.2,2.3,0.7s0.9,1.1,0.9,2.1H321c-0.1-0.5-0.2-0.8-0.4-1.1
			c-0.4-0.4-1-0.7-1.8-0.7c-0.7,0-1.2,0.1-1.5,0.4s-0.5,0.6-0.5,1c0,0.4,0.2,0.7,0.5,0.9c0.2,0.1,0.8,0.3,1.6,0.5l1.2,0.3
			c0.6,0.1,1,0.3,1.3,0.5c0.5,0.4,0.8,1,0.8,1.8c0,1-0.3,1.6-1,2s-1.5,0.6-2.4,0.6c-1.1,0-1.9-0.3-2.5-0.8c-0.6-0.5-0.9-1.3-0.9-2.2
			H316.5z"/>
		<path class="st1" d="M327,371.7c0.2,0,0.4-0.1,0.5-0.3c0-0.1,0.1-0.2,0.1-0.4c0-0.4-0.1-0.6-0.4-0.8s-0.6-0.2-1.1-0.2
			c-0.6,0-0.9,0.1-1.2,0.4c-0.1,0.2-0.2,0.4-0.3,0.7h-1c0-0.8,0.3-1.3,0.8-1.6s1-0.5,1.7-0.5c0.7,0,1.3,0.1,1.8,0.4
			c0.5,0.3,0.7,0.7,0.7,1.3v3.6c0,0.1,0,0.2,0.1,0.3s0.1,0.1,0.3,0.1c0,0,0.1,0,0.2,0s0.1,0,0.2,0v0.8c-0.2,0-0.3,0.1-0.4,0.1
			s-0.2,0-0.4,0c-0.4,0-0.6-0.1-0.8-0.4c-0.1-0.1-0.1-0.3-0.2-0.6c-0.2,0.3-0.5,0.5-0.9,0.7s-0.8,0.3-1.3,0.3
			c-0.6,0-1.1-0.2-1.4-0.5s-0.6-0.8-0.6-1.3c0-0.6,0.2-1,0.5-1.4s0.8-0.5,1.4-0.6L327,371.7z M324.8,374.6c0.2,0.2,0.5,0.3,0.8,0.3
			c0.4,0,0.7-0.1,1.1-0.3c0.6-0.3,0.9-0.8,0.9-1.4v-0.8c-0.1,0.1-0.3,0.2-0.5,0.2s-0.4,0.1-0.6,0.1l-0.6,0.1
			c-0.4,0.1-0.7,0.1-0.9,0.2c-0.3,0.2-0.5,0.5-0.5,0.9C324.5,374.2,324.6,374.4,324.8,374.6z"/>
		<path class="st1" d="M330.5,367.5h1.1v1.8h1v0.9h-1v4.1c0,0.2,0.1,0.4,0.2,0.4c0.1,0,0.2,0.1,0.4,0.1c0.1,0,0.1,0,0.2,0
			s0.1,0,0.2,0v0.8c-0.1,0-0.2,0.1-0.4,0.1s-0.3,0-0.4,0c-0.5,0-0.8-0.1-1-0.4s-0.3-0.6-0.3-1v-4.2h-0.8v-0.9h0.8V367.5z"/>
		<path class="st1" d="M337.6,369.4c0.4,0.2,0.7,0.5,1,0.8c0.2,0.3,0.4,0.7,0.4,1.1c0.1,0.3,0.1,0.8,0.1,1.4h-4.6
			c0,0.6,0.2,1.1,0.5,1.5s0.7,0.6,1.3,0.6c0.6,0,1-0.2,1.3-0.5c0.2-0.2,0.3-0.5,0.4-0.7h1c0,0.2-0.1,0.5-0.3,0.8s-0.3,0.5-0.5,0.7
			c-0.3,0.3-0.7,0.5-1.2,0.6c-0.3,0.1-0.5,0.1-0.9,0.1c-0.8,0-1.4-0.3-2-0.9s-0.8-1.4-0.8-2.4c0-1,0.3-1.8,0.8-2.5s1.3-0.9,2.1-0.9
			C336.7,369.1,337.1,369.2,337.6,369.4z M338,371.9c0-0.5-0.1-0.8-0.3-1.1c-0.3-0.5-0.8-0.8-1.4-0.8c-0.5,0-0.9,0.2-1.2,0.5
			s-0.5,0.8-0.5,1.3H338z M337.5,366.7l-1.6,1.7h-0.8l1.1-1.7H337.5z"/>
		<path class="st1" d="M340.4,366.9h1.1v8.6h-1.1V366.9z"/>
		<path class="st1" d="M343,366.9h1.1v1.2H343V366.9z M343,369.3h1.1v6.2H343V369.3z"/>
		<path class="st1" d="M345.9,367.5h1.1v1.8h1v0.9h-1v4.1c0,0.2,0.1,0.4,0.2,0.4c0.1,0,0.2,0.1,0.4,0.1c0.1,0,0.1,0,0.2,0
			s0.1,0,0.2,0v0.8c-0.1,0-0.2,0.1-0.4,0.1s-0.3,0-0.4,0c-0.5,0-0.8-0.1-1-0.4s-0.3-0.6-0.3-1v-4.2H345v-0.9h0.8V367.5z"/>
		<path class="st1" d="M352.9,369.4c0.4,0.2,0.7,0.5,1,0.8c0.2,0.3,0.4,0.7,0.4,1.1c0.1,0.3,0.1,0.8,0.1,1.4h-4.6
			c0,0.6,0.2,1.1,0.5,1.5s0.7,0.6,1.3,0.6c0.6,0,1-0.2,1.3-0.5c0.2-0.2,0.3-0.5,0.4-0.7h1c0,0.2-0.1,0.5-0.3,0.8s-0.3,0.5-0.5,0.7
			c-0.3,0.3-0.7,0.5-1.2,0.6c-0.3,0.1-0.5,0.1-0.9,0.1c-0.8,0-1.4-0.3-2-0.9s-0.8-1.4-0.8-2.4c0-1,0.3-1.8,0.8-2.5s1.3-0.9,2.1-0.9
			C352.1,369.1,352.5,369.2,352.9,369.4z M353.3,371.9c0-0.5-0.1-0.8-0.3-1.1c-0.3-0.5-0.8-0.8-1.4-0.8c-0.5,0-0.9,0.2-1.2,0.5
			s-0.5,0.8-0.5,1.3H353.3z"/>
		<path class="st1" d="M356.3,373.6c0,0.4,0.1,0.6,0.3,0.8c0.3,0.3,0.7,0.5,1.4,0.5c0.4,0,0.7-0.1,1-0.3s0.4-0.4,0.4-0.8
			c0-0.3-0.1-0.5-0.4-0.6c-0.2-0.1-0.5-0.2-0.9-0.3l-0.8-0.2c-0.5-0.1-0.9-0.3-1.2-0.4c-0.5-0.3-0.7-0.7-0.7-1.2
			c0-0.6,0.2-1.1,0.6-1.4s1-0.6,1.7-0.6c0.9,0,1.6,0.3,2,0.8c0.3,0.4,0.4,0.7,0.4,1.1h-1c0-0.2-0.1-0.5-0.3-0.7
			c-0.2-0.3-0.7-0.4-1.3-0.4c-0.4,0-0.7,0.1-0.9,0.2s-0.3,0.4-0.3,0.6c0,0.3,0.1,0.5,0.4,0.7c0.2,0.1,0.4,0.2,0.7,0.3l0.7,0.2
			c0.8,0.2,1.3,0.4,1.5,0.5c0.4,0.3,0.6,0.7,0.6,1.3c0,0.6-0.2,1-0.6,1.4s-1.1,0.6-1.9,0.6c-0.9,0-1.6-0.2-2-0.6s-0.6-0.9-0.6-1.6
			H356.3z"/>
		<path class="st1" d="M368.5,369.4c0.2,0.1,0.4,0.3,0.6,0.6v-3.2h1v8.6h-0.9v-0.9c-0.2,0.4-0.5,0.7-0.9,0.8s-0.7,0.3-1.2,0.3
			c-0.7,0-1.3-0.3-1.8-0.9s-0.8-1.4-0.8-2.3c0-0.9,0.2-1.7,0.7-2.4s1.1-1,2-1C367.7,369.1,368.1,369.2,368.5,369.4z M366.1,374.1
			c0.3,0.5,0.7,0.7,1.4,0.7c0.5,0,0.9-0.2,1.2-0.6s0.5-1,0.5-1.8c0-0.8-0.2-1.4-0.5-1.8s-0.7-0.6-1.2-0.6c-0.5,0-1,0.2-1.3,0.6
			s-0.5,1-0.5,1.8C365.7,373.1,365.8,373.7,366.1,374.1z"/>
		<path class="st1" d="M375.6,369.4c0.4,0.2,0.7,0.5,1,0.8c0.2,0.3,0.4,0.7,0.4,1.1c0.1,0.3,0.1,0.8,0.1,1.4h-4.6
			c0,0.6,0.2,1.1,0.5,1.5s0.7,0.6,1.3,0.6c0.6,0,1-0.2,1.3-0.5c0.2-0.2,0.3-0.5,0.4-0.7h1c0,0.2-0.1,0.5-0.3,0.8s-0.3,0.5-0.5,0.7
			c-0.3,0.3-0.7,0.5-1.2,0.6c-0.3,0.1-0.5,0.1-0.9,0.1c-0.8,0-1.4-0.3-2-0.9s-0.8-1.4-0.8-2.4c0-1,0.3-1.8,0.8-2.5s1.3-0.9,2.1-0.9
			C374.7,369.1,375.2,369.2,375.6,369.4z M376,371.9c0-0.5-0.1-0.8-0.3-1.1c-0.3-0.5-0.8-0.8-1.4-0.8c-0.5,0-0.9,0.2-1.2,0.5
			s-0.5,0.8-0.5,1.3H376z"/>
		<path class="st1" d="M274.8,381.3l1.6,7l1.9-7h1.3l1.9,7l1.6-7h1.3l-2.3,8.6H281l-2-7.1l-2,7.1h-1.2l-2.2-8.6H274.8z"/>
		<path class="st1" d="M289.1,383.8c0.4,0.2,0.7,0.5,1,0.8c0.2,0.3,0.4,0.7,0.4,1.1c0.1,0.3,0.1,0.8,0.1,1.4H286
			c0,0.6,0.2,1.1,0.5,1.5s0.7,0.6,1.3,0.6c0.6,0,1-0.2,1.3-0.5c0.2-0.2,0.3-0.5,0.4-0.7h1c0,0.2-0.1,0.5-0.3,0.8s-0.3,0.5-0.5,0.7
			c-0.3,0.3-0.7,0.5-1.2,0.6c-0.3,0.1-0.5,0.1-0.9,0.1c-0.8,0-1.4-0.3-2-0.9s-0.8-1.4-0.8-2.4c0-1,0.3-1.8,0.8-2.5s1.3-0.9,2.1-0.9
			C288.2,383.5,288.7,383.6,289.1,383.8z M289.5,386.3c0-0.5-0.1-0.8-0.3-1.1c-0.3-0.5-0.8-0.8-1.4-0.8c-0.5,0-0.9,0.2-1.2,0.5
			s-0.5,0.8-0.5,1.3H289.5z"/>
		<path class="st1" d="M291.8,383.6h1v0.9c0.3-0.4,0.6-0.6,0.9-0.8s0.7-0.2,1.1-0.2c0.9,0,1.5,0.3,1.8,0.9c0.2,0.3,0.3,0.8,0.3,1.5
			v4h-1.1v-4c0-0.4-0.1-0.7-0.2-0.9c-0.2-0.4-0.5-0.6-1-0.6c-0.2,0-0.5,0-0.6,0.1c-0.3,0.1-0.5,0.3-0.8,0.5
			c-0.2,0.2-0.3,0.4-0.3,0.6s-0.1,0.5-0.1,0.9v3.3h-1.1V383.6z"/>
		<path class="st1" d="M302.7,384c0.4,0.3,0.7,0.9,0.8,1.8h-1c-0.1-0.4-0.2-0.7-0.4-1s-0.6-0.4-1.1-0.4c-0.7,0-1.2,0.3-1.4,1
			c-0.2,0.4-0.3,1-0.3,1.6c0,0.6,0.1,1.2,0.4,1.6s0.7,0.6,1.3,0.6c0.4,0,0.8-0.1,1-0.4s0.4-0.6,0.5-1.1h1c-0.1,0.8-0.4,1.4-0.9,1.8
			s-1.1,0.6-1.8,0.6c-0.8,0-1.5-0.3-2-0.9s-0.7-1.3-0.7-2.2c0-1.1,0.3-2,0.8-2.6s1.2-0.9,2-0.9C301.6,383.5,302.2,383.6,302.7,384z"
			/>
		<path class="st1" d="M304.5,381.3h1.1v3.2c0.2-0.3,0.5-0.5,0.7-0.7c0.3-0.2,0.8-0.3,1.3-0.3c0.9,0,1.5,0.3,1.9,1
			c0.2,0.3,0.3,0.8,0.3,1.4v4h-1.1v-4c0-0.5-0.1-0.8-0.2-1c-0.2-0.3-0.6-0.5-1.1-0.5c-0.4,0-0.8,0.2-1.2,0.5s-0.5,0.9-0.5,1.7v3.3
			h-1.1V381.3z"/>
		<path class="st1" d="M314.6,386.1c0.2,0,0.4-0.1,0.5-0.3c0-0.1,0.1-0.2,0.1-0.4c0-0.4-0.1-0.6-0.4-0.8s-0.6-0.2-1.1-0.2
			c-0.6,0-0.9,0.1-1.2,0.4c-0.1,0.2-0.2,0.4-0.3,0.7h-1c0-0.8,0.3-1.3,0.8-1.6s1-0.5,1.7-0.5c0.7,0,1.3,0.1,1.8,0.4
			c0.5,0.3,0.7,0.7,0.7,1.3v3.6c0,0.1,0,0.2,0.1,0.3s0.1,0.1,0.3,0.1c0,0,0.1,0,0.2,0s0.1,0,0.2,0v0.8c-0.2,0-0.3,0.1-0.4,0.1
			s-0.2,0-0.4,0c-0.4,0-0.6-0.1-0.8-0.4c-0.1-0.1-0.1-0.3-0.2-0.6c-0.2,0.3-0.5,0.5-0.9,0.7s-0.8,0.3-1.3,0.3
			c-0.6,0-1.1-0.2-1.4-0.5s-0.6-0.8-0.6-1.3c0-0.6,0.2-1,0.5-1.4s0.8-0.5,1.4-0.6L314.6,386.1z M312.3,389c0.2,0.2,0.5,0.3,0.8,0.3
			c0.4,0,0.7-0.1,1.1-0.3c0.6-0.3,0.9-0.8,0.9-1.4v-0.8c-0.1,0.1-0.3,0.2-0.5,0.2s-0.4,0.1-0.6,0.1l-0.6,0.1
			c-0.4,0.1-0.7,0.1-0.9,0.2c-0.3,0.2-0.5,0.5-0.5,0.9C312,388.6,312.1,388.8,312.3,389z"/>
		<path class="st1" d="M317.9,383.6h1v0.9c0.3-0.4,0.6-0.6,0.9-0.8s0.7-0.2,1.1-0.2c0.9,0,1.5,0.3,1.8,0.9c0.2,0.3,0.3,0.8,0.3,1.5
			v4h-1.1v-4c0-0.4-0.1-0.7-0.2-0.9c-0.2-0.4-0.5-0.6-1-0.6c-0.2,0-0.5,0-0.6,0.1c-0.3,0.1-0.5,0.3-0.8,0.5
			c-0.2,0.2-0.3,0.4-0.3,0.6s-0.1,0.5-0.1,0.9v3.3h-1.1V383.6z"/>
		<path class="st1" d="M328,383.9c0.2,0.1,0.4,0.3,0.6,0.6v-0.8h1v5.7c0,0.8-0.1,1.4-0.4,1.9c-0.4,0.9-1.3,1.3-2.5,1.3
			c-0.7,0-1.2-0.2-1.7-0.5s-0.7-0.8-0.8-1.4h1.1c0.1,0.3,0.2,0.5,0.3,0.7c0.2,0.2,0.6,0.4,1.1,0.4c0.8,0,1.3-0.3,1.6-0.9
			c0.1-0.3,0.2-0.9,0.2-1.8c-0.2,0.3-0.5,0.6-0.8,0.7s-0.7,0.2-1.2,0.2c-0.7,0-1.3-0.2-1.8-0.7s-0.8-1.3-0.8-2.4
			c0-1.1,0.3-1.9,0.8-2.5s1.1-0.9,1.9-0.9C327.2,383.5,327.7,383.7,328,383.9z M328.2,385c-0.3-0.4-0.7-0.6-1.2-0.6
			c-0.7,0-1.2,0.3-1.5,1c-0.1,0.4-0.2,0.9-0.2,1.5c0,0.7,0.1,1.2,0.4,1.6s0.7,0.6,1.2,0.6c0.8,0,1.3-0.3,1.6-1
			c0.2-0.4,0.3-0.8,0.3-1.4C328.7,386,328.5,385.4,328.2,385z"/>
	</g>
</g>
<g>
	<g>
		<path class="st1" d="M245.5,486.7h1.3l3.1,8.6h-1.3l-0.9-2.6h-3.4l-0.9,2.6h-1.2L245.5,486.7z M247.4,491.8l-1.3-3.8l-1.4,3.8
			H247.4z"/>
		<path class="st1" d="M251,487.3h1.1v1.8h1v0.9h-1v4.1c0,0.2,0.1,0.4,0.2,0.4c0.1,0,0.2,0.1,0.4,0.1c0.1,0,0.1,0,0.2,0s0.1,0,0.2,0
			v0.8c-0.1,0-0.2,0.1-0.4,0.1s-0.3,0-0.4,0c-0.5,0-0.8-0.1-1-0.4s-0.3-0.6-0.3-1v-4.2h-0.8V489h0.8V487.3z"/>
		<path class="st1" d="M258.1,489.2c0.4,0.2,0.7,0.5,1,0.8c0.2,0.3,0.4,0.7,0.4,1.1c0.1,0.3,0.1,0.8,0.1,1.4h-4.6
			c0,0.6,0.2,1.1,0.5,1.5s0.7,0.6,1.3,0.6c0.6,0,1-0.2,1.3-0.5c0.2-0.2,0.3-0.5,0.4-0.7h1c0,0.2-0.1,0.5-0.3,0.8s-0.3,0.5-0.5,0.7
			c-0.3,0.3-0.7,0.5-1.2,0.6c-0.3,0.1-0.5,0.1-0.9,0.1c-0.8,0-1.4-0.3-2-0.9s-0.8-1.4-0.8-2.4c0-1,0.3-1.8,0.8-2.5s1.3-0.9,2.1-0.9
			C257.2,488.9,257.7,489,258.1,489.2z M258.5,491.7c0-0.5-0.1-0.8-0.3-1.1c-0.3-0.5-0.8-0.8-1.4-0.8c-0.5,0-0.9,0.2-1.2,0.5
			s-0.5,0.8-0.5,1.3H258.5z"/>
		<path class="st1" d="M260.9,489h1v1.1c0.1-0.2,0.3-0.5,0.6-0.8s0.7-0.5,1.1-0.5c0,0,0.1,0,0.1,0s0.1,0,0.2,0v1.1
			c-0.1,0-0.1,0-0.2,0s-0.1,0-0.2,0c-0.5,0-0.9,0.2-1.2,0.5s-0.4,0.7-0.4,1.2v3.6h-1.1V489z"/>
		<path class="st1" d="M264.9,489h1v1.1c0.1-0.2,0.3-0.5,0.6-0.8s0.7-0.5,1.1-0.5c0,0,0.1,0,0.1,0s0.1,0,0.2,0v1.1
			c-0.1,0-0.1,0-0.2,0s-0.1,0-0.2,0c-0.5,0-0.9,0.2-1.2,0.5s-0.4,0.7-0.4,1.2v3.6h-1.1V489z"/>
		<path class="st1" d="M268.8,486.7h1.1v1.2h-1.1V486.7z M268.8,489.1h1.1v6.2h-1.1V489.1z"/>
		<path class="st1" d="M271,494.5l3.7-4.5h-3.4V489h4.9v0.9l-3.7,4.5h3.8v0.9H271V494.5z"/>
		<path class="st1" d="M282.1,489.7c0.6,0.5,0.8,1.3,0.8,2.4c0,1-0.2,1.8-0.7,2.5s-1.3,1-2.3,1c-0.9,0-1.5-0.3-2.1-0.9
			s-0.8-1.4-0.8-2.4c0-1.1,0.3-1.9,0.8-2.5s1.3-0.9,2.2-0.9C280.8,488.9,281.5,489.1,282.1,489.7z M281.4,493.8
			c0.3-0.5,0.4-1.1,0.4-1.8c0-0.6-0.1-1.1-0.3-1.4c-0.3-0.6-0.8-0.9-1.5-0.9c-0.6,0-1.1,0.2-1.4,0.7s-0.4,1.1-0.4,1.8
			c0,0.7,0.1,1.2,0.4,1.7s0.8,0.7,1.4,0.7C280.7,494.6,281.2,494.4,281.4,493.8z M281.3,486.5l-1.6,1.7h-0.8l1.1-1.7H281.3z"/>
		<path class="st1" d="M291.4,489.2c0.4,0.2,0.7,0.5,1,0.8c0.2,0.3,0.4,0.7,0.4,1.1c0.1,0.3,0.1,0.8,0.1,1.4h-4.6
			c0,0.6,0.2,1.1,0.5,1.5s0.7,0.6,1.3,0.6c0.6,0,1-0.2,1.3-0.5c0.2-0.2,0.3-0.5,0.4-0.7h1c0,0.2-0.1,0.5-0.3,0.8s-0.3,0.5-0.5,0.7
			c-0.3,0.3-0.7,0.5-1.2,0.6c-0.3,0.1-0.5,0.1-0.9,0.1c-0.8,0-1.4-0.3-2-0.9s-0.8-1.4-0.8-2.4c0-1,0.3-1.8,0.8-2.5s1.3-0.9,2.1-0.9
			C290.6,488.9,291,489,291.4,489.2z M291.8,491.7c0-0.5-0.1-0.8-0.3-1.1c-0.3-0.5-0.8-0.8-1.4-0.8c-0.5,0-0.9,0.2-1.2,0.5
			s-0.5,0.8-0.5,1.3H291.8z"/>
		<path class="st1" d="M294.2,486.7h1.1v8.6h-1.1V486.7z"/>
		<path class="st1" d="M300.6,489.4v-0.8c0.8-0.1,1.3-0.2,1.6-0.4s0.5-0.6,0.7-1.2h0.8v8.4h-1.1v-5.9H300.6z"/>
		<path class="st1" d="M311.6,487.6c0.4,0.5,0.6,1,0.6,1.5h-1c-0.1-0.3-0.2-0.6-0.3-0.8c-0.3-0.4-0.6-0.5-1.2-0.5
			c-0.6,0-1.1,0.3-1.4,0.8s-0.5,1.3-0.6,2.3c0.2-0.4,0.5-0.6,0.9-0.8c0.3-0.2,0.7-0.2,1.1-0.2c0.7,0,1.3,0.2,1.8,0.7s0.8,1.1,0.8,2
			c0,0.8-0.2,1.4-0.7,2s-1.2,0.9-2.1,0.9c-0.8,0-1.5-0.3-2-0.9s-0.9-1.6-0.9-3c0-1,0.1-1.9,0.4-2.7c0.5-1.4,1.4-2.1,2.7-2.1
			C310.5,486.9,311.2,487.1,311.6,487.6z M310.8,494c0.3-0.4,0.4-0.8,0.4-1.3c0-0.4-0.1-0.8-0.4-1.2s-0.7-0.6-1.3-0.6
			c-0.5,0-0.9,0.2-1.2,0.5s-0.5,0.8-0.5,1.4c0,0.5,0.2,1,0.5,1.3s0.7,0.5,1.3,0.5C310.1,494.6,310.5,494.4,310.8,494z"/>
		<path class="st1" d="M320.3,489.2c0.2,0.1,0.4,0.3,0.6,0.6v-3.2h1v8.6H321v-0.9c-0.2,0.4-0.5,0.7-0.9,0.8s-0.7,0.3-1.2,0.3
			c-0.7,0-1.3-0.3-1.8-0.9s-0.8-1.4-0.8-2.3c0-0.9,0.2-1.7,0.7-2.4s1.1-1,2-1C319.6,488.9,320,489,320.3,489.2z M318,493.9
			c0.3,0.5,0.7,0.7,1.4,0.7c0.5,0,0.9-0.2,1.2-0.6s0.5-1,0.5-1.8c0-0.8-0.2-1.4-0.5-1.8s-0.7-0.6-1.2-0.6c-0.5,0-1,0.2-1.3,0.6
			s-0.5,1-0.5,1.8C317.5,492.9,317.7,493.5,318,493.9z"/>
		<path class="st1" d="M327.4,489.2c0.4,0.2,0.7,0.5,1,0.8c0.2,0.3,0.4,0.7,0.4,1.1c0.1,0.3,0.1,0.8,0.1,1.4h-4.6
			c0,0.6,0.2,1.1,0.5,1.5s0.7,0.6,1.3,0.6c0.6,0,1-0.2,1.3-0.5c0.2-0.2,0.3-0.5,0.4-0.7h1c0,0.2-0.1,0.5-0.3,0.8s-0.3,0.5-0.5,0.7
			c-0.3,0.3-0.7,0.5-1.2,0.6c-0.3,0.1-0.5,0.1-0.9,0.1c-0.8,0-1.4-0.3-2-0.9s-0.8-1.4-0.8-2.4c0-1,0.3-1.8,0.8-2.5s1.3-0.9,2.1-0.9
			C326.6,488.9,327,489,327.4,489.2z M327.8,491.7c0-0.5-0.1-0.8-0.3-1.1c-0.3-0.5-0.8-0.8-1.4-0.8c-0.5,0-0.9,0.2-1.2,0.5
			s-0.5,0.8-0.5,1.3H327.8z"/>
		<path class="st1" d="M337,489.2c0.2,0.1,0.4,0.3,0.6,0.6v-3.2h1v8.6h-0.9v-0.9c-0.2,0.4-0.5,0.7-0.9,0.8s-0.7,0.3-1.2,0.3
			c-0.7,0-1.3-0.3-1.8-0.9s-0.8-1.4-0.8-2.3c0-0.9,0.2-1.7,0.7-2.4s1.1-1,2-1C336.3,488.9,336.7,489,337,489.2z M334.6,493.9
			c0.3,0.5,0.7,0.7,1.4,0.7c0.5,0,0.9-0.2,1.2-0.6s0.5-1,0.5-1.8c0-0.8-0.2-1.4-0.5-1.8s-0.7-0.6-1.2-0.6c-0.5,0-1,0.2-1.3,0.6
			s-0.5,1-0.5,1.8C334.2,492.9,334.4,493.5,334.6,493.9z"/>
		<path class="st1" d="M340.2,486.7h1.1v1.2h-1.1V486.7z M340.2,489.1h1.1v6.2h-1.1V489.1z"/>
		<path class="st1" d="M347,489.4c0.4,0.3,0.7,0.9,0.8,1.8h-1c-0.1-0.4-0.2-0.7-0.4-1s-0.6-0.4-1.1-0.4c-0.7,0-1.2,0.3-1.4,1
			c-0.2,0.4-0.3,1-0.3,1.6c0,0.6,0.1,1.2,0.4,1.6s0.7,0.6,1.3,0.6c0.4,0,0.8-0.1,1-0.4s0.4-0.6,0.5-1.1h1c-0.1,0.8-0.4,1.4-0.9,1.8
			s-1.1,0.6-1.8,0.6c-0.8,0-1.5-0.3-2-0.9s-0.7-1.3-0.7-2.2c0-1.1,0.3-2,0.8-2.6s1.2-0.9,2-0.9C346,488.9,346.6,489,347,489.4z"/>
		<path class="st1" d="M348.9,486.7h1.1v1.2h-1.1V486.7z M348.9,489.1h1.1v6.2h-1.1V489.1z"/>
		<path class="st1" d="M355.5,489.2c0.4,0.2,0.7,0.5,1,0.8c0.2,0.3,0.4,0.7,0.4,1.1c0.1,0.3,0.1,0.8,0.1,1.4h-4.6
			c0,0.6,0.2,1.1,0.5,1.5s0.7,0.6,1.3,0.6c0.6,0,1-0.2,1.3-0.5c0.2-0.2,0.3-0.5,0.4-0.7h1c0,0.2-0.1,0.5-0.3,0.8s-0.3,0.5-0.5,0.7
			c-0.3,0.3-0.7,0.5-1.2,0.6c-0.3,0.1-0.5,0.1-0.9,0.1c-0.8,0-1.4-0.3-2-0.9s-0.8-1.4-0.8-2.4c0-1,0.3-1.8,0.8-2.5s1.3-0.9,2.1-0.9
			C354.6,488.9,355,489,355.5,489.2z M355.8,491.7c0-0.5-0.1-0.8-0.3-1.1c-0.3-0.5-0.8-0.8-1.4-0.8c-0.5,0-0.9,0.2-1.2,0.5
			s-0.5,0.8-0.5,1.3H355.8z"/>
		<path class="st1" d="M358.2,489h1v0.9c0.2-0.3,0.5-0.5,0.7-0.7c0.3-0.2,0.7-0.4,1.2-0.4c0.5,0,0.9,0.1,1.2,0.4
			c0.2,0.1,0.3,0.3,0.5,0.6c0.2-0.3,0.5-0.6,0.8-0.7s0.7-0.2,1.1-0.2c0.8,0,1.4,0.3,1.7,0.9c0.2,0.3,0.2,0.8,0.2,1.3v4.2h-1.1V491
			c0-0.4-0.1-0.7-0.3-0.9s-0.5-0.2-0.8-0.2c-0.4,0-0.8,0.1-1.1,0.4s-0.4,0.7-0.4,1.4v3.7h-1.1v-4.1c0-0.4-0.1-0.7-0.2-0.9
			c-0.2-0.3-0.5-0.4-0.9-0.4c-0.4,0-0.8,0.2-1.1,0.5s-0.5,0.9-0.5,1.7v3.3h-1.1V489z"/>
		<path class="st1" d="M368.1,486.7h1v3.1c0.2-0.3,0.5-0.5,0.8-0.7s0.7-0.2,1-0.2c0.8,0,1.4,0.3,1.9,0.8s0.7,1.3,0.7,2.4
			c0,1-0.2,1.8-0.7,2.5s-1.1,1-2,1c-0.5,0-0.9-0.1-1.2-0.3c-0.2-0.1-0.4-0.4-0.6-0.7v0.8h-1V486.7z M372.2,493.9
			c0.3-0.5,0.4-1.1,0.4-1.8c0-0.7-0.1-1.2-0.4-1.6s-0.7-0.7-1.3-0.7c-0.5,0-0.9,0.2-1.3,0.5s-0.5,0.9-0.5,1.8c0,0.6,0.1,1.1,0.2,1.4
			c0.3,0.7,0.8,1,1.6,1C371.5,494.6,371.9,494.4,372.2,493.9z"/>
		<path class="st1" d="M374.9,489h1v1.1c0.1-0.2,0.3-0.5,0.6-0.8s0.7-0.5,1.1-0.5c0,0,0.1,0,0.1,0s0.1,0,0.2,0v1.1
			c-0.1,0-0.1,0-0.2,0s-0.1,0-0.2,0c-0.5,0-0.9,0.2-1.2,0.5s-0.4,0.7-0.4,1.2v3.6h-1.1V489z"/>
		<path class="st1" d="M382.8,489.2c0.4,0.2,0.7,0.5,1,0.8c0.2,0.3,0.4,0.7,0.4,1.1c0.1,0.3,0.1,0.8,0.1,1.4h-4.6
			c0,0.6,0.2,1.1,0.5,1.5s0.7,0.6,1.3,0.6c0.6,0,1-0.2,1.3-0.5c0.2-0.2,0.3-0.5,0.4-0.7h1c0,0.2-0.1,0.5-0.3,0.8s-0.3,0.5-0.5,0.7
			c-0.3,0.3-0.7,0.5-1.2,0.6c-0.3,0.1-0.5,0.1-0.9,0.1c-0.8,0-1.4-0.3-2-0.9s-0.8-1.4-0.8-2.4c0-1,0.3-1.8,0.8-2.5s1.3-0.9,2.1-0.9
			C382,488.9,382.4,489,382.8,489.2z M383.2,491.7c0-0.5-0.1-0.8-0.3-1.1c-0.3-0.5-0.8-0.8-1.4-0.8c-0.5,0-0.9,0.2-1.2,0.5
			s-0.5,0.8-0.5,1.3H383.2z"/>
		<path class="st1" d="M238.9,503.6c0.2,0.1,0.4,0.3,0.6,0.6v-3.2h1v8.6h-0.9v-0.9c-0.2,0.4-0.5,0.7-0.9,0.8s-0.7,0.3-1.2,0.3
			c-0.7,0-1.3-0.3-1.8-0.9s-0.8-1.4-0.8-2.3c0-0.9,0.2-1.7,0.7-2.4s1.1-1,2-1C238.2,503.3,238.6,503.4,238.9,503.6z M236.6,508.3
			c0.3,0.5,0.7,0.7,1.4,0.7c0.5,0,0.9-0.2,1.2-0.6s0.5-1,0.5-1.8c0-0.8-0.2-1.4-0.5-1.8s-0.7-0.6-1.2-0.6c-0.5,0-1,0.2-1.3,0.6
			s-0.5,1-0.5,1.8C236.1,507.3,236.3,507.9,236.6,508.3z"/>
		<path class="st1" d="M246.1,503.6c0.4,0.2,0.7,0.5,1,0.8c0.2,0.3,0.4,0.7,0.4,1.1c0.1,0.3,0.1,0.8,0.1,1.4h-4.6
			c0,0.6,0.2,1.1,0.5,1.5s0.7,0.6,1.3,0.6c0.6,0,1-0.2,1.3-0.5c0.2-0.2,0.3-0.5,0.4-0.7h1c0,0.2-0.1,0.5-0.3,0.8s-0.3,0.5-0.5,0.7
			c-0.3,0.3-0.7,0.5-1.2,0.6c-0.3,0.1-0.5,0.1-0.9,0.1c-0.8,0-1.4-0.3-2-0.9s-0.8-1.4-0.8-2.4c0-1,0.3-1.8,0.8-2.5s1.3-0.9,2.1-0.9
			C245.2,503.3,245.6,503.4,246.1,503.6z M246.4,506.1c0-0.5-0.1-0.8-0.3-1.1c-0.3-0.5-0.8-0.8-1.4-0.8c-0.5,0-0.9,0.2-1.2,0.5
			s-0.5,0.8-0.5,1.3H246.4z"/>
		<path class="st1" d="M248.9,501.1h1.1v8.6h-1.1V501.1z"/>
		<path class="st1" d="M254.9,507.8c0.3-0.5,0.8-1,1.5-1.5l1.1-0.7c0.5-0.3,0.9-0.5,1.1-0.8c0.3-0.3,0.5-0.7,0.5-1.1
			c0-0.5-0.1-0.9-0.4-1.2s-0.7-0.4-1.2-0.4c-0.7,0-1.2,0.3-1.5,0.8c-0.1,0.3-0.2,0.7-0.2,1.2h-1.1c0-0.7,0.1-1.3,0.4-1.8
			c0.5-0.8,1.3-1.2,2.4-1.2c1,0,1.7,0.3,2.1,0.8s0.7,1.1,0.7,1.7c0,0.7-0.2,1.2-0.7,1.7c-0.3,0.3-0.8,0.6-1.5,1l-0.8,0.4
			c-0.4,0.2-0.7,0.4-0.9,0.6c-0.4,0.3-0.6,0.7-0.7,1.1h4.6v1h-5.8C254.5,509,254.6,508.4,254.9,507.8z"/>
		<path class="st1" d="M266.3,502.7c0.4,0.7,0.6,1.6,0.6,2.8c0,1.1-0.2,2.1-0.5,2.8c-0.5,1.1-1.3,1.6-2.4,1.6c-1,0-1.8-0.4-2.2-1.3
			c-0.4-0.7-0.6-1.7-0.6-2.9c0-1,0.1-1.8,0.4-2.5c0.5-1.3,1.3-1.9,2.5-1.9C265.1,501.3,265.8,501.8,266.3,502.7z M265.3,508.3
			c0.3-0.5,0.5-1.4,0.5-2.7c0-1-0.1-1.7-0.4-2.4s-0.7-0.9-1.4-0.9c-0.6,0-1.1,0.3-1.4,0.9s-0.4,1.4-0.4,2.6c0,0.9,0.1,1.5,0.3,2.1
			c0.3,0.8,0.8,1.2,1.4,1.2C264.5,509,264.9,508.7,265.3,508.3z"/>
		<path class="st1" d="M268.2,507.8c0.3-0.5,0.8-1,1.5-1.5l1.1-0.7c0.5-0.3,0.9-0.5,1.1-0.8c0.3-0.3,0.5-0.7,0.5-1.1
			c0-0.5-0.1-0.9-0.4-1.2s-0.7-0.4-1.2-0.4c-0.7,0-1.2,0.3-1.5,0.8c-0.1,0.3-0.2,0.7-0.2,1.2H268c0-0.7,0.1-1.3,0.4-1.8
			c0.5-0.8,1.3-1.2,2.4-1.2c1,0,1.7,0.3,2.1,0.8s0.7,1.1,0.7,1.7c0,0.7-0.2,1.2-0.7,1.7c-0.3,0.3-0.8,0.6-1.5,1l-0.8,0.4
			c-0.4,0.2-0.7,0.4-0.9,0.6c-0.4,0.3-0.6,0.7-0.7,1.1h4.6v1h-5.8C267.8,509,268,508.4,268.2,507.8z"/>
		<path class="st1" d="M279.7,502.7c0.4,0.7,0.6,1.6,0.6,2.8c0,1.1-0.2,2.1-0.5,2.8c-0.5,1.1-1.3,1.6-2.4,1.6c-1,0-1.8-0.4-2.2-1.3
			c-0.4-0.7-0.6-1.7-0.6-2.9c0-1,0.1-1.8,0.4-2.5c0.5-1.3,1.3-1.9,2.5-1.9C278.4,501.3,279.2,501.8,279.7,502.7z M278.6,508.3
			c0.3-0.5,0.5-1.4,0.5-2.7c0-1-0.1-1.7-0.4-2.4s-0.7-0.9-1.4-0.9c-0.6,0-1.1,0.3-1.4,0.9s-0.4,1.4-0.4,2.6c0,0.9,0.1,1.5,0.3,2.1
			c0.3,0.8,0.8,1.2,1.4,1.2C277.9,509,278.3,508.7,278.6,508.3z"/>
		<path class="st1" d="M288.8,503.6c0.4,0.2,0.7,0.5,1,0.8c0.2,0.3,0.4,0.7,0.4,1.1c0.1,0.3,0.1,0.8,0.1,1.4h-4.6
			c0,0.6,0.2,1.1,0.5,1.5s0.7,0.6,1.3,0.6c0.6,0,1-0.2,1.3-0.5c0.2-0.2,0.3-0.5,0.4-0.7h1c0,0.2-0.1,0.5-0.3,0.8s-0.3,0.5-0.5,0.7
			c-0.3,0.3-0.7,0.5-1.2,0.6c-0.3,0.1-0.5,0.1-0.9,0.1c-0.8,0-1.4-0.3-2-0.9s-0.8-1.4-0.8-2.4c0-1,0.3-1.8,0.8-2.5s1.3-0.9,2.1-0.9
			C287.9,503.3,288.3,503.4,288.8,503.6z M289.1,506.1c0-0.5-0.1-0.8-0.3-1.1c-0.3-0.5-0.8-0.8-1.4-0.8c-0.5,0-0.9,0.2-1.2,0.5
			s-0.5,0.8-0.5,1.3H289.1z"/>
		<path class="st1" d="M291.5,503.4h1v0.9c0.3-0.4,0.6-0.6,0.9-0.8s0.7-0.2,1.1-0.2c0.9,0,1.5,0.3,1.8,0.9c0.2,0.3,0.3,0.8,0.3,1.5
			v4h-1.1v-4c0-0.4-0.1-0.7-0.2-0.9c-0.2-0.4-0.5-0.6-1-0.6c-0.2,0-0.5,0-0.6,0.1c-0.3,0.1-0.5,0.3-0.8,0.5
			c-0.2,0.2-0.3,0.4-0.3,0.6s-0.1,0.5-0.1,0.9v3.3h-1.1V503.4z"/>
		<path class="st1" d="M301.6,501.1h1.7l2.5,7.3l2.5-7.3h1.7v8.6h-1.1v-5.1c0-0.2,0-0.5,0-0.9s0-0.8,0-1.3l-2.5,7.3h-1.2l-2.5-7.3
			v0.3c0,0.2,0,0.5,0,1s0,0.7,0,1v5.1h-1.1V501.1z"/>
		<path class="st1" d="M316.1,504.1c0.6,0.5,0.8,1.3,0.8,2.4c0,1-0.2,1.8-0.7,2.5s-1.3,1-2.3,1c-0.9,0-1.5-0.3-2.1-0.9
			s-0.8-1.4-0.8-2.4c0-1.1,0.3-1.9,0.8-2.5s1.3-0.9,2.2-0.9C314.9,503.3,315.6,503.5,316.1,504.1z M315.5,508.2
			c0.3-0.5,0.4-1.1,0.4-1.8c0-0.6-0.1-1.1-0.3-1.4c-0.3-0.6-0.8-0.9-1.5-0.9c-0.6,0-1.1,0.2-1.4,0.7s-0.4,1.1-0.4,1.8
			c0,0.7,0.1,1.2,0.4,1.7s0.8,0.7,1.4,0.7C314.7,509,315.2,508.8,315.5,508.2z"/>
		<path class="st1" d="M318.2,503.4h1v0.9c0.3-0.4,0.6-0.6,0.9-0.8s0.7-0.2,1.1-0.2c0.9,0,1.5,0.3,1.8,0.9c0.2,0.3,0.3,0.8,0.3,1.5
			v4h-1.1v-4c0-0.4-0.1-0.7-0.2-0.9c-0.2-0.4-0.5-0.6-1-0.6c-0.2,0-0.5,0-0.6,0.1c-0.3,0.1-0.5,0.3-0.8,0.5
			c-0.2,0.2-0.3,0.4-0.3,0.6s-0.1,0.5-0.1,0.9v3.3h-1.1V503.4z"/>
		<path class="st1" d="M328.4,503.7c0.2,0.1,0.4,0.3,0.6,0.6v-0.8h1v5.7c0,0.8-0.1,1.4-0.4,1.9c-0.4,0.9-1.3,1.3-2.5,1.3
			c-0.7,0-1.2-0.2-1.7-0.5s-0.7-0.8-0.8-1.4h1.1c0.1,0.3,0.2,0.5,0.3,0.7c0.2,0.2,0.6,0.4,1.1,0.4c0.8,0,1.3-0.3,1.6-0.9
			c0.1-0.3,0.2-0.9,0.2-1.8c-0.2,0.3-0.5,0.6-0.8,0.7s-0.7,0.2-1.2,0.2c-0.7,0-1.3-0.2-1.8-0.7s-0.8-1.3-0.8-2.4
			c0-1.1,0.3-1.9,0.8-2.5s1.1-0.9,1.9-0.9C327.6,503.3,328,503.5,328.4,503.7z M328.5,504.8c-0.3-0.4-0.7-0.6-1.2-0.6
			c-0.7,0-1.2,0.3-1.5,1c-0.1,0.4-0.2,0.9-0.2,1.5c0,0.7,0.1,1.2,0.4,1.6s0.7,0.6,1.2,0.6c0.8,0,1.3-0.3,1.6-1
			c0.2-0.4,0.3-0.8,0.3-1.4C329,505.8,328.8,505.2,328.5,504.8z"/>
		<path class="st1" d="M336.1,504.1c0.6,0.5,0.8,1.3,0.8,2.4c0,1-0.2,1.8-0.7,2.5s-1.3,1-2.3,1c-0.9,0-1.5-0.3-2.1-0.9
			s-0.8-1.4-0.8-2.4c0-1.1,0.3-1.9,0.8-2.5s1.3-0.9,2.2-0.9C334.9,503.3,335.6,503.5,336.1,504.1z M335.5,508.2
			c0.3-0.5,0.4-1.1,0.4-1.8c0-0.6-0.1-1.1-0.3-1.4c-0.3-0.6-0.8-0.9-1.5-0.9c-0.6,0-1.1,0.2-1.4,0.7s-0.4,1.1-0.4,1.8
			c0,0.7,0.1,1.2,0.4,1.7s0.8,0.7,1.4,0.7C334.7,509,335.2,508.8,335.5,508.2z"/>
		<path class="st1" d="M338.3,501.1h1.1v8.6h-1.1V501.1z"/>
		<path class="st1" d="M340.9,501.1h1.1v1.2h-1.1V501.1z M340.9,503.5h1.1v6.2h-1.1V503.5z"/>
		<path class="st1" d="M346.9,505.9c0.2,0,0.4-0.1,0.5-0.3c0-0.1,0.1-0.2,0.1-0.4c0-0.4-0.1-0.6-0.4-0.8s-0.6-0.2-1.1-0.2
			c-0.6,0-0.9,0.1-1.2,0.4c-0.1,0.2-0.2,0.4-0.3,0.7h-1c0-0.8,0.3-1.3,0.8-1.6s1-0.5,1.7-0.5c0.7,0,1.3,0.1,1.8,0.4
			c0.5,0.3,0.7,0.7,0.7,1.3v3.6c0,0.1,0,0.2,0.1,0.3s0.1,0.1,0.3,0.1c0,0,0.1,0,0.2,0s0.1,0,0.2,0v0.8c-0.2,0-0.3,0.1-0.4,0.1
			s-0.2,0-0.4,0c-0.4,0-0.6-0.1-0.8-0.4c-0.1-0.1-0.1-0.3-0.2-0.6c-0.2,0.3-0.5,0.5-0.9,0.7s-0.8,0.3-1.3,0.3
			c-0.6,0-1.1-0.2-1.4-0.5s-0.6-0.8-0.6-1.3c0-0.6,0.2-1,0.5-1.4s0.8-0.5,1.4-0.6L346.9,505.9z M344.7,508.8
			c0.2,0.2,0.5,0.3,0.8,0.3c0.4,0,0.7-0.1,1.1-0.3c0.6-0.3,0.9-0.8,0.9-1.4v-0.8c-0.1,0.1-0.3,0.2-0.5,0.2s-0.4,0.1-0.6,0.1
			l-0.6,0.1c-0.4,0.1-0.7,0.1-0.9,0.2c-0.3,0.2-0.5,0.5-0.5,0.9C344.4,508.4,344.5,508.6,344.7,508.8z"/>
		<path class="st1" d="M353.6,501.1h1.1v1.2h-1.1V501.1z M353.6,503.5h1.1v6.2h-1.1V503.5z"/>
		<path class="st1" d="M356.2,503.4h1v0.9c0.3-0.4,0.6-0.6,0.9-0.8s0.7-0.2,1.1-0.2c0.9,0,1.5,0.3,1.8,0.9c0.2,0.3,0.3,0.8,0.3,1.5
			v4h-1.1v-4c0-0.4-0.1-0.7-0.2-0.9c-0.2-0.4-0.5-0.6-1-0.6c-0.2,0-0.5,0-0.6,0.1c-0.3,0.1-0.5,0.3-0.8,0.5
			c-0.2,0.2-0.3,0.4-0.3,0.6s-0.1,0.5-0.1,0.9v3.3h-1.1V503.4z"/>
		<path class="st1" d="M363.1,501.7h1.1v1.8h1v0.9h-1v4.1c0,0.2,0.1,0.4,0.2,0.4c0.1,0,0.2,0.1,0.4,0.1c0.1,0,0.1,0,0.2,0
			s0.1,0,0.2,0v0.8c-0.1,0-0.2,0.1-0.4,0.1s-0.3,0-0.4,0c-0.5,0-0.8-0.1-1-0.4s-0.3-0.6-0.3-1v-4.2h-0.8v-0.9h0.8V501.7z"/>
		<path class="st1" d="M370.1,503.6c0.4,0.2,0.7,0.5,1,0.8c0.2,0.3,0.4,0.7,0.4,1.1c0.1,0.3,0.1,0.8,0.1,1.4H367
			c0,0.6,0.2,1.1,0.5,1.5s0.7,0.6,1.3,0.6c0.6,0,1-0.2,1.3-0.5c0.2-0.2,0.3-0.5,0.4-0.7h1c0,0.2-0.1,0.5-0.3,0.8s-0.3,0.5-0.5,0.7
			c-0.3,0.3-0.7,0.5-1.2,0.6c-0.3,0.1-0.5,0.1-0.9,0.1c-0.8,0-1.4-0.3-2-0.9s-0.8-1.4-0.8-2.4c0-1,0.3-1.8,0.8-2.5s1.3-0.9,2.1-0.9
			C369.3,503.3,369.7,503.4,370.1,503.6z M370.5,506.1c0-0.5-0.1-0.8-0.3-1.1c-0.3-0.5-0.8-0.8-1.4-0.8c-0.5,0-0.9,0.2-1.2,0.5
			s-0.5,0.8-0.5,1.3H370.5z"/>
		<path class="st1" d="M372.9,503.4h1v1.1c0.1-0.2,0.3-0.5,0.6-0.8s0.7-0.5,1.1-0.5c0,0,0.1,0,0.1,0s0.1,0,0.2,0v1.1
			c-0.1,0-0.1,0-0.2,0s-0.1,0-0.2,0c-0.5,0-0.9,0.2-1.2,0.5s-0.4,0.7-0.4,1.2v3.6h-1.1V503.4z"/>
		<path class="st1" d="M376.9,501.1h1.1v1.2h-1.1V501.1z M376.9,503.5h1.1v6.2h-1.1V503.5z"/>
		<path class="st1" d="M384.2,504.1c0.6,0.5,0.8,1.3,0.8,2.4c0,1-0.2,1.8-0.7,2.5s-1.3,1-2.3,1c-0.9,0-1.5-0.3-2.1-0.9
			s-0.8-1.4-0.8-2.4c0-1.1,0.3-1.9,0.8-2.5s1.3-0.9,2.2-0.9C382.9,503.3,383.6,503.5,384.2,504.1z M383.5,508.2
			c0.3-0.5,0.4-1.1,0.4-1.8c0-0.6-0.1-1.1-0.3-1.4c-0.3-0.6-0.8-0.9-1.5-0.9c-0.6,0-1.1,0.2-1.4,0.7s-0.4,1.1-0.4,1.8
			c0,0.7,0.1,1.2,0.4,1.7s0.8,0.7,1.4,0.7C382.8,509,383.2,508.8,383.5,508.2z"/>
		<path class="st1" d="M386.3,503.4h1v1.1c0.1-0.2,0.3-0.5,0.6-0.8s0.7-0.5,1.1-0.5c0,0,0.1,0,0.1,0s0.1,0,0.2,0v1.1
			c-0.1,0-0.1,0-0.2,0s-0.1,0-0.2,0c-0.5,0-0.9,0.2-1.2,0.5s-0.4,0.7-0.4,1.2v3.6h-1.1V503.4z"/>
		<path class="st1" d="M389.8,510.9c0.3,0,0.5-0.2,0.6-0.6c0.1-0.2,0.1-0.3,0.1-0.5c0,0,0-0.1,0-0.1s0,0,0-0.1h-0.6v-1.3h1.3v1.2
			c0,0.5-0.1,0.9-0.3,1.2s-0.5,0.6-1,0.7V510.9z"/>
		<path class="st1" d="M271.9,520.3c0.2,0,0.4-0.1,0.5-0.3c0-0.1,0.1-0.2,0.1-0.4c0-0.4-0.1-0.6-0.4-0.8s-0.6-0.2-1.1-0.2
			c-0.6,0-0.9,0.1-1.2,0.4c-0.1,0.2-0.2,0.4-0.3,0.7h-1c0-0.8,0.3-1.3,0.8-1.6s1-0.5,1.7-0.5c0.7,0,1.3,0.1,1.8,0.4
			c0.5,0.3,0.7,0.7,0.7,1.3v3.6c0,0.1,0,0.2,0.1,0.3s0.1,0.1,0.3,0.1c0,0,0.1,0,0.2,0s0.1,0,0.2,0v0.8c-0.2,0-0.3,0.1-0.4,0.1
			s-0.2,0-0.4,0c-0.4,0-0.6-0.1-0.8-0.4c-0.1-0.1-0.1-0.3-0.2-0.6c-0.2,0.3-0.5,0.5-0.9,0.7s-0.8,0.3-1.3,0.3
			c-0.6,0-1.1-0.2-1.4-0.5s-0.6-0.8-0.6-1.3c0-0.6,0.2-1,0.5-1.4s0.8-0.5,1.4-0.6L271.9,520.3z M269.6,523.2
			c0.2,0.2,0.5,0.3,0.8,0.3c0.4,0,0.7-0.1,1.1-0.3c0.6-0.3,0.9-0.8,0.9-1.4v-0.8c-0.1,0.1-0.3,0.2-0.5,0.2s-0.4,0.1-0.6,0.1
			l-0.6,0.1c-0.4,0.1-0.7,0.1-0.9,0.2c-0.3,0.2-0.5,0.5-0.5,0.9C269.3,522.8,269.4,523,269.6,523.2z"/>
		<path class="st1" d="M275.2,515.5h1.1v8.6h-1.1V515.5z"/>
		<path class="st1" d="M281.2,517.8h1v0.9c0.3-0.4,0.6-0.6,0.9-0.8s0.7-0.2,1.1-0.2c0.9,0,1.5,0.3,1.8,0.9c0.2,0.3,0.3,0.8,0.3,1.5
			v4h-1.1v-4c0-0.4-0.1-0.7-0.2-0.9c-0.2-0.4-0.5-0.6-1-0.6c-0.2,0-0.5,0-0.6,0.1c-0.3,0.1-0.5,0.3-0.8,0.5
			c-0.2,0.2-0.3,0.4-0.3,0.6s-0.1,0.5-0.1,0.9v3.3h-1.1V517.8z"/>
		<path class="st1" d="M292.4,518.5c0.6,0.5,0.8,1.3,0.8,2.4c0,1-0.2,1.8-0.7,2.5s-1.3,1-2.3,1c-0.9,0-1.5-0.3-2.1-0.9
			s-0.8-1.4-0.8-2.4c0-1.1,0.3-1.9,0.8-2.5s1.3-0.9,2.2-0.9C291.2,517.7,291.9,517.9,292.4,518.5z M291.8,522.6
			c0.3-0.5,0.4-1.1,0.4-1.8c0-0.6-0.1-1.1-0.3-1.4c-0.3-0.6-0.8-0.9-1.5-0.9c-0.6,0-1.1,0.2-1.4,0.7s-0.4,1.1-0.4,1.8
			c0,0.7,0.1,1.2,0.4,1.7s0.8,0.7,1.4,0.7C291,523.4,291.5,523.2,291.8,522.6z"/>
		<path class="st1" d="M294.6,517.8h1v1.1c0.1-0.2,0.3-0.5,0.6-0.8s0.7-0.5,1.1-0.5c0,0,0.1,0,0.1,0s0.1,0,0.2,0v1.1
			c-0.1,0-0.1,0-0.2,0s-0.1,0-0.2,0c-0.5,0-0.9,0.2-1.2,0.5s-0.4,0.7-0.4,1.2v3.6h-1.1V517.8z"/>
		<path class="st1" d="M298.7,516.1h1.1v1.8h1v0.9h-1v4.1c0,0.2,0.1,0.4,0.2,0.4c0.1,0,0.2,0.1,0.4,0.1c0.1,0,0.1,0,0.2,0
			s0.1,0,0.2,0v0.8c-0.1,0-0.2,0.1-0.4,0.1s-0.3,0-0.4,0c-0.5,0-0.8-0.1-1-0.4s-0.3-0.6-0.3-1v-4.2h-0.8v-0.9h0.8V516.1z"/>
		<path class="st1" d="M305.8,518c0.4,0.2,0.7,0.5,1,0.8c0.2,0.3,0.4,0.7,0.4,1.1c0.1,0.3,0.1,0.8,0.1,1.4h-4.6
			c0,0.6,0.2,1.1,0.5,1.5s0.7,0.6,1.3,0.6c0.6,0,1-0.2,1.3-0.5c0.2-0.2,0.3-0.5,0.4-0.7h1c0,0.2-0.1,0.5-0.3,0.8s-0.3,0.5-0.5,0.7
			c-0.3,0.3-0.7,0.5-1.2,0.6c-0.3,0.1-0.5,0.1-0.9,0.1c-0.8,0-1.4-0.3-2-0.9s-0.8-1.4-0.8-2.4c0-1,0.3-1.8,0.8-2.5s1.3-0.9,2.1-0.9
			C304.9,517.7,305.3,517.8,305.8,518z M306.1,520.5c0-0.5-0.1-0.8-0.3-1.1c-0.3-0.5-0.8-0.8-1.4-0.8c-0.5,0-0.9,0.2-1.2,0.5
			s-0.5,0.8-0.5,1.3H306.1z"/>
		<path class="st1" d="M315.3,518c0.2,0.1,0.4,0.3,0.6,0.6v-3.2h1v8.6H316v-0.9c-0.2,0.4-0.5,0.7-0.9,0.8s-0.7,0.3-1.2,0.3
			c-0.7,0-1.3-0.3-1.8-0.9s-0.8-1.4-0.8-2.3c0-0.9,0.2-1.7,0.7-2.4s1.1-1,2-1C314.6,517.7,315,517.8,315.3,518z M313,522.7
			c0.3,0.5,0.7,0.7,1.4,0.7c0.5,0,0.9-0.2,1.2-0.6s0.5-1,0.5-1.8c0-0.8-0.2-1.4-0.5-1.8s-0.7-0.6-1.2-0.6c-0.5,0-1,0.2-1.3,0.6
			s-0.5,1-0.5,1.8C312.5,521.7,312.7,522.3,313,522.7z"/>
		<path class="st1" d="M322.4,518c0.4,0.2,0.7,0.5,1,0.8c0.2,0.3,0.4,0.7,0.4,1.1c0.1,0.3,0.1,0.8,0.1,1.4h-4.6
			c0,0.6,0.2,1.1,0.5,1.5s0.7,0.6,1.3,0.6c0.6,0,1-0.2,1.3-0.5c0.2-0.2,0.3-0.5,0.4-0.7h1c0,0.2-0.1,0.5-0.3,0.8s-0.3,0.5-0.5,0.7
			c-0.3,0.3-0.7,0.5-1.2,0.6c-0.3,0.1-0.5,0.1-0.9,0.1c-0.8,0-1.4-0.3-2-0.9s-0.8-1.4-0.8-2.4c0-1,0.3-1.8,0.8-2.5s1.3-0.9,2.1-0.9
			C321.6,517.7,322,517.8,322.4,518z M322.8,520.5c0-0.5-0.1-0.8-0.3-1.1c-0.3-0.5-0.8-0.8-1.4-0.8c-0.5,0-0.9,0.2-1.2,0.5
			s-0.5,0.8-0.5,1.3H322.8z"/>
		<path class="st1" d="M334.8,516.1c0.6,0.6,0.9,1.2,1,2h-1.1c-0.1-0.6-0.4-1-0.8-1.3s-0.9-0.5-1.6-0.5c-0.8,0-1.5,0.3-2.1,0.9
			s-0.8,1.5-0.8,2.7c0,1,0.2,1.8,0.7,2.5s1.2,0.9,2.1,0.9c0.9,0,1.5-0.3,2-1c0.2-0.3,0.4-0.8,0.5-1.4h1.1c-0.1,0.9-0.4,1.7-1,2.3
			c-0.7,0.7-1.6,1.1-2.8,1.1c-1,0-1.8-0.3-2.5-0.9c-0.9-0.8-1.3-2-1.3-3.7c0-1.3,0.3-2.3,1-3.1c0.7-0.9,1.7-1.3,3-1.3
			C333.4,515.3,334.2,515.6,334.8,516.1z"/>
		<path class="st1" d="M337.2,515.5h1.1v3.2c0.2-0.3,0.5-0.5,0.7-0.7c0.3-0.2,0.8-0.3,1.3-0.3c0.9,0,1.5,0.3,1.9,1
			c0.2,0.3,0.3,0.8,0.3,1.4v4h-1.1v-4c0-0.5-0.1-0.8-0.2-1c-0.2-0.3-0.6-0.5-1.1-0.5c-0.4,0-0.8,0.2-1.2,0.5s-0.5,0.9-0.5,1.7v3.3
			h-1.1V515.5z"/>
		<path class="st1" d="M343.9,515.5h1.1v1.2h-1.1V515.5z M343.9,517.9h1.1v6.2h-1.1V517.9z"/>
		<path class="st1" d="M346.5,517.8h1v0.9c0.3-0.4,0.6-0.6,0.9-0.8s0.7-0.2,1.1-0.2c0.9,0,1.5,0.3,1.8,0.9c0.2,0.3,0.3,0.8,0.3,1.5
			v4h-1.1v-4c0-0.4-0.1-0.7-0.2-0.9c-0.2-0.4-0.5-0.6-1-0.6c-0.2,0-0.5,0-0.6,0.1c-0.3,0.1-0.5,0.3-0.8,0.5
			c-0.2,0.2-0.3,0.4-0.3,0.6s-0.1,0.5-0.1,0.9v3.3h-1.1V517.8z"/>
		<path class="st1" d="M356.6,520.3c0.2,0,0.4-0.1,0.5-0.3c0-0.1,0.1-0.2,0.1-0.4c0-0.4-0.1-0.6-0.4-0.8s-0.6-0.2-1.1-0.2
			c-0.6,0-0.9,0.1-1.2,0.4c-0.1,0.2-0.2,0.4-0.3,0.7h-1c0-0.8,0.3-1.3,0.8-1.6s1-0.5,1.7-0.5c0.7,0,1.3,0.1,1.8,0.4
			c0.5,0.3,0.7,0.7,0.7,1.3v3.6c0,0.1,0,0.2,0.1,0.3s0.1,0.1,0.3,0.1c0,0,0.1,0,0.2,0s0.1,0,0.2,0v0.8c-0.2,0-0.3,0.1-0.4,0.1
			s-0.2,0-0.4,0c-0.4,0-0.6-0.1-0.8-0.4c-0.1-0.1-0.1-0.3-0.2-0.6c-0.2,0.3-0.5,0.5-0.9,0.7s-0.8,0.3-1.3,0.3
			c-0.6,0-1.1-0.2-1.4-0.5s-0.6-0.8-0.6-1.3c0-0.6,0.2-1,0.5-1.4s0.8-0.5,1.4-0.6L356.6,520.3z M354.4,523.2
			c0.2,0.2,0.5,0.3,0.8,0.3c0.4,0,0.7-0.1,1.1-0.3c0.6-0.3,0.9-0.8,0.9-1.4v-0.8c-0.1,0.1-0.3,0.2-0.5,0.2s-0.4,0.1-0.6,0.1
			l-0.6,0.1c-0.4,0.1-0.7,0.1-0.9,0.2c-0.3,0.2-0.5,0.5-0.5,0.9C354,522.8,354.1,523,354.4,523.2z"/>
	</g>
</g>
</svg>
