<svg id="Layer_1" data-name="Layer 1" xmlns="http://www.w3.org/2000/svg" xmlns:xlink="http://www.w3.org/1999/xlink" viewBox="0 0 2533.89 1115.2"><defs><style>.cls-1,.cls-12,.cls-15,.cls-2{fill:#231f20;}.cls-15,.cls-2,.cls-4,.cls-5{stroke:#fff;}.cls-11,.cls-15,.cls-2,.cls-4,.cls-5,.cls-6,.cls-7{stroke-miterlimit:10;}.cls-11,.cls-13,.cls-16,.cls-3,.cls-6{fill:#fff;}.cls-4,.cls-5,.cls-7{fill:none;}.cls-11,.cls-15,.cls-4{stroke-width:3px;}.cls-11,.cls-6{stroke:#231f20;}.cls-7{stroke:#da5027;}.cls-8{fill:url(#linear-gradient);}.cls-9{fill:url(#linear-gradient-2);}.cls-10{fill:url(#linear-gradient-3);}.cls-12,.cls-13{font-size:12px;}.cls-12,.cls-13,.cls-16{font-family:Consolas;}.cls-14{fill:#fefefe;}.cls-16{font-size:17.82px;}.cls-17{fill:url(#linear-gradient-4);}.cls-18{fill:url(#linear-gradient-5);}</style><linearGradient id="linear-gradient" x1="329.81" y1="302.63" x2="105.15" y2="77.97" gradientUnits="userSpaceOnUse"><stop offset="0" stop-color="#f7941d"/><stop offset="1" stop-color="#be1e2d"/></linearGradient><linearGradient id="linear-gradient-2" x1="1.24" y1="144.35" x2="183.5" y2="144.35" gradientUnits="userSpaceOnUse"><stop offset="0" stop-color="#27aae1"/><stop offset="1" stop-color="#00a651"/></linearGradient><linearGradient id="linear-gradient-3" x1="167.05" y1="196.12" x2="408.92" y2="196.12" xlink:href="#linear-gradient-2"/><linearGradient id="linear-gradient-4" x1="138.11" y1="366.51" x2="283.19" y2="329.02" xlink:href="#linear-gradient"/><linearGradient id="linear-gradient-5" x1="142.12" y1="478.59" x2="271.01" y2="478.59" xlink:href="#linear-gradient-2"/></defs><rect class="cls-1" width="425" height="586"/><ellipse class="cls-2" cx="95.25" cy="151.5" rx="70.75" ry="71"/><path class="cls-3" d="M94.69,80A72,72,0,1,0,167,152,72.16,72.16,0,0,0,94.69,80Zm48.66,120.45a69,69,0,0,1-97.32,0,68.32,68.32,0,0,1,0-96.9c.31-.31.63-.59.94-.89a8.78,8.78,0,0,1-.94,2.12c-1,1.51-2.73,2.12-3.81,3.55a14.58,14.58,0,0,0-2.12,4.72c-.39,1.57-.15,3.49-.71,5.06-.71,2-2,3.19-1.75,5.5,2.79.83,1.58-4.12,3.93-4.37.75,1.84.26,5.28,0,7.29-.29,2.77-.84,3.45.82,5.83,1.32,1.88,1.75,3.14,4.3,3.44,2.33.27,3.3,1.32,4.27,3.56,1.8.38,2.89.68,3.12,2.66.78.44,2.25,1.83,3.07,2,1.19.31,3.19-1.38,4.31-.08,1.88,2.18-2.38,7.87-3.14,9.83-1.12,2.88-1.28,7.1,1.45,9.16,1.41,1.06,2.9,1.57,3.36,3.49s.09,3.26.88,4.94c1.24,2.61,4.06,3.48,6.07,5.49,2.64,2.63,2.46,6,2.46,9.76,0,3.9,1.48,6.86,2,10.43s1.62,7.09,2.4,10.65c.58,2.68,2.9,6.72,6.26,6.18.23-1.27-1.09-2.26-1.25-3.52s.17-2.33-.06-3.55c-.45-2.42-.43-3.84,1.18-5.94.57-.74,1.35-1.36,1.94-2.1,1.14-1.44.27-1,.22-2.6-.06-2,.54-1,1.73-1.62a9.67,9.67,0,0,0,1.79-1.77,27.1,27.1,0,0,0,3.45-3.66c.91-1.44.8-3.45,1.73-4.94,1.07-1.71,2.58-1.71,4.07-2.82,1.93-1.45,1.13-3,1.49-5a22.36,22.36,0,0,1,4.19-9.59c2.63-3.32,3.77-6.14.56-9.33-1.59-1.57-2.41-1.15-4.52-1.7-1.6-.42-3-1.58-4.68-1.79-1-.11-1.55.24-2.45,0s-.73-.72-1.61-.71c-1.31,0-3.14,2.73-4.24,1-.62-1,1.25-3.65,1.17-5-.11-1.59-.7-4.18-2.27-5-.59-.33-1.91-.38-2.64-.66a14.2,14.2,0,0,1-2.45-1.34c-1-.64-2.93-1.75-3.37-2.89-1.23-.05-2.06-.72-3.31-.71s-1.86.53-3.07.4c-1.06-.12-2.2-.95-3.34-.8A10.23,10.23,0,0,0,65,139.8a18.21,18.21,0,0,1-5.52,2c-3,.56-3.52-.58-3.34-3.33l-.45-.88c1.11-3.07-.89-3.29-3.09-4-.3-2.19,2.4-3.75,1.27-6.14-2.28-.12-4.77,6.28-6.7,3.51-1.28-1.83.66-6.94,1.78-8.49s5.24-4.37,7.17-4.61a3.13,3.13,0,0,1,3.41,1.78c.63,1.44-.19,2.79,0,4.41,1.92-.44,1.42-2.88,1.34-4.19-.14-2.18,1-2,2.13-3.59s1.17-3.07,2.44-4.45c1-1.08,2.15-2.22,3.24-3.22,1.24-1.13,2.63-1,3.91-1.86,1.93-1.28-.63-3.64,2.22-3.46,1,.06.51.69,1.85.39a20.13,20.13,0,0,0,2.21-.9c2.72-1.1.79-1.39-.45-2.82-1.59-1.82.66-1.5,2.29-1.77,1.2-.21,1-.59,2,.11s.39,1.44,1.74,1.39c2.57-.08.79-2.65.21-3.5-1-1.46-1.23-2.47-3.3-2.53a3.24,3.24,0,0,0-.07-2.15c-1.74.23-2-1-3.36-1.53-2.22-.84-1.87,1-2.78,2.21s-2.72,1-3.41,2.61,0,2.85-2.65,2.41A8.29,8.29,0,0,0,69.21,94a11.94,11.94,0,0,1-2.16-.52c0-2.6,2.9-2.82,4.87-3.06,2.2-.28,2.92-2.51,4.89-2.89s3.15,2.61,5.41.89c1.29-1,.7-1.55.23-2.49-.13-.25-.78-.82-1-1.06,0,0,0,0,0-.08,1.76-.33,3.53-.59,5.32-.8a18.55,18.55,0,0,0,1.46,2.83c.3.49.85.82,1.08,1.36s-.36,1.39.42,1.81c1.21.64,4.74-3.55,5.58-4.23,1.08-.87,1.75-1.34,1.49-2.18A69.2,69.2,0,0,1,113.35,86c.42.52.86,1.07,1.3,1.67.93,1.3,1.53,2.47,3.22,3.05,1,.33,4.11.27,2.81,2.5-1.2,2.06-2.53-.64-3.14-1.29-.84-.89-3.32-1.89-3.24.17.12,3.06,7,2.57,5.56,5.93.83.49,2.47,1.3,2.2,2.51-.33,1.49-2.28.54-2.24,2.44a4.42,4.42,0,0,0,5.75,3.94c2.92-1,.72-5.07,4.07-5.49a3.94,3.94,0,0,1,3.28,1.15c1,.76,1.59,2.49,2.92,2.35.13-.82-.49-1.4-.59-2.16a8.64,8.64,0,0,1,3.68,2.43c.9,1.35.8,3.29,3,1.55-.32-.27-.49-.86-.66-1.08a6.11,6.11,0,0,1,5.94,3.57c2.67,5.38-3.9,1.11-4.23,3.92-1.62-.52-2.34-1.81-3.74-2.59-.67-.37-1.9-.17-2.41-.54-.71-.52-.53-1.45-1.15-2-2.43-2-8,1.23-10.21,2.51-.61.34-1.25.38-1.67,1-.71,1.11.29,1.4.07,2.45-.32,1.49-2.27,2.17-2.87,3.37-1.41,2.87,1.47,7,1.08,10.16-.22,1.77-2.13,3.69-1.4,5.16.32.64,1.42,1.18,1.85,1.94a19.91,19.91,0,0,0,1,2.28,89.82,89.82,0,0,0,5.91,7,4.22,4.22,0,0,0,4.23,1.22,23.13,23.13,0,0,0,4.68-1.33c1.68-.8,1.9-1.93,3.67-1.17,1.4.61,2.64,2.4,4.29.92,1.35,1.32-.15,3.61-.45,5.08-.39,1.88.36,3.51,1.52,5.11,1.39,1.92,1.72,2.26,1.43,4.82a55.8,55.8,0,0,1-1.16,5.81c-.41,1.89-1.62,3.33-1.56,5.34.06,1.85.86,3.34.62,5.32a43.09,43.09,0,0,1-.78,5.55c-.47,1.75-1.72,3.31-2.24,5.1a6,6,0,0,0,.84,5.33c1.25,1.46,2.49.62,4-.48,2.89-2.19,4.2-5.9,6.12-8.84a57.73,57.73,0,0,0,5.25-8.88c.27-.66.61-1.31,1-2A68,68,0,0,1,143.35,200.45Z"/><line class="cls-4" x1="95.25" y1="81.57" x2="94.5" y2="221.5"/><path class="cls-5" d="M94.5,216.72C4,181.45,44.16,102.38,44.16,102.38"/><path class="cls-5" d="M95.44,216.64c90.5-35.27,50.34-114.33,50.34-114.33"/><path class="cls-5" d="M95,218c-22.71-17.25-33-62.59-33-62.59C54,114.75,73.25,84,73.25,84"/><path class="cls-5" d="M113,84s28.79,28.15,12,83.58c0,0-9.62,40.33-31,49.4"/><path class="cls-5" d="M40.44,106.6s57.35-24.95,112.45,3.72"/><path class="cls-5" d="M26,145s-1.12-13,69.44-18.49c0,0,47-5,70.55,24"/><path class="cls-5" d="M32.43,184.19s12.2-24,62.38-21.08c0,0,46.66-4.2,62.18,23.09"/><path class="cls-5" d="M31.29,181.88S56,219.4,94.5,215.7"/><path class="cls-5" d="M164.46,166.28S143,221.49,94,215.55"/><path class="cls-5" d="M61.92,214.14S49.05,203,77.53,197c0,0,28.91-3,35.44.77,0,0,27.63,6.33,12.08,17.54"/><path class="cls-5" d="M94,215c-2.46,5.2-27.71,2.06-27.71,2.06"/><path class="cls-5" d="M135.12,210.16S96.56,227.7,94,212.6"/><ellipse class="cls-6" cx="370.5" cy="210" rx="19" ry="19.5"/><path class="cls-7" d="M255.57,124.09"/><path class="cls-8" d="M370.5,210a22.44,22.44,0,0,0,3.47,5.8A10.87,10.87,0,0,0,386,219.46a18.41,18.41,0,0,0,5.93-3l0,0a18.73,18.73,0,0,0,3.47-6.7,20.13,20.13,0,0,0,.59-7.53,28.93,28.93,0,0,0-1.82-7.37,33.89,33.89,0,0,0-1.56-3.48c-.29-.56-.6-1.12-.92-1.66l-.5-.8a7.24,7.24,0,0,0-.58-.71,30.92,30.92,0,0,0-12-9,34.29,34.29,0,0,0-14.83-2.44,40.22,40.22,0,0,0-7.49,1.05,17.49,17.49,0,0,0-1.77.52c-.59.23-1.18.45-1.76.7a35.34,35.34,0,0,0-3.39,1.65A27.51,27.51,0,0,0,338.66,191a31.64,31.64,0,0,0-4,14.33,46.17,46.17,0,0,0,1.75,14.91l-.06-.14a44.94,44.94,0,0,0,9.56,13.14A31.43,31.43,0,0,0,360,240.74a39.55,39.55,0,0,0,16.11.27,53.72,53.72,0,0,0,15.42-5.22,24.28,24.28,0,0,0,10.55-11.48,30.49,30.49,0,0,0,2.44-15.66,36.86,36.86,0,0,0-5-15.21A49.37,49.37,0,0,0,389.12,181a66.59,66.59,0,0,0-13.61-9.05c-2.43-1.24-4.95-2.34-7.52-3.35s-5.16-1.92-7.79-2.76c-10.53-3.37-21.46-5.51-32.36-8s-21.72-5.16-32.6-7.54-21.78-4.57-32.8-5.83a251,251,0,0,0-33.23-1.71,281.67,281.67,0,0,0-33.2,2.52c-11,1.47-21.95,3.56-32.85,5.86s-21.74,4.87-32.54,7.64c-21.58,5.58-42.94,12-64.14,18.93l-7.94,2.64c-2.64.89-5.25,1.86-7.92,2.72-5.29,1.74-10.93,3.13-16.6,2.48A21.82,21.82,0,0,1,26,183a14.18,14.18,0,0,1-5.89-6,12.55,12.55,0,0,1-.94-8.28,9.68,9.68,0,0,1,4.77-6.62,9.56,9.56,0,0,0-4.53,6.67,12.44,12.44,0,0,0,1.13,8,13.62,13.62,0,0,0,5.76,5.66,21.32,21.32,0,0,0,7.84,2.34c5.5.54,11-.89,16.2-2.7,2.63-.9,5.23-1.9,7.87-2.84l7.9-2.77c10.55-3.67,21.18-7.08,31.85-10.36s21.41-6.38,32.19-9.29,21.64-5.59,32.56-8,21.88-4.65,33-6.13a282.15,282.15,0,0,1,33.5-2.65,253.08,253.08,0,0,1,33.59,1.62,334.26,334.26,0,0,1,33.1,5.78c10.92,2.35,21.79,4.95,32.65,7.44s21.84,4.7,32.58,8.16c2.68.86,5.34,1.8,8,2.86s5.22,2.18,7.75,3.48A69.92,69.92,0,0,1,391,178.88a52.7,52.7,0,0,1,10.92,13.18,39.81,39.81,0,0,1,5.34,16.33,33.28,33.28,0,0,1-2.72,17,29.25,29.25,0,0,1-4.82,7.28,24.8,24.8,0,0,1-6.94,5.39,56.23,56.23,0,0,1-16.18,5.42,41.7,41.7,0,0,1-17.12-.44,33.68,33.68,0,0,1-15-8.23A47.05,47.05,0,0,1,334.51,221l0-.08,0-.06a45.81,45.81,0,0,1-1.49-7.78,47.12,47.12,0,0,1-.21-7.88,33.43,33.43,0,0,1,4.37-15.13,29.07,29.07,0,0,1,11.43-10.79,34,34,0,0,1,3.56-1.69c.61-.26,1.23-.49,1.85-.71a16.11,16.11,0,0,1,1.93-.56,42,42,0,0,1,7.8-1,35.59,35.59,0,0,1,15.38,2.79,32,32,0,0,1,12.33,9.52,8.68,8.68,0,0,1,.62.79c.18.29.35.57.51.85.33.57.63,1.15.93,1.73a34.31,34.31,0,0,1,1.54,3.59,29.73,29.73,0,0,1,1.76,7.62A21.27,21.27,0,0,1,396,210a19.56,19.56,0,0,1-3.69,6.87l0,0,0,0a18.89,18.89,0,0,1-6.16,3,11.89,11.89,0,0,1-6.79,0,11.74,11.74,0,0,1-5.49-3.94A22.51,22.51,0,0,1,370.5,210Z"/><path class="cls-9" d="M29.43,118.78a38.89,38.89,0,0,0-11.37,5.6,36.41,36.41,0,0,0-8.85,8.88,26.93,26.93,0,0,0-4.64,11.37,21.71,21.71,0,0,0,1.6,11.89l0-.08a28.78,28.78,0,0,0,8.48,9.62,39.71,39.71,0,0,0,11.63,5.79,52.08,52.08,0,0,0,6.34,1.5c2.22.29,4.43.61,6.67.85,4.46.56,8.93,1,13.41,1.28a186,186,0,0,0,26.81,0,132.72,132.72,0,0,0,26.28-4.6c2.15-.6,4.25-1.36,6.44-2l6.57-1.86c4.35-1.23,8.7-2.41,13-3.74a127.15,127.15,0,0,0,24.75-10,69.4,69.4,0,0,0,10.82-7.63,14.32,14.32,0,0,0,1.22-1.12l1.18-1.15A27.18,27.18,0,0,0,172,141l2.15-2.52c.65-.88,1.27-1.79,1.91-2.69l1-1.35c.26-.47.53-.94.79-1.42.49-1,1-2,1.34-3a21.6,21.6,0,0,0,1.45-6.31,13.78,13.78,0,0,0-1-6.29,13.12,13.12,0,0,0-3.95-5.06l0,0a17.4,17.4,0,0,0-7.79-3,7.77,7.77,0,0,0-4.07.79,10.15,10.15,0,0,0-3.25,2.74,10.35,10.35,0,0,1,3.11-3,8.22,8.22,0,0,1,4.24-1.11,12.78,12.78,0,0,1,4.32.86,25.81,25.81,0,0,1,4,1.87h0l0,0a14.2,14.2,0,0,1,4.58,5.31,15.36,15.36,0,0,1,1.44,6.93,22.92,22.92,0,0,1-1.25,6.93,31.64,31.64,0,0,1-1.33,3.25c-.25.53-.53,1.06-.81,1.58l-.94,1.46c-.64,1-1.26,1.95-1.91,2.9l-2.16,2.72a25.85,25.85,0,0,1-2.31,2.6c-.81.82-1.56,1.72-2.44,2.46A71.59,71.59,0,0,1,158.07,156a101.91,101.91,0,0,1-12.34,6.13c-4.24,1.73-8.55,3.3-12.88,4.68s-8.69,2.7-13,3.94l-6.47,1.87c-2.15.63-4.31,1.42-6.5,2.05s-4.43,1.25-6.67,1.73-4.49,1-6.75,1.4a133.4,133.4,0,0,1-13.65,1.64,178.84,178.84,0,0,1-27.39-.23c-4.54-.41-9.07-.88-13.58-1.51-2.25-.28-4.51-.65-6.77-1A47.27,47.27,0,0,1,25.22,175a42.66,42.66,0,0,1-12.39-6.57,30.59,30.59,0,0,1-9-10.84l0-.05v0a24.09,24.09,0,0,1-1.29-13.19A28.3,28.3,0,0,1,8,132.41a37.51,37.51,0,0,1,9.57-8.69A36.88,36.88,0,0,1,29.43,118.78Z"/><path class="cls-10" d="M370.81,210.17a15,15,0,0,1-4-9.25,19.65,19.65,0,0,1,1.9-10.08h0a13,13,0,0,1,6.12-5.56,15.36,15.36,0,0,1,8.29-.85h0a33.69,33.69,0,0,1,11,5.11,37.51,37.51,0,0,1,8.68,8.47,29.27,29.27,0,0,1,5.12,11.1,21.3,21.3,0,0,1-.93,12.3l0-.08a36.57,36.57,0,0,1-6,11.55,44.18,44.18,0,0,1-9.31,9,66.36,66.36,0,0,1-23.45,10.44l-.08,0h-.08a60.45,60.45,0,0,1-18.4-.69,50,50,0,0,1-8.9-2.59l-4.2-1.75-4.16-1.83a330.67,330.67,0,0,1-32.11-16.79c-10.44-6.07-20.64-12.43-30.94-18.68-1.29-.81-2.6-1.53-3.87-2.4l-3.75-2.56-7.42-5.16c-4.93-3.43-9.87-6.82-15-9.94l0,0,0,0c-10-7.3-19.94-14.79-29.82-22.28l-14.79-11.27q-7.41-5.62-14.89-11.15l0,0a98.08,98.08,0,0,0-12.35-5.73,94.32,94.32,0,0,1,12.59,5.27h0l0,0q7.65,5.29,15.22,10.71c5,3.61,10.1,7.21,15.1,10.87,10,7.31,20,14.61,30.18,21.72l-.07-.05c5.21,3.07,10.28,6.38,15.26,9.77l7.45,5.11,3.71,2.5c1.22.83,2.55,1.56,3.82,2.34,10.32,6.18,20.58,12.49,31,18.47s21,11.6,31.89,16.6l4.09,1.83,4.12,1.75a48.33,48.33,0,0,0,8.4,2.49,57.63,57.63,0,0,0,17.54.75l-.16,0a63.85,63.85,0,0,0,22.57-9.87,44.46,44.46,0,0,0,8.92-8.4A34.46,34.46,0,0,0,405,220.68v-.05l0,0a19.35,19.35,0,0,0,1-11.12A27.32,27.32,0,0,0,401.4,199a35.85,35.85,0,0,0-8.16-8.24,32.9,32.9,0,0,0-10.39-5.19h0a14.21,14.21,0,0,0-7.73.56,12.06,12.06,0,0,0-5.86,5v0a19.27,19.27,0,0,0-2.14,9.73A14.82,14.82,0,0,0,370.81,210.17Z"/><circle class="cls-11" cx="177" cy="116" r="6.5"/><circle class="cls-11" cx="19" cy="183" r="6.5"/><circle class="cls-11" cx="229" cy="141" r="6.5"/><circle class="cls-11" cx="337" cy="220" r="6.5"/><circle class="cls-2" cx="373" cy="208" r="9.5"/><circle class="cls-11" cx="366" cy="253" r="6.5"/><circle class="cls-11" cx="203" cy="159" r="6.5"/><circle class="cls-11" cx="10" cy="161" r="6.5"/><text class="cls-12" transform="translate(15.7 186.85)">1</text><text class="cls-12" transform="translate(225.89 144.74)">2</text><text class="cls-12" transform="translate(333.89 223.74)">3</text><text class="cls-13" transform="translate(368.77 212.19)">4</text><text class="cls-12" transform="translate(362.81 256.32)">5</text><text class="cls-12" transform="translate(200.08 163.02)">6</text><text class="cls-12" transform="translate(6.45 164.68)">7</text><text class="cls-12" transform="translate(173.62 120.17)">8</text><path class="cls-14" d="M153.85,373.69l-1.58-1.9c-.12.86,0,1.76-.3,1.91-1.15.61-1.75,2.11-3.47,1.92-.76-.08-1.61.74-2.45,1.08a6.88,6.88,0,0,1-1.53.14c-.46.49-.54,1.23.29,2a.69.69,0,0,1,.08.63,1.47,1.47,0,0,1-.69.15c-.2,0-.4.06-.62.09-.45-.94-2.05-1.75-.13-3.29a8.65,8.65,0,0,1-2.23.16,6.48,6.48,0,0,1-1.65-.92c-.14.13-.36.51-.54.49a19.35,19.35,0,0,1-3-.5,3.35,3.35,0,0,1-1.33-.83c-.51-.46-.94-1-.29-1.72a.82.82,0,0,0,.18-.61c0-.11-.34-.22-.53-.23-1.11-.07-2.25,0-3-1.08-.3-.42-1.75.15-1.94.7-.08.21-.14.57-.27.6-1.26.25-2.54.44-3.81.65l-.08-.28-.44.58c-.47-.14-1.08-.43-1.16-.33-.68.91-2.75.31-2.46,2.24.09.59.22,1.18.33,1.77-1.35.29-1.52.16-1.46-1.26l-2,.51c-1.27.29-1.3.26-1.33-1a1.51,1.51,0,0,0-.11-.43l-1.95-.09c.38-.76.77-1.47,1.08-2.2s-.06-.93-.7-1c-1.08-.05-1.53-.51-1.6-1.36L111.71,369l-1.32.39c-.43-.64-.88-1.28-1.28-1.93a1.69,1.69,0,0,1,.77-2,5.52,5.52,0,0,1,.53-1.44c1-1.2.7-2.46.49-3.83s-1.53-2.25-2.19-3.43c-.09-.18-.75,0-1.13-.08-1-.21-1.91-.47-2.86-.72.39-1.4.15-1.93-1-2.07l.25-1c-1.33-.81-2-.64-2.46.73l-2.67-.56c-.1.15-.38.57-.67,1-.15.21-.33.56-.48.55-1.58-.08-2.19,1.4-3.28,2.07a7.8,7.8,0,0,1-2.09,1.07c-.58.17-.55.88-.09,1.36a1.69,1.69,0,0,1,.48,1.11c0,.21-.57.51-.9.55-.8.09-1.61.05-2.42.08-.2,0-.49,0-.6.16-.63.78-1.28.55-2,.13a1.69,1.69,0,0,0-.87-.15c-1,0-1.3-.43-1.35-1.43a8,8,0,0,0-.68-2c-.4.15-1.13.25-1.15.44a14.93,14.93,0,0,0,.09,2.31c0,.55.18,1.39-.1,1.59-.44.33-1.18.23-1.8.32-1.77.24-3.24-1.35-5.13-.75a1.73,1.73,0,0,1-2.07-1,1.19,1.19,0,0,0-1.42-.83c-2.22.5-4.12-.48-6.11-1.09-.13,0-.33-.06-.39-.15-1.11-1.65-3-2-4.61-2.78a1.16,1.16,0,0,1-.32-1c.22-1.07.66-2.1.8-3.17.17-1.36-2.37-3.11-3.69-2.68a.73.73,0,0,1-.68-.22c-.42-1-.73-2-1.13-3a3.72,3.72,0,0,0-1.9-2.2c-.35-.16-.65-.43-1-.61a3.66,3.66,0,0,0-.94-.34,5,5,0,0,1-1.32-.19,2.45,2.45,0,0,0-3,.77,10.8,10.8,0,0,0-.87,1.22,11.8,11.8,0,0,1-1.41-.19,7.68,7.68,0,0,1-1.29-.47,12.85,12.85,0,0,0-1.48-.75,2.22,2.22,0,0,1-1.72-1.82,11.41,11.41,0,0,0-.79-2.44c-.4-.87.21-1.38.63-1.86s.86-.79-.07-1.31a14,14,0,0,1-2-1.75,2.67,2.67,0,0,0-.81-.34c-.29-.1-.82-.14-.84-.27-.06-.37-.06-.95.17-1.15.76-.63,1.34-1.53,2.55-1.55,1.5,0,1.76-1.35,2.18-2.45,0-.05-.09-.17-.11-.16-1.43.51-3.1-.43-4.42.74-.65.58-1.25,1.22-1.95,1.73-.38.29-1.11.65-1.34.49a3.06,3.06,0,0,1-.82-1.48,10.54,10.54,0,0,1-.1-1.28,6.18,6.18,0,0,0-.41-1c-.11-.27-.33-.57-.28-.81.19-.89-.47-1.08-1-1.24-.7-.21-.78.36-.89.89a8.76,8.76,0,0,1-.58,1.75,1,1,0,0,1-.76.51c-1,0-1.24.19-1.06,1.11-.06,0-.14.12-.17.1a2.55,2.55,0,0,0-2.79.47c-1,.65-1.65.07-1.49-1.11a9.45,9.45,0,0,1,.67-2.24c.21-.52.34-.9-.21-1.3-.22-.16-.47-.6-.4-.81.45-1.4-.35-1.15-1.2-.94a4.23,4.23,0,0,1-.5-.66c-.47-.91-.13-1.49.88-1.42,1.16.09,1.64-.65,2.1-1.51.09-.17.36-.26.56-.36l1.49-.62c-.23-.29-.29-.44-.4-.49-1-.51-.71-.87.1-1.25s1.41-.74,2.21-1.16c.55,1.14,1.63.67,2.56.61a1.57,1.57,0,0,0,1-.77c.1-.16-.24-.66-.48-.92a7.75,7.75,0,0,0-1.11-.84c-.22,1.29-.67,1.6-1.64.75a5.22,5.22,0,0,0-1.62-.63c.16-.32.28-.53.37-.76a14.26,14.26,0,0,0,1.07-2.57c.27-1.12.91-.66,1.55-.59,1.54.17,3.09.28,4.75.43l-.16-2.39c1.17.15,2.25.24,3.3.43s2.14.59,3.33,0a5.41,5.41,0,0,1,2.62-.31c1.65.09,3.3.28,4.94.5a3.43,3.43,0,0,1,1.11.65,8.18,8.18,0,0,0,1.24.77c.46.16.88.13,1-.56s.59-1.61.72-2.44a2.32,2.32,0,0,0-.47-1.33,6.59,6.59,0,0,1-1.25-4.17,3.51,3.51,0,0,1-.81-.1,4.43,4.43,0,0,1-.79-.51c.28-.25.52-.63.84-.71a17.39,17.39,0,0,1,2.38-.4,12.62,12.62,0,0,0,1.86-.15,4.92,4.92,0,0,0,1.27-.76l-.41-.19a5.88,5.88,0,0,1-.36-1.71c.13-1.38.42-2.76.6-4.14.09-.69.46-.66,1-.57a15.38,15.38,0,0,0,3.72.45c.69-.06,1.39-.81,1.92-1.39.17-.18-.18-.84-.29-1.28-.16-.61-.35-1.22-.46-1.84a1.18,1.18,0,0,1,.79-1.35c.34-.18.47-.74.75-1.07a24,24,0,0,1,1.85-1.92c.09-.08.74.18.79.37.47,1.92,2.5,2.61,3.31,4.24.06.1.25.13.4.21.57-.71,1.15-1.31,1.94-.26a.65.65,0,0,0,.56.16,2.11,2.11,0,0,1,2.64,1.47A20.78,20.78,0,0,0,77,292a11.67,11.67,0,0,1,.73,1.76,3.35,3.35,0,0,1,.19.93,1.37,1.37,0,0,1-.08.76,1.62,1.62,0,0,0,.83,2.56,8.3,8.3,0,0,0,4.76.44,3.11,3.11,0,0,1,1.85.27c1,.4,2,1,2.94,1.44a13.58,13.58,0,0,1,1.75.7,5.94,5.94,0,0,1,1.69,1.54c.77,1.19,1.37,2.5,2.08,3.73a1,1,0,0,0,.66.46c2.47,0,4.95,0,7.42-.08a7,7,0,0,0,1.56-.56,6,6,0,0,1,1.12-.15,8,8,0,0,1,1.29,0,7.4,7.4,0,0,1,3.72,1,19.48,19.48,0,0,0,5.08,2c.51.16,1.18-.19,1.78-.31.73,1.1,1.41,1.24,2.37.24,2.09-2.17,4.85-2.74,7.6-3.38a14.14,14.14,0,0,0,2-.73c.23-.09.43-.32.66-.35,3-.29,3-3.42,5.08-4.82a16,16,0,0,0-1.47-.93c-1-.45-1.17-1.2-1.22-2.23-.06-1.43,1.7-2.28,3-1.76.83.32,1.64.69,2.55,1.09.79-.93,1.53-1.82,2.29-2.69.13-.14.39-.34.51-.3,1.16.42,1.85-.6,2.77-.9.18-.06.35-.43.39-.67a2.62,2.62,0,0,1,1.31-2.2c.89-.57,2-.8,2.78-1.77.36-.45,1.74-.08,2.7-.08.7-1.22.56-1.73-.5-2.68-.85-.76-1.53-1.71-2.41-2.44a2.78,2.78,0,0,0-1.7-.56c-.7,0-1,.52-.89,1.28,0,.29-.28.63-.44,1-1.2-.58-2.32-1-3.54-.17-.64.44-1.92-.49-1.86-1.35.08-1.24.24-2.47.39-3.71s.33-2.48.51-3.8a4.09,4.09,0,0,1,1.61.16c.93.52,1.4,0,2-.56.44-.38,1-.56,1.53-.9a2.7,2.7,0,0,0,.88-.93c.06-.12-.41-.48-.59-.76a1.33,1.33,0,0,1-.29-.71,17.9,17.9,0,0,0-.12-4.32c-.14-.64.61-1.53,1-2.24s.05-2.76-.83-3c-.4-.12-.92.17-1.4.28a2.88,2.88,0,0,1,1.5-3.21c1.69-.53,3.32-1.26,5-1.64a5.84,5.84,0,0,1,2.76.39c.82.24,1.53.79,2.42.17a1,1,0,0,1,.92.1,16.19,16.19,0,0,1,2.05,1.64,19,19,0,0,1,2.18,2.4c.79,1.09,1.38,2.32,2.14,3.44.53.79,1.2,1.48,1.78,2.23.23.29.39.64.6.95.78,1.16.91,2.76,2.31,3.5a2.12,2.12,0,0,0,.87.28,4.69,4.69,0,0,1,2.17.41,3.83,3.83,0,0,0,1.77.2c1.36.92,2.25,2.88,4.42,2.06.24.85.8,1.77.64,2.52-.27,1.3,1,1.48,1.22,2.37l1-.35a2,2,0,0,0,3.1-.64c.55-1.42,1.89-2,3-2.83.72-.55,1.68.19,1.84,1.1.09.52.54,1,.69,1.49s.23,1.23.06,1.31c-.84.42-.52,1-.45,1.61.18,1.52.24,3.06.31,4.6a9.2,9.2,0,0,1-.11,1.27c-.09.89-.18,1.78-.3,2.9a23.64,23.64,0,0,0-2.41-.45,1.68,1.68,0,0,0-1.12.42,13.08,13.08,0,0,0-1.24,1.52c1.58,2.13,1.77,4.79,1.82,7.57-.95-.08-1.58.1-.8,1.29l-.38.08-1.68-1.62a4.71,4.71,0,0,1-3.07,4.67.9.9,0,0,0,0,.19c.29.49.87,1,.81,1.44-.1.89-1,.45-1.52.47-1.09,0-2.23,0-3-1.22a8.59,8.59,0,0,1-.32,1.13,21.54,21.54,0,0,1-1.19,2.63c-.63,1.09-1.42,2.08-2.09,3.14-.31.48-.45,1.05-.75,1.53a1,1,0,0,1-.73.36,5.07,5.07,0,0,0-3.95,2.15,12.69,12.69,0,0,1-2.11,2.22s-.07,0-.17,0l-.66-.8,1.67-.72.14-1-.73.13c-.21-.57-.54-1-.48-1.46a7.39,7.39,0,0,1,.68-1.87,2.88,2.88,0,0,1,.47-.72c.47-.54.27-.84-.28-1.16a12.91,12.91,0,0,1-1.41-1.13c-.09.06-.24.23-.41.26-.42.08-1.06-.07-1.24.16a6.82,6.82,0,0,0-1.15,2.12c-.23.73-.51,1.28-1.31,1.46-1.2.26-1.26,1.29-1.34,2.18-.16,1.61-.32,1.81-1.82,1.66-.45,0-1.21-.1-1.3.1a3.9,3.9,0,0,0-.32,1.91c0,.4.49.77.78,1.14.11.13.37.17.43.31.51,1.16,1.53,1.15,2.61,1.07.05.35.08.63.11.9.22,1.48,1.17,2.06,2.52,1.55a.68.68,0,0,0,.31-.27c.33-.61.62-1.23,1-1.83s1.66-.63,2.23-.27a4.09,4.09,0,0,0,1.79.7,19.43,19.43,0,0,0,2.83-.2l-.17,2.26c-.06.52-.34.76-.93.31-.2-.15-.67,0-1,.08-.78.28-1.54.64-2.33,1l.27.44a6.31,6.31,0,0,0-1.44.86c-.21.21-.11.73-.15,1.11l.29.09c-.53.38-1.42.68-1.51,1.15a9.74,9.74,0,0,0,0,3.53c.07.38,1,.76,1.61.87,1.38.25,1.93,1.26,2.35,2.37a4.07,4.07,0,0,0,1.31,2.28c.16.11.16.44.24.67a2.32,2.32,0,0,0,1.46,1.52c.79.32,1.35,1.2,2,1.83l-.18.28-3.13-.33c.85,1.42,3.16,1.39,3.56,3.32-.6.38-1.33.61-1.67,1.11a1.22,1.22,0,0,1-1.75.51c.55.87.88,1.71,1.89.73.14-.13.7.08,1,.26.48.3.91.7,1.47,1.13l-1.83,1.45.18.24,1.89-1,.26,1.07-1.93.63.06.27,1,.15-.51,1.67.66.42c-.14.21-.23.51-.36.53-1.58.21-1.63,1.38-1.71,2.59,0,.34-.39.66-.65,1.06-.08-.06.05.05.28.25-.67.11-.62,1.48-1.85.74l-.35.72c.63.13-.21,1.59,1.07,1.19l-1.35.84.6.2.11,2.43-.9-1-.3,1.36-.6-.16.57,1.13-.89-.1.52.71-2.33.7,0,.27,1.27.29-2.51,1.87c-1.06-.14-1.06-.14-1.51,2-1.07.42-2.08.82-3.21,1.25A3.1,3.1,0,0,0,153.85,373.69Zm7.66-32.46c.82,0,2.07-.44,2.35-.08.89,1.16,1.55.78,2.38,0-.92.4-1.87.89-2.19-.7C163.23,341.12,162,340.18,161.51,341.23Z"/><path class="cls-14" d="M172.32,374.79c-.16-.21-.32-.41-.47-.63-.26-.37-.42-.93-.77-1.11A2.4,2.4,0,0,1,169.9,371a6.39,6.39,0,0,1,.14-3c.57-1.51,1-3.2,2.39-4.24a.89.89,0,0,1,.6-.24c.6.13,1.16,1.32,1.08,1.93-.23,1.58-.38,3.17-.57,4.76,0,.41,0,1-.2,1.22a3.28,3.28,0,0,0-.67,3.18Z"/><path class="cls-14" d="M143.12,386s-.19-.09-.39-.16c-1.64-.54-2.18-1.23-2.19-2.84a.76.76,0,0,1,.2-.46,5.38,5.38,0,0,1,4.92-2,1.08,1.08,0,0,1,.87,1.72c-.34.56-.38,1.3-.74,1.84a6,6,0,0,1-1.38,1.32A7.54,7.54,0,0,1,143.12,386Z"/><circle class="cls-15" cx="301.5" cy="320.5" r="10"/><text class="cls-16" transform="translate(297.7 325.61)">1</text><path class="cls-14" d="M127.59,502.05c.14-.4.25-.74.38-1.08.19-.49.43-.66.92-.23a.86.86,0,0,0,.82.11,3.42,3.42,0,0,1,3.19-1c.35.09.78-.15,1.17-.22a.6.6,0,0,1,.42,0,4.35,4.35,0,0,0,3.06.64c.44-.07,1.08-.1,1.24-.38a2,2,0,0,0,0-1.41c-.53-1.69-2.16-2.61-3-4-.71-1.2-2.2-1.32-2.74-2.64-.16-.4-1.22-.63-1.86-.61-1.05,0-2.17.15-2.68,1.4a5.18,5.18,0,0,1-.78,1.07c-1-.66-1.71-1.79-3.16-1.37-1.09.32-2.51-.39-3.13,1.28l-.31,0c-.47-.82-1-1.62-1.39-2.48a1.05,1.05,0,0,1,.47-.87c.62-.25.67-.64.71-1.22a5.89,5.89,0,0,1,.48-1.84c.77-1.9,1.58-3.79,2.39-5.67.3-.73.63-1.45.91-2.07,1.53.59,3,1.19,4.55,1.73a1.2,1.2,0,0,0,1-.15c.93-.72,1.76-1.57,2.72-2.25a4.43,4.43,0,0,1,1.79-.65c1.56-.23,1.7-.34,1.7-1.85a2.34,2.34,0,0,1,.11-.48l-.84-.3c.53-1.14,1.05-2.24,1.56-3.35.08-.18.06-.42.17-.56,1.16-1.32,1.36-3.12,2.25-4.55a9.68,9.68,0,0,1,2.18-2.2,2.3,2.3,0,0,0,.59-2.83,4.79,4.79,0,0,1-.05-1.87,2.17,2.17,0,0,0-2.13-.36c-1.28.34-.39-.84-.65-1,.93-1,1.8-1.87,2.61-2.81.61-.7,1.07-1.38,2.27-1.13.52.1,1.14-.29,1.75.19,1,.79,1.23,1.76.4,2.71a26.39,26.39,0,0,1-2.1,2c1,.85,1.9,1.64,2.86,2.32.19.14.78,0,1-.26a4.06,4.06,0,0,0,.58-1.18c1.22.21,1.1,2.2,2.78,1.81-1,.65-.7,1.33-.52,2,.24.94.4,1.91.59,2.87a2.11,2.11,0,0,0,1.54,1.72c.62.2,1.2.52,1.83.7a.88.88,0,0,0,.79-.2c.56-.89,1.32-.53,2.06-.45a2.44,2.44,0,0,0,.89-.23c.1,0,.2-.22.26-.2,1.63.47,1.94-1,2.74-1.81a2.42,2.42,0,0,1,2,1.53,10.48,10.48,0,0,0,1.51,1.91c.51.61.87,1.15,0,1.82a1.45,1.45,0,0,0-.61,1.59,1,1,0,0,1-.22.79c-1.41,1.56-2.5,3.23-2.35,5.46.06,1,.05,2.05,0,3.08,0,.59-.16,1.07-1,.69-.15-.07-.66.24-.75.47a21.47,21.47,0,0,0-1.17,3.53,14,14,0,0,0,0,2.82l-.36.09c-.29-.84-.59-1.68-1-2.78-.8.82-1.53,1.62-2.3,2.38-.51.49-1.07.93-1.59,1.42-.2.19-.32.48-.53.66-.51.45-1.07.84-1.58,1.28-.74.65-1.45,1.32-2.39,2.17.76.74,1.34,1.29,1.9,1.87a7,7,0,0,1,.66.86c.83,1.19,1.13,1.2,2.08.13l.87.5c.1,1.07-.7,1.57-2.65,1.24a7.58,7.58,0,0,0,.34,1.89c.51,1.05.39,1.36-.81,1.46a3.34,3.34,0,0,0-.33.07l-.27,2.31-.33.07L150,504.71l-.63.69-1.83-1.3-.73,2a1.35,1.35,0,0,0,.54.14c.52-.09.71.06.77.6a1.61,1.61,0,0,0,.55.8,1.16,1.16,0,0,1-.06,1.92c-.14.11-.33.29-.32.42.08,1.19-.14,2.42.72,3.49a6.57,6.57,0,0,1,.62,1.84c1.21-.12,2.21-1.11,3.42-1.81l1.92,5.31c-1,.82-1,.9.1,1.56.24.14.55.5.5.69-.11.47-.29,1.09-.64,1.29-.7.38-1.39.55-1.85,1.4a1.51,1.51,0,0,1-2,.35,13.11,13.11,0,0,0-1.28-.62l.36,1.43a7.87,7.87,0,0,1-1.27-.31c-.53-.23-.81-.16-1,.44a4.87,4.87,0,0,1-1,1.14c-.7-.88-1.34-.7-1.84,0s-1.42.8-2.19,1.13c-1.39.61-2.12,2-3.13,3.17a6.55,6.55,0,0,0-2.38-4,4.46,4.46,0,0,0-.8.51,1.16,1.16,0,0,0-.31.62c.66.52.17,1.16.21,1.73a15.39,15.39,0,0,0,.21,1.93c.24,1.11-.1,1.54-1.22,1.42l-3.19-.3-.92-2.3c.75-.18.75-.18.45-1.9l-.41.31-1.48-3.34-1.53.13-.33.55a8.46,8.46,0,0,0-1.67.18c-.58.18-1,.51-.72,1.33a1.63,1.63,0,0,1-.37,1.35,1.09,1.09,0,0,1-1.74-.14L122,529.84l-.62-.78c-.81.42-2,.63-2.29,1.27-.63,1.14-1.41.48-2.12.65l-.19-3.16a3.12,3.12,0,0,0-2.85,2.5c0,.51-.11.89-.72,1.14s-.77,1.15-.28,1.91l-.61.66,1.1,1.74-.28,1.63c-.73.31-1.59.68-2.47,1-.24.09-.69.09-.8,0-.72-.94-1.3-.25-1.66.23-.49.66-.88.84-1.58.36s-1.1-.21-1.44.44c-.42.81-.91,1.59-1.28,2.42-.3.66-.64,1-1.37.62-.41-.18-.71-.2-1,.41s-.86.75-1.31,1.12l-.23-.22.21-.86c-1.19,0-1.46,1.11-2.06,1.8l-.61-.8c-.7.69-1.1,0-1.69-.62l.15.9c-.94,1-1.73,2-2.56,2.82-.63.66-1.36,1.24-1.95,1.93s-1.09,1.25-.48,2.18c.12.18-.11.59-.17.84-1.5-.24-.59,1-1.17,1.52-.76,0-1.71.12-2.65.17-.13,0-.36,0-.37-.06-.32-1.07-1.59-.68-2-1.27-1.23-1.56-3.28-1.2-4.73-2.21.66-1.21,1.31-2.35,1.89-3.54a1.67,1.67,0,0,0-.11-1c-.16-.52-.39-1-.62-1.61l-1.66.52c-.48.41-1,.64-1.14,1a17.34,17.34,0,0,0-1.18,3.4,22.16,22.16,0,0,0-.16,3.06,1.32,1.32,0,0,1-1.5,1.25,2.68,2.68,0,0,0-1.77.48c-.62.66-1.31.57-2,.64-.27,0-.69,0-.78.18-.46.85-1,.44-1.44.1-1-.68-1.9-1.36-2.84-2.05-.5-.37-.32-1.37.34-1.89l-.36-1.36a5.23,5.23,0,0,0,1.14-.75,30.25,30.25,0,0,0,2.15-2.62c.12-.16-.07-.6-.18-.89-.19-.48-.43-.93-.69-1.5a5.78,5.78,0,0,0-3.65,1.2A2,2,0,0,1,63,545a2.31,2.31,0,0,0-2.21.11c-.41.17-.85.3-1.38.48l.89,1.08a1.58,1.58,0,0,1-1.92,1A2,2,0,0,1,56.62,546c-1.09,0-1.38-.35-1.65-2.25a3.49,3.49,0,0,1-2.57-1.41c-.77-.82-2.16-1.06-3.4-1.61a13.91,13.91,0,0,0,1.21-1.16,22.8,22.8,0,0,0,2-2.71c.35-.58-.47-1.79-1.14-1.7-1.52.19-3,.5-4.51.81a1.14,1.14,0,0,0-.61.48,2.09,2.09,0,0,1-2.26.81c0-.07-.09-.14-.07-.18.46-1.16.48-2.14-.77-2.92a7.6,7.6,0,0,1-1.54-1.65c-.34-.41-.43-.82.14-1.13s.45-.68.24-1.17c-.9-2-1.76-4-2.69-6.2l5.58.71c1.17.15,2.34.34,3.52.49a2.58,2.58,0,0,0,1.27,0c1.64-.77,3.27-.33,4.92-.07,1.06.17,2.15.23,3.23.31a1.87,1.87,0,0,1,1.79,1,2.38,2.38,0,0,0,1.9,1.37,19.76,19.76,0,0,1,6,2c.62.34,1.63,0,2.46-.1.44,0,.88-.16,1.37-.25l.11,1.16c.72.12,1.41.25,2.11.34.11,0,.23-.09.34-.15,2.45-1.26,4.78-2.9,7.37-3.69a22,22,0,0,1,8.65-1c1.37.13,3,.32,4.3-.71a3.48,3.48,0,0,1,1.27-.52,4.62,4.62,0,0,0,3-2.28,6.42,6.42,0,0,1,3.59-2.88,4.38,4.38,0,0,0,1.9-1.33c.2-.27-.22-1.12-.52-1.61-.48-.78-1.11-1.48-1.66-2.23a.56.56,0,0,1,0-.44c.42-1.06.81-2.14,1.32-3.16a2.36,2.36,0,0,1,3.68-.36,3,3,0,0,0,1.38.83,29.87,29.87,0,0,0,3,.61.62.62,0,0,0,.45-.08c1.39-1.14,3.17-1.88,3.93-3.71.1-.23.72-.36,1.07-.32,1.72.21,3.39.34,4.75-1.07.27-.29.74-.37,1-.63s.61-.6.61-.91a3.49,3.49,0,0,1,3.7-3.4C126.86,502,127.22,502,127.59,502.05Z"/><path d="M2478.7,1097c-5.57,5.52-5.57,5.52-6.39,14.21C2469.31,1102.55,2470.55,1099.8,2478.7,1097Z"/><path d="M2531,1115.2c.62-3.83,1.32-8.18,2-12.09C2534.77,1109.18,2533.88,1113.59,2531,1115.2Z"/><circle class="cls-15" cx="311.5" cy="464.5" r="10"/><text class="cls-16" transform="translate(306.7 470.61)">8</text><path class="cls-17" d="M143.87,384.93l2.25-4.52,2.54-4.37,2.74-4.26c1-1.38,1.93-2.78,2.93-4.15a120.35,120.35,0,0,1,13.73-15c1.27-1.13,2.52-2.29,3.82-3.4s2.64-2.15,4-3.18,2.73-2,4.13-3,2.82-1.92,4.26-2.84A115.22,115.22,0,0,1,222,324.8a114.4,114.4,0,0,1,20.26-2.51,125.15,125.15,0,0,1,20.31,1l5,.86,4.95,1.06,4.89,1.28,4.79,1.57-.08.29a122.73,122.73,0,0,0-39.71-3.73,125.15,125.15,0,0,0-38.86,9,123,123,0,0,0-34,20.79,117.82,117.82,0,0,0-25.46,30.69Z"/><path class="cls-18" d="M143.27,504.56l2.21-4.21c.75-1.4,1.62-2.72,2.43-4.09s1.7-2.69,2.58-4l1.32-2,1.41-1.93A114,114,0,0,1,166,474c1.2-1.07,2.37-2.18,3.6-3.22s2.52-2,3.8-3,2.63-1.89,4-2.8,2.73-1.75,4.12-2.59a77.23,77.23,0,0,1,18-7.61,68.34,68.34,0,0,1,19.45-2.29,66.29,66.29,0,0,1,19.19,3.42,77.89,77.89,0,0,1,17.39,8.37c1.31.93,2.64,1.82,3.92,2.78s2.53,1.95,3.75,3,2.41,2.08,3.58,3.15l3.35,3.39-.2.22a84.61,84.61,0,0,0-32.45-18.65,67.83,67.83,0,0,0-37.19-.46c-12.15,3.26-23.25,9.83-32.71,18.09a124.51,124.51,0,0,0-24,29Z"/><path class="cls-3" d="M135.39,15.72a10.11,10.11,0,0,1,3.34,6.52h-3.79a7.83,7.83,0,0,0-2.57-4.39,8.13,8.13,0,0,0-5.4-1.62,8.67,8.67,0,0,0-6.84,3q-2.61,3-2.61,9.13a13.27,13.27,0,0,0,2.35,8.18q2.35,3.14,7,3.13a7.43,7.43,0,0,0,6.55-3.3,12.61,12.61,0,0,0,1.77-4.57H139a12.84,12.84,0,0,1-3.36,7.6,11.93,11.93,0,0,1-9.21,3.69,12.14,12.14,0,0,1-8.4-3c-3-2.66-4.48-6.79-4.48-12.36a15.8,15.8,0,0,1,3.36-10.41,12.3,12.3,0,0,1,10-4.41C130.57,12.85,133.39,13.8,135.39,15.72Z"/><path class="cls-3" d="M143.26,13.53h3.52v10.7A10.22,10.22,0,0,1,149,22a7.54,7.54,0,0,1,4.24-1.12c3,0,5.09,1.07,6.17,3.19a10.77,10.77,0,0,1,.88,4.82V42.32H156.7V29.14a7.35,7.35,0,0,0-.59-3.38c-.63-1.15-1.83-1.72-3.59-1.72a6,6,0,0,0-4,1.5q-1.77,1.5-1.77,5.69V42.32h-3.52Z"/><path class="cls-3" d="M176.72,29.64a1.89,1.89,0,0,0,1.62-1,3,3,0,0,0,.23-1.35,2.84,2.84,0,0,0-1.28-2.61,6.85,6.85,0,0,0-3.66-.81,4.64,4.64,0,0,0-3.9,1.49,4.85,4.85,0,0,0-.84,2.44h-3.28q.09-3.87,2.51-5.38a10.27,10.27,0,0,1,5.59-1.52,11.39,11.39,0,0,1,6,1.41A4.78,4.78,0,0,1,182,26.67V38.73a1.52,1.52,0,0,0,.23.87c.15.23.46.34.94.34l.53,0,.63-.09v2.6a11.57,11.57,0,0,1-1.25.29,9,9,0,0,1-1.18.06,2.87,2.87,0,0,1-2.63-1.29,5,5,0,0,1-.61-1.93A9,9,0,0,1,175.57,42a9.55,9.55,0,0,1-4.44,1,6.57,6.57,0,0,1-4.75-1.77,5.86,5.86,0,0,1-1.85-4.42,5.7,5.7,0,0,1,1.82-4.51,8.57,8.57,0,0,1,4.76-2Zm-7.4,9.52A4.14,4.14,0,0,0,172,40a7.94,7.94,0,0,0,3.6-.86,4.83,4.83,0,0,0,2.93-4.66V31.67a5.84,5.84,0,0,1-1.66.69,14.69,14.69,0,0,1-2,.39L172.7,33a8.3,8.3,0,0,0-2.88.8,3.13,3.13,0,0,0-1.62,2.93A2.89,2.89,0,0,0,169.32,39.16Z"/><path class="cls-3" d="M187.75,21.4h3.34v3a9.49,9.49,0,0,1,3.15-2.64,8.42,8.42,0,0,1,3.69-.8c3,0,5,1,6,3.11a11.06,11.06,0,0,1,.85,4.86V42.32h-3.57V29.14a7.1,7.1,0,0,0-.57-3.09,3.42,3.42,0,0,0-3.39-1.95,7,7,0,0,0-2.06.25,5.25,5.25,0,0,0-2.53,1.72,5.17,5.17,0,0,0-1.15,2.14,14.78,14.78,0,0,0-.26,3.15v11h-3.52Z"/><path class="cls-3" d="M221.68,22.24a9.9,9.9,0,0,1,2,2V21.6H227v19a14.05,14.05,0,0,1-1.17,6.29q-2.19,4.26-8.26,4.26a10.11,10.11,0,0,1-5.68-1.52,5.88,5.88,0,0,1-2.58-4.73h3.57a3.94,3.94,0,0,0,1,2.16,5.13,5.13,0,0,0,3.75,1.18c2.69,0,4.46-.95,5.29-2.85a16.18,16.18,0,0,0,.68-6A6.89,6.89,0,0,1,221,41.79a8.5,8.5,0,0,1-3.93.78,8.37,8.37,0,0,1-6-2.41q-2.55-2.41-2.55-8,0-5.25,2.57-8.2a7.93,7.93,0,0,1,6.2-2.95A7.6,7.6,0,0,1,221.68,22.24Zm.43,3.77A5.13,5.13,0,0,0,218,24.14,5,5,0,0,0,213,27.61a13.71,13.71,0,0,0-.72,4.87,8.69,8.69,0,0,0,1.43,5.38,4.63,4.63,0,0,0,3.86,1.84,5.42,5.42,0,0,0,5.33-3.42,11,11,0,0,0,.86-4.51Q223.71,27.89,222.11,26Z"/><path class="cls-3" d="M233,22a2.2,2.2,0,0,0,1.63-1.21,5,5,0,0,0,.56-2.39c0-.09,0-.17,0-.24s0-.15,0-.24H233V13.63h4.18v3.92a8.19,8.19,0,0,1-1,4.25,4,4,0,0,1-3.14,2Z"/><path class="cls-3" d="M254.16,22a8,8,0,0,1,3.18,2.7,9.23,9.23,0,0,1,1.41,3.69,24.11,24.11,0,0,1,.31,4.61H243.73a9,9,0,0,0,1.5,5.11A5,5,0,0,0,249.59,40,5.61,5.61,0,0,0,254,38.2a6.06,6.06,0,0,0,1.33-2.44h3.46a7.19,7.19,0,0,1-.91,2.57,9.05,9.05,0,0,1-1.73,2.31,8.27,8.27,0,0,1-4,2.11,12,12,0,0,1-2.87.31,8.81,8.81,0,0,1-6.62-2.84c-1.81-1.89-2.72-4.55-2.72-8a12,12,0,0,1,2.74-8.18,9,9,0,0,1,7.14-3.15A9.49,9.49,0,0,1,254.16,22Zm1.29,8.21a9.06,9.06,0,0,0-1-3.65A5.1,5.1,0,0,0,249.63,24a5.31,5.31,0,0,0-4.06,1.75,6.53,6.53,0,0,0-1.74,4.44Z"/><path class="cls-3" d="M276.86,35.19a4.85,4.85,0,0,0,2.79,4.16,6.75,6.75,0,0,0,2.89.59,5.43,5.43,0,0,0,4.63-2,7.15,7.15,0,0,0,1.5-4.41A5.75,5.75,0,0,0,286.88,29a6.18,6.18,0,0,0-4.28-1.6,6.48,6.48,0,0,0-3.12.7,6.73,6.73,0,0,0-2.21,1.95l-3-.17,2.13-15.06h14.53v3.4H279L277.79,26a8.5,8.5,0,0,1,1.86-1.11,9.38,9.38,0,0,1,3.61-.65,9.28,9.28,0,0,1,6.53,2.48A8.22,8.22,0,0,1,292.46,33,10.82,10.82,0,0,1,290,40q-2.44,3-7.82,3a10,10,0,0,1-6.05-1.92,7.63,7.63,0,0,1-2.94-5.91Z"/><path class="cls-3" d="M226.11,338.11h3.49a3.28,3.28,0,0,1,2.75,1.26,4.67,4.67,0,0,1,.87,2.92,5.8,5.8,0,0,1-.51,2.47,3.18,3.18,0,0,1-3.12,2h-3.48Zm3.25,7.62a3.32,3.32,0,0,0,1-.13,2.11,2.11,0,0,0,1.11-.88,3.52,3.52,0,0,0,.5-1.33,5.07,5.07,0,0,0,.09-.9,4.24,4.24,0,0,0-.64-2.49,2.35,2.35,0,0,0-2.05-.88h-2.07v6.61Z"/><path class="cls-3" d="M238.49,340.62a2.42,2.42,0,0,1,1,.81,2.85,2.85,0,0,1,.42,1.11,7.53,7.53,0,0,1,.09,1.38h-4.6a2.67,2.67,0,0,0,.45,1.53,1.52,1.52,0,0,0,1.31.58,1.7,1.7,0,0,0,1.32-.54,1.91,1.91,0,0,0,.4-.74h1a2.13,2.13,0,0,1-.28.77,2.41,2.41,0,0,1-.52.7,2.45,2.45,0,0,1-1.19.63,3.72,3.72,0,0,1-.86.09,2.62,2.62,0,0,1-2-.85,3.29,3.29,0,0,1-.82-2.39,3.64,3.64,0,0,1,.82-2.45,2.71,2.71,0,0,1,2.15-.94A2.85,2.85,0,0,1,238.49,340.62Zm.39,2.46a2.61,2.61,0,0,0-.3-1.09,1.53,1.53,0,0,0-1.45-.76,1.61,1.61,0,0,0-1.22.52,2,2,0,0,0-.52,1.33Z"/><path class="cls-3" d="M241.88,344.75a1.58,1.58,0,0,0,.27.81,1.65,1.65,0,0,0,1.38.51,2,2,0,0,0,1-.25A.85.85,0,0,0,245,345a.68.68,0,0,0-.36-.62,5,5,0,0,0-.9-.3l-.84-.21a4.13,4.13,0,0,1-1.18-.44,1.33,1.33,0,0,1-.68-1.19,1.81,1.81,0,0,1,.64-1.44,2.59,2.59,0,0,1,1.72-.55,2.41,2.41,0,0,1,2.05.83,1.82,1.82,0,0,1,.38,1.14h-1a1.22,1.22,0,0,0-.25-.65,1.59,1.59,0,0,0-1.26-.42,1.49,1.49,0,0,0-.9.23.74.74,0,0,0,.09,1.26,2.32,2.32,0,0,0,.69.26l.7.17a5.42,5.42,0,0,1,1.53.53,1.42,1.42,0,0,1,.61,1.28,1.93,1.93,0,0,1-.63,1.44,2.7,2.7,0,0,1-1.94.61,2.58,2.58,0,0,1-2-.63,2.44,2.44,0,0,1-.63-1.58Z"/><path class="cls-3" d="M247.18,340.48h1v.83a2.38,2.38,0,0,1,.69-.66,2.22,2.22,0,0,1,1.26-.36,2.38,2.38,0,0,1,1.81.82,3.39,3.39,0,0,1,.74,2.34,3.62,3.62,0,0,1-1.07,2.93,2.41,2.41,0,0,1-1.58.55,2.11,2.11,0,0,1-1.19-.31,2.83,2.83,0,0,1-.63-.6v3.2h-1Zm3.95,4.91a2.89,2.89,0,0,0,.49-1.84,3.56,3.56,0,0,0-.21-1.29,1.51,1.51,0,0,0-1.5-1,1.49,1.49,0,0,0-1.5,1.1,4.16,4.16,0,0,0-.22,1.48,3.06,3.06,0,0,0,.22,1.24,1.49,1.49,0,0,0,1.5,1A1.47,1.47,0,0,0,251.13,345.39Z"/><path class="cls-3" d="M257.84,340.62a2.32,2.32,0,0,1,1,.81,2.72,2.72,0,0,1,.43,1.11,7.53,7.53,0,0,1,.09,1.38h-4.6a2.67,2.67,0,0,0,.45,1.53,1.5,1.5,0,0,0,1.31.58,1.7,1.7,0,0,0,1.32-.54,2,2,0,0,0,.4-.74h1a2.1,2.1,0,0,1-.27.77,2.6,2.6,0,0,1-.52.7,2.49,2.49,0,0,1-1.19.63,3.72,3.72,0,0,1-.86.09,2.66,2.66,0,0,1-2-.85,3.33,3.33,0,0,1-.81-2.39,3.59,3.59,0,0,1,.82-2.45,2.7,2.7,0,0,1,2.14-.94A2.86,2.86,0,0,1,257.84,340.62Zm.39,2.46a3,3,0,0,0-.3-1.09,1.53,1.53,0,0,0-1.45-.76,1.61,1.61,0,0,0-1.22.52,2,2,0,0,0-.52,1.33Z"/><path class="cls-3" d="M264.11,340.7a2.63,2.63,0,0,1,.61.6v-.8h1v5.71a4.27,4.27,0,0,1-.35,1.89,2.53,2.53,0,0,1-2.48,1.28,3.06,3.06,0,0,1-1.7-.46,1.78,1.78,0,0,1-.78-1.42h1.08a1.2,1.2,0,0,0,.3.65,1.52,1.52,0,0,0,1.12.35,1.55,1.55,0,0,0,1.59-.85,4.83,4.83,0,0,0,.21-1.8,2,2,0,0,1-.76.71,2.71,2.71,0,0,1-3-.49,3.17,3.17,0,0,1-.76-2.39,3.64,3.64,0,0,1,.77-2.46,2.38,2.38,0,0,1,1.86-.89A2.32,2.32,0,0,1,264.11,340.7Zm.13,1.13a1.53,1.53,0,0,0-1.23-.56,1.5,1.5,0,0,0-1.52,1,4.19,4.19,0,0,0-.22,1.46,2.62,2.62,0,0,0,.43,1.61,1.41,1.41,0,0,0,1.16.56,1.63,1.63,0,0,0,1.6-1,3.35,3.35,0,0,0,.26-1.35A2.61,2.61,0,0,0,264.24,341.83Z"/><path class="cls-3" d="M271.86,341.07a3.17,3.17,0,0,1,.84,2.38A4.11,4.11,0,0,1,272,346a2.66,2.66,0,0,1-2.29,1,2.59,2.59,0,0,1-2.06-.88,3.47,3.47,0,0,1-.76-2.35,3.79,3.79,0,0,1,.8-2.52,2.73,2.73,0,0,1,2.16-.94A2.84,2.84,0,0,1,271.86,341.07Zm-.65,4.18a4,4,0,0,0,.39-1.77,3.28,3.28,0,0,0-.28-1.43,1.59,1.59,0,0,0-1.54-.87,1.51,1.51,0,0,0-1.4.74,3.38,3.38,0,0,0-.44,1.78,2.91,2.91,0,0,0,.44,1.67,1.52,1.52,0,0,0,1.39.67A1.45,1.45,0,0,0,271.21,345.25Zm-.17-7.33-1.57,1.69h-.81l1.07-1.69Z"/><path class="cls-3" d="M281.2,340.62a2.46,2.46,0,0,1,.95.81,2.85,2.85,0,0,1,.42,1.11,7.33,7.33,0,0,1,.1,1.38h-4.6a2.67,2.67,0,0,0,.45,1.53,1.49,1.49,0,0,0,1.3.58,1.69,1.69,0,0,0,1.32-.54,1.91,1.91,0,0,0,.4-.74h1a2.3,2.3,0,0,1-.27.77,2.83,2.83,0,0,1-.52.7,2.49,2.49,0,0,1-1.19.63,3.79,3.79,0,0,1-.86.09,2.64,2.64,0,0,1-2-.85,3.33,3.33,0,0,1-.81-2.39,3.59,3.59,0,0,1,.82-2.45,2.69,2.69,0,0,1,2.14-.94A2.86,2.86,0,0,1,281.2,340.62Zm.38,2.46a2.61,2.61,0,0,0-.3-1.09,1.52,1.52,0,0,0-1.44-.76,1.6,1.6,0,0,0-1.22.52,2,2,0,0,0-.52,1.33Z"/><path class="cls-3" d="M284,338.11H285v8.61H284Z"/><path class="cls-3" d="M290,344.83a3.62,3.62,0,0,1,1.52-1.45l1.13-.65a6.37,6.37,0,0,0,1.06-.75,1.64,1.64,0,0,0,0-2.28,1.61,1.61,0,0,0-1.17-.43,1.51,1.51,0,0,0-1.5.82,3,3,0,0,0-.25,1.22h-1.07a3.73,3.73,0,0,1,.4-1.79,2.55,2.55,0,0,1,2.42-1.22,2.48,2.48,0,0,1,2.77,2.52,2.33,2.33,0,0,1-.71,1.72,6.86,6.86,0,0,1-1.47,1l-.8.44a5.37,5.37,0,0,0-.9.6,2.2,2.2,0,0,0-.74,1.14h4.58v1h-5.76A5,5,0,0,1,290,344.83Z"/><path class="cls-3" d="M296.82,346.13a3,3,0,0,1-.67-2h1.1a2.9,2.9,0,0,0,.3,1.19A1.62,1.62,0,0,0,299,346a1.91,1.91,0,0,0,1.33-.45,1.44,1.44,0,0,0,.51-1.14,1.36,1.36,0,0,0-.53-1.22,2.73,2.73,0,0,0-1.48-.34h-.43v-.93l.27,0H299a2.29,2.29,0,0,0,1-.19,1.2,1.2,0,0,0,.67-1.17,1.15,1.15,0,0,0-.45-1,1.64,1.64,0,0,0-1-.34,1.54,1.54,0,0,0-1.46.7,2.59,2.59,0,0,0-.25,1.1h-1a3.17,3.17,0,0,1,.37-1.59,2.37,2.37,0,0,1,2.27-1.17,3.08,3.08,0,0,1,2,.57,2,2,0,0,1,.7,1.66,1.88,1.88,0,0,1-.41,1.25.65.65,0,1,0,.36,1.17,2.1,2.1,0,0,1,.37,1.27,2.55,2.55,0,0,1-.79,1.95A3.07,3.07,0,0,1,299,347,2.63,2.63,0,0,1,296.82,346.13Z"/><path class="cls-3" d="M310.11,340.64a2.9,2.9,0,0,1,.63.61v-3.17h1v8.64h-.95v-.87a2.39,2.39,0,0,1-.87.84,2.57,2.57,0,0,1-1.16.25,2.35,2.35,0,0,1-1.82-.88,3.45,3.45,0,0,1-.76-2.34,4,4,0,0,1,.7-2.38,2.5,2.5,0,0,1,3.21-.7Zm-2.37,4.7a1.48,1.48,0,0,0,1.37.68,1.43,1.43,0,0,0,1.2-.63,2.92,2.92,0,0,0,.48-1.8,2.68,2.68,0,0,0-.49-1.76,1.54,1.54,0,0,0-1.2-.58,1.6,1.6,0,0,0-1.29.61,2.82,2.82,0,0,0-.5,1.8A3,3,0,0,0,307.74,345.34Z"/><path class="cls-3" d="M317.22,340.62a2.42,2.42,0,0,1,1,.81,2.85,2.85,0,0,1,.42,1.11,7.33,7.33,0,0,1,.1,1.38h-4.6a2.67,2.67,0,0,0,.45,1.53,1.49,1.49,0,0,0,1.3.58,1.7,1.7,0,0,0,1.32-.54,1.91,1.91,0,0,0,.4-.74h1a2.13,2.13,0,0,1-.28.77,2.58,2.58,0,0,1-.51.7,2.49,2.49,0,0,1-1.19.63,3.79,3.79,0,0,1-.86.09,2.62,2.62,0,0,1-2-.85,3.33,3.33,0,0,1-.82-2.39,3.6,3.6,0,0,1,.83-2.45,2.69,2.69,0,0,1,2.14-.94A2.79,2.79,0,0,1,317.22,340.62Zm.39,2.46a2.61,2.61,0,0,0-.3-1.09,1.52,1.52,0,0,0-1.44-.76,1.58,1.58,0,0,0-1.22.52,2,2,0,0,0-.53,1.33Z"/><path class="cls-3" d="M323.32,340.45h1v.89a2.72,2.72,0,0,1,.94-.79,2.51,2.51,0,0,1,1.11-.24,1.82,1.82,0,0,1,1.8.93,3.32,3.32,0,0,1,.26,1.46v4h-1.07v-4a2.21,2.21,0,0,0-.17-.93,1,1,0,0,0-1-.59,2.12,2.12,0,0,0-.62.08,1.6,1.6,0,0,0-.76.52,1.43,1.43,0,0,0-.34.64,4.42,4.42,0,0,0-.08.94v3.29h-1.06Z"/><path class="cls-3" d="M334.58,341.07a3.17,3.17,0,0,1,.84,2.38,4.11,4.11,0,0,1-.74,2.51,2.67,2.67,0,0,1-2.29,1,2.59,2.59,0,0,1-2.06-.88,3.42,3.42,0,0,1-.76-2.35,3.79,3.79,0,0,1,.8-2.52,2.73,2.73,0,0,1,2.16-.94A2.84,2.84,0,0,1,334.58,341.07Zm-.65,4.18a4,4,0,0,0,.39-1.77,3.28,3.28,0,0,0-.28-1.43,1.59,1.59,0,0,0-1.54-.87,1.54,1.54,0,0,0-1.41.74,3.48,3.48,0,0,0-.44,1.78,3,3,0,0,0,.44,1.67,1.55,1.55,0,0,0,1.4.67A1.45,1.45,0,0,0,333.93,345.25Z"/><path class="cls-3" d="M337.19,340.45l1.67,5.11,1.76-5.11h1.15l-2.37,6.27h-1.12L336,340.45Z"/><path class="cls-3" d="M342.67,338.11h1.07v1.2h-1.07Zm0,2.37h1.07v6.24h-1.07Z"/><path class="cls-3" d="M349.25,340.62a2.46,2.46,0,0,1,.95.81,2.85,2.85,0,0,1,.42,1.11,6.56,6.56,0,0,1,.1,1.38h-4.6a2.67,2.67,0,0,0,.45,1.53,1.5,1.5,0,0,0,1.31.58,1.67,1.67,0,0,0,1.31-.54,1.91,1.91,0,0,0,.4-.74h1a2.3,2.3,0,0,1-.27.77,2.83,2.83,0,0,1-.52.7,2.49,2.49,0,0,1-1.19.63,3.79,3.79,0,0,1-.86.09,2.64,2.64,0,0,1-2-.85,3.33,3.33,0,0,1-.81-2.39,3.59,3.59,0,0,1,.82-2.45,2.69,2.69,0,0,1,2.14-.94A2.86,2.86,0,0,1,349.25,340.62Zm.38,2.46a2.61,2.61,0,0,0-.3-1.09,1.52,1.52,0,0,0-1.44-.76,1.6,1.6,0,0,0-1.22.52,2,2,0,0,0-.52,1.33Z"/><path class="cls-3" d="M352,340.45h1v.89a3.6,3.6,0,0,1,.68-.68,2.05,2.05,0,0,1,1.19-.35,1.87,1.87,0,0,1,1.2.36,1.89,1.89,0,0,1,.47.63,2.26,2.26,0,0,1,.83-.75,2.34,2.34,0,0,1,1.07-.24,1.74,1.74,0,0,1,1.72.91,3,3,0,0,1,.25,1.32v4.18h-1.1v-4.36a1,1,0,0,0-.31-.86,1.23,1.23,0,0,0-.77-.23,1.56,1.56,0,0,0-1.07.41,1.83,1.83,0,0,0-.45,1.39v3.65h-1.07v-4.09a2.2,2.2,0,0,0-.15-.94.94.94,0,0,0-.9-.44,1.52,1.52,0,0,0-1.08.47,2.24,2.24,0,0,0-.49,1.67v3.33H352Z"/><path class="cls-3" d="M361.93,338.08h1v3.13a2.38,2.38,0,0,1,.83-.69,2.3,2.3,0,0,1,1-.24,2.43,2.43,0,0,1,1.9.81,3.4,3.4,0,0,1,.73,2.37,4.09,4.09,0,0,1-.72,2.48,2.35,2.35,0,0,1-2,1,2,2,0,0,1-1.2-.34,2.88,2.88,0,0,1-.63-.66v.8h-1Zm4,7.23a3.36,3.36,0,0,0,.42-1.79,3,3,0,0,0-.42-1.64,1.38,1.38,0,0,0-1.25-.65,1.75,1.75,0,0,0-1.27.53,2.39,2.39,0,0,0-.54,1.76,3.82,3.82,0,0,0,.23,1.43,1.53,1.53,0,0,0,1.55,1A1.41,1.41,0,0,0,366,345.31Z"/><path class="cls-3" d="M368.71,340.45h1v1.08a2.39,2.39,0,0,1,.61-.77,1.57,1.57,0,0,1,1.1-.45h.1l.24,0v1.12l-.17,0h-.17a1.53,1.53,0,0,0-1.23.51,1.81,1.81,0,0,0-.42,1.18v3.61h-1.06Z"/><path class="cls-3" d="M376.59,340.62a2.46,2.46,0,0,1,1,.81,2.85,2.85,0,0,1,.42,1.11,6.56,6.56,0,0,1,.1,1.38h-4.6a2.67,2.67,0,0,0,.45,1.53,1.49,1.49,0,0,0,1.3.58,1.68,1.68,0,0,0,1.32-.54,1.91,1.91,0,0,0,.4-.74h1a2.3,2.3,0,0,1-.27.77,2.83,2.83,0,0,1-.52.7,2.49,2.49,0,0,1-1.19.63,3.79,3.79,0,0,1-.86.09,2.64,2.64,0,0,1-2-.85,3.33,3.33,0,0,1-.81-2.39,3.59,3.59,0,0,1,.82-2.45,2.69,2.69,0,0,1,2.14-.94A2.86,2.86,0,0,1,376.59,340.62Zm.38,2.46a2.61,2.61,0,0,0-.3-1.09,1.52,1.52,0,0,0-1.44-.76,1.6,1.6,0,0,0-1.22.52,2,2,0,0,0-.52,1.33Z"/><path class="cls-3" d="M240.38,355a2.77,2.77,0,0,1,.64.62v-3.17h1v8.63h-.95v-.87a2.26,2.26,0,0,1-.88.84,2.5,2.5,0,0,1-1.15.25,2.33,2.33,0,0,1-1.82-.88,3.44,3.44,0,0,1-.77-2.34,4.1,4.1,0,0,1,.7-2.38,2.3,2.3,0,0,1,2-1A2.23,2.23,0,0,1,240.38,355ZM238,359.75a1.49,1.49,0,0,0,1.37.67,1.43,1.43,0,0,0,1.2-.63,2.9,2.9,0,0,0,.47-1.8,2.68,2.68,0,0,0-.48-1.76,1.53,1.53,0,0,0-1.2-.57,1.6,1.6,0,0,0-1.3.6,2.82,2.82,0,0,0-.49,1.8A3.1,3.1,0,0,0,238,359.75Z"/><path class="cls-3" d="M247.5,355a2.42,2.42,0,0,1,1,.81,2.85,2.85,0,0,1,.42,1.11,7.53,7.53,0,0,1,.09,1.38h-4.6a2.67,2.67,0,0,0,.45,1.53,1.52,1.52,0,0,0,1.31.58,1.7,1.7,0,0,0,1.32-.54,1.91,1.91,0,0,0,.4-.74h1a1.93,1.93,0,0,1-.27.77,2.41,2.41,0,0,1-.52.7,2.45,2.45,0,0,1-1.19.63,3.72,3.72,0,0,1-.86.09,2.62,2.62,0,0,1-2-.85,3.29,3.29,0,0,1-.82-2.39,3.64,3.64,0,0,1,.82-2.45,2.71,2.71,0,0,1,2.15-.94A2.85,2.85,0,0,1,247.5,355Zm.39,2.46a2.61,2.61,0,0,0-.3-1.09,1.53,1.53,0,0,0-1.45-.76,1.61,1.61,0,0,0-1.22.52,2,2,0,0,0-.52,1.33Z"/><path class="cls-3" d="M250.3,352.51h1v8.61h-1Z"/><path class="cls-3" d="M256.32,359.24a3.52,3.52,0,0,1,1.52-1.46l1.12-.65a5.6,5.6,0,0,0,1.06-.75,1.56,1.56,0,0,0,.48-1.12,1.52,1.52,0,0,0-.44-1.16,1.58,1.58,0,0,0-1.17-.43,1.53,1.53,0,0,0-1.5.82,2.83,2.83,0,0,0-.24,1.22h-1.08a3.85,3.85,0,0,1,.41-1.79,2.54,2.54,0,0,1,2.42-1.22,2.5,2.5,0,0,1,2.77,2.52,2.37,2.37,0,0,1-.71,1.72,6.86,6.86,0,0,1-1.47,1l-.8.44a4.22,4.22,0,0,0-.9.61,2.08,2.08,0,0,0-.74,1.13h4.58v1h-5.76A4.86,4.86,0,0,1,256.32,359.24Z"/><path class="cls-3" d="M267.77,354.07a6.08,6.08,0,0,1,.56,2.85,6.85,6.85,0,0,1-.51,2.83,2.48,2.48,0,0,1-2.41,1.6,2.42,2.42,0,0,1-2.25-1.31,6,6,0,0,1-.62-2.94,7.45,7.45,0,0,1,.37-2.46,2.53,2.53,0,0,1,2.5-1.91A2.48,2.48,0,0,1,267.77,354.07Zm-1.06,5.59a5.26,5.26,0,0,0,.49-2.7,6.58,6.58,0,0,0-.36-2.36,1.34,1.34,0,0,0-1.36-.92,1.41,1.41,0,0,0-1.36.88,6,6,0,0,0-.43,2.58,6.46,6.46,0,0,0,.27,2.06,1.5,1.5,0,0,0,2.75.46Z"/><path class="cls-3" d="M269.67,359.24a3.47,3.47,0,0,1,1.52-1.46l1.12-.65a6,6,0,0,0,1.06-.75,1.56,1.56,0,0,0,.48-1.12,1.52,1.52,0,0,0-.44-1.16,1.58,1.58,0,0,0-1.17-.43,1.53,1.53,0,0,0-1.5.82,3,3,0,0,0-.25,1.22h-1.07a3.73,3.73,0,0,1,.41-1.79,2.53,2.53,0,0,1,2.42-1.22,2.5,2.5,0,0,1,2.77,2.52,2.37,2.37,0,0,1-.71,1.72,7.13,7.13,0,0,1-1.47,1l-.8.44a4.6,4.6,0,0,0-.91.61,2.19,2.19,0,0,0-.74,1.13H275v1h-5.76A4.86,4.86,0,0,1,269.67,359.24Z"/><path class="cls-3" d="M281.12,354.07a6.08,6.08,0,0,1,.56,2.85,6.85,6.85,0,0,1-.51,2.83,2.49,2.49,0,0,1-2.41,1.6,2.42,2.42,0,0,1-2.25-1.31,6,6,0,0,1-.62-2.94,7.2,7.2,0,0,1,.37-2.46,2.52,2.52,0,0,1,2.5-1.91A2.49,2.49,0,0,1,281.12,354.07Zm-1.06,5.59a5.28,5.28,0,0,0,.48-2.7,6.6,6.6,0,0,0-.35-2.36,1.34,1.34,0,0,0-1.36-.92,1.44,1.44,0,0,0-1.37.88,7.85,7.85,0,0,0-.15,4.64,1.5,1.5,0,0,0,2.75.46Z"/><path class="cls-3" d="M290.21,355a2.46,2.46,0,0,1,1,.81,2.85,2.85,0,0,1,.42,1.11,7.33,7.33,0,0,1,.1,1.38h-4.6a2.67,2.67,0,0,0,.45,1.53,1.49,1.49,0,0,0,1.3.58,1.7,1.7,0,0,0,1.32-.54,1.91,1.91,0,0,0,.4-.74h1a2.3,2.3,0,0,1-.27.77,2.83,2.83,0,0,1-.52.7,2.49,2.49,0,0,1-1.19.63,3.79,3.79,0,0,1-.86.09,2.62,2.62,0,0,1-2-.85,3.33,3.33,0,0,1-.81-2.39,3.59,3.59,0,0,1,.82-2.45,2.69,2.69,0,0,1,2.14-.94A2.86,2.86,0,0,1,290.21,355Zm.38,2.46a2.61,2.61,0,0,0-.3-1.09,1.52,1.52,0,0,0-1.44-.76,1.6,1.6,0,0,0-1.22.52,1.92,1.92,0,0,0-.52,1.33Z"/><path class="cls-3" d="M293,354.85h1v.89a2.75,2.75,0,0,1,.95-.79,2.5,2.5,0,0,1,1.1-.24,1.83,1.83,0,0,1,1.81.93,3.32,3.32,0,0,1,.26,1.46v4H297v-3.95a2.06,2.06,0,0,0-.17-.93,1,1,0,0,0-1-.58,2.09,2.09,0,0,0-.61.07,1.6,1.6,0,0,0-.76.52,1.56,1.56,0,0,0-.35.64,4.54,4.54,0,0,0-.07.94v3.29H293Z"/><path class="cls-3" d="M306.89,355a2.46,2.46,0,0,1,.95.81,2.85,2.85,0,0,1,.42,1.11,6.56,6.56,0,0,1,.1,1.38h-4.6a2.67,2.67,0,0,0,.45,1.53,1.5,1.5,0,0,0,1.31.58,1.67,1.67,0,0,0,1.31-.54,1.91,1.91,0,0,0,.4-.74h1a2.3,2.3,0,0,1-.27.77,2.83,2.83,0,0,1-.52.7,2.49,2.49,0,0,1-1.19.63,3.72,3.72,0,0,1-.86.09,2.64,2.64,0,0,1-2-.85,3.33,3.33,0,0,1-.81-2.39,3.59,3.59,0,0,1,.82-2.45,2.69,2.69,0,0,1,2.14-.94A2.86,2.86,0,0,1,306.89,355Zm.38,2.46a2.61,2.61,0,0,0-.3-1.09,1.51,1.51,0,0,0-1.44-.76,1.6,1.6,0,0,0-1.22.52,2,2,0,0,0-.52,1.33Z"/><path class="cls-3" d="M309.68,352.51h1.06v8.61h-1.06Z"/><path class="cls-3" d="M322,353.14a3.08,3.08,0,0,1,1,2h-1.14a2.31,2.31,0,0,0-.77-1.32,2.45,2.45,0,0,0-1.62-.49,2.58,2.58,0,0,0-2.05.9,4.07,4.07,0,0,0-.78,2.74,4,4,0,0,0,.7,2.45,2.46,2.46,0,0,0,2.11.94,2.22,2.22,0,0,0,2-1,3.67,3.67,0,0,0,.53-1.37H323a3.92,3.92,0,0,1-1,2.28,3.56,3.56,0,0,1-2.76,1.1,3.67,3.67,0,0,1-2.52-.9,4.72,4.72,0,0,1-1.34-3.71,4.78,4.78,0,0,1,1-3.13,3.7,3.7,0,0,1,3-1.32A3.55,3.55,0,0,1,322,353.14Z"/><path class="cls-3" d="M328.23,355a2.46,2.46,0,0,1,.95.81,2.85,2.85,0,0,1,.42,1.11,6.56,6.56,0,0,1,.1,1.38h-4.6a2.67,2.67,0,0,0,.45,1.53,1.5,1.5,0,0,0,1.31.58,1.67,1.67,0,0,0,1.31-.54,1.91,1.91,0,0,0,.4-.74h1a2.3,2.3,0,0,1-.27.77,2.83,2.83,0,0,1-.52.7,2.49,2.49,0,0,1-1.19.63,3.72,3.72,0,0,1-.86.09,2.64,2.64,0,0,1-2-.85,3.33,3.33,0,0,1-.81-2.39,3.59,3.59,0,0,1,.82-2.45,2.69,2.69,0,0,1,2.14-.94A2.86,2.86,0,0,1,328.23,355Zm.38,2.46a2.61,2.61,0,0,0-.3-1.09,1.51,1.51,0,0,0-1.44-.76,1.6,1.6,0,0,0-1.22.52,2,2,0,0,0-.52,1.33Z"/><path class="cls-3" d="M331,354.85h1v.89a2.84,2.84,0,0,1,.95-.79,2.5,2.5,0,0,1,1.1-.24,1.82,1.82,0,0,1,1.81.93,3.32,3.32,0,0,1,.26,1.46v4H335v-3.95a2.21,2.21,0,0,0-.17-.93,1,1,0,0,0-1-.58,2.16,2.16,0,0,0-.62.07,1.6,1.6,0,0,0-.76.52,1.43,1.43,0,0,0-.34.64,3.84,3.84,0,0,0-.08.94v3.29H331Z"/><path class="cls-3" d="M337.88,353.09h1.06v1.76h1v.86h-1v4.09a.44.44,0,0,0,.23.44.81.81,0,0,0,.41.07H340v.83a2.57,2.57,0,0,1-.38.08l-.43,0a1.13,1.13,0,0,1-1-.38,1.64,1.64,0,0,1-.26-1v-4.15H337v-.86h.85Z"/><path class="cls-3" d="M341,354.85h1v1.08a2.33,2.33,0,0,1,.6-.77,1.59,1.59,0,0,1,1.11-.45h.1l.24,0v1.11l-.17,0h-.17a1.53,1.53,0,0,0-1.23.51,1.82,1.82,0,0,0-.43,1.18v3.61H341Z"/><path class="cls-3" d="M349.58,355.47a3.17,3.17,0,0,1,.84,2.38,4.11,4.11,0,0,1-.74,2.51,2.67,2.67,0,0,1-2.29,1,2.57,2.57,0,0,1-2.06-.88,3.42,3.42,0,0,1-.76-2.35,3.79,3.79,0,0,1,.8-2.52,2.71,2.71,0,0,1,2.16-.93A2.83,2.83,0,0,1,349.58,355.47Zm-.66,4.18a4,4,0,0,0,.39-1.77,3.14,3.14,0,0,0-.28-1.43,1.57,1.57,0,0,0-1.53-.87,1.52,1.52,0,0,0-1.41.74,3.48,3.48,0,0,0-.44,1.78,3,3,0,0,0,.44,1.67,1.54,1.54,0,0,0,1.4.67A1.43,1.43,0,0,0,348.92,359.65Z"/><path class="cls-3" d="M358.47,355a3,3,0,0,1,.64.62v-3.17h1v8.63h-.95v-.87a2.31,2.31,0,0,1-.87.84,2.54,2.54,0,0,1-1.16.25,2.31,2.31,0,0,1-1.81-.88,3.39,3.39,0,0,1-.77-2.34,4,4,0,0,1,.7-2.38,2.53,2.53,0,0,1,3.21-.7Zm-2.37,4.71a1.49,1.49,0,0,0,1.37.67,1.43,1.43,0,0,0,1.2-.63,2.9,2.9,0,0,0,.48-1.8,2.68,2.68,0,0,0-.49-1.76,1.51,1.51,0,0,0-1.2-.57,1.59,1.59,0,0,0-1.29.6,2.82,2.82,0,0,0-.5,1.8A3.1,3.1,0,0,0,356.1,359.75Z"/><path class="cls-3" d="M365.59,355a2.46,2.46,0,0,1,1,.81,2.85,2.85,0,0,1,.42,1.11,6.56,6.56,0,0,1,.1,1.38h-4.6a2.67,2.67,0,0,0,.45,1.53,1.49,1.49,0,0,0,1.3.58,1.68,1.68,0,0,0,1.32-.54,1.91,1.91,0,0,0,.4-.74h1a2.3,2.3,0,0,1-.27.77,2.83,2.83,0,0,1-.52.7,2.49,2.49,0,0,1-1.19.63,3.79,3.79,0,0,1-.86.09,2.64,2.64,0,0,1-2-.85,3.33,3.33,0,0,1-.81-2.39,3.59,3.59,0,0,1,.82-2.45,2.69,2.69,0,0,1,2.14-.94A2.86,2.86,0,0,1,365.59,355Zm.38,2.46a2.61,2.61,0,0,0-.3-1.09,1.52,1.52,0,0,0-1.44-.76,1.6,1.6,0,0,0-1.22.52,2,2,0,0,0-.52,1.33Z"/><path class="cls-3" d="M227.06,366.91h1.16v7.59h4.36v1h-5.52Z"/><path class="cls-3" d="M237,371.72a.55.55,0,0,0,.48-.31.84.84,0,0,0,.07-.4.86.86,0,0,0-.38-.78A2.08,2.08,0,0,0,236,370a1.39,1.39,0,0,0-1.17.45,1.37,1.37,0,0,0-.25.73h-1a1.81,1.81,0,0,1,.75-1.61,3.16,3.16,0,0,1,1.68-.46,3.33,3.33,0,0,1,1.8.43,1.42,1.42,0,0,1,.69,1.31v3.61a.54.54,0,0,0,.06.27.36.36,0,0,0,.29.1h.16l.18,0v.78a2.12,2.12,0,0,1-.37.09l-.35,0a.85.85,0,0,1-.79-.39,1.37,1.37,0,0,1-.18-.58,2.94,2.94,0,0,1-2.26,1,2,2,0,0,1-1.43-.53,1.92,1.92,0,0,1,0-2.68,2.58,2.58,0,0,1,1.43-.59Zm-2.23,2.85a1.25,1.25,0,0,0,.8.27,2.38,2.38,0,0,0,1.07-.26,1.45,1.45,0,0,0,.88-1.4v-.85a1.68,1.68,0,0,1-.5.2,3.25,3.25,0,0,1-.59.12l-.64.08a2.41,2.41,0,0,0-.86.24.94.94,0,0,0-.49.88A.86.86,0,0,0,234.73,374.57Z"/><path class="cls-3" d="M240.27,369.25h1v.89a2.72,2.72,0,0,1,.94-.79,2.51,2.51,0,0,1,1.11-.24,1.82,1.82,0,0,1,1.8.93,3.32,3.32,0,0,1,.26,1.46v4h-1.07v-3.95a2.21,2.21,0,0,0-.17-.93,1,1,0,0,0-1-.59,2.12,2.12,0,0,0-.62.08,1.6,1.6,0,0,0-.76.52,1.54,1.54,0,0,0-.34.64,4.42,4.42,0,0,0-.08.94v3.29h-1Z"/><path class="cls-3" d="M246.47,374.69l3.72-4.5h-3.44v-.94h4.86v.86l-3.7,4.47h3.81v.94h-5.25Z"/><path class="cls-3" d="M256.3,371.72a.57.57,0,0,0,.49-.31.84.84,0,0,0,.07-.4.86.86,0,0,0-.38-.78,2.11,2.11,0,0,0-1.1-.25,1.39,1.39,0,0,0-1.17.45,1.45,1.45,0,0,0-.26.73h-1a1.81,1.81,0,0,1,.75-1.61,3.11,3.11,0,0,1,1.68-.46,3.33,3.33,0,0,1,1.8.43,1.41,1.41,0,0,1,.68,1.31v3.61a.54.54,0,0,0,.07.27.36.36,0,0,0,.29.1h.15l.19,0v.78a2.35,2.35,0,0,1-.37.09l-.35,0a.88.88,0,0,1-.8-.39,1.73,1.73,0,0,1-.18-.58,2.68,2.68,0,0,1-.92.73,2.86,2.86,0,0,1-1.33.31,2,2,0,0,1-1.43-.53,1.92,1.92,0,0,1,0-2.68,2.55,2.55,0,0,1,1.43-.59Zm-2.22,2.85a1.22,1.22,0,0,0,.79.27,2.45,2.45,0,0,0,1.08-.26,1.45,1.45,0,0,0,.88-1.4v-.85a1.68,1.68,0,0,1-.5.2,3.19,3.19,0,0,1-.6.12l-.63.08a2.48,2.48,0,0,0-.87.24,1,1,0,0,0-.48.88A.86.86,0,0,0,254.08,374.57Z"/><path class="cls-3" d="M259.61,369.25h1.05v.89a3.33,3.33,0,0,1,.68-.68,2,2,0,0,1,1.18-.35,1.91,1.91,0,0,1,1.21.36,2.2,2.2,0,0,1,.47.63,2.23,2.23,0,0,1,.82-.75,2.34,2.34,0,0,1,1.07-.24,1.74,1.74,0,0,1,1.72.91,3,3,0,0,1,.25,1.32v4.18H267v-4.36a1,1,0,0,0-.31-.86,1.23,1.23,0,0,0-.77-.23,1.56,1.56,0,0,0-1.07.41,1.83,1.83,0,0,0-.44,1.39v3.65h-1.08v-4.09a2.2,2.2,0,0,0-.15-.94.94.94,0,0,0-.9-.44,1.54,1.54,0,0,0-1.08.47,2.24,2.24,0,0,0-.49,1.67v3.33h-1.06Z"/><path class="cls-3" d="M269.61,366.91h1.07v1.2h-1.07Zm0,2.37h1.07v6.24h-1.07Z"/><path class="cls-3" d="M276.18,369.42a2.42,2.42,0,0,1,1,.81,2.85,2.85,0,0,1,.42,1.11,7.53,7.53,0,0,1,.09,1.38h-4.6a2.6,2.6,0,0,0,.46,1.53,1.49,1.49,0,0,0,1.3.58,1.7,1.7,0,0,0,1.32-.54,1.91,1.91,0,0,0,.4-.74h1a2.13,2.13,0,0,1-.28.77,2.58,2.58,0,0,1-.51.7,2.49,2.49,0,0,1-1.19.63,3.88,3.88,0,0,1-.87.09,2.62,2.62,0,0,1-2-.85,3.33,3.33,0,0,1-.82-2.39,3.64,3.64,0,0,1,.82-2.45,2.72,2.72,0,0,1,2.15-.94A2.82,2.82,0,0,1,276.18,369.42Zm.39,2.46a2.61,2.61,0,0,0-.3-1.09,1.53,1.53,0,0,0-1.45-.76,1.57,1.57,0,0,0-1.21.52,2,2,0,0,0-.53,1.33Z"/><path class="cls-3" d="M279,369.25h1v.89a2.81,2.81,0,0,1,.94-.79,2.57,2.57,0,0,1,1.11-.24,1.84,1.84,0,0,1,1.81.93,3.33,3.33,0,0,1,.25,1.46v4H283v-3.95a2.06,2.06,0,0,0-.17-.93,1,1,0,0,0-1-.59,2,2,0,0,0-.61.08,1.77,1.77,0,0,0-1.11,1.16,4.42,4.42,0,0,0-.08.94v3.29H279Z"/><path class="cls-3" d="M285.83,367.49h1.07v1.76h1v.86h-1v4.09a.44.44,0,0,0,.22.44.86.86,0,0,0,.41.07h.37v.83a2.12,2.12,0,0,1-.38.08l-.42,0a1.12,1.12,0,0,1-1-.38,1.65,1.65,0,0,1-.27-1v-4.15H285v-.86h.85Z"/><path class="cls-3" d="M293.54,369.87a3.17,3.17,0,0,1,.84,2.38,4.11,4.11,0,0,1-.74,2.51,2.67,2.67,0,0,1-2.29,1,2.57,2.57,0,0,1-2.06-.88,3.42,3.42,0,0,1-.76-2.35,3.79,3.79,0,0,1,.8-2.52,2.73,2.73,0,0,1,2.16-.94A2.84,2.84,0,0,1,293.54,369.87Zm-.65,4.18a4,4,0,0,0,.39-1.77,3.13,3.13,0,0,0-.29-1.43,1.56,1.56,0,0,0-1.53-.87,1.53,1.53,0,0,0-1.41.74,3.45,3.45,0,0,0-.44,1.78,3,3,0,0,0,.44,1.67,1.55,1.55,0,0,0,1.4.67A1.45,1.45,0,0,0,292.89,374.05Z"/><path class="cls-3" d="M302.43,369.44a2.91,2.91,0,0,1,.64.61v-3.17h1v8.64h-.95v-.87a2.39,2.39,0,0,1-.87.84,2.54,2.54,0,0,1-1.16.25,2.31,2.31,0,0,1-1.81-.88,3.45,3.45,0,0,1-.77-2.34,4,4,0,0,1,.7-2.38,2.5,2.5,0,0,1,3.21-.7Zm-2.37,4.7a1.49,1.49,0,0,0,1.37.68,1.46,1.46,0,0,0,1.21-.63,3,3,0,0,0,.47-1.8,2.62,2.62,0,0,0-.49-1.76,1.52,1.52,0,0,0-1.2-.58,1.6,1.6,0,0,0-1.29.61,2.82,2.82,0,0,0-.5,1.8A3.13,3.13,0,0,0,300.06,374.14Z"/><path class="cls-3" d="M309.55,369.42a2.46,2.46,0,0,1,.95.81,2.85,2.85,0,0,1,.42,1.11,6.56,6.56,0,0,1,.1,1.38h-4.6a2.67,2.67,0,0,0,.45,1.53,1.5,1.5,0,0,0,1.31.58,1.67,1.67,0,0,0,1.31-.54,1.91,1.91,0,0,0,.4-.74h1a2.3,2.3,0,0,1-.27.77,2.83,2.83,0,0,1-.52.7,2.49,2.49,0,0,1-1.19.63,3.72,3.72,0,0,1-.86.09,2.64,2.64,0,0,1-2-.85,3.33,3.33,0,0,1-.81-2.39,3.59,3.59,0,0,1,.82-2.45,2.69,2.69,0,0,1,2.14-.94A2.86,2.86,0,0,1,309.55,369.42Zm.38,2.46a2.61,2.61,0,0,0-.3-1.09,1.51,1.51,0,0,0-1.44-.76,1.6,1.6,0,0,0-1.22.52,2,2,0,0,0-.52,1.33Z"/><path class="cls-3" d="M316.55,372.74a2.39,2.39,0,0,0,.34,1.19,2.3,2.3,0,0,0,2.05.86,3.42,3.42,0,0,0,1.19-.19,1.32,1.32,0,0,0,1.05-1.3,1.13,1.13,0,0,0-.44-1,4.22,4.22,0,0,0-1.4-.51l-1.16-.26a5.8,5.8,0,0,1-1.62-.57,1.8,1.8,0,0,1-.82-1.61,2.51,2.51,0,0,1,.8-1.91,3.27,3.27,0,0,1,2.28-.74,4,4,0,0,1,2.3.65,2.36,2.36,0,0,1,.94,2.09H321a1.82,1.82,0,0,0-2.19-1.73,2.08,2.08,0,0,0-1.48.43,1.35,1.35,0,0,0-.45,1,1,1,0,0,0,.53.92,7.52,7.52,0,0,0,1.56.47l1.21.28a3.59,3.59,0,0,1,1.34.54,2,2,0,0,1,.82,1.75,2.18,2.18,0,0,1-1,2.05,4.62,4.62,0,0,1-2.41.61,3.62,3.62,0,0,1-2.52-.82,2.79,2.79,0,0,1-.89-2.21Z"/><path class="cls-3" d="M327,371.72a.55.55,0,0,0,.49-.31.84.84,0,0,0,.07-.4.86.86,0,0,0-.38-.78,2.11,2.11,0,0,0-1.1-.25,1.39,1.39,0,0,0-1.17.45,1.45,1.45,0,0,0-.26.73h-1a1.81,1.81,0,0,1,.75-1.61,3.13,3.13,0,0,1,1.68-.46,3.33,3.33,0,0,1,1.8.43,1.42,1.42,0,0,1,.69,1.31v3.61a.54.54,0,0,0,.06.27.36.36,0,0,0,.29.1h.16l.18,0v.78a2.35,2.35,0,0,1-.37.09l-.35,0a.85.85,0,0,1-.79-.39,1.52,1.52,0,0,1-.19-.58,2.68,2.68,0,0,1-.92.73,2.83,2.83,0,0,1-1.33.31,2,2,0,0,1-1.43-.53,1.92,1.92,0,0,1,0-2.68,2.58,2.58,0,0,1,1.43-.59Zm-2.22,2.85a1.24,1.24,0,0,0,.79.27,2.42,2.42,0,0,0,1.08-.26,1.45,1.45,0,0,0,.88-1.4v-.85a1.68,1.68,0,0,1-.5.2,3.25,3.25,0,0,1-.59.12l-.64.08a2.35,2.35,0,0,0-.86.24.94.94,0,0,0-.49.88A.86.86,0,0,0,324.79,374.57Z"/><path class="cls-3" d="M330.54,367.49h1.06v1.76h1v.86h-1v4.09a.45.45,0,0,0,.22.44.86.86,0,0,0,.41.07h.37v.83a2.21,2.21,0,0,1-.37.08l-.43,0a1.12,1.12,0,0,1-1-.38,1.64,1.64,0,0,1-.26-1v-4.15h-.85v-.86h.85Z"/><path class="cls-3" d="M337.57,369.42a2.46,2.46,0,0,1,.95.81,2.85,2.85,0,0,1,.42,1.11,6.56,6.56,0,0,1,.1,1.38h-4.6a2.67,2.67,0,0,0,.45,1.53,1.5,1.5,0,0,0,1.31.58,1.67,1.67,0,0,0,1.31-.54,1.91,1.91,0,0,0,.4-.74h1a2.3,2.3,0,0,1-.27.77,2.83,2.83,0,0,1-.52.7,2.49,2.49,0,0,1-1.19.63,3.79,3.79,0,0,1-.86.09,2.64,2.64,0,0,1-2-.85,3.33,3.33,0,0,1-.81-2.39,3.59,3.59,0,0,1,.82-2.45,2.69,2.69,0,0,1,2.14-.94A2.86,2.86,0,0,1,337.57,369.42Zm.38,2.46a2.61,2.61,0,0,0-.3-1.09,1.51,1.51,0,0,0-1.44-.76,1.6,1.6,0,0,0-1.22.52,2,2,0,0,0-.52,1.33Zm-.46-5.16-1.56,1.69h-.81l1.07-1.69Z"/><path class="cls-3" d="M340.36,366.91h1.06v8.61h-1.06Z"/><path class="cls-3" d="M343,366.91h1.07v1.2H343Zm0,2.37h1.07v6.24H343Z"/><path class="cls-3" d="M345.88,367.49h1.06v1.76h1v.86h-1v4.09a.45.45,0,0,0,.22.44.86.86,0,0,0,.41.07h.37v.83a2.21,2.21,0,0,1-.37.08l-.43,0a1.12,1.12,0,0,1-1-.38,1.64,1.64,0,0,1-.26-1v-4.15H345v-.86h.85Z"/><path class="cls-3" d="M352.91,369.42a2.46,2.46,0,0,1,.95.81,2.85,2.85,0,0,1,.42,1.11,6.56,6.56,0,0,1,.1,1.38h-4.6a2.67,2.67,0,0,0,.45,1.53,1.5,1.5,0,0,0,1.31.58,1.67,1.67,0,0,0,1.31-.54,1.91,1.91,0,0,0,.4-.74h1a2.3,2.3,0,0,1-.27.77,2.83,2.83,0,0,1-.52.7,2.49,2.49,0,0,1-1.19.63,3.79,3.79,0,0,1-.86.09,2.64,2.64,0,0,1-2-.85,3.33,3.33,0,0,1-.81-2.39,3.59,3.59,0,0,1,.82-2.45,2.69,2.69,0,0,1,2.14-.94A2.86,2.86,0,0,1,352.91,369.42Zm.38,2.46a2.61,2.61,0,0,0-.3-1.09,1.51,1.51,0,0,0-1.44-.76,1.6,1.6,0,0,0-1.22.52,2,2,0,0,0-.52,1.33Z"/><path class="cls-3" d="M356.3,373.55a1.58,1.58,0,0,0,.26.81,1.67,1.67,0,0,0,1.39.51,2,2,0,0,0,1-.25.86.86,0,0,0,.44-.79.68.68,0,0,0-.36-.62,5,5,0,0,0-.9-.3l-.84-.21a4.13,4.13,0,0,1-1.18-.44,1.35,1.35,0,0,1-.68-1.19,1.81,1.81,0,0,1,.64-1.44,2.62,2.62,0,0,1,1.73-.55,2.39,2.39,0,0,1,2,.83,1.82,1.82,0,0,1,.38,1.14h-1a1.3,1.3,0,0,0-.25-.65,1.62,1.62,0,0,0-1.26-.42,1.55,1.55,0,0,0-.91.23.75.75,0,0,0-.31.61.74.74,0,0,0,.41.65,2.12,2.12,0,0,0,.69.26l.7.17a5.45,5.45,0,0,1,1.52.53,1.42,1.42,0,0,1,.61,1.28,1.93,1.93,0,0,1-.63,1.44,2.69,2.69,0,0,1-1.94.61,2.61,2.61,0,0,1-2-.63,2.38,2.38,0,0,1-.62-1.58Z"/><path class="cls-3" d="M368.47,369.44a2.91,2.91,0,0,1,.64.61v-3.17h1v8.64h-.95v-.87a2.32,2.32,0,0,1-.87.84,2.54,2.54,0,0,1-1.16.25,2.33,2.33,0,0,1-1.81-.88,3.45,3.45,0,0,1-.77-2.34,4,4,0,0,1,.7-2.38,2.5,2.5,0,0,1,3.21-.7Zm-2.37,4.7a1.49,1.49,0,0,0,1.37.68,1.46,1.46,0,0,0,1.21-.63,3,3,0,0,0,.47-1.8,2.62,2.62,0,0,0-.49-1.76,1.52,1.52,0,0,0-1.2-.58,1.6,1.6,0,0,0-1.29.61,2.82,2.82,0,0,0-.5,1.8A3.13,3.13,0,0,0,366.1,374.14Z"/><path class="cls-3" d="M375.59,369.42a2.39,2.39,0,0,1,1,.81,2.85,2.85,0,0,1,.42,1.11,6.56,6.56,0,0,1,.1,1.38h-4.6a2.67,2.67,0,0,0,.45,1.53,1.5,1.5,0,0,0,1.31.58,1.7,1.7,0,0,0,1.32-.54,1.89,1.89,0,0,0,.39-.74h1a2.3,2.3,0,0,1-.27.77,2.83,2.83,0,0,1-.52.7,2.49,2.49,0,0,1-1.19.63,3.72,3.72,0,0,1-.86.09,2.66,2.66,0,0,1-2-.85,3.33,3.33,0,0,1-.81-2.39,3.59,3.59,0,0,1,.82-2.45,2.7,2.7,0,0,1,2.14-.94A2.86,2.86,0,0,1,375.59,369.42Zm.38,2.46a2.78,2.78,0,0,0-.29-1.09,1.54,1.54,0,0,0-1.45-.76,1.6,1.6,0,0,0-1.22.52,2,2,0,0,0-.52,1.33Z"/><path class="cls-3" d="M274.77,381.31l1.62,7,1.94-7h1.27l1.94,7,1.63-7h1.28l-2.27,8.61H281l-2-7.13-2,7.13h-1.22l-2.25-8.61Z"/><path class="cls-3" d="M289.08,383.82a2.42,2.42,0,0,1,1,.81,2.85,2.85,0,0,1,.42,1.11,7.53,7.53,0,0,1,.09,1.38H286a2.67,2.67,0,0,0,.45,1.53,1.5,1.5,0,0,0,1.31.58,1.7,1.7,0,0,0,1.32-.54,2,2,0,0,0,.4-.74h1a2.1,2.1,0,0,1-.27.77,2.6,2.6,0,0,1-.52.7,2.45,2.45,0,0,1-1.19.63,3.72,3.72,0,0,1-.86.09,2.66,2.66,0,0,1-2-.85,3.33,3.33,0,0,1-.81-2.39,3.59,3.59,0,0,1,.82-2.45,2.71,2.71,0,0,1,2.15-.94A2.85,2.85,0,0,1,289.08,383.82Zm.39,2.46a3,3,0,0,0-.3-1.09,1.53,1.53,0,0,0-1.45-.76,1.61,1.61,0,0,0-1.22.52,2,2,0,0,0-.52,1.33Z"/><path class="cls-3" d="M291.85,383.65h1v.89a2.72,2.72,0,0,1,.94-.79,2.51,2.51,0,0,1,1.11-.24,1.82,1.82,0,0,1,1.8.93,3.18,3.18,0,0,1,.26,1.46v4h-1.07V386a2.21,2.21,0,0,0-.17-.93,1,1,0,0,0-1-.58,2.16,2.16,0,0,0-.62.07,1.6,1.6,0,0,0-.76.52,1.54,1.54,0,0,0-.34.64,4.42,4.42,0,0,0-.08.94v3.29h-1Z"/><path class="cls-3" d="M302.67,384a2.45,2.45,0,0,1,.79,1.78h-1a1.92,1.92,0,0,0-.43-1,1.36,1.36,0,0,0-1.07-.38,1.49,1.49,0,0,0-1.44,1,3.89,3.89,0,0,0-.28,1.58,2.93,2.93,0,0,0,.4,1.59,1.55,1.55,0,0,0,2.29.24,2.19,2.19,0,0,0,.53-1.1h1a2.45,2.45,0,0,1-2.67,2.4,2.42,2.42,0,0,1-2-.9,3.47,3.47,0,0,1-.73-2.24,3.85,3.85,0,0,1,.8-2.58,2.62,2.62,0,0,1,2.05-.92A2.78,2.78,0,0,1,302.67,384Z"/><path class="cls-3" d="M304.52,381.29h1.05v3.21a3,3,0,0,1,.68-.67,2.29,2.29,0,0,1,1.27-.34,1.87,1.87,0,0,1,1.85,1,3.22,3.22,0,0,1,.26,1.45v4h-1.08V386a2.38,2.38,0,0,0-.17-1,1.15,1.15,0,0,0-1.08-.51,1.79,1.79,0,0,0-1.19.45,2.15,2.15,0,0,0-.54,1.7v3.33h-1.05Z"/><path class="cls-3" d="M314.56,386.12a.55.55,0,0,0,.48-.31,1,1,0,0,0-.31-1.18,2.08,2.08,0,0,0-1.1-.25,1.39,1.39,0,0,0-1.17.45,1.45,1.45,0,0,0-.25.73h-1A1.79,1.79,0,0,1,312,384a3.1,3.1,0,0,1,1.67-.46,3.33,3.33,0,0,1,1.8.43,1.42,1.42,0,0,1,.69,1.31v3.61a.45.45,0,0,0,.07.27.33.33,0,0,0,.28.1h.16l.19,0V390a2.42,2.42,0,0,1-.38.09l-.35,0a.86.86,0,0,1-.79-.39,1.37,1.37,0,0,1-.18-.58,2.7,2.7,0,0,1-.93.73,2.8,2.8,0,0,1-1.33.31,2,2,0,0,1-1.43-.53,1.74,1.74,0,0,1-.55-1.32,1.69,1.69,0,0,1,.55-1.36,2.55,2.55,0,0,1,1.43-.59ZM312.34,389a1.2,1.2,0,0,0,.79.27,2.45,2.45,0,0,0,1.08-.26,1.45,1.45,0,0,0,.87-1.4v-.85a1.61,1.61,0,0,1-.49.2,3.54,3.54,0,0,1-.6.12l-.64.08a2.41,2.41,0,0,0-.86.24.94.94,0,0,0-.49.88A.84.84,0,0,0,312.34,389Z"/><path class="cls-3" d="M317.87,383.65h1v.89a2.81,2.81,0,0,1,.94-.79,2.51,2.51,0,0,1,1.11-.24,1.82,1.82,0,0,1,1.8.93,3.18,3.18,0,0,1,.26,1.46v4h-1.07V386a2.21,2.21,0,0,0-.17-.93,1,1,0,0,0-1-.58,2.09,2.09,0,0,0-.61.07,1.63,1.63,0,0,0-.77.52,1.54,1.54,0,0,0-.34.64,4.42,4.42,0,0,0-.08.94v3.29h-1.05Z"/><path class="cls-3" d="M328,383.9a2.63,2.63,0,0,1,.61.6v-.79h1v5.7a4.27,4.27,0,0,1-.35,1.89,2.54,2.54,0,0,1-2.48,1.28,3.07,3.07,0,0,1-1.71-.46,1.74,1.74,0,0,1-.77-1.42h1.07a1.14,1.14,0,0,0,.31.65,1.51,1.51,0,0,0,1.12.35,1.55,1.55,0,0,0,1.59-.85,4.88,4.88,0,0,0,.2-1.8,2,2,0,0,1-.76.71,2.7,2.7,0,0,1-3-.49,3.17,3.17,0,0,1-.77-2.39,3.59,3.59,0,0,1,.78-2.46,2.37,2.37,0,0,1,1.86-.88A2.26,2.26,0,0,1,328,383.9Zm.13,1.13a1.62,1.62,0,0,0-2.74.48,4,4,0,0,0-.22,1.46,2.55,2.55,0,0,0,.43,1.61,1.39,1.39,0,0,0,1.16.56,1.64,1.64,0,0,0,1.6-1,3.35,3.35,0,0,0,.25-1.35A2.61,2.61,0,0,0,328.17,385Z"/><path class="cls-3" d="M245.47,486.71h1.32l3.13,8.61h-1.28l-.87-2.58h-3.41l-.93,2.58h-1.2Zm1.92,5.08-1.31-3.8-1.38,3.8Z"/><path class="cls-3" d="M251.05,487.29h1.06V489h1v.86h-1V494a.45.45,0,0,0,.23.44,1,1,0,0,0,.41.06h.37v.83a2.53,2.53,0,0,1-.38.07,2.9,2.9,0,0,1-.43,0,1.15,1.15,0,0,1-1-.38,1.64,1.64,0,0,1-.26-1V489.9h-.85V489h.85Z"/><path class="cls-3" d="M258.08,489.21a2.33,2.33,0,0,1,.95.82,2.91,2.91,0,0,1,.43,1.1,7.59,7.59,0,0,1,.09,1.39H255a2.72,2.72,0,0,0,.45,1.53,1.53,1.53,0,0,0,1.31.58,1.71,1.71,0,0,0,1.32-.55,1.78,1.78,0,0,0,.39-.73h1a2.3,2.3,0,0,1-.27.77,3,3,0,0,1-.52.69,2.42,2.42,0,0,1-1.19.64,3.72,3.72,0,0,1-.86.09,2.66,2.66,0,0,1-2-.85,3.34,3.34,0,0,1-.81-2.39,3.6,3.6,0,0,1,.82-2.46,2.73,2.73,0,0,1,2.14-.94A3,3,0,0,1,258.08,489.21Zm.38,2.47a2.84,2.84,0,0,0-.29-1.1,1.56,1.56,0,0,0-1.45-.76,1.6,1.6,0,0,0-1.22.53,2,2,0,0,0-.52,1.33Z"/><path class="cls-3" d="M260.87,489h1v1.09a2.33,2.33,0,0,1,.6-.77,1.54,1.54,0,0,1,1.11-.46h.1l.24,0V490l-.18,0h-.17a1.5,1.5,0,0,0-1.22.52,1.75,1.75,0,0,0-.43,1.18v3.61h-1.06Z"/><path class="cls-3" d="M264.87,489h1v1.09a2.33,2.33,0,0,1,.6-.77,1.54,1.54,0,0,1,1.11-.46h.1l.24,0V490l-.17,0h-.17a1.52,1.52,0,0,0-1.23.52,1.8,1.8,0,0,0-.43,1.18v3.61h-1.05Z"/><path class="cls-3" d="M268.84,486.71h1.07v1.2h-1.07Zm0,2.36h1.07v6.25h-1.07Z"/><path class="cls-3" d="M271,494.49l3.72-4.5h-3.44V489h4.86v.86l-3.7,4.47h3.81v.95H271Z"/><path class="cls-3" d="M282.08,489.67a3.15,3.15,0,0,1,.84,2.38,4,4,0,0,1-.74,2.51,2.66,2.66,0,0,1-2.29,1,2.58,2.58,0,0,1-2.05-.88,3.45,3.45,0,0,1-.77-2.35,3.7,3.7,0,0,1,.81-2.52,2.66,2.66,0,0,1,2.15-.94A2.82,2.82,0,0,1,282.08,489.67Zm-.65,4.17a3.92,3.92,0,0,0,.39-1.76,3.08,3.08,0,0,0-.28-1.43,1.59,1.59,0,0,0-1.54-.87,1.51,1.51,0,0,0-1.4.74,3.34,3.34,0,0,0-.44,1.78,2.93,2.93,0,0,0,.44,1.67,1.54,1.54,0,0,0,1.39.67A1.46,1.46,0,0,0,281.43,493.84Zm-.17-7.32-1.57,1.69h-.81l1.08-1.69Z"/><path class="cls-3" d="M291.42,489.21a2.33,2.33,0,0,1,.95.82,2.75,2.75,0,0,1,.42,1.1,6.6,6.6,0,0,1,.1,1.39h-4.6a2.72,2.72,0,0,0,.45,1.53,1.53,1.53,0,0,0,1.31.58,1.71,1.71,0,0,0,1.32-.55,1.78,1.78,0,0,0,.39-.73h1a2.3,2.3,0,0,1-.27.77,3,3,0,0,1-.52.69,2.42,2.42,0,0,1-1.19.64,3.72,3.72,0,0,1-.86.09,2.66,2.66,0,0,1-2-.85,3.34,3.34,0,0,1-.81-2.39,3.6,3.6,0,0,1,.82-2.46,2.73,2.73,0,0,1,2.14-.94A3,3,0,0,1,291.42,489.21Zm.38,2.47a2.84,2.84,0,0,0-.29-1.1,1.56,1.56,0,0,0-1.45-.76,1.6,1.6,0,0,0-1.22.53,2,2,0,0,0-.52,1.33Z"/><path class="cls-3" d="M294.21,486.71h1.06v8.61h-1.06Z"/><path class="cls-3" d="M300.56,489.38v-.81a4.49,4.49,0,0,0,1.59-.37,1.88,1.88,0,0,0,.68-1.24h.83v8.36h-1.13v-5.94Z"/><path class="cls-3" d="M311.55,487.62a2.48,2.48,0,0,1,.56,1.5h-1.05a2,2,0,0,0-.29-.78,1.34,1.34,0,0,0-1.16-.52,1.58,1.58,0,0,0-1.4.81,4.73,4.73,0,0,0-.59,2.35,2.27,2.27,0,0,1,.92-.8,2.59,2.59,0,0,1,1.12-.24,2.72,2.72,0,0,1,1.84.68,2.49,2.49,0,0,1,.79,2,3,3,0,0,1-.75,2,2.6,2.6,0,0,1-2.12.88,2.7,2.7,0,0,1-2-.89,4.3,4.3,0,0,1-.85-3,7.9,7.9,0,0,1,.38-2.65,2.7,2.7,0,0,1,2.67-2.09A2.31,2.31,0,0,1,311.55,487.62Zm-.79,6.42a2.17,2.17,0,0,0,.42-1.32,2.32,2.32,0,0,0-.37-1.23,1.48,1.48,0,0,0-1.35-.58,1.75,1.75,0,0,0-1.19.45,1.71,1.71,0,0,0-.51,1.36,2,2,0,0,0,.47,1.33,1.59,1.59,0,0,0,1.29.55A1.44,1.44,0,0,0,310.76,494Z"/><path class="cls-3" d="M320.33,489.24a2.69,2.69,0,0,1,.64.61v-3.17h1v8.64h-1v-.88a2.24,2.24,0,0,1-.87.84,2.54,2.54,0,0,1-1.16.26,2.31,2.31,0,0,1-1.81-.88,3.46,3.46,0,0,1-.77-2.35,4,4,0,0,1,.7-2.37,2.3,2.3,0,0,1,2-1A2.2,2.2,0,0,1,320.33,489.24Zm-2.37,4.7a1.51,1.51,0,0,0,1.37.68,1.46,1.46,0,0,0,1.21-.63,3,3,0,0,0,.47-1.81,2.64,2.64,0,0,0-.49-1.76,1.51,1.51,0,0,0-1.2-.57,1.57,1.57,0,0,0-1.29.61,2.79,2.79,0,0,0-.5,1.79A3.16,3.16,0,0,0,318,493.94Z"/><path class="cls-3" d="M327.45,489.21a2.33,2.33,0,0,1,.95.82,2.75,2.75,0,0,1,.42,1.1,6.6,6.6,0,0,1,.1,1.39h-4.6a2.72,2.72,0,0,0,.45,1.53,1.53,1.53,0,0,0,1.31.58,1.68,1.68,0,0,0,1.31-.55,1.8,1.8,0,0,0,.4-.73h1a2.3,2.3,0,0,1-.27.77,3,3,0,0,1-.52.69,2.42,2.42,0,0,1-1.19.64,3.72,3.72,0,0,1-.86.09,2.64,2.64,0,0,1-2-.85,3.34,3.34,0,0,1-.81-2.39,3.6,3.6,0,0,1,.82-2.46,2.72,2.72,0,0,1,2.14-.94A3,3,0,0,1,327.45,489.21Zm.38,2.47a2.84,2.84,0,0,0-.29-1.1,1.56,1.56,0,0,0-1.45-.76,1.6,1.6,0,0,0-1.22.53,2,2,0,0,0-.52,1.33Z"/><path class="cls-3" d="M337,489.24a2.69,2.69,0,0,1,.64.61v-3.17h1v8.64h-1v-.88a2.18,2.18,0,0,1-.87.84,2.53,2.53,0,0,1-1.15.26,2.33,2.33,0,0,1-1.82-.88,3.46,3.46,0,0,1-.77-2.35,4,4,0,0,1,.7-2.37,2.31,2.31,0,0,1,2-1A2.18,2.18,0,0,1,337,489.24Zm-2.37,4.7a1.51,1.51,0,0,0,1.37.68,1.46,1.46,0,0,0,1.21-.63,3,3,0,0,0,.47-1.81,2.64,2.64,0,0,0-.49-1.76,1.51,1.51,0,0,0-1.2-.57,1.57,1.57,0,0,0-1.29.61,2.79,2.79,0,0,0-.5,1.79A3.16,3.16,0,0,0,334.64,493.94Z"/><path class="cls-3" d="M340.22,486.71h1.07v1.2h-1.07Zm0,2.36h1.07v6.25h-1.07Z"/><path class="cls-3" d="M347,489.38a2.42,2.42,0,0,1,.8,1.77h-1a1.93,1.93,0,0,0-.43-1,1.33,1.33,0,0,0-1.07-.39,1.47,1.47,0,0,0-1.44,1,3.83,3.83,0,0,0-.29,1.57A3,3,0,0,0,344,494a1.39,1.39,0,0,0,1.26.65,1.42,1.42,0,0,0,1-.4,2.32,2.32,0,0,0,.53-1.1h1a2.49,2.49,0,0,1-2.68,2.4,2.4,2.4,0,0,1-2-.9,3.44,3.44,0,0,1-.73-2.25,3.8,3.8,0,0,1,.8-2.57,2.62,2.62,0,0,1,2.05-.92A2.69,2.69,0,0,1,347,489.38Z"/><path class="cls-3" d="M348.89,486.71H350v1.2h-1.07Zm0,2.36H350v6.25h-1.07Z"/><path class="cls-3" d="M355.46,489.21a2.36,2.36,0,0,1,1,.82,2.75,2.75,0,0,1,.42,1.1,7.59,7.59,0,0,1,.09,1.39h-4.6a2.72,2.72,0,0,0,.45,1.53,1.53,1.53,0,0,0,1.31.58,1.71,1.71,0,0,0,1.32-.55,1.8,1.8,0,0,0,.4-.73h1a1.93,1.93,0,0,1-.27.77,2.71,2.71,0,0,1-.52.69,2.38,2.38,0,0,1-1.19.64,3.72,3.72,0,0,1-.86.09,2.62,2.62,0,0,1-2-.85,3.3,3.3,0,0,1-.82-2.39,3.6,3.6,0,0,1,.82-2.46,2.74,2.74,0,0,1,2.15-.94A3,3,0,0,1,355.46,489.21Zm.39,2.47a2.83,2.83,0,0,0-.3-1.1,1.55,1.55,0,0,0-1.45-.76,1.62,1.62,0,0,0-1.22.53,2,2,0,0,0-.52,1.33Z"/><path class="cls-3" d="M358.23,489h1v.89a3.5,3.5,0,0,1,.68-.67,2,2,0,0,1,1.18-.36,1.84,1.84,0,0,1,1.21.37,2,2,0,0,1,.47.62,2.42,2.42,0,0,1,.82-.75,2.37,2.37,0,0,1,1.07-.24,1.74,1.74,0,0,1,1.72.92,2.85,2.85,0,0,1,.25,1.32v4.18h-1.1V491a1,1,0,0,0-.31-.86,1.21,1.21,0,0,0-.76-.24,1.5,1.5,0,0,0-1.07.42,1.83,1.83,0,0,0-.45,1.39v3.65h-1.07v-4.1a2,2,0,0,0-.16-.93.93.93,0,0,0-.89-.44,1.55,1.55,0,0,0-1.09.46,2.26,2.26,0,0,0-.49,1.68v3.33h-1Z"/><path class="cls-3" d="M368.14,486.68h1v3.12a2.22,2.22,0,0,1,.82-.68,2.31,2.31,0,0,1,1.05-.24,2.47,2.47,0,0,1,1.9.8,3.47,3.47,0,0,1,.73,2.38,4.06,4.06,0,0,1-.72,2.47,2.35,2.35,0,0,1-2,1,2.06,2.06,0,0,1-1.21-.35,2.88,2.88,0,0,1-.63-.66v.81h-1Zm4,7.23a3.33,3.33,0,0,0,.43-1.8,2.9,2.9,0,0,0-.43-1.64,1.4,1.4,0,0,0-1.25-.65,1.76,1.76,0,0,0-1.26.53,2.42,2.42,0,0,0-.54,1.76,3.89,3.89,0,0,0,.22,1.44,1.53,1.53,0,0,0,1.55,1A1.4,1.4,0,0,0,372.16,493.91Z"/><path class="cls-3" d="M374.93,489h1v1.09a2.33,2.33,0,0,1,.6-.77,1.54,1.54,0,0,1,1.11-.46h.1l.24,0V490l-.17,0h-.18a1.5,1.5,0,0,0-1.22.52,1.75,1.75,0,0,0-.43,1.18v3.61h-1.05Z"/><path class="cls-3" d="M382.8,489.21a2.36,2.36,0,0,1,1,.82,2.75,2.75,0,0,1,.42,1.1,7.59,7.59,0,0,1,.09,1.39h-4.6a2.72,2.72,0,0,0,.45,1.53,1.53,1.53,0,0,0,1.31.58,1.71,1.71,0,0,0,1.32-.55,1.8,1.8,0,0,0,.4-.73h1a1.93,1.93,0,0,1-.27.77,2.71,2.71,0,0,1-.52.69,2.38,2.38,0,0,1-1.19.64,3.72,3.72,0,0,1-.86.09,2.62,2.62,0,0,1-2-.85,3.3,3.3,0,0,1-.82-2.39,3.6,3.6,0,0,1,.82-2.46,2.74,2.74,0,0,1,2.15-.94A3,3,0,0,1,382.8,489.21Zm.39,2.47a3,3,0,0,0-.3-1.1,1.55,1.55,0,0,0-1.45-.76,1.62,1.62,0,0,0-1.22.53,2,2,0,0,0-.52,1.33Z"/><path class="cls-3" d="M238.94,503.64a2.89,2.89,0,0,1,.64.61v-3.17h1v8.64h-1v-.88a2.31,2.31,0,0,1-.87.84,2.54,2.54,0,0,1-1.16.26,2.31,2.31,0,0,1-1.81-.88,3.46,3.46,0,0,1-.77-2.35,4,4,0,0,1,.7-2.37,2.3,2.3,0,0,1,2-1A2.2,2.2,0,0,1,238.94,503.64Zm-2.37,4.7a1.51,1.51,0,0,0,1.37.68,1.46,1.46,0,0,0,1.21-.63,3,3,0,0,0,.47-1.81,2.64,2.64,0,0,0-.49-1.76,1.51,1.51,0,0,0-1.2-.57,1.57,1.57,0,0,0-1.29.61,2.79,2.79,0,0,0-.5,1.79A3.14,3.14,0,0,0,236.57,508.34Z"/><path class="cls-3" d="M246.06,503.62a2.3,2.3,0,0,1,.95.81,2.75,2.75,0,0,1,.42,1.1,6.6,6.6,0,0,1,.1,1.39h-4.6a2.72,2.72,0,0,0,.45,1.53,1.53,1.53,0,0,0,1.31.58,1.68,1.68,0,0,0,1.31-.55,1.8,1.8,0,0,0,.4-.73h1a2.3,2.3,0,0,1-.27.77,3,3,0,0,1-.52.69,2.42,2.42,0,0,1-1.19.64,3.72,3.72,0,0,1-.86.09,2.64,2.64,0,0,1-2-.85,3.34,3.34,0,0,1-.81-2.39,3.56,3.56,0,0,1,.82-2.45,2.69,2.69,0,0,1,2.14-.95A2.87,2.87,0,0,1,246.06,503.62Zm.38,2.46a2.66,2.66,0,0,0-.3-1.1,1.53,1.53,0,0,0-1.44-.76,1.6,1.6,0,0,0-1.22.53,2,2,0,0,0-.52,1.33Z"/><path class="cls-3" d="M248.85,501.11h1.06v8.61h-1.06Z"/><path class="cls-3" d="M254.87,507.83a3.7,3.7,0,0,1,1.52-1.46l1.13-.65a5.08,5.08,0,0,0,1.06-.75,1.52,1.52,0,0,0,.48-1.11,1.54,1.54,0,0,0-.44-1.16,1.58,1.58,0,0,0-1.17-.44,1.53,1.53,0,0,0-1.5.82,3,3,0,0,0-.25,1.22h-1.07a3.81,3.81,0,0,1,.4-1.78,2.53,2.53,0,0,1,2.42-1.22,2.48,2.48,0,0,1,2.77,2.51,2.35,2.35,0,0,1-.7,1.72,6.88,6.88,0,0,1-1.48,1l-.8.45a5.37,5.37,0,0,0-.9.6,2.21,2.21,0,0,0-.74,1.13h4.58v1h-5.76A5,5,0,0,1,254.87,507.83Z"/><path class="cls-3" d="M266.32,502.67a5.93,5.93,0,0,1,.57,2.84,6.85,6.85,0,0,1-.51,2.83A2.51,2.51,0,0,1,264,510a2.43,2.43,0,0,1-2.25-1.32,6,6,0,0,1-.61-2.94,7.14,7.14,0,0,1,.37-2.45,2.51,2.51,0,0,1,2.5-1.91A2.46,2.46,0,0,1,266.32,502.67Zm-1.06,5.59a5.22,5.22,0,0,0,.49-2.71,6.77,6.77,0,0,0-.35-2.35,1.34,1.34,0,0,0-1.37-.92,1.43,1.43,0,0,0-1.36.87,6,6,0,0,0-.43,2.58,6.19,6.19,0,0,0,.28,2.07,1.49,1.49,0,0,0,2.74.46Z"/><path class="cls-3" d="M268.22,507.83a3.7,3.7,0,0,1,1.52-1.46l1.13-.65a5.37,5.37,0,0,0,1.06-.75,1.52,1.52,0,0,0,.48-1.11,1.54,1.54,0,0,0-.44-1.16,1.62,1.62,0,0,0-1.18-.44,1.55,1.55,0,0,0-1.5.82,3,3,0,0,0-.24,1.22H268a3.69,3.69,0,0,1,.4-1.78,2.52,2.52,0,0,1,2.42-1.22,2.64,2.64,0,0,1,2.11.78,2.6,2.6,0,0,1,.66,1.73,2.32,2.32,0,0,1-.71,1.72,6.51,6.51,0,0,1-1.47,1l-.8.45a5.37,5.37,0,0,0-.9.6,2.21,2.21,0,0,0-.74,1.13h4.58v1h-5.76A5,5,0,0,1,268.22,507.83Z"/><path class="cls-3" d="M279.67,502.67a5.94,5.94,0,0,1,.56,2.84,6.85,6.85,0,0,1-.51,2.83,2.49,2.49,0,0,1-2.41,1.61,2.41,2.41,0,0,1-2.25-1.32,6,6,0,0,1-.61-2.94,7.4,7.4,0,0,1,.36-2.45,2.53,2.53,0,0,1,2.51-1.91A2.46,2.46,0,0,1,279.67,502.67Zm-1.06,5.59a5.22,5.22,0,0,0,.49-2.71,6.77,6.77,0,0,0-.35-2.35,1.34,1.34,0,0,0-1.37-.92,1.43,1.43,0,0,0-1.36.87,6,6,0,0,0-.43,2.58,6.49,6.49,0,0,0,.27,2.07,1.5,1.5,0,0,0,2.75.46Z"/><path class="cls-3" d="M288.76,503.62a2.18,2.18,0,0,1,.95.81,2.62,2.62,0,0,1,.43,1.1,7.59,7.59,0,0,1,.09,1.39h-4.6a2.72,2.72,0,0,0,.45,1.53,1.53,1.53,0,0,0,1.31.58,1.71,1.71,0,0,0,1.32-.55,1.93,1.93,0,0,0,.4-.73h1a2.1,2.1,0,0,1-.27.77,2.71,2.71,0,0,1-.52.69,2.42,2.42,0,0,1-1.19.64,3.72,3.72,0,0,1-.86.09,2.66,2.66,0,0,1-2-.85,3.34,3.34,0,0,1-.81-2.39,3.56,3.56,0,0,1,.82-2.45,2.71,2.71,0,0,1,2.14-.95A2.87,2.87,0,0,1,288.76,503.62Zm.39,2.46a3,3,0,0,0-.3-1.1,1.55,1.55,0,0,0-1.45-.76,1.62,1.62,0,0,0-1.22.53,2,2,0,0,0-.52,1.33Z"/><path class="cls-3" d="M291.53,503.44h1v.89a2.83,2.83,0,0,1,.94-.79,2.51,2.51,0,0,1,1.11-.24,1.82,1.82,0,0,1,1.8.93,3.35,3.35,0,0,1,.26,1.46v4h-1.07v-4a2.16,2.16,0,0,0-.17-.92,1,1,0,0,0-1-.59,2.12,2.12,0,0,0-.62.08,1.52,1.52,0,0,0-.76.51,1.6,1.6,0,0,0-.34.64,4.59,4.59,0,0,0-.08.95v3.29h-1.05Z"/><path class="cls-3" d="M301.64,501.11h1.67l2.48,7.28,2.45-7.28h1.65v8.61h-1.1v-5.08c0-.18,0-.47,0-.88s0-.84,0-1.3l-2.45,7.26H305.2l-2.47-7.26v.26c0,.21,0,.53,0,1s0,.74,0,.95v5.08h-1.12Z"/><path class="cls-3" d="M316.11,504.07a3.15,3.15,0,0,1,.84,2.38,4.11,4.11,0,0,1-.74,2.51,2.66,2.66,0,0,1-2.29,1,2.62,2.62,0,0,1-2.06-.88,3.49,3.49,0,0,1-.76-2.35,3.75,3.75,0,0,1,.8-2.52,2.7,2.7,0,0,1,2.16-.94A2.84,2.84,0,0,1,316.11,504.07Zm-.65,4.17a3.92,3.92,0,0,0,.39-1.76,3.25,3.25,0,0,0-.28-1.43,1.59,1.59,0,0,0-1.54-.87,1.54,1.54,0,0,0-1.41.74,3.43,3.43,0,0,0-.43,1.78,3,3,0,0,0,.43,1.67,1.55,1.55,0,0,0,1.4.67A1.46,1.46,0,0,0,315.46,508.24Z"/><path class="cls-3" d="M318.2,503.44h1v.89a2.83,2.83,0,0,1,.94-.79,2.51,2.51,0,0,1,1.11-.24,1.82,1.82,0,0,1,1.8.93,3.35,3.35,0,0,1,.26,1.46v4h-1.07v-4a2.16,2.16,0,0,0-.17-.92,1,1,0,0,0-1-.59,2.12,2.12,0,0,0-.62.08,1.52,1.52,0,0,0-.76.51,1.48,1.48,0,0,0-.34.64,4,4,0,0,0-.08.95v3.29H318.2Z"/><path class="cls-3" d="M328.38,503.69a3.1,3.1,0,0,1,.61.6v-.79h1v5.71a4.12,4.12,0,0,1-.35,1.88,2.51,2.51,0,0,1-2.48,1.28,3.05,3.05,0,0,1-1.7-.45,1.79,1.79,0,0,1-.78-1.42h1.08a1.2,1.2,0,0,0,.3.65,1.58,1.58,0,0,0,1.13.35,1.55,1.55,0,0,0,1.58-.86,4.76,4.76,0,0,0,.21-1.8,2.08,2.08,0,0,1-.76.72,2.75,2.75,0,0,1-3-.49,3.17,3.17,0,0,1-.77-2.39,3.64,3.64,0,0,1,.77-2.46,2.41,2.41,0,0,1,1.86-.89A2.32,2.32,0,0,1,328.38,503.69Zm.13,1.14a1.62,1.62,0,0,0-2.75.48,4.13,4.13,0,0,0-.22,1.45,2.58,2.58,0,0,0,.44,1.62,1.37,1.37,0,0,0,1.15.55,1.62,1.62,0,0,0,1.6-1,3.37,3.37,0,0,0,.26-1.36A2.6,2.6,0,0,0,328.51,504.83Z"/><path class="cls-3" d="M336.13,504.07a3.15,3.15,0,0,1,.84,2.38,4.11,4.11,0,0,1-.74,2.51,2.66,2.66,0,0,1-2.29,1,2.62,2.62,0,0,1-2.06-.88,3.49,3.49,0,0,1-.76-2.35,3.7,3.7,0,0,1,.81-2.52,2.66,2.66,0,0,1,2.15-.94A2.84,2.84,0,0,1,336.13,504.07Zm-.65,4.17a3.92,3.92,0,0,0,.39-1.76,3.11,3.11,0,0,0-.28-1.43,1.59,1.59,0,0,0-1.54-.87,1.51,1.51,0,0,0-1.4.74,3.34,3.34,0,0,0-.44,1.78,2.93,2.93,0,0,0,.44,1.67A1.52,1.52,0,0,0,334,509,1.46,1.46,0,0,0,335.48,508.24Z"/><path class="cls-3" d="M338.25,501.11h1.06v8.61h-1.06Z"/><path class="cls-3" d="M340.89,501.11H342v1.2h-1.07Zm0,2.36H342v6.25h-1.07Z"/><path class="cls-3" d="M346.92,505.92a.62.62,0,0,0,.49-.31,1,1,0,0,0,.07-.4.87.87,0,0,0-.39-.79,2.06,2.06,0,0,0-1.1-.24,1.39,1.39,0,0,0-1.17.45,1.42,1.42,0,0,0-.25.73h-1a1.83,1.83,0,0,1,.75-1.62,3.1,3.1,0,0,1,1.68-.45,3.43,3.43,0,0,1,1.8.42,1.44,1.44,0,0,1,.68,1.31v3.62a.4.4,0,0,0,.07.26c0,.07.14.1.28.1H349l.19,0v.78l-.38.08a1.68,1.68,0,0,1-.35,0,.89.89,0,0,1-.79-.38,1.73,1.73,0,0,1-.18-.58,2.63,2.63,0,0,1-.93.73,2.8,2.8,0,0,1-1.33.31,2,2,0,0,1-1.42-.53,1.78,1.78,0,0,1-.56-1.33,1.72,1.72,0,0,1,.55-1.35,2.55,2.55,0,0,1,1.43-.59Zm-2.22,2.85a1.27,1.27,0,0,0,.79.26,2.32,2.32,0,0,0,1.08-.26,1.45,1.45,0,0,0,.88-1.4v-.85a1.79,1.79,0,0,1-.5.21l-.6.12-.64.08a2.41,2.41,0,0,0-.86.24.94.94,0,0,0-.48.88A.88.88,0,0,0,344.7,508.77Z"/><path class="cls-3" d="M353.56,501.11h1.08v1.2h-1.08Zm0,2.36h1.08v6.25h-1.08Z"/><path class="cls-3" d="M356.23,503.44h1v.89a2.86,2.86,0,0,1,.95-.79,2.5,2.5,0,0,1,1.1-.24,1.83,1.83,0,0,1,1.81.93,3.35,3.35,0,0,1,.26,1.46v4h-1.08v-4a2,2,0,0,0-.17-.92,1,1,0,0,0-1-.59,2,2,0,0,0-.61.08,1.52,1.52,0,0,0-.76.51,1.63,1.63,0,0,0-.35.64,4.71,4.71,0,0,0-.07.95v3.29h-1.06Z"/><path class="cls-3" d="M363.12,501.69h1.06v1.75h1v.86h-1v4.1a.46.46,0,0,0,.22.44,1,1,0,0,0,.41.06h.37v.83a2.2,2.2,0,0,1-.37.07,3,3,0,0,1-.43,0,1.14,1.14,0,0,1-1-.38,1.64,1.64,0,0,1-.26-1V504.3h-.85v-.86h.85Z"/><path class="cls-3" d="M370.15,503.62a2.3,2.3,0,0,1,1,.81,2.75,2.75,0,0,1,.42,1.1,6.6,6.6,0,0,1,.1,1.39H367a2.72,2.72,0,0,0,.45,1.53,1.53,1.53,0,0,0,1.31.58,1.68,1.68,0,0,0,1.31-.55,1.8,1.8,0,0,0,.4-.73h1a2.3,2.3,0,0,1-.27.77,3,3,0,0,1-.52.69,2.42,2.42,0,0,1-1.19.64,3.79,3.79,0,0,1-.86.09,2.64,2.64,0,0,1-2-.85,3.34,3.34,0,0,1-.81-2.39,3.56,3.56,0,0,1,.82-2.45,2.69,2.69,0,0,1,2.14-.95A2.87,2.87,0,0,1,370.15,503.62Zm.38,2.46a2.66,2.66,0,0,0-.3-1.1,1.53,1.53,0,0,0-1.44-.76,1.6,1.6,0,0,0-1.22.53,2,2,0,0,0-.52,1.33Z"/><path class="cls-3" d="M372.94,503.44h1v1.09a2.54,2.54,0,0,1,.61-.77,1.54,1.54,0,0,1,1.1-.46h.1l.24,0v1.11l-.17,0h-.17a1.53,1.53,0,0,0-1.23.51,1.8,1.8,0,0,0-.42,1.18v3.61h-1.06Z"/><path class="cls-3" d="M376.91,501.11H378v1.2h-1.07Zm0,2.36H378v6.25h-1.07Z"/><path class="cls-3" d="M384.16,504.07a3.19,3.19,0,0,1,.83,2.38,4.1,4.1,0,0,1-.73,2.51,2.69,2.69,0,0,1-2.3,1,2.6,2.6,0,0,1-2-.88,3.44,3.44,0,0,1-.76-2.35,3.7,3.7,0,0,1,.8-2.52,2.67,2.67,0,0,1,2.16-.94A2.85,2.85,0,0,1,384.16,504.07Zm-.66,4.17a3.92,3.92,0,0,0,.39-1.76,3.11,3.11,0,0,0-.28-1.43,1.58,1.58,0,0,0-1.53-.87,1.52,1.52,0,0,0-1.41.74,3.43,3.43,0,0,0-.44,1.78,3,3,0,0,0,.44,1.67,1.54,1.54,0,0,0,1.39.67A1.46,1.46,0,0,0,383.5,508.24Z"/><path class="cls-3" d="M386.28,503.44h1v1.09a2.33,2.33,0,0,1,.6-.77,1.54,1.54,0,0,1,1.11-.46h.1l.24,0v1.11l-.17,0H389a1.49,1.49,0,0,0-1.22.51,1.75,1.75,0,0,0-.43,1.18v3.61h-1.05Z"/><path class="cls-3" d="M389.81,510.94a.72.72,0,0,0,.57-.57,1.52,1.52,0,0,0,.09-.51.17.17,0,0,0,0-.07.2.2,0,0,0,0-.07h-.64v-1.28h1.25v1.18a2.54,2.54,0,0,1-.28,1.23,1.26,1.26,0,0,1-1,.65Z"/><path class="cls-3" d="M271.87,520.31a.56.56,0,0,0,.48-.3.87.87,0,0,0,.07-.4.89.89,0,0,0-.38-.79,2.09,2.09,0,0,0-1.1-.24,1.39,1.39,0,0,0-1.17.45,1.33,1.33,0,0,0-.25.73h-1a1.83,1.83,0,0,1,.75-1.62,3.15,3.15,0,0,1,1.68-.45,3.43,3.43,0,0,1,1.8.42,1.43,1.43,0,0,1,.69,1.31V523a.48.48,0,0,0,.06.26c.05.07.14.1.29.1H274l.18,0v.78l-.37.08a1.73,1.73,0,0,1-.35,0,.87.87,0,0,1-.79-.38,1.37,1.37,0,0,1-.18-.58,2.82,2.82,0,0,1-.93.73,3,3,0,0,1-1.33.31,2,2,0,0,1-1.43-.53,1.77,1.77,0,0,1-.55-1.33,1.71,1.71,0,0,1,.54-1.35,2.58,2.58,0,0,1,1.43-.59Zm-2.23,2.86a1.3,1.3,0,0,0,.8.26,2.25,2.25,0,0,0,1.07-.26,1.44,1.44,0,0,0,.88-1.4v-.85a1.67,1.67,0,0,1-.5.21l-.59.12-.64.08a2.41,2.41,0,0,0-.86.24.92.92,0,0,0-.49.88A.88.88,0,0,0,269.64,523.17Z"/><path class="cls-3" d="M275.21,515.51h1.05v8.61h-1.05Z"/><path class="cls-3" d="M281.18,517.84h1v.89a2.83,2.83,0,0,1,.94-.79,2.51,2.51,0,0,1,1.11-.24,1.82,1.82,0,0,1,1.8.93,3.21,3.21,0,0,1,.26,1.46v4h-1.07v-4a2.16,2.16,0,0,0-.17-.92,1,1,0,0,0-1-.59,2.12,2.12,0,0,0-.62.08,1.52,1.52,0,0,0-.76.51,1.6,1.6,0,0,0-.34.64,4.52,4.52,0,0,0-.08,1v3.29h-1.05Z"/><path class="cls-3" d="M292.43,518.47a3.15,3.15,0,0,1,.84,2.38,4.11,4.11,0,0,1-.74,2.51,2.66,2.66,0,0,1-2.29,1,2.62,2.62,0,0,1-2.06-.88,3.49,3.49,0,0,1-.76-2.35,3.75,3.75,0,0,1,.8-2.52,2.7,2.7,0,0,1,2.16-.94A2.84,2.84,0,0,1,292.43,518.47Zm-.65,4.17a3.92,3.92,0,0,0,.39-1.76,3.22,3.22,0,0,0-.28-1.43,1.59,1.59,0,0,0-1.54-.87,1.51,1.51,0,0,0-1.4.74,3.34,3.34,0,0,0-.44,1.78,2.93,2.93,0,0,0,.44,1.67,1.55,1.55,0,0,0,1.39.67A1.46,1.46,0,0,0,291.78,522.64Z"/><path class="cls-3" d="M294.55,517.84h1v1.09a2.43,2.43,0,0,1,.61-.77,1.54,1.54,0,0,1,1.11-.46h.1l.24,0v1.11l-.18,0h-.17a1.5,1.5,0,0,0-1.22.52,1.75,1.75,0,0,0-.43,1.18v3.61h-1.06Z"/><path class="cls-3" d="M298.73,516.09h1.07v1.75h1v.86h-1v4.1a.44.44,0,0,0,.22.44,1,1,0,0,0,.41.06h.37v.83a2.32,2.32,0,0,1-.38.07,2.77,2.77,0,0,1-.42,0,1.16,1.16,0,0,1-1-.38,1.72,1.72,0,0,1-.26-1V518.7h-.85v-.86h.85Z"/><path class="cls-3" d="M305.76,518a2.36,2.36,0,0,1,1,.82,2.75,2.75,0,0,1,.42,1.1,7.59,7.59,0,0,1,.09,1.39h-4.6a2.72,2.72,0,0,0,.45,1.53,1.54,1.54,0,0,0,1.31.58,1.71,1.71,0,0,0,1.32-.55,1.8,1.8,0,0,0,.4-.73h1a1.93,1.93,0,0,1-.27.77,2.71,2.71,0,0,1-.52.69,2.38,2.38,0,0,1-1.19.64,3.72,3.72,0,0,1-.86.09,2.62,2.62,0,0,1-2-.85,3.3,3.3,0,0,1-.82-2.39,3.65,3.65,0,0,1,.82-2.46,2.74,2.74,0,0,1,2.15-.94A3,3,0,0,1,305.76,518Zm.39,2.47a2.66,2.66,0,0,0-.3-1.1,1.55,1.55,0,0,0-1.45-.76,1.62,1.62,0,0,0-1.22.53,2,2,0,0,0-.52,1.33Z"/><path class="cls-3" d="M315.32,518a2.69,2.69,0,0,1,.64.61v-3.17h1v8.64h-1v-.88a2.26,2.26,0,0,1-.88.84,2.5,2.5,0,0,1-1.15.26,2.35,2.35,0,0,1-1.82-.88,3.46,3.46,0,0,1-.76-2.35,4,4,0,0,1,.7-2.37,2.28,2.28,0,0,1,2-1A2.14,2.14,0,0,1,315.32,518Zm-2.36,4.7a1.5,1.5,0,0,0,1.37.68,1.43,1.43,0,0,0,1.2-.63A2.94,2.94,0,0,0,316,521a2.7,2.7,0,0,0-.48-1.76,1.53,1.53,0,0,0-1.2-.57,1.59,1.59,0,0,0-1.3.61,2.79,2.79,0,0,0-.49,1.79A3.08,3.08,0,0,0,313,522.74Z"/><path class="cls-3" d="M322.44,518a2.36,2.36,0,0,1,1,.82,2.75,2.75,0,0,1,.42,1.1,7.59,7.59,0,0,1,.09,1.39h-4.6a2.65,2.65,0,0,0,.46,1.53,1.51,1.51,0,0,0,1.3.58,1.71,1.71,0,0,0,1.32-.55,1.8,1.8,0,0,0,.4-.73h1a2.13,2.13,0,0,1-.28.77,2.69,2.69,0,0,1-.51.69,2.47,2.47,0,0,1-1.19.64,3.88,3.88,0,0,1-.87.09,2.62,2.62,0,0,1-2-.85,3.35,3.35,0,0,1-.82-2.39,3.65,3.65,0,0,1,.82-2.46,2.75,2.75,0,0,1,2.15-.94A3,3,0,0,1,322.44,518Zm.39,2.47a2.66,2.66,0,0,0-.3-1.1,1.55,1.55,0,0,0-1.45-.76,1.58,1.58,0,0,0-1.21.53,2,2,0,0,0-.53,1.33Z"/><path class="cls-3" d="M334.85,516.14a3,3,0,0,1,1,2h-1.14a2.32,2.32,0,0,0-.77-1.31,2.39,2.39,0,0,0-1.62-.49,2.6,2.6,0,0,0-2.05.89,4.09,4.09,0,0,0-.78,2.74,4,4,0,0,0,.7,2.45,2.47,2.47,0,0,0,2.11.94,2.22,2.22,0,0,0,2-1,3.53,3.53,0,0,0,.53-1.37h1.14a3.86,3.86,0,0,1-1,2.28,3.56,3.56,0,0,1-2.76,1.11,3.63,3.63,0,0,1-2.52-.91,5.6,5.6,0,0,1-.34-6.83,3.7,3.7,0,0,1,3-1.32A3.51,3.51,0,0,1,334.85,516.14Z"/><path class="cls-3" d="M337.21,515.48h1.05v3.21a3.23,3.23,0,0,1,.68-.67,2.28,2.28,0,0,1,1.27-.33,1.88,1.88,0,0,1,1.85.95,3.22,3.22,0,0,1,.26,1.45v4h-1.08v-4a2.14,2.14,0,0,0-.18-1,1.11,1.11,0,0,0-1.07-.52,1.79,1.79,0,0,0-1.19.45,2.16,2.16,0,0,0-.54,1.71v3.33h-1.05Z"/><path class="cls-3" d="M343.88,515.51H345v1.2h-1.08Zm0,2.36H345v6.25h-1.08Z"/><path class="cls-3" d="M346.55,517.84h1v.89a2.94,2.94,0,0,1,.94-.79,2.57,2.57,0,0,1,1.11-.24,1.84,1.84,0,0,1,1.81.93,3.36,3.36,0,0,1,.25,1.46v4h-1.07v-4a2,2,0,0,0-.17-.92,1,1,0,0,0-1-.59,2,2,0,0,0-.61.08,1.47,1.47,0,0,0-.76.51,1.63,1.63,0,0,0-.35.64,4.52,4.52,0,0,0-.08,1v3.29h-1.05Z"/><path class="cls-3" d="M356.59,520.31a.56.56,0,0,0,.48-.3.87.87,0,0,0,.07-.4.89.89,0,0,0-.38-.79,2.09,2.09,0,0,0-1.1-.24,1.39,1.39,0,0,0-1.17.45,1.42,1.42,0,0,0-.25.73h-1a1.83,1.83,0,0,1,.75-1.62,3.15,3.15,0,0,1,1.68-.45,3.43,3.43,0,0,1,1.8.42,1.43,1.43,0,0,1,.69,1.31V523a.4.4,0,0,0,.07.26c0,.07.14.1.28.1h.16l.19,0v.78l-.38.08a1.73,1.73,0,0,1-.35,0,.88.88,0,0,1-.79-.38,1.37,1.37,0,0,1-.18-.58,2.82,2.82,0,0,1-.93.73,3,3,0,0,1-1.33.31,2,2,0,0,1-1.43-.53,1.77,1.77,0,0,1-.55-1.33,1.71,1.71,0,0,1,.54-1.35,2.58,2.58,0,0,1,1.43-.59Zm-2.22,2.86a1.25,1.25,0,0,0,.79.26,2.25,2.25,0,0,0,1.07-.26,1.44,1.44,0,0,0,.88-1.4v-.85a1.72,1.72,0,0,1-.49.21l-.6.12-.64.08a2.41,2.41,0,0,0-.86.24.92.92,0,0,0-.49.88A.86.86,0,0,0,354.37,523.17Z"/></svg>