<?xml version="1.0" encoding="utf-8"?>
<!-- Generator: Adobe Illustrator 24.3.0, SVG Export Plug-In . SVG Version: 6.00 Build 0)  -->
<svg version="1.1" id="Layer_1" xmlns="http://www.w3.org/2000/svg" xmlns:xlink="http://www.w3.org/1999/xlink" x="0px" y="0px"
	 viewBox="0 0 424.9 586.3" style="enable-background:new 0 0 424.9 586.3;" xml:space="preserve">
<style type="text/css">
	.st0{fill:none;stroke:#FFFFFF;stroke-miterlimit:10;}
	.st1{fill:#020202;stroke:#FFFFFF;stroke-miterlimit:10;}
	.st2{fill:none;stroke:#FEFEFE;stroke-miterlimit:10;}
	.st3{fill:#FFFFFF;stroke:#000000;stroke-miterlimit:10;}
	.st4{fill:none;stroke:#DA5027;stroke-miterlimit:10;}
	.st5{fill:#BD9660;}
	.st6{fill:#B74226;}
	.st7{stroke:#FFFFFF;stroke-miterlimit:10;}
	.st8{fill:#FFFFFF;}
	.st9{font-family:'Consolas';}
	.st10{font-size:12px;}
	.st11{fill:none;stroke:#BD9660;stroke-miterlimit:10;}
	.st12{font-family:'MyriadPro-Regular';}
	.st13{font-size:18px;}
	.st14{fill:none;stroke:#B74226;stroke-miterlimit:10;}
	.st15{font-family:'Helvetica';}
	.st16{font-size:20px;}
	.st17{fill:none;}
	.st18{font-family:'Helvetica-Bold';}
</style>
<rect x="0.5" y="0.5" width="425" height="586"/>
<line class="st0" x1="95.8" y1="82.1" x2="95" y2="224"/>
<path class="st0" d="M95,217.2C4.8,182.3,44.8,104,44.8,104"/>
<path class="st0" d="M95.9,217.1c90.5-35.3,50.3-114.3,50.3-114.3"/>
<path class="st0" d="M74.2,84.5c0,0-20,30.7-11.7,71.3c0,0,10.1,43,32.4,61.2"/>
<path class="st0" d="M113.5,82c0,0,28.8,28.7,12,85.2c0,0-9.6,41.1-31,50.3"/>
<path class="st0" d="M42,107.1c0,0,56.8-25,111.4,3.7"/>
<path class="st0" d="M26,145.5c0,0-1.1-13,69.7-18.5c0,0,47.2-5,70.8,24"/>
<path class="st0" d="M33,185.9c0,0,12.4-25.3,63.6-22.3c0,0,47.6-4.4,63.4,24.4"/>
<path class="st0" d="M62.1,214.3c0,0-12.5-12.4,16.5-17.5c0,0,29.3-1.9,35.7,2.4c0,0,27.6,7.9,11.4,19.2"/>
<path class="st1" d="M107.4,157.8c-1.6-1.6-2.4-1.2-4.5-1.7c-1.6-0.4-3-1.6-4.7-1.8c-1-0.1-1.6,0.2-2.4,0c-0.8-0.2-0.7-0.7-1.6-0.7
	c-1.3,0-3.1,2.7-4.2,1c-0.6-1,1.3-3.6,1.2-4.9c-0.1-1.6-0.7-4.2-2.3-5.1c-0.6-0.3-1.9-0.4-2.6-0.7c-0.9-0.3-1.7-0.9-2.5-1.3
	c-1-0.6-2.9-1.7-3.4-2.9c-1.2,0-2.1-0.7-3.3-0.7c-1.1,0-1.9,0.5-3.1,0.4c-1.1-0.1-2.2-1-3.3-0.8c-0.8,0.1-1.9,1.1-2.6,1.5
	c-1.7,1-3.6,1.7-5.5,2c-3,0.6-3.5-0.6-3.3-3.3l-0.4-0.9c1.1-3.1-0.9-3.3-3.1-4c-0.3-2.2,2.4-3.7,1.3-6.1c-2.3-0.1-4.8,6.3-6.7,3.5
	c-1.3-1.8,0.7-6.9,1.8-8.5c1.1-1.6,5.2-4.4,7.2-4.6c1.5-0.2,2.8,0.5,3.4,1.8c0.6,1.4-0.2,2.8,0,4.4c1.9-0.4,1.4-2.9,1.3-4.2
	c-0.1-2.2,1-2,2.1-3.6c1-1.4,1.2-3.1,2.4-4.5c1-1.1,2.2-2.2,3.2-3.2c1.2-1.1,2.6-1,3.9-1.9c1.9-1.3-0.6-3.6,2.2-3.5
	c1,0.1,0.5,0.7,1.9,0.4c0.6-0.1,1.6-0.7,2.2-0.9c2.7-1.1,0.8-1.4-0.5-2.8c-1.6-1.8,0.7-1.5,2.3-1.8c1.2-0.2,0.9-0.6,2,0.1
	c0.9,0.6,0.4,1.4,1.7,1.4c2.6-0.1,0.8-2.7,0.2-3.5c-1-1.5-1.2-2.5-3.3-2.5c0.2-0.7,0.2-1.5-0.1-2.2c-1.7,0.2-2-1-3.4-1.5
	c-2.2-0.8-1.9,1-2.8,2.2c-0.9,1.3-2.7,1.1-3.4,2.6c-0.7,1.6,0,2.9-2.6,2.4c0.4-1,0.2-2.2,0.2-3.3c-0.8-0.1-1.5-0.3-2.2-0.5
	c0-2.6,2.9-2.8,4.9-3.1c2.2-0.3,2.9-2.5,4.9-2.9c1.8-0.4,3.2,2.6,5.4,0.9c1.3-1,0.7-1.6,0.2-2.5c-0.1-0.2-0.7-0.8-0.9-1
	c-1.5-0.5-2.5-1.7-2.9-3.1c-12.2,2.8-23.2,8.6-32.2,16.6c0,0,0,0.1,0,0.1c0.6,1.3,0.8,2.5,0.5,3.9c0,0.2-0.1,0.3-0.1,0.4
	c0,0,0.1-0.1,0.1-0.1c-0.2,0.7-0.5,1.5-0.9,2.1c-1,1.5-2.7,2.1-3.8,3.6c-1,1.3-1.8,3.3-2.1,4.7c-0.4,1.6-0.2,3.5-0.7,5.1
	c-0.7,2-2,3.2-1.8,5.5c2.8,0.8,1.6-4.1,3.9-4.4c0.7,1.8,0.3,5.3,0,7.3c-0.3,2.8-0.8,3.5,0.8,5.8c1.3,1.9,1.8,3.1,4.3,3.4
	c2.3,0.3,3.3,1.3,4.3,3.6c1.8,0.4,2.9,0.7,3.1,2.7c0.8,0.4,2.2,1.8,3.1,2c1.2,0.3,3.2-1.4,4.3-0.1c1.9,2.2-2.4,7.9-3.1,9.8
	c-1.1,2.9-1.3,7.1,1.5,9.2c1.4,1.1,2.9,1.6,3.4,3.5c0.4,1.8,0.1,3.3,0.9,4.9c1.2,2.6,4.1,3.5,6.1,5.5c2.6,2.6,2.5,6,2.5,9.8
	c0,3.9,1.5,6.9,2,10.4c0.5,3.7,1.6,7.1,2.4,10.6c0.6,2.7,2.9,6.7,6.3,6.2c0.2-1.3-1.1-2.3-1.3-3.5c-0.2-1.1,0.2-2.3-0.1-3.6
	c-0.5-2.4-0.4-3.8,1.2-5.9c0.6-0.7,1.4-1.4,1.9-2.1c1.1-1.4,0.3-1,0.2-2.6c-0.1-2,0.5-1,1.7-1.6c0.6-0.3,1.3-1.3,1.8-1.8
	c1-1.1,2.7-2.4,3.5-3.7c0.9-1.4,0.8-3.5,1.7-4.9c1.1-1.7,2.6-1.7,4.1-2.8c1.9-1.4,1.1-3,1.5-4.9c0.6-3.3,2.1-7,4.2-9.6
	C109.5,163.8,110.6,161,107.4,157.8z"/>
<path class="st1" d="M163.7,171.8c0.1-0.2,0.2-0.4,0.3-0.6c0,0.1-0.1,0.2-0.1,0.3c0.1-0.2,0.3-0.3,0.4-0.5c0.6-0.6,1.4-1,2.2-1.3
	c0.4-0.1,0.9-0.1,1.3-0.2c0.1,0,0.1,0,0.2,0c1.4-5.5,2.1-11.3,2.1-17.3c0-33.5-22.9-61.6-54-69.7c0.7,1.2,0.9,2.6,0.5,3.9
	c0.4,0.5,0.7,0.9,1.1,1.5c0.9,1.3,1.5,2.5,3.2,3c1,0.3,4.1,0.3,2.8,2.5c-1.2,2.1-2.5-0.6-3.1-1.3c-0.8-0.9-3.3-1.9-3.2,0.2
	c0.1,3.1,7,2.6,5.6,5.9c0.8,0.5,2.5,1.3,2.2,2.5c-0.3,1.5-2.3,0.5-2.2,2.4c0.1,2.7,3,4.9,5.8,3.9c2.9-1,0.7-5.1,4.1-5.5
	c1.3-0.2,2.1,0.2,3.3,1.2c1,0.8,1.6,2.5,2.9,2.4c0.1-0.8-0.5-1.4-0.6-2.2c1,0.3,3.1,1.5,3.7,2.4c0.9,1.3,0.8,3.3,3,1.6
	c-0.3-0.3-0.5-0.9-0.7-1.1c2.8,0,4.7,1.2,5.9,3.6c2.7,5.4-3.9,1.1-4.2,3.9c-1.6-0.5-2.3-1.8-3.7-2.6c-0.7-0.4-1.9-0.2-2.4-0.5
	c-0.7-0.5-0.5-1.4-1.1-2c-2.4-2-8,1.2-10.2,2.5c-0.6,0.3-1.3,0.4-1.7,1c-0.7,1.1,0.3,1.4,0.1,2.5c-0.3,1.5-2.3,2.2-2.9,3.4
	c-1.4,2.9,1.5,7,1.1,10.2c-0.2,1.8-2.1,3.7-1.4,5.2c0.3,0.6,1.4,1.2,1.8,1.9c0.4,0.7,0.5,1.6,1.1,2.3c1.6,2.3,4,4.8,5.9,7
	c1.1,1.2,2.6,1.6,4.2,1.2c1.4-0.3,3.4-0.7,4.7-1.3c1.7-0.8,1.9-1.9,3.7-1.2c1.4,0.6,2.6,2.4,4.3,0.9c1.4,1.3-0.1,3.6-0.4,5.1
	c-0.4,1.9,0.4,3.5,1.5,5.1c1.4,1.9,1.7,2.3,1.4,4.8c-0.2,2-0.7,3.8-1.2,5.8c-0.4,1.9-1.6,3.3-1.6,5.3c0.1,1.9,0.9,3.3,0.6,5.3
	c-0.2,1.7-0.3,3.8-0.8,5.5c-0.5,1.8-1.7,3.3-2.2,5.1c-0.5,1.7-0.4,3.9,0.8,5.3c1.2,1.5,2.5,0.6,4-0.5c2.9-2.2,4.2-5.9,6.1-8.8
	c1.9-2.9,3.8-5.5,5.1-8.5C163,172.9,163.3,172.3,163.7,171.8z"/>
<ellipse class="st2" cx="97.8" cy="152.2" rx="72.2" ry="71.8"/>
<g>
	<path class="st2" d="M89.5,84.2c0.1,0,1.4,2.1,1.8,2.8c0.3,0.5,0.8,0.8,1.1,1.4c0.3,0.6-0.4,1.4,0.4,1.8c1.2,0.6,4.7-3.6,5.6-4.2
		c1.1-0.9,1.7-1.3,1.5-2.2c0.1,0,0.2,0,0.3,0c-0.1-0.6,0-1.2,0.1-1.8c0.1-0.6,0.4-1.2,0.8-1.7c-1.1,0-2.2-0.1-3.3-0.1
		c-2.2,0-4.5,0.1-6.7,0.3C91.1,82,90.6,83.3,89.5,84.2z"/>
	<polygon class="st2" points="88,81 91.7,80.5 94,84 89.5,84.2 	"/>
</g>
<path class="st0" d="M33,183c0,0,24.2,36.8,62,33.2"/>
<path class="st0" d="M165,166.8c0,0-21.6,55.8-71,49.8"/>
<path class="st0" d="M95,216c-2.4,4-27,1.6-27,1.6"/>
<path class="st0" d="M138,211c0,0-36.1,14.6-43.1,4.8"/>
<ellipse class="st3" cx="371" cy="210.5" rx="19" ry="19.5"/>
<path class="st4" d="M256.1,124.6"/>
<g>
	<path class="st5" d="M371,210.5c0.9,2.1,2,4.1,3.5,5.8c1.4,1.7,3.3,3.1,5.5,3.8c2.1,0.7,4.5,0.5,6.6-0.1c2.1-0.6,4.2-1.7,5.9-3l0,0
		c1.6-2,2.8-4.3,3.5-6.7c0.7-2.4,0.8-5,0.6-7.5c-0.3-2.5-0.9-5-1.8-7.4c-0.5-1.2-1-2.3-1.6-3.5c-0.3-0.6-0.6-1.1-0.9-1.7l-0.5-0.8
		c-0.1-0.2-0.4-0.5-0.6-0.7c-3.2-3.9-7.4-7.1-12-9c-4.7-2-9.8-2.7-14.8-2.4c-2.5,0.1-5,0.5-7.5,1.1c-0.6,0.2-1.2,0.3-1.8,0.5
		l-1.8,0.7c-0.6,0.2-1.1,0.5-1.7,0.8c-0.6,0.3-1.1,0.5-1.7,0.9c-4.4,2.4-8.2,5.9-10.7,10.2c-2.5,4.3-3.7,9.3-4,14.3
		c-0.2,5,0.4,10.2,1.7,14.9l-0.1-0.1c2.4,4.9,5.6,9.4,9.6,13.1c2,1.8,4.2,3.4,6.6,4.7c2.4,1.2,4.9,2.2,7.5,2.8
		c5.2,1.3,10.8,1.2,16.1,0.3c5.3-0.9,10.6-2.7,15.4-5.2c4.7-2.4,8.3-6.7,10.5-11.5c1.1-2.4,1.9-5,2.3-7.6c0.4-2.6,0.4-5.3,0.2-8
		c-0.3-2.7-0.8-5.3-1.7-7.9c-0.8-2.6-2-5-3.4-7.3c-2.7-4.7-6.3-8.8-10.4-12.4c-4.1-3.6-8.7-6.6-13.6-9c-2.4-1.2-5-2.3-7.5-3.3
		c-2.6-1-5.2-1.9-7.8-2.8c-10.5-3.4-21.5-5.5-32.4-8c-10.9-2.5-21.7-5.2-32.6-7.5c-10.9-2.4-21.8-4.6-32.8-5.8
		c-11-1.3-22.1-1.8-33.2-1.7c-11.1,0.2-22.2,1-33.2,2.5c-5.5,0.7-11,1.6-16.5,2.6c-5.5,1-10.9,2.1-16.4,3.2
		c-10.9,2.3-21.7,4.9-32.5,7.6c-10.8,2.8-21.5,5.8-32.2,9c-5.3,1.6-10.7,3.2-16,4.9L67,178.2l-8,2.6c-2.6,0.9-5.3,1.8-7.9,2.7
		c-5.3,1.7-10.9,3.1-16.6,2.5c-2.8-0.3-5.6-1.2-8-2.5c-2.5-1.4-4.6-3.4-5.9-6c-1.3-2.5-1.5-5.5-1-8.2c0.6-2.7,2.2-5.3,4.7-6.6
		c-2.5,1.4-4,4-4.6,6.7c-0.5,2.7-0.2,5.6,1.1,8c1.3,2.5,3.4,4.4,5.8,5.7c2.4,1.3,5.1,2.1,7.9,2.3c5.5,0.5,11-0.9,16.2-2.7
		c2.6-0.9,5.2-1.9,7.9-2.8l7.9-2.7l15.9-5.4c5.3-1.7,10.6-3.4,16-5c10.7-3.3,21.4-6.4,32.2-9.3c10.8-2.9,21.6-5.6,32.6-8
		c10.9-2.4,21.9-4.7,33-6.2c11.1-1.6,22.3-2.4,33.5-2.6c11.2-0.2,22.4,0.3,33.6,1.6c11.2,1.2,22.2,3.4,33.1,5.8
		c10.9,2.4,21.8,5,32.7,7.4c10.8,2.5,21.8,4.7,32.6,8.2c2.7,0.9,5.3,1.8,8,2.9c2.6,1,5.2,2.2,7.8,3.5c5.1,2.6,9.9,5.7,14.2,9.5
		c4.3,3.8,8.1,8.2,10.9,13.2c1.4,2.5,2.7,5.1,3.6,7.9c0.9,2.7,1.5,5.6,1.8,8.5c0.3,2.9,0.2,5.8-0.2,8.7c-0.4,2.9-1.3,5.7-2.5,8.3
		c-1.2,2.7-2.9,5.1-4.8,7.3c-2,2.2-4.3,4-6.9,5.4c-5.1,2.6-10.6,4.4-16.2,5.4c-5.6,1-11.5,1-17.1-0.4c-2.8-0.7-5.5-1.8-8.1-3.1
		c-2.5-1.4-4.8-3.2-7-5.1c-4.2-4-7.4-8.8-9.9-13.9l0-0.1l0-0.1c-1.4-5.1-2-10.4-1.7-15.7c0.3-5.2,1.6-10.5,4.4-15.1
		c2.7-4.6,6.8-8.3,11.4-10.8c0.6-0.3,1.2-0.6,1.8-0.9c0.6-0.3,1.2-0.6,1.8-0.8l1.8-0.7c0.7-0.3,1.3-0.4,1.9-0.6
		c2.6-0.6,5.2-0.9,7.8-1c5.2-0.2,10.6,0.7,15.4,2.8c4.8,2.1,9.1,5.4,12.3,9.5c0.2,0.3,0.4,0.5,0.6,0.8c0.2,0.3,0.3,0.6,0.5,0.8
		c0.3,0.6,0.6,1.1,0.9,1.7c0.6,1.2,1.1,2.4,1.5,3.6c0.9,2.4,1.5,5,1.8,7.6c0.2,2.6,0,5.3-0.7,7.8c-0.7,2.5-2,4.8-3.7,6.9l0,0l0,0
		c-1.9,1.4-3.9,2.4-6.2,3c-2.2,0.6-4.6,0.7-6.8,0c-2.2-0.7-4.1-2.2-5.5-3.9C372.9,214.6,371.9,212.6,371,210.5z"/>
</g>
<g>
	<path class="st6" d="M29.9,119.3c-4.1,1.2-7.9,3.2-11.4,5.6c-3.4,2.4-6.5,5.4-8.9,8.9c-2.4,3.4-4,7.3-4.6,11.4
		c-0.6,4,0,8.2,1.6,11.9l0-0.1c2,3.8,5,7.1,8.5,9.6c3.5,2.6,7.5,4.5,11.6,5.8c2.1,0.6,4.2,1.1,6.3,1.5c2.2,0.3,4.4,0.6,6.7,0.9
		c4.5,0.6,8.9,0.9,13.4,1.3c8.9,0.6,17.9,0.8,26.8,0c8.9-0.7,17.7-2.2,26.3-4.6c2.2-0.6,4.3-1.4,6.4-2l6.6-1.9
		c4.4-1.2,8.7-2.4,13-3.7c8.6-2.6,17-5.7,24.8-10c3.8-2.2,7.5-4.7,10.8-7.6c0.4-0.3,0.8-0.7,1.2-1.1l1.2-1.2
		c0.8-0.8,1.6-1.5,2.3-2.4l2.2-2.5c0.7-0.9,1.3-1.8,1.9-2.7l1-1.4c0.3-0.5,0.5-0.9,0.8-1.4c0.5-1,1-2,1.3-3c0.8-2,1.3-4.2,1.5-6.3
		c0.1-2.1-0.1-4.3-1-6.3c-0.8-2-2.2-3.7-4-5.1l0,0c-2.4-1.5-5-2.8-7.8-3c-1.4-0.1-2.8,0.1-4.1,0.8c-1.3,0.6-2.3,1.6-3.3,2.7
		c0.8-1.2,1.8-2.2,3.1-3c1.3-0.8,2.8-1.1,4.2-1.1c1.5,0,2.9,0.4,4.3,0.9c1.4,0.5,2.7,1.2,4,1.9l0,0l0,0c1.9,1.4,3.5,3.2,4.6,5.3
		c1,2.2,1.5,4.6,1.4,6.9c0,2.4-0.5,4.7-1.3,6.9c-0.4,1.1-0.8,2.2-1.3,3.3c-0.3,0.5-0.5,1.1-0.8,1.6l-0.9,1.5c-0.6,1-1.3,2-1.9,2.9
		l-2.2,2.7c-0.7,0.9-1.5,1.8-2.3,2.6c-0.8,0.8-1.6,1.7-2.4,2.5c-3.4,3.2-7.2,5.8-11.1,8.3c-4,2.3-8.1,4.4-12.3,6.1
		c-4.2,1.7-8.5,3.3-12.9,4.7c-4.3,1.4-8.7,2.7-13,3.9l-6.5,1.9c-2.2,0.6-4.3,1.4-6.5,2c-2.2,0.6-4.4,1.3-6.7,1.7
		c-2.2,0.6-4.5,1-6.7,1.4c-4.5,0.8-9.1,1.3-13.7,1.6c-9.1,0.7-18.3,0.5-27.4-0.2c-4.5-0.4-9.1-0.9-13.6-1.5c-2.3-0.3-4.5-0.6-6.8-1
		c-2.3-0.4-4.6-1-6.8-1.8c-4.4-1.5-8.7-3.7-12.4-6.6c-3.7-2.9-6.9-6.6-9-10.8l0-0.1l0,0c-1.6-4.2-2.1-8.8-1.3-13.2
		c0.8-4.4,2.9-8.4,5.5-11.9c2.7-3.5,5.9-6.4,9.6-8.7C21.7,121.9,25.8,120.2,29.9,119.3z"/>
</g>
<g>
	<path class="st6" d="M371.3,210.7c-2.4-2.4-3.8-5.8-4.1-9.2c-0.3-3.5,0.4-7,1.9-10.1l0,0l0,0c0.7-1.2,1.6-2.3,2.6-3.3
		c1-1,2.2-1.8,3.6-2.3c2.6-1.1,5.6-1.3,8.4-0.9l0,0l0.1,0c4,1,7.7,2.8,11.1,5.1c3.4,2.3,6.3,5.2,8.8,8.5c2.4,3.3,4.3,7.1,5.2,11.2
		c0.9,4.1,0.6,8.6-0.9,12.5l0-0.1c-1.3,4.2-3.4,8.2-6,11.7c-2.7,3.5-5.9,6.5-9.4,9.1c-7.1,5.1-15.2,8.5-23.6,10.6l-0.1,0l-0.1,0
		c-6.2,0.7-12.4,0.5-18.6-0.7c-3.1-0.6-6.1-1.4-9-2.6l-4.2-1.8l-4.2-1.8c-11.1-5-21.7-10.7-32.2-16.8c-5.2-3-10.4-6.1-15.5-9.3
		l-15.4-9.5c-1.3-0.8-2.6-1.5-3.9-2.4l-3.8-2.6l-7.4-5.2c-4.9-3.4-9.8-6.8-14.9-10l-0.1,0l0,0c-5-3.7-10-7.4-15-11.1l-14.8-11.3
		L195.1,157c-4.9-3.8-9.9-7.5-14.8-11.2l0,0c-2-1-4-2.1-6.1-3.1c-2-1-4.1-1.9-6.3-2.7c4.4,1.3,8.5,3.2,12.6,5.2l0,0l0,0
		c5.1,3.5,10.2,7.1,15.3,10.6c5.1,3.6,10.1,7.2,15.2,10.8c10.1,7.3,20.1,14.5,30.3,21.6l-0.1-0.1c5.2,3.1,10.3,6.4,15.3,9.8l7.5,5.1
		l3.7,2.5c1.2,0.8,2.6,1.5,3.8,2.3c10.3,6.1,20.6,12.4,31,18.4c10.4,6,21,11.6,31.8,16.6l4.1,1.8l4.1,1.7c2.7,1.1,5.5,1.9,8.3,2.5
		c5.7,1.2,11.6,1.3,17.4,0.8l-0.2,0c8-1.8,15.8-5,22.4-9.7c3.3-2.4,6.3-5.1,8.9-8.3c2.5-3.2,4.5-6.8,5.7-10.6l0-0.1l0,0
		c1.4-3.4,1.7-7.2,1-10.9c-0.7-3.7-2.3-7.2-4.5-10.4c-2.2-3.1-4.9-5.9-8.1-8.2c-3.1-2.3-6.6-4.1-10.3-5.2l0.1,0
		c-2.6-0.5-5.2-0.4-7.6,0.5c-2.4,0.9-4.4,2.7-5.8,5l0,0c-1.5,2.9-2.3,6.3-2.2,9.7C367.9,204.7,369,208.1,371.3,210.7z"/>
</g>
<circle cx="177.5" cy="116.5" r="6.5"/>
<circle cx="19.5" cy="183.5" r="6.5"/>
<circle cx="229.5" cy="141.5" r="6.5"/>
<circle cx="337.5" cy="220.5" r="6.5"/>
<circle class="st7" cx="373.5" cy="208.5" r="9.5"/>
<circle cx="366.5" cy="253.5" r="6.5"/>
<circle cx="203.5" cy="159.5" r="6.5"/>
<circle cx="10.5" cy="161.5" r="6.5"/>
<g>
	<text transform="matrix(1 0 0 1 16.2021 187.3338)" class="st8 st9 st10">1</text>
</g>
<g>
	<text transform="matrix(1 0 0 1 226.3872 145.2221)" class="st8 st9 st10">2</text>
</g>
<text transform="matrix(1 0 0 1 334.3872 224.2221)" class="st8 st9 st10">3</text>
<text transform="matrix(1 0 0 1 369.2656 212.6742)" class="st8 st9 st10">4</text>
<text transform="matrix(1 0 0 1 363.3086 256.8021)" class="st8 st9 st10">5</text>
<g>
	<text transform="matrix(1 0 0 1 200.585 163.5042)" class="st8 st9 st10">6</text>
</g>
<g>
	<text transform="matrix(1 0 0 1 6.9468 165.1634)" class="st8 st9 st10">7</text>
</g>
<g>
	<text transform="matrix(1 0 0 1 174.1172 120.6532)" class="st8 st9 st10">8</text>
</g>
<g>
	<g>
		<path class="st11" d="M154.4,374.2c-0.6-0.7-1-1.2-1.6-1.9c-0.1,0.9,0,1.8-0.3,1.9c-1.1,0.6-1.7,2.1-3.5,1.9
			c-0.8-0.1-1.6,0.7-2.5,1.1c-0.4,0.1-0.8,0.1-1.5,0.1c-0.5,0.5-0.5,1.2,0.3,2c0.1,0.1,0.2,0.5,0.1,0.6c-0.2,0.1-0.5,0.1-0.7,0.2
			c-0.2,0-0.4,0.1-0.6,0.1c-0.4-0.9-2-1.8-0.1-3.3c-1,0.1-1.7,0.3-2.2,0.2c-0.6-0.1-1.1-0.6-1.7-0.9c-0.1,0.1-0.4,0.5-0.5,0.5
			c-1-0.1-2-0.2-3-0.5c-0.5-0.1-0.9-0.5-1.3-0.8c-0.5-0.5-0.9-1-0.3-1.7c0.1-0.1,0.2-0.4,0.2-0.6c0-0.1-0.3-0.2-0.5-0.2
			c-1.1-0.1-2.3,0-3-1.1c-0.3-0.4-1.7,0.1-1.9,0.7c-0.1,0.2-0.1,0.6-0.3,0.6c-1.3,0.2-2.5,0.4-3.8,0.7c0-0.1-0.1-0.2-0.1-0.3
			c-0.2,0.2-0.4,0.5-0.4,0.6c-0.5-0.1-1.1-0.4-1.2-0.3c-0.7,0.9-2.8,0.3-2.5,2.2c0.1,0.6,0.2,1.2,0.3,1.8c-1.4,0.3-1.5,0.2-1.5-1.3
			c-0.7,0.2-1.4,0.4-2,0.5c-1.3,0.3-1.3,0.3-1.3-1c0-0.1-0.1-0.3-0.1-0.4c-0.7,0-1.3-0.1-1.9-0.1c0.4-0.8,0.8-1.5,1.1-2.2
			c0.3-0.6-0.1-0.9-0.7-1c-1.1-0.1-1.5-0.5-1.6-1.4c-0.5-0.4-0.8-0.8-1.4-1.3c-0.3,0.1-0.9,0.3-1.3,0.4c-0.4-0.6-0.9-1.3-1.3-1.9
			c-0.4-0.6,0.2-1.8,0.8-2c0.2-0.6,0.3-1.1,0.5-1.4c1-1.2,0.7-2.5,0.5-3.8c-0.2-1.5-1.5-2.2-2.2-3.4c-0.1-0.2-0.8,0-1.1-0.1
			c-1-0.2-1.9-0.5-2.9-0.7c0.4-1.4,0.2-1.9-1-2.1c0.1-0.3,0.2-0.7,0.2-1c-1.3-0.8-2-0.6-2.5,0.7c-0.8-0.2-1.6-0.3-2.7-0.6
			c-0.1,0.2-0.4,0.6-0.7,1c-0.1,0.2-0.3,0.6-0.5,0.6c-1.6-0.1-2.2,1.4-3.3,2.1c-0.7,0.4-1.3,0.8-2.1,1.1c-0.6,0.2-0.6,0.9-0.1,1.4
			c0.3,0.3,0.5,0.7,0.5,1.1c0,0.2-0.6,0.5-0.9,0.5c-0.8,0.1-1.6,0-2.4,0.1c-0.2,0-0.5,0-0.6,0.2c-0.6,0.8-1.3,0.6-2,0.1
			c-0.2-0.1-0.6-0.2-0.9-0.2c-1,0-1.3-0.4-1.4-1.4c0-0.7-0.4-1.4-0.7-2c-0.4,0.1-1.1,0.3-1.2,0.4c-0.1,0.8,0.1,1.5,0.1,2.3
			c0,0.5,0.2,1.4-0.1,1.6c-0.4,0.3-1.2,0.2-1.8,0.3c-1.8,0.2-3.2-1.4-5.1-0.8c-0.7,0.2-1.8-0.1-2.1-1c-0.3-0.8-0.9-0.9-1.4-0.8
			c-2.2,0.5-4.1-0.5-6.1-1.1c-0.1,0-0.3-0.1-0.4-0.2c-1.1-1.7-3-2-4.6-2.8c-0.2-0.1-0.4-0.7-0.3-1c0.2-1.1,0.7-2.1,0.8-3.2
			c0.2-1.4-2.4-3.1-3.7-2.7c-0.2,0.1-0.6-0.1-0.7-0.2c-0.4-1-0.7-2-1.1-3c-0.4-0.9-0.9-1.8-1.9-2.2c-0.4-0.2-0.6-0.4-1-0.6
			c-0.3-0.2-0.6-0.3-0.9-0.3c-0.4-0.1-0.9,0-1.3-0.2c-0.9-0.5-2-0.2-3,0.8c-0.4,0.4-0.7,0.9-0.9,1.2c-0.5-0.1-1-0.1-1.4-0.2
			c-0.4-0.1-0.9-0.3-1.3-0.5c-0.5-0.2-1-0.6-1.5-0.8c-0.9-0.3-1.5-0.8-1.7-1.8c-0.2-0.8-0.4-1.7-0.8-2.4c-0.4-0.9,0.2-1.4,0.6-1.9
			c0.5-0.6,0.9-0.8-0.1-1.3c-0.7-0.4-1.3-1.2-2-1.8c-0.2-0.2-0.5-0.2-0.8-0.3c-0.3-0.1-0.8-0.1-0.8-0.3c-0.1-0.4-0.1-1,0.2-1.2
			c0.8-0.6,1.3-1.5,2.5-1.6c1.5,0,1.8-1.4,2.2-2.4c0-0.1-0.1-0.2-0.1-0.2c-1.4,0.5-3.1-0.4-4.4,0.7c-0.7,0.6-1.3,1.2-2,1.7
			c-0.4,0.3-1.1,0.6-1.3,0.5c-0.4-0.3-0.6-0.9-0.8-1.5c-0.1-0.4,0-0.9-0.1-1.3c-0.1-0.3-0.3-0.7-0.4-1c-0.1-0.3-0.3-0.6-0.3-0.8
			c0.2-0.9-0.5-1.1-1-1.2c-0.7-0.2-0.8,0.4-0.9,0.9c-0.1,0.6-0.3,1.2-0.6,1.7c-0.1,0.2-0.5,0.5-0.8,0.5c-1,0-1.2,0.2-1.1,1.1
			c-0.1,0-0.1,0.1-0.2,0.1c-1-0.5-1.8-0.2-2.8,0.5c-1,0.6-1.7,0.1-1.5-1.1c0.1-0.8,0.4-1.5,0.7-2.2c0.2-0.5,0.3-0.9-0.2-1.3
			c-0.2-0.2-0.5-0.6-0.4-0.8c0.5-1.4-0.3-1.2-1.2-0.9c-0.2-0.2-0.4-0.4-0.5-0.7c-0.5-0.9-0.1-1.5,0.9-1.4c1.2,0.1,1.6-0.7,2.1-1.5
			c0.1-0.2,0.4-0.3,0.6-0.4c0.5-0.2,0.9-0.4,1.5-0.6c-0.2-0.3-0.3-0.4-0.4-0.5c-1-0.5-0.7-0.9,0.1-1.2c0.7-0.3,1.4-0.7,2.2-1.2
			c0.6,1.1,1.6,0.7,2.6,0.6c0.4,0,0.8-0.4,1-0.8c0.1-0.2-0.2-0.7-0.5-0.9c-0.3-0.3-0.7-0.5-1.1-0.8c-0.2,1.3-0.7,1.6-1.6,0.7
			c-0.4-0.3-1-0.4-1.6-0.6c0.2-0.3,0.3-0.5,0.4-0.8c0.4-0.9,0.9-1.7,1.1-2.6c0.3-1.1,0.9-0.7,1.5-0.6c1.5,0.2,3.1,0.3,4.8,0.4
			c-0.1-0.9-0.1-1.5-0.2-2.4c1.2,0.1,2.2,0.2,3.3,0.4c1.1,0.2,2.1,0.6,3.3,0c0.7-0.4,1.7-0.4,2.6-0.3c1.6,0.1,3.3,0.3,4.9,0.5
			c0.4,0.1,0.7,0.4,1.1,0.6c0.4,0.3,0.8,0.6,1.2,0.8c0.5,0.2,0.9,0.1,1-0.6c0.2-0.8,0.6-1.6,0.7-2.4c0.1-0.4-0.2-0.9-0.5-1.3
			c-0.7-1.3-1.4-2.5-1.3-4.2c-0.2,0-0.5,0-0.8-0.1c-0.3-0.1-0.5-0.3-0.8-0.5c0.3-0.2,0.5-0.6,0.8-0.7c0.8-0.2,1.6-0.3,2.4-0.4
			c0.6-0.1,1.3,0,1.9-0.1c0.5-0.1,0.9-0.5,1.3-0.8c-0.1-0.1-0.3-0.1-0.4-0.2c-0.1-0.6-0.4-1.2-0.4-1.7c0.1-1.4,0.4-2.8,0.6-4.1
			c0.1-0.7,0.5-0.7,1-0.6c1.2,0.2,2.5,0.5,3.7,0.4c0.7-0.1,1.4-0.8,1.9-1.4c0.2-0.2-0.2-0.8-0.3-1.3c-0.2-0.6-0.3-1.2-0.5-1.8
			c-0.1-0.6,0.2-1,0.8-1.3c0.3-0.2,0.5-0.7,0.8-1.1c0.6-0.7,1.2-1.3,1.8-1.9c0.1-0.1,0.7,0.2,0.8,0.4c0.5,1.9,2.5,2.6,3.3,4.2
			c0.1,0.1,0.2,0.1,0.4,0.2c0.6-0.7,1.1-1.3,1.9-0.3c0.1,0.1,0.4,0.2,0.6,0.2c1.3-0.3,2.1,0.2,2.6,1.5c0.3,0.7,0.8,1.2,1.2,1.8
			c0.3,0.6,0.5,1.2,0.7,1.8c0.1,0.3,0.2,0.6,0.2,0.9c0,0.3,0,0.6-0.1,0.8c-0.6,1-0.3,2.2,0.8,2.6c1.5,0.5,3.1,0.9,4.8,0.4
			c0.6-0.2,1.3,0,1.9,0.3c1,0.4,1.9,1,2.9,1.4c0.6,0.3,1.2,0.4,1.7,0.7c0.6,0.4,1.3,0.9,1.7,1.5c0.8,1.2,1.4,2.5,2.1,3.7
			c0.1,0.2,0.4,0.4,0.7,0.5c2.5,0,4.9,0,7.4-0.1c0.5,0,1-0.4,1.6-0.6c0.4-0.1,0.7-0.1,1.1-0.2c0.4,0,0.9-0.1,1.3,0
			c1.3,0.1,2.5,0.2,3.7,1c1.5,1,3.3,1.4,5.1,2c0.5,0.2,1.2-0.2,1.8-0.3c0.7,1.1,1.4,1.2,2.4,0.2c2.1-2.2,4.8-2.7,7.6-3.4
			c0.7-0.2,1.3-0.5,2-0.7c0.2-0.1,0.4-0.3,0.7-0.3c3-0.3,3-3.4,5.1-4.8c-0.7-0.4-1.1-0.7-1.5-0.9c-1-0.4-1.2-1.2-1.2-2.2
			c-0.1-1.4,1.7-2.3,3-1.8c0.8,0.3,1.6,0.7,2.5,1.1c0.8-0.9,1.5-1.8,2.3-2.7c0.1-0.1,0.4-0.3,0.5-0.3c1.2,0.4,1.8-0.6,2.8-0.9
			c0.2-0.1,0.4-0.4,0.4-0.7c0.1-0.9,0.4-1.6,1.3-2.2c0.9-0.6,2-0.8,2.8-1.8c0.4-0.4,1.7-0.1,2.7-0.1c0.7-1.2,0.6-1.7-0.5-2.7
			c-0.9-0.8-1.5-1.7-2.4-2.4c-0.4-0.4-1.1-0.6-1.7-0.6c-0.7,0-1,0.5-0.9,1.3c0,0.3-0.3,0.6-0.4,1c-1.2-0.6-2.3-1-3.5-0.2
			c-0.6,0.4-1.9-0.5-1.9-1.4c0.1-1.2,0.2-2.5,0.4-3.7c0.2-1.2,0.3-2.5,0.5-3.8c0.6,0,1.2-0.1,1.6,0.2c0.9,0.5,1.4,0,2-0.6
			c0.4-0.4,1-0.6,1.5-0.9c0.3-0.2,0.7-0.6,0.9-0.9c0.1-0.1-0.4-0.5-0.6-0.8c-0.1-0.2-0.3-0.5-0.3-0.7c0-1.4,0.2-2.8-0.1-4.3
			c-0.1-0.6,0.6-1.5,1-2.2c0.5-0.8,0.1-2.8-0.8-3c-0.4-0.1-0.9,0.2-1.4,0.3c-0.4-1,0.5-2.9,1.5-3.2c1.7-0.5,3.3-1.3,5-1.6
			c0.9-0.2,1.9,0.1,2.8,0.4c0.8,0.2,1.5,0.8,2.4,0.2c0.2-0.1,0.7-0.1,0.9,0.1c0.7,0.5,1.4,1,2,1.6c0.8,0.8,1.6,1.5,2.2,2.4
			c0.8,1.1,1.4,2.3,2.1,3.4c0.5,0.8,1.2,1.5,1.8,2.2c0.2,0.3,0.4,0.6,0.6,1c0.8,1.2,0.9,2.8,2.3,3.5c0.3,0.1,0.6,0.3,0.9,0.3
			c0.8,0,1.5,0.1,2.2,0.4c0.5,0.3,1.2,0.2,1.8,0.2c1.4,0.9,2.3,2.9,4.4,2.1c0.2,0.9,0.8,1.8,0.6,2.5c-0.3,1.3,1,1.5,1.2,2.4
			c0.4-0.1,0.7-0.2,1-0.4c0.9,0.9,2.7,0.5,3.1-0.6c0.5-1.4,1.9-2,3-2.8c0.7-0.5,1.7,0.2,1.8,1.1c0.1,0.5,0.5,1,0.7,1.5
			c0.1,0.4,0.2,1.2,0.1,1.3c-0.8,0.4-0.5,1-0.4,1.6c0.2,1.5,0.2,3.1,0.3,4.6c0,0.4-0.1,0.8-0.1,1.3c-0.1,0.9-0.2,1.8-0.3,2.9
			c-0.7-0.1-1.6-0.4-2.4-0.4c-0.4,0-0.8,0.2-1.1,0.4c-0.4,0.4-0.7,0.9-1.2,1.5c1.6,2.1,1.8,4.8,1.8,7.6c-0.9-0.1-1.6,0.1-0.8,1.3
			c-0.1,0-0.3,0.1-0.4,0.1c-0.5-0.5-1-1-1.7-1.6c-0.1,2.3-1.1,3.8-3.1,4.7c0,0.1,0,0.1,0,0.2c0.3,0.5,0.9,1,0.8,1.4
			c-0.1,0.9-1,0.5-1.5,0.5c-1.1,0-2.2,0-3-1.2c-0.1,0.4-0.2,0.8-0.3,1.1c-0.4,0.9-0.7,1.8-1.2,2.6c-0.6,1.1-1.4,2.1-2.1,3.1
			c-0.3,0.5-0.4,1.1-0.8,1.5c-0.1,0.2-0.5,0.4-0.7,0.4c-1.7,0-3,1-4,2.1c-0.7,0.8-1.3,1.6-2.1,2.2c0,0-0.1,0-0.2,0
			c-0.2-0.2-0.4-0.4-0.7-0.8c0.6-0.3,1.1-0.5,1.7-0.7c0-0.3,0.1-0.7,0.1-1c-0.2,0-0.6,0.1-0.7,0.1c-0.2-0.6-0.5-1-0.5-1.5
			c0.1-0.6,0.4-1.3,0.7-1.9c0.1-0.3,0.3-0.5,0.5-0.7c0.5-0.5,0.3-0.8-0.3-1.2c-0.5-0.3-0.9-0.7-1.4-1.1c-0.1,0.1-0.2,0.2-0.4,0.3
			c-0.4,0.1-1.1-0.1-1.2,0.2c-0.5,0.6-0.9,1.4-1.1,2.1c-0.2,0.7-0.5,1.3-1.3,1.5c-1.2,0.3-1.3,1.3-1.3,2.2c-0.2,1.6-0.3,1.8-1.8,1.7
			c-0.4,0-1.2-0.1-1.3,0.1c-0.3,0.6-0.4,1.3-0.3,1.9c0,0.4,0.5,0.8,0.8,1.1c0.1,0.1,0.4,0.2,0.4,0.3c0.5,1.2,1.5,1.1,2.6,1.1
			c0,0.4,0.1,0.6,0.1,0.9c0.2,1.5,1.2,2.1,2.5,1.5c0.1,0,0.2-0.2,0.3-0.3c0.3-0.6,0.6-1.2,1-1.8c0.3-0.6,1.7-0.6,2.2-0.3
			c0.5,0.3,1.2,0.7,1.8,0.7c0.9,0.1,1.9-0.1,2.8-0.2c-0.1,0.8-0.1,1.5-0.2,2.3c-0.1,0.5-0.3,0.8-0.9,0.3c-0.2-0.1-0.7,0-1,0.1
			c-0.8,0.3-1.5,0.6-2.3,1c0,0,0.1,0.2,0.3,0.4c-0.5,0.3-1.1,0.5-1.4,0.9c-0.2,0.2-0.1,0.7-0.1,1.1c0.1,0,0.2,0.1,0.3,0.1
			c-0.5,0.4-1.4,0.7-1.5,1.2c-0.2,1.1-0.2,2.4,0,3.5c0.1,0.4,1,0.8,1.6,0.9c1.4,0.3,1.9,1.3,2.4,2.4c0.3,0.8,0.5,1.7,1.3,2.3
			c0.2,0.1,0.2,0.4,0.2,0.7c0.3,0.7,0.6,1.2,1.5,1.5c0.8,0.3,1.3,1.2,2,1.8c-0.1,0.1-0.1,0.2-0.2,0.3c-1-0.1-2.1-0.2-3.1-0.3
			c0.8,1.4,3.2,1.4,3.6,3.3c-0.6,0.4-1.3,0.6-1.7,1.1c-0.4,0.7-0.9,0.8-1.7,0.5c0.5,0.9,0.9,1.7,1.9,0.7c0.1-0.1,0.7,0.1,1,0.3
			c0.5,0.3,0.9,0.7,1.5,1.1c-0.5,0.4-1.2,0.9-1.8,1.4c0.1,0.1,0.1,0.2,0.2,0.2c0.6-0.3,1.2-0.6,1.9-1c0.1,0.3,0.2,0.7,0.3,1.1
			c-0.6,0.2-1.3,0.4-1.9,0.6c0,0.1,0,0.2,0.1,0.3c0.3,0,0.6,0.1,1,0.2c-0.2,0.6-0.3,1.1-0.5,1.7c0.1,0.1,0.3,0.2,0.7,0.4
			c-0.1,0.2-0.2,0.5-0.4,0.5c-1.6,0.2-1.6,1.4-1.7,2.6c0,0.3-0.4,0.7-0.7,1.1c-0.1-0.1,0.1,0,0.3,0.2c-0.7,0.1-0.6,1.5-1.8,0.7
			c-0.1,0.2-0.2,0.5-0.3,0.7c0.6,0.1-0.2,1.6,1.1,1.2c-0.4,0.3-0.8,0.5-1.4,0.8c0.3,0.1,0.6,0.2,0.6,0.2c0,0.8,0.1,1.6,0.1,2.4
			c-0.2-0.3-0.4-0.5-0.9-1c-0.1,0.6-0.2,0.9-0.3,1.4c0,0-0.2-0.1-0.6-0.2c0.2,0.4,0.4,0.7,0.6,1.1c-0.3,0-0.5-0.1-0.9-0.1
			c0.2,0.3,0.4,0.6,0.5,0.7c-0.8,0.2-1.6,0.5-2.3,0.7c0,0.1,0,0.2,0,0.3c0.4,0.1,0.7,0.2,1.3,0.3c-0.9,0.6-1.6,1.2-2.5,1.9
			c-1.1-0.1-1.1-0.1-1.5,2c-1.1,0.4-2.1,0.8-3.2,1.2C156.3,372.6,155.2,373.3,154.4,374.2z M162,341.7c0.8,0,2.1-0.4,2.3-0.1
			c0.9,1.2,1.5,0.8,2.4,0c-0.9,0.4-1.9,0.9-2.2-0.7C163.7,341.6,162.5,340.7,162,341.7z"/>
		<path class="st11" d="M172.8,375.3c-0.2-0.2-0.3-0.4-0.5-0.6c-0.3-0.4-0.4-0.9-0.8-1.1c-0.9-0.5-1.1-1.3-1.2-2.1
			c-0.1-1-0.2-2.1,0.1-3c0.6-1.5,1-3.2,2.4-4.2c0.2-0.1,0.4-0.3,0.6-0.2c0.6,0.1,1.2,1.3,1.1,1.9c-0.2,1.6-0.4,3.2-0.6,4.8
			c0,0.4,0,1-0.2,1.2c-0.8,0.9-1,2-0.7,3.2C173.1,375.1,172.9,375.2,172.8,375.3z"/>
		<path class="st11" d="M143.6,386.5c0,0-0.2-0.1-0.4-0.2c-1.6-0.5-2.2-1.2-2.2-2.8c0-0.2,0.1-0.3,0.2-0.5c1.3-1.5,3-2.2,4.9-2
			c0.8,0.1,1.4,0.8,0.9,1.7c-0.3,0.6-0.4,1.3-0.7,1.8c-0.3,0.5-0.9,0.9-1.4,1.3C144.6,386.1,144.2,386.2,143.6,386.5z"/>
	</g>
</g>
<g>
	<text transform="matrix(1 0 0 1 206.2021 296.096)" class="st5 st12 st13">1</text>
</g>
<path class="st14" d="M128.1,502.5c0.1-0.4,0.3-0.7,0.4-1.1c0.2-0.5,0.4-0.7,0.9-0.2c0.2,0.2,0.7,0.2,0.8,0.1c0.9-0.8,1.9-1.3,3.2-1
	c0.4,0.1,0.8-0.2,1.2-0.2c0.1,0,0.3,0,0.4,0c0.9,0.6,2,0.8,3.1,0.6c0.4-0.1,1.1-0.1,1.2-0.4c0.2-0.3,0.1-1,0-1.4
	c-0.5-1.7-2.2-2.6-3-4c-0.7-1.2-2.2-1.3-2.7-2.6c-0.2-0.4-1.2-0.6-1.9-0.6c-1.1,0-2.2,0.2-2.7,1.4c-0.2,0.4-0.5,0.7-0.8,1.1
	c-1-0.7-1.7-1.8-3.2-1.4c-1.1,0.3-2.5-0.4-3.1,1.3c-0.1,0-0.2,0-0.3,0c-0.5-0.8-1-1.6-1.4-2.5c-0.1-0.2,0.2-0.8,0.5-0.9
	c0.6-0.3,0.7-0.6,0.7-1.2c0-0.6,0.2-1.3,0.5-1.8c0.8-1.9,1.6-3.8,2.4-5.7c0.3-0.7,0.6-1.4,0.9-2.1c1.5,0.6,3,1.2,4.6,1.7
	c0.3,0.1,0.7,0,1-0.2c0.9-0.7,1.8-1.6,2.7-2.2c0.5-0.4,1.2-0.6,1.8-0.7c1.6-0.2,1.7-0.3,1.7-1.9c0-0.2,0.1-0.3,0.1-0.5
	c-0.3-0.1-0.6-0.2-0.8-0.3c0.5-1.1,1.1-2.2,1.6-3.4c0.1-0.2,0.1-0.4,0.2-0.6c1.2-1.3,1.4-3.1,2.2-4.6c0.5-0.9,1.4-1.5,2.2-2.2
	c0.9-0.7,1.1-1.9,0.6-2.8c-0.2-0.5,0-1.2,0-1.9c-0.6-0.5-1.2-0.6-2.1-0.4c-1.3,0.3-0.4-0.8-0.7-1c0.9-1,1.8-1.9,2.6-2.8
	c0.6-0.7,1.1-1.4,2.3-1.1c0.5,0.1,1.1-0.3,1.8,0.2c1,0.8,1.2,1.8,0.4,2.7c-0.6,0.7-1.4,1.4-2.1,2c1,0.9,1.9,1.6,2.9,2.3
	c0.2,0.1,0.8,0,1-0.3c0.3-0.3,0.4-0.7,0.6-1.2c1.2,0.2,1.1,2.2,2.8,1.8c-1,0.7-0.7,1.3-0.5,2c0.2,0.9,0.4,1.9,0.6,2.9
	c0.2,0.9,0.7,1.4,1.5,1.7c0.6,0.2,1.2,0.5,1.8,0.7c0.2,0.1,0.7,0,0.8-0.2c0.6-0.9,1.3-0.5,2.1-0.5c0.3,0,0.6-0.1,0.9-0.2
	c0.1,0,0.2-0.2,0.3-0.2c1.6,0.5,1.9-1,2.7-1.8c0.9,0.1,1.6,0.6,2,1.5c0.3,0.7,1,1.3,1.5,1.9c0.5,0.6,0.9,1.1,0,1.8
	c-0.5,0.4-0.8,0.9-0.6,1.6c0.1,0.2-0.1,0.6-0.2,0.8c-1.4,1.6-2.5,3.2-2.4,5.5c0.1,1,0.1,2.1,0,3.1c0,0.6-0.2,1.1-1,0.7
	c-0.2-0.1-0.7,0.2-0.8,0.5c-0.5,1.2-0.9,2.3-1.2,3.5c-0.2,0.9,0,1.9,0,2.8c-0.1,0-0.2,0.1-0.4,0.1c-0.3-0.8-0.6-1.7-1-2.8
	c-0.8,0.8-1.5,1.6-2.3,2.4c-0.5,0.5-1.1,0.9-1.6,1.4c-0.2,0.2-0.3,0.5-0.5,0.7c-0.5,0.4-1.1,0.8-1.6,1.3c-0.7,0.6-1.5,1.3-2.4,2.2
	c0.8,0.7,1.3,1.3,1.9,1.9c0.2,0.3,0.5,0.6,0.7,0.9c0.8,1.2,1.1,1.2,2.1,0.1c0.2,0.1,0.5,0.3,0.9,0.5c0.1,1.1-0.7,1.6-2.6,1.2
	c0.1,0.7,0.1,1.4,0.3,1.9c0.5,1.1,0.4,1.4-0.8,1.5c-0.1,0-0.2,0-0.3,0.1c-0.1,0.8-0.2,1.5-0.3,2.3c-0.1,0-0.2,0.1-0.3,0.1
	c-0.4-0.5-0.8-0.9-1.2-1.4c-0.2,0.2-0.4,0.4-0.6,0.7c-0.6-0.5-1.3-0.9-1.8-1.3c-0.3,0.8-0.5,1.3-0.7,2c0.1,0,0.4,0.2,0.5,0.1
	c0.5-0.1,0.7,0.1,0.8,0.6c0,0.3,0.3,0.6,0.6,0.8c0.7,0.6,0.6,1.4-0.1,1.9c-0.1,0.1-0.3,0.3-0.3,0.4c0.1,1.2-0.1,2.4,0.7,3.5
	c0.3,0.4,0.4,1.1,0.6,1.8c1.2-0.1,2.2-1.1,3.4-1.8c0.7,1.8,1.3,3.6,1.9,5.3c-1,0.8-1,0.9,0.1,1.6c0.2,0.1,0.5,0.5,0.5,0.7
	c-0.1,0.5-0.3,1.1-0.6,1.3c-0.7,0.4-1.4,0.6-1.8,1.4c-0.3,0.5-1.2,0.8-2,0.3c-0.3-0.2-0.7-0.3-1.3-0.6c0.1,0.6,0.2,0.9,0.4,1.4
	c-0.5-0.1-0.9-0.2-1.3-0.3c-0.5-0.2-0.8-0.2-1,0.4c-0.2,0.4-0.6,0.7-1,1.1c-0.7-0.9-1.3-0.7-1.8,0c-0.6,0.8-1.4,0.8-2.2,1.1
	c-1.4,0.6-2.1,2-3.1,3.2c-0.3-1.6-1.1-2.9-2.4-3.9c-0.2,0.1-0.5,0.3-0.8,0.5c-0.2,0.1-0.4,0.6-0.3,0.6c0.7,0.5,0.2,1.2,0.2,1.7
	c0.1,0.6,0.1,1.3,0.2,1.9c0.2,1.1-0.1,1.5-1.2,1.4c-1-0.1-2.1-0.2-3.2-0.3c-0.2-0.6-0.6-1.5-0.9-2.3c0.8-0.2,0.8-0.2,0.4-1.9
	c-0.1,0.1-0.3,0.2-0.4,0.3c-0.5-1.1-1-2.3-1.5-3.3c-0.6,0-0.9,0.1-1.5,0.1c0,0.1-0.2,0.4-0.3,0.5c-0.6,0.1-1.2,0-1.7,0.2
	c-0.6,0.2-1,0.5-0.7,1.3c0.1,0.4-0.1,1-0.4,1.3c-0.5,0.6-1.2,0.5-1.7-0.1c-0.5,0.4-1,0.8-1.5,1.2c-0.2-0.3-0.4-0.5-0.6-0.8
	c-0.8,0.4-1.9,0.6-2.3,1.3c-0.6,1.1-1.4,0.5-2.1,0.7c-0.1-1.1-0.1-2.1-0.2-3.2c-1.4,0-2.7,1.3-2.9,2.5c0,0.5-0.1,0.9-0.7,1.1
	c-0.7,0.3-0.8,1.2-0.3,1.9c-0.2,0.2-0.4,0.4-0.6,0.7c0.4,0.7,0.8,1.3,1.1,1.7c-0.1,0.6-0.2,1.1-0.3,1.6c-0.7,0.3-1.6,0.7-2.5,1
	c-0.2,0.1-0.7,0.1-0.8,0c-0.7-0.9-1.3-0.3-1.7,0.2c-0.5,0.7-0.9,0.8-1.6,0.4c-0.6-0.4-1.1-0.2-1.4,0.4c-0.4,0.8-0.9,1.6-1.3,2.4
	c-0.3,0.7-0.6,0.9-1.4,0.6c-0.4-0.2-0.7-0.2-1,0.4c-0.2,0.5-0.9,0.8-1.3,1.1c-0.1-0.1-0.1-0.1-0.2-0.2c0.1-0.3,0.1-0.5,0.2-0.9
	c-1.2,0.1-1.5,1.1-2.1,1.8c-0.2-0.3-0.4-0.5-0.6-0.8c-0.7,0.7-1.1,0.1-1.7-0.6c0.1,0.6,0.1,0.9,0.1,0.9c-0.9,1-1.7,1.9-2.6,2.8
	c-0.6,0.7-1.4,1.2-2,1.9c-0.5,0.6-1.1,1.3-0.5,2.2c0.1,0.2-0.1,0.6-0.2,0.8c-1.5-0.2-0.6,1-1.2,1.5c-0.8,0.1-1.7,0.1-2.7,0.2
	c-0.1,0-0.4,0-0.4-0.1c-0.3-1.1-1.6-0.7-2-1.3c-1.2-1.6-3.3-1.2-4.7-2.2c0.7-1.2,1.3-2.4,1.9-3.5c0.1-0.3,0-0.7-0.1-1
	c-0.2-0.5-0.4-1-0.6-1.6c-0.6,0.2-1.2,0.4-1.7,0.5c-0.5,0.4-1,0.6-1.1,1c-0.5,1.1-0.9,2.2-1.2,3.4c-0.2,1-0.1,2-0.2,3.1
	c-0.1,0.9-0.7,1.2-1.5,1.2c-0.6,0-1.4,0.1-1.8,0.5c-0.6,0.7-1.3,0.6-2,0.6c-0.3,0-0.7,0-0.8,0.2c-0.5,0.8-1,0.4-1.4,0.1
	c-1-0.7-1.9-1.4-2.8-2.1c-0.5-0.4-0.3-1.4,0.3-1.9c-0.1-0.4-0.2-0.9-0.4-1.4c0.4-0.2,0.8-0.4,1.1-0.7c0.8-0.8,1.5-1.7,2.1-2.6
	c0.1-0.2-0.1-0.6-0.2-0.9c-0.2-0.5-0.4-0.9-0.7-1.5c-1.3,0-2.6,0.4-3.6,1.2c-0.8,0.6-1.6,0.7-2.4,0.3c-0.8-0.4-1.5-0.2-2.2,0.1
	c-0.4,0.2-0.9,0.3-1.4,0.5c0.3,0.4,0.6,0.7,0.9,1.1c-0.4,0.8-1,1.3-1.9,1c-0.9-0.2-1.6-0.7-1.7-1.7c-1.1,0-1.4-0.4-1.6-2.3
	c-1.1,0-1.8-0.6-2.6-1.4c-0.8-0.8-2.2-1.1-3.4-1.6c0.3-0.3,0.8-0.7,1.2-1.2c0.7-0.9,1.4-1.7,2-2.7c0.3-0.6-0.5-1.8-1.1-1.7
	c-1.5,0.2-3,0.5-4.5,0.8c-0.2,0-0.5,0.3-0.6,0.5c-0.6,0.8-1.4,0.9-2.3,0.8c0-0.1-0.1-0.1-0.1-0.2c0.5-1.2,0.5-2.1-0.8-2.9
	c-0.6-0.4-1.1-1.1-1.5-1.7c-0.3-0.4-0.4-0.8,0.1-1.1c0.5-0.3,0.4-0.7,0.2-1.2c-0.9-2-1.8-4-2.7-6.2c1.9,0.2,3.8,0.5,5.6,0.7
	c1.2,0.2,2.3,0.3,3.5,0.5c0.4,0.1,0.9,0.1,1.3,0c1.6-0.8,3.3-0.3,4.9-0.1c1.1,0.2,2.2,0.2,3.2,0.3c0.8,0.1,1.4,0.2,1.8,1
	c0.4,0.8,1,1.2,1.9,1.4c2.1,0.4,4.1,1,6,2c0.6,0.3,1.6,0,2.5-0.1c0.4,0,0.9-0.2,1.4-0.3c0,0.4,0.1,0.8,0.1,1.2
	c0.7,0.1,1.4,0.2,2.1,0.3c0.1,0,0.2-0.1,0.3-0.2c2.4-1.3,4.8-2.9,7.4-3.7c2.7-0.8,5.7-1.3,8.7-1c1.4,0.1,3,0.3,4.3-0.7
	c0.3-0.3,0.8-0.4,1.3-0.5c1.3-0.4,2.4-1.1,3-2.3c0.8-1.5,2.1-2.3,3.6-2.9c0.7-0.3,1.5-0.7,1.9-1.3c0.2-0.3-0.2-1.1-0.5-1.6
	c-0.5-0.8-1.1-1.5-1.7-2.2c-0.1-0.1-0.1-0.3,0-0.4c0.4-1.1,0.8-2.1,1.3-3.2c0.6-1.3,2.7-1.4,3.7-0.4c0.3,0.4,0.9,0.7,1.4,0.8
	c1,0.3,2,0.4,3,0.6c0.1,0,0.3,0,0.5-0.1c1.4-1.1,3.2-1.9,3.9-3.7c0.1-0.2,0.7-0.4,1.1-0.3c1.7,0.2,3.4,0.3,4.7-1.1
	c0.3-0.3,0.7-0.4,1-0.6c0.3-0.2,0.6-0.6,0.6-0.9c0-1.9,1.9-3.7,3.7-3.4C127.4,502.5,127.7,502.5,128.1,502.5z"/>
<g>
	<text transform="matrix(1 0 0 1 205.2021 478.096)" class="st6 st15 st16">8</text>
</g>
<polyline class="st11" points="195.3,367.6 207.9,346.5 293.6,346.5 411,346.5 "/>
<g>
	<rect x="207.5" y="304.9" class="st17" width="204.5" height="62.8"/>
	<text transform="matrix(1 0 0 1 207.4893 313.4131)"><tspan x="0" y="0" class="st5 st12 st10">Despegó el 24 de noviembre del 2020 en </tspan><tspan x="0" y="14.4" class="st5 st12 st10">el Centro de Lanzamiento de Satélites de </tspan><tspan x="0" y="28.8" class="st5 st12 st10">Wenchang</tspan></text>
</g>
<polyline class="st14" points="189.3,538.6 201.9,517.5 287.6,517.5 405,517.5 "/>
<rect x="204" y="486.8" class="st17" width="204" height="99.2"/>
<text transform="matrix(1 0 0 1 204 495.4238)"><tspan x="0" y="0" class="st6 st15 st10">Aterrizó el 16 de diciembre del 2020 </tspan><tspan x="0" y="14.4" class="st6 st15 st10">en Mongolia interior, al norte de China</tspan></text>
<text transform="matrix(1 0 0 1 164.4468 51.7236)" class="st8 st18 st16">Chang’e 5</text>
<g>
	<text transform="matrix(1 0 0 1 163.064 28.8936)" class="st8 st18 st16">Trayectoria</text>
</g>
</svg>
