<svg id="Layer_1" data-name="Layer 1" xmlns="http://www.w3.org/2000/svg" xmlns:xlink="http://www.w3.org/1999/xlink" viewBox="0 0 425 586"><defs><style>.cls-1,.cls-11,.cls-12,.cls-15{fill:#231f20;}.cls-10,.cls-13,.cls-16,.cls-2,.cls-5{fill:#fff;}.cls-3,.cls-4,.cls-6{fill:none;}.cls-11,.cls-15,.cls-3,.cls-4{stroke:#fff;}.cls-10,.cls-11,.cls-15,.cls-3,.cls-4,.cls-5,.cls-6{stroke-miterlimit:10;}.cls-10,.cls-15,.cls-3{stroke-width:3px;}.cls-10,.cls-5{stroke:#231f20;}.cls-6{stroke:#da5027;}.cls-7{fill:url(#linear-gradient);}.cls-8{fill:url(#linear-gradient-2);}.cls-9{fill:url(#linear-gradient-3);}.cls-12,.cls-13{font-size:12px;}.cls-12,.cls-13,.cls-16{font-family:Consolas;}.cls-14{fill:#fefefe;}.cls-16{font-size:17.82px;}.cls-17{fill:url(#linear-gradient-4);}.cls-18{fill:url(#linear-gradient-5);}</style><linearGradient id="linear-gradient" x1="330.31" y1="303.11" x2="105.65" y2="78.45" gradientUnits="userSpaceOnUse"><stop offset="0" stop-color="#f7941d"/><stop offset="1" stop-color="#be1e2d"/></linearGradient><linearGradient id="linear-gradient-2" x1="1.74" y1="144.83" x2="184" y2="144.83" gradientUnits="userSpaceOnUse"><stop offset="0" stop-color="#27aae1"/><stop offset="1" stop-color="#00a651"/></linearGradient><linearGradient id="linear-gradient-3" x1="167.55" y1="196.61" x2="409.42" y2="196.61" xlink:href="#linear-gradient-2"/><linearGradient id="linear-gradient-4" x1="138.61" y1="366.99" x2="283.69" y2="329.51" xlink:href="#linear-gradient"/><linearGradient id="linear-gradient-5" x1="142.62" y1="479.07" x2="271.51" y2="479.07" xlink:href="#linear-gradient-2"/></defs><rect class="cls-1" width="425" height="586"/><path class="cls-2" d="M95.19,80.48a72,72,0,1,0,72.31,72A72.16,72.16,0,0,0,95.19,80.48Zm48.66,120.46a69,69,0,0,1-97.32,0,68.34,68.34,0,0,1,0-96.91l.94-.89a8.61,8.61,0,0,1-.94,2.12c-1,1.52-2.73,2.12-3.81,3.55a14.67,14.67,0,0,0-2.12,4.72c-.39,1.58-.15,3.49-.71,5.06-.71,2-2,3.19-1.75,5.51,2.79.82,1.58-4.12,3.93-4.38.75,1.85.26,5.28,0,7.29-.29,2.77-.84,3.46.82,5.83,1.32,1.89,1.75,3.15,4.3,3.44,2.33.28,3.3,1.33,4.27,3.56,1.8.39,2.89.68,3.12,2.67.78.43,2.25,1.83,3.07,2,1.19.32,3.19-1.38,4.31-.07,1.88,2.17-2.38,7.86-3.14,9.82-1.12,2.88-1.28,7.1,1.45,9.16,1.41,1.06,2.9,1.57,3.36,3.49s.09,3.26.88,4.94c1.24,2.62,4.06,3.49,6.07,5.49,2.64,2.63,2.46,6,2.46,9.76,0,3.9,1.48,6.86,2,10.43s1.62,7.09,2.4,10.65c.58,2.68,2.9,6.72,6.26,6.18.23-1.27-1.09-2.26-1.25-3.52s.17-2.32-.06-3.55c-.45-2.41-.43-3.83,1.18-5.94.57-.74,1.35-1.35,1.94-2.1,1.14-1.44.27-1,.22-2.59-.06-2,.54-1,1.73-1.62a9.73,9.73,0,0,0,1.79-1.78,26.52,26.52,0,0,0,3.45-3.66c.91-1.44.8-3.45,1.73-4.94,1.07-1.71,2.58-1.71,4.07-2.82,1.93-1.44,1.13-3,1.49-4.94a22.45,22.45,0,0,1,4.19-9.6c2.63-3.32,3.77-6.14.56-9.32-1.59-1.58-2.41-1.16-4.52-1.71-1.6-.42-3-1.58-4.68-1.78-1-.12-1.55.23-2.45,0s-.73-.73-1.61-.72c-1.31,0-3.14,2.74-4.24,1-.62-1,1.25-3.64,1.17-4.94-.11-1.59-.7-4.19-2.27-5.06-.59-.33-1.91-.38-2.64-.66a13.55,13.55,0,0,1-2.45-1.34c-1-.64-2.93-1.75-3.37-2.89-1.23,0-2.06-.72-3.31-.7s-1.86.53-3.07.39c-1.06-.12-2.2-1-3.34-.79a10.19,10.19,0,0,0-2.55,1.46,17.7,17.7,0,0,1-5.52,2c-3,.56-3.52-.58-3.34-3.32l-.45-.89c1.11-3.07-.89-3.28-3.09-4-.3-2.18,2.4-3.74,1.27-6.14-2.28-.12-4.77,6.28-6.7,3.51-1.28-1.83.66-6.93,1.78-8.48s5.24-4.38,7.17-4.62A3.12,3.12,0,0,1,60,120.14c.63,1.43-.19,2.78,0,4.41,1.92-.45,1.42-2.89,1.34-4.19-.14-2.19,1-2,2.13-3.6s1.17-3.07,2.44-4.45c1-1.08,2.15-2.22,3.24-3.21,1.24-1.14,2.63-1,3.91-1.87,1.93-1.27-.63-3.64,2.22-3.46,1,.07.51.69,1.85.39a20,20,0,0,0,2.21-.89c2.72-1.1.79-1.4-.45-2.83-1.59-1.82.66-1.5,2.29-1.77,1.2-.2,1-.59,2,.11s.39,1.44,1.74,1.4c2.57-.09.79-2.66.21-3.51-1-1.46-1.23-2.47-3.3-2.53A3.24,3.24,0,0,0,81.74,92c-1.74.23-2-1-3.36-1.53-2.22-.84-1.87,1-2.78,2.21s-2.72,1-3.41,2.61,0,2.86-2.65,2.41a8.28,8.28,0,0,0,.17-3.26,12.82,12.82,0,0,1-2.16-.51c0-2.61,2.9-2.82,4.87-3.07,2.2-.28,2.92-2.51,4.89-2.89s3.15,2.61,5.41.9c1.29-1,.7-1.56.23-2.5a13.4,13.4,0,0,0-1-1s0-.06,0-.08c1.76-.34,3.53-.6,5.32-.8a18.41,18.41,0,0,0,1.46,2.82c.3.49.85.82,1.08,1.37s-.36,1.38.42,1.8c1.21.64,4.74-3.55,5.58-4.23,1.08-.87,1.75-1.34,1.49-2.18a69.2,69.2,0,0,1,16.55,2.51c.42.53.86,1.07,1.3,1.68.93,1.29,1.53,2.46,3.22,3,1,.33,4.11.27,2.81,2.5-1.2,2.06-2.53-.64-3.14-1.28-.84-.9-3.32-1.9-3.24.16.12,3.07,7,2.57,5.56,5.94.83.48,2.47,1.3,2.2,2.5-.33,1.49-2.28.54-2.24,2.44a4.41,4.41,0,0,0,5.75,3.94c2.92-1,.72-5.07,4.07-5.49a3.92,3.92,0,0,1,3.28,1.16c1,.76,1.59,2.48,2.92,2.35.13-.82-.49-1.41-.59-2.17a8.64,8.64,0,0,1,3.68,2.43c.9,1.35.8,3.29,3,1.55-.32-.27-.49-.86-.66-1.07a6.09,6.09,0,0,1,5.94,3.56c2.67,5.39-3.9,1.11-4.23,3.92-1.62-.51-2.34-1.81-3.74-2.59-.67-.36-1.9-.17-2.41-.54-.71-.51-.53-1.45-1.15-2-2.43-2-8,1.22-10.21,2.5-.61.35-1.25.38-1.67,1-.71,1.12.29,1.4.07,2.45-.32,1.49-2.27,2.18-2.87,3.37-1.41,2.87,1.47,7,1.08,10.16-.22,1.77-2.13,3.69-1.4,5.17.32.63,1.42,1.18,1.85,1.93a19.15,19.15,0,0,0,1,2.28,88.13,88.13,0,0,0,5.91,7,4.26,4.26,0,0,0,4.23,1.22,23.16,23.16,0,0,0,4.68-1.34c1.68-.8,1.9-1.93,3.67-1.16,1.4.61,2.64,2.39,4.29.91,1.35,1.32-.15,3.61-.45,5.08-.39,1.88.36,3.52,1.52,5.12,1.39,1.92,1.72,2.25,1.43,4.82a55.61,55.61,0,0,1-1.16,5.8c-.41,1.9-1.62,3.34-1.56,5.34.06,1.85.86,3.34.62,5.33a43.19,43.19,0,0,1-.78,5.54c-.47,1.76-1.72,3.31-2.24,5.11a5.92,5.92,0,0,0,.84,5.32c1.25,1.46,2.49.63,4-.48,2.89-2.18,4.2-5.89,6.12-8.84a57.64,57.64,0,0,0,5.25-8.87c.27-.66.61-1.32,1-2A68.14,68.14,0,0,1,143.85,200.94Z" transform="translate(-0.5 -0.48)"/><line class="cls-3" x1="95.25" y1="81.57" x2="94.5" y2="221.5"/><path class="cls-4" d="M95,217.21C4.5,181.93,44.66,102.87,44.66,102.87" transform="translate(-0.5 -0.48)"/><path class="cls-4" d="M95.94,217.13c90.5-35.28,50.34-114.34,50.34-114.34" transform="translate(-0.5 -0.48)"/><path class="cls-4" d="M95.5,218.48c-22.71-17.25-33-62.59-33-62.59-8-40.66,11.24-71.39,11.24-71.39" transform="translate(-0.5 -0.48)"/><path class="cls-4" d="M113.48,84.5s28.79,28.16,12,83.59c0,0-9.62,40.32-31,49.39" transform="translate(-0.5 -0.48)"/><path class="cls-4" d="M40.94,107.08s57.35-25,112.45,3.73" transform="translate(-0.5 -0.48)"/><path class="cls-4" d="M26.5,145.48s-1.12-13,69.44-18.49c0,0,47-5,70.55,24" transform="translate(-0.5 -0.48)"/><path class="cls-4" d="M32.93,184.68s12.2-24,62.38-21.09c0,0,46.66-4.2,62.18,23.1" transform="translate(-0.5 -0.48)"/><path class="cls-4" d="M31.79,182.36S56.5,219.89,95,216.18" transform="translate(-0.5 -0.48)"/><path class="cls-4" d="M165,166.76S143.5,222,94.5,216" transform="translate(-0.5 -0.48)"/><path class="cls-4" d="M62.42,214.63S49.55,203.44,78,197.46c0,0,28.91-3,35.44.77,0,0,27.63,6.34,12.08,17.54" transform="translate(-0.5 -0.48)"/><path class="cls-4" d="M94.5,215.48c-2.46,5.2-27.71,2.06-27.71,2.06" transform="translate(-0.5 -0.48)"/><path class="cls-4" d="M135.62,210.64s-38.56,17.54-41.12,2.44" transform="translate(-0.5 -0.48)"/><ellipse class="cls-5" cx="370.5" cy="210" rx="19" ry="19.5"/><path class="cls-6" d="M256.07,124.57" transform="translate(-0.5 -0.48)"/><path class="cls-7" d="M371,210.48a22.27,22.27,0,0,0,3.47,5.8,10.87,10.87,0,0,0,12.06,3.66,18.59,18.59,0,0,0,5.93-3l0,0a18.69,18.69,0,0,0,3.47-6.71,20.09,20.09,0,0,0,.59-7.52,28.9,28.9,0,0,0-1.82-7.38,34.72,34.72,0,0,0-1.56-3.47c-.29-.57-.6-1.12-.92-1.67l-.5-.8c-.14-.22-.39-.47-.58-.71a31,31,0,0,0-12-9,34.3,34.3,0,0,0-14.83-2.45,40.22,40.22,0,0,0-7.49,1.05,15.25,15.25,0,0,0-1.77.53c-.59.22-1.18.44-1.76.69a35.34,35.34,0,0,0-3.39,1.65,27.51,27.51,0,0,0-10.68,10.26,31.64,31.64,0,0,0-4,14.33,46.23,46.23,0,0,0,1.75,14.92l-.06-.15a44.94,44.94,0,0,0,9.56,13.14,31.43,31.43,0,0,0,14.08,7.54,39.55,39.55,0,0,0,16.11.27,53.42,53.42,0,0,0,15.42-5.22,24.28,24.28,0,0,0,10.55-11.48A30.49,30.49,0,0,0,405,209.13a36.91,36.91,0,0,0-5-15.21,49.32,49.32,0,0,0-10.38-12.44,66.18,66.18,0,0,0-13.61-9,81.84,81.84,0,0,0-7.52-3.35c-2.55-1-5.16-1.93-7.79-2.77-10.53-3.37-21.46-5.51-32.36-8s-21.72-5.16-32.6-7.53a331.33,331.33,0,0,0-32.8-5.84,251,251,0,0,0-33.23-1.71,283.83,283.83,0,0,0-33.2,2.52c-11,1.47-21.95,3.57-32.85,5.86s-21.74,4.88-32.54,7.64c-21.58,5.58-42.94,12-64.14,18.93L59,180.81c-2.64.88-5.25,1.85-7.92,2.72-5.29,1.73-10.93,3.12-16.6,2.48a22,22,0,0,1-8.06-2.54,14.12,14.12,0,0,1-5.89-6,12.55,12.55,0,0,1-.94-8.28,9.66,9.66,0,0,1,4.77-6.61,9.52,9.52,0,0,0-4.53,6.66,12.44,12.44,0,0,0,1.13,8,13.7,13.7,0,0,0,5.76,5.67,21.3,21.3,0,0,0,7.84,2.33c5.5.54,11-.89,16.2-2.69,2.63-.9,5.23-1.91,7.87-2.84l7.9-2.78c10.55-3.66,21.18-7.08,31.85-10.36s21.41-6.38,32.19-9.29,21.64-5.58,32.56-8,21.88-4.64,33-6.13a284.27,284.27,0,0,1,33.5-2.65,254.79,254.79,0,0,1,33.59,1.62,334.26,334.26,0,0,1,33.1,5.78c10.92,2.35,21.79,4.95,32.65,7.44s21.84,4.7,32.58,8.16c2.68.87,5.34,1.8,8,2.86s5.22,2.18,7.75,3.48a69.55,69.55,0,0,1,14.16,9.49,52.52,52.52,0,0,1,10.92,13.18,39.71,39.71,0,0,1,5.34,16.33,33.25,33.25,0,0,1-2.72,17,29.3,29.3,0,0,1-4.82,7.29,25,25,0,0,1-6.94,5.38A55.93,55.93,0,0,1,377.07,244a41.53,41.53,0,0,1-17.12-.44,33.76,33.76,0,0,1-15-8.22A47.22,47.22,0,0,1,335,221.46l0-.08,0-.06a45.81,45.81,0,0,1-1.49-7.78,47.12,47.12,0,0,1-.21-7.88,33.39,33.39,0,0,1,4.37-15.12,29.09,29.09,0,0,1,11.43-10.8,36.18,36.18,0,0,1,3.56-1.69c.61-.26,1.23-.48,1.85-.71a16,16,0,0,1,1.93-.55,41.18,41.18,0,0,1,7.8-1,35.59,35.59,0,0,1,15.38,2.79,32,32,0,0,1,12.33,9.52,8.86,8.86,0,0,1,.62.8q.27.42.51.84c.33.57.63,1.15.93,1.73a33.58,33.58,0,0,1,1.54,3.6,29.65,29.65,0,0,1,1.76,7.61,21.27,21.27,0,0,1-.73,7.78,19.47,19.47,0,0,1-3.69,6.87l0,0,0,0a18.89,18.89,0,0,1-6.16,3,11.16,11.16,0,0,1-12.28-4A22.35,22.35,0,0,1,371,210.48Z" transform="translate(-0.5 -0.48)"/><path class="cls-8" d="M29.93,119.27a38.4,38.4,0,0,0-11.37,5.6,36.37,36.37,0,0,0-8.85,8.87,27,27,0,0,0-4.64,11.37A21.71,21.71,0,0,0,6.67,157l0-.08a28.78,28.78,0,0,0,8.48,9.62,39.46,39.46,0,0,0,11.63,5.79,50.28,50.28,0,0,0,6.34,1.5c2.22.29,4.43.61,6.67.86,4.46.55,8.93.94,13.41,1.27A184.55,184.55,0,0,0,80,176a132.72,132.72,0,0,0,26.28-4.6c2.15-.6,4.25-1.36,6.44-2l6.57-1.86c4.35-1.23,8.7-2.4,13-3.73a127.81,127.81,0,0,0,24.75-10,68.74,68.74,0,0,0,10.82-7.63,16.06,16.06,0,0,0,1.22-1.11l1.18-1.16a25.86,25.86,0,0,0,2.29-2.39l2.15-2.51c.65-.89,1.27-1.8,1.91-2.7l1-1.35.79-1.41a31.88,31.88,0,0,0,1.34-3,21.53,21.53,0,0,0,1.45-6.3,13.81,13.81,0,0,0-1-6.3,13,13,0,0,0-3.95-5l0,0a17.4,17.4,0,0,0-7.79-3,7.77,7.77,0,0,0-4.07.79,10.28,10.28,0,0,0-3.25,2.74,10.32,10.32,0,0,1,3.11-3,8.13,8.13,0,0,1,4.24-1.12,12.78,12.78,0,0,1,4.32.86,25.81,25.81,0,0,1,4,1.87h0l0,0a14.35,14.35,0,0,1,4.58,5.31,15.39,15.39,0,0,1,1.44,6.93,22.92,22.92,0,0,1-1.25,6.93,32.76,32.76,0,0,1-1.33,3.26c-.25.52-.53,1.05-.81,1.57l-.94,1.46c-.64,1-1.26,1.95-1.91,2.91l-2.16,2.72a26.89,26.89,0,0,1-2.31,2.59c-.81.82-1.56,1.72-2.44,2.47a72.17,72.17,0,0,1-11.11,8.27,100.46,100.46,0,0,1-12.34,6.13c-4.24,1.74-8.55,3.31-12.88,4.68s-8.69,2.7-13,3.95l-6.47,1.86c-2.15.63-4.31,1.43-6.5,2s-4.43,1.26-6.67,1.74-4.49,1-6.75,1.39a133.42,133.42,0,0,1-13.65,1.65,178.84,178.84,0,0,1-27.39-.24c-4.54-.41-9.07-.87-13.58-1.5-2.25-.29-4.51-.65-6.77-1a48.59,48.59,0,0,1-6.81-1.76,43.15,43.15,0,0,1-12.39-6.57,30.77,30.77,0,0,1-9-10.84l0-.06v0A24.08,24.08,0,0,1,3,144.77a28.3,28.3,0,0,1,5.5-11.88,37.7,37.7,0,0,1,9.57-8.69A36.64,36.64,0,0,1,29.93,119.27Z" transform="translate(-0.5 -0.48)"/><path class="cls-9" d="M371.31,210.66a15.08,15.08,0,0,1-4-9.26,19.65,19.65,0,0,1,1.9-10.08h0v0a12.9,12.9,0,0,1,6.12-5.55,15.36,15.36,0,0,1,8.29-.86h0a33.87,33.87,0,0,1,11,5.1,37.51,37.51,0,0,1,8.68,8.47,29.27,29.27,0,0,1,5.12,11.1,21.3,21.3,0,0,1-.93,12.3l0-.07a36.52,36.52,0,0,1-6,11.54,44.18,44.18,0,0,1-9.31,9,66.36,66.36,0,0,1-23.45,10.44l-.08,0h-.08a60.45,60.45,0,0,1-18.4-.69,50.81,50.81,0,0,1-8.9-2.58l-4.2-1.76L333,246a332.82,332.82,0,0,1-32.11-16.78c-10.44-6.08-20.64-12.44-30.94-18.69-1.29-.81-2.6-1.53-3.87-2.4l-3.75-2.56-7.42-5.15c-4.93-3.44-9.87-6.83-15-9.95l0,0,0,0c-10-7.3-19.94-14.79-29.82-22.28l-14.79-11.27q-7.41-5.62-14.89-11.15l0,0A96.69,96.69,0,0,0,168,140a93,93,0,0,1,12.59,5.26h0q7.65,5.29,15.22,10.71c5,3.61,10.1,7.21,15.1,10.87,10,7.31,20,14.61,30.18,21.72l-.07,0c5.21,3.07,10.28,6.38,15.26,9.77l7.45,5.11,3.71,2.51c1.22.82,2.55,1.55,3.82,2.33,10.32,6.18,20.58,12.49,31,18.47s21,11.6,31.89,16.6l4.09,1.83,4.12,1.75a47.47,47.47,0,0,0,8.4,2.49,58,58,0,0,0,17.54.76l-.16,0a63.67,63.67,0,0,0,22.57-9.87,44.46,44.46,0,0,0,8.92-8.4,34.46,34.46,0,0,0,5.79-10.73v0l0,0a19.35,19.35,0,0,0,1-11.12,27.28,27.28,0,0,0-4.62-10.46,35.69,35.69,0,0,0-8.16-8.25,33.11,33.11,0,0,0-10.39-5.19h0a14.3,14.3,0,0,0-7.73.56,12.08,12.08,0,0,0-5.86,5v0a19.3,19.3,0,0,0-2.14,9.73A14.86,14.86,0,0,0,371.31,210.66Z" transform="translate(-0.5 -0.48)"/><circle class="cls-10" cx="177" cy="116" r="6.5"/><circle class="cls-10" cx="19" cy="183" r="6.5"/><circle class="cls-10" cx="229" cy="141" r="6.5"/><circle class="cls-10" cx="337" cy="220" r="6.5"/><circle class="cls-11" cx="373" cy="208" r="9.5"/><circle class="cls-10" cx="366" cy="253" r="6.5"/><circle class="cls-10" cx="203" cy="159" r="6.5"/><circle class="cls-10" cx="10" cy="161" r="6.5"/><text class="cls-12" transform="translate(15.7 186.85)">1</text><text class="cls-12" transform="translate(225.89 144.74)">2</text><text class="cls-12" transform="translate(333.89 223.74)">3</text><text class="cls-13" transform="translate(368.77 212.19)">4</text><text class="cls-12" transform="translate(362.81 256.32)">5</text><text class="cls-12" transform="translate(200.08 163.02)">6</text><text class="cls-12" transform="translate(6.45 164.68)">7</text><text class="cls-12" transform="translate(173.62 120.17)">8</text><path class="cls-14" d="M154.35,374.17l-1.58-1.9c-.12.86,0,1.76-.3,1.91-1.15.62-1.75,2.11-3.47,1.93-.76-.09-1.61.74-2.45,1.07a6.88,6.88,0,0,1-1.53.14c-.46.49-.54,1.23.29,2a.67.67,0,0,1,.08.62c-.16.14-.45.12-.69.16l-.62.08c-.45-.94-2.05-1.75-.13-3.29a8.74,8.74,0,0,1-2.23.17,6.85,6.85,0,0,1-1.65-.93c-.14.13-.36.52-.54.5a20.61,20.61,0,0,1-3-.51,3.35,3.35,0,0,1-1.33-.83c-.51-.46-.94-1-.29-1.72a.79.79,0,0,0,.18-.61c0-.11-.34-.22-.53-.23-1.11-.06-2.25,0-3-1.08-.3-.42-1.75.15-1.94.7-.08.21-.14.58-.27.6-1.26.25-2.54.44-3.81.65l-.08-.28-.44.58c-.47-.14-1.08-.43-1.16-.32-.68.9-2.75.3-2.46,2.23.09.59.22,1.18.33,1.78-1.35.28-1.52.16-1.46-1.27-.71.18-1.37.36-2,.51-1.27.29-1.3.27-1.33-1a1.45,1.45,0,0,0-.11-.42l-1.95-.1c.38-.76.77-1.46,1.08-2.2s-.06-.93-.7-1c-1.08-.06-1.53-.52-1.6-1.36l-1.36-1.26-1.32.4c-.43-.65-.88-1.28-1.28-1.94a1.68,1.68,0,0,1,.77-2,5.61,5.61,0,0,1,.53-1.45c1-1.2.7-2.46.49-3.83s-1.53-2.25-2.19-3.43c-.09-.18-.75,0-1.13-.08-1-.21-1.91-.47-2.86-.71.39-1.41.15-1.93-1-2.07l.25-1c-1.33-.81-2-.64-2.46.73l-2.67-.56-.67,1c-.15.2-.33.55-.48.55-1.58-.09-2.19,1.39-3.28,2.07a8.07,8.07,0,0,1-2.09,1.06c-.58.17-.55.88-.09,1.36a1.71,1.71,0,0,1,.48,1.11c0,.21-.57.51-.9.55-.8.1-1.61.05-2.42.08-.2,0-.49,0-.6.16-.63.78-1.28.55-2,.13a1.69,1.69,0,0,0-.87-.15c-1,0-1.3-.43-1.35-1.43a8,8,0,0,0-.68-2c-.4.15-1.13.26-1.15.45a15,15,0,0,0,.09,2.31c0,.55.18,1.38-.1,1.58-.44.33-1.18.24-1.8.32-1.77.25-3.24-1.35-5.13-.75a1.73,1.73,0,0,1-2.07-1,1.2,1.2,0,0,0-1.42-.83c-2.22.5-4.12-.48-6.11-1.09-.13,0-.33-.05-.39-.15-1.11-1.65-3-2-4.61-2.78a1.13,1.13,0,0,1-.32-1c.22-1.07.66-2.11.8-3.18.17-1.36-2.37-3.11-3.69-2.67a.76.76,0,0,1-.68-.23c-.42-1-.73-2-1.13-3a3.74,3.74,0,0,0-1.9-2.21c-.35-.16-.65-.43-1-.61a4.08,4.08,0,0,0-.94-.34,5.47,5.47,0,0,1-1.32-.18,2.45,2.45,0,0,0-3,.76,11.78,11.78,0,0,0-.87,1.22,11.8,11.8,0,0,1-1.41-.19A7.68,7.68,0,0,1,45,344a12.85,12.85,0,0,0-1.48-.75,2.21,2.21,0,0,1-1.72-1.82A11.78,11.78,0,0,0,41,339c-.4-.87.21-1.38.63-1.85s.86-.8-.07-1.32a14,14,0,0,1-2-1.75,2.67,2.67,0,0,0-.81-.34c-.29-.1-.82-.13-.84-.26-.06-.38-.06-1,.17-1.15.76-.64,1.34-1.54,2.55-1.56,1.5,0,1.76-1.35,2.18-2.45,0,0-.09-.16-.11-.16-1.43.51-3.1-.43-4.42.74-.65.58-1.25,1.22-1.95,1.74-.38.28-1.11.64-1.34.48a3,3,0,0,1-.82-1.47,10.87,10.87,0,0,1-.1-1.29,7,7,0,0,0-.41-1c-.11-.27-.33-.57-.28-.81.19-.88-.47-1.07-1-1.24-.7-.21-.78.37-.89.89a8.76,8.76,0,0,1-.58,1.75,1,1,0,0,1-.76.52c-1,0-1.24.18-1.06,1.1-.06,0-.14.12-.17.11a2.53,2.53,0,0,0-2.79.46c-1,.65-1.65.08-1.49-1.11a9.45,9.45,0,0,1,.67-2.24c.21-.52.34-.9-.21-1.3-.22-.16-.47-.6-.4-.81.45-1.39-.35-1.15-1.2-.93A5.45,5.45,0,0,1,23,323c-.47-.92-.13-1.5.88-1.42,1.16.08,1.64-.66,2.1-1.52.09-.17.36-.26.56-.35.46-.21.93-.4,1.49-.63-.23-.29-.29-.44-.4-.49-1-.51-.71-.87.1-1.25s1.41-.74,2.21-1.16c.55,1.14,1.63.67,2.56.61a1.59,1.59,0,0,0,1-.76c.1-.17-.24-.67-.48-.93a7.09,7.09,0,0,0-1.11-.83c-.22,1.28-.67,1.59-1.64.74a5.22,5.22,0,0,0-1.62-.63c.16-.31.28-.53.37-.75a14.57,14.57,0,0,0,1.07-2.57c.27-1.13.91-.67,1.55-.6,1.54.17,3.09.28,4.75.43l-.16-2.39c1.17.15,2.25.24,3.3.44s2.14.59,3.33,0a5.3,5.3,0,0,1,2.62-.3c1.65.08,3.3.27,4.94.5.39.05.75.42,1.11.65a8.1,8.1,0,0,0,1.24.76c.46.16.88.14,1-.56s.59-1.61.72-2.44a2.27,2.27,0,0,0-.47-1.32,6.63,6.63,0,0,1-1.25-4.18A3,3,0,0,1,52,302a4.43,4.43,0,0,1-.79-.51c.28-.25.52-.62.84-.71a17.39,17.39,0,0,1,2.38-.4,14.15,14.15,0,0,0,1.86-.14,5.22,5.22,0,0,0,1.27-.76l-.41-.2a5.88,5.88,0,0,1-.36-1.7c.13-1.39.42-2.76.6-4.15.09-.68.46-.65,1-.57a15.38,15.38,0,0,0,3.72.45c.69-.05,1.39-.8,1.92-1.38.17-.19-.18-.85-.29-1.29-.16-.61-.35-1.22-.46-1.84s.19-1,.79-1.35c.34-.18.47-.73.75-1.06a22.39,22.39,0,0,1,1.85-1.92c.09-.09.74.17.79.36.47,1.92,2.5,2.61,3.31,4.24.06.11.25.14.4.22.57-.72,1.15-1.31,1.94-.27a.69.69,0,0,0,.56.17,2.1,2.1,0,0,1,2.64,1.46,20.92,20.92,0,0,0,1.21,1.85,10.87,10.87,0,0,1,.73,1.76,3.21,3.21,0,0,1,.19.92,1.37,1.37,0,0,1-.08.76,1.62,1.62,0,0,0,.83,2.56,8.21,8.21,0,0,0,4.76.44,3.19,3.19,0,0,1,1.85.27c1,.41,2,1,2.94,1.44a13.58,13.58,0,0,1,1.75.7,5.94,5.94,0,0,1,1.69,1.54c.77,1.19,1.37,2.5,2.08,3.74a1,1,0,0,0,.66.45c2.47,0,4.95,0,7.42-.08a6.93,6.93,0,0,0,1.56-.55,5.31,5.31,0,0,1,1.12-.16,11.14,11.14,0,0,1,1.29,0,7.32,7.32,0,0,1,3.72,1,19.82,19.82,0,0,0,5.08,2c.51.16,1.18-.19,1.78-.3.73,1.1,1.41,1.23,2.37.23,2.09-2.17,4.85-2.74,7.6-3.38a14.14,14.14,0,0,0,2-.73c.23-.09.43-.32.66-.34,3-.29,3-3.43,5.08-4.83a16,16,0,0,0-1.47-.93c-1-.44-1.17-1.2-1.22-2.23-.06-1.43,1.7-2.27,3-1.76.83.32,1.64.7,2.55,1.09.79-.93,1.53-1.82,2.29-2.68.13-.15.39-.35.51-.31,1.16.43,1.85-.6,2.77-.89.18-.06.35-.43.39-.68a2.63,2.63,0,0,1,1.31-2.2c.89-.57,2-.8,2.78-1.77.36-.45,1.74-.08,2.7-.08.7-1.22.56-1.73-.5-2.67-.85-.77-1.53-1.72-2.41-2.45a2.84,2.84,0,0,0-1.7-.56c-.7,0-1,.52-.89,1.28,0,.29-.28.63-.44,1-1.2-.59-2.32-1-3.54-.17-.64.43-1.92-.5-1.86-1.36.08-1.24.24-2.47.39-3.71s.33-2.48.51-3.8a4.28,4.28,0,0,1,1.61.16c.93.53,1.4,0,2-.56.44-.38,1-.55,1.53-.89a2.82,2.82,0,0,0,.88-.94c.06-.12-.41-.48-.59-.75a1.4,1.4,0,0,1-.29-.72,17.82,17.82,0,0,0-.12-4.31c-.14-.65.61-1.53,1-2.25s.05-2.76-.83-3c-.4-.12-.92.18-1.4.28a2.88,2.88,0,0,1,1.5-3.21c1.69-.52,3.32-1.26,5-1.64a5.84,5.84,0,0,1,2.76.39c.82.25,1.53.79,2.42.17a1,1,0,0,1,.92.1,16.27,16.27,0,0,1,2.05,1.65,19,19,0,0,1,2.18,2.39c.79,1.1,1.38,2.33,2.14,3.45.53.78,1.2,1.47,1.78,2.22.23.3.39.64.6,1,.78,1.16.91,2.75,2.31,3.49a2,2,0,0,0,.87.28,4.82,4.82,0,0,1,2.17.41,3.59,3.59,0,0,0,1.77.2c1.36.92,2.25,2.88,4.42,2.06.24.86.8,1.77.64,2.53-.27,1.3,1,1.47,1.22,2.37l1-.36a2,2,0,0,0,3.1-.64c.55-1.42,1.89-2,3-2.83.72-.54,1.68.2,1.84,1.11.09.51.54,1,.69,1.48s.23,1.23.06,1.32c-.84.41-.52,1-.45,1.6.18,1.53.24,3.07.31,4.6a9.07,9.07,0,0,1-.11,1.27c-.09.89-.18,1.78-.3,2.9a21.27,21.27,0,0,0-2.41-.44,1.62,1.62,0,0,0-1.12.41,12.46,12.46,0,0,0-1.24,1.53c1.58,2.12,1.77,4.78,1.82,7.57-.95-.08-1.58.09-.8,1.28l-.38.08L181.67,299a4.73,4.73,0,0,1-3.07,4.67.9.9,0,0,0,0,.19c.29.48.87,1,.81,1.44-.1.89-1,.45-1.52.46-1.09,0-2.23,0-3-1.22a8.59,8.59,0,0,1-.32,1.13,22.4,22.4,0,0,1-1.19,2.64c-.63,1.08-1.42,2.07-2.09,3.13-.31.48-.45,1.06-.75,1.54a1,1,0,0,1-.73.36,5.06,5.06,0,0,0-3.95,2.14,12.35,12.35,0,0,1-2.11,2.22s-.07,0-.17,0l-.66-.8,1.67-.72.14-1-.73.13c-.21-.57-.54-1-.48-1.45a7.32,7.32,0,0,1,.68-1.88,3.08,3.08,0,0,1,.47-.72c.47-.53.27-.84-.28-1.16A14,14,0,0,1,163,309c-.09.05-.24.22-.41.25-.42.08-1.06-.07-1.24.16a6.94,6.94,0,0,0-1.15,2.12c-.23.73-.51,1.29-1.31,1.46-1.2.26-1.26,1.3-1.34,2.19-.16,1.61-.32,1.81-1.82,1.65-.45,0-1.21-.09-1.3.1a3.9,3.9,0,0,0-.32,1.91c0,.4.49.77.78,1.14.11.13.37.18.43.32.51,1.15,1.53,1.14,2.61,1.06.05.35.08.63.11.9.22,1.48,1.17,2.06,2.52,1.55a.68.68,0,0,0,.31-.27c.33-.6.62-1.23,1-1.83s1.66-.63,2.23-.26a4.08,4.08,0,0,0,1.79.69,20.91,20.91,0,0,0,2.83-.19l-.17,2.25c-.06.52-.34.77-.93.32-.2-.15-.67,0-1,.07-.78.29-1.54.64-2.33,1,0,0,.1.16.27.43a6.34,6.34,0,0,0-1.44.87c-.21.21-.11.72-.15,1.1l.29.09c-.53.38-1.42.69-1.51,1.15a9.74,9.74,0,0,0,0,3.53c.07.39,1,.76,1.61.87,1.38.25,1.93,1.26,2.35,2.37a4,4,0,0,0,1.31,2.28c.16.11.16.44.24.67a2.32,2.32,0,0,0,1.46,1.52c.79.32,1.35,1.2,2,1.83l-.18.28-3.13-.33c.85,1.42,3.16,1.39,3.56,3.32-.6.38-1.33.62-1.67,1.11a1.22,1.22,0,0,1-1.75.51c.55.88.88,1.71,1.89.73.14-.12.7.08,1,.26.48.3.91.7,1.47,1.14l-1.83,1.44.18.24,1.89-1,.26,1.06-1.93.63.06.27,1,.16-.51,1.66.66.42c-.14.21-.23.51-.36.53-1.58.22-1.63,1.38-1.71,2.6,0,.33-.39.65-.65,1.05-.08-.06.05,0,.28.25-.67.11-.62,1.48-1.85.74l-.35.72c.63.13-.21,1.6,1.07,1.19l-1.35.84.6.2.11,2.43-.9-1-.3,1.37-.6-.17.57,1.14-.89-.1.52.7-2.33.71,0,.26,1.27.29-2.51,1.88c-1.06-.15-1.06-.15-1.51,2L157.6,373A3.07,3.07,0,0,0,154.35,374.17ZM162,341.72c.82-.05,2.07-.44,2.35-.08.89,1.15,1.55.77,2.38,0-.92.4-1.87.89-2.19-.7C163.73,341.6,162.51,340.66,162,341.72Z" transform="translate(-0.5 -0.48)"/><path class="cls-14" d="M172.82,375.27c-.16-.21-.32-.41-.47-.63s-.42-.93-.77-1.11a2.4,2.4,0,0,1-1.18-2.07,6.39,6.39,0,0,1,.14-3c.57-1.5,1-3.2,2.39-4.24a.89.89,0,0,1,.6-.24c.6.13,1.16,1.32,1.08,1.93-.23,1.58-.38,3.17-.57,4.76,0,.41,0,1-.2,1.22a3.29,3.29,0,0,0-.67,3.18Z" transform="translate(-0.5 -0.48)"/><path class="cls-14" d="M143.62,386.48s-.19-.09-.39-.16c-1.64-.54-2.18-1.22-2.19-2.83a.79.79,0,0,1,.2-.47,5.43,5.43,0,0,1,4.92-2,1.08,1.08,0,0,1,.87,1.73c-.34.55-.38,1.29-.74,1.84a5.94,5.94,0,0,1-1.38,1.31A6.83,6.83,0,0,1,143.62,386.48Z" transform="translate(-0.5 -0.48)"/><circle class="cls-15" cx="301.5" cy="320.5" r="10"/><text class="cls-16" transform="translate(297.7 325.61)">1</text><path class="cls-14" d="M128.09,502.53c.14-.4.25-.74.38-1.08s.43-.65.92-.23a.86.86,0,0,0,.82.11,3.41,3.41,0,0,1,3.19-1c.35.08.78-.16,1.17-.23a.73.73,0,0,1,.42,0,4.36,4.36,0,0,0,3.06.65c.44-.08,1.08-.11,1.24-.39a1.93,1.93,0,0,0,0-1.4c-.53-1.7-2.16-2.62-3-4-.71-1.21-2.2-1.32-2.74-2.65-.16-.4-1.22-.63-1.86-.61-1.05,0-2.17.15-2.68,1.4a5.18,5.18,0,0,1-.78,1.07c-1-.66-1.71-1.79-3.16-1.37-1.09.32-2.51-.39-3.13,1.29l-.31-.05c-.47-.82-1-1.62-1.39-2.48-.08-.19.23-.77.47-.87.62-.25.67-.64.71-1.22a6,6,0,0,1,.48-1.84c.77-1.9,1.58-3.78,2.39-5.67.3-.73.63-1.44.91-2.07,1.53.59,3,1.2,4.55,1.74a1.2,1.2,0,0,0,1-.16c.93-.72,1.76-1.57,2.72-2.24a4.16,4.16,0,0,1,1.79-.65c1.56-.24,1.7-.35,1.7-1.85a2.29,2.29,0,0,1,.11-.49l-.84-.3c.53-1.14,1.05-2.24,1.56-3.35.08-.17.06-.42.17-.55,1.16-1.33,1.36-3.13,2.25-4.56a9.64,9.64,0,0,1,2.18-2.19,2.32,2.32,0,0,0,.59-2.84,4.79,4.79,0,0,1-.05-1.87,2.17,2.17,0,0,0-2.13-.36c-1.28.34-.39-.84-.65-1,.93-1,1.8-1.87,2.61-2.8.61-.7,1.07-1.39,2.27-1.14.52.11,1.14-.29,1.75.19a1.72,1.72,0,0,1,.4,2.72,26.24,26.24,0,0,1-2.1,2c1,.85,1.9,1.64,2.86,2.32.19.14.78,0,1-.26a4,4,0,0,0,.58-1.17c1.22.21,1.1,2.19,2.78,1.8-1,.65-.7,1.33-.52,2,.24.94.4,1.91.59,2.87a2.11,2.11,0,0,0,1.54,1.72c.62.2,1.2.53,1.83.7a.85.85,0,0,0,.79-.2c.56-.89,1.32-.53,2.06-.45a2.26,2.26,0,0,0,.89-.23c.1,0,.2-.22.26-.2,1.63.47,1.94-1,2.74-1.81a2.42,2.42,0,0,1,2,1.53A10.48,10.48,0,0,0,166,470.7c.51.61.87,1.15,0,1.82a1.45,1.45,0,0,0-.61,1.59,1,1,0,0,1-.22.8c-1.41,1.55-2.5,3.22-2.35,5.45.06,1,.05,2.06,0,3.08,0,.59-.16,1.07-1,.7-.15-.07-.66.23-.75.47a21.37,21.37,0,0,0-1.17,3.52,14,14,0,0,0,0,2.82l-.36.09c-.29-.84-.59-1.68-1-2.78-.8.83-1.53,1.62-2.3,2.38-.51.49-1.07.93-1.59,1.42-.2.19-.32.48-.53.67-.51.44-1.07.83-1.58,1.28-.74.64-1.45,1.31-2.39,2.16.76.75,1.34,1.3,1.9,1.87a7.84,7.84,0,0,1,.66.86c.83,1.19,1.13,1.21,2.08.13l.87.51c.1,1.06-.7,1.56-2.65,1.23a7.49,7.49,0,0,0,.34,1.89c.51,1,.39,1.36-.81,1.46a1.93,1.93,0,0,0-.33.08l-.27,2.3-.33.08-1.16-1.39-.63.7L148,504.58l-.73,2c.14,0,.36.18.54.14.52-.09.71.06.77.6a1.64,1.64,0,0,0,.55.81,1.16,1.16,0,0,1-.06,1.92c-.14.1-.33.28-.32.41.08,1.19-.14,2.42.72,3.49a6.65,6.65,0,0,1,.62,1.85c1.21-.13,2.21-1.12,3.42-1.82l1.92,5.31c-1,.82-1,.9.1,1.56.24.14.55.51.5.69-.11.47-.29,1.09-.64,1.29-.7.38-1.39.56-1.85,1.4a1.51,1.51,0,0,1-2,.35,13.44,13.44,0,0,0-1.28-.61l.36,1.43a9,9,0,0,1-1.27-.32c-.53-.23-.81-.16-1,.44-.16.42-.6.72-1,1.14-.7-.88-1.34-.7-1.84,0s-1.42.8-2.19,1.13c-1.39.61-2.12,2-3.13,3.17a6.55,6.55,0,0,0-2.38-4,5.11,5.11,0,0,0-.8.51,1.16,1.16,0,0,0-.31.62c.66.52.17,1.16.21,1.73a15.55,15.55,0,0,0,.21,1.94c.24,1.1-.1,1.53-1.22,1.42l-3.19-.31-.92-2.3c.75-.18.75-.18.45-1.9l-.41.31-1.48-3.33-1.53.13-.33.55a7.8,7.8,0,0,0-1.67.17c-.58.19-1,.51-.72,1.34a1.61,1.61,0,0,1-.37,1.34,1.08,1.08,0,0,1-1.74-.14l-1.46,1.25-.62-.77c-.81.41-2,.62-2.29,1.26-.63,1.15-1.41.48-2.12.66l-.19-3.17a3.13,3.13,0,0,0-2.85,2.51c0,.5-.11.88-.72,1.13s-.77,1.16-.28,1.92l-.61.65,1.1,1.74-.28,1.64c-.73.3-1.59.68-2.47,1-.24.09-.69.1-.8,0-.72-.94-1.3-.25-1.66.23-.49.67-.88.84-1.58.36s-1.1-.21-1.44.44c-.42.81-.91,1.59-1.28,2.42-.3.66-.64,1-1.37.63-.41-.19-.71-.21-1,.4s-.86.76-1.31,1.12l-.23-.22.21-.86c-1.19,0-1.46,1.11-2.06,1.81l-.61-.81c-.7.69-1.1.06-1.69-.62l.15.9c-.94,1-1.73,2-2.56,2.83-.63.66-1.36,1.23-1.95,1.92s-1.09,1.25-.48,2.18c.12.18-.11.59-.17.85-1.5-.24-.59,1-1.17,1.52l-2.65.17c-.13,0-.36,0-.37-.07-.32-1.07-1.59-.68-2-1.26-1.23-1.57-3.28-1.21-4.73-2.21.66-1.21,1.31-2.36,1.89-3.55a1.67,1.67,0,0,0-.11-1c-.16-.51-.39-1-.62-1.6l-1.66.52c-.48.4-1,.63-1.14,1a17.34,17.34,0,0,0-1.18,3.4,22.16,22.16,0,0,0-.16,3.06,1.32,1.32,0,0,1-1.5,1.25,2.63,2.63,0,0,0-1.77.49c-.62.65-1.31.56-2,.63-.27,0-.69,0-.78.18-.46.85-1,.45-1.44.1-1-.68-1.9-1.36-2.84-2-.5-.37-.32-1.37.34-1.89l-.36-1.36A5.23,5.23,0,0,0,68.2,549a31.7,31.7,0,0,0,2.15-2.61c.12-.17-.07-.61-.18-.9-.19-.47-.43-.93-.69-1.49a5.71,5.71,0,0,0-3.65,1.19,2,2,0,0,1-2.35.31,2.33,2.33,0,0,0-2.21.11c-.41.18-.85.3-1.38.48l.89,1.08a1.58,1.58,0,0,1-1.92,1,2,2,0,0,1-1.74-1.71c-1.09,0-1.38-.36-1.65-2.26a3.49,3.49,0,0,1-2.57-1.41c-.77-.82-2.16-1.06-3.4-1.61a12.55,12.55,0,0,0,1.21-1.16,22.8,22.8,0,0,0,2-2.71c.35-.58-.47-1.79-1.14-1.7-1.52.19-3,.51-4.51.81a1.14,1.14,0,0,0-.61.48,2.11,2.11,0,0,1-2.26.82c0-.08-.09-.15-.07-.19.46-1.16.48-2.14-.77-2.92A7.38,7.38,0,0,1,41.81,533c-.34-.4-.43-.82.14-1.13s.45-.68.24-1.16c-.9-2-1.76-4.05-2.69-6.21l5.58.71c1.17.15,2.34.35,3.52.49a2.47,2.47,0,0,0,1.27,0c1.64-.76,3.27-.33,4.92-.06,1.06.17,2.15.22,3.23.3a1.89,1.89,0,0,1,1.79,1,2.4,2.4,0,0,0,1.9,1.38,19.48,19.48,0,0,1,6,2c.62.34,1.63,0,2.46-.1.44,0,.88-.16,1.37-.25l.11,1.16c.72.12,1.41.25,2.11.35.11,0,.23-.1.34-.16,2.45-1.26,4.78-2.89,7.37-3.69a22,22,0,0,1,8.65-1c1.37.13,3,.32,4.3-.71a3.66,3.66,0,0,1,1.27-.52,4.62,4.62,0,0,0,3-2.28,6.42,6.42,0,0,1,3.59-2.88,4.36,4.36,0,0,0,1.9-1.32c.2-.27-.22-1.13-.52-1.62-.48-.78-1.11-1.48-1.66-2.22a.58.58,0,0,1,0-.45c.42-1.06.81-2.14,1.32-3.16a2.37,2.37,0,0,1,3.68-.36,3.13,3.13,0,0,0,1.38.84c1,.27,2,.42,3,.61a.63.63,0,0,0,.45-.09c1.39-1.14,3.17-1.87,3.93-3.71.1-.22.72-.36,1.07-.32,1.72.22,3.39.35,4.75-1.07.27-.28.74-.37,1-.63s.61-.6.61-.9a3.49,3.49,0,0,1,3.7-3.41C127.36,502.5,127.72,502.51,128.09,502.53Z" transform="translate(-0.5 -0.48)"/><circle class="cls-15" cx="311.5" cy="464.5" r="10"/><text class="cls-16" transform="translate(306.7 470.61)">8</text><path class="cls-17" d="M144.37,385.41l2.25-4.52,2.54-4.37,2.74-4.26c1-1.38,1.93-2.78,2.93-4.15a121.06,121.06,0,0,1,13.73-15c1.27-1.13,2.52-2.29,3.82-3.4s2.64-2.14,4-3.17,2.73-2,4.13-3,2.82-1.93,4.26-2.85a115.22,115.22,0,0,1,37.77-15.39,113.46,113.46,0,0,1,20.26-2.5,124,124,0,0,1,20.31,1l5,.86,4.95,1.07L278,327l4.79,1.57-.08.29A122.45,122.45,0,0,0,243,325.1a125.14,125.14,0,0,0-38.86,9,122.77,122.77,0,0,0-34,20.8,117.66,117.66,0,0,0-25.46,30.69Z" transform="translate(-0.5 -0.48)"/><path class="cls-18" d="M143.77,505l2.21-4.21c.75-1.39,1.62-2.72,2.43-4.09s1.7-2.68,2.58-4l1.32-2,1.41-1.93a114,114,0,0,1,12.79-14.31c1.2-1.08,2.37-2.18,3.6-3.23s2.52-2,3.8-3,2.63-1.89,4-2.8,2.73-1.75,4.12-2.59a76.78,76.78,0,0,1,18-7.6,68.7,68.7,0,0,1,19.45-2.3,67,67,0,0,1,19.19,3.42A78.33,78.33,0,0,1,256,464.76c1.31.93,2.64,1.82,3.92,2.78s2.53,2,3.75,3,2.41,2.09,3.58,3.16l3.35,3.38-.2.22c-9.35-8.4-20.36-15.11-32.45-18.65a67.83,67.83,0,0,0-37.19-.46c-12.15,3.27-23.25,9.84-32.71,18.09a124.51,124.51,0,0,0-24,28.95Z" transform="translate(-0.5 -0.48)"/><path class="cls-2" d="M135.89,16.2a10.11,10.11,0,0,1,3.34,6.52h-3.79a7.86,7.86,0,0,0-2.57-4.39,8.13,8.13,0,0,0-5.4-1.62,8.65,8.65,0,0,0-6.84,3c-1.74,2-2.61,5-2.61,9.13A13.24,13.24,0,0,0,120.37,37q2.35,3.13,7,3.14a7.43,7.43,0,0,0,6.55-3.3,12.68,12.68,0,0,0,1.77-4.57h3.79a12.81,12.81,0,0,1-3.36,7.59,11.93,11.93,0,0,1-9.21,3.69,12.14,12.14,0,0,1-8.4-3q-4.47-4-4.48-12.37a15.8,15.8,0,0,1,3.36-10.41,12.3,12.3,0,0,1,10-4.41Q132.89,13.33,135.89,16.2Z" transform="translate(-0.5 -0.48)"/><path class="cls-2" d="M143.76,14h3.52V24.72a10.08,10.08,0,0,1,2.24-2.23,7.62,7.62,0,0,1,4.24-1.11c3,0,5.09,1.06,6.17,3.18a10.8,10.8,0,0,1,.88,4.82V42.8H157.2V29.62a7.38,7.38,0,0,0-.59-3.38c-.63-1.15-1.83-1.72-3.59-1.72a6,6,0,0,0-4,1.5c-1.18,1-1.77,2.9-1.77,5.69V42.8h-3.52Z" transform="translate(-0.5 -0.48)"/><path class="cls-2" d="M177.22,30.13a1.92,1.92,0,0,0,1.62-1,3,3,0,0,0,.23-1.35,2.83,2.83,0,0,0-1.28-2.6,6.85,6.85,0,0,0-3.66-.81c-1.83,0-3.14.49-3.9,1.48a4.89,4.89,0,0,0-.84,2.44h-3.28q.09-3.87,2.51-5.38a10.26,10.26,0,0,1,5.59-1.51,11.48,11.48,0,0,1,6,1.4,4.78,4.78,0,0,1,2.28,4.38V39.21a1.55,1.55,0,0,0,.23.88,1.07,1.07,0,0,0,.94.33l.53,0,.63-.09v2.6a9.55,9.55,0,0,1-1.25.29,9,9,0,0,1-1.18.06A2.87,2.87,0,0,1,179.76,42a4.92,4.92,0,0,1-.61-1.93,8.84,8.84,0,0,1-3.08,2.44,9.56,9.56,0,0,1-4.44,1,6.57,6.57,0,0,1-4.75-1.77A5.89,5.89,0,0,1,165,37.31a5.7,5.7,0,0,1,1.82-4.51,8.64,8.64,0,0,1,4.76-2Zm-7.4,9.51a4.15,4.15,0,0,0,2.63.88,8.08,8.08,0,0,0,3.6-.86A4.85,4.85,0,0,0,179,35V32.16a6.15,6.15,0,0,1-1.66.68,14.69,14.69,0,0,1-2,.39l-2.12.28a7.89,7.89,0,0,0-2.88.8,3.11,3.11,0,0,0-1.62,2.93A2.89,2.89,0,0,0,169.82,39.64Z" transform="translate(-0.5 -0.48)"/><path class="cls-2" d="M188.25,21.88h3.34v3a9.33,9.33,0,0,1,3.15-2.63,8.29,8.29,0,0,1,3.69-.8c3,0,5,1,6,3.1a11.06,11.06,0,0,1,.85,4.86V42.8h-3.57V29.62a7.1,7.1,0,0,0-.57-3.09,3.42,3.42,0,0,0-3.39-2,7,7,0,0,0-2.06.25A5.77,5.77,0,0,0,192,28.69a14.88,14.88,0,0,0-.26,3.16V42.8h-3.52Z" transform="translate(-0.5 -0.48)"/><path class="cls-2" d="M222.18,22.72a9.72,9.72,0,0,1,2,2V22.08h3.24v19a14,14,0,0,1-1.17,6.29q-2.19,4.26-8.26,4.26a10.19,10.19,0,0,1-5.68-1.51,5.9,5.9,0,0,1-2.58-4.74h3.57a4,4,0,0,0,1,2.17,5.17,5.17,0,0,0,3.75,1.17c2.69,0,4.46-1,5.29-2.85a16.18,16.18,0,0,0,.68-6,6.89,6.89,0,0,1-2.53,2.38,9.07,9.07,0,0,1-9.88-1.63q-2.55-2.4-2.55-8c0-3.51.86-6.24,2.57-8.21a8,8,0,0,1,6.2-2.95A7.68,7.68,0,0,1,222.18,22.72Zm.43,3.77a5.13,5.13,0,0,0-4.08-1.87,5,5,0,0,0-5.08,3.48,13.61,13.61,0,0,0-.72,4.86,8.69,8.69,0,0,0,1.43,5.38A4.63,4.63,0,0,0,218,40.18a5.41,5.41,0,0,0,5.33-3.41,11.1,11.1,0,0,0,.86-4.51Q224.21,28.36,222.61,26.49Z" transform="translate(-0.5 -0.48)"/><path class="cls-2" d="M233.49,22.45a2.2,2.2,0,0,0,1.63-1.21,5,5,0,0,0,.56-2.38c0-.09,0-.18,0-.25s0-.15,0-.24h-2.13V14.11h4.18V18a8.17,8.17,0,0,1-1,4.24,4,4,0,0,1-3.14,2Z" transform="translate(-0.5 -0.48)"/><path class="cls-2" d="M254.66,22.46a8,8,0,0,1,3.18,2.71,9.12,9.12,0,0,1,1.41,3.69,24,24,0,0,1,.31,4.61H244.23a8.94,8.94,0,0,0,1.5,5.1,5,5,0,0,0,4.36,1.93,5.62,5.62,0,0,0,4.39-1.82,6.06,6.06,0,0,0,1.33-2.44h3.46a7.19,7.19,0,0,1-.91,2.57,9.05,9.05,0,0,1-1.73,2.31,8.19,8.19,0,0,1-4,2.11,12,12,0,0,1-2.87.31,8.78,8.78,0,0,1-6.62-2.84c-1.81-1.89-2.72-4.55-2.72-8a12,12,0,0,1,2.74-8.18,9,9,0,0,1,7.14-3.14A9.48,9.48,0,0,1,254.66,22.46ZM256,30.67A9.06,9.06,0,0,0,255,27a5.1,5.1,0,0,0-4.82-2.54,5.31,5.31,0,0,0-4.06,1.75,6.55,6.55,0,0,0-1.74,4.44Z" transform="translate(-0.5 -0.48)"/><path class="cls-2" d="M277.36,35.67a4.85,4.85,0,0,0,2.79,4.16,6.75,6.75,0,0,0,2.89.59,5.42,5.42,0,0,0,4.63-2,7.18,7.18,0,0,0,1.5-4.42,5.75,5.75,0,0,0-1.79-4.53,6.18,6.18,0,0,0-4.28-1.6,6.48,6.48,0,0,0-3.12.7,6.65,6.65,0,0,0-2.21,2l-3-.18,2.13-15.06h14.53v3.4h-11.9l-1.19,7.77a8.92,8.92,0,0,1,1.86-1.11,9.38,9.38,0,0,1,3.61-.64,9.23,9.23,0,0,1,6.53,2.48A8.21,8.21,0,0,1,293,33.49a10.82,10.82,0,0,1-2.45,7q-2.44,3-7.82,3a10,10,0,0,1-6.05-1.93,7.63,7.63,0,0,1-2.94-5.91Z" transform="translate(-0.5 -0.48)"/><path class="cls-2" d="M226.61,338.6h3.49a3.28,3.28,0,0,1,2.75,1.26,4.64,4.64,0,0,1,.87,2.91,5.88,5.88,0,0,1-.51,2.48,3.19,3.19,0,0,1-3.12,1.95h-3.48Zm3.25,7.61a3.36,3.36,0,0,0,1-.12,2.21,2.21,0,0,0,1.11-.88,3.64,3.64,0,0,0,.5-1.34,4.9,4.9,0,0,0,.09-.9,4.24,4.24,0,0,0-.64-2.49,2.35,2.35,0,0,0-2.05-.88h-2.07v6.61Z" transform="translate(-0.5 -0.48)"/><path class="cls-2" d="M239,341.1a2.42,2.42,0,0,1,1,.81,2.85,2.85,0,0,1,.42,1.11,7.53,7.53,0,0,1,.09,1.38h-4.6a2.73,2.73,0,0,0,.45,1.54,1.54,1.54,0,0,0,1.31.57,1.7,1.7,0,0,0,1.32-.54,1.87,1.87,0,0,0,.4-.73h1a2.2,2.2,0,0,1-.28.77,2.5,2.5,0,0,1-.52.69,2.45,2.45,0,0,1-1.19.63,3.22,3.22,0,0,1-.86.1,2.63,2.63,0,0,1-2-.86,3.26,3.26,0,0,1-.82-2.38,3.65,3.65,0,0,1,.82-2.46,2.71,2.71,0,0,1,2.15-.94A2.85,2.85,0,0,1,239,341.1Zm.39,2.47a2.62,2.62,0,0,0-.3-1.1,1.53,1.53,0,0,0-1.45-.76,1.61,1.61,0,0,0-1.22.52,2,2,0,0,0-.52,1.34Z" transform="translate(-0.5 -0.48)"/><path class="cls-2" d="M242.38,345.24a1.51,1.51,0,0,0,.27.8,1.65,1.65,0,0,0,1.38.51,2,2,0,0,0,1-.25.84.84,0,0,0,.45-.79.66.66,0,0,0-.36-.61,3.76,3.76,0,0,0-.9-.3l-.84-.21a4.41,4.41,0,0,1-1.18-.45,1.31,1.31,0,0,1-.68-1.18,1.78,1.78,0,0,1,.64-1.44,2.54,2.54,0,0,1,1.72-.56,2.39,2.39,0,0,1,2.05.84,1.79,1.79,0,0,1,.38,1.13h-1a1.25,1.25,0,0,0-.25-.65,1.63,1.63,0,0,0-1.26-.41,1.42,1.42,0,0,0-.9.23.7.7,0,0,0-.31.6.75.75,0,0,0,.4.66,2.67,2.67,0,0,0,.69.25l.7.17a5.35,5.35,0,0,1,1.53.54,1.4,1.4,0,0,1,.61,1.27,2,2,0,0,1-.63,1.45,2.75,2.75,0,0,1-1.94.6,2.58,2.58,0,0,1-2-.63,2.41,2.41,0,0,1-.63-1.57Z" transform="translate(-0.5 -0.48)"/><path class="cls-2" d="M247.68,341h1v.83a2.52,2.52,0,0,1,.69-.66,2.21,2.21,0,0,1,1.26-.35,2.37,2.37,0,0,1,1.81.81,3.4,3.4,0,0,1,.74,2.34,3.6,3.6,0,0,1-1.07,2.93,2.42,2.42,0,0,1-1.58.56,2.11,2.11,0,0,1-1.19-.32,2.43,2.43,0,0,1-.63-.6v3.21h-1Zm3.95,4.92a2.92,2.92,0,0,0,.49-1.85,3.56,3.56,0,0,0-.21-1.29,1.59,1.59,0,0,0-3,.06,4.18,4.18,0,0,0-.22,1.49,3,3,0,0,0,.22,1.23,1.58,1.58,0,0,0,2.72.36Z" transform="translate(-0.5 -0.48)"/><path class="cls-2" d="M258.34,341.1a2.32,2.32,0,0,1,1,.81,2.72,2.72,0,0,1,.43,1.11,7.53,7.53,0,0,1,.09,1.38h-4.6a2.73,2.73,0,0,0,.45,1.54,1.52,1.52,0,0,0,1.31.57,1.7,1.7,0,0,0,1.32-.54,2,2,0,0,0,.4-.73h1a2.16,2.16,0,0,1-.27.77,2.71,2.71,0,0,1-.52.69,2.49,2.49,0,0,1-1.19.63,3.22,3.22,0,0,1-.86.1,2.66,2.66,0,0,1-2-.86,3.3,3.3,0,0,1-.81-2.38,3.6,3.6,0,0,1,.82-2.46,2.7,2.7,0,0,1,2.14-.94A2.86,2.86,0,0,1,258.34,341.1Zm.39,2.47a3,3,0,0,0-.3-1.1,1.53,1.53,0,0,0-1.45-.76,1.61,1.61,0,0,0-1.22.52,2,2,0,0,0-.52,1.34Z" transform="translate(-0.5 -0.48)"/><path class="cls-2" d="M264.61,341.18a3.1,3.1,0,0,1,.61.6V341h1v5.7a4.27,4.27,0,0,1-.35,1.89,2.53,2.53,0,0,1-2.48,1.28,3,3,0,0,1-1.7-.46,1.78,1.78,0,0,1-.78-1.42H262a1.2,1.2,0,0,0,.3.65,1.52,1.52,0,0,0,1.12.36,1.55,1.55,0,0,0,1.59-.86,4.83,4.83,0,0,0,.21-1.8,2.16,2.16,0,0,1-.76.72,2.63,2.63,0,0,1-1.18.23,2.53,2.53,0,0,1-1.79-.72,3.2,3.2,0,0,1-.76-2.4,3.64,3.64,0,0,1,.77-2.46,2.37,2.37,0,0,1,1.86-.88A2.32,2.32,0,0,1,264.61,341.18Zm.13,1.13a1.56,1.56,0,0,0-1.23-.56,1.51,1.51,0,0,0-1.52,1,4.19,4.19,0,0,0-.22,1.46,2.65,2.65,0,0,0,.43,1.62,1.43,1.43,0,0,0,1.16.55,1.62,1.62,0,0,0,1.6-1,3.28,3.28,0,0,0,.26-1.35A2.63,2.63,0,0,0,264.74,342.31Z" transform="translate(-0.5 -0.48)"/><path class="cls-2" d="M272.36,341.56a3.14,3.14,0,0,1,.84,2.37,4.09,4.09,0,0,1-.74,2.51,2.66,2.66,0,0,1-2.29,1,2.61,2.61,0,0,1-2.06-.87,3.52,3.52,0,0,1-.76-2.36,3.79,3.79,0,0,1,.8-2.52,2.72,2.72,0,0,1,2.16-.93A2.84,2.84,0,0,1,272.36,341.56Zm-.65,4.17a4,4,0,0,0,.39-1.77,3.28,3.28,0,0,0-.28-1.43,1.6,1.6,0,0,0-1.54-.86,1.49,1.49,0,0,0-1.4.74,3.34,3.34,0,0,0-.44,1.78,3,3,0,0,0,.44,1.67,1.54,1.54,0,0,0,1.39.66A1.45,1.45,0,0,0,271.71,345.73Zm-.17-7.33L270,340.1h-.81l1.07-1.7Z" transform="translate(-0.5 -0.48)"/><path class="cls-2" d="M281.7,341.1a2.46,2.46,0,0,1,.95.81,2.85,2.85,0,0,1,.42,1.11,7.33,7.33,0,0,1,.1,1.38h-4.6a2.73,2.73,0,0,0,.45,1.54,1.5,1.5,0,0,0,1.3.57,1.69,1.69,0,0,0,1.32-.54,1.87,1.87,0,0,0,.4-.73h1a2.38,2.38,0,0,1-.27.77,3,3,0,0,1-.52.69,2.49,2.49,0,0,1-1.19.63,3.28,3.28,0,0,1-.86.1,2.65,2.65,0,0,1-2-.86,3.3,3.3,0,0,1-.81-2.38,3.6,3.6,0,0,1,.82-2.46,2.69,2.69,0,0,1,2.14-.94A2.86,2.86,0,0,1,281.7,341.1Zm.38,2.47a2.62,2.62,0,0,0-.3-1.1,1.52,1.52,0,0,0-1.44-.76,1.6,1.6,0,0,0-1.22.52,2,2,0,0,0-.52,1.34Z" transform="translate(-0.5 -0.48)"/><path class="cls-2" d="M284.49,338.6h1.05v8.6h-1.05Z" transform="translate(-0.5 -0.48)"/><path class="cls-2" d="M290.51,345.32a3.64,3.64,0,0,1,1.52-1.46l1.13-.65a5.37,5.37,0,0,0,1.06-.75,1.56,1.56,0,0,0,.48-1.11,1.58,1.58,0,0,0-.44-1.17,1.61,1.61,0,0,0-1.17-.43,1.51,1.51,0,0,0-1.5.82,3,3,0,0,0-.25,1.22h-1.07a3.73,3.73,0,0,1,.4-1.79,2.55,2.55,0,0,1,2.42-1.22,2.48,2.48,0,0,1,2.77,2.52,2.33,2.33,0,0,1-.71,1.72,6.86,6.86,0,0,1-1.47,1l-.8.44a5.34,5.34,0,0,0-.9.61,2.17,2.17,0,0,0-.74,1.13h4.58v1h-5.76A4.86,4.86,0,0,1,290.51,345.32Z" transform="translate(-0.5 -0.48)"/><path class="cls-2" d="M297.32,346.62a3,3,0,0,1-.67-2h1.1a2.89,2.89,0,0,0,.3,1.18,1.62,1.62,0,0,0,1.49.66,2,2,0,0,0,1.33-.44,1.46,1.46,0,0,0,.51-1.15,1.34,1.34,0,0,0-.53-1.21,2.64,2.64,0,0,0-1.48-.35h-.43v-.93l.27,0h.25a2.15,2.15,0,0,0,1-.19,1.2,1.2,0,0,0,.67-1.17,1.15,1.15,0,0,0-.45-1,1.71,1.71,0,0,0-1-.34,1.54,1.54,0,0,0-1.46.71,2.51,2.51,0,0,0-.25,1.1h-1a3.18,3.18,0,0,1,.37-1.6,2.37,2.37,0,0,1,2.27-1.17,3.08,3.08,0,0,1,2,.57,2,2,0,0,1,.7,1.66,1.88,1.88,0,0,1-.41,1.25,1.8,1.8,0,0,1-.67.47,1.84,1.84,0,0,1,1,.7,2.12,2.12,0,0,1,.37,1.27,2.59,2.59,0,0,1-.79,2,3.11,3.11,0,0,1-2.24.75A2.66,2.66,0,0,1,297.32,346.62Z" transform="translate(-0.5 -0.48)"/><path class="cls-2" d="M310.61,341.12a2.76,2.76,0,0,1,.63.62v-3.17h1v8.63h-.95v-.87a2.31,2.31,0,0,1-.87.84,2.57,2.57,0,0,1-1.16.26,2.38,2.38,0,0,1-1.82-.88,3.46,3.46,0,0,1-.76-2.35,4,4,0,0,1,.7-2.38,2.53,2.53,0,0,1,3.21-.7Zm-2.37,4.71a1.5,1.5,0,0,0,1.37.68,1.43,1.43,0,0,0,1.2-.63,3,3,0,0,0,.48-1.81,2.7,2.7,0,0,0-.49-1.76,1.53,1.53,0,0,0-1.2-.57,1.57,1.57,0,0,0-1.29.61,2.77,2.77,0,0,0-.5,1.79A3.1,3.1,0,0,0,308.24,345.83Z" transform="translate(-0.5 -0.48)"/><path class="cls-2" d="M317.72,341.1a2.42,2.42,0,0,1,1,.81,2.85,2.85,0,0,1,.42,1.11,7.33,7.33,0,0,1,.1,1.38h-4.6a2.73,2.73,0,0,0,.45,1.54,1.5,1.5,0,0,0,1.3.57,1.7,1.7,0,0,0,1.32-.54,1.87,1.87,0,0,0,.4-.73h1a2.2,2.2,0,0,1-.28.77,2.69,2.69,0,0,1-.51.69,2.49,2.49,0,0,1-1.19.63,3.28,3.28,0,0,1-.86.1,2.63,2.63,0,0,1-2-.86,3.3,3.3,0,0,1-.82-2.38,3.61,3.61,0,0,1,.83-2.46,2.69,2.69,0,0,1,2.14-.94A2.79,2.79,0,0,1,317.72,341.1Zm.39,2.47a2.62,2.62,0,0,0-.3-1.1,1.52,1.52,0,0,0-1.44-.76,1.58,1.58,0,0,0-1.22.52,2,2,0,0,0-.53,1.34Z" transform="translate(-0.5 -0.48)"/><path class="cls-2" d="M323.82,340.93h1v.89a2.72,2.72,0,0,1,.94-.79,2.51,2.51,0,0,1,1.11-.24,1.82,1.82,0,0,1,1.8.93,3.35,3.35,0,0,1,.26,1.46v4h-1.07v-3.95a2.24,2.24,0,0,0-.17-.93,1,1,0,0,0-1-.58,2.16,2.16,0,0,0-.62.07,1.6,1.6,0,0,0-.76.52,1.48,1.48,0,0,0-.34.64,4.52,4.52,0,0,0-.08.95v3.28h-1.06Z" transform="translate(-0.5 -0.48)"/><path class="cls-2" d="M335.08,341.56a3.14,3.14,0,0,1,.84,2.37,4.09,4.09,0,0,1-.74,2.51,2.67,2.67,0,0,1-2.29,1,2.61,2.61,0,0,1-2.06-.87,3.47,3.47,0,0,1-.76-2.36,3.79,3.79,0,0,1,.8-2.52,2.72,2.72,0,0,1,2.16-.93A2.84,2.84,0,0,1,335.08,341.56Zm-.65,4.17a4,4,0,0,0,.39-1.77,3.28,3.28,0,0,0-.28-1.43,1.6,1.6,0,0,0-1.54-.86,1.52,1.52,0,0,0-1.41.74,3.43,3.43,0,0,0-.44,1.78,3,3,0,0,0,.44,1.67,1.57,1.57,0,0,0,1.4.66A1.45,1.45,0,0,0,334.43,345.73Z" transform="translate(-0.5 -0.48)"/><path class="cls-2" d="M337.69,340.93l1.67,5.11,1.76-5.11h1.15l-2.37,6.27h-1.12l-2.32-6.27Z" transform="translate(-0.5 -0.48)"/><path class="cls-2" d="M343.17,338.6h1.07v1.19h-1.07Zm0,2.36h1.07v6.24h-1.07Z" transform="translate(-0.5 -0.48)"/><path class="cls-2" d="M349.75,341.1a2.46,2.46,0,0,1,.95.81,2.85,2.85,0,0,1,.42,1.11,6.56,6.56,0,0,1,.1,1.38h-4.6a2.73,2.73,0,0,0,.45,1.54,1.52,1.52,0,0,0,1.31.57,1.67,1.67,0,0,0,1.31-.54,1.87,1.87,0,0,0,.4-.73h1a2.38,2.38,0,0,1-.27.77,3,3,0,0,1-.52.69,2.49,2.49,0,0,1-1.19.63,3.28,3.28,0,0,1-.86.1,2.65,2.65,0,0,1-2-.86,3.3,3.3,0,0,1-.81-2.38,3.6,3.6,0,0,1,.82-2.46,2.69,2.69,0,0,1,2.14-.94A2.86,2.86,0,0,1,349.75,341.1Zm.38,2.47a2.62,2.62,0,0,0-.3-1.1,1.52,1.52,0,0,0-1.44-.76,1.6,1.6,0,0,0-1.22.52,2,2,0,0,0-.52,1.34Z" transform="translate(-0.5 -0.48)"/><path class="cls-2" d="M352.51,340.93h1v.89a3.5,3.5,0,0,1,.68-.67,2.06,2.06,0,0,1,1.19-.36,1.81,1.81,0,0,1,1.2.37,1.84,1.84,0,0,1,.47.62,2.26,2.26,0,0,1,.83-.75,2.34,2.34,0,0,1,1.07-.24,1.74,1.74,0,0,1,1.72.91A3.06,3.06,0,0,1,361,343v4.17h-1.1v-4.35a1.06,1.06,0,0,0-.31-.87,1.3,1.3,0,0,0-.77-.23,1.52,1.52,0,0,0-1.07.42,1.8,1.8,0,0,0-.45,1.38v3.65h-1.07v-4.09a2.12,2.12,0,0,0-.15-.93.92.92,0,0,0-.9-.44,1.51,1.51,0,0,0-1.08.46,2.26,2.26,0,0,0-.49,1.68v3.32h-1.06Z" transform="translate(-0.5 -0.48)"/><path class="cls-2" d="M362.43,338.57h1v3.12a2.38,2.38,0,0,1,.83-.69,2.3,2.3,0,0,1,1-.24,2.43,2.43,0,0,1,1.9.81A3.43,3.43,0,0,1,368,344a4.08,4.08,0,0,1-.72,2.47,2.33,2.33,0,0,1-2,1,2,2,0,0,1-1.2-.34,2.88,2.88,0,0,1-.63-.66v.8h-1Zm4,7.22a3.36,3.36,0,0,0,.42-1.79,3,3,0,0,0-.42-1.64,1.4,1.4,0,0,0-1.25-.65,1.8,1.8,0,0,0-1.27.53,2.41,2.41,0,0,0-.54,1.76,3.78,3.78,0,0,0,.23,1.43,1.52,1.52,0,0,0,1.55,1A1.39,1.39,0,0,0,366.45,345.79Z" transform="translate(-0.5 -0.48)"/><path class="cls-2" d="M369.21,340.93h1V342a2.5,2.5,0,0,1,.61-.77,1.57,1.57,0,0,1,1.1-.45h.1l.24,0v1.11l-.17,0h-.17a1.53,1.53,0,0,0-1.23.51,1.84,1.84,0,0,0-.42,1.19v3.6h-1.06Z" transform="translate(-0.5 -0.48)"/><path class="cls-2" d="M377.09,341.1a2.46,2.46,0,0,1,1,.81,2.85,2.85,0,0,1,.42,1.11,6.56,6.56,0,0,1,.1,1.38H374a2.73,2.73,0,0,0,.45,1.54,1.5,1.5,0,0,0,1.3.57A1.68,1.68,0,0,0,377,346a1.87,1.87,0,0,0,.4-.73h1a2.38,2.38,0,0,1-.27.77,3,3,0,0,1-.52.69,2.49,2.49,0,0,1-1.19.63,3.28,3.28,0,0,1-.86.1,2.65,2.65,0,0,1-2-.86,3.3,3.3,0,0,1-.81-2.38,3.6,3.6,0,0,1,.82-2.46,2.69,2.69,0,0,1,2.14-.94A2.86,2.86,0,0,1,377.09,341.1Zm.38,2.47a2.62,2.62,0,0,0-.3-1.1,1.52,1.52,0,0,0-1.44-.76,1.6,1.6,0,0,0-1.22.52,2,2,0,0,0-.52,1.34Z" transform="translate(-0.5 -0.48)"/><path class="cls-2" d="M240.88,355.52a3,3,0,0,1,.64.62V353h1v8.63h-.95v-.87a2.26,2.26,0,0,1-.88.84,2.5,2.5,0,0,1-1.15.26,2.36,2.36,0,0,1-1.82-.88,3.46,3.46,0,0,1-.77-2.35,4.1,4.1,0,0,1,.7-2.38,2.3,2.3,0,0,1,2-1A2.23,2.23,0,0,1,240.88,355.52Zm-2.36,4.71a1.5,1.5,0,0,0,1.37.68,1.43,1.43,0,0,0,1.2-.63,2.94,2.94,0,0,0,.47-1.81,2.7,2.7,0,0,0-.48-1.76,1.53,1.53,0,0,0-1.2-.57,1.58,1.58,0,0,0-1.3.61,2.77,2.77,0,0,0-.49,1.79A3.1,3.1,0,0,0,238.52,360.23Z" transform="translate(-0.5 -0.48)"/><path class="cls-2" d="M248,355.5a2.42,2.42,0,0,1,1,.81,2.85,2.85,0,0,1,.42,1.11,7.53,7.53,0,0,1,.09,1.38h-4.6a2.73,2.73,0,0,0,.45,1.54,1.54,1.54,0,0,0,1.31.57,1.7,1.7,0,0,0,1.32-.54,1.87,1.87,0,0,0,.4-.73h1a2,2,0,0,1-.27.77,2.5,2.5,0,0,1-.52.69,2.45,2.45,0,0,1-1.19.63,3.22,3.22,0,0,1-.86.1,2.63,2.63,0,0,1-2-.86,3.26,3.26,0,0,1-.82-2.38,3.65,3.65,0,0,1,.82-2.46,2.71,2.71,0,0,1,2.15-.94A2.85,2.85,0,0,1,248,355.5Zm.39,2.47a2.62,2.62,0,0,0-.3-1.1,1.53,1.53,0,0,0-1.45-.76,1.61,1.61,0,0,0-1.22.52,2,2,0,0,0-.52,1.34Z" transform="translate(-0.5 -0.48)"/><path class="cls-2" d="M250.8,353h1v8.6h-1Z" transform="translate(-0.5 -0.48)"/><path class="cls-2" d="M256.82,359.72a3.58,3.58,0,0,1,1.52-1.46l1.12-.65a4.82,4.82,0,0,0,1.06-.75,1.64,1.64,0,0,0,0-2.28,1.62,1.62,0,0,0-1.17-.43,1.55,1.55,0,0,0-1.5.82,2.83,2.83,0,0,0-.24,1.22h-1.08a3.85,3.85,0,0,1,.41-1.79,2.54,2.54,0,0,1,2.42-1.22,2.5,2.5,0,0,1,2.77,2.52,2.37,2.37,0,0,1-.71,1.72,6.86,6.86,0,0,1-1.47,1l-.8.44a5.12,5.12,0,0,0-.9.61,2.11,2.11,0,0,0-.74,1.13h4.58v1h-5.76A4.86,4.86,0,0,1,256.82,359.72Z" transform="translate(-0.5 -0.48)"/><path class="cls-2" d="M268.27,354.56a6,6,0,0,1,.56,2.84,6.85,6.85,0,0,1-.51,2.83,2.48,2.48,0,0,1-2.41,1.6,2.4,2.4,0,0,1-2.25-1.31,6,6,0,0,1-.62-2.94,7.49,7.49,0,0,1,.37-2.46,2.53,2.53,0,0,1,2.5-1.91A2.48,2.48,0,0,1,268.27,354.56Zm-1.06,5.59a5.33,5.33,0,0,0,.49-2.71,6.52,6.52,0,0,0-.36-2.35,1.33,1.33,0,0,0-1.36-.93,1.43,1.43,0,0,0-1.36.88,6,6,0,0,0-.43,2.58,6.42,6.42,0,0,0,.27,2.06,1.49,1.49,0,0,0,1.44,1.19A1.51,1.51,0,0,0,267.21,360.15Z" transform="translate(-0.5 -0.48)"/><path class="cls-2" d="M270.17,359.72a3.52,3.52,0,0,1,1.52-1.46l1.12-.65a5.08,5.08,0,0,0,1.06-.75,1.64,1.64,0,0,0,0-2.28,1.62,1.62,0,0,0-1.17-.43,1.55,1.55,0,0,0-1.5.82,3,3,0,0,0-.25,1.22h-1.07a3.73,3.73,0,0,1,.41-1.79,2.53,2.53,0,0,1,2.42-1.22,2.5,2.5,0,0,1,2.77,2.52,2.37,2.37,0,0,1-.71,1.72,7.13,7.13,0,0,1-1.47,1l-.8.44a5.68,5.68,0,0,0-.91.61,2.23,2.23,0,0,0-.74,1.13h4.59v1h-5.76A4.86,4.86,0,0,1,270.17,359.72Z" transform="translate(-0.5 -0.48)"/><path class="cls-2" d="M281.62,354.56a6,6,0,0,1,.56,2.84,6.85,6.85,0,0,1-.51,2.83,2.49,2.49,0,0,1-2.41,1.6,2.4,2.4,0,0,1-2.25-1.31,6,6,0,0,1-.62-2.94,7.24,7.24,0,0,1,.37-2.46,2.52,2.52,0,0,1,2.5-1.91A2.48,2.48,0,0,1,281.62,354.56Zm-1.06,5.59a5.35,5.35,0,0,0,.48-2.71,6.54,6.54,0,0,0-.35-2.35,1.33,1.33,0,0,0-1.36-.93A1.45,1.45,0,0,0,278,355a7.85,7.85,0,0,0-.15,4.64,1.49,1.49,0,0,0,1.44,1.19A1.51,1.51,0,0,0,280.56,360.15Z" transform="translate(-0.5 -0.48)"/><path class="cls-2" d="M290.71,355.5a2.46,2.46,0,0,1,1,.81,2.85,2.85,0,0,1,.42,1.11,7.33,7.33,0,0,1,.1,1.38h-4.6a2.73,2.73,0,0,0,.45,1.54,1.5,1.5,0,0,0,1.3.57,1.7,1.7,0,0,0,1.32-.54,1.87,1.87,0,0,0,.4-.73h1a2.38,2.38,0,0,1-.27.77,3,3,0,0,1-.52.69,2.49,2.49,0,0,1-1.19.63,3.28,3.28,0,0,1-.86.1,2.63,2.63,0,0,1-2-.86,3.3,3.3,0,0,1-.81-2.38,3.6,3.6,0,0,1,.82-2.46,2.69,2.69,0,0,1,2.14-.94A2.86,2.86,0,0,1,290.71,355.5Zm.38,2.47a2.62,2.62,0,0,0-.3-1.1,1.52,1.52,0,0,0-1.44-.76,1.6,1.6,0,0,0-1.22.52,1.94,1.94,0,0,0-.52,1.34Z" transform="translate(-0.5 -0.48)"/><path class="cls-2" d="M293.47,355.33h1v.89a2.75,2.75,0,0,1,.95-.79,2.5,2.5,0,0,1,1.1-.24,1.83,1.83,0,0,1,1.81.93,3.35,3.35,0,0,1,.26,1.46v4h-1.08v-4a2.09,2.09,0,0,0-.17-.93,1,1,0,0,0-1-.58,2.09,2.09,0,0,0-.61.07,1.6,1.6,0,0,0-.76.52,1.63,1.63,0,0,0-.35.64,4.65,4.65,0,0,0-.07.95v3.28h-1.06Z" transform="translate(-0.5 -0.48)"/><path class="cls-2" d="M307.39,355.5a2.46,2.46,0,0,1,.95.81,2.85,2.85,0,0,1,.42,1.11,6.56,6.56,0,0,1,.1,1.38h-4.6a2.73,2.73,0,0,0,.45,1.54,1.52,1.52,0,0,0,1.31.57,1.67,1.67,0,0,0,1.31-.54,1.87,1.87,0,0,0,.4-.73h1a2.38,2.38,0,0,1-.27.77,3,3,0,0,1-.52.69,2.49,2.49,0,0,1-1.19.63,3.22,3.22,0,0,1-.86.1,2.65,2.65,0,0,1-2-.86,3.3,3.3,0,0,1-.81-2.38,3.6,3.6,0,0,1,.82-2.46,2.69,2.69,0,0,1,2.14-.94A2.86,2.86,0,0,1,307.39,355.5Zm.38,2.47a2.62,2.62,0,0,0-.3-1.1,1.51,1.51,0,0,0-1.44-.76,1.6,1.6,0,0,0-1.22.52,2,2,0,0,0-.52,1.34Z" transform="translate(-0.5 -0.48)"/><path class="cls-2" d="M310.18,353h1.06v8.6h-1.06Z" transform="translate(-0.5 -0.48)"/><path class="cls-2" d="M322.46,353.62a3.08,3.08,0,0,1,1,2h-1.14a2.38,2.38,0,0,0-.77-1.32,2.45,2.45,0,0,0-1.62-.48,2.57,2.57,0,0,0-2.05.89,4.09,4.09,0,0,0-.78,2.74,4,4,0,0,0,.7,2.45,2.46,2.46,0,0,0,2.11.94,2.22,2.22,0,0,0,2-1,3.6,3.6,0,0,0,.53-1.37h1.14a3.86,3.86,0,0,1-1,2.28,3.56,3.56,0,0,1-2.76,1.11,3.68,3.68,0,0,1-2.52-.91,5.6,5.6,0,0,1-.34-6.83,3.67,3.67,0,0,1,3-1.33A3.55,3.55,0,0,1,322.46,353.62Z" transform="translate(-0.5 -0.48)"/><path class="cls-2" d="M328.73,355.5a2.46,2.46,0,0,1,.95.81,2.85,2.85,0,0,1,.42,1.11,6.56,6.56,0,0,1,.1,1.38h-4.6a2.73,2.73,0,0,0,.45,1.54,1.52,1.52,0,0,0,1.31.57,1.67,1.67,0,0,0,1.31-.54,1.87,1.87,0,0,0,.4-.73h1a2.38,2.38,0,0,1-.27.77,3,3,0,0,1-.52.69,2.49,2.49,0,0,1-1.19.63,3.22,3.22,0,0,1-.86.1,2.65,2.65,0,0,1-2-.86,3.3,3.3,0,0,1-.81-2.38,3.6,3.6,0,0,1,.82-2.46,2.69,2.69,0,0,1,2.14-.94A2.86,2.86,0,0,1,328.73,355.5Zm.38,2.47a2.62,2.62,0,0,0-.3-1.1,1.51,1.51,0,0,0-1.44-.76,1.6,1.6,0,0,0-1.22.52,2,2,0,0,0-.52,1.34Z" transform="translate(-0.5 -0.48)"/><path class="cls-2" d="M331.49,355.33h1v.89a2.84,2.84,0,0,1,.95-.79,2.5,2.5,0,0,1,1.1-.24,1.82,1.82,0,0,1,1.81.93,3.35,3.35,0,0,1,.26,1.46v4h-1.07v-4a2.24,2.24,0,0,0-.17-.93,1,1,0,0,0-1-.58,2.16,2.16,0,0,0-.62.07,1.6,1.6,0,0,0-.76.52,1.48,1.48,0,0,0-.34.64,3.93,3.93,0,0,0-.08.95v3.28h-1.06Z" transform="translate(-0.5 -0.48)"/><path class="cls-2" d="M338.38,353.58h1.06v1.75h1v.86h-1v4.1a.45.45,0,0,0,.23.44,1,1,0,0,0,.41.06h.16l.21,0v.83a1.72,1.72,0,0,1-.38.08,3,3,0,0,1-.43,0,1.15,1.15,0,0,1-1-.37,1.67,1.67,0,0,1-.26-1v-4.16h-.85v-.86h.85Z" transform="translate(-0.5 -0.48)"/><path class="cls-2" d="M341.53,355.33h1v1.08a2.43,2.43,0,0,1,.6-.77,1.59,1.59,0,0,1,1.11-.45h.1l.24,0v1.11l-.17,0h-.17a1.53,1.53,0,0,0-1.23.51,1.85,1.85,0,0,0-.43,1.19v3.6h-1.05Z" transform="translate(-0.5 -0.48)"/><path class="cls-2" d="M350.08,356a3.15,3.15,0,0,1,.84,2.38,4.08,4.08,0,0,1-.74,2.5,2.67,2.67,0,0,1-2.29,1,2.6,2.6,0,0,1-2.06-.87,3.47,3.47,0,0,1-.76-2.36,3.74,3.74,0,0,1,.8-2.51,2.68,2.68,0,0,1,2.16-.94A2.84,2.84,0,0,1,350.08,356Zm-.66,4.17a4,4,0,0,0,.39-1.77,3.14,3.14,0,0,0-.28-1.43,1.58,1.58,0,0,0-1.53-.86,1.5,1.5,0,0,0-1.41.74,3.43,3.43,0,0,0-.44,1.78,3,3,0,0,0,.44,1.67,1.56,1.56,0,0,0,1.4.67A1.44,1.44,0,0,0,349.42,360.13Z" transform="translate(-0.5 -0.48)"/><path class="cls-2" d="M359,355.52a3.25,3.25,0,0,1,.64.62V353h1v8.63h-.95v-.87a2.31,2.31,0,0,1-.87.84,2.54,2.54,0,0,1-1.16.26,2.34,2.34,0,0,1-1.81-.88,3.41,3.41,0,0,1-.77-2.35,4,4,0,0,1,.7-2.38,2.53,2.53,0,0,1,3.21-.7Zm-2.37,4.71a1.5,1.5,0,0,0,1.37.68,1.43,1.43,0,0,0,1.2-.63,2.93,2.93,0,0,0,.48-1.81,2.7,2.7,0,0,0-.49-1.76,1.51,1.51,0,0,0-1.2-.57,1.57,1.57,0,0,0-1.29.61,2.77,2.77,0,0,0-.5,1.79A3.1,3.1,0,0,0,356.6,360.23Z" transform="translate(-0.5 -0.48)"/><path class="cls-2" d="M366.09,355.5a2.46,2.46,0,0,1,1,.81,2.85,2.85,0,0,1,.42,1.11,6.56,6.56,0,0,1,.1,1.38H363a2.73,2.73,0,0,0,.45,1.54,1.5,1.5,0,0,0,1.3.57,1.68,1.68,0,0,0,1.32-.54,1.87,1.87,0,0,0,.4-.73h1a2.38,2.38,0,0,1-.27.77,3,3,0,0,1-.52.69,2.49,2.49,0,0,1-1.19.63,3.28,3.28,0,0,1-.86.1,2.65,2.65,0,0,1-2-.86,3.3,3.3,0,0,1-.81-2.38,3.6,3.6,0,0,1,.82-2.46,2.69,2.69,0,0,1,2.14-.94A2.86,2.86,0,0,1,366.09,355.5Zm.38,2.47a2.62,2.62,0,0,0-.3-1.1,1.52,1.52,0,0,0-1.44-.76,1.6,1.6,0,0,0-1.22.52A2,2,0,0,0,363,358Z" transform="translate(-0.5 -0.48)"/><path class="cls-2" d="M227.56,367.4h1.16V375h4.36v1h-5.52Z" transform="translate(-0.5 -0.48)"/><path class="cls-2" d="M237.46,372.2a.56.56,0,0,0,.48-.3.92.92,0,0,0,.07-.41.86.86,0,0,0-.38-.78,2.09,2.09,0,0,0-1.1-.24,1.19,1.19,0,0,0-1.42,1.17h-1a1.81,1.81,0,0,1,.75-1.61,3.15,3.15,0,0,1,1.68-.45,3.43,3.43,0,0,1,1.8.42,1.43,1.43,0,0,1,.69,1.31v3.62a.5.5,0,0,0,.06.26c.05.07.14.1.29.1h.16l.18,0V376a2.12,2.12,0,0,1-.37.09l-.35,0a.85.85,0,0,1-.79-.39,1.32,1.32,0,0,1-.18-.58,2.7,2.7,0,0,1-.93.73,2.84,2.84,0,0,1-1.33.32,2,2,0,0,1-1.43-.54,1.92,1.92,0,0,1,0-2.68,2.66,2.66,0,0,1,1.43-.59Zm-2.23,2.86a1.3,1.3,0,0,0,.8.26,2.38,2.38,0,0,0,1.07-.26,1.44,1.44,0,0,0,.88-1.4v-.85a2,2,0,0,1-.5.21,4.34,4.34,0,0,1-.59.11l-.64.09a2.41,2.41,0,0,0-.86.24.91.91,0,0,0-.49.87A.89.89,0,0,0,235.23,375.06Z" transform="translate(-0.5 -0.48)"/><path class="cls-2" d="M240.77,369.73h1v.89a2.72,2.72,0,0,1,.94-.79,2.51,2.51,0,0,1,1.11-.24,1.82,1.82,0,0,1,1.8.93,3.35,3.35,0,0,1,.26,1.46v4h-1.07v-3.95a2.24,2.24,0,0,0-.17-.93,1,1,0,0,0-1-.58,2.16,2.16,0,0,0-.62.07,1.72,1.72,0,0,0-1.1,1.16,4.52,4.52,0,0,0-.08,1V376h-1Z" transform="translate(-0.5 -0.48)"/><path class="cls-2" d="M247,375.17l3.72-4.5h-3.44v-.94h4.86v.86l-3.7,4.47h3.81V376H247Z" transform="translate(-0.5 -0.48)"/><path class="cls-2" d="M256.8,372.2a.58.58,0,0,0,.49-.3.92.92,0,0,0,.07-.41.86.86,0,0,0-.38-.78,2.11,2.11,0,0,0-1.1-.24,1.41,1.41,0,0,0-1.17.44,1.49,1.49,0,0,0-.26.73h-1a1.81,1.81,0,0,1,.75-1.61,3.1,3.1,0,0,1,1.68-.45,3.43,3.43,0,0,1,1.8.42,1.42,1.42,0,0,1,.68,1.31v3.62a.5.5,0,0,0,.07.26c.05.07.14.1.29.1h.15a1.25,1.25,0,0,0,.19,0V376a2.35,2.35,0,0,1-.37.09l-.35,0a.88.88,0,0,1-.8-.39,1.65,1.65,0,0,1-.18-.58,2.57,2.57,0,0,1-.92.73,2.87,2.87,0,0,1-1.33.32,2,2,0,0,1-1.43-.54,1.92,1.92,0,0,1,0-2.68,2.63,2.63,0,0,1,1.43-.59Zm-2.22,2.86a1.27,1.27,0,0,0,.79.26,2.45,2.45,0,0,0,1.08-.26,1.44,1.44,0,0,0,.88-1.4v-.85a2,2,0,0,1-.5.21,4.21,4.21,0,0,1-.6.11l-.63.09a2.48,2.48,0,0,0-.87.24.92.92,0,0,0-.48.87A.89.89,0,0,0,254.58,375.06Z" transform="translate(-0.5 -0.48)"/><path class="cls-2" d="M260.11,369.73h1.05v.89a3.24,3.24,0,0,1,.68-.67,2,2,0,0,1,1.18-.36,1.86,1.86,0,0,1,1.21.37,2.14,2.14,0,0,1,.47.62,2.23,2.23,0,0,1,.82-.75,2.34,2.34,0,0,1,1.07-.24,1.74,1.74,0,0,1,1.72.91,3.06,3.06,0,0,1,.25,1.33V376h-1.1v-4.36a1,1,0,0,0-.31-.86,1.3,1.3,0,0,0-.77-.23,1.52,1.52,0,0,0-1.07.42,1.8,1.8,0,0,0-.44,1.38V376h-1.08v-4.09a2.12,2.12,0,0,0-.15-.93.92.92,0,0,0-.9-.44,1.53,1.53,0,0,0-1.08.46,2.26,2.26,0,0,0-.49,1.68V376h-1.06Z" transform="translate(-0.5 -0.48)"/><path class="cls-2" d="M270.11,367.4h1.07v1.19h-1.07Zm0,2.36h1.07V376h-1.07Z" transform="translate(-0.5 -0.48)"/><path class="cls-2" d="M276.68,369.9a2.42,2.42,0,0,1,1,.81,2.85,2.85,0,0,1,.42,1.11,7.53,7.53,0,0,1,.09,1.38h-4.6a2.65,2.65,0,0,0,.46,1.54,1.5,1.5,0,0,0,1.3.57,1.7,1.7,0,0,0,1.32-.54,1.87,1.87,0,0,0,.4-.73h1a2.2,2.2,0,0,1-.28.77,2.69,2.69,0,0,1-.51.69,2.49,2.49,0,0,1-1.19.63,3.35,3.35,0,0,1-.87.1,2.63,2.63,0,0,1-2-.86,3.3,3.3,0,0,1-.82-2.38,3.65,3.65,0,0,1,.82-2.46,2.72,2.72,0,0,1,2.15-.94A2.82,2.82,0,0,1,276.68,369.9Zm.39,2.47a2.62,2.62,0,0,0-.3-1.1,1.53,1.53,0,0,0-1.45-.76,1.57,1.57,0,0,0-1.21.52,2,2,0,0,0-.53,1.34Z" transform="translate(-0.5 -0.48)"/><path class="cls-2" d="M279.45,369.73h1v.89a2.81,2.81,0,0,1,.94-.79,2.57,2.57,0,0,1,1.11-.24,1.84,1.84,0,0,1,1.81.93,3.36,3.36,0,0,1,.25,1.46v4h-1.07v-3.95a2.09,2.09,0,0,0-.17-.93,1,1,0,0,0-1-.58,2.09,2.09,0,0,0-.61.07,1.56,1.56,0,0,0-.76.52,1.63,1.63,0,0,0-.35.64,4.52,4.52,0,0,0-.08,1V376h-1.05Z" transform="translate(-0.5 -0.48)"/><path class="cls-2" d="M286.33,368h1.07v1.75h1v.86h-1v4.1a.45.45,0,0,0,.22.44,1,1,0,0,0,.41.06h.17l.2,0V376a2.12,2.12,0,0,1-.38.08,2.82,2.82,0,0,1-.42,0,1.14,1.14,0,0,1-1-.37,1.68,1.68,0,0,1-.27-1v-4.15h-.85v-.86h.85Z" transform="translate(-0.5 -0.48)"/><path class="cls-2" d="M294,370.36a3.13,3.13,0,0,1,.84,2.37,4.09,4.09,0,0,1-.74,2.51,2.67,2.67,0,0,1-2.29,1,2.6,2.6,0,0,1-2.06-.87A3.47,3.47,0,0,1,289,373a3.79,3.79,0,0,1,.8-2.52,2.72,2.72,0,0,1,2.16-.93A2.84,2.84,0,0,1,294,370.36Zm-.65,4.17a4,4,0,0,0,.39-1.77,3.13,3.13,0,0,0-.29-1.43,1.57,1.57,0,0,0-1.53-.86,1.51,1.51,0,0,0-1.41.74,3.43,3.43,0,0,0-.44,1.78,3,3,0,0,0,.44,1.67,1.57,1.57,0,0,0,1.4.66A1.45,1.45,0,0,0,293.39,374.53Z" transform="translate(-0.5 -0.48)"/><path class="cls-2" d="M302.93,369.92a2.77,2.77,0,0,1,.64.62v-3.17h1V376h-.95v-.87a2.31,2.31,0,0,1-.87.84,2.54,2.54,0,0,1-1.16.26,2.34,2.34,0,0,1-1.81-.88A3.48,3.48,0,0,1,299,373a4,4,0,0,1,.7-2.38,2.53,2.53,0,0,1,3.21-.7Zm-2.37,4.71a1.51,1.51,0,0,0,1.37.68,1.46,1.46,0,0,0,1.21-.63,3,3,0,0,0,.47-1.81,2.64,2.64,0,0,0-.49-1.76,1.51,1.51,0,0,0-1.2-.57,1.57,1.57,0,0,0-1.29.61,2.77,2.77,0,0,0-.5,1.79A3.19,3.19,0,0,0,300.56,374.63Z" transform="translate(-0.5 -0.48)"/><path class="cls-2" d="M310.05,369.9a2.46,2.46,0,0,1,.95.81,2.85,2.85,0,0,1,.42,1.11,6.56,6.56,0,0,1,.1,1.38h-4.6a2.73,2.73,0,0,0,.45,1.54,1.52,1.52,0,0,0,1.31.57,1.67,1.67,0,0,0,1.31-.54,1.87,1.87,0,0,0,.4-.73h1a2.38,2.38,0,0,1-.27.77,3,3,0,0,1-.52.69,2.49,2.49,0,0,1-1.19.63,3.22,3.22,0,0,1-.86.1,2.65,2.65,0,0,1-2-.86,3.3,3.3,0,0,1-.81-2.38,3.6,3.6,0,0,1,.82-2.46,2.69,2.69,0,0,1,2.14-.94A2.86,2.86,0,0,1,310.05,369.9Zm.38,2.47a2.62,2.62,0,0,0-.3-1.1,1.51,1.51,0,0,0-1.44-.76,1.6,1.6,0,0,0-1.22.52,2,2,0,0,0-.52,1.34Z" transform="translate(-0.5 -0.48)"/><path class="cls-2" d="M317.05,373.23a2.42,2.42,0,0,0,.34,1.19,2.3,2.3,0,0,0,2.05.85,3.42,3.42,0,0,0,1.19-.19,1.32,1.32,0,0,0,1.05-1.3,1.13,1.13,0,0,0-.44-1,4.72,4.72,0,0,0-1.4-.51l-1.16-.26a5.22,5.22,0,0,1-1.62-.57,1.8,1.8,0,0,1-.82-1.61,2.52,2.52,0,0,1,.8-1.91,3.27,3.27,0,0,1,2.28-.74,4,4,0,0,1,2.3.65,2.37,2.37,0,0,1,.94,2.09h-1.09a2.2,2.2,0,0,0-.38-1.06,2.17,2.17,0,0,0-1.81-.67,2.08,2.08,0,0,0-1.48.43,1.37,1.37,0,0,0-.45,1,1,1,0,0,0,.53.93,7.72,7.72,0,0,0,1.56.46l1.21.28a3.59,3.59,0,0,1,1.34.54,2.05,2.05,0,0,1,.82,1.76,2.17,2.17,0,0,1-1,2,4.62,4.62,0,0,1-2.41.62,3.67,3.67,0,0,1-2.52-.82,2.8,2.8,0,0,1-.89-2.21Z" transform="translate(-0.5 -0.48)"/><path class="cls-2" d="M327.51,372.2a.56.56,0,0,0,.49-.3.92.92,0,0,0,.07-.41.86.86,0,0,0-.38-.78,2.11,2.11,0,0,0-1.1-.24,1.41,1.41,0,0,0-1.17.44,1.49,1.49,0,0,0-.26.73h-1a1.81,1.81,0,0,1,.75-1.61,3.13,3.13,0,0,1,1.68-.45,3.43,3.43,0,0,1,1.8.42,1.43,1.43,0,0,1,.69,1.31v3.62a.5.5,0,0,0,.06.26c0,.07.14.1.29.1h.16l.18,0V376a2.35,2.35,0,0,1-.37.09l-.35,0a.85.85,0,0,1-.79-.39,1.46,1.46,0,0,1-.19-.58,2.57,2.57,0,0,1-.92.73,2.84,2.84,0,0,1-1.33.32,2,2,0,0,1-1.43-.54,1.92,1.92,0,0,1,0-2.68,2.66,2.66,0,0,1,1.43-.59Zm-2.22,2.86a1.29,1.29,0,0,0,.79.26,2.42,2.42,0,0,0,1.08-.26,1.44,1.44,0,0,0,.88-1.4v-.85a2,2,0,0,1-.5.21,4.34,4.34,0,0,1-.59.11l-.64.09a2.35,2.35,0,0,0-.86.24.91.91,0,0,0-.49.87A.89.89,0,0,0,325.29,375.06Z" transform="translate(-0.5 -0.48)"/><path class="cls-2" d="M331,368h1.06v1.75h1v.86h-1v4.1a.47.47,0,0,0,.22.44,1,1,0,0,0,.41.06h.17l.2,0V376a2.21,2.21,0,0,1-.37.08,3,3,0,0,1-.43,0,1.14,1.14,0,0,1-1-.37,1.68,1.68,0,0,1-.26-1v-4.15h-.85v-.86H331Z" transform="translate(-0.5 -0.48)"/><path class="cls-2" d="M338.07,369.9a2.46,2.46,0,0,1,.95.81,2.85,2.85,0,0,1,.42,1.11,6.56,6.56,0,0,1,.1,1.38h-4.6a2.73,2.73,0,0,0,.45,1.54,1.52,1.52,0,0,0,1.31.57,1.67,1.67,0,0,0,1.31-.54,1.87,1.87,0,0,0,.4-.73h1a2.38,2.38,0,0,1-.27.77,3,3,0,0,1-.52.69,2.49,2.49,0,0,1-1.19.63,3.28,3.28,0,0,1-.86.1,2.65,2.65,0,0,1-2-.86,3.3,3.3,0,0,1-.81-2.38,3.6,3.6,0,0,1,.82-2.46,2.69,2.69,0,0,1,2.14-.94A2.86,2.86,0,0,1,338.07,369.9Zm.38,2.47a2.62,2.62,0,0,0-.3-1.1,1.51,1.51,0,0,0-1.44-.76,1.6,1.6,0,0,0-1.22.52,2,2,0,0,0-.52,1.34ZM338,367.2l-1.56,1.7h-.81l1.07-1.7Z" transform="translate(-0.5 -0.48)"/><path class="cls-2" d="M340.86,367.4h1.06V376h-1.06Z" transform="translate(-0.5 -0.48)"/><path class="cls-2" d="M343.5,367.4h1.07v1.19H343.5Zm0,2.36h1.07V376H343.5Z" transform="translate(-0.5 -0.48)"/><path class="cls-2" d="M346.38,368h1.06v1.75h1v.86h-1v4.1a.47.47,0,0,0,.22.44,1,1,0,0,0,.41.06h.17l.2,0V376a2.21,2.21,0,0,1-.37.08,3,3,0,0,1-.43,0,1.14,1.14,0,0,1-1-.37,1.68,1.68,0,0,1-.26-1v-4.15h-.85v-.86h.85Z" transform="translate(-0.5 -0.48)"/><path class="cls-2" d="M353.41,369.9a2.46,2.46,0,0,1,.95.81,2.85,2.85,0,0,1,.42,1.11,6.56,6.56,0,0,1,.1,1.38h-4.6a2.73,2.73,0,0,0,.45,1.54,1.52,1.52,0,0,0,1.31.57,1.67,1.67,0,0,0,1.31-.54,1.87,1.87,0,0,0,.4-.73h1a2.38,2.38,0,0,1-.27.77,3,3,0,0,1-.52.69,2.49,2.49,0,0,1-1.19.63,3.28,3.28,0,0,1-.86.1,2.65,2.65,0,0,1-2-.86,3.3,3.3,0,0,1-.81-2.38,3.6,3.6,0,0,1,.82-2.46,2.69,2.69,0,0,1,2.14-.94A2.86,2.86,0,0,1,353.41,369.9Zm.38,2.47a2.62,2.62,0,0,0-.3-1.1,1.51,1.51,0,0,0-1.44-.76,1.6,1.6,0,0,0-1.22.52,2,2,0,0,0-.52,1.34Z" transform="translate(-0.5 -0.48)"/><path class="cls-2" d="M356.8,374a1.51,1.51,0,0,0,.26.8,1.67,1.67,0,0,0,1.39.51,2,2,0,0,0,1-.25.85.85,0,0,0,.44-.79.66.66,0,0,0-.36-.61,3.76,3.76,0,0,0-.9-.3l-.84-.21a4.41,4.41,0,0,1-1.18-.45,1.33,1.33,0,0,1-.68-1.18,1.78,1.78,0,0,1,.64-1.44,2.57,2.57,0,0,1,1.73-.56,2.37,2.37,0,0,1,2,.84,1.79,1.79,0,0,1,.38,1.13h-1a1.34,1.34,0,0,0-.25-.65,1.66,1.66,0,0,0-1.26-.41,1.48,1.48,0,0,0-.91.23.72.72,0,0,0-.31.6.76.76,0,0,0,.41.66,2.41,2.41,0,0,0,.69.25l.7.17a5.38,5.38,0,0,1,1.52.54,1.4,1.4,0,0,1,.61,1.27,2,2,0,0,1-.63,1.45,2.73,2.73,0,0,1-1.94.6,2.61,2.61,0,0,1-2-.63,2.37,2.37,0,0,1-.62-1.57Z" transform="translate(-0.5 -0.48)"/><path class="cls-2" d="M369,369.92a2.77,2.77,0,0,1,.64.62v-3.17h1V376h-.95v-.87a2.24,2.24,0,0,1-.87.84,2.54,2.54,0,0,1-1.16.26,2.36,2.36,0,0,1-1.81-.88,3.48,3.48,0,0,1-.77-2.35,4,4,0,0,1,.7-2.38,2.53,2.53,0,0,1,3.21-.7Zm-2.37,4.71a1.51,1.51,0,0,0,1.37.68,1.46,1.46,0,0,0,1.21-.63,3,3,0,0,0,.47-1.81,2.64,2.64,0,0,0-.49-1.76,1.51,1.51,0,0,0-1.2-.57,1.57,1.57,0,0,0-1.29.61,2.77,2.77,0,0,0-.5,1.79A3.19,3.19,0,0,0,366.6,374.63Z" transform="translate(-0.5 -0.48)"/><path class="cls-2" d="M376.09,369.9a2.39,2.39,0,0,1,1,.81,2.85,2.85,0,0,1,.42,1.11,6.56,6.56,0,0,1,.1,1.38H373a2.73,2.73,0,0,0,.45,1.54,1.52,1.52,0,0,0,1.31.57,1.7,1.7,0,0,0,1.32-.54,1.85,1.85,0,0,0,.39-.73h1a2.38,2.38,0,0,1-.27.77,3,3,0,0,1-.52.69,2.49,2.49,0,0,1-1.19.63,3.22,3.22,0,0,1-.86.1,2.66,2.66,0,0,1-2-.86,3.3,3.3,0,0,1-.81-2.38,3.6,3.6,0,0,1,.82-2.46,2.7,2.7,0,0,1,2.14-.94A2.86,2.86,0,0,1,376.09,369.9Zm.38,2.47a2.79,2.79,0,0,0-.29-1.1,1.54,1.54,0,0,0-1.45-.76,1.6,1.6,0,0,0-1.22.52,2,2,0,0,0-.52,1.34Z" transform="translate(-0.5 -0.48)"/><path class="cls-2" d="M275.27,381.8l1.62,7,1.94-7h1.27l1.94,7,1.63-7H285l-2.27,8.6h-1.22l-2-7.13-2,7.13h-1.22L274,381.8Z" transform="translate(-0.5 -0.48)"/><path class="cls-2" d="M289.58,384.3a2.42,2.42,0,0,1,1,.81,2.85,2.85,0,0,1,.42,1.11,7.53,7.53,0,0,1,.09,1.38h-4.6a2.73,2.73,0,0,0,.45,1.54,1.52,1.52,0,0,0,1.31.57,1.7,1.7,0,0,0,1.32-.54,2,2,0,0,0,.4-.73h1a2.16,2.16,0,0,1-.27.77,2.71,2.71,0,0,1-.52.69,2.45,2.45,0,0,1-1.19.63,3.22,3.22,0,0,1-.86.1,2.66,2.66,0,0,1-2-.86,3.3,3.3,0,0,1-.81-2.38,3.6,3.6,0,0,1,.82-2.46,2.71,2.71,0,0,1,2.15-.94A2.85,2.85,0,0,1,289.58,384.3Zm.39,2.47a3,3,0,0,0-.3-1.1,1.53,1.53,0,0,0-1.45-.76,1.61,1.61,0,0,0-1.22.52,2,2,0,0,0-.52,1.34Z" transform="translate(-0.5 -0.48)"/><path class="cls-2" d="M292.35,384.13h1V385a2.72,2.72,0,0,1,.94-.79,2.51,2.51,0,0,1,1.11-.24,1.82,1.82,0,0,1,1.8.93,3.21,3.21,0,0,1,.26,1.46v4h-1.07v-3.95a2.24,2.24,0,0,0-.17-.93,1,1,0,0,0-1-.58,2.16,2.16,0,0,0-.62.07,1.72,1.72,0,0,0-1.1,1.16,4.52,4.52,0,0,0-.08.95v3.28h-1Z" transform="translate(-0.5 -0.48)"/><path class="cls-2" d="M303.17,384.46a2.46,2.46,0,0,1,.79,1.78h-1a1.92,1.92,0,0,0-.43-1,1.36,1.36,0,0,0-1.07-.38,1.48,1.48,0,0,0-1.44,1,3.84,3.84,0,0,0-.28,1.57,2.93,2.93,0,0,0,.4,1.59,1.55,1.55,0,0,0,2.29.24,2.19,2.19,0,0,0,.53-1.1h1a2.47,2.47,0,0,1-2.67,2.41,2.42,2.42,0,0,1-2-.9,3.49,3.49,0,0,1-.73-2.25,3.8,3.8,0,0,1,.8-2.57,2.59,2.59,0,0,1,2.05-.92A2.78,2.78,0,0,1,303.17,384.46Z" transform="translate(-0.5 -0.48)"/><path class="cls-2" d="M305,381.77h1.05V385a3,3,0,0,1,.68-.67A2.28,2.28,0,0,1,308,384a1.88,1.88,0,0,1,1.85.95,3.22,3.22,0,0,1,.26,1.45v4h-1.08v-3.95a2.3,2.3,0,0,0-.17-1,1.13,1.13,0,0,0-1.08-.52,1.79,1.79,0,0,0-1.19.45,2.16,2.16,0,0,0-.54,1.71v3.32H305Z" transform="translate(-0.5 -0.48)"/><path class="cls-2" d="M315.06,386.6a.56.56,0,0,0,.48-.3.92.92,0,0,0,.07-.41.84.84,0,0,0-.38-.78,2.09,2.09,0,0,0-1.1-.24,1.41,1.41,0,0,0-1.17.44,1.5,1.5,0,0,0-.25.74h-1a1.8,1.8,0,0,1,.76-1.62,3.09,3.09,0,0,1,1.67-.45,3.43,3.43,0,0,1,1.8.42,1.43,1.43,0,0,1,.69,1.31v3.62a.42.42,0,0,0,.07.26c0,.07.14.1.28.1h.16l.19,0v.78a2.42,2.42,0,0,1-.38.09l-.35,0a.86.86,0,0,1-.79-.39,1.32,1.32,0,0,1-.18-.58,2.84,2.84,0,0,1-.93.74,2.93,2.93,0,0,1-1.33.31,2,2,0,0,1-1.43-.53,1.77,1.77,0,0,1-.55-1.33,1.71,1.71,0,0,1,.55-1.36,2.63,2.63,0,0,1,1.43-.59Zm-2.22,2.86a1.25,1.25,0,0,0,.79.26,2.45,2.45,0,0,0,1.08-.26,1.45,1.45,0,0,0,.87-1.4v-.85a1.89,1.89,0,0,1-.49.21,4.79,4.79,0,0,1-.6.11l-.64.09a2.41,2.41,0,0,0-.86.24.91.91,0,0,0-.49.87A.87.87,0,0,0,312.84,389.46Z" transform="translate(-0.5 -0.48)"/><path class="cls-2" d="M318.37,384.13h1V385a2.81,2.81,0,0,1,.94-.79,2.51,2.51,0,0,1,1.11-.24,1.82,1.82,0,0,1,1.8.93,3.21,3.21,0,0,1,.26,1.46v4h-1.07v-3.95a2.24,2.24,0,0,0-.17-.93,1,1,0,0,0-1-.58,2.09,2.09,0,0,0-.61.07,1.63,1.63,0,0,0-.77.52,1.6,1.6,0,0,0-.34.64,4.52,4.52,0,0,0-.08.95v3.28h-1.05Z" transform="translate(-0.5 -0.48)"/><path class="cls-2" d="M328.54,384.38a2.85,2.85,0,0,1,.61.6v-.79h1v5.7a4.27,4.27,0,0,1-.35,1.89,2.54,2.54,0,0,1-2.48,1.28,3,3,0,0,1-1.71-.46,1.74,1.74,0,0,1-.77-1.42h1.07a1.11,1.11,0,0,0,.31.65,1.51,1.51,0,0,0,1.12.36,1.55,1.55,0,0,0,1.59-.86,4.88,4.88,0,0,0,.2-1.8,2.08,2.08,0,0,1-.76.72,2.63,2.63,0,0,1-1.18.23,2.51,2.51,0,0,1-1.78-.72,3.2,3.2,0,0,1-.77-2.4,3.59,3.59,0,0,1,.78-2.46,2.37,2.37,0,0,1,1.86-.88A2.26,2.26,0,0,1,328.54,384.38Zm.13,1.13a1.54,1.54,0,0,0-1.22-.56,1.51,1.51,0,0,0-1.52,1,4,4,0,0,0-.22,1.46,2.59,2.59,0,0,0,.43,1.62,1.41,1.41,0,0,0,1.16.55,1.63,1.63,0,0,0,1.6-1,3.29,3.29,0,0,0,.25-1.35A2.63,2.63,0,0,0,328.67,385.51Z" transform="translate(-0.5 -0.48)"/><path class="cls-2" d="M246,487.19h1.32l3.13,8.61h-1.28l-.87-2.58h-3.41l-.93,2.58h-1.2Zm1.92,5.08-1.31-3.8-1.38,3.8Z" transform="translate(-0.5 -0.48)"/><path class="cls-2" d="M251.55,487.77h1.06v1.75h1v.87h-1v4.09a.44.44,0,0,0,.23.44.94.94,0,0,0,.41.07h.37v.83a2.57,2.57,0,0,1-.38.08l-.43,0a1.15,1.15,0,0,1-1-.38,1.64,1.64,0,0,1-.26-1v-4.15h-.85v-.87h.85Z" transform="translate(-0.5 -0.48)"/><path class="cls-2" d="M258.58,489.7a2.39,2.39,0,0,1,.95.81,3,3,0,0,1,.43,1.11,7.53,7.53,0,0,1,.09,1.38h-4.6a2.67,2.67,0,0,0,.45,1.53,1.5,1.5,0,0,0,1.31.58,1.68,1.68,0,0,0,1.32-.55,1.78,1.78,0,0,0,.39-.73h1a2.3,2.3,0,0,1-.27.77,2.83,2.83,0,0,1-.52.7,2.49,2.49,0,0,1-1.19.63,3.72,3.72,0,0,1-.86.09,2.66,2.66,0,0,1-2-.85,3.33,3.33,0,0,1-.81-2.39,3.58,3.58,0,0,1,.82-2.45,2.71,2.71,0,0,1,2.14-.95A2.87,2.87,0,0,1,258.58,489.7Zm.38,2.46a2.73,2.73,0,0,0-.29-1.09,1.54,1.54,0,0,0-1.45-.77,1.6,1.6,0,0,0-1.22.53,2,2,0,0,0-.52,1.33Z" transform="translate(-0.5 -0.48)"/><path class="cls-2" d="M261.37,489.52h1v1.09a2.33,2.33,0,0,1,.6-.77,1.58,1.58,0,0,1,1.11-.46h.1l.24,0v1.12l-.18,0h-.17a1.49,1.49,0,0,0-1.22.51,1.77,1.77,0,0,0-.43,1.18v3.61h-1.06Z" transform="translate(-0.5 -0.48)"/><path class="cls-2" d="M265.37,489.52h1v1.09a2.33,2.33,0,0,1,.6-.77,1.58,1.58,0,0,1,1.11-.46h.1l.24,0v1.12l-.17,0h-.17a1.51,1.51,0,0,0-1.23.51,1.82,1.82,0,0,0-.43,1.18v3.61h-1.05Z" transform="translate(-0.5 -0.48)"/><path class="cls-2" d="M269.34,487.19h1.07v1.2h-1.07Zm0,2.36h1.07v6.25h-1.07Z" transform="translate(-0.5 -0.48)"/><path class="cls-2" d="M271.53,495l3.72-4.5h-3.44v-1h4.86v.87l-3.7,4.47h3.81v.94h-5.25Z" transform="translate(-0.5 -0.48)"/><path class="cls-2" d="M282.58,490.15a3.15,3.15,0,0,1,.84,2.38,4,4,0,0,1-.74,2.51,2.66,2.66,0,0,1-2.29,1,2.55,2.55,0,0,1-2.05-.88,3.45,3.45,0,0,1-.77-2.35,3.74,3.74,0,0,1,.81-2.52,2.69,2.69,0,0,1,2.15-.94A2.82,2.82,0,0,1,282.58,490.15Zm-.65,4.18a4,4,0,0,0,.39-1.77,3.11,3.11,0,0,0-.28-1.43,1.59,1.59,0,0,0-1.54-.87,1.51,1.51,0,0,0-1.4.74,3.36,3.36,0,0,0-.44,1.78,2.91,2.91,0,0,0,.44,1.67,1.54,1.54,0,0,0,1.39.67A1.45,1.45,0,0,0,281.93,494.33Zm-.17-7.33-1.57,1.69h-.81l1.08-1.69Z" transform="translate(-0.5 -0.48)"/><path class="cls-2" d="M291.92,489.7a2.39,2.39,0,0,1,.95.81,2.79,2.79,0,0,1,.42,1.11,6.56,6.56,0,0,1,.1,1.38h-4.6a2.67,2.67,0,0,0,.45,1.53,1.5,1.5,0,0,0,1.31.58,1.68,1.68,0,0,0,1.32-.55,1.78,1.78,0,0,0,.39-.73h1a2.3,2.3,0,0,1-.27.77,2.83,2.83,0,0,1-.52.7,2.49,2.49,0,0,1-1.19.63,3.72,3.72,0,0,1-.86.09,2.66,2.66,0,0,1-2-.85,3.33,3.33,0,0,1-.81-2.39,3.58,3.58,0,0,1,.82-2.45,2.71,2.71,0,0,1,2.14-.95A2.87,2.87,0,0,1,291.92,489.7Zm.38,2.46a2.73,2.73,0,0,0-.29-1.09,1.54,1.54,0,0,0-1.45-.77,1.6,1.6,0,0,0-1.22.53,2,2,0,0,0-.52,1.33Z" transform="translate(-0.5 -0.48)"/><path class="cls-2" d="M294.71,487.19h1.06v8.61h-1.06Z" transform="translate(-0.5 -0.48)"/><path class="cls-2" d="M301.06,489.86v-.81a4.28,4.28,0,0,0,1.59-.37,1.88,1.88,0,0,0,.68-1.24h.83v8.36H303v-5.94Z" transform="translate(-0.5 -0.48)"/><path class="cls-2" d="M312.05,488.1a2.48,2.48,0,0,1,.56,1.51h-1.05a1.9,1.9,0,0,0-.29-.78,1.35,1.35,0,0,0-1.16-.53,1.57,1.57,0,0,0-1.4.82,4.66,4.66,0,0,0-.59,2.34,2.35,2.35,0,0,1,.92-.8,2.85,2.85,0,0,1,3,.44,2.49,2.49,0,0,1,.79,2,3.06,3.06,0,0,1-.75,2,2.63,2.63,0,0,1-2.12.88,2.71,2.71,0,0,1-2-.9,4.28,4.28,0,0,1-.85-3,7.94,7.94,0,0,1,.38-2.65,2.7,2.7,0,0,1,2.67-2.09A2.33,2.33,0,0,1,312.05,488.1Zm-.79,6.42a2.12,2.12,0,0,0,.42-1.32,2.32,2.32,0,0,0-.37-1.23,1.48,1.48,0,0,0-1.35-.58,1.75,1.75,0,0,0-1.19.45,1.71,1.71,0,0,0-.51,1.36,2,2,0,0,0,.47,1.34,1.61,1.61,0,0,0,1.29.54A1.44,1.44,0,0,0,311.26,494.52Z" transform="translate(-0.5 -0.48)"/><path class="cls-2" d="M320.83,489.72a2.91,2.91,0,0,1,.64.61v-3.17h1v8.64h-1v-.87a2.29,2.29,0,0,1-.87.83,2.42,2.42,0,0,1-1.16.26,2.31,2.31,0,0,1-1.81-.88,3.46,3.46,0,0,1-.77-2.35,4,4,0,0,1,.7-2.37,2.3,2.3,0,0,1,2-1A2.2,2.2,0,0,1,320.83,489.72Zm-2.37,4.7a1.49,1.49,0,0,0,1.37.68,1.46,1.46,0,0,0,1.21-.63,3,3,0,0,0,.47-1.8,2.67,2.67,0,0,0-.49-1.77,1.51,1.51,0,0,0-1.2-.57,1.6,1.6,0,0,0-1.29.61,2.82,2.82,0,0,0-.5,1.8A3.13,3.13,0,0,0,318.46,494.42Z" transform="translate(-0.5 -0.48)"/><path class="cls-2" d="M328,489.7a2.39,2.39,0,0,1,.95.81,2.79,2.79,0,0,1,.42,1.11,6.56,6.56,0,0,1,.1,1.38h-4.6a2.67,2.67,0,0,0,.45,1.53,1.5,1.5,0,0,0,1.31.58,1.64,1.64,0,0,0,1.31-.55,1.8,1.8,0,0,0,.4-.73h1a2.3,2.3,0,0,1-.27.77,2.83,2.83,0,0,1-.52.7,2.49,2.49,0,0,1-1.19.63,3.72,3.72,0,0,1-.86.09,2.64,2.64,0,0,1-2-.85,3.33,3.33,0,0,1-.81-2.39,3.58,3.58,0,0,1,.82-2.45,2.69,2.69,0,0,1,2.14-.95A2.87,2.87,0,0,1,328,489.7Zm.38,2.46a2.73,2.73,0,0,0-.29-1.09,1.54,1.54,0,0,0-1.45-.77,1.6,1.6,0,0,0-1.22.53,2,2,0,0,0-.52,1.33Z" transform="translate(-0.5 -0.48)"/><path class="cls-2" d="M337.51,489.72a2.91,2.91,0,0,1,.64.61v-3.17h1v8.64h-1v-.87a2.22,2.22,0,0,1-.87.83,2.41,2.41,0,0,1-1.15.26,2.33,2.33,0,0,1-1.82-.88,3.46,3.46,0,0,1-.77-2.35,4,4,0,0,1,.7-2.37,2.31,2.31,0,0,1,2-1A2.18,2.18,0,0,1,337.51,489.72Zm-2.37,4.7a1.49,1.49,0,0,0,1.37.68,1.46,1.46,0,0,0,1.21-.63,3,3,0,0,0,.47-1.8,2.67,2.67,0,0,0-.49-1.77,1.51,1.51,0,0,0-1.2-.57,1.6,1.6,0,0,0-1.29.61,2.82,2.82,0,0,0-.5,1.8A3.13,3.13,0,0,0,335.14,494.42Z" transform="translate(-0.5 -0.48)"/><path class="cls-2" d="M340.72,487.19h1.07v1.2h-1.07Zm0,2.36h1.07v6.25h-1.07Z" transform="translate(-0.5 -0.48)"/><path class="cls-2" d="M347.53,489.86a2.42,2.42,0,0,1,.8,1.77h-1a2,2,0,0,0-.43-1,1.33,1.33,0,0,0-1.07-.38,1.46,1.46,0,0,0-1.44,1,3.88,3.88,0,0,0-.29,1.58,3,3,0,0,0,.4,1.58,1.55,1.55,0,0,0,2.3.25,2.32,2.32,0,0,0,.53-1.1h1a2.49,2.49,0,0,1-2.68,2.4,2.4,2.4,0,0,1-2-.9,3.43,3.43,0,0,1-.73-2.24,3.83,3.83,0,0,1,.8-2.58,2.62,2.62,0,0,1,2.05-.92A2.69,2.69,0,0,1,347.53,489.86Z" transform="translate(-0.5 -0.48)"/><path class="cls-2" d="M349.39,487.19h1.07v1.2h-1.07Zm0,2.36h1.07v6.25h-1.07Z" transform="translate(-0.5 -0.48)"/><path class="cls-2" d="M356,489.7a2.42,2.42,0,0,1,1,.81,2.79,2.79,0,0,1,.42,1.11,7.53,7.53,0,0,1,.09,1.38h-4.6a2.67,2.67,0,0,0,.45,1.53,1.5,1.5,0,0,0,1.31.58,1.68,1.68,0,0,0,1.32-.55,1.8,1.8,0,0,0,.4-.73h1a1.93,1.93,0,0,1-.27.77,2.6,2.6,0,0,1-.52.7,2.45,2.45,0,0,1-1.19.63,3.72,3.72,0,0,1-.86.09,2.62,2.62,0,0,1-2-.85,3.29,3.29,0,0,1-.82-2.39,3.58,3.58,0,0,1,.82-2.45,2.71,2.71,0,0,1,2.15-.95A2.86,2.86,0,0,1,356,489.7Zm.39,2.46a2.72,2.72,0,0,0-.3-1.09,1.53,1.53,0,0,0-1.45-.77,1.62,1.62,0,0,0-1.22.53,2,2,0,0,0-.52,1.33Z" transform="translate(-0.5 -0.48)"/><path class="cls-2" d="M358.73,489.52h1v.9a3.6,3.6,0,0,1,.68-.68,2,2,0,0,1,1.18-.36,1.9,1.9,0,0,1,1.21.37,2,2,0,0,1,.47.62,2.29,2.29,0,0,1,.82-.74,2.37,2.37,0,0,1,1.07-.25,1.74,1.74,0,0,1,1.72.92,2.9,2.9,0,0,1,.25,1.32v4.18h-1.1v-4.36a1,1,0,0,0-.31-.86,1.2,1.2,0,0,0-.76-.23,1.49,1.49,0,0,0-1.07.41,1.83,1.83,0,0,0-.45,1.39v3.65h-1.07v-4.1a2,2,0,0,0-.16-.93.93.93,0,0,0-.89-.44,1.56,1.56,0,0,0-1.09.47,2.22,2.22,0,0,0-.49,1.67v3.33h-1Z" transform="translate(-0.5 -0.48)"/><path class="cls-2" d="M368.64,487.16h1v3.13a2.35,2.35,0,0,1,.82-.69,2.31,2.31,0,0,1,1.05-.24,2.44,2.44,0,0,1,1.9.81,3.45,3.45,0,0,1,.73,2.37,4.06,4.06,0,0,1-.72,2.47,2.35,2.35,0,0,1-2,1,2.06,2.06,0,0,1-1.21-.35,2.8,2.8,0,0,1-.63-.65v.8h-1Zm4,7.23a3.3,3.3,0,0,0,.43-1.79,2.91,2.91,0,0,0-.43-1.65,1.4,1.4,0,0,0-1.25-.65,1.73,1.73,0,0,0-1.26.54,2.39,2.39,0,0,0-.54,1.76,3.87,3.87,0,0,0,.22,1.43,1.54,1.54,0,0,0,1.55,1A1.41,1.41,0,0,0,372.66,494.39Z" transform="translate(-0.5 -0.48)"/><path class="cls-2" d="M375.43,489.52h1v1.09a2.33,2.33,0,0,1,.6-.77,1.58,1.58,0,0,1,1.11-.46h.1l.24,0v1.12l-.17,0h-.18a1.49,1.49,0,0,0-1.22.51,1.77,1.77,0,0,0-.43,1.18v3.61h-1.05Z" transform="translate(-0.5 -0.48)"/><path class="cls-2" d="M383.3,489.7a2.42,2.42,0,0,1,1,.81,2.79,2.79,0,0,1,.42,1.11,7.53,7.53,0,0,1,.09,1.38h-4.6a2.67,2.67,0,0,0,.45,1.53,1.5,1.5,0,0,0,1.31.58,1.68,1.68,0,0,0,1.32-.55,1.8,1.8,0,0,0,.4-.73h1a1.93,1.93,0,0,1-.27.77,2.6,2.6,0,0,1-.52.7,2.45,2.45,0,0,1-1.19.63,3.72,3.72,0,0,1-.86.09,2.62,2.62,0,0,1-2-.85,3.29,3.29,0,0,1-.82-2.39,3.58,3.58,0,0,1,.82-2.45,2.71,2.71,0,0,1,2.15-.95A2.86,2.86,0,0,1,383.3,489.7Zm.39,2.46a2.9,2.9,0,0,0-.3-1.09,1.53,1.53,0,0,0-1.45-.77,1.62,1.62,0,0,0-1.22.53,2,2,0,0,0-.52,1.33Z" transform="translate(-0.5 -0.48)"/><path class="cls-2" d="M239.44,504.12a3.15,3.15,0,0,1,.64.61v-3.17h1v8.64h-1v-.87a2.48,2.48,0,0,1-.87.84,2.54,2.54,0,0,1-1.16.25,2.31,2.31,0,0,1-1.81-.88,3.46,3.46,0,0,1-.77-2.35,4,4,0,0,1,.7-2.37,2.5,2.5,0,0,1,3.21-.7Zm-2.37,4.7a1.49,1.49,0,0,0,1.37.68,1.46,1.46,0,0,0,1.21-.63,3,3,0,0,0,.47-1.8,2.62,2.62,0,0,0-.49-1.76,1.49,1.49,0,0,0-1.2-.58,1.6,1.6,0,0,0-1.29.61,2.82,2.82,0,0,0-.5,1.8A3.13,3.13,0,0,0,237.07,508.82Z" transform="translate(-0.5 -0.48)"/><path class="cls-2" d="M246.56,504.1a2.46,2.46,0,0,1,.95.81,2.85,2.85,0,0,1,.42,1.11,6.56,6.56,0,0,1,.1,1.38h-4.6a2.67,2.67,0,0,0,.45,1.53,1.5,1.5,0,0,0,1.31.58,1.64,1.64,0,0,0,1.31-.55,1.8,1.8,0,0,0,.4-.73h1a2.3,2.3,0,0,1-.27.77,2.83,2.83,0,0,1-.52.7,2.49,2.49,0,0,1-1.19.63,3.72,3.72,0,0,1-.86.09,2.64,2.64,0,0,1-2-.85,3.33,3.33,0,0,1-.81-2.39,3.59,3.59,0,0,1,.82-2.45,2.69,2.69,0,0,1,2.14-1A2.87,2.87,0,0,1,246.56,504.1Zm.38,2.46a2.57,2.57,0,0,0-.3-1.09,1.52,1.52,0,0,0-1.44-.77,1.6,1.6,0,0,0-1.22.53,2,2,0,0,0-.52,1.33Z" transform="translate(-0.5 -0.48)"/><path class="cls-2" d="M249.35,501.59h1.06v8.61h-1.06Z" transform="translate(-0.5 -0.48)"/><path class="cls-2" d="M255.37,508.31a3.7,3.7,0,0,1,1.52-1.46l1.13-.65a5.08,5.08,0,0,0,1.06-.75,1.52,1.52,0,0,0,.48-1.11,1.56,1.56,0,0,0-.44-1.16,1.58,1.58,0,0,0-1.17-.43,1.51,1.51,0,0,0-1.5.82,3,3,0,0,0-.25,1.22h-1.07a3.85,3.85,0,0,1,.4-1.79,2.55,2.55,0,0,1,2.42-1.22,2.48,2.48,0,0,1,2.77,2.51A2.37,2.37,0,0,1,260,506a7.32,7.32,0,0,1-1.48,1l-.8.45a5.37,5.37,0,0,0-.9.6,2.21,2.21,0,0,0-.74,1.13h4.58v1h-5.76A5,5,0,0,1,255.37,508.31Z" transform="translate(-0.5 -0.48)"/><path class="cls-2" d="M266.82,503.15a5.93,5.93,0,0,1,.57,2.84,6.82,6.82,0,0,1-.51,2.83,2.51,2.51,0,0,1-2.42,1.61,2.44,2.44,0,0,1-2.25-1.31,6,6,0,0,1-.61-2.94,7.16,7.16,0,0,1,.37-2.46,2.52,2.52,0,0,1,2.5-1.91A2.48,2.48,0,0,1,266.82,503.15Zm-1.06,5.59a5.2,5.2,0,0,0,.49-2.71,6.81,6.81,0,0,0-.35-2.35,1.35,1.35,0,0,0-1.37-.92,1.42,1.42,0,0,0-1.36.88,6,6,0,0,0-.43,2.58,6.16,6.16,0,0,0,.28,2.06,1.5,1.5,0,0,0,1.44,1.19A1.48,1.48,0,0,0,265.76,508.74Z" transform="translate(-0.5 -0.48)"/><path class="cls-2" d="M268.72,508.31a3.7,3.7,0,0,1,1.52-1.46l1.13-.65a5.37,5.37,0,0,0,1.06-.75,1.52,1.52,0,0,0,.48-1.11,1.56,1.56,0,0,0-.44-1.16,1.62,1.62,0,0,0-1.18-.43,1.53,1.53,0,0,0-1.5.82,3,3,0,0,0-.24,1.22h-1.07a3.73,3.73,0,0,1,.4-1.79,2.54,2.54,0,0,1,2.42-1.22,2.48,2.48,0,0,1,2.77,2.51,2.34,2.34,0,0,1-.71,1.73,6.9,6.9,0,0,1-1.47,1l-.8.45a5.37,5.37,0,0,0-.9.6,2.21,2.21,0,0,0-.74,1.13H274v1h-5.76A5,5,0,0,1,268.72,508.31Z" transform="translate(-0.5 -0.48)"/><path class="cls-2" d="M280.17,503.15a5.94,5.94,0,0,1,.56,2.84,6.82,6.82,0,0,1-.51,2.83,2.49,2.49,0,0,1-2.41,1.61,2.42,2.42,0,0,1-2.25-1.31,6,6,0,0,1-.61-2.94,7.42,7.42,0,0,1,.36-2.46,2.54,2.54,0,0,1,2.51-1.91A2.48,2.48,0,0,1,280.17,503.15Zm-1.06,5.59a5.2,5.2,0,0,0,.49-2.71,6.81,6.81,0,0,0-.35-2.35,1.35,1.35,0,0,0-1.37-.92,1.42,1.42,0,0,0-1.36.88,6,6,0,0,0-.43,2.58,6.46,6.46,0,0,0,.27,2.06,1.5,1.5,0,0,0,2.75.46Z" transform="translate(-0.5 -0.48)"/><path class="cls-2" d="M289.26,504.1a2.32,2.32,0,0,1,.95.81,2.72,2.72,0,0,1,.43,1.11,7.53,7.53,0,0,1,.09,1.38h-4.6a2.67,2.67,0,0,0,.45,1.53,1.5,1.5,0,0,0,1.31.58,1.68,1.68,0,0,0,1.32-.55,1.93,1.93,0,0,0,.4-.73h1a2.1,2.1,0,0,1-.27.77,2.6,2.6,0,0,1-.52.7,2.49,2.49,0,0,1-1.19.63,3.72,3.72,0,0,1-.86.09,2.66,2.66,0,0,1-2-.85,3.33,3.33,0,0,1-.81-2.39,3.59,3.59,0,0,1,.82-2.45,2.71,2.71,0,0,1,2.14-1A2.87,2.87,0,0,1,289.26,504.1Zm.39,2.46a2.9,2.9,0,0,0-.3-1.09,1.53,1.53,0,0,0-1.45-.77,1.62,1.62,0,0,0-1.22.53,2,2,0,0,0-.52,1.33Z" transform="translate(-0.5 -0.48)"/><path class="cls-2" d="M292,503.93h1v.89a2.76,2.76,0,0,1,.94-.8,2.51,2.51,0,0,1,1.11-.24,1.82,1.82,0,0,1,1.8.94,3.32,3.32,0,0,1,.26,1.46v4h-1.07v-3.95a2.18,2.18,0,0,0-.17-.93,1,1,0,0,0-1-.59,2.12,2.12,0,0,0-.62.08,1.6,1.6,0,0,0-.76.52,1.54,1.54,0,0,0-.34.64,4.42,4.42,0,0,0-.08.94v3.29H292Z" transform="translate(-0.5 -0.48)"/><path class="cls-2" d="M302.14,501.59h1.67l2.48,7.28,2.45-7.28h1.65v8.61h-1.1v-5.08c0-.18,0-.47,0-.87s0-.84,0-1.31l-2.45,7.26H305.7l-2.47-7.26v.26c0,.22,0,.54,0,1s0,.75,0,.95v5.08h-1.12Z" transform="translate(-0.5 -0.48)"/><path class="cls-2" d="M316.61,504.55a3.15,3.15,0,0,1,.84,2.38,4.11,4.11,0,0,1-.74,2.51,2.66,2.66,0,0,1-2.29,1,2.59,2.59,0,0,1-2.06-.88,3.49,3.49,0,0,1-.76-2.35,3.79,3.79,0,0,1,.8-2.52,2.73,2.73,0,0,1,2.16-.94A2.84,2.84,0,0,1,316.61,504.55Zm-.65,4.18a4,4,0,0,0,.39-1.77,3.25,3.25,0,0,0-.28-1.43,1.59,1.59,0,0,0-1.54-.87,1.54,1.54,0,0,0-1.41.74,3.45,3.45,0,0,0-.43,1.78,3,3,0,0,0,.43,1.67,1.55,1.55,0,0,0,1.4.67A1.45,1.45,0,0,0,316,508.73Z" transform="translate(-0.5 -0.48)"/><path class="cls-2" d="M318.7,503.93h1v.89a2.76,2.76,0,0,1,.94-.8,2.51,2.51,0,0,1,1.11-.24,1.82,1.82,0,0,1,1.8.94,3.32,3.32,0,0,1,.26,1.46v4h-1.07v-3.95a2.18,2.18,0,0,0-.17-.93,1,1,0,0,0-1-.59,2.12,2.12,0,0,0-.62.08,1.6,1.6,0,0,0-.76.52,1.43,1.43,0,0,0-.34.64,3.84,3.84,0,0,0-.08.94v3.29H318.7Z" transform="translate(-0.5 -0.48)"/><path class="cls-2" d="M328.88,504.18a2.77,2.77,0,0,1,.61.59V504h1v5.71a4.14,4.14,0,0,1-.35,1.89,2.52,2.52,0,0,1-2.48,1.27,3.05,3.05,0,0,1-1.7-.45,1.79,1.79,0,0,1-.78-1.42h1.08a1.2,1.2,0,0,0,.3.65,1.58,1.58,0,0,0,1.13.35,1.54,1.54,0,0,0,1.58-.85,4.83,4.83,0,0,0,.21-1.8,2,2,0,0,1-.76.71,2.7,2.7,0,0,1-3-.49,3.17,3.17,0,0,1-.77-2.39,3.64,3.64,0,0,1,.77-2.46,2.41,2.41,0,0,1,1.86-.89A2.25,2.25,0,0,1,328.88,504.18Zm.13,1.13a1.63,1.63,0,0,0-2.75.48,4.19,4.19,0,0,0-.22,1.46,2.57,2.57,0,0,0,.44,1.61,1.38,1.38,0,0,0,1.15.56,1.63,1.63,0,0,0,1.6-1,3.35,3.35,0,0,0,.26-1.35A2.61,2.61,0,0,0,329,505.31Z" transform="translate(-0.5 -0.48)"/><path class="cls-2" d="M336.63,504.55a3.15,3.15,0,0,1,.84,2.38,4.11,4.11,0,0,1-.74,2.51,2.66,2.66,0,0,1-2.29,1,2.59,2.59,0,0,1-2.06-.88,3.49,3.49,0,0,1-.76-2.35,3.74,3.74,0,0,1,.81-2.52,2.69,2.69,0,0,1,2.15-.94A2.84,2.84,0,0,1,336.63,504.55Zm-.65,4.18a4,4,0,0,0,.39-1.77,3.11,3.11,0,0,0-.28-1.43,1.59,1.59,0,0,0-1.54-.87,1.51,1.51,0,0,0-1.4.74,3.36,3.36,0,0,0-.44,1.78,2.91,2.91,0,0,0,.44,1.67,1.52,1.52,0,0,0,1.39.67A1.45,1.45,0,0,0,336,508.73Z" transform="translate(-0.5 -0.48)"/><path class="cls-2" d="M338.75,501.59h1.06v8.61h-1.06Z" transform="translate(-0.5 -0.48)"/><path class="cls-2" d="M341.39,501.59h1.07v1.2h-1.07Zm0,2.36h1.07v6.25h-1.07Z" transform="translate(-0.5 -0.48)"/><path class="cls-2" d="M347.42,506.4a.6.6,0,0,0,.49-.31,1,1,0,0,0,.07-.4.85.85,0,0,0-.39-.78,2,2,0,0,0-1.1-.25,1.39,1.39,0,0,0-1.17.45,1.45,1.45,0,0,0-.25.73h-1a1.81,1.81,0,0,1,.75-1.61,3,3,0,0,1,1.68-.46,3.43,3.43,0,0,1,1.8.42,1.46,1.46,0,0,1,.68,1.32v3.61a.45.45,0,0,0,.07.27.33.33,0,0,0,.28.1h.16l.19,0v.78a2.19,2.19,0,0,1-.38.09l-.35,0a.87.87,0,0,1-.79-.39,1.73,1.73,0,0,1-.18-.58,2.63,2.63,0,0,1-.93.73,2.8,2.8,0,0,1-1.33.31,2,2,0,0,1-1.42-.53,1.75,1.75,0,0,1-.56-1.33,1.72,1.72,0,0,1,.55-1.35,2.55,2.55,0,0,1,1.43-.59Zm-2.22,2.85a1.21,1.21,0,0,0,.79.26,2.44,2.44,0,0,0,1.08-.25,1.46,1.46,0,0,0,.88-1.4V507a1.8,1.8,0,0,1-.5.2,3.19,3.19,0,0,1-.6.12l-.64.08a2.41,2.41,0,0,0-.86.24,1,1,0,0,0-.48.88A.86.86,0,0,0,345.2,509.25Z" transform="translate(-0.5 -0.48)"/><path class="cls-2" d="M354.06,501.59h1.08v1.2h-1.08Zm0,2.36h1.08v6.25h-1.08Z" transform="translate(-0.5 -0.48)"/><path class="cls-2" d="M356.73,503.93h1v.89a2.78,2.78,0,0,1,.95-.8,2.5,2.5,0,0,1,1.1-.24,1.84,1.84,0,0,1,1.81.94,3.32,3.32,0,0,1,.26,1.46v4h-1.08v-3.95a2,2,0,0,0-.17-.93,1,1,0,0,0-1-.59,2,2,0,0,0-.61.08,1.6,1.6,0,0,0-.76.52,1.56,1.56,0,0,0-.35.64,4.54,4.54,0,0,0-.07.94v3.29h-1.06Z" transform="translate(-0.5 -0.48)"/><path class="cls-2" d="M363.62,502.17h1.06v1.76h1v.86h-1v4.09a.45.45,0,0,0,.22.44,1,1,0,0,0,.41.07h.37v.83a2.21,2.21,0,0,1-.37.08l-.43,0a1.14,1.14,0,0,1-1-.38,1.64,1.64,0,0,1-.26-1v-4.15h-.85v-.86h.85Z" transform="translate(-0.5 -0.48)"/><path class="cls-2" d="M370.65,504.1a2.46,2.46,0,0,1,1,.81A2.85,2.85,0,0,1,372,506a6.56,6.56,0,0,1,.1,1.38h-4.6a2.67,2.67,0,0,0,.45,1.53,1.5,1.5,0,0,0,1.31.58,1.64,1.64,0,0,0,1.31-.55,1.8,1.8,0,0,0,.4-.73h1a2.3,2.3,0,0,1-.27.77,2.83,2.83,0,0,1-.52.7,2.49,2.49,0,0,1-1.19.63,3.79,3.79,0,0,1-.86.09,2.64,2.64,0,0,1-2-.85,3.33,3.33,0,0,1-.81-2.39,3.59,3.59,0,0,1,.82-2.45,2.69,2.69,0,0,1,2.14-1A2.87,2.87,0,0,1,370.65,504.1Zm.38,2.46a2.57,2.57,0,0,0-.3-1.09,1.52,1.52,0,0,0-1.44-.77,1.6,1.6,0,0,0-1.22.53,2,2,0,0,0-.52,1.33Z" transform="translate(-0.5 -0.48)"/><path class="cls-2" d="M373.44,503.93h1V505a2.54,2.54,0,0,1,.61-.77,1.58,1.58,0,0,1,1.1-.46h.1l.24,0v1.12l-.17,0h-.17a1.53,1.53,0,0,0-1.23.51,1.81,1.81,0,0,0-.42,1.18v3.61h-1.06Z" transform="translate(-0.5 -0.48)"/><path class="cls-2" d="M377.41,501.59h1.07v1.2h-1.07Zm0,2.36h1.07v6.25h-1.07Z" transform="translate(-0.5 -0.48)"/><path class="cls-2" d="M384.66,504.55a3.19,3.19,0,0,1,.83,2.38,4.1,4.1,0,0,1-.73,2.51,2.69,2.69,0,0,1-2.3,1,2.56,2.56,0,0,1-2-.88,3.44,3.44,0,0,1-.76-2.35,3.74,3.74,0,0,1,.8-2.52,2.7,2.7,0,0,1,2.16-.94A2.85,2.85,0,0,1,384.66,504.55Zm-.66,4.18a4,4,0,0,0,.39-1.77,3.11,3.11,0,0,0-.28-1.43,1.58,1.58,0,0,0-1.53-.87,1.52,1.52,0,0,0-1.41.74,3.45,3.45,0,0,0-.44,1.78,3,3,0,0,0,.44,1.67,1.54,1.54,0,0,0,1.39.67A1.45,1.45,0,0,0,384,508.73Z" transform="translate(-0.5 -0.48)"/><path class="cls-2" d="M386.78,503.93h1V505a2.33,2.33,0,0,1,.6-.77,1.58,1.58,0,0,1,1.11-.46h.1l.24,0v1.12l-.17,0h-.18a1.49,1.49,0,0,0-1.22.51,1.77,1.77,0,0,0-.43,1.18v3.61h-1.05Z" transform="translate(-0.5 -0.48)"/><path class="cls-2" d="M390.31,511.43a.75.75,0,0,0,.57-.57,1.61,1.61,0,0,0,.09-.51.22.22,0,0,0,0-.08.2.2,0,0,0,0-.07h-.64v-1.28h1.25v1.19a2.53,2.53,0,0,1-.28,1.22,1.26,1.26,0,0,1-1,.65Z" transform="translate(-0.5 -0.48)"/><path class="cls-2" d="M272.37,520.8a.57.57,0,0,0,.48-.31.87.87,0,0,0,.07-.4.86.86,0,0,0-.38-.78,2,2,0,0,0-1.1-.25,1.39,1.39,0,0,0-1.17.45,1.37,1.37,0,0,0-.25.73h-1a1.81,1.81,0,0,1,.75-1.61,3.07,3.07,0,0,1,1.68-.46,3.43,3.43,0,0,1,1.8.42,1.44,1.44,0,0,1,.69,1.32v3.61a.54.54,0,0,0,.06.27.36.36,0,0,0,.29.1h.16l.18,0v.78a2.12,2.12,0,0,1-.37.09h-.35a.85.85,0,0,1-.79-.38,1.37,1.37,0,0,1-.18-.58,2.94,2.94,0,0,1-2.26,1,2,2,0,0,1-1.43-.53,1.76,1.76,0,0,1-.55-1.33,1.71,1.71,0,0,1,.54-1.35,2.58,2.58,0,0,1,1.43-.59Zm-2.23,2.85a1.24,1.24,0,0,0,.8.26,2.37,2.37,0,0,0,1.07-.25,1.46,1.46,0,0,0,.88-1.4v-.85a1.68,1.68,0,0,1-.5.2,3.25,3.25,0,0,1-.59.12l-.64.08a2.41,2.41,0,0,0-.86.24.93.93,0,0,0-.49.88A.88.88,0,0,0,270.14,523.65Z" transform="translate(-0.5 -0.48)"/><path class="cls-2" d="M275.71,516h1.05v8.61h-1.05Z" transform="translate(-0.5 -0.48)"/><path class="cls-2" d="M281.68,518.32h1v.9a2.76,2.76,0,0,1,.94-.8,2.51,2.51,0,0,1,1.11-.24,1.81,1.81,0,0,1,1.8.94,3.16,3.16,0,0,1,.26,1.45v4h-1.07v-4a2.16,2.16,0,0,0-.17-.92,1,1,0,0,0-1-.59,2.12,2.12,0,0,0-.62.08,1.66,1.66,0,0,0-.76.51,1.63,1.63,0,0,0-.34.65,4.42,4.42,0,0,0-.08.94v3.29h-1.05Z" transform="translate(-0.5 -0.48)"/><path class="cls-2" d="M292.93,519a3.15,3.15,0,0,1,.84,2.38,4.11,4.11,0,0,1-.74,2.51,2.66,2.66,0,0,1-2.29,1,2.59,2.59,0,0,1-2.06-.88,3.49,3.49,0,0,1-.76-2.35,3.79,3.79,0,0,1,.8-2.52,2.73,2.73,0,0,1,2.16-.94A2.84,2.84,0,0,1,292.93,519Zm-.65,4.18a4,4,0,0,0,.39-1.77,3.25,3.25,0,0,0-.28-1.43,1.59,1.59,0,0,0-1.54-.87,1.51,1.51,0,0,0-1.4.74,3.36,3.36,0,0,0-.44,1.78,2.91,2.91,0,0,0,.44,1.67,1.52,1.52,0,0,0,1.39.67A1.45,1.45,0,0,0,292.28,523.13Z" transform="translate(-0.5 -0.48)"/><path class="cls-2" d="M295.05,518.32h1v1.09a2.54,2.54,0,0,1,.61-.77,1.58,1.58,0,0,1,1.11-.46h.1l.24,0v1.12l-.18,0h-.17a1.49,1.49,0,0,0-1.22.51,1.77,1.77,0,0,0-.43,1.18v3.61h-1.06Z" transform="translate(-0.5 -0.48)"/><path class="cls-2" d="M299.23,516.57h1.07v1.75h1v.87h-1v4.09a.44.44,0,0,0,.22.44,1,1,0,0,0,.41.07h.37v.83a2.33,2.33,0,0,1-.38.08l-.42,0a1.16,1.16,0,0,1-1-.38,1.72,1.72,0,0,1-.26-1v-4.15h-.85v-.87h.85Z" transform="translate(-0.5 -0.48)"/><path class="cls-2" d="M306.26,518.5a2.42,2.42,0,0,1,1,.81,2.79,2.79,0,0,1,.42,1.11,7.53,7.53,0,0,1,.09,1.38h-4.6a2.67,2.67,0,0,0,.45,1.53,1.52,1.52,0,0,0,1.31.58,1.68,1.68,0,0,0,1.32-.55,1.8,1.8,0,0,0,.4-.73h1a1.93,1.93,0,0,1-.27.77,2.77,2.77,0,0,1-.52.7,2.45,2.45,0,0,1-1.19.63,3.72,3.72,0,0,1-.86.09,2.62,2.62,0,0,1-2-.85,3.29,3.29,0,0,1-.82-2.39,3.63,3.63,0,0,1,.82-2.45,2.71,2.71,0,0,1,2.15-1A2.86,2.86,0,0,1,306.26,518.5Zm.39,2.46a2.57,2.57,0,0,0-.3-1.09,1.53,1.53,0,0,0-1.45-.77,1.62,1.62,0,0,0-1.22.53,2,2,0,0,0-.52,1.33Z" transform="translate(-0.5 -0.48)"/><path class="cls-2" d="M315.82,518.52a2.91,2.91,0,0,1,.64.61V516h1v8.64h-1v-.87a2.31,2.31,0,0,1-.88.83,2.38,2.38,0,0,1-1.15.26,2.35,2.35,0,0,1-1.82-.88,3.46,3.46,0,0,1-.76-2.35,4,4,0,0,1,.7-2.37,2.28,2.28,0,0,1,2-1A2.14,2.14,0,0,1,315.82,518.52Zm-2.36,4.7a1.48,1.48,0,0,0,1.37.68,1.43,1.43,0,0,0,1.2-.63,2.92,2.92,0,0,0,.47-1.8,2.73,2.73,0,0,0-.48-1.77,1.53,1.53,0,0,0-1.2-.57,1.62,1.62,0,0,0-1.3.61,2.82,2.82,0,0,0-.49,1.8A3,3,0,0,0,313.46,523.22Z" transform="translate(-0.5 -0.48)"/><path class="cls-2" d="M322.94,518.5a2.42,2.42,0,0,1,1,.81,2.79,2.79,0,0,1,.42,1.11,7.53,7.53,0,0,1,.09,1.38h-4.6a2.6,2.6,0,0,0,.46,1.53,1.49,1.49,0,0,0,1.3.58,1.68,1.68,0,0,0,1.32-.55,1.8,1.8,0,0,0,.4-.73h1a2.13,2.13,0,0,1-.28.77,2.75,2.75,0,0,1-.51.7,2.54,2.54,0,0,1-1.19.63,3.88,3.88,0,0,1-.87.09,2.62,2.62,0,0,1-2-.85,3.33,3.33,0,0,1-.82-2.39,3.63,3.63,0,0,1,.82-2.45,2.73,2.73,0,0,1,2.15-1A2.83,2.83,0,0,1,322.94,518.5Zm.39,2.46a2.57,2.57,0,0,0-.3-1.09,1.53,1.53,0,0,0-1.45-.77,1.58,1.58,0,0,0-1.21.53,2,2,0,0,0-.53,1.33Z" transform="translate(-0.5 -0.48)"/><path class="cls-2" d="M335.35,516.62a3.06,3.06,0,0,1,1,2h-1.14a2.31,2.31,0,0,0-.77-1.32,2.39,2.39,0,0,0-1.62-.49,2.58,2.58,0,0,0-2.05.9,4.92,4.92,0,0,0-.08,5.19,2.5,2.5,0,0,0,2.11.94,2.22,2.22,0,0,0,2-1,3.67,3.67,0,0,0,.53-1.37h1.14a3.92,3.92,0,0,1-1,2.28,3.59,3.59,0,0,1-2.76,1.1,3.63,3.63,0,0,1-2.52-.91,4.69,4.69,0,0,1-1.34-3.7,4.76,4.76,0,0,1,1-3.13,3.7,3.7,0,0,1,3-1.32A3.55,3.55,0,0,1,335.35,516.62Z" transform="translate(-0.5 -0.48)"/><path class="cls-2" d="M337.71,516h1.05v3.21a3.14,3.14,0,0,1,.68-.66,2.21,2.21,0,0,1,1.27-.34,1.87,1.87,0,0,1,1.85,1,3.17,3.17,0,0,1,.26,1.44v4h-1.08v-4a2.17,2.17,0,0,0-.18-1,1.12,1.12,0,0,0-1.07-.51,1.79,1.79,0,0,0-1.19.45,2.15,2.15,0,0,0-.54,1.7v3.33h-1.05Z" transform="translate(-0.5 -0.48)"/><path class="cls-2" d="M344.38,516h1.08v1.2h-1.08Zm0,2.36h1.08v6.25h-1.08Z" transform="translate(-0.5 -0.48)"/><path class="cls-2" d="M347.05,518.32h1v.9a2.85,2.85,0,0,1,.94-.8,2.57,2.57,0,0,1,1.11-.24,1.83,1.83,0,0,1,1.81.94,3.31,3.31,0,0,1,.25,1.45v4h-1.07v-4a2,2,0,0,0-.17-.92,1,1,0,0,0-1-.59,2,2,0,0,0-.61.08,1.61,1.61,0,0,0-.76.51,1.66,1.66,0,0,0-.35.65,4.42,4.42,0,0,0-.08.94v3.29h-1.05Z" transform="translate(-0.5 -0.48)"/><path class="cls-2" d="M357.09,520.8a.57.57,0,0,0,.48-.31.87.87,0,0,0,.07-.4.86.86,0,0,0-.38-.78,2,2,0,0,0-1.1-.25,1.39,1.39,0,0,0-1.17.45,1.45,1.45,0,0,0-.25.73h-1a1.81,1.81,0,0,1,.75-1.61,3.07,3.07,0,0,1,1.68-.46,3.43,3.43,0,0,1,1.8.42,1.44,1.44,0,0,1,.69,1.32v3.61a.45.45,0,0,0,.07.27.33.33,0,0,0,.28.1h.16l.19,0v.78a2.42,2.42,0,0,1-.38.09h-.35a.86.86,0,0,1-.79-.38,1.37,1.37,0,0,1-.18-.58,2.94,2.94,0,0,1-2.26,1,2,2,0,0,1-1.43-.53,1.76,1.76,0,0,1-.55-1.33,1.71,1.71,0,0,1,.54-1.35,2.58,2.58,0,0,1,1.43-.59Zm-2.22,2.85a1.19,1.19,0,0,0,.79.26,2.37,2.37,0,0,0,1.07-.25,1.46,1.46,0,0,0,.88-1.4v-.85a1.72,1.72,0,0,1-.49.2,3.54,3.54,0,0,1-.6.12l-.64.08a2.41,2.41,0,0,0-.86.24.93.93,0,0,0-.49.88A.86.86,0,0,0,354.87,523.65Z" transform="translate(-0.5 -0.48)"/></svg>