<?xml version="1.0" encoding="UTF-8"?>
<svg id="Capa_2" data-name="Capa 2" xmlns="http://www.w3.org/2000/svg" viewBox="0 0 413.18 498.57">
  <defs>
    <style>
      .cls-1, .cls-2, .cls-3 {
        fill: none;
        stroke: #ca582d;
        stroke-miterlimit: 10;
      }

      .cls-4 {
        fill: #575756;
      }

      .cls-5 {
        fill: #bf4c22;
      }

      .cls-2 {
        stroke-linecap: round;
      }

      .cls-3 {
        stroke-width: .5px;
      }
    </style>
  </defs>
  <g id="ISS">
    <g>
      <path class="cls-4" d="M210.44,40.93l-.04-1.77,.74-15.1-1.62-6.69V5.95l-5.41-1.37v-.39c0-1.76-1.47-3.19-3.29-3.19h-2.1c-1.81,0-3.29,1.43-3.29,3.19v.52l-5.47,1.18-.44,11.53-1.84,6.51,.21,16.98h-1v-.59l-.21-16.53,1.87-6.59,.45-12.13,5.45-1.18c.15-2.18,2.01-3.9,4.28-3.9h2.1c2.23,0,4.06,1.67,4.27,3.8l5.43,1.38v12.13l1.62,6.65-.75,15.21,.04,1.74-1,.02Z"/>
      <path class="cls-4" d="M199.17,43.09c-2.05,0-12.28-.1-12.28-2.18s10.23-2.18,12.28-2.18c4.92,0,10.5,.45,11.85,1.46,.36,.24,.42,.55,.42,.72,0,2.07-10.22,2.18-12.27,2.18Zm-11.15-2.18c.92,.52,5.03,1.18,11.15,1.18s10.16-.65,11.12-1.16c-1.21-.62-5.48-1.19-11.12-1.19-6.12,0-10.24,.66-11.15,1.18Z"/>
      <path class="cls-4" d="M206.26,104.23l-.22-3.44v-15.36s4.39-10.45,4.39-10.45v-26.74l-5.75-1.86v-1.54c0-1.71-1.47-3.1-3.27-3.1h-2.16c-1.81,0-3.27,1.39-3.27,3.1v1.54l-5.75,1.86v26.74l4.39,10.55v15.22l-.22,3.47-1-.06,.22-3.44v-15.09s-4.4-10.55-4.4-10.55v-27.57l5.75-1.86v-.82c0-2.26,1.92-4.1,4.27-4.1h2.16c2.36,0,4.27,1.84,4.27,4.1v.82l5.75,1.86-.04,27.77-4.36,10.35v15.12l.22,3.41-1,.06Z"/>
      <path class="cls-4" d="M200.33,107.44c-3.95,0-6.93-1.39-6.93-3.23s2.98-3.23,6.93-3.23,6.93,1.39,6.93,3.23-2.98,3.23-6.93,3.23Zm0-5.47c-3.4,0-5.93,1.18-5.93,2.23s2.54,2.23,5.93,2.23,5.93-1.18,5.93-2.23-2.54-2.23-5.93-2.23Z"/>
      <path class="cls-5" d="M211.44,192.37h-20.64V121.2c0-3.85,2.09-7.32,5.48-9.12v-7.78s.22-.15,.22-.15c3.77-2.78,8-.04,8.05-.01l.22,.15v7.26c4,1.51,6.67,5.35,6.67,9.66v71.17Zm-19.64-1h18.64V121.2c0-4-2.54-7.55-6.33-8.83l-.34-.11v-7.42c-.83-.47-3.75-1.86-6.47-.02v7.88s-.29,.14-.29,.14c-3.21,1.58-5.2,4.79-5.2,8.36v70.17Z"/>
      <path class="cls-4" d="M208.56,201.24h-15.29v-5.79h15.29v5.79Zm-14.29-1h13.29v-3.79h-13.29v3.79Z"/>
      <path class="cls-5" d="M231.12,214.89h-26.23c-6.41,0-11.62,5.21-11.62,11.62v11.63h37.85c.41,0,.82-.02,1.22-.06,5.84-.61,10.4-5.57,10.4-11.57,0-6.41-5.21-11.62-11.62-11.62Zm.19,22.25h-37.04v-10.63c0-5.85,4.76-10.62,10.62-10.62h26.23c5.86,0,10.62,4.77,10.62,10.62s-4.66,10.53-10.43,10.63Z"/>
      <path class="cls-5" d="M188.54,214.74c-.32-.31-.65-.59-1-.84-1.09-.77-2.3-1.2-3.57-1.2h-6.71l-2.21,7.94h-13.27v11.06h13.29l2.22,6.44h6.68c1.27,0,2.48-.43,3.57-1.2,.35-.25,.68-.53,1-.84,2.32-2.27,3.86-6.21,3.86-10.68s-1.54-8.41-3.86-10.68Zm-1,20.95c-1.06,.92-2.28,1.45-3.57,1.45h-5.97l-2.22-6.44h-13v-9.06h13.02l2.22-7.94h5.95c1.29,0,2.51,.53,3.57,1.45,.36,.3,.69,.66,1,1.05,1.74,2.14,2.86,5.48,2.86,9.22s-1.12,7.08-2.86,9.22c-.31,.39-.64,.75-1,1.05Z"/>
      <polyline class="cls-4" points="195.26 195.88 195.26 191.87 196.26 191.87 196.24 196.09"/>
      <path class="cls-4" d="M194.97,200.49c.15,2.06-.36,3.64-1.51,4.71-1.56,1.46-3.85,1.52-4.92,1.46v9.54c-.31-.39-.64-.75-1-1.05v-9.62l.58,.09s2.98,.43,4.66-1.15c.93-.87,1.33-2.21,1.18-3.99v-.09"/>
      <polyline class="cls-4" points="204.02 195.96 204.02 191.87 205.02 191.87 205.02 195.88"/>
      <path class="cls-4" d="M206.32,200.48c-.14,1.78,.26,3.12,1.18,3.99,1.69,1.58,4.64,1.15,4.67,1.15l.57-.09v10.36h-1v-9.23c-1.06,.06-3.35,0-4.91-1.46-1.15-1.07-1.66-2.65-1.51-4.71"/>
      <path class="cls-5" d="M211.74,237.14h1v47.55l-.54-.04c-.12-.01-3.06-.17-4.21,3.21l3.98,1.33v35.28l-5.26,3.28v5.09h-9.64v-4.95l-7.05-3.17v-35l5.04-2.2c-2.22-3.65-6.73-2.91-6.93-2.87l-.58,.1v-.6s-.01-48.46-.01-48.46c.36-.3,.69-.66,1-1.05v48.96c1.54-.1,5.69,.01,7.67,3.94l.24,.47-5.43,2.36v33.7l7.05,3.18v4.59h7.64v-4.65l5.26-3.27v-34.01l-4.21-1.41,.13-.45c.98-3.65,3.69-4.28,4.85-4.38v-46.53Z"/>
      <polygon class="cls-4" points="230.45 172.11 213.96 172.11 213.96 161.15 210.94 161.15 210.94 160.15 214.96 160.15 214.96 171.11 229.36 171.11 228.55 160.82 229.36 150.62 214.96 150.62 214.96 159.45 210.94 159.45 210.94 158.45 213.96 158.45 213.96 149.62 230.45 149.62 229.54 160.82 230.45 172.11"/>
      <path class="cls-4" d="M211.44,93.4h-5.4v-2.71h5.4v2.71Zm-4.4-1h3.4v-.71h-3.4v.71Z"/>
      <path class="cls-4" d="M194.39,93.4h-6.41v-2.71h6.41v2.71Zm-5.41-1h4.41v-.71h-4.41v.71Z"/>
      <path class="cls-4" d="M186.39,172.75l-1.34-23.07,4.05-.24,1.34,23.07-4.05,.24Zm-.28-22.13l1.22,21.07,2.05-.12-1.22-21.07-2.05,.12Z"/>
      <path class="cls-4" d="M180.67,173.47l-1.34-23.07,4.05-.24,1.34,23.07-4.05,.24Zm-.28-22.13l1.23,21.07,2.05-.12-1.23-21.07-2.05,.12Z"/>
      <path class="cls-4" d="M175.33,174.02l-1.34-23.07,4.05-.24,1.34,23.07-4.05,.24Zm-.28-22.13l1.22,21.07,2.05-.12-1.22-21.07-2.05,.12Z"/>
      <path class="cls-4" d="M272.03,103.9h-28.57v-2.4h-33.03v-19.59h33.03v-2.4h28.57v24.4Zm-27.57-1h26.57v-22.4h-26.57v2.4h-33.03v17.59h33.03v2.4Z"/>
      <rect class="cls-4" x="210.48" y="83.47" width="61.06" height=".5"/>
      <rect class="cls-4" x="210.48" y="88.45" width="61.06" height=".5"/>
      <rect class="cls-4" x="210.48" y="93.31" width="61.06" height=".5"/>
      <rect class="cls-4" x="210.48" y="98.23" width="61.06" height=".5"/>
      <rect class="cls-4" x="264.58" y="80" width=".5" height="23.4"/>
      <rect class="cls-4" x="257.53" y="80" width=".5" height="23.4"/>
      <rect class="cls-4" x="250.48" y="80" width=".5" height="23.4"/>
      <rect class="cls-4" x="243.9" y="80" width=".5" height="23.4"/>
      <rect class="cls-4" x="236.85" y="82.41" width=".5" height="18.59"/>
      <rect class="cls-4" x="230.17" y="82.41" width=".5" height="18.59"/>
      <rect class="cls-4" x="223.08" y="82.41" width=".5" height="18.59"/>
      <rect class="cls-4" x="216.4" y="82.41" width=".5" height="18.59"/>
      <path class="cls-4" d="M155.5,104.24h-28.57v-24.4h28.57v2.4h33.03v19.59h-33.03v2.4Zm-27.57-1h26.57v-2.4h33.03v-17.59h-33.03v-2.4h-26.57v22.4Z"/>
      <rect class="cls-4" x="127.42" y="83.81" width="61.06" height=".5"/>
      <rect class="cls-4" x="127.42" y="88.79" width="61.06" height=".5"/>
      <rect class="cls-4" x="127.42" y="93.65" width="61.06" height=".5"/>
      <rect class="cls-4" x="127.42" y="98.57" width="61.06" height=".5"/>
      <rect class="cls-4" x="133.88" y="80.35" width=".5" height="23.4"/>
      <rect class="cls-4" x="140.93" y="80.35" width=".5" height="23.4"/>
      <rect class="cls-4" x="147.98" y="80.35" width=".5" height="23.4"/>
      <rect class="cls-4" x="154.56" y="80.35" width=".5" height="23.4"/>
      <rect class="cls-4" x="161.61" y="82.75" width=".5" height="18.59"/>
      <rect class="cls-4" x="168.29" y="82.75" width=".5" height="18.59"/>
      <rect class="cls-4" x="175.37" y="82.75" width=".5" height="18.59"/>
      <rect class="cls-4" x="182.05" y="82.75" width=".5" height="18.59"/>
      <polygon class="cls-4" points="243.32 300.36 237.5 298.85 211.47 298.85 211.47 297.85 237.69 297.87 243.57 299.39 243.32 300.36"/>
      <polygon class="cls-4" points="237.62 321.86 211.47 321.86 211.47 320.86 237.5 320.86 243.32 319.35 243.57 320.32 237.62 321.86"/>
      <path class="cls-4" d="M261.07,300.38c-.27-.35-.55-.68-.85-1-.04-.05-.08-.09-.13-.14-.32-.33-.65-.65-1-.94v1.08h-.29c.34,.31,.67,.64,.97,1,2.11,2.42,3.42,5.77,3.42,9.48s-1.3,7.06-3.41,9.48c-.3,.36-.63,.69-.97,1h.28v1.09c.35-.29,.68-.61,1-.94,.05-.05,.1-.1,.14-.15,.29-.32,.57-.65,.85-1,1.94-2.54,3.11-5.85,3.11-9.48s-1.18-6.95-3.12-9.48Zm-9.4-4.88c-6.9,0-12.51,6.44-12.51,14.36s5.61,14.37,12.51,14.37c1.57,0,3.07-.33,4.45-.94,.34-.15,.68-.31,1-.5v-1.16c-.32,.21-.66,.4-1,.56-1.37,.67-2.87,1.04-4.45,1.04-6.34,0-11.51-6-11.51-13.37s5.17-13.36,11.51-13.36c1.58,0,3.08,.37,4.45,1.04,.34,.16,.68,.35,1,.56v-1.16c-.32-.19-.66-.35-1-.5-1.38-.61-2.88-.94-4.45-.94Z"/>
      <path class="cls-4" d="M272.97,320.33h-12.96v-1h12.4c6.04-9.99,1-17.65,.03-18.96h-12.44v-1h12.92l.15,.18c.07,.09,7.15,9.05,.04,20.54l-.15,.24Z"/>
      <path class="cls-4" d="M267.66,290.63v9.75h3.96v-9.75h-3.96Zm1,8.75v-7.75h1.96v7.75h-1.96Z"/>
      <path class="cls-4" d="M261.71,290.63v9.75h3.96v-9.75h-3.96Zm1,8.75v-7.75h1.96v7.75h-1.96Z"/>
      <path class="cls-4" d="M256.12,290.63v9.75h3.97v-9.75h-3.97Zm2.97,8.75h-1.97v-7.75h1.97v7.75Z"/>
      <path class="cls-4" d="M267.66,319.34v9.75h3.96v-9.75h-3.96Zm2.96,8.75h-1.96v-7.75h1.96v7.75Z"/>
      <path class="cls-4" d="M261.71,319.34v9.75h3.96v-9.75h-3.96Zm2.96,8.75h-1.96v-7.75h1.96v7.75Z"/>
      <path class="cls-4" d="M256.12,319.34v9.75h3.97v-9.75h-3.97Zm2.97,8.75h-1.97v-7.75h1.97v7.75Z"/>
      <polygon class="cls-4" points="190.52 300.92 181.23 300.9 174.39 298.85 159.85 298.85 159.85 297.85 174.6 297.87 181.45 299.92 190.52 299.92 190.52 300.92"/>
      <polygon class="cls-4" points="174.53 322.89 159.85 322.89 159.85 321.89 174.39 321.89 181.38 319.82 190.52 319.82 190.52 320.82 181.45 320.82 174.53 322.89"/>
      <path class="cls-4" d="M159.91,322.89c-1.91,0-2.05-9.58-2.05-12.52s.15-12.52,2.05-12.52,2.05,9.58,2.05,12.52-.15,12.52-2.05,12.52Zm0-23.84c-.48,1.09-1.05,5.17-1.05,11.32s.57,10.24,1.05,11.32c.48-1.09,1.05-5.17,1.05-11.32s-.57-10.24-1.05-11.32Z"/>
      <path class="cls-4" d="M239.85,244.89l-7.51-6.81-1.03-.94h-19.57v17.71h100.39v-9.96h-72.28Zm71.28,8.96h-98.39v-15.71h18.19l8.54,7.75h71.66v7.96Z"/>
      <path class="cls-4" d="M337.25,256.4h-26.11v-16.66h26.11v16.66Zm-25.11-1h24.11v-14.66h-24.11v14.66Z"/>
      <path class="cls-4" d="M392.38,256.4h-52.89v-16.66h52.89v16.66Zm-51.89-1h50.89v-14.66h-50.89v14.66Z"/>
      <path class="cls-4" d="M108.26,253.28h-7.22v-4.13h7.22v4.13Zm-6.22-1h5.22v-2.13h-5.22v2.13Z"/>
      <path class="cls-4" d="M413.18,103.9h-49.19v-5.92h49.19v5.92Zm-48.19-1h47.19v-3.92h-47.19v3.92Z"/>
      <path class="cls-4" d="M413.18,237.19h-49.19v-5.92h49.19v5.92Zm-48.19-1h47.19v-3.92h-47.19v3.92Z"/>
      <path class="cls-4" d="M406.82,232.27h-16.97V102.9h16.97V232.27Zm-15.97-1h14.97V103.9h-14.97v127.38Z"/>
      <path class="cls-4" d="M386.86,232.27h-16.97V102.9h16.97V232.27Zm-15.97-1h14.97V103.9h-14.97v127.38Z"/>
      <path class="cls-4" d="M361.34,103.9h-49.19v-5.92h49.19v5.92Zm-48.19-1h47.19v-3.92h-47.19v3.92Z"/>
      <path class="cls-4" d="M361.34,237.19h-49.19v-5.92h49.19v5.92Zm-48.19-1h47.19v-3.92h-47.19v3.92Z"/>
      <path class="cls-4" d="M354.99,232.27h-16.97V102.9h16.97V232.27Zm-15.97-1h14.97V103.9h-14.97v127.38Z"/>
      <path class="cls-4" d="M335.03,232.27h-16.97V102.9h16.97V232.27Zm-15.97-1h14.97V103.9h-14.97v127.38Z"/>
      <path class="cls-4" d="M413.18,264.9h-49.19v-5.92h49.19v5.92Zm-48.19-1h47.19v-3.92h-47.19v3.92Z"/>
      <path class="cls-4" d="M412.35,398.02h-47.54v-5.75h47.54v5.75Zm-46.54-1h45.54v-3.75h-45.54v3.75Z"/>
      <path class="cls-4" d="M406.82,393.27h-16.97v-129.38h16.97v129.38Zm-15.97-1h14.97v-127.38h-14.97v127.38Z"/>
      <path class="cls-4" d="M386.86,393.27h-16.97v-129.38h16.97v129.38Zm-15.97-1h14.97v-127.38h-14.97v127.38Z"/>
      <path class="cls-4" d="M361.34,264.9h-49.19v-5.92h49.19v5.92Zm-48.19-1h47.19v-3.92h-47.19v3.92Z"/>
      <path class="cls-4" d="M359.79,398.02h-47.54v-5.75h47.54v5.75Zm-46.54-1h45.54v-3.75h-45.54v3.75Z"/>
      <path class="cls-4" d="M354.99,393.27h-16.97v-129.38h16.97v129.38Zm-15.97-1h14.97v-127.38h-14.97v127.38Z"/>
      <path class="cls-4" d="M335.03,393.27h-16.97v-129.38h16.97v129.38Zm-15.97-1h14.97v-127.38h-14.97v127.38Z"/>
      <path class="cls-4" d="M389.48,240.74h-4.63v-4.54h4.63v4.54Zm-3.63-1h2.63v-2.54h-2.63v2.54Z"/>
      <path class="cls-4" d="M389.48,259.94h-4.63v-4.54h4.63v4.54Zm-3.63-1h2.63v-2.54h-2.63v2.54Z"/>
      <path class="cls-4" d="M356.8,240.74h-4.63v-4.54h4.63v4.54Zm-3.63-1h2.63v-2.54h-2.63v2.54Z"/>
      <path class="cls-4" d="M356.8,259.94h-4.63v-4.54h4.63v4.54Zm-3.63-1h2.63v-2.54h-2.63v2.54Z"/>
      <path class="cls-4" d="M102.04,258.24h-26.11v-16.66h26.11v16.66Zm-25.11-1h24.11v-14.66h-24.11v14.66Z"/>
      <path class="cls-4" d="M73.68,258.24H20.79v-16.66h52.89v16.66Zm-51.89-1h50.89v-14.66H21.79v14.66Z"/>
      <path class="cls-4" d="M76.93,251.71h-4.25v-4.13h4.25v4.13Zm-3.25-1h2.25v-2.13h-2.25v2.13Z"/>
      <path class="cls-4" d="M48.46,399.83H.93v-5.75H48.46v5.75Zm-46.54-1H47.46v-3.75H1.93v3.75Z"/>
      <path class="cls-4" d="M49.19,266.7H0v-5.92H49.19v5.92Zm-48.19-1H48.19v-3.92H1v3.92Z"/>
      <path class="cls-4" d="M23.32,395.08H6.35v-129.38H23.32v129.38Zm-15.97-1h14.97v-127.38H7.35v127.38Z"/>
      <path class="cls-4" d="M43.29,395.08H26.31v-129.38h16.97v129.38Zm-15.97-1h14.97v-127.38h-14.97v127.38Z"/>
      <path class="cls-4" d="M97.93,399.83H50.39v-5.75h47.54v5.75Zm-46.54-1h45.54v-3.75H51.39v3.75Z"/>
      <path class="cls-4" d="M101.02,266.7H51.84v-5.92h49.19v5.92Zm-48.19-1h47.19v-3.92H52.84v3.92Z"/>
      <path class="cls-4" d="M75.16,395.08h-16.97v-129.38h16.97v129.38Zm-15.97-1h14.97v-127.38h-14.97v127.38Z"/>
      <path class="cls-4" d="M95.12,395.08h-16.97v-129.38h16.97v129.38Zm-15.97-1h14.97v-127.38h-14.97v127.38Z"/>
      <path class="cls-4" d="M49.19,239H0v-5.92H49.19v5.92Zm-48.19-1H48.19v-3.92H1v3.92Z"/>
      <path class="cls-4" d="M49.19,105.7H0v-5.92H49.19v5.92Zm-48.19-1H48.19v-3.92H1v3.92Z"/>
      <path class="cls-4" d="M23.32,234.08H6.35V104.7H23.32V234.08Zm-15.97-1h14.97V105.7H7.35v127.38Z"/>
      <path class="cls-4" d="M43.29,234.08H26.31V104.7h16.97V234.08Zm-15.97-1h14.97V105.7h-14.97v127.38Z"/>
      <path class="cls-4" d="M101.02,239H51.84v-5.92h49.19v5.92Zm-48.19-1h47.19v-3.92H52.84v3.92Z"/>
      <path class="cls-4" d="M101.02,105.7H51.84v-5.92h49.19v5.92Zm-48.19-1h47.19v-3.92H52.84v3.92Z"/>
      <path class="cls-4" d="M75.16,234.08h-16.97V104.7h16.97V234.08Zm-15.97-1h14.97V105.7h-14.97v127.38Z"/>
      <path class="cls-4" d="M95.12,234.08h-16.97V104.7h16.97V234.08Zm-15.97-1h14.97V105.7h-14.97v127.38Z"/>
      <path class="cls-4" d="M28.33,261.78h-4.63v-4.54h4.63v4.54Zm-3.63-1h2.63v-2.54h-2.63v2.54Z"/>
      <path class="cls-4" d="M28.33,242.57h-4.63v-4.54h4.63v4.54Zm-3.63-1h2.63v-2.54h-2.63v2.54Z"/>
      <path class="cls-4" d="M61.01,261.78h-4.63v-4.54h4.63v4.54Zm-3.63-1h2.63v-2.54h-2.63v2.54Z"/>
      <path class="cls-4" d="M61.01,242.57h-4.63v-4.54h4.63v4.54Zm-3.63-1h2.63v-2.54h-2.63v2.54Z"/>
      <path class="cls-4" d="M311.19,237.48l-57.14-.28-3.21-5.93h56.56l3.79,6.21Zm-56.55-1.28l54.76,.27-2.57-4.2h-54.32l2.13,3.93Z"/>
      <path class="cls-4" d="M307.77,230.49h-16.08l-1.21-14.91h16.04l1.26,14.91Zm-15.16-1h14.07l-1.09-12.91h-14.03l1.05,12.91Z"/>
      <path class="cls-4" d="M304.95,214.7h-14.47l1.21-14.91h14.93l-1.66,14.91Zm-13.39-1h12.49l1.44-12.91h-12.89l-1.05,12.91Z"/>
      <path class="cls-4" d="M306.61,199.14h-14.91l-1.7-14.66h14.91l1.7,14.66Zm-14.02-1h12.9l-1.46-12.66h-12.9l1.46,12.66Z"/>
      <path class="cls-4" d="M305.06,183.83h-14.91l1.54-14.91h14.91l-1.54,14.91Zm-13.8-1h12.9l1.34-12.91h-12.9l-1.34,12.91Z"/>
      <path class="cls-4" d="M306.61,168.09h-14.91l-1.7-14.49h14.91l1.7,14.49Zm-14.02-1h12.9l-1.46-12.49h-12.9l1.46,12.49Z"/>
      <path class="cls-4" d="M305.06,152.37h-14.91l1.54-14.91h14.91l-1.54,14.91Zm-13.8-1h12.9l1.34-12.91h-12.9l-1.34,12.91Z"/>
      <path class="cls-4" d="M306.61,136.84h-14.91l-1.7-14.57h14.91l1.7,14.57Zm-14.02-1h12.9l-1.46-12.57h-12.9l1.46,12.57Z"/>
      <path class="cls-4" d="M304.92,121.47h-14.91l1.69-15.28h14.91l-1.69,15.28Zm-13.8-1h12.9l1.47-13.28h-12.9l-1.47,13.28Z"/>
      <path class="cls-4" d="M288.74,229.74h-16.08l-1.21-14.91h16.04l1.26,14.91Zm-15.16-1h14.07l-1.09-12.91h-14.03l1.05,12.91Z"/>
      <path class="cls-4" d="M285.91,213.95h-14.47l1.21-14.91h14.93l-1.66,14.91Zm-13.39-1h12.49l1.44-12.91h-12.89l-1.05,12.91Z"/>
      <path class="cls-4" d="M287.58,198.38h-14.91l-1.7-14.66h14.91l1.7,14.66Zm-14.02-1h12.9l-1.46-12.66h-12.9l1.46,12.66Z"/>
      <path class="cls-4" d="M286.03,183.07h-14.91l1.54-14.91h14.91l-1.54,14.91Zm-13.8-1h12.9l1.34-12.91h-12.9l-1.34,12.91Z"/>
      <path class="cls-4" d="M287.58,167.33h-14.91l-1.7-14.49h14.91l1.7,14.49Zm-14.02-1h12.9l-1.46-12.49h-12.9l1.46,12.49Z"/>
      <path class="cls-4" d="M286.03,151.62h-14.91l1.54-14.91h14.91l-1.54,14.91Zm-13.8-1h12.9l1.34-12.91h-12.9l-1.34,12.91Z"/>
      <path class="cls-4" d="M287.58,136.09h-14.91l-1.7-14.57h14.91l1.7,14.57Zm-14.02-1h12.9l-1.46-12.57h-12.9l1.46,12.57Z"/>
      <path class="cls-4" d="M285.88,120.72h-14.91l1.7-14.28h14.91l-1.7,14.28Zm-13.79-1h12.9l1.46-12.28h-12.9l-1.46,12.28Z"/>
      <path class="cls-4" d="M269.11,229.74h-16.08l-1.21-14.91h16.04l1.26,14.91Zm-15.16-1h14.07l-1.09-12.91h-14.03l1.05,12.91Z"/>
      <path class="cls-4" d="M266.29,213.95h-14.47l1.21-14.91h14.93l-1.67,14.91Zm-13.39-1h12.49l1.44-12.91h-12.89l-1.05,12.91Z"/>
      <path class="cls-4" d="M267.95,198.38h-14.91l-1.7-14.66h14.91l1.7,14.66Zm-14.02-1h12.9l-1.46-12.66h-12.9l1.46,12.66Z"/>
      <path class="cls-4" d="M266.4,183.07h-14.91l1.54-14.91h14.91l-1.54,14.91Zm-13.8-1h12.9l1.34-12.91h-12.9l-1.34,12.91Z"/>
      <path class="cls-4" d="M267.96,167.33h-14.91l-1.7-14.49h14.91l1.7,14.49Zm-14.02-1h12.9l-1.46-12.49h-12.9l1.46,12.49Z"/>
      <path class="cls-4" d="M266.4,151.62h-14.91l1.54-14.91h14.91l-1.54,14.91Zm-13.8-1h12.9l1.34-12.91h-12.9l-1.34,12.91Z"/>
      <path class="cls-4" d="M267.95,136.09h-14.91l-1.7-14.57h14.91l1.7,14.57Zm-14.02-1h12.9l-1.46-12.57h-12.9l1.46,12.57Z"/>
      <path class="cls-4" d="M266.26,120.72h-14.91l1.7-14.28h14.91l-1.7,14.28Zm-13.79-1h12.9l1.46-12.28h-12.9l-1.46,12.28Z"/>
      <path class="cls-4" d="M162.97,241.27l-57.14-.28-3.21-5.93h56.56l3.79,6.21Zm-56.55-1.28l54.76,.27-2.57-4.2h-54.32l2.13,3.93Z"/>
      <path class="cls-4" d="M159.54,234.28h-16.08l-1.21-14.91h16.04l1.26,14.91Zm-15.16-1h14.07l-1.09-12.91h-14.03l1.05,12.91Z"/>
      <path class="cls-4" d="M156.72,218.49h-14.47l1.21-14.91h14.93l-1.66,14.91Zm-13.39-1h12.49l1.44-12.91h-12.89l-1.05,12.91Z"/>
      <path class="cls-4" d="M158.39,202.92h-14.91l-1.7-14.66h14.91l1.7,14.66Zm-14.02-1h12.9l-1.46-12.66h-12.9l1.46,12.66Z"/>
      <path class="cls-4" d="M156.84,187.62h-14.91l1.54-14.91h14.91l-1.54,14.91Zm-13.8-1h12.9l1.34-12.91h-12.9l-1.34,12.91Z"/>
      <path class="cls-4" d="M158.39,171.87h-14.91l-1.7-14.49h14.91l1.7,14.49Zm-14.02-1h12.9l-1.46-12.49h-12.9l1.46,12.49Z"/>
      <path class="cls-4" d="M156.84,156.16h-14.91l1.54-14.91h14.91l-1.54,14.91Zm-13.8-1h12.9l1.34-12.91h-12.9l-1.34,12.91Z"/>
      <path class="cls-4" d="M158.39,140.63h-14.91l-1.7-14.57h14.91l1.7,14.57Zm-14.02-1h12.9l-1.46-12.57h-12.9l1.46,12.57Z"/>
      <path class="cls-4" d="M156.69,125.26h-14.91l1.69-15.28h14.91l-1.69,15.28Zm-13.8-1h12.9l1.47-13.28h-12.9l-1.47,13.28Z"/>
      <path class="cls-4" d="M140.51,233.53h-16.08l-1.21-14.91h16.04l1.26,14.91Zm-15.16-1h14.07l-1.09-12.91h-14.03l1.05,12.91Z"/>
      <path class="cls-4" d="M137.69,217.74h-14.47l1.21-14.91h14.93l-1.66,14.91Zm-13.39-1h12.49l1.44-12.91h-12.89l-1.05,12.91Z"/>
      <path class="cls-4" d="M139.36,202.17h-14.91l-1.7-14.66h14.91l1.7,14.66Zm-14.02-1h12.9l-1.46-12.66h-12.9l1.46,12.66Z"/>
      <path class="cls-4" d="M137.8,186.86h-14.91l1.54-14.91h14.91l-1.54,14.91Zm-13.8-1h12.9l1.34-12.91h-12.9l-1.34,12.91Z"/>
      <path class="cls-4" d="M139.36,171.12h-14.91l-1.7-14.49h14.91l1.7,14.49Zm-14.02-1h12.9l-1.46-12.49h-12.9l1.46,12.49Z"/>
      <path class="cls-4" d="M137.8,155.41h-14.91l1.54-14.91h14.91l-1.54,14.91Zm-13.8-1h12.9l1.34-12.91h-12.9l-1.34,12.91Z"/>
      <path class="cls-4" d="M139.36,139.88h-14.91l-1.7-14.57h14.91l1.7,14.57Zm-14.02-1h12.9l-1.46-12.57h-12.9l1.46,12.57Z"/>
      <path class="cls-4" d="M137.66,124.5h-14.91l1.7-14.28h14.91l-1.7,14.28Zm-13.79-1h12.9l1.46-12.28h-12.9l-1.46,12.28Z"/>
      <path class="cls-4" d="M120.88,233.53h-16.08l-1.21-14.91h16.04l1.26,14.91Zm-15.16-1h14.07l-1.09-12.91h-14.03l1.05,12.91Z"/>
      <path class="cls-4" d="M118.06,217.74h-14.47l1.21-14.91h14.93l-1.67,14.91Zm-13.39-1h12.49l1.44-12.91h-12.89l-1.05,12.91Z"/>
      <path class="cls-4" d="M119.73,202.17h-14.91l-1.7-14.66h14.91l1.7,14.66Zm-14.02-1h12.9l-1.46-12.66h-12.9l1.46,12.66Z"/>
      <path class="cls-4" d="M118.18,186.86h-14.91l1.54-14.91h14.91l-1.54,14.91Zm-13.8-1h12.9l1.34-12.91h-12.9l-1.34,12.91Z"/>
      <path class="cls-4" d="M119.73,171.12h-14.91l-1.7-14.49h14.91l1.7,14.49Zm-14.02-1h12.9l-1.46-12.49h-12.9l1.46,12.49Z"/>
      <path class="cls-4" d="M118.18,155.41h-14.91l1.54-14.91h14.91l-1.54,14.91Zm-13.8-1h12.9l1.34-12.91h-12.9l-1.34,12.91Z"/>
      <path class="cls-4" d="M119.73,139.88h-14.91l-1.7-14.57h14.91l1.7,14.57Zm-14.02-1h12.9l-1.46-12.57h-12.9l1.46,12.57Z"/>
      <path class="cls-4" d="M118.03,124.5h-14.91l1.7-14.28h14.91l-1.7,14.28Zm-13.79-1h12.9l1.46-12.28h-12.9l-1.46,12.28Z"/>
      <polygon class="cls-4" points="187.74 256.89 107.67 256.89 107.67 246.43 174.24 246.43 187.77 237.22 188.33 238.05 174.55 247.43 108.67 247.43 108.67 255.89 187.74 255.89 187.74 256.89"/>
      <path class="cls-4" d="M210.05,14.48l-.15-4.74,38.98-1.23,.15,4.74-38.98,1.23Zm.88-3.77l.09,2.74,36.98-1.16-.09-2.74-36.98,1.16Z"/>
      <path class="cls-4" d="M233.07,21.97l-23.16-3.14,.64-4.7,23.16,3.14-.64,4.7Zm-22.03-3.99l21.18,2.87,.37-2.72-21.18-2.87-.37,2.72Z"/>
      <path class="cls-4" d="M189.75,13.54l-38.92-2.41,.29-4.73,38.92,2.41-.29,4.73Zm-37.86-3.35l36.92,2.29,.17-2.74-36.92-2.29-.17,2.74Z"/>
      <path class="cls-4" d="M166.51,20.33l-.49-4.72,23.24-2.43,.49,4.72-23.24,2.43Zm.6-3.83l.29,2.73,21.25-2.22-.29-2.73-21.25,2.22Z"/>
    </g>
    <circle class="cls-1" cx="110.88" cy="447.87" r="8.18"/>
    <circle class="cls-3" cx="110.88" cy="448.07" r="6.43"/>
    <circle class="cls-1" cx="110.88" cy="448.19" r="2.58"/>
    <path class="cls-1" d="M100.46,458.26c-.36-.57-.56-1.24-.56-1.96v-8.29c0-2.02,1.61-3.67,3.63-3.72"/>
    <path class="cls-1" d="M118.25,444.32c1.83,.24,3.24,1.8,3.24,3.69v8.29c0,.77-.23,1.48-.63,2.08"/>
    <path class="cls-2" d="M118.69,468.49l.06,9.99c.01,2.05,1.67,3.7,3.72,3.7h0c2.05,0,3.72-1.67,3.72-3.72v-8.37c0-4.3-1.75-8.2-4.56-11.02-.24-.24-.49-.48-.75-.7-.9-.8-1.9-1.49-2.97-2.06-.98-.52-2.02-.94-3.12-1.24"/>
    <path class="cls-2" d="M106.81,454.98c-2.38,.59-4.55,1.73-6.35,3.28-3.34,2.85-5.45,7.09-5.45,11.83v8.43c0,2.02,1.63,3.65,3.65,3.65h0c2.02,0,3.65-1.63,3.65-3.65v-9.9"/>
    <line class="cls-2" x1="100.91" y1="481.4" x2="100.91" y2="490.97"/>
    <line class="cls-2" x1="121.49" y1="482.18" x2="121.49" y2="490.97"/>
    <path class="cls-2" d="M104.28,491.82c-.91-.41-1.98-.65-3.11-.65-3.4,0-6.17,2.15-6.17,4.79,0,.75,.23,1.47,.63,2.11"/>
    <path class="cls-2" d="M125.23,498.07c.4-.64,.63-1.35,.63-2.11,0-2.64-2.76-4.79-6.17-4.79"/>
    <path class="cls-2" d="M125.23,498.07h-12.77v-17.42c0-.89-.72-1.62-1.62-1.62h0c-.89,0-1.62,.72-1.62,1.62v17.42h-13.58"/>
    <rect class="cls-2" x="105.22" y="462.37" width="10.42" height="5.11" rx="1.67" ry="1.67"/>
    <line class="cls-2" x1="117.57" y1="464.58" x2="115.63" y2="464.58"/>
    <line class="cls-2" x1="105.22" y1="464.58" x2="103.29" y2="464.58"/>
    <circle class="cls-1" cx="148.94" cy="447.87" r="8.18"/>
    <circle class="cls-3" cx="148.94" cy="448.07" r="6.43"/>
    <circle class="cls-1" cx="148.94" cy="448.19" r="2.58"/>
    <path class="cls-1" d="M138.51,458.26c-.36-.57-.56-1.24-.56-1.96v-8.29c0-2.02,1.61-3.67,3.63-3.72"/>
    <path class="cls-1" d="M156.31,444.32c1.83,.24,3.24,1.8,3.24,3.69v8.29c0,.77-.23,1.48-.63,2.08"/>
    <path class="cls-2" d="M156.74,468.49l.06,9.99c.01,2.05,1.67,3.7,3.72,3.7h0c2.05,0,3.72-1.67,3.72-3.72v-8.37c0-4.3-1.75-8.2-4.56-11.02-.24-.24-.49-.48-.75-.7-.9-.8-1.9-1.49-2.97-2.06-.98-.52-2.02-.94-3.12-1.24"/>
    <path class="cls-2" d="M144.86,454.98c-2.38,.59-4.55,1.73-6.35,3.28-3.34,2.85-5.45,7.09-5.45,11.83v8.43c0,2.02,1.63,3.65,3.65,3.65h0c2.02,0,3.65-1.63,3.65-3.65v-9.9"/>
    <line class="cls-2" x1="138.96" y1="481.4" x2="138.96" y2="490.97"/>
    <line class="cls-2" x1="159.55" y1="482.18" x2="159.55" y2="490.97"/>
    <path class="cls-2" d="M142.34,491.82c-.91-.41-1.98-.65-3.11-.65-3.4,0-6.17,2.15-6.17,4.79,0,.75,.23,1.47,.63,2.11"/>
    <path class="cls-2" d="M163.28,498.07c.4-.64,.63-1.35,.63-2.11,0-2.64-2.76-4.79-6.17-4.79"/>
    <path class="cls-2" d="M163.28,498.07h-12.77v-17.42c0-.89-.72-1.62-1.62-1.62h0c-.89,0-1.62,.72-1.62,1.62v17.42h-13.58"/>
    <rect class="cls-2" x="143.28" y="462.37" width="10.42" height="5.11" rx="1.67" ry="1.67"/>
    <line class="cls-2" x1="155.62" y1="464.58" x2="153.69" y2="464.58"/>
    <line class="cls-2" x1="143.28" y1="464.58" x2="141.34" y2="464.58"/>
    <circle class="cls-1" cx="187.52" cy="447.87" r="8.18"/>
    <circle class="cls-3" cx="187.52" cy="448.07" r="6.43"/>
    <circle class="cls-1" cx="187.52" cy="448.19" r="2.58"/>
    <path class="cls-1" d="M177.09,458.26c-.36-.57-.56-1.24-.56-1.96v-8.29c0-2.02,1.61-3.67,3.63-3.72"/>
    <path class="cls-1" d="M194.89,444.32c1.83,.24,3.24,1.8,3.24,3.69v8.29c0,.77-.23,1.48-.63,2.08"/>
    <path class="cls-2" d="M195.32,468.49l.06,9.99c.01,2.05,1.67,3.7,3.72,3.7h0c2.05,0,3.72-1.67,3.72-3.72v-8.37c0-4.3-1.75-8.2-4.56-11.02-.24-.24-.49-.48-.75-.7-.9-.8-1.9-1.49-2.97-2.06-.98-.52-2.02-.94-3.12-1.24"/>
    <path class="cls-2" d="M183.45,454.98c-2.38,.59-4.55,1.73-6.35,3.28-3.34,2.85-5.45,7.09-5.45,11.83v8.43c0,2.02,1.63,3.65,3.65,3.65h0c2.02,0,3.65-1.63,3.65-3.65v-9.9"/>
    <line class="cls-2" x1="177.54" y1="481.4" x2="177.54" y2="490.97"/>
    <line class="cls-2" x1="198.13" y1="482.18" x2="198.13" y2="490.97"/>
    <path class="cls-2" d="M180.92,491.82c-.91-.41-1.98-.65-3.11-.65-3.4,0-6.17,2.15-6.17,4.79,0,.75,.23,1.47,.63,2.11"/>
    <path class="cls-2" d="M201.87,498.07c.4-.64,.63-1.35,.63-2.11,0-2.64-2.76-4.79-6.17-4.79"/>
    <path class="cls-2" d="M201.87,498.07h-12.77v-17.42c0-.89-.72-1.62-1.62-1.62h0c-.89,0-1.62,.72-1.62,1.62v17.42h-13.58"/>
    <rect class="cls-2" x="181.86" y="462.37" width="10.42" height="5.11" rx="1.67" ry="1.67"/>
    <line class="cls-2" x1="194.2" y1="464.58" x2="192.27" y2="464.58"/>
    <line class="cls-2" x1="181.86" y1="464.58" x2="179.93" y2="464.58"/>
    <circle class="cls-1" cx="225.57" cy="447.87" r="8.18"/>
    <circle class="cls-3" cx="225.57" cy="448.07" r="6.43"/>
    <circle class="cls-1" cx="225.57" cy="448.19" r="2.58"/>
    <path class="cls-1" d="M215.15,458.26c-.36-.57-.56-1.24-.56-1.96v-8.29c0-2.02,1.61-3.67,3.63-3.72"/>
    <path class="cls-1" d="M232.94,444.32c1.83,.24,3.24,1.8,3.24,3.69v8.29c0,.77-.23,1.48-.63,2.08"/>
    <path class="cls-2" d="M233.38,468.49l.06,9.99c.01,2.05,1.67,3.7,3.72,3.7h0c2.05,0,3.72-1.67,3.72-3.72v-8.37c0-4.3-1.75-8.2-4.56-11.02-.24-.24-.49-.48-.75-.7-.9-.8-1.9-1.49-2.97-2.06-.98-.52-2.02-.94-3.12-1.24"/>
    <path class="cls-2" d="M221.5,454.98c-2.38,.59-4.55,1.73-6.35,3.28-3.34,2.85-5.45,7.09-5.45,11.83v8.43c0,2.02,1.63,3.65,3.65,3.65h0c2.02,0,3.65-1.63,3.65-3.65v-9.9"/>
    <line class="cls-2" x1="215.6" y1="481.4" x2="215.6" y2="490.97"/>
    <line class="cls-2" x1="236.19" y1="482.18" x2="236.19" y2="490.97"/>
    <path class="cls-2" d="M218.98,491.82c-.91-.41-1.98-.65-3.11-.65-3.4,0-6.17,2.15-6.17,4.79,0,.75,.23,1.47,.63,2.11"/>
    <path class="cls-2" d="M239.92,498.07c.4-.64,.63-1.35,.63-2.11,0-2.64-2.76-4.79-6.17-4.79"/>
    <path class="cls-2" d="M239.92,498.07h-12.77v-17.42c0-.89-.72-1.62-1.62-1.62h0c-.89,0-1.62,.72-1.62,1.62v17.42h-13.58"/>
    <rect class="cls-2" x="219.92" y="462.37" width="10.42" height="5.11" rx="1.67" ry="1.67"/>
    <line class="cls-2" x1="232.26" y1="464.58" x2="230.33" y2="464.58"/>
    <line class="cls-2" x1="219.92" y1="464.58" x2="217.98" y2="464.58"/>
    <circle class="cls-1" cx="265.26" cy="447.87" r="8.18"/>
    <circle class="cls-3" cx="265.26" cy="448.07" r="6.43"/>
    <circle class="cls-1" cx="265.26" cy="448.19" r="2.58"/>
    <path class="cls-1" d="M254.84,458.26c-.36-.57-.56-1.24-.56-1.96v-8.29c0-2.02,1.61-3.67,3.63-3.72"/>
    <path class="cls-1" d="M272.63,444.32c1.83,.24,3.24,1.8,3.24,3.69v8.29c0,.77-.23,1.48-.63,2.08"/>
    <path class="cls-2" d="M273.07,468.49l.06,9.99c.01,2.05,1.67,3.7,3.72,3.7h0c2.05,0,3.72-1.67,3.72-3.72v-8.37c0-4.3-1.75-8.2-4.56-11.02-.24-.24-.49-.48-.75-.7-.9-.8-1.9-1.49-2.97-2.06-.98-.52-2.02-.94-3.12-1.24"/>
    <path class="cls-2" d="M261.19,454.98c-2.38,.59-4.55,1.73-6.35,3.28-3.34,2.85-5.45,7.09-5.45,11.83v8.43c0,2.02,1.63,3.65,3.65,3.65h0c2.02,0,3.65-1.63,3.65-3.65v-9.9"/>
    <line class="cls-2" x1="255.29" y1="481.4" x2="255.29" y2="490.97"/>
    <line class="cls-2" x1="275.87" y1="482.18" x2="275.87" y2="490.97"/>
    <path class="cls-2" d="M258.66,491.82c-.91-.41-1.98-.65-3.11-.65-3.4,0-6.17,2.15-6.17,4.79,0,.75,.23,1.47,.63,2.11"/>
    <path class="cls-2" d="M279.61,498.07c.4-.64,.63-1.35,.63-2.11,0-2.64-2.76-4.79-6.17-4.79"/>
    <path class="cls-2" d="M279.61,498.07h-12.77v-17.42c0-.89-.72-1.62-1.62-1.62h0c-.89,0-1.62,.72-1.62,1.62v17.42h-13.58"/>
    <rect class="cls-2" x="259.6" y="462.37" width="10.42" height="5.11" rx="1.67" ry="1.67"/>
    <line class="cls-2" x1="271.95" y1="464.58" x2="270.01" y2="464.58"/>
    <line class="cls-2" x1="259.6" y1="464.58" x2="257.67" y2="464.58"/>
    <circle class="cls-1" cx="303.32" cy="447.87" r="8.18"/>
    <circle class="cls-3" cx="303.32" cy="448.07" r="6.43"/>
    <circle class="cls-1" cx="303.32" cy="448.19" r="2.58"/>
    <path class="cls-1" d="M292.89,458.26c-.36-.57-.56-1.24-.56-1.96v-8.29c0-2.02,1.61-3.67,3.63-3.72"/>
    <path class="cls-1" d="M310.69,444.32c1.83,.24,3.24,1.8,3.24,3.69v8.29c0,.77-.23,1.48-.63,2.08"/>
    <path class="cls-2" d="M311.12,468.49l.06,9.99c.01,2.05,1.67,3.7,3.72,3.7h0c2.05,0,3.72-1.67,3.72-3.72v-8.37c0-4.3-1.75-8.2-4.56-11.02-.24-.24-.49-.48-.75-.7-.9-.8-1.9-1.49-2.97-2.06-.98-.52-2.02-.94-3.12-1.24"/>
    <path class="cls-2" d="M299.24,454.98c-2.38,.59-4.55,1.73-6.35,3.28-3.34,2.85-5.45,7.09-5.45,11.83v8.43c0,2.02,1.63,3.65,3.65,3.65h0c2.02,0,3.65-1.63,3.65-3.65v-9.9"/>
    <line class="cls-2" x1="293.34" y1="481.4" x2="293.34" y2="490.97"/>
    <line class="cls-2" x1="313.93" y1="482.18" x2="313.93" y2="490.97"/>
    <path class="cls-2" d="M296.72,491.82c-.91-.41-1.98-.65-3.11-.65-3.4,0-6.17,2.15-6.17,4.79,0,.75,.23,1.47,.63,2.11"/>
    <path class="cls-2" d="M317.66,498.07c.4-.64,.63-1.35,.63-2.11,0-2.64-2.76-4.79-6.17-4.79"/>
    <path class="cls-2" d="M317.66,498.07h-12.77v-17.42c0-.89-.72-1.62-1.62-1.62h0c-.89,0-1.62,.72-1.62,1.62v17.42h-13.58"/>
    <rect class="cls-2" x="297.66" y="462.37" width="10.42" height="5.11" rx="1.67" ry="1.67"/>
    <line class="cls-2" x1="310" y1="464.58" x2="308.07" y2="464.58"/>
    <line class="cls-2" x1="297.66" y1="464.58" x2="295.72" y2="464.58"/>
  </g>
</svg>