<?xml version="1.0" encoding="UTF-8"?><svg id="Capa_1" xmlns="http://www.w3.org/2000/svg" viewBox="0 0 843.08 595.28"><defs><style>.cls-1{stroke-dasharray:0 1;stroke-width:.25px;}.cls-1,.cls-2,.cls-3,.cls-4,.cls-5,.cls-6,.cls-7,.cls-8,.cls-9{fill:none;stroke-miterlimit:10;}.cls-1,.cls-2,.cls-6{stroke:#fff;}.cls-3,.cls-9{stroke:#bf975f;}.cls-4,.cls-8{stroke:#d4a7a0;}.cls-5{stroke:#000;}.cls-5,.cls-6,.cls-7,.cls-8,.cls-9{stroke-width:.5px;}.cls-7{stroke:#ccd6ba;}</style></defs><line class="cls-5" x1="773.09" y1="247.55" x2="796.06" y2="257.41"/><rect width="843.08" height="595.28"/><path class="cls-2" d="M568.78,136.76l2.11-1.3,25.36-13.29,.85-.36c8.61-.95,16.44,5.91,17.48,15.33,.61,5.53-1.25,10.71-4.64,14.24l-20.88,12.69-3.58,1.77"/><path class="cls-2" d="M591.23,152.98c0,5.12-2.22,9.72-5.75,12.86-1.72,.61-3.57,.93-5.5,.93-9.36,0-16.96-7.67-16.96-17.14,0-5.13,2.23-9.73,5.76-12.87,1.72-.6,3.57-.92,5.49-.92,9.37,0,16.96,7.68,16.96,17.14Z"/><path class="cls-2" d="M591.23,152.98c0,5.12-2.22,9.72-5.75,12.86-1.72,.61-3.57,.93-5.5,.93-9.36,0-16.96-7.67-16.96-17.14,0-5.13,2.23-9.73,5.76-12.87,1.72-.6,3.57-.92,5.49-.92,9.37,0,16.96,7.68,16.96,17.14Z"/><path class="cls-2" d="M575.19,161c-.31,.46-.73,.83-1.22,1.1-2.39,1.3-5.78-.36-7.59-3.7-1.81-3.33-1.34-7.09,1.04-8.38,.15-.08,.31-.15,.47-.22"/><path class="cls-2" d="M575.66,160.79c-.15,.08-.31,.15-.47,.21,1.26-1.73,1.25-4.63-.18-7.28-1.68-3.12-4.77-4.77-7.12-3.92,.32-.45,.74-.82,1.23-1.09,2.38-1.3,5.78,.36,7.59,3.7,1.81,3.33,1.34,7.09-1.05,8.38Z"/><path class="cls-6" d="M574.8,140.07l4.62,1.56,.59,.2-2.89,4.81-4.93-1.7s-1.42-2.72,2.6-4.87Z"/><polygon class="cls-6" points="586.43 155.74 588.46 155.74 588.46 158.73 586.43 159.79 586.43 155.74"/><path class="cls-2" d="M613.62,145.38l5.47-4.26c1.26-3.67,1.04-8.08-.96-12.13-2.91-5.89-8.69-9.26-14.18-8.78l-5.77,1.5"/><path class="cls-2" d="M619.09,141.12l5.66-2.84c1.26-3.67,1.04-8.08-.96-12.13-2.91-5.89-8.69-9.26-14.18-8.78l-5.66,2.84"/><path class="cls-2" d="M609.59,117.33l15.86-8.97c5.42-.56,11.07,2.59,13.85,8.21,1.91,3.86,2.06,8.09,.75,11.65l-15.29,10.05"/><polygon class="cls-2" points="590.66 125.1 554.1 108.3 573.58 97.42 611.56 114.51 590.66 125.1"/><polygon class="cls-2" points="669.39 159.79 628.1 140.82 647.58 129.94 687.43 147.87 669.39 159.79"/><polyline class="cls-2" points="636.43 135.84 632.36 133.28 629.65 131.58"/><polyline class="cls-2" points="628.1 140.82 632.36 133.28 647.58 129.94"/><line class="cls-2" x1="565.77" y1="113.66" x2="585.42" y2="102.75"/><line class="cls-2" x1="578.05" y1="119.4" x2="597.7" y2="108.49"/><line class="cls-2" x1="641.58" y1="147.27" x2="660.45" y2="135.84"/><line class="cls-2" x1="655.3" y1="153.35" x2="674.18" y2="141.93"/><path class="cls-3" d="M534.06,199.82l.61-.35c2.17-1.03,3.89-2.72,5.1-4.86"/><polyline class="cls-3" points="530.96 201.6 527.9 203.35 525.13 204.94"/><path class="cls-3" d="M500.56,168.81l15.71-8.26c7.56-3.57,17.81,2.24,22.9,12.98,3.29,6.96,3.61,14.29,1.36,19.56"/><path class="cls-3" d="M511.03,215.85l8.09-4.79c8.13-3.85,10.29-16.31,4.84-27.85-5.46-11.53-16.47-17.76-24.6-13.92l-34.09,19.29-.5,.28h-.01"/><path class="cls-9" d="M487.4,177.59c7.08,.15,14.84,5.95,19.14,15.05,2.52,5.32,3.41,10.83,2.85,15.61"/><path class="cls-3" d="M539.31,191.68l8.72,10.02,2.47-.2c.27-.02,.47,.25,.37,.5l-2.7,2.05-9.8-11.01s-.49-.8,.93-1.36Z"/><path class="cls-3" d="M527.91,203.35l3.42,.88,2.43-1.42,.37-3.61c.04-.42-.39-.72-.77-.52l-2.02,1.04c-.17,.09-.28,.25-.29,.44l-.17,3.01"/><path class="cls-9" d="M516.4,178.53l.39-.63c-.11-.31-.47-.45-.75-.28l-6.58,3.95c-.16,.09-.23,.28-.19,.46l.91,.3"/><path class="cls-9" d="M505.02,182.27l.39-.63c-.11-.31-.47-.45-.75-.28l-6.58,3.95c-.16,.09-.23,.28-.19,.46l.91,.3"/><path class="cls-9" d="M498.09,189.12l.39-.63c-.11-.31-.47-.45-.75-.28l-6.58,3.95c-.16,.09-.23,.28-.19,.46l.91,.3"/><path class="cls-9" d="M477.48,209.24l.39-.63c-.11-.31-.47-.45-.75-.28l-6.58,3.95c-.16,.09-.23,.28-.19,.46l.91,.3"/><path class="cls-9" d="M469.67,214.03l.39-.63c-.11-.31-.47-.45-.75-.28l-6.58,3.95c-.16,.09-.23,.28-.19,.46l.91,.3"/><path class="cls-8" d="M485.05,273.62l.74,.04c.22-.24,.16-.63-.12-.8l-6.63-3.87c-.16-.09-.36-.07-.49,.05l.17,.94"/><path class="cls-8" d="M495.67,279.34l.74,.04c.22-.24,.16-.63-.12-.8l-6.63-3.87c-.16-.09-.36-.07-.49,.05l.17,.94"/><path class="cls-8" d="M479.76,263.62l.07-.74c-.23-.23-.62-.2-.8,.08l-4.19,6.43c-.1,.15-.09,.36,.03,.5l.95-.12"/><path class="cls-8" d="M488.09,255.78l.36-.65c-.12-.31-.49-.42-.77-.24l-6.4,4.24c-.15,.1-.22,.29-.17,.47l.92,.26"/><path class="cls-7" d="M326.38,173.7l.62,.04c.16-.22,.06-.57-.19-.72l-5.98-3.61c-.14-.09-.31-.07-.41,.04l.26,.86"/><path class="cls-7" d="M342.13,182.34l.62,.04c.16-.22,.06-.57-.19-.72l-5.98-3.61c-.14-.09-.31-.07-.41,.04l.26,.86"/><path class="cls-7" d="M354.5,189.31l.62,.04c.16-.22,.06-.57-.19-.72l-5.98-3.61c-.14-.09-.31-.07-.41,.04l.26,.86"/><path class="cls-7" d="M345.46,204.27l.62,.04c.16-.22,.06-.57-.19-.72l-5.98-3.61c-.14-.09-.31-.07-.41,.04l.26,.86"/><path class="cls-7" d="M334.63,198.27l.62,.04c.16-.22,.06-.57-.19-.72l-5.98-3.61c-.14-.09-.31-.07-.41,.04l.26,.86"/><path class="cls-7" d="M317.61,188.24l.62,.04c.16-.22,.06-.57-.19-.72l-5.98-3.61c-.14-.09-.31-.07-.41,.04l.26,.86"/><path class="cls-9" d="M514.48,192.08l.58,.46c.32-.07,.5-.41,.37-.71h0c-.13-2.61-1.21-5.08-3.02-6.97l-.06-.06c-.07-.17-.25-.27-.43-.25l-.42,.86"/><path class="cls-9" d="M472.1,205.92l.67,.34c.35-.02,.53-.24,.37-.45h0c-.3-1.72-1.64-3.41-3.77-4.75l-.07-.04c-.09-.11-.29-.19-.49-.19l-.41,.54"/><path class="cls-9" d="M522.05,186.8l.58,.46c.32-.07,.5-.41,.37-.71h0c-.13-2.61-1.21-5.08-3.02-6.97l-.06-.06c-.07-.17-.25-.27-.43-.25l-.42,.86"/><ellipse class="cls-9" cx="517.82" cy="201.36" rx="1.78" ry="1.05" transform="translate(176.72 639.91) rotate(-73.37)"/><path class="cls-9" d="M517.31,203.07l-1.26-.64c-.48-.14-.64-1.02-.36-1.97s.9-1.59,1.38-1.45l1.26,.64"/><path class="cls-9" d="M519.74,203.45c-.61,.95-1.57,1.56-2.64,1.56-1.84,0-3.33-1.78-3.33-3.98s1.49-3.98,3.33-3.98c.83,0,1.6,.37,2.18,.98"/><ellipse class="cls-7" cx="326.87" cy="201.27" rx="1.05" ry="1.78" transform="translate(-43.92 101.94) rotate(-16.63)"/><path class="cls-7" d="M327.38,202.97l1.26-.64c.48-.14,.64-1.02,.36-1.97s-.9-1.59-1.38-1.45l-1.26,.64"/><ellipse class="cls-7" cx="315.3" cy="193.97" rx="1.05" ry="1.78" transform="translate(-42.32 98.33) rotate(-16.63)"/><path class="cls-7" d="M315.81,195.67l1.26-.64c.48-.14,.64-1.02,.36-1.97s-.9-1.59-1.38-1.45l-1.26,.64"/><path class="cls-9" d="M493,197.02l1.07,1.44c.22,.3,.64,.37,.95,.17l1.81-1.18c.34-.22,.42-.68,.19-1.01l-.94-1.29c-.21-.29-.59-.37-.9-.21l-1.94,1.03c-.38,.2-.49,.7-.24,1.04Z"/><path class="cls-9" d="M493.24,195.98l-1.12,1.23c-.17,.18-.2,.46-.07,.67l1.3,2.17c.11,.28,.45,.37,.68,.17l.31-1.39"/><path class="cls-9" d="M497.21,197.03l.06,1.54c0,.26-.16,.49-.4,.56l-2.87,1.54"/><path class="cls-7" d="M349.14,194.48l-1.07,1.16c-.22,.24-.64,.3-.95,.14l-1.81-.95c-.34-.18-.42-.55-.19-.81l.94-1.04c.21-.23,.59-.3,.9-.17l1.94,.84c.38,.16,.49,.56,.24,.84Z"/><path class="cls-7" d="M348.9,193.64l1.12,.99c.17,.15,.2,.37,.07,.54l-1.3,1.75c-.11,.22-.45,.3-.68,.14l-.31-1.12"/><path class="cls-7" d="M344.93,194.49l-.06,1.24c0,.21,.16,.39,.4,.45l2.87,1.24"/><path class="cls-7" d="M343.23,191.1l-1.07,1.16c-.22,.24-.64,.3-.95,.14l-1.81-.95c-.34-.18-.42-.55-.19-.81l.94-1.04c.21-.23,.59-.3,.9-.17l1.94,.84c.38,.16,.49,.56,.24,.84Z"/><path class="cls-7" d="M342.99,190.26l1.12,.99c.17,.15,.2,.37,.07,.54l-1.3,1.75c-.11,.22-.45,.3-.68,.14l-.31-1.12"/><path class="cls-7" d="M339.02,191.11l-.06,1.24c0,.21,.16,.39,.4,.45l2.87,1.24"/><path class="cls-9" d="M498.91,193.4l1.07,1.44c.22,.3,.64,.37,.95,.17l1.81-1.18c.34-.22,.42-.68,.19-1.01l-.94-1.29c-.21-.29-.59-.37-.9-.21l-1.94,1.03c-.38,.2-.49,.7-.24,1.04Z"/><path class="cls-9" d="M499.14,192.35l-1.12,1.23c-.17,.18-.2,.46-.07,.67l1.3,2.17c.11,.28,.45,.37,.68,.17l.31-1.39"/><path class="cls-9" d="M503.11,193.41l.06,1.54c0,.26-.16,.49-.4,.56l-2.87,1.54"/><path class="cls-9" d="M501.17,205.77l-4.16,2.09c-.34,.17-.74-.03-.81-.41l-.51-3c-.04-.24,.08-.49,.3-.6l4.22-2.1c.34-.17,.75,.04,.8,.42l.45,3c.04,.24-.09,.48-.3,.58Z"/><ellipse class="cls-9" cx="484.42" cy="213.94" rx="4.17" ry="3.89"/><path class="cls-9" d="M481.67,211.02l2.37-2.57c.68-.48,1.5-.75,2.39-.75,2.3,0,4.17,1.87,4.17,4.17,0,.44-.07,.87-.2,1.27l-2.5,2.94"/><path class="cls-9" d="M481.15,201.72c0,2.25-1.17,4.08-2.61,4.08s-2.61-1.83-2.61-4.08c0-.99,.22-1.89,.59-2.59,.49-.91,1.21-1.49,2.02-1.49,.05,0,.11,0,.16,.01,1.37,.13,2.45,1.9,2.45,4.07Z"/><path class="cls-9" d="M481.15,201.72c.39,2.22-.2,5.08-1.62,5.33s-2.76-.74-3.15-2.96"/><path class="cls-9" d="M478.54,197.64l.21-.03h.01s.01-.01,.01-.01l4.39-.7,1.06-.1c1.4,0,2.54,1.66,2.54,3.7,0,.47-.06,.93-.17,1.34l-.5,.67-5.98,4.26"/><path class="cls-9" d="M475.45,196.8c0,2.13-1.4,3.87-3.13,3.87-.46,0-.89-.12-1.28-.35,0,0-.06-.03-.17-.09-.68-.45-1.21-1.19-1.47-2.09-.1-.3-.16-.63-.18-.96-.02-.13-.02-.25-.02-.38s0-.27,.02-.4c.04-.53,.17-1.04,.38-1.49h.01c.53-1.19,1.54-1.99,2.71-1.99,.11,0,.22,.01,.32,.02,.91,.12,1.71,.72,2.21,1.59,.16,.26,.29,.55,.38,.85,.14,.44,.22,.92,.22,1.42Z"/><path class="cls-9" d="M469.2,196.8c0-.13,0-.27,.02-.4,.02-.48,.1-.95,.22-1.4h0c.37-1.37,1.17-2.51,2.24-3.05,.44-.24,.92-.36,1.44-.36,.87,0,1.68,.31,2.35,.84l-.12,1.44-.03,.34-.1,1.17"/><path class="cls-9" d="M466.81,191.23c.6-.16,1.16-.28,1.69-.37h.01s.01-.01,.01-.01c.29-.05,.58-.09,.85-.12,4.74-.53,6.11,1.7,6.11,1.7"/><path class="cls-9" d="M471.04,200.32s-.06-.03-.17-.09c-.38-.21-1.34-.78-2.31-1.54-.7-.56-1.4-1.22-1.87-1.92-.17-.26-.31-.52-.41-.79"/><path class="cls-9" d="M466.99,192.43h-.01c-.02-.18-.05-.35-.1-.52-.31-1.25-1.08-2.32-2.11-3.05-.9-.64-2.02-1.02-3.22-1.02-.2,0-.4,0-.59,.03-1.76,.19-3.28,1.19-4.13,2.62-.49,.79-.77,1.73-.77,2.73,0,.32,.03,.64,.09,.95,.04,.25,.1,.49,.19,.72,.04,.15,.09,.29,.15,.42,.38,.87,.97,1.62,1.73,2.18,.74,.57,1.64,.94,2.62,1.06,.23,.03,.47,.05,.71,.05,.3,0,.6-.02,.88-.08h.01c1.75-.27,3.22-1.35,3.99-2.84,.4-.74,.62-1.57,.62-2.46,0-.27-.02-.53-.06-.79Zm-6.16,3.38c-.21-1.08-.31-2.08-.35-2.98,.15-.03,.31-.07,.48-.11h.01"/><path class="cls-9" d="M461.55,198.6c-.32-.98-.56-1.91-.72-2.79-.21-1.08-.31-2.08-.35-2.98-.01-.13-.01-.25-.01-.37-.02-.38-.02-.74,0-1.07,.06-2.21,.49-3.52,.49-3.52"/><path class="cls-9" d="M456.33,194.9h.01c.1-.11,1.29-1.35,4.14-2.07,.15-.03,.31-.07,.48-.11h.01c1.37-.29,3.08-.46,5.18-.34,.27,0,.55,.03,.83,.05h.01"/><path class="cls-9" d="M462.45,198.53l.02,.96,.07,3.19,.07,3.33s-.78,.5-1.37,.19c-.09-.04-.17-.11-.24-.19l-.08-3.83-.04-1.67-.04-1.96v-.02"/><path class="cls-9" d="M456.06,193.22s-.55,.48-1.05,1.29c-.11,.18-.22,.38-.32,.6-.45,.95-.71,2.2-.19,3.6,.11,.29,.25,.59,.44,.89,.14,.24,.31,.48,.5,.72,.33,.4,.72,.8,1.19,1.21l1.64-.78,2.57-1.23"/><ellipse class="cls-9" cx="466.8" cy="221.6" rx=".92" ry=".51" transform="translate(115.14 600.2) rotate(-72.51)"/><path class="cls-9" d="M467.08,220.72l-2.61-1.7-.34-.25c-.27-.09-.62,.26-.78,.77s-.07,.99,.2,1.08l2.98,1.86"/><ellipse class="cls-9" cx="461.05" cy="230.64" rx=".92" ry=".51" transform="translate(102.49 601.04) rotate(-72.51)"/><path class="cls-9" d="M461.33,229.76l-2.61-1.7-.34-.25c-.27-.09-.62,.26-.78,.77s-.07,.99,.2,1.08l2.98,1.86"/><ellipse class="cls-9" cx="459.01" cy="233.48" rx=".92" ry=".51" transform="translate(98.36 601.08) rotate(-72.51)"/><path class="cls-9" d="M459.28,232.6l-2.61-1.7-.34-.25c-.27-.09-.62,.26-.78,.77s-.07,.99,.2,1.08l2.98,1.86"/><ellipse class="cls-9" cx="452.62" cy="230.63" rx=".92" ry=".51" transform="translate(96.6 592.99) rotate(-72.51)"/><path class="cls-9" d="M452.89,229.76l-2.61-1.7-.34-.25c-.27-.09-.62,.26-.78,.77s-.07,.99,.2,1.08l2.98,1.86"/><ellipse class="cls-9" cx="469.88" cy="227.76" rx=".92" ry=".51" transform="translate(111.41 607.45) rotate(-72.51)"/><path class="cls-9" d="M470.15,226.89l-2.61-1.7-.34-.25c-.27-.09-.62,.26-.78,.77s-.07,.99,.2,1.08l2.98,1.86"/><ellipse class="cls-9" cx="472.28" cy="221.59" rx=".92" ry=".51" transform="translate(118.97 605.42) rotate(-72.51)"/><path class="cls-9" d="M472.55,220.72l-2.61-1.7-.34-.25c-.27-.09-.62,.26-.78,.77s-.07,.99,.2,1.08l2.98,1.86"/><ellipse class="cls-9" cx="475.68" cy="219.86" rx=".78" ry=".42" transform="translate(131.38 614.92) rotate(-73.73)"/><path class="cls-9" d="M475.9,219.11l-2.14-1.46-.28-.21c-.22-.07-.51,.22-.64,.66s-.06,.85,.17,.92l2.45,1.59"/><ellipse class="cls-9" cx="463.49" cy="227.76" rx="1.71" ry="1.14" transform="translate(115.03 608.91) rotate(-73.73)"/><polyline class="cls-9" points="492.67 219.02 492.67 215.15 492.67 213.94 497.26 211.88 497.26 213.39"/><path class="cls-9" d="M496.13,213.6l-3.46,1.55,3.46-1.55Z"/><line class="cls-9" x1="496.13" y1="216.94" x2="496.13" y2="213.6"/><rect class="cls-9" x="462.94" y="209.19" width="6.05" height="1.48" rx=".74" ry=".74" transform="translate(-42.54 261.11) rotate(-30)"/><path class="cls-9" d="M467.3,206.92c-.01,.25-.14,.49-.37,.62l-3.96,2.29c-.36,.2-.81,.08-1.01-.27-.07-.12-.1-.25-.1-.37,0-.04,0-.09,.01-.13,.04-.21,.16-.4,.36-.51l2.7-1.56h.01s1.25-.73,1.25-.73c.35-.2,.8-.08,1.01,.27,.06,.09,.09,.2,.09,.29v.1Z"/><path class="cls-9" d="M464.58,211.49v1.41s-.93,.41-1.34-.15v-1.73"/><path class="cls-9" d="M463.19,209.67v1.41s-.93,.41-1.34-.15v-1.73"/><path class="cls-9" d="M468.68,208.75v1.9s-.91,.16-1.42-.18v-.44"/><line class="cls-9" x1="467.29" y1="206.82" x2="467.42" y2="208.24"/><line class="cls-9" x1="466.34" y1="207.88" x2="466.34" y2="208.75"/><polyline class="cls-3" points="424.57 222.47 428.29 217.43 455.44 200.32"/><line class="cls-3" x1="443.17" y1="244.64" x2="479.54" y2="223.25"/><polygon class="cls-3" points="490.6 220.62 508.27 210.65 507.85 214.37 511.5 216.07 493.15 226.78 490.6 224.39 490.6 220.62"/><line class="cls-3" x1="490.6" y1="224.39" x2="507.85" y2="214.37"/><polygon class="cls-9" points="368.16 153.21 385.83 143.24 385.42 146.96 389.07 148.66 370.72 159.37 368.16 156.98 368.16 153.21"/><line class="cls-9" x1="368.16" y1="156.98" x2="385.42" y2="146.96"/><polygon class="cls-3" points="465.96 234.35 483.44 224.39 483.44 228.64 486.76 230.07 469.88 240.76 465.96 239.31 465.96 234.35"/><line class="cls-3" x1="465.96" y1="239.31" x2="483.44" y2="228.64"/><path class="cls-3" d="M477.61,224.39s-.09,1.79,1.93,2.22"/><line class="cls-3" x1="483.44" y1="226.61" x2="490.6" y2="222.47"/><polyline class="cls-9" points="582.67 275.18 493.15 226.78 511.5 216.07 597.6 261.25"/><polyline class="cls-9" points="559.39 288.53 469.88 240.76 486.76 230.07 573.85 276.59"/><line class="cls-9" x1="498.48" y1="223.82" x2="584.21" y2="270.12"/><line class="cls-9" x1="502.55" y1="221.55" x2="588.29" y2="267.86"/><line class="cls-9" x1="506.65" y1="218.76" x2="592.39" y2="265.07"/><line class="cls-9" x1="474.09" y1="238.38" x2="561.19" y2="284.9"/><line class="cls-9" x1="474.6" y1="233.61" x2="565.19" y2="282.3"/><line class="cls-9" x1="482.21" y1="232.95" x2="569.31" y2="279.57"/><line class="cls-9" x1="472.78" y1="242.31" x2="490.17" y2="231.62"/><line class="cls-9" x1="477.33" y1="244.66" x2="494.72" y2="233.97"/><line class="cls-9" x1="480.8" y1="246.89" x2="498.19" y2="236.2"/><line class="cls-9" x1="484.95" y1="248.91" x2="502.34" y2="238.22"/><line class="cls-9" x1="488.63" y1="251.18" x2="506.02" y2="240.49"/><line class="cls-9" x1="492.86" y1="252.99" x2="510.25" y2="242.31"/><line class="cls-9" x1="496.99" y1="255.35" x2="514.38" y2="244.66"/><line class="cls-9" x1="501" y1="257.29" x2="518.39" y2="246.6"/><line class="cls-9" x1="504.89" y1="259.59" x2="522.28" y2="248.91"/><line class="cls-9" x1="508.52" y1="261.54" x2="525.91" y2="250.85"/><line class="cls-9" x1="512.78" y1="263.97" x2="530.17" y2="253.28"/><line class="cls-9" x1="516.7" y1="266.03" x2="534.09" y2="255.35"/><line class="cls-9" x1="521.09" y1="268.16" x2="538.48" y2="257.48"/><line class="cls-9" x1="525.39" y1="270.7" x2="542.79" y2="260.01"/><line class="cls-9" x1="529.22" y1="272.68" x2="546.61" y2="261.99"/><line class="cls-9" x1="534.09" y1="275.07" x2="551.48" y2="264.38"/><line class="cls-9" x1="537.92" y1="277.01" x2="555.31" y2="266.33"/><line class="cls-9" x1="541.99" y1="279.51" x2="559.39" y2="268.82"/><line class="cls-9" x1="545.91" y1="281.62" x2="563.3" y2="270.94"/><line class="cls-9" x1="550.16" y1="283.99" x2="567.55" y2="273.3"/><line class="cls-9" x1="554.16" y1="286.29" x2="571.55" y2="275.6"/><line class="cls-9" x1="496.58" y1="228.64" x2="514.38" y2="217.83"/><line class="cls-9" x1="499.63" y1="230.33" x2="517.42" y2="219.52"/><line class="cls-9" x1="504.59" y1="233.17" x2="522.39" y2="222.36"/><line class="cls-9" x1="508.04" y1="235.06" x2="525.84" y2="224.25"/><line class="cls-9" x1="512.58" y1="237.02" x2="530.37" y2="226.21"/><line class="cls-9" x1="516.5" y1="239.35" x2="534.29" y2="228.54"/><line class="cls-9" x1="520.32" y1="241.06" x2="538.12" y2="230.25"/><line class="cls-9" x1="524.18" y1="243.05" x2="541.97" y2="232.24"/><line class="cls-9" x1="527.91" y1="245.43" x2="546.13" y2="234.36"/><line class="cls-9" x1="532.14" y1="247.71" x2="550.34" y2="236.65"/><line class="cls-9" x1="536.8" y1="250.05" x2="554.6" y2="238.68"/><line class="cls-9" x1="540.48" y1="252" x2="558.28" y2="240.62"/><line class="cls-9" x1="544.21" y1="254.04" x2="562" y2="242.66"/><line class="cls-9" x1="548.4" y1="256.28" x2="566.19" y2="244.9"/><line class="cls-9" x1="553.11" y1="258.94" x2="570.9" y2="247.55"/><line class="cls-9" x1="556.57" y1="261.04" x2="574.8" y2="249.29"/><line class="cls-9" x1="560.57" y1="263.16" x2="578.8" y2="251.41"/><line class="cls-9" x1="564.2" y1="265.5" x2="582.44" y2="253.75"/><line class="cls-9" x1="568.45" y1="267.87" x2="586.68" y2="256.12"/><line class="cls-9" x1="572.77" y1="269.73" x2="591.01" y2="257.98"/><line class="cls-9" x1="576.98" y1="271.76" x2="595.22" y2="260.01"/><polygon class="cls-9" points="583.31 270.94 601.43 258.94 601.42 264.61 583.52 276.75 583.31 270.94"/><polyline class="cls-9" points="348.47 172.63 364.58 162.59 361.24 161.21 361.18 156.96 343.83 167.14 343.87 169.82"/><line class="cls-9" x1="345.6" y1="170.88" x2="361.28" y2="161.3"/><polyline class="cls-3" points="462.43 187.09 452.64 181.95 436.11 173.28 432.44 171.35 389.34 148.73 384.62 151.49 370.99 159.44 414.27 182.84"/><line class="cls-9" x1="475.43" y1="193.91" x2="475.36" y2="193.87"/><polyline class="cls-3" points="427.42 189.95 442.3 197.99 446.61 200.32"/><line class="cls-9" x1="423.36" y1="187.76" x2="416.79" y2="184.2"/><polyline class="cls-9" points="414.61 189.44 416.13 190.25 424.41 194.68 425.42 195.21"/><polyline class="cls-3" points="435.46 200.58 432.84 199.18 429.86 197.59"/><polyline class="cls-9" points="412.17 188.14 411.93 188.01 364.6 162.73"/><polyline class="cls-9" points="379.39 189.6 395.48 198.39 399.4 200.53 403.86 202.97 405.84 204.05"/><line class="cls-9" x1="420.24" y1="211.92" x2="408.03" y2="205.25"/><polyline class="cls-3" points="424.67 182.6 435.7 188.56 439.34 190.52 443.3 192.66 447.26 194.8 448.39 195.41"/><line class="cls-9" x1="376.32" y1="156.48" x2="415.15" y2="177.45"/><polyline class="cls-3" points="462.45 198.53 462.44 198.52 462.43 198.52"/><polyline class="cls-3" points="452.34 193.07 451.03 192.37 447.08 190.23 443.11 188.09 439.49 186.13 380.39 154.21"/><line class="cls-9" x1="470.23" y1="197.73" x2="470.11" y2="197.67"/><polyline class="cls-3" points="456.83 190.49 455.26 189.64 451.3 187.51 384.62 151.49 384.49 151.42"/><line class="cls-3" x1="460.97" y1="192.72" x2="460.96" y2="192.72"/><polyline class="cls-9" points="409.48 201.78 411.28 202.74 415.97 205.25 419.71 207.24 421.5 208.2"/><polyline class="cls-9" points="407.51 200.73 407.22 200.57 403 198.32 398.99 196.17 351.93 171.04"/><polyline class="cls-9" points="355.79 168.07 403.17 193.54 407.23 195.72 408.81 196.57"/><polyline class="cls-9" points="425.94 205.78 423.9 204.68 423.89 204.68 420.17 202.67 415.49 200.16 411.73 198.14 411.13 197.81"/><line class="cls-3" x1="437.19" y1="211.82" x2="436.67" y2="211.54"/><polyline class="cls-9" points="410.41 192.56 407.33 190.91 360.05 165.61"/><polyline class="cls-9" points="427.15 201.52 424.42 200.06 419.73 197.55 415.96 195.54 412.78 193.83"/><line class="cls-3" x1="441.41" y1="209.16" x2="441.4" y2="209.15"/><line class="cls-9" x1="351.63" y1="174.35" x2="368.01" y2="164.28"/><line class="cls-9" x1="356.05" y1="176.78" x2="372.56" y2="166.63"/><line class="cls-9" x1="359.8" y1="178.84" x2="376.03" y2="168.86"/><line class="cls-9" x1="363.49" y1="180.86" x2="380.18" y2="170.88"/><line class="cls-9" x1="367.37" y1="183.29" x2="383.86" y2="173.15"/><line class="cls-9" x1="371.41" y1="185.22" x2="388.09" y2="174.97"/><line class="cls-9" x1="375.71" y1="187.46" x2="392.22" y2="177.32"/><line class="cls-9" x1="378.84" y1="189.95" x2="396.23" y2="179.26"/><line class="cls-9" x1="383.5" y1="191.78" x2="400.12" y2="181.57"/><line class="cls-9" x1="386.87" y1="193.89" x2="403.75" y2="183.51"/><line class="cls-9" x1="391.6" y1="196.03" x2="408.01" y2="185.94"/><line class="cls-9" x1="395.48" y1="198.39" x2="411.93" y2="188.01"/><polyline class="cls-9" points="409.77 194.16 407.23 195.72 403 198.32 399.4 200.53 398.93 200.82"/><line class="cls-9" x1="416.32" y1="190.14" x2="413.63" y2="191.79"/><polyline class="cls-9" points="420.62 192.67 415.96 195.54 411.73 198.14 410.74 198.74"/><polyline class="cls-9" points="407.51 200.73 407.05 201.01 403.86 202.97 403.75 203.04"/><line class="cls-9" x1="407.62" y1="204.99" x2="424.45" y2="194.65"/><polyline class="cls-9" points="411.93 207.73 412.23 207.54 415.97 205.25 420.17 202.67 424.42 200.06 426.41 198.84"/><polyline class="cls-9" points="427.42 202.51 423.9 204.68 423.89 204.68 419.71 207.24 415.93 209.56 415.76 209.67"/><polyline class="cls-3" points="430.77 200.45 432.84 199.18 433.15 198.99"/><polyline class="cls-9" points="419.83 212.17 420.01 212.06 420.24 211.92"/><line class="cls-9" x1="374.42" y1="161.3" x2="392.22" y2="150.49"/><line class="cls-9" x1="377.47" y1="162.99" x2="395.26" y2="152.18"/><line class="cls-9" x1="382.43" y1="165.83" x2="400.23" y2="155.02"/><line class="cls-9" x1="385.88" y1="167.72" x2="403.68" y2="156.91"/><line class="cls-9" x1="390.42" y1="169.68" x2="408.21" y2="158.87"/><line class="cls-9" x1="394.34" y1="172.01" x2="412.13" y2="161.2"/><line class="cls-9" x1="398.16" y1="173.72" x2="415.96" y2="162.91"/><line class="cls-9" x1="402.02" y1="175.71" x2="419.81" y2="164.9"/><line class="cls-9" x1="405.75" y1="178.09" x2="423.97" y2="167.02"/><line class="cls-9" x1="428.18" y1="169.31" x2="418.66" y2="175.1"/><line class="cls-9" x1="415.42" y1="177.06" x2="409.98" y2="180.37"/><line class="cls-3" x1="432.44" y1="171.35" x2="421.95" y2="178.04"/><line class="cls-9" x1="419.13" y1="179.84" x2="418.42" y2="180.3"/><line class="cls-3" x1="436.11" y1="173.28" x2="424.75" y2="180.55"/><polyline class="cls-9" points="421.9 182.37 421.76 182.46 418.32 184.66"/><line class="cls-3" x1="439.84" y1="175.32" x2="425.65" y2="184.4"/><line class="cls-9" x1="422.92" y1="186.14" x2="422.05" y2="186.7"/><line class="cls-3" x1="444.03" y1="177.56" x2="426.95" y2="188.49"/><line class="cls-3" x1="430.95" y1="191.6" x2="448.74" y2="180.21"/><line class="cls-3" x1="434.41" y1="193.7" x2="452.64" y2="181.95"/><line class="cls-3" x1="438.41" y1="195.82" x2="456.64" y2="184.07"/><line class="cls-3" x1="442.04" y1="198.16" x2="460.28" y2="186.41"/><polyline class="cls-3" points="468.5 190.86 468.51 190.85 468.52 190.85"/><line class="cls-9" x1="466.88" y1="191.91" x2="466.15" y2="192.38"/><polyline class="cls-9" points="469.44 195 469.45 195 469.6 194.91 469.61 194.9"/><path class="cls-9" d="M462.23,208.55l2.7-1.56-3.06,2.07c.04-.21,.16-.4,.36-.51Z"/><path class="cls-9" d="M475.33,194.21l-.1,1.17c.14,.44,.22,.92,.22,1.42,0,2.13-1.4,3.87-3.13,3.87-.46,0-.89-.12-1.28-.35,0,0-.06-.03-.17-.09-.38-.21-1.34-.78-2.31-1.54l.84-.55,.71-.47,4.74-3.14"/><path class="cls-9" d="M478.7,197.65l.05-.04-.21,.03c-.81,0-1.53,.58-2.02,1.49"/><polyline class="cls-9" points="559.49 289.19 559.38 286.17 577.5 274.17 577.5 279.84 561.83 290.46"/><polyline class="cls-9" points="580.22 273.85 580.22 275.18 583.31 277.01"/><path class="cls-3" d="M438.65,239.55c0,9.43-7.45,17.08-16.65,17.08-7.95,0-14.6-5.72-16.25-13.37-.26-1.19-.39-2.44-.39-3.71,0-9.43,7.45-17.08,16.65-17.08s16.65,7.65,16.65,17.08Z"/><path class="cls-3" d="M428.34,217.37c8.51-.73,16.05,6.3,16.85,15.7,.29,3.36-.33,6.56-1.62,9.32"/><path class="cls-3" d="M439.88,247.87c-1.87,3.47-5.22,5.29-7.48,4.08-.52-.28-.93-.69-1.24-1.2-1.07-1.73-.94-4.61,.51-7.29,.98-1.82,2.36-3.19,3.78-3.89,1.3-.66,2.62-.77,3.7-.19,2.27,1.21,2.59,5.02,.73,8.49Z"/><path class="cls-3" d="M437.89,247.3c-1.63,3.04-4.57,4.64-6.55,3.57-.06-.03-.12-.07-.18-.12-1.07-1.73-.94-4.61,.51-7.29,.98-1.82,2.36-3.19,3.78-3.89,.64-.09,1.26,0,1.8,.29,1.99,1.07,2.27,4.4,.64,7.44Z"/><line class="cls-3" x1="439.15" y1="239.38" x2="435.72" y2="237.04"/><path class="cls-3" d="M432.11,251.77l-4.89-4.57c-.44-1.7-.12-3.95,1.02-6.08,1.87-3.47,5.21-5.3,7.48-4.08"/><ellipse class="cls-9" cx="422.8" cy="225.53" rx="4.5" ry="1.55"/><ellipse class="cls-9" cx="422.8" cy="226.44" rx="4.5" ry="1.55"/><ellipse class="cls-9" cx="422.8" cy="227.29" rx="4.5" ry="1.55"/><path class="cls-9" d="M418.7,228.33s-4.83,3.22-6.68,8.37"/><path class="cls-3" d="M426.47,228.33s5.52,3.17,6.16,8.71"/><line class="cls-9" x1="421.47" y1="227.09" x2="421.47" y2="228.85"/><line class="cls-9" x1="424.57" y1="224.11" x2="424.57" y2="225.86"/><line class="cls-9" x1="421.47" y1="224.11" x2="421.47" y2="225.86"/><path class="cls-9" d="M411.55,252.84c.95,.3,1.84,.28,2.57-.15,.59-.34,1.01-.9,1.25-1.61,.64-1.78,.21-4.49-1.28-7.07-1.63-2.81-4.03-4.62-5.98-4.7-.55-.03-1.07,.08-1.52,.34-.52,.29-.9,.76-1.16,1.34h0"/><path class="cls-9" d="M415.37,251.08c-1.96-.09-4.35-1.9-5.97-4.7-1.48-2.58-1.92-5.3-1.29-7.07,1.95,.08,4.35,1.89,5.98,4.7,1.49,2.58,1.92,5.29,1.28,7.07Z"/><path class="cls-9" d="M415.08,251.95l4.6-4.96c-.04-1.6-.6-3.51-1.67-5.36-1.83-3.18-4.58-5.15-6.63-4.94l-4.79,2.96"/><ellipse class="cls-3" cx="440.63" cy="205.74" rx="1.34" ry="2.54" transform="translate(111.95 564.15) rotate(-72.51)"/><ellipse class="cls-3" cx="432.71" cy="211.46" rx="1.08" ry="1.92" transform="translate(-33.83 91.91) rotate(-11.67)"/><polyline class="cls-3" points="438.2 204.98 438.18 205.26 438.18 205.27 438.18 205.28 438.06 207.36 438.06 207.38 434.78 208.63 432.73 209.42 432.32 209.58"/><polyline class="cls-3" points="433.1 213.34 443.06 208.32 443.06 206.51"/><path class="cls-3" d="M434.78,208.63l-1.57-1.61c-.33-.33-.58-.74-.72-1.19l-.39-1.21-.17-.54-1.16-3.63-.91-2.86-2.44-7.64-.47-1.46-1.3-4.09-.7-2.18"/><path class="cls-3" d="M421.96,182.66c.01,.07,.03,.14,.06,.2l.9,3.28,.44,1.62,2.05,7.44h0s.01,0,.01,0l.99,3.63,.74,2.68,.27,.99,1.18,4.27,.14,.5,.04,.16c.08,.29,.24,.56,.45,.77l2.38,2.44"/><ellipse class="cls-3" cx="423.43" cy="181.79" rx="1.95" ry="1.47" transform="translate(105.15 515.02) rotate(-69.55)"/><line class="cls-3" x1="424.11" y1="179.97" x2="417.74" y2="174.28"/><line class="cls-3" x1="418.14" y1="178.86" x2="421.96" y2="182.66"/><path class="cls-3" d="M418.14,178.3c-.3,.5-.65,1.08-1.11,1.08-.9,0-1.63-1.2-1.63-2.68s.73-2.68,1.63-2.68c.34,0,.65,.17,.91,.46"/><polyline class="cls-3" points="404.34 214.11 408.03 205.25 408.32 204.56 409.48 201.78 410.74 198.74 411.13 197.81 412.78 193.83 413.63 191.79 418.73 179.55"/><path class="cls-3" d="M402.87,211.53c.99-2.49,1.98-4.99,2.97-7.48,.4-1.01,.81-2.03,1.21-3.04,.06-.15,.12-.29,.17-.44,.53-1.33,1.06-2.67,1.59-4,.32-.8,.64-1.61,.96-2.41,.21-.53,.43-1.07,.64-1.6,1.83-4.61,3.66-9.21,5.49-13.82"/><ellipse class="cls-3" cx="404.85" cy="216.44" rx="1.58" ry="1.22" transform="translate(30.64 482.37) rotate(-63.53)"/><line class="cls-9" x1="405.55" y1="215.03" x2="404.05" y2="214.08"/><polyline class="cls-3" points="403.24 210.44 401.84 209.58 396.31 209.58 392.54 209.58 392.54 217.74 391.35 217.74 391.35 221.86 398.64 221.86 398.64 217.74 396.62 217.74 396.62 213.64 398.85 213.64 403.92 217.74"/><path class="cls-7" d="M376.97,190.22c-5.24-2.84-12.76,.5-18.16,7.57-.14,.17-.26,.35-.39,.53-.15,.2-.29,.4-.43,.61-.65,.94-1.25,1.94-1.82,2.99-.32,.6-.63,1.2-.91,1.8-4.27,9.26-3.29,18.83,2.52,21.96,4.92,2.67,11.82-.1,17.11-6.29,1.35-1.58,2.6-3.38,3.68-5.38,.71-1.31,1.31-2.63,1.8-3.95,3.21-8.56,1.95-16.94-3.4-19.84Zm-10.39,25.49c-1.89-1.39-2.41-4.72-1.12-7.95,1.45-3.62,4.65-5.74,7.15-4.74m5.23,3.14c-.89-.36-1.87-.32-2.82,.05-1.73,.65-3.39,2.36-4.33,4.7-.73,1.81-.88,3.66-.53,5.18,.3,1.33,.98,2.4,1.98,2.97"/><path class="cls-7" d="M378.17,189.29c-5.56-3.01-13.63,.73-19.36,8.5-.14,.17-.26,.35-.39,.53-.15,.2-.29,.4-.43,.61-.65,.94-1.25,1.94-1.82,2.99-.32,.6-.63,1.2-.91,1.8-4.68,9.95-3.74,20.22,2.37,23.53,5.89,3.19,14.55-1.19,20.35-9.88,.58-.87,1.14-1.79,1.66-2.75,.06-.11,.12-.23,.18-.34,5.48-10.38,4.77-21.53-1.65-24.99Zm-6.39,29.53l-5.2-3.11c-1.89-1.39-2.41-4.72-1.12-7.95,1.45-3.62,4.65-5.74,7.15-4.74l5.76,3.41m-.53-.27c-.89-.36-1.87-.32-2.82,.05-1.73,.65-3.39,2.36-4.33,4.7-.73,1.81-.88,3.66-.53,5.18,.3,1.33,.98,2.4,1.98,2.97"/><path class="cls-7" d="M378.18,189.29l-2.76-2.05c-6.88-3.73-17.11,1.85-22.85,12.45-4.4,8.14-4.88,16.87-1.75,22.18l4.41,3.43"/><path class="cls-7" d="M379.82,214.28c-.03,.09-.07,.17-.1,.26-.44,1.1-1.04,2.06-1.74,2.83-.92,1.04-2,1.75-3.09,2.02-.79,.21-1.59,.18-2.32-.11l-.43-.22c-1-.57-1.68-1.64-1.98-2.97-.35-1.52-.2-3.37,.53-5.18,.94-2.34,2.6-4.05,4.33-4.7,.95-.37,1.93-.41,2.82-.05,1.43,.58,2.31,2.05,2.53,3.9,.17,1.29-.01,2.76-.55,4.22Z"/><path class="cls-7" d="M374.49,211.39c-.94,2.34-2.6,4.05-4.33,4.7-.35-1.52-.2-3.37,.53-5.18,.94-2.34,2.6-4.05,4.33-4.7,.35,1.52,.2,3.37-.53,5.18Z"/><line class="cls-7" x1="352.74" y1="217.01" x2="364.15" y2="214.08"/><line class="cls-7" x1="380.43" y1="195.08" x2="376.8" y2="204.76"/><path class="cls-7" d="M350.81,221.87l-54.5-33.11c-.25-4.12,.35-8.74,1.9-13.4,4.26-12.74,14.07-20.93,21.92-18.31l53.78,29.55"/><path class="cls-7" d="M329.83,162.47c-4.85-2.34-12.84,4.15-17.84,14.5-3.27,6.78-4.45,13.53-3.51,18.05"/><path class="cls-7" d="M337.2,166.73c-4.2-2.03-10.74,2.55-15.66,10.52l-2.54-.96s-2.24,1.56-3.46,5.78l2.7,1.7c-.76,1.85-1.35,3.68-1.79,5.44"/><path class="cls-7" d="M353.66,175.44c-4.85-2.34-12.84,4.15-17.84,14.5-3.27,6.76-4.45,13.5-3.52,18.02"/><ellipse class="cls-7" cx="301.86" cy="182.39" rx=".88" ry="1.59"/><ellipse class="cls-7" cx="312.92" cy="164.13" rx="2.06" ry="1.06" transform="translate(-40.39 158.79) rotate(-26.81)"/><polygon class="cls-7" points="296.25 183.25 277.07 193.3 269.26 183.41 288.78 174.11 296.25 183.25"/><polygon class="cls-7" points="282.25 182.34 274.33 186.08 272.5 183.74 280.31 180.19 282.25 182.34"/><polygon class="cls-7" points="285.53 186.33 277.75 190.37 275.84 188.1 283.51 184.26 285.53 186.33"/><polyline class="cls-7" points="300.48 169.35 282.25 159.76 282.76 176.39"/><polyline class="cls-7" points="318.25 156.18 302.74 148.25 282.25 159.76"/><ellipse class="cls-7" cx="294.69" cy="160.18" rx="1.06" ry="1.81" transform="translate(-36.05 104.42) rotate(-18.96)"/><path class="cls-7" d="M297.03,157.12c.55-.19,1.27,.42,1.59,1.37s.14,1.87-.41,2.06"/><polyline class="cls-7" points="301.23 139.05 297.03 157.12 294.1 158.46"/><line class="cls-7" x1="298.2" y1="160.55" x2="295.28" y2="161.89"/><line class="cls-7" x1="299.79" y1="137.8" x2="295.12" y2="157.99"/><ellipse class="cls-7" cx="301.27" cy="137.33" rx="1.48" ry="1.72"/><line class="cls-7" x1="298.2" y1="133.1" x2="299.79" y2="137.8"/><line class="cls-7" x1="300.95" y1="131.83" x2="302.75" y2="136.49"/><line class="cls-7" x1="301.99" y1="138.82" x2="308.16" y2="151.02"/><line class="cls-7" x1="302.75" y1="137.33" x2="310.33" y2="152.13"/><polygon class="cls-7" points="285.11 135.81 299.15 129.4 302.29 131.23 287.3 138 287.18 139.67 285.11 138 285.11 135.81"/><line class="cls-7" x1="266.5" y1="161.81" x2="263.73" y2="159.76"/><line class="cls-7" x1="275.2" y1="168.23" x2="268.18" y2="163.05"/><line class="cls-7" x1="282.68" y1="173.74" x2="276.94" y2="169.51"/><line class="cls-7" x1="295.84" y1="152.13" x2="272.22" y2="143.55"/><g><path class="cls-7" d="M267.02,152.58c-.26,0-.47,.46-.47,1.03s.21,1.03,.47,1.03"/><ellipse class="cls-7" cx="277.41" cy="160" rx=".47" ry="1.03"/><line class="cls-7" x1="267.02" y1="152.58" x2="277.41" y2="158.97"/><line class="cls-7" x1="277.41" y1="161.04" x2="267.02" y2="154.64"/></g><g><path class="cls-7" d="M266.5,162.98c-.26-.02-.5,.43-.54,1s.13,1.05,.39,1.06"/><ellipse class="cls-7" cx="276.33" cy="171.14" rx="1.03" ry=".47" transform="translate(85.86 434.52) rotate(-85.9)"/><line class="cls-7" x1="266.5" y1="162.98" x2="276.4" y2="170.1"/><line class="cls-7" x1="276.26" y1="172.17" x2="266.36" y2="165.05"/></g><line class="cls-7" x1="268.13" y1="164.15" x2="268.56" y2="155.59"/><line class="cls-7" x1="266.5" y1="162.98" x2="266.85" y2="154.42"/><line class="cls-7" x1="277.14" y1="160.84" x2="276.77" y2="170.77"/><line class="cls-7" x1="275.33" y1="169.14" x2="275.57" y2="159.87"/><line class="cls-7" x1="268.56" y1="155.59" x2="275.33" y2="169.14"/><line class="cls-7" x1="268.18" y1="163.79" x2="275.57" y2="159.87"/><path class="cls-7" d="M263.73,159.76c-.78-2.34-.55-5.64,.84-8.9,1.77-4.15,4.88-7,7.65-7.32l-6.26-3.2-2.23,.97-6.26,3.6,6.26,3.33"/><path class="cls-7" d="M263.48,158.82l-2.76,1.19-5.62-3.45,4.19-.97v-1.98l-3.25,.81-.14-1.84-1.94-.78h0c0-1,.73-1.86,1.72-2.01l1.38-.22,.07-1.32-2.74-.7v-4l1.44,.33v-2.23l4.03-1.98,3.88,1.65"/><line class="cls-7" x1="240.62" y1="158.31" x2="253.96" y2="151.79"/><line class="cls-7" x1="241.49" y1="160.56" x2="255.82" y2="153.74"/><polygon class="cls-7" points="238.12 157.15 241.49 159.76 226.92 167.07 223.09 164.68 238.12 157.15"/><polyline class="cls-7" points="238.5 161.26 240.62 162.11 241.49 159.76"/><polyline class="cls-7" points="223.09 164.68 223.09 167.07 226.92 169.02 226.92 167.07"/><polygon class="cls-7" points="222.44 163.86 206.84 154.63 207 158.31 204.89 158.89 220.08 168.42 222.45 167.07 222.44 163.86"/><line class="cls-7" x1="222.45" y1="167.07" x2="206.99" y2="158.06"/><polyline class="cls-7" points="18.13 244.43 204.89 158.89 220.08 168.42 33.17 255.86"/><line class="cls-7" x1="208.03" y1="160.86" x2="22.02" y2="247.07"/><line class="cls-7" x1="24.53" y1="249.12" x2="210.75" y2="162.57"/><line class="cls-7" x1="213.67" y1="164.4" x2="27.72" y2="251.78"/><line class="cls-7" x1="30.79" y1="253.72" x2="217.08" y2="166.54"/><line class="cls-7" x1="24.43" y1="255.15" x2="39.09" y2="266.84"/><line class="cls-7" x1="29.18" y1="252.97" x2="43.35" y2="264.71"/><line class="cls-7" x1="46.54" y1="249.6" x2="31.82" y2="238.17"/><line class="cls-7" x1="51.25" y1="247.4" x2="36.32" y2="236.1"/><line class="cls-7" x1="55.8" y1="245.27" x2="41.03" y2="233.95"/><line class="cls-7" x1="60.48" y1="243.08" x2="45.79" y2="231.77"/><line class="cls-7" x1="65.16" y1="240.89" x2="50.19" y2="229.75"/><line class="cls-7" x1="69.85" y1="238.7" x2="54.57" y2="227.75"/><line class="cls-7" x1="73.98" y1="236.77" x2="58.85" y2="225.78"/><line class="cls-7" x1="92.15" y1="228.27" x2="76.92" y2="217.51"/><line class="cls-7" x1="96.56" y1="226.21" x2="81.65" y2="215.34"/><line class="cls-7" x1="100.93" y1="224.16" x2="85.68" y2="213.5"/><line class="cls-7" x1="105.17" y1="222.18" x2="90" y2="211.52"/><line class="cls-7" x1="94.68" y1="209.37" x2="109.81" y2="220.01"/><line class="cls-7" x1="113.72" y1="218.18" x2="98.87" y2="207.45"/><line class="cls-7" x1="117.64" y1="216.35" x2="102.86" y2="205.63"/><line class="cls-7" x1="122.63" y1="214.01" x2="107.69" y2="203.42"/><line class="cls-7" x1="126.39" y1="212.25" x2="111.8" y2="201.53"/><line class="cls-7" x1="131.36" y1="209.92" x2="116.49" y2="199.38"/><line class="cls-7" x1="135.28" y1="208.09" x2="120.7" y2="197.46"/><line class="cls-7" x1="139.23" y1="206.25" x2="124.48" y2="195.72"/><line class="cls-7" x1="128.5" y1="193.88" x2="143.61" y2="204.2"/><line class="cls-7" x1="147.71" y1="202.28" x2="132.79" y2="191.92"/><line class="cls-7" x1="151.85" y1="200.34" x2="137.23" y2="189.88"/><line class="cls-7" x1="155.99" y1="198.4" x2="141.1" y2="188.11"/><line class="cls-7" x1="160.2" y1="196.44" x2="145.02" y2="186.32"/><line class="cls-7" x1="164.62" y1="194.37" x2="149.84" y2="184.11"/><line class="cls-7" x1="168.65" y1="192.48" x2="153.84" y2="182.27"/><line class="cls-7" x1="172.37" y1="190.74" x2="157.52" y2="180.59"/><line class="cls-7" x1="176.72" y1="188.71" x2="161.75" y2="178.65"/><line class="cls-7" x1="180.85" y1="186.77" x2="165.82" y2="176.79"/><line class="cls-7" x1="184.86" y1="184.9" x2="169.94" y2="174.9"/><line class="cls-7" x1="188.64" y1="183.13" x2="173.34" y2="173.34"/><line class="cls-7" x1="192.71" y1="181.23" x2="177.4" y2="171.48"/><line class="cls-7" x1="196.61" y1="179.4" x2="181.46" y2="169.62"/><line class="cls-7" x1="200.81" y1="177.44" x2="185.62" y2="167.72"/><line class="cls-7" x1="204.89" y1="175.53" x2="189.55" y2="165.92"/><line class="cls-7" x1="208.53" y1="173.83" x2="193.22" y2="164.24"/><line class="cls-7" x1="212.25" y1="172.09" x2="197.73" y2="162.57"/><line class="cls-7" x1="215.96" y1="170.35" x2="200.87" y2="160.73"/><polygon class="cls-7" points="16.06 254.68 35.66 269.57 35.26 273.07 16.46 258.84 16.06 254.68"/><polyline class="cls-7" points="35.26 273.07 37.78 271.24 35.66 270.75"/><polygon class="cls-7" points="244.64 176.12 228.75 166.79 228.95 170.57 226.82 171.18 242.29 180.83 244.68 179.42 244.64 176.12"/><line class="cls-7" x1="228.94" y1="170.31" x2="244.68" y2="179.42"/><polyline class="cls-7" points="38.48 260.76 226.82 171.18 242.29 180.83 53.82 272.35"/><line class="cls-7" x1="230.02" y1="173.18" x2="42.44" y2="263.43"/><line class="cls-7" x1="45" y1="265.51" x2="232.78" y2="174.9"/><line class="cls-7" x1="235.76" y1="176.76" x2="48.26" y2="268.22"/><line class="cls-7" x1="51.39" y1="270.18" x2="239.24" y2="178.93"/><line class="cls-7" x1="43.36" y1="258.44" x2="58.32" y2="270.31"/><line class="cls-7" x1="48.15" y1="256.16" x2="62.61" y2="268.08"/><line class="cls-7" x1="67.3" y1="265.81" x2="52.29" y2="254.2"/><line class="cls-7" x1="72.05" y1="263.5" x2="56.83" y2="252.04"/><line class="cls-7" x1="76.64" y1="261.27" x2="61.58" y2="249.78"/><line class="cls-7" x1="81.36" y1="258.98" x2="66.38" y2="247.5"/><line class="cls-7" x1="86.08" y1="256.69" x2="70.81" y2="245.39"/><line class="cls-7" x1="90.81" y1="254.39" x2="75.22" y2="243.29"/><line class="cls-7" x1="94.97" y1="252.37" x2="79.55" y2="241.23"/><line class="cls-7" x1="113.29" y1="243.47" x2="97.77" y2="232.57"/><line class="cls-7" x1="117.74" y1="241.31" x2="102.54" y2="230.3"/><line class="cls-7" x1="122.15" y1="239.17" x2="106.6" y2="228.36"/><line class="cls-7" x1="126.42" y1="237.1" x2="110.95" y2="226.29"/><line class="cls-7" x1="115.67" y1="224.05" x2="131.1" y2="234.83"/><line class="cls-7" x1="135.04" y1="232.91" x2="119.9" y2="222.04"/><line class="cls-7" x1="138.99" y1="230.99" x2="123.92" y2="220.13"/><line class="cls-7" x1="144.03" y1="228.54" x2="128.79" y2="217.81"/><line class="cls-7" x1="147.82" y1="226.71" x2="132.94" y2="215.84"/><line class="cls-7" x1="152.84" y1="224.27" x2="137.67" y2="213.58"/><line class="cls-7" x1="156.79" y1="222.35" x2="141.91" y2="211.57"/><line class="cls-7" x1="160.76" y1="220.42" x2="145.73" y2="209.75"/><line class="cls-7" x1="149.78" y1="207.82" x2="165.18" y2="218.27"/><line class="cls-7" x1="169.32" y1="216.27" x2="154.11" y2="205.77"/><line class="cls-7" x1="173.49" y1="214.24" x2="158.59" y2="203.63"/><line class="cls-7" x1="177.67" y1="212.21" x2="162.49" y2="201.78"/><line class="cls-7" x1="181.91" y1="210.15" x2="166.44" y2="199.9"/><line class="cls-7" x1="186.37" y1="207.99" x2="171.31" y2="197.59"/><line class="cls-7" x1="190.43" y1="206.01" x2="175.34" y2="195.67"/><line class="cls-7" x1="194.18" y1="204.19" x2="179.05" y2="193.9"/><line class="cls-7" x1="198.57" y1="202.06" x2="183.31" y2="191.88"/><line class="cls-7" x1="202.74" y1="200.04" x2="187.42" y2="189.92"/><line class="cls-7" x1="206.78" y1="198.08" x2="191.58" y2="187.95"/><line class="cls-7" x1="210.59" y1="196.22" x2="195" y2="186.32"/><line class="cls-7" x1="214.69" y1="194.23" x2="199.1" y2="184.37"/><line class="cls-7" x1="218.62" y1="192.32" x2="203.19" y2="182.42"/><line class="cls-7" x1="222.86" y1="190.26" x2="207.38" y2="180.43"/><line class="cls-7" x1="226.98" y1="188.27" x2="211.35" y2="178.54"/><line class="cls-7" x1="230.64" y1="186.49" x2="215.05" y2="176.78"/><line class="cls-7" x1="234.39" y1="184.67" x2="219.6" y2="175.02"/><line class="cls-7" x1="238.14" y1="182.84" x2="222.77" y2="173.11"/><polygon class="cls-7" points="34.89 258.04 54.87 273.15 54.5 276.75 35.33 262.31 34.89 258.04"/><polyline class="cls-7" points="54.5 276.75 57.04 274.84 54.88 274.35"/><line class="cls-7" x1="220.26" y1="168.42" x2="225.92" y2="171.43"/><polyline class="cls-7" points="285.11 122.33 426.59 56.83 441.59 63.5 300.95 130.44"/><line class="cls-7" x1="287.87" y1="123.7" x2="429.71" y2="58.22"/><line class="cls-7" x1="291.37" y1="125.52" x2="432.35" y2="59.39"/><line class="cls-7" x1="294.7" y1="127.4" x2="435.67" y2="60.87"/><line class="cls-7" x1="297.31" y1="128.81" x2="438.62" y2="62.18"/><polyline class="cls-7" points="441.59 63.5 444.1 62.64 444.1 59.72 428.5 53.41 428.5 56.04 426.59 56.83"/><line class="cls-7" x1="428.5" y1="56.04" x2="444.1" y2="62.64"/><line class="cls-7" x1="424" y1="58.22" x2="438.62" y2="64.92"/><line class="cls-7" x1="435.34" y1="66.48" x2="421.17" y2="59.34"/><line class="cls-7" x1="432.35" y1="67.9" x2="418.41" y2="60.62"/><line class="cls-7" x1="429.71" y1="69.16" x2="415.04" y2="62.18"/><line class="cls-7" x1="412.19" y1="63.5" x2="426.87" y2="70.51"/><line class="cls-7" x1="423.55" y1="72.09" x2="408.92" y2="65.01"/><line class="cls-7" x1="406.15" y1="66.29" x2="420.52" y2="73.53"/><line class="cls-7" x1="417.47" y1="74.98" x2="403.01" y2="67.75"/><line class="cls-7" x1="400.27" y1="69.16" x2="414.5" y2="76.4"/><line class="cls-7" x1="402.16" y1="82.27" x2="387.39" y2="74.98"/><line class="cls-7" x1="384.72" y1="76.22" x2="398.87" y2="83.84"/><line class="cls-7" x1="396.01" y1="85.2" x2="381.53" y2="77.69"/><line class="cls-7" x1="378.15" y1="79.26" x2="392.83" y2="86.71"/><line class="cls-7" x1="389.55" y1="88.27" x2="374.74" y2="80.84"/><line class="cls-7" x1="371.65" y1="82.27" x2="386.08" y2="89.92"/><line class="cls-7" x1="383.23" y1="91.28" x2="368.26" y2="83.84"/><line class="cls-7" x1="365.32" y1="85.2" x2="380.46" y2="92.6"/><line class="cls-7" x1="376.96" y1="94.26" x2="362.05" y2="86.71"/><line class="cls-7" x1="358.68" y1="88.27" x2="373.47" y2="95.93"/><line class="cls-7" x1="370.36" y1="97.4" x2="355.41" y2="89.79"/><line class="cls-7" x1="352.42" y1="91.17" x2="367.39" y2="98.82"/><line class="cls-7" x1="363.89" y1="100.49" x2="349.03" y2="92.74"/><line class="cls-7" x1="346.17" y1="94.06" x2="360.86" y2="101.93"/><line class="cls-7" x1="357.49" y1="103.53" x2="342.44" y2="95.79"/><line class="cls-7" x1="339.41" y1="97.19" x2="354.16" y2="105.12"/><line class="cls-7" x1="350.5" y1="106.86" x2="336.07" y2="98.82"/><line class="cls-7" x1="332.78" y1="100.26" x2="347.41" y2="108.33"/><line class="cls-7" x1="344.14" y1="109.88" x2="329.18" y2="101.93"/><line class="cls-7" x1="325.83" y1="103.48" x2="340.5" y2="111.62"/><line class="cls-7" x1="337.41" y1="113.09" x2="322.46" y2="105.12"/><line class="cls-7" x1="318.93" y1="106.67" x2="333.91" y2="114.76"/><line class="cls-7" x1="330.54" y1="116.36" x2="315.35" y2="108.33"/><line class="cls-7" x1="312.21" y1="109.78" x2="327.42" y2="117.84"/><line class="cls-7" x1="324.08" y1="119.43" x2="308.97" y2="111.29"/><line class="cls-7" x1="305.49" y1="112.9" x2="320.68" y2="121.05"/><line class="cls-7" x1="317.17" y1="122.72" x2="301.99" y2="114.52"/><line class="cls-7" x1="298.7" y1="116.04" x2="313.58" y2="124.43"/><line class="cls-7" x1="309.8" y1="126.23" x2="295.39" y2="117.57"/><line class="cls-7" x1="292.14" y1="119.08" x2="306.72" y2="127.69"/><line class="cls-7" x1="303.15" y1="129.4" x2="288.06" y2="120.96"/><polyline class="cls-7" points="294.1 131.7 281.05 124.71 281.05 120.02 298.41 129.4"/><polyline class="cls-7" points="306.41 133.47 448.73 67.58 463.74 74.25 320.85 142.26"/><line class="cls-7" x1="308.82" y1="135" x2="451.86" y2="68.97"/><line class="cls-7" x1="312.92" y1="136.98" x2="454.49" y2="70.14"/><line class="cls-7" x1="315.89" y1="138.6" x2="457.81" y2="71.62"/><line class="cls-7" x1="318.28" y1="140.11" x2="460.76" y2="72.93"/><polyline class="cls-7" points="463.74 74.25 466.25 73.39 466.25 70.47 450.64 64.16 450.64 66.79 448.73 67.58"/><line class="cls-7" x1="450.64" y1="66.79" x2="466.25" y2="73.39"/><line class="cls-7" x1="446.14" y1="68.97" x2="460.76" y2="75.67"/><line class="cls-7" x1="457.49" y1="77.22" x2="443.31" y2="70.09"/><line class="cls-7" x1="454.49" y1="78.65" x2="440.55" y2="71.37"/><line class="cls-7" x1="451.86" y1="79.9" x2="437.18" y2="72.93"/><line class="cls-7" x1="434.33" y1="74.25" x2="449.01" y2="81.26"/><line class="cls-7" x1="445.7" y1="82.84" x2="431.06" y2="75.76"/><line class="cls-7" x1="428.3" y1="77.04" x2="442.66" y2="84.28"/><line class="cls-7" x1="439.62" y1="85.73" x2="425.15" y2="78.5"/><line class="cls-7" x1="422.41" y1="79.9" x2="436.64" y2="87.15"/><line class="cls-7" x1="424.31" y1="93.02" x2="409.53" y2="85.73"/><line class="cls-7" x1="406.86" y1="86.97" x2="421.01" y2="94.59"/><line class="cls-7" x1="418.16" y1="95.95" x2="403.67" y2="88.44"/><line class="cls-7" x1="400.3" y1="90" x2="414.98" y2="97.46"/><line class="cls-7" x1="411.7" y1="99.02" x2="396.88" y2="91.59"/><line class="cls-7" x1="393.79" y1="93.02" x2="408.23" y2="100.67"/><line class="cls-7" x1="405.38" y1="102.03" x2="390.4" y2="94.59"/><line class="cls-7" x1="387.47" y1="95.95" x2="402.61" y2="103.35"/><line class="cls-7" x1="399.11" y1="105.01" x2="384.2" y2="97.46"/><line class="cls-7" x1="380.83" y1="99.02" x2="395.61" y2="106.67"/><line class="cls-7" x1="392.51" y1="108.15" x2="377.55" y2="100.53"/><line class="cls-7" x1="374.56" y1="101.92" x2="389.54" y2="109.57"/><line class="cls-7" x1="386.03" y1="111.24" x2="371.18" y2="103.49"/><line class="cls-7" x1="368.31" y1="104.81" x2="383.01" y2="112.68"/><line class="cls-7" x1="379.64" y1="114.28" x2="364.58" y2="106.54"/><line class="cls-7" x1="361.55" y1="107.94" x2="376.3" y2="115.87"/><line class="cls-7" x1="372.65" y1="117.61" x2="358.22" y2="109.57"/><line class="cls-7" x1="354.93" y1="111.01" x2="369.55" y2="119.08"/><line class="cls-7" x1="366.29" y1="120.63" x2="351.33" y2="112.68"/><line class="cls-7" x1="347.98" y1="114.23" x2="362.64" y2="122.37"/><line class="cls-7" x1="359.55" y1="123.84" x2="344.6" y2="115.87"/><line class="cls-7" x1="341.07" y1="117.42" x2="356.05" y2="125.5"/><line class="cls-7" x1="352.68" y1="127.11" x2="337.5" y2="119.08"/><line class="cls-7" x1="334.35" y1="120.53" x2="349.57" y2="128.59"/><line class="cls-7" x1="346.22" y1="130.18" x2="331.11" y2="122.03"/><line class="cls-7" x1="327.63" y1="123.64" x2="342.82" y2="131.8"/><line class="cls-7" x1="339.32" y1="133.47" x2="324.13" y2="125.26"/><line class="cls-7" x1="320.85" y1="126.79" x2="335.72" y2="135.18"/><line class="cls-7" x1="331.94" y1="136.98" x2="317.53" y2="128.32"/><line class="cls-7" x1="314.28" y1="129.82" x2="328.87" y2="138.44"/><line class="cls-7" x1="325.29" y1="140.15" x2="310.21" y2="131.71"/><polygon class="cls-7" points="320.55 141.34 303.19 131.96 303.19 136.66 320.55 145.24 320.55 141.34"/><polyline class="cls-7" points="320.55 145.24 322.11 143.89 320.55 143.67"/><polyline class="cls-3" points="428.01 204.65 425.94 205.78 421.5 208.2 419.93 209.06 420.07 214.08 429.49 208.48"/><polyline class="cls-3" points="432.81 206.51 438.65 203.04 438.65 198.84 435.46 200.58 431.5 202.74"/><polyline class="cls-9" points="417.46 210.69 415.36 212.23 420.08 214.08"/><polyline class="cls-3" points="465.96 187.87 465.96 185 462.43 187.09 461.13 187.86 460.93 187.98"/><polyline class="cls-3" points="456.92 190.36 456.76 190.45 452.34 193.07 448.39 195.41 446.28 196.66 446.28 200.14 446.28 200.53 446.28 201.53 454.21 196.66"/><polyline class="cls-3" points="446.28 201.53 443.52 200.32 444.7 199.28"/><path class="cls-2" d="M278.32,302.82l34.14-16.79c6.55-3.05,14.47-1.16,18.72,4.46h0c4.92,6.51,3.19,15.59-3.83,20.05l-30.91,20.45"/><ellipse class="cls-2" cx="286.14" cy="318.28" rx="9.02" ry="17.32" transform="translate(-112.86 163.44) rotate(-26.83)"/><path class="cls-1" d="M315.83,318c.26-3.28-.26-7.21-1.65-11.22-2.98-8.62-8.91-14.48-13.53-13.59"/><path class="cls-2" d="M323.32,314c.23-3.24-.43-7.13-2.07-11.12-3.52-8.58-10.3-14.48-15.48-13.69"/><path class="cls-2" d="M282.53,305.55c-2.71,3.12-2.83,8.87,0,14.09,2.95,5.44,8.12,8.49,12.3,7.58"/><path class="cls-2" d="M326.73,280.68h0c.08-.06,.17-.11,.26-.15,4.82-2.44,11.29,.64,14.44,6.87,2.39,4.72,2.2,9.89-.12,13.18"/><path class="cls-2" d="M324.97,285.73c.17-1.9,.77-3.65,1.76-5.05h0s19.44-11.39,19.44-11.39c4.3-.42,9.09,2.57,11.67,7.67,2.39,4.72,2.2,9.89-.12,13.18l-15.3,9.42c-.53,.46-.84,.74-1.03,.9h-.01c-.24,.21-.29,.24-.34,.27-2.22,1.12-4.79,1.08-7.23,.08"/><path class="cls-2" d="M352.95,271.26l3.21-1.81c2.32-1.34,5.73,.2,7.6,3.44s1.5,6.96-.82,8.3l-3.39,2.48"/><ellipse class="cls-6" cx="336.71" cy="278.4" rx="1.77" ry=".83"/><ellipse class="cls-2" cx="423.13" cy="293.62" rx="8" ry="4.54"/><path class="cls-2" d="M431.12,293.62v2.82c0,2.51-3.58,4.54-8,4.54s-7.99-2.03-7.99-4.54v-2.82"/><path class="cls-2" d="M430.83,294.82c.1,.05,.19,.1,.29,.16,2.47,1.31,4.02,3.23,4.02,5.36,0,3.97-5.38,7.2-12.02,7.2s-12.02-3.23-12.02-7.2c0-2.14,1.56-4.06,4.03-5.36,.1-.07,.19-.12,.29-.16"/><ellipse class="cls-2" cx="436.77" cy="302.23" rx=".74" ry="1.89"/><line class="cls-2" x1="435.14" y1="300.34" x2="436.91" y2="300.34"/><line class="cls-2" x1="433.58" y1="304.13" x2="436.77" y2="304.13"/><path class="cls-2" d="M434.22,316.83c.13,.35,.19,.7,.19,1.07,0,3.26-5.07,5.91-11.33,5.91s-11.32-2.65-11.32-5.91c0-.37,.06-.72,.19-1.07"/><line class="cls-2" x1="411.53" y1="302.23" x2="411.95" y2="316.83"/><line class="cls-2" x1="434.22" y1="316.83" x2="434.22" y2="304.13"/><path class="cls-2" d="M435.03,339.17c-1.41,3-6.17,5.21-11.83,5.21-4.91,0-9.15-1.66-11.11-4.07l-.14-.3v-11.53c0-2.54,.98-4.88,2.6-6.7"/><path class="cls-2" d="M435.03,339.34v-10.86c0-2.69-1.1-5.16-2.91-7.02"/><path class="cls-6" d="M431.84,332.78c.14-.04,.29-.04,.44-.01,.65,.14,1.02,.96,.82,1.82s-.88,1.44-1.53,1.29c-.29-.07-.52-.26-.66-.54"/><path class="cls-6" d="M431.84,332.78c-.49,.12-.93,.61-1.08,1.27-.11,.48-.05,.95,.15,1.29"/><path class="cls-6" d="M431.57,335.88l-1.11-.53c-.65-.15-1.01-.96-.82-1.82,.2-.86,.88-1.44,1.53-1.29l1.48,.7"/><path class="cls-2" d="M435.03,337.2c.76,.81,1.18,1.7,1.18,2.66,0,3.44-5.61,6.25-12.54,6.25s-12.54-2.8-12.54-6.25c0-.79,.29-1.54,.82-2.23"/><path class="cls-2" d="M410.95,358.29c0,3.02,5.62,5.48,12.54,5.48s12.54-2.46,12.54-5.48"/><line class="cls-2" x1="436.03" y1="358.29" x2="436.21" y2="339.53"/><path class="cls-2" d="M410.96,358.41c-.73,.98-1.13,2.05-1.13,3.19,0,4.41,6.07,7.98,13.57,7.98,5.38,0,10.02-1.84,12.23-4.5"/><path class="cls-6" d="M436.97,361.43c-.03-1-.37-1.94-.97-2.81"/><path class="cls-1" d="M436.12,354.3c0,.36-.11,.71-.31,1.04-1.26,2.07-6.21,3.61-12.14,3.61s-10.88-1.54-12.14-3.61c-.2-.33-.31-.68-.31-1.04,0-.3,.08-.6,.22-.88,.21,.35,.53,.68,.94,1,2.02,1.55,6.28,2.62,11.21,2.62s9.3-1.1,11.29-2.69c.43-.34,.74-.7,.94-1.08,.2,.33,.3,.68,.3,1.03Z"/><path class="cls-1" d="M412.38,354.42c2.02,1.55,6.28,2.62,11.21,2.62s9.3-1.1,11.29-2.69"/><path class="cls-1" d="M435.81,355.34c.2,.33,.31,.68,.31,1.04,0,2.57-5.57,4.65-12.45,4.65s-12.45-2.08-12.45-4.65c0-.36,.11-.71,.31-1.04"/><path class="cls-6" d="M293.32,333.99c2.5-3.52,1.97-10.78-1.63-17.89-4.11-8.14-10.77-13.15-15.23-11.65l-47.52-30.84,17.28-10.17,46.86,31.39"/><polygon class="cls-2" points="376.8 348.91 358.95 361.03 308.16 327.38 324.97 316.46 376.8 348.91"/><polyline class="cls-2" points="308.16 327.38 310.92 316.46 324.97 316.46"/><line class="cls-2" x1="317.11" y1="321.57" x2="310.92" y2="316.46"/><polyline class="cls-2" points="411.95 334.33 400.51 342.66 358.01 314.99 372.67 305.93 412.38 330.99"/><line class="cls-6" x1="411.04" y1="341.84" x2="400.51" y2="342.66"/><polyline class="cls-2" points="407.35 337.68 411.13 339.53 410.95 358.29"/><polygon class="cls-2" points="494.05 383.67 479.89 393.22 433.58 363.77 447.28 354.35 494.05 383.67"/><polyline class="cls-6" points="447.28 354.35 433.16 354.35 433.58 363.77"/><line class="cls-6" x1="440.59" y1="358.95" x2="433.16" y2="354.35"/><path class="cls-4" d="M489.76,251.71c-7.87-2.54-17.56,5.63-21.65,18.25-4.08,12.63-1.01,24.93,6.87,27.47l55.36,32.05"/><path class="cls-4" d="M553.77,286.16c-7.87-2.54-17.96,6.85-22.53,20.98-2.71,8.39-2.87,16.56-.9,22.35"/><polyline class="cls-4" points="489.76 251.71 554.16 286.29 589.69 305.6"/><path class="cls-4" d="M515.39,265.35c-6.81-3.57-17.32,3.07-23.49,14.83-6.17,11.76-5.65,24.19,1.16,27.76"/><path class="cls-4" d="M534.45,276.04c-6.81-3.57-17.32,3.07-23.49,14.83-1.26,2.4-2.24,4.82-2.94,7.2l-.76-.46c-1.72-1.05-3.98-.31-4.74,1.55h0c-.59,1.43-.1,3.08,1.17,3.96l3.02,2.09c-.4,6.23,1.43,11.34,5.41,13.43"/><ellipse class="cls-8" cx="504.89" cy="280.73" rx="3.74" ry="2.98" transform="translate(9.33 577.61) rotate(-60)"/><path class="cls-8" d="M490.98,255.86l1.49,.83c.51,.29,.52,1.02,.01,1.32l-2.37,1.38c-.23,.13-.51,.14-.74,.01l-1.51-.8c-.52-.28-.54-1.02-.03-1.32l2.38-1.4c.23-.14,.52-.14,.75,0Z"/><path class="cls-8" d="M484.52,280.14l3.06,1.73c.27,.15,.38,.49,.25,.77l-1.04,2.32c-.15,.33-.55,.46-.86,.27l-2.96-1.81c-.25-.16-.36-.47-.24-.75l.95-2.25c.14-.33,.54-.47,.85-.29Z"/><polyline class="cls-8" points="483.84 279.92 485.07 279.42 488.96 281.61 487.88 282.15"/><path class="cls-8" d="M486.27,285.32l.28,.89c.15,.06,.37,.14,.44-.01l2.2-4.69"/><line class="cls-4" x1="530.34" y1="329.49" x2="561.83" y2="348.65"/><path class="cls-4" d="M544.02,299.92l22.62,13.55-15.29,10.04c-.72,.47-1.66,.48-2.38,0l-17.26-11.24c-1.29-.84-1.33-2.72-.07-3.61l12.38-8.75Z"/><path class="cls-4" d="M547.4,301.94l14.79-9.77-1.24-.46c-2.27-.85-4.79-.61-6.87,.64l-4.92,2.97c-1.65,.99-2.88,2.55-3.46,4.38l-.33,1.04"/><path class="cls-4" d="M590.31,306.05c-8.43-1.88-19.23,4.82-25.59,16.47-5.07,9.3-5.96,19.28-2.98,26.01"/><line class="cls-4" x1="576.14" y1="298.23" x2="576.13" y2="298.23"/><line class="cls-4" x1="552.5" y1="322.75" x2="552.5" y2="322.74"/><path class="cls-4" d="M572.36,346.98c-3.63,1.69-7.31,2.28-10.62,1.55"/><path class="cls-4" d="M590.31,306.05c1.36,3.09,1.91,6.87,1.62,10.94"/><path class="cls-4" d="M606.92,357.32l-34.62-10.33c-1.46-4.57-.69-11.04,2.49-17.26,4.86-9.52,13.51-14.84,19.31-11.88l24.57,20.2"/><path class="cls-4" d="M618.05,337.8c-4.42-.27-9.15,3.61-11.17,9.51-1.24,3.61-1.21,7.24-.16,10.09l1.17,2.38"/><polygon class="cls-8" points="542.01 331.95 546.57 334.47 545.37 335.91 540.75 333.12 542.01 331.95"/><polyline class="cls-8" points="545.37 335.91 545.38 337.45 540.52 334.51 540.52 333.11"/><polyline class="cls-8" points="546.57 334.47 546.57 337.03 545.65 337.73"/><polygon class="cls-8" points="548.69 335.91 553.26 338.43 552.05 339.86 547.43 337.07 548.69 335.91"/><polyline class="cls-8" points="552.05 339.86 552.07 341.41 547.2 338.47 547.2 337.06"/><polyline class="cls-8" points="553.26 338.43 553.26 340.99 552.34 341.68"/><g><path class="cls-4" d="M576.53,333.52c-.05-.04-.11-.06-.17-.06-.29,0-.52,.48-.52,1.07s.23,1.08,.52,1.08"/><ellipse class="cls-4" cx="597.13" cy="342.01" rx=".52" ry="1.08"/><line class="cls-4" x1="576.36" y1="333.46" x2="597.13" y2="340.93"/><line class="cls-4" x1="597.13" y1="343.08" x2="576.36" y2="335.61"/></g><g><path class="cls-4" d="M576.53,342.23c-.05-.04-.11-.06-.17-.06-.29,0-.52,.48-.52,1.07s.23,1.08,.52,1.08"/><ellipse class="cls-4" cx="597.13" cy="350.71" rx=".52" ry="1.08"/><line class="cls-4" x1="576.36" y1="342.17" x2="597.13" y2="349.64"/><line class="cls-4" x1="597.13" y1="351.79" x2="576.36" y2="344.32"/></g><g><polyline class="cls-4" points="578 342.76 577.87 336.15 594.57 348.84"/><line class="cls-4" x1="576.36" y1="342.2" x2="576.36" y2="335.61"/></g><g><line class="cls-4" x1="596.47" y1="342.85" x2="596.59" y2="349.34"/><polyline class="cls-4" points="594.57 348.84 594.57 342.01 578 342.76"/></g><line class="cls-8" x1="593.85" y1="317.64" x2="597.4" y2="309.87"/><line class="cls-8" x1="595.13" y1="318.15" x2="598.68" y2="310.39"/><ellipse class="cls-8" cx="599.42" cy="306.99" rx="3.41" ry="6.2" transform="translate(83.44 739.79) rotate(-67.11)"/><path class="cls-8" d="M598.1,310.14l2.09-4.09s-.33-1.01-6.85-.31"/><path class="cls-8" d="M604.86,310.06s-1.59-2.74-4.68-4.01c0,0,.14-1.25,2.34-1.25"/><path class="cls-4" d="M618.05,337.8c.46,.31,.89,.67,1.27,1.08l-9.05,5.93,9.69,5.9,7.52-5.9"/><path class="cls-4" d="M627.48,344.81l-8.16-5.93,8.16,5.93Z"/><polyline class="cls-4" points="625.85 346.09 633.41 349.64 633.41 351.79 631.85 352.74 627.48 355.41 627.48 352.67 620.96 349.93"/><polyline class="cls-4" points="633.41 351.79 632.16 360.99 626.34 363.84 627.48 355.41"/><polyline class="cls-4" points="626.34 363.84 619.32 362.7 615.97 365.55 610.28 362.02"/><path class="cls-4" d="M612.56,354.04l-.54,.54c-.86,.86-.63,2.3,.45,2.85l1.6,.82c.78,.4,1.72,.18,2.24-.52l.92-1.24-4.67-2.45Z"/><line class="cls-4" x1="597.65" y1="367.19" x2="611.87" y2="356.88"/><line class="cls-4" x1="600.14" y1="368.94" x2="614.36" y2="358.63"/><polygon class="cls-4" points="595.13 366.38 600.78 370.12 585.38 380.73 579.87 376.99 595.13 366.38"/><path class="cls-4" d="M629.72,347.91l13.77-10.69c.69-.54,.69-1.58,0-2.12h0c-.48-.37-1.15-.37-1.63,0l-14.37,11"/><path class="cls-4" d="M641.85,335.1l-.32-1.28c-.16-.65,.53-1.18,1.12-.86l3.85,2.1c.49,.26,.54,.94,.11,1.28l-3.23,2.55-.63-1.09"/><polyline class="cls-4" points="646.91 335.63 660.65 325.68 655.24 322.55 641.85 332.86"/><polygon class="cls-4" points="554.33 361.03 579.87 376.99 579.87 379.9 576.36 382.11 550.59 367.19 554.5 365.55 554.33 361.03"/><line class="cls-4" x1="357.73" y1="503.11" x2="550.59" y2="367.19"/><polyline class="cls-4" points="576.36 382.11 382.51 521.04 380.52 519.62 354.14 500.83 354.14 508.65 379.9 527.24 385.51 524.56 380.72 522.86"/><line class="cls-8" x1="380.52" y1="519.62" x2="379.9" y2="527.24"/><line class="cls-8" x1="362.87" y1="507.05" x2="555.78" y2="370.2"/><line class="cls-8" x1="560.29" y1="372.81" x2="368.62" y2="511.14"/><line class="cls-8" x1="373.59" y1="514.69" x2="565.23" y2="375.67"/><line class="cls-8" x1="571.59" y1="379.35" x2="377.92" y2="517.77"/><polyline class="cls-4" points="554.5 365.55 579.87 379.9 588.49 386.53 613.86 400.89"/><line class="cls-8" x1="547.22" y1="369.57" x2="572.25" y2="385.06"/><line class="cls-8" x1="543.35" y1="372.73" x2="568.15" y2="388"/><line class="cls-8" x1="564.18" y1="390.85" x2="539.41" y2="375.07"/><line class="cls-8" x1="535.56" y1="377.79" x2="560.66" y2="393.36"/><line class="cls-8" x1="556.07" y1="396.66" x2="531.09" y2="380.93"/><line class="cls-8" x1="527.39" y1="383.54" x2="552.39" y2="399.29"/><line class="cls-8" x1="548.11" y1="402.36" x2="522.93" y2="386.68"/><line class="cls-8" x1="519.53" y1="389.08" x2="544.41" y2="405.01"/><line class="cls-8" x1="539.89" y1="408.25" x2="515.02" y2="392.26"/><line class="cls-8" x1="535.92" y1="411.1" x2="511.08" y2="395.04"/><line class="cls-8" x1="506.24" y1="398.45" x2="531.97" y2="413.92"/><line class="cls-8" x1="527.46" y1="417.16" x2="502.63" y2="400.99"/><line class="cls-8" x1="498.45" y1="403.94" x2="523.5" y2="420"/><line class="cls-8" x1="519.11" y1="423.15" x2="494.05" y2="407.04"/><line class="cls-8" x1="489.95" y1="409.92" x2="515.02" y2="426.07"/><line class="cls-8" x1="510.39" y1="429.39" x2="486" y2="412.71"/><line class="cls-8" x1="481.65" y1="415.78" x2="506.24" y2="432.37"/><line class="cls-8" x1="501.88" y1="435.49" x2="477.29" y2="418.85"/><line class="cls-8" x1="472.98" y1="421.89" x2="497.52" y2="438.62"/><line class="cls-8" x1="493.41" y1="441.56" x2="468.52" y2="425.03"/><line class="cls-8" x1="464.08" y1="428.16" x2="488.91" y2="444.79"/><line class="cls-8" x1="484.52" y1="447.94" x2="459.96" y2="431.06"/><line class="cls-8" x1="455.89" y1="433.93" x2="480.37" y2="450.91"/><line class="cls-8" x1="475.9" y1="454.11" x2="451.34" y2="437.14"/><line class="cls-8" x1="447.03" y1="440.17" x2="471.18" y2="457.49"/><line class="cls-8" x1="466.61" y1="460.77" x2="442.21" y2="443.58"/><line class="cls-8" x1="437.52" y1="446.88" x2="462.22" y2="463.92"/><line class="cls-8" x1="457.08" y1="467.6" x2="433.08" y2="450.01"/><line class="cls-8" x1="428.68" y1="453.11" x2="452.93" y2="470.57"/><line class="cls-8" x1="424.48" y1="456.08" x2="448.73" y2="473.54"/><line class="cls-8" x1="420.22" y1="459.89" x2="444.47" y2="477.35"/><line class="cls-8" x1="401.4" y1="472.92" x2="425.66" y2="490.38"/><line class="cls-8" x1="396.36" y1="476.44" x2="420.61" y2="493.9"/><line class="cls-8" x1="391.8" y1="479.86" x2="416.05" y2="497.33"/><line class="cls-8" x1="386.77" y1="483.08" x2="411.02" y2="500.54"/><line class="cls-8" x1="381.72" y1="486.41" x2="405.98" y2="503.87"/><line class="cls-8" x1="376.68" y1="489.58" x2="400.94" y2="507.05"/><line class="cls-8" x1="372.66" y1="493.08" x2="396.92" y2="510.54"/><line class="cls-8" x1="367.78" y1="496.69" x2="392.03" y2="514.16"/><line class="cls-8" x1="362.51" y1="500.54" x2="386.77" y2="518.01"/><polygon class="cls-4" points="588.32 382.01 613.86 397.97 613.86 400.89 610.35 403.1 584.58 388.18 588.49 386.53 588.32 382.01"/><line class="cls-4" x1="391.72" y1="524.09" x2="584.58" y2="388.18"/><polyline class="cls-4" points="610.35 403.1 416.51 542.03 414.51 540.61 388.14 521.81 388.14 529.63 413.9 548.22 419.5 545.54 414.71 543.85"/><line class="cls-8" x1="414.51" y1="540.61" x2="413.9" y2="548.22"/><line class="cls-8" x1="396.87" y1="528.03" x2="589.77" y2="391.18"/><line class="cls-8" x1="594.29" y1="393.8" x2="402.61" y2="532.13"/><line class="cls-8" x1="407.59" y1="535.67" x2="599.22" y2="396.65"/><line class="cls-8" x1="605.58" y1="400.33" x2="411.92" y2="538.75"/><line class="cls-8" x1="581.21" y1="390.55" x2="606.25" y2="406.04"/><line class="cls-8" x1="577.34" y1="393.71" x2="602.14" y2="408.98"/><line class="cls-8" x1="598.17" y1="411.83" x2="573.4" y2="396.06"/><line class="cls-8" x1="569.55" y1="398.77" x2="594.65" y2="414.35"/><line class="cls-8" x1="590.06" y1="417.64" x2="565.08" y2="401.92"/><line class="cls-8" x1="561.39" y1="404.52" x2="586.38" y2="420.28"/><line class="cls-8" x1="582.1" y1="423.34" x2="556.93" y2="407.67"/><line class="cls-8" x1="553.53" y1="410.06" x2="578.41" y2="425.99"/><line class="cls-8" x1="573.89" y1="429.23" x2="549.02" y2="413.24"/><line class="cls-8" x1="569.91" y1="432.08" x2="545.07" y2="416.02"/><line class="cls-8" x1="540.23" y1="419.43" x2="565.97" y2="434.91"/><line class="cls-8" x1="561.45" y1="438.14" x2="536.62" y2="421.98"/><line class="cls-8" x1="532.44" y1="424.92" x2="557.49" y2="440.98"/><line class="cls-8" x1="553.1" y1="444.13" x2="528.05" y2="428.02"/><line class="cls-8" x1="523.95" y1="430.91" x2="549.02" y2="447.06"/><line class="cls-8" x1="544.39" y1="450.37" x2="520" y2="433.69"/><line class="cls-8" x1="515.64" y1="436.76" x2="540.23" y2="453.35"/><line class="cls-8" x1="535.88" y1="456.47" x2="511.28" y2="439.83"/><line class="cls-8" x1="506.97" y1="442.87" x2="531.51" y2="459.6"/><line class="cls-8" x1="527.4" y1="462.55" x2="502.51" y2="446.02"/><line class="cls-8" x1="498.07" y1="449.14" x2="522.9" y2="465.77"/><line class="cls-8" x1="518.51" y1="468.92" x2="493.95" y2="452.05"/><line class="cls-8" x1="489.88" y1="454.92" x2="514.36" y2="471.89"/><line class="cls-8" x1="509.89" y1="475.1" x2="485.33" y2="458.12"/><line class="cls-8" x1="481.03" y1="461.16" x2="505.18" y2="478.48"/><line class="cls-8" x1="500.6" y1="481.76" x2="476.2" y2="464.56"/><line class="cls-8" x1="471.52" y1="467.86" x2="496.21" y2="484.9"/><line class="cls-8" x1="491.08" y1="488.58" x2="467.07" y2="470.99"/><line class="cls-8" x1="462.68" y1="474.09" x2="486.93" y2="491.55"/><line class="cls-8" x1="458.47" y1="477.06" x2="482.73" y2="494.53"/><line class="cls-8" x1="454.21" y1="480.87" x2="478.47" y2="498.34"/><line class="cls-8" x1="435.4" y1="493.9" x2="459.65" y2="511.36"/><line class="cls-8" x1="430.35" y1="497.42" x2="454.61" y2="514.88"/><line class="cls-8" x1="425.79" y1="500.84" x2="450.04" y2="518.31"/><line class="cls-8" x1="420.76" y1="504.06" x2="445.01" y2="521.53"/><line class="cls-8" x1="415.72" y1="507.39" x2="439.97" y2="524.86"/><line class="cls-8" x1="410.68" y1="510.56" x2="434.93" y2="528.03"/><line class="cls-8" x1="406.66" y1="514.06" x2="430.91" y2="531.52"/><line class="cls-8" x1="401.77" y1="517.67" x2="426.02" y2="535.14"/><line class="cls-8" x1="396.51" y1="521.53" x2="420.76" y2="538.99"/><line class="cls-8" x1="585.38" y1="380.73" x2="588.32" y2="382.01"/><polyline class="cls-8" points="791.89 224.48 794.87 222.58 795.68 219.16 770.93 208.2 770.93 212.42 768.86 214.3"/><polyline class="cls-4" points="632.39 310.26 768.86 214.3 773.48 216.34 791.89 224.48 655.24 322.55 627.48 308.06 627.48 314.9 649.63 326.87"/><line class="cls-8" x1="636.38" y1="312.7" x2="773.48" y2="216.34"/><line class="cls-8" x1="777.79" y1="218.24" x2="641.85" y2="315.56"/><line class="cls-8" x1="645.83" y1="317.64" x2="782.27" y2="220.23"/><line class="cls-8" x1="786.76" y1="222.22" x2="651.25" y2="320.46"/><line class="cls-8" x1="764.59" y1="217.3" x2="787.28" y2="227.79"/><line class="cls-8" x1="758.61" y1="221.64" x2="781.3" y2="232.13"/><line class="cls-8" x1="755.61" y1="223.6" x2="778.3" y2="234.09"/><line class="cls-8" x1="753.25" y1="225.56" x2="775.94" y2="236.05"/><line class="cls-8" x1="750.2" y1="227.79" x2="772.89" y2="238.27"/><line class="cls-8" x1="746.67" y1="230.15" x2="769.36" y2="240.64"/><line class="cls-8" x1="744.27" y1="231.85" x2="766.96" y2="242.34"/><line class="cls-8" x1="740.74" y1="234.21" x2="763.43" y2="244.7"/><line class="cls-8" x1="734.68" y1="238.27" x2="757.38" y2="248.76"/><line class="cls-8" x1="731.16" y1="240.64" x2="753.85" y2="251.13"/><line class="cls-8" x1="729.39" y1="242.34" x2="752.09" y2="252.82"/><line class="cls-8" x1="725.87" y1="244.7" x2="748.56" y2="255.19"/><line class="cls-8" x1="722.46" y1="247.15" x2="745.15" y2="257.63"/><line class="cls-8" x1="720.69" y1="248.84" x2="743.38" y2="259.33"/><line class="cls-8" x1="717.17" y1="251.21" x2="739.86" y2="261.69"/><line class="cls-8" x1="713.43" y1="253.53" x2="736.12" y2="264.02"/><line class="cls-8" x1="709.35" y1="255.8" x2="732.78" y2="266.9"/><line class="cls-8" x1="707.86" y1="257.56" x2="729.73" y2="268.67"/><line class="cls-8" x1="704.24" y1="259.83" x2="726.6" y2="271.34"/><line class="cls-8" x1="701.4" y1="262.04" x2="723.27" y2="273.16"/><line class="cls-8" x1="697.78" y1="264.31" x2="720.14" y2="275.82"/><line class="cls-8" x1="694.81" y1="266.55" x2="717.17" y2="278.06"/><line class="cls-8" x1="691.99" y1="268.6" x2="714.35" y2="280.1"/><line class="cls-8" x1="688.29" y1="271.34" x2="710.64" y2="282.85"/><line class="cls-8" x1="684.86" y1="273.5" x2="707.22" y2="285.01"/><line class="cls-8" x1="681.73" y1="276.12" x2="704.09" y2="287.63"/><line class="cls-8" x1="678.61" y1="278.06" x2="700.97" y2="289.57"/><line class="cls-8" x1="675.43" y1="280.1" x2="697.78" y2="291.61"/><line class="cls-8" x1="672.19" y1="282.5" x2="694.55" y2="294.01"/><line class="cls-8" x1="669.02" y1="284.66" x2="691.37" y2="296.17"/><line class="cls-8" x1="665.24" y1="287.17" x2="687.59" y2="298.68"/><line class="cls-8" x1="662.18" y1="289.88" x2="684.53" y2="301.39"/><line class="cls-8" x1="658.4" y1="292.39" x2="680.76" y2="303.9"/><line class="cls-8" x1="655.02" y1="294.97" x2="677.38" y2="306.48"/><line class="cls-8" x1="651.25" y1="297.48" x2="673.6" y2="308.99"/><line class="cls-8" x1="648.87" y1="299.46" x2="671.23" y2="310.97"/><line class="cls-8" x1="645.1" y1="301.98" x2="667.45" y2="313.49"/><line class="cls-8" x1="641.96" y1="303.96" x2="664.31" y2="315.47"/><line class="cls-8" x1="638.18" y1="306.48" x2="660.54" y2="317.98"/><line class="cls-8" x1="635.12" y1="308.99" x2="657.48" y2="320.5"/><line class="cls-8" x1="761.54" y1="219.67" x2="784.23" y2="230.15"/><polyline class="cls-8" points="823.36 238.57 826.29 236.59 827 233.15 801.96 222.87 802.08 227.09 800.06 229.03"/><line class="cls-8" x1="670.34" y1="331.03" x2="804.73" y2="230.94"/><line class="cls-8" x1="809.09" y1="232.73" x2="675.88" y2="333.74"/><line class="cls-8" x1="679.92" y1="335.71" x2="813.63" y2="234.58"/><line class="cls-8" x1="818.18" y1="236.45" x2="685.41" y2="338.38"/><line class="cls-8" x1="795.88" y1="232.14" x2="818.85" y2="242"/><line class="cls-8" x1="790.01" y1="236.64" x2="812.99" y2="246.5"/><line class="cls-8" x1="787.07" y1="238.69" x2="810.04" y2="248.55"/><line class="cls-8" x1="784.76" y1="240.72" x2="807.73" y2="250.58"/><line class="cls-8" x1="781.78" y1="243.02" x2="804.75" y2="252.88"/><line class="cls-8" x1="778.32" y1="245.49" x2="801.29" y2="255.35"/><line class="cls-8" x1="775.96" y1="247.24" x2="798.93" y2="257.1"/><line class="cls-8" x1="772.5" y1="249.71" x2="795.47" y2="259.57"/><line class="cls-8" x1="766.56" y1="253.93" x2="789.53" y2="263.79"/><line class="cls-8" x1="763.1" y1="256.4" x2="786.07" y2="266.26"/><line class="cls-8" x1="761.38" y1="258.14" x2="784.35" y2="268"/><line class="cls-8" x1="757.92" y1="260.6" x2="780.89" y2="270.46"/><line class="cls-8" x1="754.58" y1="263.14" x2="777.55" y2="273"/><line class="cls-8" x1="752.86" y1="264.88" x2="775.83" y2="274.74"/><line class="cls-8" x1="749.4" y1="267.34" x2="772.37" y2="277.2"/><line class="cls-8" x1="745.73" y1="269.77" x2="768.7" y2="279.63"/><line class="cls-8" x1="741.71" y1="272.15" x2="765.44" y2="282.6"/><line class="cls-8" x1="740.28" y1="273.95" x2="762.44" y2="284.45"/><line class="cls-8" x1="736.72" y1="276.32" x2="759.38" y2="287.21"/><line class="cls-8" x1="733.94" y1="278.6" x2="756.11" y2="289.11"/><line class="cls-8" x1="730.38" y1="280.98" x2="753.05" y2="291.87"/><line class="cls-8" x1="727.48" y1="283.29" x2="750.14" y2="294.18"/><line class="cls-8" x1="724.72" y1="285.42" x2="747.38" y2="296.31"/><line class="cls-8" x1="721.09" y1="288.26" x2="743.75" y2="299.15"/><line class="cls-8" x1="717.72" y1="290.52" x2="740.39" y2="301.41"/><line class="cls-8" x1="714.66" y1="293.22" x2="737.33" y2="304.11"/><line class="cls-8" x1="711.6" y1="295.24" x2="734.26" y2="306.13"/><line class="cls-8" x1="708.47" y1="297.37" x2="731.13" y2="308.26"/><line class="cls-8" x1="705.31" y1="299.86" x2="727.97" y2="310.75"/><line class="cls-8" x1="702.19" y1="302.1" x2="724.85" y2="312.99"/><line class="cls-8" x1="698.48" y1="304.72" x2="721.15" y2="315.61"/><line class="cls-8" x1="695.5" y1="307.51" x2="718.16" y2="318.4"/><line class="cls-8" x1="691.79" y1="310.13" x2="714.46" y2="321.02"/><line class="cls-8" x1="688.48" y1="312.79" x2="711.15" y2="323.68"/><line class="cls-8" x1="684.78" y1="315.41" x2="707.44" y2="326.3"/><line class="cls-8" x1="682.46" y1="317.46" x2="705.12" y2="328.35"/><line class="cls-8" x1="678.76" y1="320.08" x2="701.42" y2="330.97"/><line class="cls-8" x1="675.67" y1="322.14" x2="698.33" y2="333.03"/><line class="cls-8" x1="671.97" y1="324.76" x2="694.63" y2="335.65"/><line class="cls-8" x1="668.98" y1="327.36" x2="691.64" y2="338.25"/><line class="cls-8" x1="792.9" y1="234.59" x2="815.87" y2="244.45"/><polyline class="cls-4" points="689.46 340.36 689.46 346.09 683.97 344.83 661.5 333.47 661.32 326.63 689.46 340.36 823.36 238.57 804.73 230.94 800.06 229.03 666.28 328.7"/><line class="cls-8" x1="770.93" y1="212.42" x2="794.87" y2="222.58"/><line class="cls-8" x1="802.08" y1="227.09" x2="826.29" y2="236.59"/></svg>