<?xml version="1.0" encoding="UTF-8"?><svg id="Capa_1" xmlns="http://www.w3.org/2000/svg" viewBox="0 0 843.08 595.28"><defs><style>.cls-1{stroke-dasharray:0 1;stroke-width:.25px;}.cls-1,.cls-2,.cls-3,.cls-4,.cls-5,.cls-6,.cls-7,.cls-8,.cls-9,.cls-10{fill:none;stroke-miterlimit:10;}.cls-1,.cls-3,.cls-7{stroke:#fff;}.cls-2{stroke-linecap:round;}.cls-2,.cls-4,.cls-10{stroke:#be965f;}.cls-5,.cls-9{stroke:#d3a69f;}.cls-6,.cls-8{stroke:#cbd5b9;}.cls-7,.cls-8,.cls-9,.cls-10{stroke-width:.5px;}</style></defs><rect width="843.08" height="595.28"/><path class="cls-3" d="M570.88,139.05l2.11-1.3,25.36-13.29,.85-.36c8.61-.95,16.44,5.91,17.48,15.33,.61,5.53-1.25,10.71-4.64,14.24l-20.88,12.69-3.58,1.77"/><path class="cls-3" d="M593.33,155.27c0,5.12-2.22,9.72-5.75,12.86-1.72,.61-3.57,.93-5.5,.93-9.36,0-16.96-7.67-16.96-17.14,0-5.13,2.23-9.73,5.76-12.87,1.72-.6,3.57-.92,5.49-.92,9.37,0,16.96,7.68,16.96,17.14Z"/><path class="cls-3" d="M593.33,155.27c0,5.12-2.22,9.72-5.75,12.86-1.72,.61-3.57,.93-5.5,.93-9.36,0-16.96-7.67-16.96-17.14,0-5.13,2.23-9.73,5.76-12.87,1.72-.6,3.57-.92,5.49-.92,9.37,0,16.96,7.68,16.96,17.14Z"/><path class="cls-3" d="M577.29,163.29c-.31,.46-.73,.83-1.22,1.1-2.39,1.3-5.78-.36-7.59-3.7-1.81-3.33-1.34-7.09,1.04-8.38,.15-.08,.31-.15,.47-.22"/><path class="cls-3" d="M577.76,163.08c-.15,.08-.31,.15-.47,.21,1.26-1.73,1.25-4.63-.18-7.28-1.68-3.12-4.77-4.77-7.12-3.92,.32-.45,.74-.82,1.23-1.09,2.38-1.3,5.78,.36,7.59,3.7,1.81,3.33,1.34,7.09-1.05,8.38Z"/><path class="cls-7" d="M576.9,142.36l4.62,1.56,.59,.2-2.89,4.81-4.93-1.7s-1.42-2.72,2.6-4.87Z"/><polygon class="cls-7" points="588.53 158.04 590.55 158.04 590.55 161.02 588.53 162.09 588.53 158.04"/><path class="cls-7" d="M615.72,147.67l5.47-4.26c1.26-3.67,1.04-8.08-.96-12.13-2.91-5.89-8.69-9.26-14.18-8.78l-5.77,1.5"/><path class="cls-7" d="M621.19,143.42l5.66-2.84c1.26-3.67,1.04-8.08-.96-12.13-2.91-5.89-8.69-9.26-14.18-8.78l-5.66,2.84"/><path class="cls-3" d="M611.69,119.62l15.86-8.97c5.42-.56,11.07,2.59,13.85,8.21,1.91,3.86,2.06,8.09,.75,11.65l-15.29,10.05"/><polygon class="cls-3" points="592.76 127.39 556.2 110.59 575.68 99.72 613.66 116.8 592.76 127.39"/><polygon class="cls-3" points="671.49 162.09 630.2 143.11 649.68 132.24 689.53 150.16 671.49 162.09"/><polyline class="cls-3" points="638.53 138.13 634.46 135.57 631.75 133.87"/><polyline class="cls-3" points="630.2 143.11 634.46 135.57 649.68 132.24"/><line class="cls-3" x1="567.87" y1="115.96" x2="587.52" y2="105.04"/><line class="cls-3" x1="580.15" y1="121.7" x2="599.8" y2="110.78"/><line class="cls-3" x1="643.67" y1="149.56" x2="662.55" y2="138.13"/><line class="cls-3" x1="657.4" y1="155.65" x2="676.28" y2="144.22"/><path class="cls-4" d="M536.16,202.11l.61-.35c2.17-1.03,3.89-2.72,5.1-4.86"/><polyline class="cls-4" points="533.06 203.89 530 205.64 527.23 207.23"/><path class="cls-4" d="M502.66,171.1l15.71-8.26c7.56-3.57,17.81,2.24,22.9,12.98,3.29,6.96,3.61,14.29,1.36,19.56"/><path class="cls-4" d="M513.13,218.14l8.09-4.79c8.13-3.85,10.29-16.31,4.84-27.85-5.46-11.53-16.47-17.76-24.6-13.92l-34.09,19.29-.5,.28h-.01"/><path class="cls-10" d="M489.5,179.88c7.08,.15,14.84,5.95,19.14,15.05,2.52,5.32,3.41,10.83,2.85,15.61"/><path class="cls-4" d="M541.4,193.97l8.72,10.02,2.47-.2c.27-.02,.47,.25,.37,.5l-2.7,2.05-9.8-11.01s-.49-.8,.93-1.36Z"/><path class="cls-4" d="M530,205.64l3.42,.88,2.43-1.42,.37-3.61c.04-.42-.39-.72-.77-.52l-2.02,1.04c-.17,.09-.28,.25-.29,.44l-.17,3.01"/><path class="cls-10" d="M518.5,180.83l.39-.63c-.11-.31-.47-.45-.75-.28l-6.58,3.95c-.16,.09-.23,.28-.19,.46l.91,.3"/><path class="cls-10" d="M507.12,184.57l.39-.63c-.11-.31-.47-.45-.75-.28l-6.58,3.95c-.16,.09-.23,.28-.19,.46l.91,.3"/><path class="cls-10" d="M500.19,191.41l.39-.63c-.11-.31-.47-.45-.75-.28l-6.58,3.95c-.16,.09-.23,.28-.19,.46l.91,.3"/><path class="cls-10" d="M479.57,211.53l.39-.63c-.11-.31-.47-.45-.75-.28l-6.58,3.95c-.16,.09-.23,.28-.19,.46l.91,.3"/><path class="cls-10" d="M471.77,216.32l.39-.63c-.11-.31-.47-.45-.75-.28l-6.58,3.95c-.16,.09-.23,.28-.19,.46l.91,.3"/><path class="cls-9" d="M487.15,275.92l.74,.04c.22-.24,.16-.63-.12-.8l-6.63-3.87c-.16-.09-.36-.07-.49,.05l.17,.94"/><path class="cls-9" d="M497.77,281.63l.74,.04c.22-.24,.16-.63-.12-.8l-6.63-3.87c-.16-.09-.36-.07-.49,.05l.17,.94"/><path class="cls-9" d="M481.86,265.91l.07-.74c-.23-.23-.62-.2-.8,.08l-4.19,6.43c-.1,.15-.09,.36,.03,.5l.95-.12"/><path class="cls-9" d="M490.19,258.07l.36-.65c-.12-.31-.49-.42-.77-.24l-6.4,4.24c-.15,.1-.22,.29-.17,.47l.92,.26"/><path class="cls-8" d="M328.48,175.99l.62,.04c.16-.22,.06-.57-.19-.72l-5.98-3.61c-.14-.09-.31-.07-.41,.04l.26,.86"/><path class="cls-8" d="M344.23,184.64l.62,.04c.16-.22,.06-.57-.19-.72l-5.98-3.61c-.14-.09-.31-.07-.41,.04l.26,.86"/><path class="cls-8" d="M356.6,191.6l.62,.04c.16-.22,.06-.57-.19-.72l-5.98-3.61c-.14-.09-.31-.07-.41,.04l.26,.86"/><path class="cls-8" d="M347.56,206.56l.62,.04c.16-.22,.06-.57-.19-.72l-5.98-3.61c-.14-.09-.31-.07-.41,.04l.26,.86"/><path class="cls-8" d="M336.73,200.57l.62,.04c.16-.22,.06-.57-.19-.72l-5.98-3.61c-.14-.09-.31-.07-.41,.04l.26,.86"/><path class="cls-8" d="M319.71,190.53l.62,.04c.16-.22,.06-.57-.19-.72l-5.98-3.61c-.14-.09-.31-.07-.41,.04l.26,.86"/><path class="cls-10" d="M516.58,194.38l.58,.46c.32-.07,.5-.41,.37-.71h0c-.13-2.61-1.21-5.08-3.02-6.97l-.06-.06c-.07-.17-.25-.27-.43-.25l-.42,.86"/><path class="cls-10" d="M474.2,208.21l.67,.34c.35-.02,.53-.24,.37-.45h0c-.3-1.72-1.64-3.41-3.77-4.75l-.07-.04c-.09-.11-.29-.19-.49-.19l-.41,.54"/><path class="cls-10" d="M524.15,189.09l.58,.46c.32-.07,.5-.41,.37-.71h0c-.13-2.61-1.21-5.08-3.02-6.97l-.06-.06c-.07-.17-.25-.27-.43-.25l-.42,.86"/><ellipse class="cls-10" cx="519.92" cy="203.65" rx="1.78" ry="1.05" transform="translate(176.02 643.56) rotate(-73.37)"/><path class="cls-10" d="M519.41,205.36l-1.26-.64c-.48-.14-.64-1.02-.36-1.97s.9-1.59,1.38-1.45l1.26,.64"/><path class="cls-10" d="M521.84,205.74c-.61,.95-1.57,1.56-2.64,1.56-1.84,0-3.33-1.78-3.33-3.98s1.49-3.98,3.33-3.98c.83,0,1.6,.37,2.18,.98"/><ellipse class="cls-8" cx="328.97" cy="203.56" rx="1.05" ry="1.78" transform="translate(-44.49 102.64) rotate(-16.63)"/><path class="cls-8" d="M329.48,205.27l1.26-.64c.48-.14,.64-1.02,.36-1.97s-.9-1.59-1.38-1.45l-1.26,.64"/><ellipse class="cls-8" cx="317.4" cy="196.26" rx="1.05" ry="1.78" transform="translate(-42.89 99.02) rotate(-16.63)"/><path class="cls-8" d="M317.91,197.97l1.26-.64c.48-.14,.64-1.02,.36-1.97s-.9-1.59-1.38-1.45l-1.26,.64"/><path class="cls-10" d="M495.1,199.31l1.07,1.44c.22,.3,.64,.37,.95,.17l1.81-1.18c.34-.22,.42-.68,.19-1.01l-.94-1.29c-.21-.29-.59-.37-.9-.21l-1.94,1.03c-.38,.2-.49,.7-.24,1.04Z"/><path class="cls-10" d="M495.33,198.27l-1.12,1.23c-.17,.18-.2,.46-.07,.67l1.3,2.17c.11,.28,.45,.37,.68,.17l.31-1.39"/><path class="cls-10" d="M499.31,199.32l.06,1.54c0,.26-.16,.49-.4,.56l-2.87,1.54"/><path class="cls-8" d="M351.24,196.77l-1.07,1.16c-.22,.24-.64,.3-.95,.14l-1.81-.95c-.34-.18-.42-.55-.19-.81l.94-1.04c.21-.23,.59-.3,.9-.17l1.94,.84c.38,.16,.49,.56,.24,.84Z"/><path class="cls-8" d="M351,195.93l1.12,.99c.17,.15,.2,.37,.07,.54l-1.3,1.75c-.11,.22-.45,.3-.68,.14l-.31-1.12"/><path class="cls-8" d="M347.03,196.78l-.06,1.24c0,.21,.16,.39,.4,.45l2.87,1.24"/><path class="cls-8" d="M345.33,193.39l-1.07,1.16c-.22,.24-.64,.3-.95,.14l-1.81-.95c-.34-.18-.42-.55-.19-.81l.94-1.04c.21-.23,.59-.3,.9-.17l1.94,.84c.38,.16,.49,.56,.24,.84Z"/><path class="cls-8" d="M345.09,192.55l1.12,.99c.17,.15,.2,.37,.07,.54l-1.3,1.75c-.11,.22-.45,.3-.68,.14l-.31-1.12"/><path class="cls-8" d="M341.12,193.4l-.06,1.24c0,.21,.16,.39,.4,.45l2.87,1.24"/><path class="cls-10" d="M501.01,195.69l1.07,1.44c.22,.3,.64,.37,.95,.17l1.81-1.18c.34-.22,.42-.68,.19-1.01l-.94-1.29c-.21-.29-.59-.37-.9-.21l-1.94,1.03c-.38,.2-.49,.7-.24,1.04Z"/><path class="cls-10" d="M501.24,194.65l-1.12,1.23c-.17,.18-.2,.46-.07,.67l1.3,2.17c.11,.28,.45,.37,.68,.17l.31-1.39"/><path class="cls-10" d="M505.21,195.7l.06,1.54c0,.26-.16,.49-.4,.56l-2.87,1.54"/><path class="cls-10" d="M503.27,208.07l-4.16,2.09c-.34,.17-.74-.03-.81-.41l-.51-3c-.04-.24,.08-.49,.3-.6l4.22-2.1c.34-.17,.75,.04,.8,.42l.45,3c.04,.24-.09,.48-.3,.58Z"/><ellipse class="cls-10" cx="486.52" cy="216.23" rx="4.17" ry="3.89"/><path class="cls-10" d="M483.77,213.32l2.37-2.57c.68-.48,1.5-.75,2.39-.75,2.3,0,4.17,1.87,4.17,4.17,0,.44-.07,.87-.2,1.27l-2.5,2.94"/><path class="cls-10" d="M483.25,204.01c0,2.25-1.17,4.08-2.61,4.08s-2.61-1.83-2.61-4.08c0-.99,.22-1.89,.59-2.59,.49-.91,1.21-1.49,2.02-1.49,.05,0,.11,0,.16,.01,1.37,.13,2.45,1.9,2.45,4.07Z"/><path class="cls-10" d="M483.25,204.01c.39,2.22-.2,5.08-1.62,5.33s-2.76-.74-3.15-2.96"/><path class="cls-10" d="M480.64,199.93l.21-.03h.01s.01-.01,.01-.01l4.39-.7,1.06-.1c1.4,0,2.54,1.66,2.54,3.7,0,.47-.06,.93-.17,1.34l-.5,.67-5.98,4.26"/><path class="cls-10" d="M477.55,199.09c0,2.13-1.4,3.87-3.13,3.87-.46,0-.89-.12-1.28-.35,0,0-.06-.03-.17-.09-.68-.45-1.21-1.19-1.47-2.09-.1-.3-.16-.63-.18-.96-.02-.13-.02-.25-.02-.38s0-.27,.02-.4c.04-.53,.17-1.04,.38-1.49h.01c.53-1.19,1.54-1.99,2.71-1.99,.11,0,.22,.01,.32,.02,.91,.12,1.71,.72,2.21,1.59,.16,.26,.29,.55,.38,.85,.14,.44,.22,.92,.22,1.42Z"/><path class="cls-10" d="M471.3,199.09c0-.13,0-.27,.02-.4,.02-.48,.1-.95,.22-1.4h0c.37-1.37,1.17-2.51,2.24-3.05,.44-.24,.92-.36,1.44-.36,.87,0,1.68,.31,2.35,.84l-.12,1.44-.03,.34-.1,1.17"/><path class="cls-10" d="M468.91,193.52c.6-.16,1.16-.28,1.69-.37h.01s.01-.01,.01-.01c.29-.05,.58-.09,.85-.12,4.74-.53,6.11,1.7,6.11,1.7"/><path class="cls-10" d="M473.14,202.61s-.06-.03-.17-.09c-.38-.21-1.34-.78-2.31-1.54-.7-.56-1.4-1.22-1.87-1.92-.17-.26-.31-.52-.41-.79"/><path class="cls-10" d="M469.09,194.72h-.01c-.02-.18-.05-.35-.1-.52-.31-1.25-1.08-2.32-2.11-3.05-.9-.64-2.02-1.02-3.22-1.02-.2,0-.4,0-.59,.03-1.76,.19-3.28,1.19-4.13,2.62-.49,.79-.77,1.73-.77,2.73,0,.32,.03,.64,.09,.95,.04,.25,.1,.49,.19,.72,.04,.15,.09,.29,.15,.42,.38,.87,.97,1.62,1.73,2.18,.74,.57,1.64,.94,2.62,1.06,.23,.03,.47,.05,.71,.05,.3,0,.6-.02,.88-.08h.01c1.75-.27,3.22-1.35,3.99-2.84,.4-.74,.62-1.57,.62-2.46,0-.27-.02-.53-.06-.79Zm-6.16,3.38c-.21-1.08-.31-2.08-.35-2.98,.15-.03,.31-.07,.48-.11h.01"/><path class="cls-10" d="M463.65,200.89c-.32-.98-.56-1.91-.72-2.79-.21-1.08-.31-2.08-.35-2.98-.01-.13-.01-.25-.01-.37-.02-.38-.02-.74,0-1.07,.06-2.21,.49-3.52,.49-3.52"/><path class="cls-10" d="M458.43,197.19h.01c.1-.11,1.29-1.35,4.14-2.07,.15-.03,.31-.07,.48-.11h.01c1.37-.29,3.08-.46,5.18-.34,.27,0,.55,.03,.83,.05h.01"/><path class="cls-10" d="M464.55,200.82l.02,.96,.07,3.19,.07,3.33s-.78,.5-1.37,.19c-.09-.04-.17-.11-.24-.19l-.08-3.83-.04-1.67-.04-1.96v-.02"/><path class="cls-10" d="M458.16,195.51s-.55,.48-1.05,1.29c-.11,.18-.22,.38-.32,.6-.45,.95-.71,2.2-.19,3.6,.11,.29,.25,.59,.44,.89,.14,.24,.31,.48,.5,.72,.33,.4,.72,.8,1.19,1.21l1.64-.78,2.57-1.23"/><ellipse class="cls-10" cx="468.9" cy="223.89" rx=".92" ry=".51" transform="translate(114.42 603.81) rotate(-72.51)"/><path class="cls-10" d="M469.18,223.02l-2.61-1.7-.34-.25c-.27-.09-.62,.26-.78,.77s-.07,.99,.2,1.08l2.98,1.86"/><ellipse class="cls-10" cx="463.15" cy="232.93" rx=".92" ry=".51" transform="translate(101.77 604.65) rotate(-72.51)"/><path class="cls-10" d="M463.43,232.06l-2.61-1.7-.34-.25c-.27-.09-.62,.26-.78,.77s-.07,.99,.2,1.08l2.98,1.86"/><ellipse class="cls-10" cx="461.11" cy="235.77" rx=".92" ry=".51" transform="translate(97.64 604.68) rotate(-72.51)"/><path class="cls-10" d="M461.38,234.89l-2.61-1.7-.34-.25c-.27-.09-.62,.26-.78,.77s-.07,.99,.2,1.08l2.98,1.86"/><ellipse class="cls-10" cx="454.72" cy="232.93" rx=".92" ry=".51" transform="translate(95.88 596.6) rotate(-72.51)"/><path class="cls-10" d="M454.99,232.05l-2.61-1.7-.34-.25c-.27-.09-.62,.26-.78,.77s-.07,.99,.2,1.08l2.98,1.86"/><ellipse class="cls-10" cx="471.98" cy="230.06" rx=".92" ry=".51" transform="translate(110.69 611.05) rotate(-72.51)"/><path class="cls-10" d="M472.25,229.18l-2.61-1.7-.34-.25c-.27-.09-.62,.26-.78,.77s-.07,.99,.2,1.08l2.98,1.86"/><ellipse class="cls-10" cx="474.38" cy="223.88" rx=".92" ry=".51" transform="translate(118.25 609.03) rotate(-72.51)"/><path class="cls-10" d="M474.65,223.01l-2.61-1.7-.34-.25c-.27-.09-.62,.26-.78,.77s-.07,.99,.2,1.08l2.98,1.86"/><ellipse class="cls-10" cx="477.78" cy="222.16" rx=".78" ry=".42" transform="translate(130.69 618.59) rotate(-73.73)"/><path class="cls-10" d="M478,221.41l-2.14-1.46-.28-.21c-.22-.07-.51,.22-.64,.66s-.06,.85,.17,.92l2.45,1.59"/><ellipse class="cls-10" cx="465.59" cy="230.06" rx="1.71" ry="1.14" transform="translate(114.34 612.58) rotate(-73.73)"/><polyline class="cls-10" points="494.77 221.32 494.77 217.44 494.77 216.23 499.36 214.18 499.36 215.68"/><path class="cls-10" d="M498.23,215.89l-3.46,1.55,3.46-1.55Z"/><line class="cls-10" x1="498.23" y1="219.23" x2="498.23" y2="215.89"/><rect class="cls-10" x="465.03" y="211.48" width="6.05" height="1.48" rx=".74" ry=".74" transform="translate(-43.4 262.46) rotate(-30)"/><path class="cls-10" d="M469.4,209.21c-.01,.25-.14,.49-.37,.62l-3.96,2.29c-.36,.2-.81,.08-1.01-.27-.07-.12-.1-.25-.1-.37,0-.04,0-.09,.01-.13,.04-.21,.16-.4,.36-.51l2.7-1.56h.01s1.25-.73,1.25-.73c.35-.2,.8-.08,1.01,.27,.06,.09,.09,.2,.09,.29v.1Z"/><path class="cls-10" d="M466.68,213.78v1.41s-.93,.41-1.34-.15v-1.73"/><path class="cls-10" d="M465.29,211.96v1.41s-.93,.41-1.34-.15v-1.73"/><path class="cls-10" d="M470.78,211.05v1.9s-.91,.16-1.42-.18v-.44"/><line class="cls-10" x1="469.39" y1="209.11" x2="469.51" y2="210.53"/><line class="cls-10" x1="468.44" y1="210.18" x2="468.44" y2="211.05"/><polyline class="cls-4" points="426.67 224.77 430.39 219.73 457.54 202.62"/><line class="cls-2" x1="443.19" y1="248.24" x2="481.64" y2="225.55"/><polygon class="cls-4" points="492.7 222.91 510.37 212.94 509.95 216.67 513.6 218.36 495.25 229.08 492.7 226.68 492.7 222.91"/><line class="cls-4" x1="492.7" y1="226.68" x2="509.95" y2="216.67"/><polygon class="cls-4" points="370.26 155.5 387.93 145.53 387.52 149.25 391.17 150.95 372.82 161.66 370.26 159.27 370.26 155.5"/><line class="cls-10" x1="370.26" y1="159.27" x2="387.52" y2="149.25"/><polygon class="cls-4" points="468.06 236.64 485.54 226.68 485.54 230.93 488.86 232.36 471.98 243.05 468.06 241.61 468.06 236.64"/><line class="cls-4" x1="468.06" y1="241.61" x2="485.54" y2="230.93"/><path class="cls-4" d="M479.71,226.68s-.09,1.79,1.93,2.22"/><line class="cls-4" x1="485.54" y1="228.91" x2="492.7" y2="224.77"/><polyline class="cls-4" points="584.77 277.47 495.25 229.08 513.6 218.36 599.7 263.54"/><polyline class="cls-4" points="561.49 290.82 471.98 243.05 488.86 232.36 575.94 278.88"/><line class="cls-10" x1="500.57" y1="226.11" x2="586.31" y2="272.42"/><line class="cls-10" x1="504.65" y1="223.84" x2="590.39" y2="270.15"/><line class="cls-10" x1="508.75" y1="221.05" x2="594.49" y2="267.36"/><line class="cls-10" x1="476.19" y1="240.67" x2="563.29" y2="287.19"/><line class="cls-10" x1="476.7" y1="235.9" x2="567.29" y2="284.6"/><line class="cls-10" x1="484.31" y1="235.24" x2="571.41" y2="281.86"/><line class="cls-10" x1="474.88" y1="244.6" x2="492.27" y2="233.91"/><line class="cls-10" x1="479.43" y1="246.95" x2="496.82" y2="236.26"/><line class="cls-10" x1="482.9" y1="249.18" x2="500.29" y2="238.49"/><line class="cls-10" x1="487.05" y1="251.2" x2="504.44" y2="240.51"/><line class="cls-10" x1="490.73" y1="253.47" x2="508.12" y2="242.79"/><line class="cls-10" x1="494.96" y1="255.29" x2="512.35" y2="244.6"/><line class="cls-10" x1="499.09" y1="257.64" x2="516.48" y2="246.95"/><line class="cls-10" x1="503.1" y1="259.58" x2="520.49" y2="248.89"/><line class="cls-10" x1="506.99" y1="261.89" x2="524.38" y2="251.2"/><line class="cls-10" x1="510.62" y1="263.83" x2="528.01" y2="253.14"/><line class="cls-10" x1="514.88" y1="266.26" x2="532.27" y2="255.58"/><line class="cls-10" x1="518.8" y1="268.33" x2="536.19" y2="257.64"/><line class="cls-10" x1="523.19" y1="270.46" x2="540.58" y2="259.77"/><line class="cls-10" x1="527.49" y1="272.99" x2="544.88" y2="262.3"/><line class="cls-10" x1="531.32" y1="274.97" x2="548.71" y2="264.28"/><line class="cls-10" x1="536.19" y1="277.37" x2="553.58" y2="266.68"/><line class="cls-10" x1="540.02" y1="279.31" x2="557.41" y2="268.62"/><line class="cls-10" x1="544.09" y1="281.8" x2="561.48" y2="271.12"/><line class="cls-10" x1="548.01" y1="283.92" x2="565.4" y2="273.23"/><line class="cls-10" x1="552.26" y1="286.28" x2="569.65" y2="275.59"/><line class="cls-10" x1="556.26" y1="288.59" x2="573.65" y2="277.9"/><line class="cls-10" x1="498.68" y1="230.93" x2="516.48" y2="220.12"/><line class="cls-10" x1="501.73" y1="232.62" x2="519.52" y2="221.81"/><line class="cls-10" x1="506.69" y1="235.46" x2="524.49" y2="224.65"/><line class="cls-10" x1="510.14" y1="237.36" x2="527.94" y2="226.55"/><line class="cls-10" x1="514.68" y1="239.32" x2="532.47" y2="228.51"/><line class="cls-10" x1="518.6" y1="241.65" x2="536.39" y2="230.84"/><line class="cls-10" x1="522.42" y1="243.36" x2="540.22" y2="232.55"/><line class="cls-10" x1="526.28" y1="245.34" x2="544.07" y2="234.53"/><line class="cls-10" x1="530" y1="247.72" x2="548.23" y2="236.65"/><line class="cls-10" x1="534.24" y1="250" x2="552.44" y2="238.95"/><line class="cls-10" x1="538.9" y1="252.34" x2="556.7" y2="240.98"/><line class="cls-10" x1="542.58" y1="254.3" x2="560.38" y2="242.91"/><line class="cls-10" x1="546.31" y1="256.34" x2="564.1" y2="244.95"/><line class="cls-10" x1="550.5" y1="258.58" x2="568.29" y2="247.19"/><line class="cls-10" x1="555.21" y1="261.23" x2="573" y2="249.84"/><line class="cls-10" x1="558.66" y1="263.33" x2="576.9" y2="251.58"/><line class="cls-10" x1="562.66" y1="265.45" x2="580.9" y2="253.7"/><line class="cls-10" x1="566.3" y1="267.8" x2="584.54" y2="256.05"/><line class="cls-10" x1="570.55" y1="270.16" x2="588.78" y2="258.41"/><line class="cls-10" x1="574.87" y1="272.02" x2="593.11" y2="260.27"/><line class="cls-10" x1="579.08" y1="274.05" x2="597.32" y2="262.3"/><polygon class="cls-4" points="585.41 273.23 603.53 261.23 603.52 266.9 585.62 279.04 585.41 273.23"/><polyline class="cls-4" points="350.57 174.92 366.68 164.89 363.34 163.5 363.28 159.25 345.93 169.44 345.96 172.11"/><line class="cls-10" x1="347.7" y1="173.17" x2="363.38" y2="163.59"/><polyline class="cls-4" points="464.53 189.38 454.74 184.24 438.21 175.57 434.54 173.64 391.44 151.02 386.72 153.78 373.09 161.73 416.37 185.13"/><line class="cls-10" x1="477.53" y1="196.2" x2="477.46" y2="196.16"/><polyline class="cls-4" points="429.52 192.24 444.4 200.28 448.71 202.61"/><line class="cls-10" x1="425.46" y1="190.05" x2="418.89" y2="186.49"/><polyline class="cls-4" points="416.71 191.73 418.23 192.54 426.51 196.97 427.52 197.5"/><polyline class="cls-4" points="437.56 202.87 434.94 201.47 431.96 199.88"/><polyline class="cls-4" points="414.27 190.43 414.03 190.3 366.7 165.02"/><polyline class="cls-4" points="381.49 191.89 397.58 200.68 401.5 202.82 405.96 205.26 407.94 206.34"/><line class="cls-4" x1="422.34" y1="214.21" x2="410.13" y2="207.54"/><polyline class="cls-4" points="426.77 184.89 437.8 190.85 441.44 192.81 445.4 194.95 449.36 197.09 450.49 197.7"/><line class="cls-10" x1="378.41" y1="158.77" x2="417.25" y2="179.75"/><polyline class="cls-4" points="464.55 200.82 464.54 200.81 464.53 200.81"/><polyline class="cls-4" points="454.44 195.36 453.13 194.66 449.18 192.52 445.21 190.38 441.59 188.42 382.49 156.5"/><line class="cls-10" x1="472.33" y1="200.02" x2="472.21" y2="199.96"/><polyline class="cls-4" points="458.93 192.78 457.36 191.93 453.4 189.8 386.72 153.78 386.59 153.71"/><line class="cls-4" x1="463.07" y1="195.01" x2="463.06" y2="195.01"/><polyline class="cls-10" points="411.58 204.07 413.38 205.03 418.07 207.54 421.81 209.53 423.6 210.49"/><polyline class="cls-10" points="409.61 203.02 409.32 202.86 405.1 200.61 401.09 198.46 354.03 173.33"/><polyline class="cls-10" points="357.89 170.36 405.27 195.83 409.33 198.01 410.91 198.86"/><polyline class="cls-10" points="428.04 208.07 426 206.97 425.99 206.97 422.27 204.96 417.59 202.45 413.83 200.43 413.23 200.1"/><line class="cls-4" x1="439.29" y1="214.11" x2="438.77" y2="213.83"/><polyline class="cls-10" points="412.51 194.85 409.43 193.2 362.15 167.9"/><polyline class="cls-10" points="429.25 203.81 426.52 202.35 421.83 199.84 418.06 197.83 414.88 196.12"/><line class="cls-4" x1="443.51" y1="211.45" x2="443.5" y2="211.44"/><line class="cls-10" x1="353.72" y1="176.64" x2="370.11" y2="166.57"/><line class="cls-10" x1="358.15" y1="179.07" x2="374.66" y2="168.92"/><line class="cls-10" x1="361.9" y1="181.13" x2="378.13" y2="171.15"/><line class="cls-10" x1="365.59" y1="183.16" x2="382.28" y2="173.17"/><line class="cls-10" x1="369.47" y1="185.58" x2="385.96" y2="175.45"/><line class="cls-10" x1="373.51" y1="187.51" x2="390.19" y2="177.26"/><line class="cls-10" x1="377.81" y1="189.75" x2="394.32" y2="179.61"/><line class="cls-10" x1="380.94" y1="192.24" x2="398.33" y2="181.55"/><line class="cls-10" x1="385.6" y1="194.07" x2="402.22" y2="183.86"/><line class="cls-10" x1="388.97" y1="196.18" x2="405.85" y2="185.8"/><line class="cls-10" x1="393.7" y1="198.32" x2="410.11" y2="188.24"/><line class="cls-10" x1="397.58" y1="200.68" x2="414.03" y2="190.3"/><polyline class="cls-10" points="411.87 196.45 409.33 198.01 405.1 200.61 401.5 202.82 401.03 203.11"/><line class="cls-10" x1="418.42" y1="192.43" x2="415.73" y2="194.08"/><polyline class="cls-10" points="422.72 194.96 418.06 197.83 413.83 200.43 412.84 201.03"/><polyline class="cls-10" points="409.61 203.02 409.15 203.3 405.96 205.26 405.85 205.33"/><line class="cls-10" x1="409.72" y1="207.29" x2="426.55" y2="196.94"/><polyline class="cls-10" points="414.03 210.02 414.33 209.83 418.07 207.54 422.27 204.96 426.52 202.35 428.51 201.13"/><polyline class="cls-10" points="429.52 204.8 426 206.97 425.99 206.97 421.81 209.53 418.03 211.85 417.86 211.96"/><polyline class="cls-4" points="432.87 202.74 434.94 201.47 435.25 201.28"/><polyline class="cls-10" points="421.93 214.46 422.11 214.35 422.34 214.21"/><line class="cls-10" x1="376.52" y1="163.59" x2="394.32" y2="152.78"/><line class="cls-10" x1="379.57" y1="165.28" x2="397.36" y2="154.48"/><line class="cls-10" x1="384.53" y1="168.12" x2="402.33" y2="157.31"/><line class="cls-10" x1="387.98" y1="170.02" x2="405.78" y2="159.21"/><line class="cls-10" x1="392.52" y1="171.98" x2="410.31" y2="161.17"/><line class="cls-10" x1="396.44" y1="174.31" x2="414.23" y2="163.5"/><line class="cls-10" x1="400.26" y1="176.02" x2="418.06" y2="165.21"/><line class="cls-10" x1="404.12" y1="178" x2="421.91" y2="167.19"/><line class="cls-10" x1="407.84" y1="180.39" x2="426.07" y2="169.31"/><line class="cls-10" x1="430.28" y1="171.6" x2="420.76" y2="177.39"/><line class="cls-10" x1="417.52" y1="179.35" x2="412.08" y2="182.66"/><line class="cls-4" x1="434.54" y1="173.64" x2="424.05" y2="180.33"/><line class="cls-10" x1="421.23" y1="182.13" x2="420.52" y2="182.59"/><line class="cls-4" x1="438.21" y1="175.57" x2="426.85" y2="182.84"/><polyline class="cls-10" points="424 184.66 423.86 184.75 420.42 186.95"/><line class="cls-4" x1="441.94" y1="177.61" x2="427.75" y2="186.69"/><line class="cls-10" x1="425.02" y1="188.43" x2="424.15" y2="188.99"/><line class="cls-4" x1="446.13" y1="179.85" x2="429.05" y2="190.78"/><line class="cls-4" x1="433.05" y1="193.89" x2="450.84" y2="182.5"/><line class="cls-4" x1="436.5" y1="195.99" x2="454.74" y2="184.24"/><line class="cls-4" x1="440.5" y1="198.11" x2="458.74" y2="186.36"/><line class="cls-4" x1="444.14" y1="200.46" x2="462.38" y2="188.71"/><polyline class="cls-4" points="470.6 193.15 470.61 193.14 470.62 193.14"/><line class="cls-10" x1="468.98" y1="194.2" x2="468.25" y2="194.67"/><polyline class="cls-10" points="471.54 197.29 471.55 197.29 471.7 197.2 471.71 197.19"/><path class="cls-10" d="M464.33,210.84l2.7-1.56-3.06,2.07c.04-.21,.16-.4,.36-.51Z"/><path class="cls-10" d="M477.43,196.5l-.1,1.17c.14,.44,.22,.92,.22,1.42,0,2.13-1.4,3.87-3.13,3.87-.46,0-.89-.12-1.28-.35,0,0-.06-.03-.17-.09-.38-.21-1.34-.78-2.31-1.54l.84-.55,.71-.47,4.74-3.14"/><path class="cls-10" d="M480.8,199.94l.05-.04-.21,.03c-.81,0-1.53,.58-2.02,1.49"/><polyline class="cls-4" points="561.59 291.48 561.48 288.46 579.6 276.46 579.6 282.13 563.93 292.75"/><polyline class="cls-10" points="582.32 276.15 582.32 277.47 585.41 279.31"/><path class="cls-4" d="M440.74,241.46v-.14c-.27-9.19-7.61-16.55-16.63-16.55s-16.65,7.64-16.65,17.07c0,1.28,.14,2.52,.4,3.71,1.65,7.65,8.3,13.37,16.25,13.37,4.29,0,8.2-1.66,11.15-4.4"/><path class="cls-4" d="M430.44,219.66c8.51-.73,16.05,6.3,16.85,15.7,.29,3.36-2.81,10.11-4.1,12.88"/><path class="cls-10" d="M441.98,250.16c-1.87,3.47-5.22,5.29-7.48,4.08-.52-.28-.93-.69-1.24-1.2-1.07-1.73-.94-4.61,.51-7.29,.98-1.82,2.36-3.19,3.78-3.89,1.3-.66,2.62-.77,3.7-.19,2.27,1.21,2.59,5.02,.73,8.49Z"/><path class="cls-10" d="M439.99,249.59c-1.63,3.04-4.57,4.64-6.55,3.57-.06-.03-.12-.07-.18-.12-1.07-1.73-.94-4.61,.51-7.29,.98-1.82,2.36-3.19,3.78-3.89,.64-.09,1.26,0,1.8,.29,1.99,1.07,2.27,4.4,.64,7.44Z"/><line class="cls-10" x1="441.25" y1="241.67" x2="437.82" y2="239.33"/><path class="cls-10" d="M434.21,254.06l-4.89-4.57c-.44-1.7-.12-3.95,1.02-6.08,1.87-3.47,5.21-5.3,7.48-4.08"/><ellipse class="cls-10" cx="424.9" cy="227.83" rx="4.5" ry="1.55"/><ellipse class="cls-10" cx="424.9" cy="228.74" rx="4.5" ry="1.55"/><ellipse class="cls-10" cx="424.9" cy="229.59" rx="4.5" ry="1.55"/><path class="cls-10" d="M420.8,230.62s-4.83,3.22-6.68,8.37"/><path class="cls-4" d="M428.57,230.62s5.52,3.17,6.16,8.71"/><line class="cls-10" x1="423.57" y1="229.38" x2="423.57" y2="231.14"/><line class="cls-10" x1="426.67" y1="226.4" x2="426.67" y2="228.16"/><line class="cls-10" x1="423.57" y1="226.4" x2="423.57" y2="228.16"/><path class="cls-10" d="M413.65,255.13c.95,.3,1.84,.28,2.57-.15,.59-.34,1.01-.9,1.25-1.61,.64-1.78,.21-4.49-1.28-7.07-1.63-2.81-4.03-4.62-5.98-4.7-.55-.03-1.07,.08-1.52,.34-.52,.29-.9,.76-1.16,1.34h0"/><path class="cls-10" d="M417.47,253.37c-1.96-.09-4.35-1.9-5.97-4.7-1.48-2.58-1.92-5.3-1.29-7.07,1.95,.08,4.35,1.89,5.98,4.7,1.49,2.58,1.92,5.29,1.28,7.07Z"/><path class="cls-10" d="M417.18,254.25l4.6-4.96c-.04-1.6-.6-3.51-1.67-5.36-1.83-3.18-4.58-5.15-6.63-4.94l-4.79,2.96"/><ellipse class="cls-4" cx="442.73" cy="208.04" rx="1.34" ry="2.54" transform="translate(111.23 567.76) rotate(-72.51)"/><ellipse class="cls-4" cx="434.81" cy="213.75" rx="1.08" ry="1.92" transform="translate(-34.25 92.38) rotate(-11.67)"/><polyline class="cls-4" points="440.3 207.27 440.28 207.55 440.28 207.56 440.28 207.57 440.16 209.65 440.16 209.67 436.88 210.92 434.83 211.71 434.42 211.87"/><polyline class="cls-4" points="435.2 215.63 445.15 210.61 445.15 208.8"/><path class="cls-4" d="M436.88,210.92l-1.57-1.61c-.33-.33-.58-.74-.72-1.19l-.39-1.21-.17-.54-1.16-3.63-.91-2.86-2.44-7.64-.47-1.46-1.3-4.09-.7-2.18"/><path class="cls-4" d="M424.06,184.95c.01,.07,.03,.14,.06,.2l.9,3.28,.44,1.62,2.05,7.44h0s.01,0,.01,0l.99,3.63,.74,2.68,.27,.99,1.18,4.27,.14,.5,.04,.16c.08,.29,.24,.56,.45,.77l2.38,2.44"/><ellipse class="cls-4" cx="425.53" cy="184.08" rx="1.95" ry="1.47" transform="translate(104.37 518.48) rotate(-69.55)"/><line class="cls-4" x1="426.21" y1="182.26" x2="419.84" y2="176.57"/><line class="cls-4" x1="420.24" y1="181.16" x2="424.06" y2="184.95"/><path class="cls-4" d="M420.24,180.59c-.3,.5-.65,1.08-1.11,1.08-.9,0-1.63-1.2-1.63-2.68s.73-2.68,1.63-2.68c.34,0,.65,.17,.91,.46"/><polyline class="cls-4" points="406.44 216.4 410.13 207.54 410.42 206.85 411.58 204.07 412.84 201.03 413.23 200.1 414.88 196.12 415.73 194.08 420.83 181.84"/><path class="cls-4" d="M404.97,213.82c.99-2.49,1.98-4.99,2.97-7.48,.4-1.01,.81-2.03,1.21-3.04,.06-.15,.12-.29,.17-.44,.53-1.33,1.06-2.67,1.59-4,.32-.8,.64-1.61,.96-2.41,.21-.53,.43-1.07,.64-1.6,1.83-4.61,3.66-9.21,5.49-13.82"/><ellipse class="cls-4" cx="406.95" cy="218.74" rx="1.58" ry="1.22" transform="translate(29.75 485.52) rotate(-63.53)"/><line class="cls-10" x1="407.65" y1="217.32" x2="406.15" y2="216.37"/><polyline class="cls-4" points="405.34 212.73 403.94 211.87 398.41 211.87 394.64 211.87 394.64 220.04 393.45 220.04 393.45 224.16 400.74 224.16 400.74 220.04 398.72 220.04 398.72 215.93 400.95 215.93 406.02 220.04"/><path class="cls-8" d="M368.68,218c-1.89-1.39-2.41-4.72-1.12-7.95,1.45-3.62,4.65-5.74,7.15-4.74m5.23,3.14c-.89-.36-1.87-.32-2.82,.05-1.73,.65-3.39,2.36-4.33,4.7-.73,1.81-.88,3.66-.53,5.18,.3,1.33,.98,2.4,1.98,2.97m2.75,.33c-5.29,6.19-12.19,8.96-17.11,6.29-5.81-3.13-6.79-12.7-2.52-21.96,.28-.6,.59-1.2,.91-1.8,.57-1.05,1.17-2.05,1.82-2.99,.14-.21,.28-.41,.43-.61,.13-.18,.25-.36,.39-.53,5.4-7.07,12.92-10.41,18.16-7.57,5.35,2.9,6.61,11.28,3.4,19.84"/><path class="cls-6" d="M380.27,191.58c-5.56-3.01-13.63,.73-19.36,8.5-.14,.17-.26,.35-.39,.53-.15,.2-.29,.4-.43,.61-.65,.94-1.25,1.94-1.82,2.99-.32,.6-.63,1.2-.91,1.8-4.68,9.95-3.74,20.22,2.37,23.53,5.89,3.19,14.55-1.19,20.35-9.88,.58-.87,1.14-1.79,1.66-2.75,.06-.11,.12-.23,.18-.34,5.48-10.38,4.77-21.53-1.65-24.99Zm-6.39,29.53l-5.2-3.11c-1.89-1.39-2.41-4.72-1.12-7.95,1.45-3.62,4.65-5.74,7.15-4.74l5.76,3.41m-.53-.27c-.89-.36-1.87-.32-2.82,.05-1.73,.65-3.39,2.36-4.33,4.7-.73,1.81-.88,3.66-.53,5.18,.3,1.33,.98,2.4,1.98,2.97"/><path class="cls-6" d="M380.27,191.58l-2.76-2.05c-6.88-3.73-17.11,1.85-22.85,12.45-4.4,8.14-4.88,16.87-1.75,22.18l4.41,3.43"/><path class="cls-6" d="M381.92,216.57c-.03,.09-.07,.17-.1,.26-.44,1.1-1.04,2.06-1.74,2.83-.92,1.04-2,1.75-3.09,2.02-.79,.21-1.59,.18-2.32-.11l-.43-.22c-1-.57-1.68-1.64-1.98-2.97-.35-1.52-.2-3.37,.53-5.18,.94-2.34,2.6-4.05,4.33-4.7,.95-.37,1.93-.41,2.82-.05,1.43,.58,2.31,2.05,2.53,3.9,.17,1.29-.01,2.76-.55,4.22Z"/><path class="cls-8" d="M376.59,213.68c-.94,2.34-2.6,4.05-4.33,4.7-.35-1.52-.2-3.37,.53-5.18,.94-2.34,2.6-4.05,4.33-4.7,.35,1.52,.2,3.37-.53,5.18Z"/><line class="cls-8" x1="354.84" y1="219.3" x2="366.25" y2="216.38"/><line class="cls-8" x1="382.53" y1="197.37" x2="378.9" y2="207.06"/><path class="cls-6" d="M352.91,224.16l-54.5-33.11c-.25-4.12,.35-8.74,1.9-13.4,4.26-12.74,14.07-20.93,21.92-18.31l53.78,29.55"/><path class="cls-8" d="M331.92,164.76c-4.85-2.34-12.84,4.15-17.84,14.5-3.27,6.78-4.45,13.53-3.51,18.05"/><path class="cls-8" d="M339.3,169.02c-4.2-2.03-10.74,2.55-15.66,10.52l-2.54-.96s-2.24,1.56-3.46,5.78l2.7,1.7c-.76,1.85-1.35,3.68-1.79,5.44"/><path class="cls-8" d="M355.76,177.73c-4.85-2.34-12.84,4.15-17.84,14.5-3.27,6.76-4.45,13.5-3.52,18.02"/><ellipse class="cls-8" cx="303.96" cy="184.68" rx=".88" ry="1.59"/><ellipse class="cls-8" cx="315.02" cy="166.43" rx="2.06" ry="1.06" transform="translate(-41.2 159.99) rotate(-26.81)"/><polygon class="cls-6" points="298.35 185.54 279.17 195.59 271.36 185.71 290.88 176.4 298.35 185.54"/><polygon class="cls-8" points="284.35 184.64 276.43 188.38 274.6 186.04 282.41 182.49 284.35 184.64"/><polygon class="cls-8" points="287.63 188.63 279.85 192.66 277.94 190.39 285.61 186.55 287.63 188.63"/><polyline class="cls-6" points="302.58 171.64 284.35 162.06 284.86 178.68"/><polyline class="cls-6" points="320.35 158.47 304.84 150.54 284.35 162.06"/><ellipse class="cls-8" cx="296.79" cy="162.47" rx="1.06" ry="1.81" transform="translate(-36.68 105.23) rotate(-18.96)"/><path class="cls-8" d="M299.12,159.41c.55-.19,1.27,.42,1.59,1.37s.14,1.87-.41,2.06"/><polyline class="cls-8" points="303.33 141.34 299.12 159.41 296.2 160.75"/><line class="cls-8" x1="300.3" y1="162.84" x2="297.38" y2="164.18"/><line class="cls-8" x1="301.89" y1="140.1" x2="297.22" y2="160.28"/><ellipse class="cls-8" cx="303.37" cy="139.63" rx="1.48" ry="1.72"/><line class="cls-8" x1="300.3" y1="135.39" x2="301.89" y2="140.1"/><line class="cls-8" x1="303.04" y1="134.13" x2="304.85" y2="138.78"/><line class="cls-8" x1="304.09" y1="141.12" x2="310.26" y2="153.31"/><line class="cls-8" x1="304.85" y1="139.63" x2="312.43" y2="154.42"/><polygon class="cls-8" points="287.21 138.11 301.25 131.69 304.39 133.52 289.4 140.29 289.28 141.96 287.21 140.29 287.21 138.11"/><line class="cls-6" x1="268.6" y1="164.11" x2="265.83" y2="162.06"/><line class="cls-8" x1="277.3" y1="170.52" x2="270.28" y2="165.35"/><line class="cls-6" x1="284.78" y1="176.03" x2="279.04" y2="171.81"/><line class="cls-6" x1="297.94" y1="154.42" x2="274.32" y2="145.84"/><g><path class="cls-8" d="M269.12,154.87c-.26,0-.47,.46-.47,1.03s.21,1.03,.47,1.03"/><ellipse class="cls-8" cx="279.51" cy="162.3" rx=".47" ry="1.03"/><line class="cls-8" x1="269.12" y1="154.87" x2="279.51" y2="161.26"/><line class="cls-8" x1="279.51" y1="163.33" x2="269.12" y2="156.94"/></g><g><path class="cls-8" d="M268.6,165.28c-.26-.02-.5,.43-.54,1s.13,1.05,.39,1.06"/><ellipse class="cls-8" cx="278.43" cy="173.43" rx="1.03" ry=".47" transform="translate(85.53 438.74) rotate(-85.9)"/><line class="cls-8" x1="268.6" y1="165.28" x2="278.5" y2="172.4"/><line class="cls-8" x1="278.35" y1="174.46" x2="268.46" y2="167.34"/></g><line class="cls-8" x1="270.23" y1="166.45" x2="270.65" y2="157.88"/><line class="cls-8" x1="268.6" y1="165.28" x2="268.94" y2="156.71"/><line class="cls-8" x1="279.23" y1="163.13" x2="278.86" y2="173.07"/><line class="cls-8" x1="277.43" y1="171.43" x2="277.67" y2="162.16"/><line class="cls-8" x1="270.65" y1="157.88" x2="277.43" y2="171.43"/><line class="cls-8" x1="270.28" y1="166.08" x2="277.67" y2="162.16"/><path class="cls-6" d="M265.83,162.06c-.78-2.34-.55-5.64,.84-8.9,1.77-4.15,4.88-7,7.65-7.32l-6.26-3.2-2.23,.97-6.26,3.6,6.26,3.33"/><path class="cls-8" d="M265.57,161.11l-2.76,1.19-5.62-3.45,4.19-.97v-1.98l-3.25,.81-.14-1.84-1.94-.78h0c0-1,.73-1.86,1.72-2.01l1.38-.22,.07-1.32-2.74-.7v-4l1.44,.33v-2.23l4.03-1.98,3.88,1.65"/><line class="cls-8" x1="242.04" y1="160.86" x2="256.05" y2="154.09"/><line class="cls-8" x1="243.29" y1="162.86" x2="257.92" y2="156.03"/><polygon class="cls-8" points="240.22 159.45 243.59 162.06 229.02 169.36 225.19 166.98 240.22 159.45"/><polyline class="cls-8" points="240.6 163.56 242.72 164.4 243.59 162.06"/><polyline class="cls-8" points="225.19 166.98 225.19 169.36 229.02 171.32 229.02 169.36"/><polygon class="cls-6" points="224.54 166.15 208.94 156.92 209.1 160.6 206.99 161.18 222.18 170.72 224.55 169.36 224.54 166.15"/><line class="cls-8" x1="224.55" y1="169.36" x2="209.09" y2="160.36"/><polyline class="cls-6" points="20.23 246.73 206.99 161.18 222.18 170.72 35.27 258.15"/><line class="cls-8" x1="210.13" y1="163.16" x2="24.11" y2="249.36"/><line class="cls-8" x1="26.62" y1="251.41" x2="212.84" y2="164.86"/><line class="cls-8" x1="215.77" y1="166.69" x2="29.82" y2="254.07"/><line class="cls-8" x1="32.89" y1="256.02" x2="219.18" y2="168.84"/><line class="cls-8" x1="25.07" y1="244.51" x2="39.73" y2="256.2"/><line class="cls-8" x1="29.82" y1="242.34" x2="43.99" y2="254.07"/><line class="cls-8" x1="48.64" y1="251.9" x2="33.92" y2="240.46"/><line class="cls-8" x1="53.35" y1="249.69" x2="38.42" y2="238.4"/><line class="cls-8" x1="57.9" y1="247.57" x2="43.13" y2="236.24"/><line class="cls-8" x1="62.58" y1="245.37" x2="47.89" y2="234.06"/><line class="cls-8" x1="67.26" y1="243.18" x2="52.29" y2="232.04"/><line class="cls-8" x1="71.95" y1="240.99" x2="56.66" y2="230.04"/><line class="cls-8" x1="76.08" y1="239.06" x2="60.95" y2="228.08"/><line class="cls-8" x1="94.25" y1="230.56" x2="79.02" y2="219.8"/><line class="cls-8" x1="98.66" y1="228.5" x2="83.75" y2="217.63"/><line class="cls-8" x1="103.03" y1="226.45" x2="87.78" y2="215.79"/><line class="cls-8" x1="107.27" y1="224.47" x2="92.1" y2="213.81"/><line class="cls-8" x1="96.77" y1="211.67" x2="111.91" y2="222.3"/><line class="cls-8" x1="115.82" y1="220.47" x2="100.97" y2="209.75"/><line class="cls-8" x1="119.73" y1="218.64" x2="104.95" y2="207.92"/><line class="cls-8" x1="124.73" y1="216.3" x2="109.79" y2="205.71"/><line class="cls-8" x1="128.49" y1="214.55" x2="113.9" y2="203.83"/><line class="cls-8" x1="133.46" y1="212.22" x2="118.59" y2="201.67"/><line class="cls-8" x1="137.38" y1="210.38" x2="122.8" y2="199.75"/><line class="cls-8" x1="141.33" y1="208.54" x2="126.58" y2="198.02"/><line class="cls-8" x1="130.6" y1="196.17" x2="145.71" y2="206.49"/><line class="cls-8" x1="149.81" y1="204.57" x2="134.89" y2="194.21"/><line class="cls-8" x1="153.94" y1="202.64" x2="139.33" y2="192.17"/><line class="cls-8" x1="158.09" y1="200.69" x2="143.2" y2="190.4"/><line class="cls-8" x1="162.29" y1="198.73" x2="147.12" y2="188.61"/><line class="cls-8" x1="166.72" y1="196.66" x2="151.94" y2="186.4"/><line class="cls-8" x1="170.75" y1="194.77" x2="155.94" y2="184.57"/><line class="cls-8" x1="174.47" y1="193.03" x2="159.62" y2="182.88"/><line class="cls-8" x1="178.82" y1="191" x2="163.85" y2="180.94"/><line class="cls-8" x1="182.95" y1="189.07" x2="167.92" y2="179.08"/><line class="cls-8" x1="186.96" y1="187.19" x2="172.04" y2="177.19"/><line class="cls-8" x1="190.74" y1="185.42" x2="175.44" y2="175.64"/><line class="cls-8" x1="194.81" y1="183.52" x2="179.5" y2="173.78"/><line class="cls-8" x1="198.7" y1="181.7" x2="183.56" y2="171.92"/><line class="cls-8" x1="202.91" y1="179.73" x2="187.72" y2="170.01"/><line class="cls-8" x1="206.99" y1="177.82" x2="191.65" y2="168.21"/><line class="cls-8" x1="210.63" y1="176.12" x2="195.31" y2="166.53"/><line class="cls-8" x1="214.34" y1="174.38" x2="199.83" y2="164.86"/><line class="cls-8" x1="218.06" y1="172.64" x2="202.97" y2="163.02"/><polygon class="cls-6" points="16.71 244.05 36.3 258.94 35.9 262.44 17.1 248.2 16.71 244.05"/><polyline class="cls-8" points="35.9 262.44 38.42 260.6 36.3 260.11"/><polygon class="cls-6" points="246.74 178.42 230.85 169.08 231.05 172.86 228.92 173.48 244.39 183.12 246.78 181.71 246.74 178.42"/><line class="cls-8" x1="231.04" y1="172.61" x2="246.78" y2="181.71"/><polyline class="cls-6" points="40.58 263.06 228.92 173.48 244.39 183.12 55.92 274.65"/><line class="cls-8" x1="232.12" y1="175.47" x2="44.54" y2="265.73"/><line class="cls-8" x1="47.1" y1="267.8" x2="234.88" y2="177.2"/><line class="cls-8" x1="237.86" y1="179.05" x2="50.36" y2="270.51"/><line class="cls-8" x1="53.49" y1="272.47" x2="241.34" y2="181.22"/><line class="cls-8" x1="45.46" y1="260.74" x2="60.42" y2="272.6"/><line class="cls-8" x1="50.25" y1="258.46" x2="64.71" y2="270.38"/><line class="cls-8" x1="69.4" y1="268.1" x2="54.39" y2="256.49"/><line class="cls-8" x1="74.15" y1="265.79" x2="58.92" y2="254.33"/><line class="cls-8" x1="78.74" y1="263.56" x2="63.67" y2="252.07"/><line class="cls-8" x1="83.46" y1="261.27" x2="68.48" y2="249.79"/><line class="cls-8" x1="88.18" y1="258.98" x2="72.91" y2="247.68"/><line class="cls-8" x1="92.9" y1="256.69" x2="77.32" y2="245.58"/><line class="cls-8" x1="97.07" y1="254.66" x2="81.65" y2="243.52"/><line class="cls-8" x1="115.39" y1="245.77" x2="99.87" y2="234.86"/><line class="cls-8" x1="119.84" y1="243.61" x2="104.64" y2="232.59"/><line class="cls-8" x1="124.25" y1="241.46" x2="108.7" y2="230.66"/><line class="cls-8" x1="128.52" y1="239.39" x2="113.05" y2="228.59"/><line class="cls-8" x1="117.77" y1="226.34" x2="133.2" y2="237.12"/><line class="cls-8" x1="137.14" y1="235.2" x2="122" y2="224.33"/><line class="cls-8" x1="141.09" y1="233.29" x2="126.02" y2="222.42"/><line class="cls-8" x1="146.13" y1="230.84" x2="130.89" y2="220.1"/><line class="cls-8" x1="149.92" y1="229" x2="135.04" y2="218.13"/><line class="cls-8" x1="154.93" y1="226.56" x2="139.77" y2="215.88"/><line class="cls-8" x1="158.89" y1="224.64" x2="144.01" y2="213.86"/><line class="cls-8" x1="162.86" y1="222.71" x2="147.83" y2="212.05"/><line class="cls-8" x1="151.88" y1="210.12" x2="167.28" y2="220.57"/><line class="cls-8" x1="171.42" y1="218.56" x2="156.21" y2="208.06"/><line class="cls-8" x1="175.59" y1="216.53" x2="160.69" y2="205.93"/><line class="cls-8" x1="179.77" y1="214.5" x2="164.59" y2="204.07"/><line class="cls-8" x1="184.01" y1="212.45" x2="168.54" y2="202.19"/><line class="cls-8" x1="188.47" y1="210.28" x2="173.41" y2="199.88"/><line class="cls-8" x1="192.53" y1="208.31" x2="177.44" y2="197.96"/><line class="cls-8" x1="196.28" y1="206.48" x2="181.15" y2="196.2"/><line class="cls-8" x1="200.67" y1="204.36" x2="185.41" y2="194.17"/><line class="cls-8" x1="204.84" y1="202.33" x2="189.52" y2="192.22"/><line class="cls-8" x1="208.88" y1="200.37" x2="193.68" y2="190.24"/><line class="cls-8" x1="212.69" y1="198.52" x2="197.1" y2="188.61"/><line class="cls-8" x1="216.79" y1="196.53" x2="201.2" y2="186.66"/><line class="cls-8" x1="220.72" y1="194.62" x2="205.29" y2="184.72"/><line class="cls-8" x1="224.96" y1="192.56" x2="209.48" y2="182.72"/><line class="cls-8" x1="229.08" y1="190.56" x2="213.45" y2="180.83"/><line class="cls-8" x1="232.74" y1="188.78" x2="217.14" y2="179.08"/><line class="cls-8" x1="236.49" y1="186.96" x2="221.7" y2="177.32"/><line class="cls-8" x1="240.24" y1="185.14" x2="224.86" y2="175.4"/><polygon class="cls-6" points="36.98 260.33 56.97 275.44 56.6 279.04 37.43 264.6 36.98 260.33"/><polyline class="cls-8" points="56.6 279.04 59.13 277.13 56.98 276.65"/><line class="cls-8" x1="222.35" y1="170.72" x2="228.02" y2="173.72"/><polyline class="cls-6" points="287.21 124.62 428.69 59.13 443.69 65.79 303.04 132.74"/><line class="cls-8" x1="289.97" y1="126" x2="431.81" y2="60.52"/><line class="cls-8" x1="293.47" y1="127.81" x2="434.45" y2="61.69"/><line class="cls-8" x1="296.8" y1="129.69" x2="437.77" y2="63.16"/><line class="cls-8" x1="299.41" y1="131.1" x2="440.72" y2="64.47"/><polyline class="cls-6" points="443.69 65.79 446.2 64.94 446.2 62.01 430.6 55.71 430.6 58.33 428.69 59.13"/><line class="cls-8" x1="430.6" y1="58.33" x2="446.2" y2="64.94"/><line class="cls-8" x1="426.09" y1="60.52" x2="440.72" y2="67.21"/><line class="cls-8" x1="437.44" y1="68.77" x2="423.27" y2="61.63"/><line class="cls-8" x1="434.45" y1="70.2" x2="420.5" y2="62.91"/><line class="cls-8" x1="431.81" y1="71.45" x2="417.14" y2="64.47"/><line class="cls-8" x1="414.28" y1="65.79" x2="428.97" y2="72.8"/><line class="cls-8" x1="425.65" y1="74.38" x2="411.01" y2="67.31"/><line class="cls-8" x1="408.25" y1="68.59" x2="422.62" y2="75.83"/><line class="cls-8" x1="419.57" y1="77.27" x2="405.11" y2="70.04"/><line class="cls-8" x1="402.36" y1="71.45" x2="416.6" y2="78.69"/><line class="cls-8" x1="404.26" y1="84.56" x2="389.49" y2="77.27"/><line class="cls-8" x1="386.82" y1="78.51" x2="400.96" y2="86.13"/><line class="cls-8" x1="398.11" y1="87.49" x2="383.63" y2="79.99"/><line class="cls-8" x1="380.25" y1="81.55" x2="394.93" y2="89"/><line class="cls-8" x1="391.65" y1="90.56" x2="376.83" y2="83.13"/><line class="cls-8" x1="373.75" y1="84.56" x2="388.18" y2="92.22"/><line class="cls-8" x1="385.33" y1="93.57" x2="370.35" y2="86.13"/><line class="cls-8" x1="367.42" y1="87.49" x2="382.56" y2="94.89"/><line class="cls-8" x1="379.06" y1="96.56" x2="364.15" y2="89"/><line class="cls-8" x1="360.78" y1="90.56" x2="375.57" y2="98.22"/><line class="cls-8" x1="372.46" y1="99.7" x2="357.51" y2="92.08"/><line class="cls-8" x1="354.52" y1="93.46" x2="369.49" y2="101.11"/><line class="cls-8" x1="365.99" y1="102.78" x2="351.13" y2="95.03"/><line class="cls-8" x1="348.27" y1="96.36" x2="362.96" y2="104.22"/><line class="cls-8" x1="359.59" y1="105.82" x2="344.54" y2="98.08"/><line class="cls-8" x1="341.51" y1="99.48" x2="356.26" y2="107.41"/><line class="cls-8" x1="352.6" y1="109.15" x2="338.17" y2="101.11"/><line class="cls-8" x1="334.88" y1="102.55" x2="349.51" y2="110.62"/><line class="cls-8" x1="346.24" y1="112.18" x2="331.28" y2="104.22"/><line class="cls-8" x1="327.93" y1="105.77" x2="342.6" y2="113.91"/><line class="cls-8" x1="339.51" y1="115.38" x2="324.56" y2="107.41"/><line class="cls-8" x1="321.03" y1="108.97" x2="336.01" y2="117.05"/><line class="cls-8" x1="332.64" y1="118.65" x2="317.45" y2="110.62"/><line class="cls-8" x1="314.31" y1="112.08" x2="329.52" y2="120.13"/><line class="cls-8" x1="326.18" y1="121.73" x2="311.07" y2="113.58"/><line class="cls-8" x1="307.59" y1="115.19" x2="322.77" y2="123.35"/><line class="cls-8" x1="319.27" y1="125.01" x2="304.09" y2="116.81"/><line class="cls-8" x1="300.8" y1="118.33" x2="315.68" y2="126.72"/><line class="cls-8" x1="311.9" y1="128.52" x2="297.49" y2="119.86"/><line class="cls-8" x1="294.24" y1="121.37" x2="308.82" y2="129.99"/><line class="cls-8" x1="305.24" y1="131.69" x2="290.16" y2="123.26"/><polyline class="cls-6" points="296.2 134 283.15 127.01 283.15 122.31 300.51 131.69"/><polyline class="cls-6" points="308.51 135.76 450.83 69.88 465.84 76.54 322.94 144.55"/><line class="cls-8" x1="310.92" y1="137.29" x2="453.96" y2="71.27"/><line class="cls-8" x1="315.02" y1="139.27" x2="456.59" y2="72.43"/><line class="cls-8" x1="317.99" y1="140.89" x2="459.91" y2="73.91"/><line class="cls-8" x1="320.38" y1="142.4" x2="462.86" y2="75.22"/><polyline class="cls-6" points="465.84 76.54 468.35 75.68 468.35 72.76 452.74 66.46 452.74 69.08 450.83 69.88"/><line class="cls-8" x1="452.74" y1="69.08" x2="468.35" y2="75.68"/><line class="cls-8" x1="448.24" y1="71.27" x2="462.86" y2="77.96"/><line class="cls-8" x1="459.59" y1="79.52" x2="445.41" y2="72.38"/><line class="cls-8" x1="456.59" y1="80.94" x2="442.65" y2="73.66"/><line class="cls-8" x1="453.96" y1="82.2" x2="439.28" y2="75.22"/><line class="cls-8" x1="436.43" y1="76.54" x2="451.11" y2="83.55"/><line class="cls-8" x1="447.8" y1="85.13" x2="433.16" y2="78.06"/><line class="cls-8" x1="430.4" y1="79.34" x2="444.76" y2="86.58"/><line class="cls-8" x1="441.72" y1="88.02" x2="427.25" y2="80.79"/><line class="cls-8" x1="424.51" y1="82.2" x2="438.74" y2="89.44"/><line class="cls-8" x1="426.41" y1="95.31" x2="411.63" y2="88.02"/><line class="cls-8" x1="408.96" y1="89.26" x2="423.11" y2="96.88"/><line class="cls-8" x1="420.25" y1="98.24" x2="405.77" y2="90.74"/><line class="cls-8" x1="402.4" y1="92.3" x2="417.08" y2="99.75"/><line class="cls-8" x1="413.8" y1="101.31" x2="398.98" y2="93.88"/><line class="cls-8" x1="395.89" y1="95.31" x2="410.32" y2="102.96"/><line class="cls-8" x1="407.47" y1="104.32" x2="392.5" y2="96.88"/><line class="cls-8" x1="389.56" y1="98.24" x2="404.71" y2="105.64"/><line class="cls-8" x1="401.2" y1="107.31" x2="386.3" y2="99.75"/><line class="cls-8" x1="382.92" y1="101.31" x2="397.71" y2="108.97"/><line class="cls-8" x1="394.61" y1="110.45" x2="379.65" y2="102.83"/><line class="cls-8" x1="376.66" y1="104.21" x2="391.64" y2="111.86"/><line class="cls-8" x1="388.13" y1="113.53" x2="373.28" y2="105.78"/><line class="cls-8" x1="370.41" y1="107.11" x2="385.1" y2="114.97"/><line class="cls-8" x1="381.74" y1="116.57" x2="366.68" y2="108.83"/><line class="cls-8" x1="363.65" y1="110.23" x2="378.4" y2="118.16"/><line class="cls-8" x1="374.74" y1="119.9" x2="360.32" y2="111.86"/><line class="cls-8" x1="357.02" y1="113.3" x2="371.65" y2="121.37"/><line class="cls-8" x1="368.39" y1="122.93" x2="353.43" y2="114.97"/><line class="cls-8" x1="350.08" y1="116.52" x2="364.74" y2="124.66"/><line class="cls-8" x1="361.65" y1="126.13" x2="346.7" y2="118.16"/><line class="cls-8" x1="343.17" y1="119.72" x2="358.15" y2="127.8"/><line class="cls-8" x1="354.78" y1="129.4" x2="339.6" y2="121.37"/><line class="cls-8" x1="336.45" y1="122.83" x2="351.67" y2="130.88"/><line class="cls-8" x1="348.32" y1="132.48" x2="333.21" y2="124.33"/><line class="cls-8" x1="329.73" y1="125.94" x2="344.92" y2="134.1"/><line class="cls-8" x1="341.41" y1="135.76" x2="326.23" y2="127.56"/><line class="cls-8" x1="322.94" y1="129.08" x2="337.82" y2="137.47"/><line class="cls-8" x1="334.04" y1="139.27" x2="319.63" y2="130.61"/><line class="cls-8" x1="316.38" y1="132.12" x2="330.97" y2="140.74"/><line class="cls-8" x1="327.39" y1="142.44" x2="312.3" y2="134.01"/><polygon class="cls-6" points="322.65 143.63 305.29 134.25 305.29 138.95 322.65 147.53 322.65 143.63"/><polyline class="cls-8" points="322.65 147.53 324.21 146.18 322.65 145.96"/><polyline class="cls-4" points="430.11 206.94 428.04 208.07 423.6 210.49 422.03 211.35 422.17 216.37 431.59 210.77"/><polyline class="cls-4" points="434.91 208.8 440.75 205.33 440.75 201.13 437.56 202.87 433.6 205.03"/><polyline class="cls-10" points="419.55 212.98 417.45 214.52 422.18 216.37"/><polyline class="cls-4" points="468.06 190.16 468.06 187.29 464.53 189.38 463.23 190.15 463.03 190.27"/><polyline class="cls-4" points="459.02 192.65 458.86 192.74 454.44 195.36 450.49 197.7 448.38 198.95 448.38 202.43 448.38 202.82 448.38 203.82 456.31 198.95"/><polyline class="cls-4" points="448.38 203.82 445.62 202.61 446.79 201.58"/><path class="cls-3" d="M280.42,305.11l34.14-16.79c6.55-3.05,14.47-1.16,18.72,4.46h0c4.92,6.51,3.19,15.59-3.83,20.05l-30.91,20.45"/><ellipse class="cls-3" cx="288.24" cy="320.57" rx="9.02" ry="17.32" transform="translate(-113.67 164.63) rotate(-26.83)"/><path class="cls-1" d="M317.93,320.29c.26-3.28-.26-7.21-1.65-11.22-2.98-8.62-8.91-14.48-13.53-13.59"/><path class="cls-7" d="M325.42,316.3c.23-3.24-.43-7.13-2.07-11.12-3.52-8.58-10.3-14.48-15.48-13.69"/><path class="cls-3" d="M284.63,307.84c-2.71,3.12-2.83,8.87,0,14.09,2.95,5.44,8.12,8.49,12.3,7.58"/><path class="cls-3" d="M328.83,282.97h0c.08-.06,.17-.11,.26-.15,4.82-2.44,11.29,.64,14.44,6.87,2.39,4.72,2.2,9.89-.12,13.18"/><path class="cls-3" d="M327.07,288.02c.17-1.9,.77-3.65,1.76-5.05h0s19.44-11.39,19.44-11.39c4.3-.42,9.09,2.57,11.67,7.67,2.39,4.72,2.2,9.89-.12,13.18l-15.3,9.42c-.53,.46-.84,.74-1.03,.9h-.01c-.24,.21-.29,.24-.34,.27-2.22,1.12-4.79,1.08-7.23,.08"/><path class="cls-3" d="M355.05,273.55l3.21-1.81c2.32-1.34,5.73,.2,7.6,3.44s1.5,6.96-.82,8.3l-3.39,2.48"/><ellipse class="cls-7" cx="338.81" cy="280.7" rx="1.77" ry=".83"/><ellipse class="cls-3" cx="425.22" cy="295.92" rx="8" ry="4.54"/><path class="cls-3" d="M433.22,295.92v2.82c0,2.51-3.58,4.54-8,4.54s-7.99-2.03-7.99-4.54v-2.82"/><path class="cls-3" d="M432.93,297.11c.1,.05,.19,.1,.29,.16,2.47,1.31,4.02,3.23,4.02,5.36,0,3.97-5.38,7.2-12.02,7.2s-12.02-3.23-12.02-7.2c0-2.14,1.56-4.06,4.03-5.36,.1-.07,.19-.12,.29-.16"/><ellipse class="cls-3" cx="438.86" cy="304.53" rx=".74" ry="1.89"/><line class="cls-3" x1="437.24" y1="302.63" x2="439.01" y2="302.63"/><line class="cls-3" x1="435.68" y1="306.42" x2="438.86" y2="306.42"/><path class="cls-3" d="M436.32,319.12c.13,.35,.19,.7,.19,1.07,0,3.26-5.07,5.91-11.33,5.91s-11.32-2.65-11.32-5.91c0-.37,.06-.72,.19-1.07"/><line class="cls-3" x1="413.63" y1="304.53" x2="414.05" y2="319.12"/><line class="cls-3" x1="436.32" y1="319.12" x2="436.32" y2="306.42"/><path class="cls-3" d="M437.13,341.46c-1.41,3-6.17,5.21-11.83,5.21-4.91,0-9.15-1.66-11.11-4.07l-.14-.3v-11.53c0-2.54,.98-4.88,2.6-6.7"/><path class="cls-3" d="M437.13,341.63v-10.86c0-2.69-1.1-5.16-2.91-7.02"/><path class="cls-7" d="M433.94,335.07c.14-.04,.29-.04,.44,0,.65,.14,1.02,.96,.82,1.82s-.88,1.44-1.53,1.29c-.29-.07-.52-.26-.66-.54"/><path class="cls-7" d="M433.94,335.07c-.49,.12-.93,.61-1.08,1.27-.11,.48-.05,.95,.15,1.29"/><path class="cls-7" d="M433.67,338.17l-1.11-.53c-.65-.15-1.01-.96-.82-1.82,.2-.86,.88-1.44,1.53-1.29l1.48,.7"/><path class="cls-3" d="M437.13,339.49c.76,.81,1.18,1.7,1.18,2.66,0,3.44-5.61,6.25-12.54,6.25s-12.54-2.8-12.54-6.25c0-.79,.29-1.54,.82-2.23"/><path class="cls-3" d="M413.05,360.58c0,3.02,5.62,5.48,12.54,5.48s12.54-2.46,12.54-5.48"/><line class="cls-3" x1="438.13" y1="360.58" x2="438.31" y2="341.82"/><path class="cls-3" d="M413.06,360.7c-.73,.98-1.13,2.05-1.13,3.19,0,4.41,6.07,7.98,13.57,7.98,5.38,0,10.02-1.84,12.23-4.5"/><path class="cls-7" d="M439.07,363.72c-.03-1-.37-1.94-.97-2.81"/><path class="cls-1" d="M438.22,356.59c0,.36-.11,.71-.31,1.04-1.26,2.07-6.21,3.61-12.14,3.61s-10.88-1.54-12.14-3.61c-.2-.33-.31-.68-.31-1.04,0-.3,.08-.6,.22-.88,.21,.35,.53,.68,.94,1,2.02,1.55,6.28,2.62,11.21,2.62s9.3-1.1,11.29-2.69c.43-.34,.74-.7,.94-1.08,.2,.33,.3,.68,.3,1.03Z"/><path class="cls-1" d="M414.48,356.71c2.02,1.55,6.28,2.62,11.21,2.62s9.3-1.1,11.29-2.69"/><path class="cls-1" d="M437.91,357.63c.2,.33,.31,.68,.31,1.04,0,2.57-5.57,4.65-12.45,4.65s-12.45-2.08-12.45-4.65c0-.36,.11-.71,.31-1.04"/><path class="cls-7" d="M295.42,336.28c2.5-3.52,1.97-10.78-1.63-17.89-4.11-8.14-10.77-13.15-15.23-11.65l-47.52-30.84,17.28-10.17,46.86,31.39"/><polygon class="cls-3" points="378.9 351.2 361.05 363.32 310.26 329.67 327.07 318.76 378.9 351.2"/><polyline class="cls-3" points="310.26 329.67 313.02 318.76 327.07 318.76"/><line class="cls-3" x1="319.21" y1="323.86" x2="313.02" y2="318.76"/><polyline class="cls-3" points="414.05 336.62 402.6 344.95 360.11 317.28 374.77 308.23 414.48 333.28"/><line class="cls-7" x1="413.14" y1="344.13" x2="402.6" y2="344.95"/><polyline class="cls-3" points="409.45 339.97 413.23 341.82 413.05 360.58"/><polygon class="cls-3" points="496.15 385.96 481.99 395.52 435.68 366.06 449.38 356.64 496.15 385.96"/><polyline class="cls-7" points="449.38 356.64 435.26 356.64 435.68 366.06"/><line class="cls-7" x1="442.69" y1="361.24" x2="435.26" y2="356.64"/><path class="cls-5" d="M491.86,254.01c-7.87-2.54-17.56,5.63-21.65,18.25-4.08,12.63-1.01,24.93,6.87,27.47l55.36,32.05"/><path class="cls-9" d="M555.87,288.46c-7.87-2.54-17.96,6.85-22.53,20.98-2.71,8.39-2.87,16.56-.9,22.35"/><polyline class="cls-5" points="491.86 254.01 556.26 288.59 591.79 307.89"/><path class="cls-9" d="M517.49,267.64c-6.81-3.57-17.32,3.07-23.49,14.83-6.17,11.76-5.65,24.19,1.16,27.76"/><path class="cls-9" d="M536.55,278.33c-6.81-3.57-17.32,3.07-23.49,14.83-1.26,2.4-2.24,4.82-2.94,7.2l-.76-.46c-1.72-1.05-3.98-.31-4.74,1.55h0c-.59,1.43-.1,3.08,1.17,3.96l3.02,2.09c-.4,6.23,1.43,11.34,5.41,13.43"/><ellipse class="cls-9" cx="506.99" cy="283.02" rx="3.74" ry="2.98" transform="translate(8.39 580.58) rotate(-60)"/><path class="cls-9" d="M493.08,258.15l1.49,.83c.51,.29,.52,1.02,.01,1.32l-2.37,1.38c-.23,.13-.51,.14-.74,.01l-1.51-.8c-.52-.28-.54-1.02-.03-1.32l2.38-1.4c.23-.14,.52-.14,.75,0Z"/><path class="cls-9" d="M486.62,282.44l3.06,1.73c.27,.15,.38,.49,.25,.77l-1.04,2.32c-.15,.33-.55,.46-.86,.27l-2.96-1.81c-.25-.16-.36-.47-.24-.75l.95-2.25c.14-.33,.54-.47,.85-.29Z"/><polyline class="cls-9" points="485.94 282.21 487.17 281.71 491.05 283.91 489.98 284.44"/><path class="cls-9" d="M488.37,287.61l.28,.89c.15,.06,.37,.14,.44-.01l2.2-4.69"/><line class="cls-5" x1="532.44" y1="331.78" x2="563.93" y2="350.94"/><path class="cls-9" d="M546.12,302.21l22.62,13.55-15.29,10.04c-.72,.47-1.66,.48-2.38,0l-17.26-11.24c-1.29-.84-1.33-2.72-.07-3.61l12.38-8.75Z"/><path class="cls-9" d="M549.5,304.24l14.79-9.77-1.24-.46c-2.27-.85-4.79-.61-6.87,.64l-4.92,2.97c-1.65,.99-2.88,2.55-3.46,4.38l-.33,1.04"/><path class="cls-9" d="M592.41,308.34c-8.43-1.88-19.23,4.82-25.59,16.47-5.07,9.3-5.96,19.28-2.98,26.01"/><line class="cls-5" x1="578.24" y1="300.52" x2="578.23" y2="300.52"/><line class="cls-5" x1="554.6" y1="325.04" x2="554.6" y2="325.03"/><path class="cls-5" d="M574.46,349.27c-3.63,1.69-7.31,2.28-10.62,1.55"/><path class="cls-5" d="M592.41,308.34c1.36,3.09,1.91,6.87,1.62,10.94"/><path class="cls-5" d="M609.02,359.62l-34.62-10.33c-1.46-4.57-.69-11.04,2.49-17.26,4.86-9.52,13.51-14.84,19.31-11.88l24.57,20.2"/><path class="cls-9" d="M620.15,340.09c-4.42-.27-9.15,3.61-11.17,9.51-1.24,3.61-1.21,7.24-.16,10.09l1.17,2.38"/><polygon class="cls-9" points="544.11 334.24 548.67 336.77 547.47 338.2 542.85 335.41 544.11 334.24"/><polyline class="cls-9" points="547.47 338.2 547.48 339.75 542.61 336.81 542.61 335.4"/><polyline class="cls-9" points="548.67 336.77 548.67 339.33 547.75 340.02"/><polygon class="cls-9" points="550.79 338.2 555.36 340.72 554.15 342.16 549.53 339.36 550.79 338.2"/><polyline class="cls-9" points="554.15 342.16 554.16 343.7 549.3 340.76 549.3 339.36"/><polyline class="cls-9" points="555.36 340.72 555.36 343.28 554.44 343.98"/><g><path class="cls-9" d="M578.63,335.81c-.05-.04-.11-.06-.17-.06-.29,0-.52,.48-.52,1.07s.23,1.08,.52,1.08"/><ellipse class="cls-9" cx="599.23" cy="344.3" rx=".52" ry="1.08"/><line class="cls-9" x1="578.46" y1="335.75" x2="599.23" y2="343.22"/><line class="cls-9" x1="599.23" y1="345.37" x2="578.46" y2="337.9"/></g><g><path class="cls-9" d="M578.63,344.52c-.05-.04-.11-.06-.17-.06-.29,0-.52,.48-.52,1.07s.23,1.08,.52,1.08"/><ellipse class="cls-9" cx="599.23" cy="353.01" rx=".52" ry="1.08"/><line class="cls-9" x1="578.46" y1="344.46" x2="599.23" y2="351.93"/><line class="cls-9" x1="599.23" y1="354.08" x2="578.46" y2="346.61"/></g><g><polyline class="cls-9" points="580.1 345.05 579.97 338.45 596.67 351.13"/><line class="cls-9" x1="578.46" y1="344.49" x2="578.46" y2="337.9"/></g><g><line class="cls-9" x1="598.57" y1="345.14" x2="598.69" y2="351.64"/><polyline class="cls-9" points="596.67 351.13 596.67 344.3 580.1 345.05"/></g><line class="cls-9" x1="595.94" y1="319.93" x2="599.5" y2="312.16"/><line class="cls-9" x1="597.23" y1="320.45" x2="600.78" y2="312.68"/><ellipse class="cls-9" cx="601.52" cy="309.29" rx="3.41" ry="6.2" transform="translate(82.61 743.13) rotate(-67.11)"/><path class="cls-9" d="M600.2,312.43l2.09-4.09s-.33-1.01-6.85-.31"/><path class="cls-9" d="M606.96,312.36s-1.59-2.74-4.68-4.01c0,0,.14-1.25,2.34-1.25"/><path class="cls-9" d="M620.15,340.09c.46,.31,.89,.67,1.27,1.08l-9.05,5.93,9.69,5.9,7.52-5.9"/><path class="cls-5" d="M629.58,347.11l-8.16-5.93,8.16,5.93Z"/><polyline class="cls-5" points="627.95 348.39 635.51 351.93 635.51 354.08 633.95 355.03 629.58 357.7 629.58 354.97 623.06 352.23"/><polyline class="cls-5" points="635.51 354.08 634.25 363.29 628.44 366.13 629.58 357.7"/><polyline class="cls-5" points="628.44 366.13 621.42 364.99 618.07 367.84 612.38 364.31"/><path class="cls-5" d="M614.66,356.33l-.54,.54c-.86,.86-.63,2.3,.45,2.85l1.6,.82c.78,.4,1.72,.18,2.24-.52l.92-1.24-4.67-2.45Z"/><line class="cls-5" x1="599.75" y1="369.49" x2="613.97" y2="359.18"/><line class="cls-5" x1="602.24" y1="371.23" x2="616.46" y2="360.92"/><polygon class="cls-5" points="597.23 368.67 602.88 372.42 587.48 383.03 581.97 379.28 597.23 368.67"/><path class="cls-5" d="M631.82,350.2l13.77-10.69c.69-.54,.69-1.58,0-2.12h0c-.48-.37-1.15-.37-1.63,0l-14.37,11"/><path class="cls-5" d="M643.95,337.39l-.32-1.28c-.16-.65,.53-1.18,1.12-.86l3.85,2.1c.49,.26,.54,.94,.11,1.28l-3.23,2.55-.63-1.09"/><polyline class="cls-5" points="649.01 337.93 662.75 327.97 657.34 324.84 643.95 335.15"/><polygon class="cls-5" points="556.43 363.32 581.97 379.28 581.97 382.2 578.46 384.41 552.69 369.49 556.6 367.84 556.43 363.32"/><line class="cls-5" x1="359.83" y1="505.4" x2="552.69" y2="369.49"/><polyline class="cls-5" points="578.46 384.41 384.61 523.33 382.62 521.92 356.24 503.12 356.24 510.94 382 529.53 387.6 526.85 382.82 525.16"/><line class="cls-9" x1="382.62" y1="521.92" x2="382" y2="529.53"/><line class="cls-9" x1="364.97" y1="509.34" x2="557.88" y2="372.49"/><line class="cls-9" x1="562.39" y1="375.1" x2="370.72" y2="513.44"/><line class="cls-9" x1="375.69" y1="516.98" x2="567.33" y2="377.96"/><line class="cls-9" x1="573.69" y1="381.64" x2="380.02" y2="520.06"/><polyline class="cls-5" points="556.6 367.84 581.97 382.2 590.59 388.83 615.96 403.18"/><line class="cls-9" x1="549.31" y1="371.86" x2="574.35" y2="387.35"/><line class="cls-9" x1="545.45" y1="375.02" x2="570.24" y2="390.29"/><line class="cls-9" x1="566.28" y1="393.14" x2="541.51" y2="377.37"/><line class="cls-9" x1="537.66" y1="380.08" x2="562.76" y2="395.66"/><line class="cls-9" x1="558.16" y1="398.95" x2="533.19" y2="383.23"/><line class="cls-9" x1="529.49" y1="385.83" x2="554.49" y2="401.59"/><line class="cls-9" x1="550.21" y1="404.65" x2="525.03" y2="388.98"/><line class="cls-9" x1="521.63" y1="391.37" x2="546.51" y2="407.3"/><line class="cls-9" x1="541.99" y1="410.54" x2="517.12" y2="394.55"/><line class="cls-9" x1="538.02" y1="413.39" x2="513.18" y2="397.33"/><line class="cls-9" x1="508.34" y1="400.74" x2="534.07" y2="416.22"/><line class="cls-9" x1="529.56" y1="419.45" x2="504.73" y2="403.29"/><line class="cls-9" x1="500.55" y1="406.23" x2="525.6" y2="422.29"/><line class="cls-9" x1="521.21" y1="425.44" x2="496.15" y2="409.33"/><line class="cls-9" x1="492.05" y1="412.22" x2="517.12" y2="428.36"/><line class="cls-9" x1="512.49" y1="431.68" x2="488.1" y2="415"/><line class="cls-9" x1="483.75" y1="418.07" x2="508.34" y2="434.66"/><line class="cls-9" x1="503.98" y1="437.78" x2="479.39" y2="421.14"/><line class="cls-9" x1="475.08" y1="424.18" x2="499.61" y2="440.91"/><line class="cls-9" x1="495.51" y1="443.86" x2="470.62" y2="427.32"/><line class="cls-9" x1="466.18" y1="430.45" x2="491.01" y2="447.08"/><line class="cls-9" x1="486.61" y1="450.23" x2="462.06" y2="433.36"/><line class="cls-9" x1="457.99" y1="436.23" x2="482.47" y2="453.2"/><line class="cls-9" x1="478" y1="456.41" x2="453.44" y2="439.43"/><line class="cls-9" x1="449.13" y1="442.47" x2="473.28" y2="459.78"/><line class="cls-9" x1="468.7" y1="463.07" x2="444.3" y2="445.87"/><line class="cls-9" x1="439.62" y1="449.17" x2="464.32" y2="466.21"/><line class="cls-9" x1="459.18" y1="469.89" x2="435.18" y2="452.3"/><line class="cls-9" x1="430.78" y1="455.4" x2="455.03" y2="472.86"/><line class="cls-9" x1="426.58" y1="458.37" x2="450.83" y2="475.84"/><line class="cls-9" x1="422.32" y1="462.18" x2="446.57" y2="479.65"/><line class="cls-9" x1="403.5" y1="475.21" x2="427.76" y2="492.67"/><line class="cls-9" x1="398.46" y1="478.73" x2="422.71" y2="496.19"/><line class="cls-9" x1="393.89" y1="482.15" x2="418.15" y2="499.62"/><line class="cls-9" x1="388.87" y1="485.37" x2="413.12" y2="502.84"/><line class="cls-9" x1="383.82" y1="488.7" x2="408.08" y2="506.16"/><line class="cls-9" x1="378.78" y1="491.87" x2="403.03" y2="509.34"/><line class="cls-9" x1="374.76" y1="495.37" x2="399.02" y2="512.83"/><line class="cls-9" x1="369.88" y1="498.98" x2="394.13" y2="516.45"/><line class="cls-9" x1="364.61" y1="502.84" x2="388.87" y2="520.3"/><polygon class="cls-5" points="590.42 384.31 615.96 400.27 615.96 403.18 612.45 405.39 586.68 390.47 590.59 388.83 590.42 384.31"/><line class="cls-5" x1="393.82" y1="526.38" x2="586.68" y2="390.47"/><polyline class="cls-5" points="612.45 405.39 418.6 544.32 416.61 542.9 390.24 524.1 390.24 531.93 416 550.51 421.6 547.84 416.81 546.14"/><line class="cls-9" x1="416.61" y1="542.9" x2="416" y2="550.51"/><line class="cls-9" x1="398.97" y1="530.32" x2="591.87" y2="393.47"/><line class="cls-9" x1="596.39" y1="396.09" x2="404.71" y2="534.42"/><line class="cls-9" x1="409.69" y1="537.96" x2="601.32" y2="398.95"/><line class="cls-9" x1="607.68" y1="402.63" x2="414.02" y2="541.05"/><line class="cls-9" x1="583.31" y1="392.85" x2="608.35" y2="408.33"/><line class="cls-9" x1="579.44" y1="396" x2="604.24" y2="411.28"/><line class="cls-9" x1="600.27" y1="414.12" x2="575.5" y2="398.35"/><line class="cls-9" x1="571.65" y1="401.06" x2="596.75" y2="416.64"/><line class="cls-9" x1="592.16" y1="419.94" x2="567.18" y2="404.21"/><line class="cls-9" x1="563.49" y1="406.82" x2="588.48" y2="422.57"/><line class="cls-9" x1="584.2" y1="425.64" x2="559.03" y2="409.96"/><line class="cls-9" x1="555.63" y1="412.36" x2="580.51" y2="428.29"/><line class="cls-9" x1="575.98" y1="431.53" x2="551.12" y2="415.53"/><line class="cls-9" x1="572.01" y1="434.38" x2="547.17" y2="418.31"/><line class="cls-9" x1="542.33" y1="421.72" x2="568.07" y2="437.2"/><line class="cls-9" x1="563.55" y1="440.44" x2="538.72" y2="424.27"/><line class="cls-9" x1="534.54" y1="427.21" x2="559.59" y2="443.28"/><line class="cls-9" x1="555.2" y1="446.42" x2="530.14" y2="430.31"/><line class="cls-9" x1="526.05" y1="433.2" x2="551.12" y2="449.35"/><line class="cls-9" x1="546.49" y1="452.67" x2="522.09" y2="435.99"/><line class="cls-9" x1="517.74" y1="439.06" x2="542.33" y2="455.64"/><line class="cls-9" x1="537.98" y1="458.77" x2="513.38" y2="442.13"/><line class="cls-9" x1="509.07" y1="445.16" x2="533.61" y2="461.9"/><line class="cls-9" x1="529.5" y1="464.84" x2="504.61" y2="448.31"/><line class="cls-9" x1="500.17" y1="451.43" x2="525" y2="468.07"/><line class="cls-9" x1="520.61" y1="471.21" x2="496.05" y2="454.34"/><line class="cls-9" x1="491.98" y1="457.21" x2="516.46" y2="474.18"/><line class="cls-9" x1="511.99" y1="477.39" x2="487.43" y2="460.42"/><line class="cls-9" x1="483.13" y1="463.45" x2="507.28" y2="480.77"/><line class="cls-9" x1="502.7" y1="484.05" x2="478.3" y2="466.85"/><line class="cls-9" x1="473.61" y1="470.15" x2="498.31" y2="487.19"/><line class="cls-9" x1="493.18" y1="490.87" x2="469.17" y2="473.28"/><line class="cls-9" x1="464.77" y1="476.38" x2="489.03" y2="493.85"/><line class="cls-9" x1="460.57" y1="479.35" x2="484.83" y2="496.82"/><line class="cls-9" x1="456.31" y1="483.17" x2="480.56" y2="500.63"/><line class="cls-9" x1="437.5" y1="496.19" x2="461.75" y2="513.66"/><line class="cls-9" x1="432.45" y1="499.71" x2="456.71" y2="517.18"/><line class="cls-9" x1="427.89" y1="503.14" x2="452.14" y2="520.6"/><line class="cls-9" x1="422.86" y1="506.35" x2="447.11" y2="523.82"/><line class="cls-9" x1="417.82" y1="509.68" x2="442.07" y2="527.15"/><line class="cls-9" x1="412.77" y1="512.86" x2="437.03" y2="530.32"/><line class="cls-9" x1="408.76" y1="516.35" x2="433.01" y2="533.82"/><line class="cls-9" x1="403.87" y1="519.97" x2="428.12" y2="537.43"/><line class="cls-9" x1="398.61" y1="523.82" x2="422.86" y2="541.28"/><line class="cls-9" x1="587.48" y1="383.03" x2="590.42" y2="384.31"/><polyline class="cls-5" points="793.99 226.77 796.97 224.88 797.78 221.46 773.03 210.49 773.03 214.71 770.96 216.59"/><polyline class="cls-5" points="634.49 312.55 770.96 216.59 775.57 218.63 793.99 226.77 657.34 324.84 629.58 310.35 629.58 317.19 651.73 329.16"/><line class="cls-9" x1="638.48" y1="315" x2="775.57" y2="218.63"/><line class="cls-9" x1="779.89" y1="220.54" x2="643.95" y2="317.85"/><line class="cls-9" x1="647.93" y1="319.93" x2="784.37" y2="222.52"/><line class="cls-9" x1="788.86" y1="224.51" x2="653.35" y2="322.76"/><line class="cls-9" x1="766.69" y1="219.59" x2="789.38" y2="230.08"/><line class="cls-9" x1="760.71" y1="223.93" x2="783.4" y2="234.42"/><line class="cls-9" x1="757.71" y1="225.89" x2="780.4" y2="236.38"/><line class="cls-9" x1="755.34" y1="227.86" x2="778.04" y2="238.34"/><line class="cls-9" x1="752.3" y1="230.08" x2="774.99" y2="240.57"/><line class="cls-9" x1="748.77" y1="232.45" x2="771.46" y2="242.93"/><line class="cls-9" x1="746.37" y1="234.14" x2="769.06" y2="244.63"/><line class="cls-9" x1="742.84" y1="236.51" x2="765.53" y2="247"/><line class="cls-9" x1="736.78" y1="240.57" x2="759.47" y2="251.06"/><line class="cls-9" x1="733.26" y1="242.93" x2="755.95" y2="253.42"/><line class="cls-9" x1="731.49" y1="244.63" x2="754.18" y2="255.12"/><line class="cls-9" x1="727.97" y1="247" x2="750.66" y2="257.48"/><line class="cls-9" x1="724.56" y1="249.44" x2="747.25" y2="259.93"/><line class="cls-9" x1="722.79" y1="251.13" x2="745.48" y2="261.62"/><line class="cls-9" x1="719.27" y1="253.5" x2="741.96" y2="263.99"/><line class="cls-9" x1="715.53" y1="255.82" x2="738.22" y2="266.31"/><line class="cls-9" x1="711.45" y1="258.1" x2="734.88" y2="269.19"/><line class="cls-9" x1="709.96" y1="259.85" x2="731.83" y2="270.96"/><line class="cls-9" x1="706.34" y1="262.12" x2="728.69" y2="273.63"/><line class="cls-9" x1="703.5" y1="264.33" x2="725.37" y2="275.45"/><line class="cls-9" x1="699.88" y1="266.61" x2="722.24" y2="278.12"/><line class="cls-9" x1="696.91" y1="268.84" x2="719.27" y2="280.35"/><line class="cls-9" x1="694.09" y1="270.89" x2="716.45" y2="282.4"/><line class="cls-9" x1="690.39" y1="273.63" x2="712.74" y2="285.14"/><line class="cls-9" x1="686.96" y1="275.79" x2="709.32" y2="287.3"/><line class="cls-9" x1="683.83" y1="278.41" x2="706.19" y2="289.92"/><line class="cls-9" x1="680.71" y1="280.35" x2="703.07" y2="291.86"/><line class="cls-9" x1="677.53" y1="282.4" x2="699.88" y2="293.91"/><line class="cls-9" x1="674.29" y1="284.79" x2="696.65" y2="296.3"/><line class="cls-9" x1="671.12" y1="286.95" x2="693.47" y2="298.46"/><line class="cls-9" x1="667.34" y1="289.46" x2="689.69" y2="300.97"/><line class="cls-9" x1="664.28" y1="292.17" x2="686.63" y2="303.68"/><line class="cls-9" x1="660.5" y1="294.68" x2="682.86" y2="306.19"/><line class="cls-9" x1="657.12" y1="297.26" x2="679.48" y2="308.77"/><line class="cls-9" x1="653.35" y1="299.78" x2="675.7" y2="311.28"/><line class="cls-9" x1="650.97" y1="301.76" x2="673.33" y2="313.27"/><line class="cls-9" x1="647.2" y1="304.27" x2="669.55" y2="315.78"/><line class="cls-9" x1="644.06" y1="306.25" x2="666.41" y2="317.76"/><line class="cls-9" x1="640.28" y1="308.77" x2="662.63" y2="320.28"/><line class="cls-9" x1="637.22" y1="311.28" x2="659.58" y2="322.79"/><line class="cls-9" x1="763.64" y1="221.96" x2="786.33" y2="232.45"/><polyline class="cls-5" points="825.46 240.87 828.39 238.89 829.1 235.44 804.06 225.16 804.18 229.39 802.16 231.32"/><line class="cls-9" x1="672.44" y1="333.33" x2="806.83" y2="233.23"/><line class="cls-9" x1="811.19" y1="235.02" x2="677.98" y2="336.03"/><line class="cls-9" x1="682.02" y1="338" x2="815.73" y2="236.88"/><line class="cls-9" x1="820.28" y1="238.74" x2="687.51" y2="340.68"/><line class="cls-9" x1="797.98" y1="234.44" x2="820.95" y2="244.3"/><line class="cls-9" x1="792.11" y1="238.94" x2="815.08" y2="248.8"/><line class="cls-9" x1="789.17" y1="240.98" x2="812.14" y2="250.84"/><line class="cls-9" x1="786.86" y1="243.01" x2="809.83" y2="252.87"/><line class="cls-9" x1="783.88" y1="245.32" x2="806.85" y2="255.18"/><line class="cls-9" x1="780.42" y1="247.78" x2="803.39" y2="257.64"/><line class="cls-9" x1="778.06" y1="249.54" x2="801.03" y2="259.4"/><line class="cls-9" x1="774.6" y1="252" x2="797.57" y2="261.86"/><line class="cls-9" x1="768.66" y1="256.23" x2="791.63" y2="266.09"/><line class="cls-9" x1="765.2" y1="258.69" x2="788.17" y2="268.55"/><line class="cls-9" x1="763.48" y1="260.43" x2="786.45" y2="270.29"/><line class="cls-9" x1="760.02" y1="262.89" x2="782.99" y2="272.75"/><line class="cls-9" x1="756.68" y1="265.43" x2="779.65" y2="275.29"/><line class="cls-9" x1="754.96" y1="267.17" x2="777.93" y2="277.03"/><line class="cls-9" x1="751.5" y1="269.63" x2="774.47" y2="279.49"/><line class="cls-9" x1="747.83" y1="272.06" x2="770.8" y2="281.92"/><line class="cls-9" x1="743.81" y1="274.44" x2="767.54" y2="284.89"/><line class="cls-9" x1="742.38" y1="276.24" x2="764.54" y2="286.75"/><line class="cls-9" x1="738.82" y1="278.61" x2="761.48" y2="289.5"/><line class="cls-9" x1="736.04" y1="280.9" x2="758.21" y2="291.41"/><line class="cls-9" x1="732.48" y1="283.27" x2="755.15" y2="294.16"/><line class="cls-9" x1="729.58" y1="285.59" x2="752.24" y2="296.48"/><line class="cls-9" x1="726.81" y1="287.71" x2="749.48" y2="298.6"/><line class="cls-9" x1="723.19" y1="290.55" x2="745.85" y2="301.44"/><line class="cls-9" x1="719.82" y1="292.81" x2="742.48" y2="303.7"/><line class="cls-9" x1="716.76" y1="295.51" x2="739.43" y2="306.4"/><line class="cls-9" x1="713.7" y1="297.54" x2="736.36" y2="308.43"/><line class="cls-9" x1="710.57" y1="299.67" x2="733.23" y2="310.56"/><line class="cls-9" x1="707.4" y1="302.15" x2="730.07" y2="313.04"/><line class="cls-9" x1="704.29" y1="304.4" x2="726.95" y2="315.29"/><line class="cls-9" x1="700.58" y1="307.01" x2="723.24" y2="317.9"/><line class="cls-9" x1="697.6" y1="309.8" x2="720.26" y2="320.69"/><line class="cls-9" x1="693.89" y1="312.42" x2="716.55" y2="323.31"/><line class="cls-9" x1="690.58" y1="315.09" x2="713.25" y2="325.98"/><line class="cls-9" x1="686.88" y1="317.7" x2="709.54" y2="328.59"/><line class="cls-9" x1="684.56" y1="319.75" x2="707.22" y2="330.64"/><line class="cls-9" x1="680.85" y1="322.37" x2="703.52" y2="333.26"/><line class="cls-9" x1="677.77" y1="324.44" x2="700.43" y2="335.33"/><line class="cls-9" x1="674.06" y1="327.05" x2="696.73" y2="337.94"/><line class="cls-9" x1="671.08" y1="329.65" x2="693.74" y2="340.54"/><line class="cls-9" x1="794.99" y1="236.89" x2="817.97" y2="246.75"/><polyline class="cls-5" points="691.56 342.65 691.56 348.39 686.07 347.12 663.6 335.76 663.41 328.93 691.56 342.65 825.46 240.87 806.83 233.23 802.16 231.32 668.38 330.99"/><line class="cls-9" x1="773.03" y1="214.71" x2="796.97" y2="224.88"/><line class="cls-9" x1="804.18" y1="229.39" x2="828.39" y2="238.89"/></svg>