<svg id="Layer_1" data-name="Layer 1" xmlns="http://www.w3.org/2000/svg" viewBox="0 0 435.8 909.28"><defs><style>.cls-1{stroke:#b64026;}.cls-1,.cls-11,.cls-4,.cls-6,.cls-7{stroke-miterlimit:10;}.cls-11,.cls-2,.cls-4,.cls-7{fill:none;}.cls-3{fill:#fff;}.cls-11,.cls-4{stroke:#fff;}.cls-5,.cls-6{fill:#020202;}.cls-5,.cls-6,.cls-7{stroke:#be965f;}.cls-5{stroke-linecap:round;stroke-linejoin:round;}.cls-8{isolation:isolate;}.cls-9{fill:#b64026;}.cls-10{fill:#be965f;}.cls-11{stroke-width:6px;}</style></defs><rect width="435.8" height="909.28"/><path class="cls-1" d="M131.2,127.3s-8.4,10.3-9.3,16.3a4.12,4.12,0,0,0,.1,2.2h17.1C139.1,145.9,140.5,139.9,131.2,127.3Z" transform="translate(0 0)"/><polygon class="cls-1" points="119 373.8 142.5 373.8 142.5 260 139.2 247.4 139.1 145.8 122 145.8 121.8 247.9 119 259.8 119 373.8"/><path class="cls-1" d="M142.6,373s8.9,2.1,10.6-1.3v-79s-6-13.3-10.6-13.5Z" transform="translate(0 0)"/><path class="cls-1" d="M119.2,373.2s-8.9,2.1-10.6-1.3v-79s6-13.3,10.6-13.5Z" transform="translate(0 0)"/><polygon class="cls-1" points="126.2 373.7 123.7 378.5 137.6 378.5 135.9 373.7 126.2 373.7"/><polygon class="cls-1" points="110.3 372.7 105.5 378.5 119.2 378.5 117.9 373.4 110.3 372.7"/><polygon class="cls-1" points="144.5 373.7 142.5 378.5 153.1 378.5 150.6 372.7 144.5 373.7"/><rect class="cls-1" x="128.3" y="255.4" width="5.1" height="5.1"/><rect class="cls-1" x="128.3" y="262.1" width="5.1" height="5.1"/><rect class="cls-1" x="128.3" y="268.9" width="5.1" height="5.1"/><rect class="cls-1" x="122" y="192.2" width="16.9" height="37.9"/><rect class="cls-1" x="122" y="176.2" width="16.9" height="5.1"/><rect class="cls-1" x="119.4" y="280.7" width="22.8" height="20.2"/><rect class="cls-1" x="119.4" y="333.8" width="22.8" height="9.3"/><rect class="cls-1" x="119.4" y="362.5" width="22.8" height="11"/><rect class="cls-1" x="126.2" y="293.3" width="9.7" height="80.3"/><polygon class="cls-1" points="130.8 278.3 126.2 293.3 135.9 293.3 130.8 278.3"/><line class="cls-2" x1="86.8" y1="378.5" x2="86.8" y2="370.3"/><path class="cls-3" d="M83.2,378.9c0,1.8-.8,2.8-2.2,2.8-1.2,0-2-1-2.1-2.7s.9-2.7,2.2-2.7S83.2,377.2,83.2,378.9Zm-3.4,0c0,1.4.5,2.1,1.3,2.1s1.3-.9,1.3-2.2-.4-2.1-1.3-2.1S79.8,377.5,79.8,378.9Z" transform="translate(0 0)"/><path class="cls-3" d="M74.2,327v-.4l.7-.5c1.6-1.3,2.3-2,2.3-2.8,0-.5-.3-1-1.2-1a2.11,2.11,0,0,0-1.3.5l-.3-.5a2.73,2.73,0,0,1,1.8-.5c1.3,0,1.9.8,1.9,1.5,0,1-.8,1.8-2.2,2.8l-.5.4h2.8v.6Z" transform="translate(0 0)"/><path class="cls-3" d="M83.2,324.3c0,1.8-.8,2.8-2.2,2.8-1.2,0-2-1-2.1-2.7s.9-2.7,2.2-2.7S83.2,322.6,83.2,324.3Zm-3.4.1c0,1.4.5,2.1,1.3,2.1s1.3-.9,1.3-2.2-.4-2.1-1.3-2.1-1.3.7-1.3,2.2Z" transform="translate(0 0)"/><path class="cls-3" d="M76.8,272.4V271H73.9v-.5l2.8-3.4h.9v3.3h.9v.6h-.9v1.4Zm0-2v-2.6h0c-.2.3-.3.5-.5.8l-1.5,1.8h2Z" transform="translate(0 0)"/><path class="cls-3" d="M83.2,269.7c0,1.8-.8,2.8-2.2,2.8-1.2,0-2-1-2.1-2.7s.9-2.7,2.2-2.7S83.2,268,83.2,269.7Zm-3.4.1c0,1.4.5,2.1,1.3,2.1s1.3-.9,1.3-2.2-.4-2.1-1.3-2.1-1.3.7-1.3,2.2Z" transform="translate(0 0)"/><path class="cls-3" d="M77.7,213h-.6a2.35,2.35,0,0,0-2.2,1.9h0a2,2,0,0,1,1.5-.6,1.77,1.77,0,0,1,1.9,1.5v.2a1.92,1.92,0,0,1-2,1.9h-.1a2.05,2.05,0,0,1-2.2-2v-.3a3.19,3.19,0,0,1,1.1-2.4,3.86,3.86,0,0,1,2-.8h.6Zm-.2,3.1a1.2,1.2,0,0,0-1.1-1.2h-.2a1.43,1.43,0,0,0-1.2.6.37.37,0,0,0-.1.3,1.42,1.42,0,0,0,1.2,1.5h.2a1.13,1.13,0,0,0,1.2-1.1Z" transform="translate(0 0)"/><path class="cls-3" d="M83.2,215.1c0,1.8-.8,2.8-2.2,2.8-1.2,0-2-1-2.1-2.7s.9-2.7,2.2-2.7S83.2,213.4,83.2,215.1Zm-3.4.1c0,1.4.5,2.1,1.3,2.1s1.3-.9,1.3-2.2S82,213,81.1,213,79.8,213.7,79.8,215.2Z" transform="translate(0 0)"/><path class="cls-3" d="M74.1,161.9c0-.7.5-1.1,1.2-1.4h0a1.19,1.19,0,0,1-1-1.2c0-.8.8-1.4,1.9-1.4s1.8.6,1.8,1.3a1.43,1.43,0,0,1-1,1.2h0c.8.3,1.3.7,1.3,1.4,0,.9-.9,1.5-2.1,1.5S74.1,162.6,74.1,161.9Zm3.3,0c0-.6-.5-.9-1.4-1.1-.7.2-1.1.6-1.1,1.1a1.06,1.06,0,0,0,1.2,1c.8,0,1.3-.5,1.3-1Zm-2.3-2.7c0,.5.5.8,1.2,1,.5-.2,1-.5,1-1s-.3-.9-1.1-.9-1.1.4-1.1.9Z" transform="translate(0 0)"/><path class="cls-3" d="M83.2,160.5c0,1.8-.8,2.8-2.2,2.8-1.2,0-2-1-2.1-2.7s.9-2.7,2.2-2.7S83.2,158.8,83.2,160.5Zm-3.4.1c0,1.4.5,2.1,1.3,2.1s1.3-.9,1.3-2.2-.4-2.1-1.3-2.1S79.8,159.1,79.8,160.6Z" transform="translate(0 0)"/><path class="cls-3" d="M71.1,104h0l-1.1.5-.2-.6,1.3-.6h.7v5.3H71l.1-4.6Z" transform="translate(0 0)"/><path class="cls-3" d="M78.3,105.9c0,1.8-.8,2.8-2.2,2.8-1.2,0-2.1-1-2.1-2.7s.9-2.7,2.2-2.7S78.3,104.2,78.3,105.9Zm-3.4.1c0,1.4.5,2.2,1.3,2.2s1.3-.8,1.3-2.2-.4-2.2-1.3-2.2S74.9,104.5,74.9,106Z" transform="translate(0 0)"/><path class="cls-3" d="M83.2,105.9c0,1.8-.8,2.8-2.2,2.8-1.2,0-2-1-2.1-2.7s.9-2.7,2.2-2.7S83.2,104.2,83.2,105.9Zm-3.4.1c0,1.4.5,2.2,1.3,2.2s1.3-.8,1.3-2.2-.4-2.2-1.3-2.2S79.8,104.5,79.8,106Z" transform="translate(0 0)"/><path class="cls-3" d="M71.1,49.4h0l-1.1.5-.2-.6,1.4-.6h.7V54h-.8Z" transform="translate(0 0)"/><path class="cls-3" d="M74.2,54v-.4l.7-.5c1.6-1.3,2.3-2,2.3-2.8,0-.5-.3-1-1.2-1a2.11,2.11,0,0,0-1.3.5l-.3-.5a3.45,3.45,0,0,1,1.8-.5c1.3,0,1.9.8,1.9,1.5,0,1-.8,1.8-2.2,2.8l-.5.4h2.8V54Z" transform="translate(0 0)"/><path class="cls-3" d="M83.2,51.3c0,1.8-.8,2.8-2.2,2.8-1.2,0-2-1-2.1-2.7s.9-2.7,2.2-2.7S83.2,49.6,83.2,51.3Zm-3.4.1c0,1.4.5,2.2,1.3,2.2s1.3-.8,1.3-2.2-.4-2.2-1.3-2.2S79.8,50,79.8,51.4Z" transform="translate(0 0)"/><line class="cls-4" x1="86.8" y1="378.5" x2="86.8" y2="51"/><line class="cls-4" x1="86.8" y1="378.5" x2="91.9" y2="378.5"/><line class="cls-4" x1="86.8" y1="323.9" x2="91.9" y2="323.9"/><line class="cls-4" x1="86.8" y1="269.3" x2="91.9" y2="269.3"/><line class="cls-4" x1="86.8" y1="214.7" x2="91.9" y2="214.7"/><line class="cls-4" x1="86.8" y1="160.1" x2="91.9" y2="160.1"/><line class="cls-4" x1="86.8" y1="105.6" x2="91.9" y2="105.6"/><line class="cls-4" x1="86.8" y1="51" x2="91.9" y2="51"/><path class="cls-5" d="M258.5,76.7s-10.1,9.3-10.1,26.1V367.1s1.7,4,8.4,4.3h6s4.9-.5,6.6-4.8V103.2s-.4-20.5-8.6-26.5A4.48,4.48,0,0,0,258.5,76.7Z" transform="translate(0 0)"/><path class="cls-6" d="M241.6,231.6a17.4,17.4,0,0,0-5.9,12.9v131s1,2,4.9,2.1h3.5s2.9-.3,3.9-2.4V244.7s-.2-10.2-5-13.1A3.3,3.3,0,0,0,241.6,231.6Z" transform="translate(0 0)"/><path class="cls-6" d="M276,231.7a17.45,17.45,0,0,1,5.9,13v131s-1,2-4.9,2.1h-3.5s-2.9-.3-3.8-2.4V244.8s.2-10.2,5-13.1A2.85,2.85,0,0,1,276,231.7Z" transform="translate(0 0)"/><rect class="cls-6" x="248" y="160.6" width="21.9" height="189.7"/><path class="cls-6" d="M262.1,371.4l-.9,6.2,5.9.1-.8-7.6A18.7,18.7,0,0,1,262.1,371.4Z" transform="translate(0 0)"/><path class="cls-6" d="M255.3,371.4l.9,6.2-5.9.1.8-7.6A18.7,18.7,0,0,0,255.3,371.4Z" transform="translate(0 0)"/><path class="cls-6" d="M235.8,375.5v3.4H248v-3.5C248,375.3,243.3,380.1,235.8,375.5Z" transform="translate(0 0)"/><path class="cls-6" d="M269.5,376v3.4h12.6v-3.6C282.1,375.7,277.3,380.6,269.5,376Z" transform="translate(0 0)"/><polygon class="cls-7" points="187.3 207.8 202.5 207.8 202.5 150.4 199.4 125.6 191.6 125.6 187.3 150.4 187.3 207.8"/><polygon class="cls-6" points="187.3 207.8 185.2 238.6 205.1 238.6 202.5 207.8 187.3 207.8"/><path class="cls-6" d="M172.4,371.1s7.1,4.5,44.5.9l-3-9.5H175.6Z" transform="translate(0 0)"/><line class="cls-4" x1="185.2" y1="252" x2="205.1" y2="252"/><ellipse class="cls-6" cx="195.3" cy="251.6" rx="10.1" ry="11.4"/><ellipse class="cls-6" cx="195.3" cy="310.2" rx="13.9" ry="12.2"/><polygon class="cls-6" points="185.2 252 205.1 252 208.3 295 181.3 295 185.2 252"/><polygon class="cls-6" points="181.3 312.5 209.4 312.5 213.8 362.5 175.6 362.5 181.3 312.5"/><line class="cls-7" x1="185.2" y1="238.6" x2="184.9" y2="254.6"/><line class="cls-7" x1="205.1" y1="238.6" x2="205.5" y2="256.7"/><line class="cls-7" x1="181.3" y1="295" x2="180.9" y2="316"/><line class="cls-7" x1="208.3" y1="295" x2="209.7" y2="316"/><line class="cls-7" x1="187.3" y1="185.4" x2="202.5" y2="185.4"/><line class="cls-7" x1="195.1" y1="91.9" x2="195.1" y2="121.4"/><path class="cls-6" d="M194.4,117.2a1.83,1.83,0,0,0,2.1,0l2.9,8.4h-7.7Z" transform="translate(0 0)"/><rect class="cls-6" x="194.4" y="98.6" width="1.7" height="18.5"/><path class="cls-6" d="M317.1,54.7S307,64.8,307,83.1V370.4s1.7,4.4,8.4,4.7h6s4.9-.6,6.6-5.2V83.5s-.4-22.3-8.6-28.8A3.05,3.05,0,0,0,317.1,54.7Z" transform="translate(0 0)"/><polygon class="cls-6" points="307 142.3 294.3 177.9 294.3 193.9 307 193.9 307 142.3"/><polygon class="cls-6" points="328.5 142.1 341.2 177.7 341.2 193.7 328.5 193.7 328.5 142.1"/><polygon class="cls-6" points="307 350.3 296.9 367.9 296.9 375.1 307 370.4 307 350.3"/><polygon class="cls-6" points="312 356.1 312 378.3 308.9 381.4 307 375.1 312 356.1"/><polygon class="cls-6" points="323.2 356.1 323.2 377.8 328.1 382 327.4 371.3 323.2 356.1"/><polygon class="cls-6" points="328.1 350.3 339 368.8 339 375.1 327.4 371.3 328.1 350.3"/><path class="cls-6" d="M311.5,63.1,296,85.6V93l11,2.3C307,95.2,305.9,71.8,311.5,63.1Z" transform="translate(0 0)"/><path class="cls-6" d="M325.1,64.3,339,83.9v8.4l-11,2.9S328.9,72.6,325.1,64.3Z" transform="translate(0 0)"/><path class="cls-7" d="M307.4,79.2s5.8,1.2,20.4,0" transform="translate(0 0)"/><path class="cls-7" d="M306.7,83.3s5.8,1.2,20.4,0" transform="translate(0 0)"/><path class="cls-7" d="M306.7,87.5s5.8,1.2,20.4,0" transform="translate(0 0)"/><path class="cls-7" d="M307.6,90.9s5.8,1.2,20.4,0" transform="translate(0 0)"/><path class="cls-7" d="M307.6,94.3s5.8,1.2,20.4,0" transform="translate(0 0)"/><ellipse class="cls-6" cx="307.8" cy="215.8" rx="3.4" ry="10.5"/><ellipse class="cls-6" cx="327.2" cy="215" rx="3.4" ry="10.5"/><polygon class="cls-6" points="186 373.3 185 378.1 190.2 378.1 189.6 373.3 186 373.3"/><polygon class="cls-6" points="192.9 373.3 191.9 378.1 197.1 378.1 196.5 373.3 192.9 373.3"/><polygon class="cls-6" points="199.6 373.3 198.7 378.1 203.9 378.1 203.2 373.3 199.6 373.3"/><g class="cls-8"><path class="cls-9" d="M117.2,389h1.2v7.6h4.4v1h-5.5V389Z" transform="translate(0 0)"/><path class="cls-9" d="M127.1,393.8a.55.55,0,0,0,.5-.3c0-.1.1-.2.1-.4a.81.81,0,0,0-.4-.8,1.82,1.82,0,0,0-1.1-.2,1.46,1.46,0,0,0-1.2.4,4.88,4.88,0,0,0-.3.7h-1a1.7,1.7,0,0,1,.8-1.6,3.1,3.1,0,0,1,1.7-.5,3.42,3.42,0,0,1,1.8.4,1.36,1.36,0,0,1,.7,1.3v3.6a.37.37,0,0,0,.1.3c.1.1.1.1.3.1h.4v.8c-.2,0-.3.1-.4.1h-.4a.81.81,0,0,1-.8-.4c-.1-.1-.1-.3-.2-.6a2.18,2.18,0,0,1-.9.7,2.77,2.77,0,0,1-1.3.3,1.88,1.88,0,0,1-2-1.8,2.17,2.17,0,0,1,.5-1.4,2,2,0,0,1,1.4-.6Zm-2.2,2.9a1.14,1.14,0,0,0,.8.3,2.28,2.28,0,0,0,1.1-.3,1.51,1.51,0,0,0,.9-1.4v-.8a.76.76,0,0,1-.5.2c-.2,0-.4.1-.6.1l-.6.1a6.37,6.37,0,0,0-.9.2,1.05,1.05,0,0,0-.5.9A1.08,1.08,0,0,0,124.9,396.7Z" transform="translate(0 0)"/><path class="cls-9" d="M130.5,391.3h1v1.1a3.28,3.28,0,0,1,.6-.8,1.61,1.61,0,0,1,1.1-.5h.3v1.1h-.4a1.66,1.66,0,0,0-1.2.5,1.59,1.59,0,0,0-.4,1.2v3.6h-1.1v-6.2Z" transform="translate(0 0)"/><path class="cls-9" d="M137.9,391.6a1.7,1.7,0,0,1,.6.6v-.8h1v5.7a3.58,3.58,0,0,1-.4,1.9,2.47,2.47,0,0,1-2.5,1.3,3.1,3.1,0,0,1-1.7-.5,1.84,1.84,0,0,1-.8-1.4h1.1a4.88,4.88,0,0,0,.3.7,1.81,1.81,0,0,0,2.7-.5,6.25,6.25,0,0,0,.2-1.8,1.78,1.78,0,0,1-.8.7,3.73,3.73,0,0,1-1.2.2,2.41,2.41,0,0,1-1.8-.7,3.29,3.29,0,0,1-.8-2.4,3.74,3.74,0,0,1,.8-2.5,2.32,2.32,0,0,1,1.9-.9A1.81,1.81,0,0,1,137.9,391.6Zm.2,1.1a1.43,1.43,0,0,0-1.2-.6,1.5,1.5,0,0,0-1.5,1,6.05,6.05,0,0,0-.2,1.5,2.54,2.54,0,0,0,.4,1.6,1.43,1.43,0,0,0,1.2.6,1.54,1.54,0,0,0,1.6-1,2.9,2.9,0,0,0,.3-1.4A3.78,3.78,0,0,0,138.1,392.7Z" transform="translate(0 0)"/><path class="cls-9" d="M144.5,393.8a.55.55,0,0,0,.5-.3c0-.1.1-.2.1-.4a.81.81,0,0,0-.4-.8,1.82,1.82,0,0,0-1.1-.2,1.46,1.46,0,0,0-1.2.4,4.88,4.88,0,0,0-.3.7h-1a1.7,1.7,0,0,1,.8-1.6,3.1,3.1,0,0,1,1.7-.5,3.42,3.42,0,0,1,1.8.4,1.36,1.36,0,0,1,.7,1.3v3.6a.37.37,0,0,0,.1.3c.1.1.1.1.3.1h.4v.8c-.2,0-.3.1-.4.1h-.4a.81.81,0,0,1-.8-.4c-.1-.1-.1-.3-.2-.6a2.18,2.18,0,0,1-.9.7,2.77,2.77,0,0,1-1.3.3,1.88,1.88,0,0,1-2-1.8,2.17,2.17,0,0,1,.5-1.4,2,2,0,0,1,1.4-.6Zm-2.2,2.9a1.14,1.14,0,0,0,.8.3,2.28,2.28,0,0,0,1.1-.3,1.51,1.51,0,0,0,.9-1.4v-.8a.76.76,0,0,1-.5.2c-.2,0-.4.1-.6.1l-.6.1a6.37,6.37,0,0,0-.9.2,1.05,1.05,0,0,0-.5.9A.59.59,0,0,0,142.3,396.7Z" transform="translate(0 0)"/></g><g class="cls-8"><path class="cls-9" d="M109.2,403.4h1.7l2.5,7.3,2.5-7.3h1.7V412h-1.1v-7.3L114,412h-1.2l-2.5-7.3v7.4h-1.1Z" transform="translate(0 0)"/><path class="cls-9" d="M122.5,408.2a.55.55,0,0,0,.5-.3c0-.1.1-.2.1-.4a.81.81,0,0,0-.4-.8,1.82,1.82,0,0,0-1.1-.2,1.46,1.46,0,0,0-1.2.4,4.88,4.88,0,0,0-.3.7h-1a1.7,1.7,0,0,1,.8-1.6,3.1,3.1,0,0,1,1.7-.5,3.42,3.42,0,0,1,1.8.4,1.36,1.36,0,0,1,.7,1.3v3.6a.37.37,0,0,0,.1.3c.1.1.1.1.3.1h.4v.8c-.2,0-.3.1-.4.1h-.4a.81.81,0,0,1-.8-.4c-.1-.1-.1-.3-.2-.6a2.18,2.18,0,0,1-.9.7,2.77,2.77,0,0,1-1.3.3,1.88,1.88,0,0,1-2-1.8,2.17,2.17,0,0,1,.5-1.4,2,2,0,0,1,1.4-.6Zm-2.3,2.9a1.14,1.14,0,0,0,.8.3,2.28,2.28,0,0,0,1.1-.3,1.51,1.51,0,0,0,.9-1.4v-.8a.76.76,0,0,1-.5.2c-.2,0-.4.1-.6.1l-.6.1a6.37,6.37,0,0,0-.9.2,1.05,1.05,0,0,0-.5.9A1.08,1.08,0,0,0,120.2,411.1Z" transform="translate(0 0)"/><path class="cls-9" d="M125.8,405.7h1v1.1a3.28,3.28,0,0,1,.6-.8,1.61,1.61,0,0,1,1.1-.5h.3v1.1h-.4a1.66,1.66,0,0,0-1.2.5,1.59,1.59,0,0,0-.4,1.2v3.6h-1.1v-6.2Z" transform="translate(0 0)"/><path class="cls-9" d="M133.9,406.1a2.53,2.53,0,0,1,.8,1.8h-1a3,3,0,0,0-.4-1,1.25,1.25,0,0,0-1.1-.4,1.31,1.31,0,0,0-1.4,1,3.81,3.81,0,0,0-.3,1.6,2.73,2.73,0,0,0,.4,1.6,1.49,1.49,0,0,0,1.3.6,1.16,1.16,0,0,0,1-.4,2.81,2.81,0,0,0,.5-1.1h1a2.61,2.61,0,0,1-.9,1.8,2.79,2.79,0,0,1-1.8.6,2.52,2.52,0,0,1-2-.9,3.23,3.23,0,0,1-.7-2.2,4,4,0,0,1,.8-2.6,2.52,2.52,0,0,1,2-.9A2.43,2.43,0,0,1,133.9,406.1Z" transform="translate(0 0)"/><path class="cls-9" d="M135.8,403.4h1.1v3.2a4.62,4.62,0,0,1,.7-.7,2.5,2.5,0,0,1,1.3-.3,2,2,0,0,1,1.9,1,2.65,2.65,0,0,1,.3,1.4v4H140v-4a2.15,2.15,0,0,0-.2-1,1.29,1.29,0,0,0-1.1-.5,2.08,2.08,0,0,0-1.2.5c-.4.3-.5.9-.5,1.7V412h-1.1v-8.6Z" transform="translate(0 0)"/><path class="cls-9" d="M145.8,408.2a.55.55,0,0,0,.5-.3c0-.1.1-.2.1-.4a.81.81,0,0,0-.4-.8,1.82,1.82,0,0,0-1.1-.2,1.46,1.46,0,0,0-1.2.4,4.88,4.88,0,0,0-.3.7h-1a1.7,1.7,0,0,1,.8-1.6,3.1,3.1,0,0,1,1.7-.5,3.42,3.42,0,0,1,1.8.4,1.36,1.36,0,0,1,.7,1.3v3.6a.37.37,0,0,0,.1.3c.1.1.1.1.3.1h.4v.8c-.2,0-.3.1-.4.1h-.4a.81.81,0,0,1-.8-.4c-.1-.1-.1-.3-.2-.6a2.18,2.18,0,0,1-.9.7,2.77,2.77,0,0,1-1.3.3,1.88,1.88,0,0,1-2-1.8,2.17,2.17,0,0,1,.5-1.4,2,2,0,0,1,1.4-.6Zm-2.2,2.9a1.14,1.14,0,0,0,.8.3,2.28,2.28,0,0,0,1.1-.3,1.51,1.51,0,0,0,.9-1.4v-.8a.76.76,0,0,1-.5.2c-.2,0-.4.1-.6.1l-.6.1a6.37,6.37,0,0,0-.9.2,1.05,1.05,0,0,0-.5.9C143.2,410.6,143.4,410.9,143.6,411.1Z" transform="translate(0 0)"/><path class="cls-9" d="M153.3,410a1.27,1.27,0,0,0,.7,1.2,1.85,1.85,0,0,0,.7.2,1.76,1.76,0,0,0,1.3-.6,5.24,5.24,0,0,0,.8-2.6,1.76,1.76,0,0,1-.9.8,2.15,2.15,0,0,1-1.1.2,2.56,2.56,0,0,1-1.9-.8,2.64,2.64,0,0,1-.7-1.9,2.88,2.88,0,0,1,.7-2,2.58,2.58,0,0,1,2.1-.9,2.5,2.5,0,0,1,2.5,1.7,5.27,5.27,0,0,1,.4,2.3,7.63,7.63,0,0,1-.5,2.7,2.73,2.73,0,0,1-2.6,2,2.88,2.88,0,0,1-1.9-.6,1.91,1.91,0,0,1-.6-1.6h1Zm2.7-2.1a2.21,2.21,0,0,0,0-2.8,1.69,1.69,0,0,0-2.4,0,2,2,0,0,0-.5,1.4,1.84,1.84,0,0,0,.4,1.3,1.73,1.73,0,0,0,1.3.5A2.14,2.14,0,0,0,156,407.9Z" transform="translate(0 0)"/></g><g class="cls-8"><path class="cls-9" d="M121.8,90.7a3.21,3.21,0,0,1,1,2h-1.1a2,2,0,0,0-.8-1.3,2.54,2.54,0,0,0-1.6-.5,2.88,2.88,0,0,0-2.1.9,3.65,3.65,0,0,0-.8,2.7,4.09,4.09,0,0,0,.7,2.5,2.32,2.32,0,0,0,2.1.9,2.22,2.22,0,0,0,2-1,3.75,3.75,0,0,0,.5-1.4h1.1a3.6,3.6,0,0,1-3.8,3.4,3.66,3.66,0,0,1-2.5-.9,4.64,4.64,0,0,1-1.3-3.7,4.45,4.45,0,0,1,1-3.1,3.54,3.54,0,0,1,3-1.3A3.16,3.16,0,0,1,121.8,90.7Z" transform="translate(0 0)"/><path class="cls-9" d="M124.2,90h1.1v3.2a4.62,4.62,0,0,1,.7-.7,2.5,2.5,0,0,1,1.3-.3,2,2,0,0,1,1.9,1,2.65,2.65,0,0,1,.3,1.4v4h-1.1v-4a2.15,2.15,0,0,0-.2-1,1.29,1.29,0,0,0-1.1-.5,2.08,2.08,0,0,0-1.2.5c-.4.3-.5.9-.5,1.7v3.3h-1.1V90Z" transform="translate(0 0)"/><path class="cls-9" d="M130.8,90h1.1v1.2h-1.1Zm0,2.4h1.1v6.2h-1.1Z" transform="translate(0 0)"/><path class="cls-9" d="M133.5,92.4h1v.9a3.24,3.24,0,0,1,.9-.8,2,2,0,0,1,1.1-.2,1.81,1.81,0,0,1,1.8.9,2.81,2.81,0,0,1,.3,1.5v4h-1.1v-4a2,2,0,0,0-.2-.9,1,1,0,0,0-1-.6c-.2,0-.5,0-.6.1a3.51,3.51,0,0,0-.8.5.86.86,0,0,0-.3.6c0,.2-.1.5-.1.9v3.3h-1.1V92.4Z" transform="translate(0 0)"/><path class="cls-9" d="M143.5,94.8a.55.55,0,0,0,.5-.3c0-.1.1-.2.1-.4a.81.81,0,0,0-.4-.8,1.82,1.82,0,0,0-1.1-.2,1.46,1.46,0,0,0-1.2.4,4.88,4.88,0,0,0-.3.7h-1a1.7,1.7,0,0,1,.8-1.6,3.1,3.1,0,0,1,1.7-.5,3.42,3.42,0,0,1,1.8.4,1.36,1.36,0,0,1,.7,1.3v3.6a.37.37,0,0,0,.1.3c.1.1.1.1.3.1h.4v.8c-.2,0-.3.1-.4.1h-.4a.81.81,0,0,1-.8-.4c-.1-.1-.1-.3-.2-.6a2.18,2.18,0,0,1-.9.7,2.77,2.77,0,0,1-1.3.3,1.88,1.88,0,0,1-2-1.8,2.17,2.17,0,0,1,.5-1.4,2,2,0,0,1,1.4-.6Zm-2.2,2.9a1.14,1.14,0,0,0,.8.3,2.28,2.28,0,0,0,1.1-.3,1.51,1.51,0,0,0,.9-1.4v-.8a.76.76,0,0,1-.5.2c-.2,0-.4.1-.6.1l-.6.1a6.37,6.37,0,0,0-.9.2,1.05,1.05,0,0,0-.5.9A.91.91,0,0,0,141.3,97.7Z" transform="translate(0 0)"/></g><g class="cls-8"><path class="cls-9" d="M118.6,111a1.27,1.27,0,0,0,.7,1.2,1.85,1.85,0,0,0,.7.2,1.76,1.76,0,0,0,1.3-.6,5.24,5.24,0,0,0,.8-2.6,1.76,1.76,0,0,1-.9.8,2.15,2.15,0,0,1-1.1.2,2.56,2.56,0,0,1-1.9-.8,2.64,2.64,0,0,1-.7-1.9,2.88,2.88,0,0,1,.7-2,2.58,2.58,0,0,1,2.1-.9,2.5,2.5,0,0,1,2.5,1.7,5.27,5.27,0,0,1,.4,2.3,7.63,7.63,0,0,1-.5,2.7,2.73,2.73,0,0,1-2.6,2,2.88,2.88,0,0,1-1.9-.6,1.91,1.91,0,0,1-.6-1.6h1Zm2.8-2.1a2.21,2.21,0,0,0,0-2.8,1.69,1.69,0,0,0-2.4,0,2,2,0,0,0-.5,1.4,1.84,1.84,0,0,0,.4,1.3,1.73,1.73,0,0,0,1.3.5A2.84,2.84,0,0,0,121.4,108.9Z" transform="translate(0 0)"/><path class="cls-9" d="M124.6,112.4a3.22,3.22,0,0,1-.7-2H125a2.13,2.13,0,0,0,.3,1.2,1.81,1.81,0,0,0,1.5.7,1.7,1.7,0,0,0,1.3-.4,1.61,1.61,0,0,0,.5-1.1,1.36,1.36,0,0,0-.5-1.2,2.81,2.81,0,0,0-1.5-.3h-.4v-.9h.5a3,3,0,0,0,1-.2,1.41,1.41,0,0,0,.3-2.2,1.21,1.21,0,0,0-1-.3,1.58,1.58,0,0,0-1.5.7,8.11,8.11,0,0,0-.3,1.1h-1a2.73,2.73,0,0,1,.4-1.6,2.36,2.36,0,0,1,2.3-1.2,3,3,0,0,1,2,.6,1.94,1.94,0,0,1,.7,1.7,2,2,0,0,1-.4,1.3,1.79,1.79,0,0,1-.7.5,1.83,1.83,0,0,1,1,.7,2.5,2.5,0,0,1,.4,1.3,2.79,2.79,0,0,1-.8,2,3.11,3.11,0,0,1-2.2.8A4.18,4.18,0,0,1,124.6,112.4Z" transform="translate(0 0)"/><path class="cls-9" d="M134.5,106.8h1v.9a4.62,4.62,0,0,1,.7-.7,2.14,2.14,0,0,1,1.2-.4,1.59,1.59,0,0,1,1.2.4c.2.1.3.3.5.6a1.78,1.78,0,0,1,.8-.7,3.59,3.59,0,0,1,1.1-.2,1.75,1.75,0,0,1,1.7.9,2.55,2.55,0,0,1,.2,1.3v4.2h-1.1v-4.4a1.22,1.22,0,0,0-.3-.9,1.08,1.08,0,0,0-.8-.2,1.5,1.5,0,0,0-1.1.4,1.81,1.81,0,0,0-.4,1.4v3.7h-1.1V109a2,2,0,0,0-.2-.9,1,1,0,0,0-.9-.4,1.61,1.61,0,0,0-1.1.5,2.46,2.46,0,0,0-.5,1.7v3.3h-1.1v-6.4Z" transform="translate(0 0)"/></g><path class="cls-10" d="M190.4,396.5h1.4l4.3,7v-7h1.1v8.6h-1.3l-4.4-7v7h-1.1Z" transform="translate(0 0)"/><path class="cls-10" d="M199.3,399.2v-.8a4,4,0,0,0,1.6-.4,2.23,2.23,0,0,0,.7-1.2h.8v8.4h-1.1v-5.9h-2Z" transform="translate(0 0)"/><g class="cls-8"><path class="cls-10" d="M177.4,56.6v5.3a2.93,2.93,0,0,0,.4,1.6,1.81,1.81,0,0,0,1.8.9c1,0,1.7-.3,2-1a3.34,3.34,0,0,0,.3-1.5V56.6h1.2v4.8a4.94,4.94,0,0,1-.4,2.4,3.08,3.08,0,0,1-3,1.6,3,3,0,0,1-3-1.6,5.46,5.46,0,0,1-.4-2.4V56.6Z" transform="translate(0 0)"/><path class="cls-10" d="M185,56.6h4a3.51,3.51,0,0,1,1.6.3,2,2,0,0,1,1.2,2,2.77,2.77,0,0,1-.3,1.3,1.76,1.76,0,0,1-.9.8,2.18,2.18,0,0,1,.8.5,1.61,1.61,0,0,1,.3,1.1v1.2c0,.3,0,.6.1.7a.7.7,0,0,0,.4.5v.2h-1.4c0-.1-.1-.2-.1-.3a2.64,2.64,0,0,0-.1-.7l-.1-1.4a1.06,1.06,0,0,0-.6-1.1,2.51,2.51,0,0,0-1-.2h-2.7v3.7H185Zm3.8,4a2.5,2.5,0,0,0,1.3-.3,1.62,1.62,0,0,0-.2-2.5,2.51,2.51,0,0,0-1-.2h-2.8v2.9h2.7Z" transform="translate(0 0)"/><path class="cls-10" d="M194.3,62.5a2.13,2.13,0,0,0,.3,1.2,2.26,2.26,0,0,0,2,.9,5,5,0,0,0,1.2-.2,1.27,1.27,0,0,0,1-1.3,1.05,1.05,0,0,0-.4-1,3.75,3.75,0,0,0-1.4-.5l-1.2-.3a5.35,5.35,0,0,1-1.6-.6,1.94,1.94,0,0,1-.8-1.6,2.56,2.56,0,0,1,.8-1.9,3.17,3.17,0,0,1,2.3-.7,3.51,3.51,0,0,1,2.3.7,2.45,2.45,0,0,1,.9,2.1h-1.1a2.82,2.82,0,0,0-.4-1.1,2.48,2.48,0,0,0-1.8-.7,2.08,2.08,0,0,0-1.5.4,1.39,1.39,0,0,0-.5,1,1.05,1.05,0,0,0,.5.9,10.42,10.42,0,0,0,1.6.5l1.2.3a3.2,3.2,0,0,1,1.3.5,2.2,2.2,0,0,1,.8,1.8,2,2,0,0,1-1,2,4.75,4.75,0,0,1-2.4.6,3.74,3.74,0,0,1-2.5-.8,2.79,2.79,0,0,1-.9-2.2Z" transform="translate(0 0)"/><path class="cls-10" d="M202.3,62.5a2.13,2.13,0,0,0,.3,1.2,2.26,2.26,0,0,0,2,.9,5,5,0,0,0,1.2-.2,1.27,1.27,0,0,0,1-1.3,1.05,1.05,0,0,0-.4-1,3.75,3.75,0,0,0-1.4-.5l-1.2-.3a5.35,5.35,0,0,1-1.6-.6,1.94,1.94,0,0,1-.8-1.6,2.56,2.56,0,0,1,.8-1.9,3.17,3.17,0,0,1,2.3-.7,3.51,3.51,0,0,1,2.3.7,2.45,2.45,0,0,1,.9,2.1h-1.1a2.82,2.82,0,0,0-.4-1.1,2.48,2.48,0,0,0-1.8-.7,2.08,2.08,0,0,0-1.5.4,1.39,1.39,0,0,0-.5,1,1.05,1.05,0,0,0,.5.9,10.42,10.42,0,0,0,1.6.5l1.2.3a3.2,3.2,0,0,1,1.3.5,2.2,2.2,0,0,1,.8,1.8,2,2,0,0,1-1,2,4.75,4.75,0,0,1-2.4.6,3.74,3.74,0,0,1-2.5-.8,2.79,2.79,0,0,1-.9-2.2Z" transform="translate(0 0)"/></g><g class="cls-8"><path class="cls-10" d="M176.4,73.7v-.8a4,4,0,0,0,1.6-.4,2.23,2.23,0,0,0,.7-1.2h.8v8.4h-1.1V73.8h-2Z" transform="translate(0 0)"/><path class="cls-10" d="M187.5,72.6a5.55,5.55,0,0,1,.6,2.8,7.39,7.39,0,0,1-.5,2.8,2.45,2.45,0,0,1-2.4,1.6,2.22,2.22,0,0,1-2.2-1.3,6,6,0,0,1-.6-2.9,6.25,6.25,0,0,1,.4-2.5,2.52,2.52,0,0,1,2.5-1.9A2.4,2.4,0,0,1,187.5,72.6Zm-1,5.6a5.57,5.57,0,0,0,.5-2.7,5.75,5.75,0,0,0-.4-2.4,1.3,1.3,0,0,0-1.4-.9,1.51,1.51,0,0,0-1.4.9,5.88,5.88,0,0,0-.4,2.6,6.23,6.23,0,0,0,.3,2.1c.3.8.8,1.2,1.4,1.2A2,2,0,0,0,186.5,78.2Z" transform="translate(0 0)"/><path class="cls-10" d="M190.1,77.5a1.35,1.35,0,0,0,.8,1.2,2,2,0,0,0,.9.2,1.68,1.68,0,0,0,1.4-.6,2.11,2.11,0,0,0,.5-1.3,2.17,2.17,0,0,0-.5-1.4,1.54,1.54,0,0,0-1.3-.5,2,2,0,0,0-.9.2,1.87,1.87,0,0,0-.7.6l-.9-.1.6-4.5h4.4v1h-3.6l-.4,2.3c.2-.1.4-.3.6-.3a3.59,3.59,0,0,1,1.1-.2,2.88,2.88,0,0,1,2,.7,2.24,2.24,0,0,1,.8,1.9,3.14,3.14,0,0,1-.7,2.1,2.87,2.87,0,0,1-2.3.9,2.79,2.79,0,0,1-1.8-.6,2.61,2.61,0,0,1-.9-1.8h.9Z" transform="translate(0 0)"/><path class="cls-10" d="M199.4,73.4h1v.9a4.62,4.62,0,0,1,.7-.7,2.14,2.14,0,0,1,1.2-.4,1.59,1.59,0,0,1,1.2.4c.2.1.3.3.5.6a1.78,1.78,0,0,1,.8-.7,3.59,3.59,0,0,1,1.1-.2,1.75,1.75,0,0,1,1.7.9,2.55,2.55,0,0,1,.2,1.3v4.2h-1.1V75.3a1.22,1.22,0,0,0-.3-.9,1.08,1.08,0,0,0-.8-.2,1.5,1.5,0,0,0-1.1.4,1.81,1.81,0,0,0-.4,1.4v3.7H203V75.6a2,2,0,0,0-.2-.9,1,1,0,0,0-.9-.4,1.61,1.61,0,0,0-1.1.5,2.46,2.46,0,0,0-.5,1.7v3.3h-1.1V73.4Z" transform="translate(0 0)"/></g><g class="cls-8"><path class="cls-10" d="M249.3,395.5a2.13,2.13,0,0,0,.3,1.2,2.26,2.26,0,0,0,2,.9,5,5,0,0,0,1.2-.2,1.27,1.27,0,0,0,1-1.3,1.05,1.05,0,0,0-.4-1,3.75,3.75,0,0,0-1.4-.5l-1.2-.3a5.35,5.35,0,0,1-1.6-.6,1.94,1.94,0,0,1-.8-1.6,2.56,2.56,0,0,1,.8-1.9,3.17,3.17,0,0,1,2.3-.7,3.51,3.51,0,0,1,2.3.7,2.45,2.45,0,0,1,.9,2.1h-1.1a2.82,2.82,0,0,0-.4-1.1,2.48,2.48,0,0,0-1.8-.7,2.08,2.08,0,0,0-1.5.4,1.39,1.39,0,0,0-.5,1,1.05,1.05,0,0,0,.5.9,10.42,10.42,0,0,0,1.6.5l1.2.3a3.2,3.2,0,0,1,1.3.5,2.2,2.2,0,0,1,.8,1.8,2,2,0,0,1-1,2,4.75,4.75,0,0,1-2.4.6,3.74,3.74,0,0,1-2.5-.8,2.79,2.79,0,0,1-.9-2.2Z" transform="translate(0 0)"/><path class="cls-10" d="M256.5,389.7h1.2v7.6h4.4v1h-5.5v-8.6Z" transform="translate(0 0)"/><path class="cls-10" d="M263.9,395.5a2.13,2.13,0,0,0,.3,1.2,2.26,2.26,0,0,0,2,.9,5,5,0,0,0,1.2-.2,1.27,1.27,0,0,0,1-1.3,1.05,1.05,0,0,0-.4-1,3.75,3.75,0,0,0-1.4-.5l-1.2-.3a5.35,5.35,0,0,1-1.6-.6,1.94,1.94,0,0,1-.8-1.6,2.56,2.56,0,0,1,.8-1.9,3.17,3.17,0,0,1,2.3-.7,3.51,3.51,0,0,1,2.3.7,2.45,2.45,0,0,1,.9,2.1h-1.1a2.82,2.82,0,0,0-.4-1.1,2.48,2.48,0,0,0-1.8-.7,2.08,2.08,0,0,0-1.5.4,1.39,1.39,0,0,0-.5,1,1.05,1.05,0,0,0,.5.9,10.42,10.42,0,0,0,1.6.5l1.2.3a3.2,3.2,0,0,1,1.3.5,2.2,2.2,0,0,1,.8,1.8,2,2,0,0,1-1,2,4.75,4.75,0,0,1-2.4.6,3.74,3.74,0,0,1-2.5-.8,2.79,2.79,0,0,1-.9-2.2Z" transform="translate(0 0)"/></g><g class="cls-8"><path class="cls-10" d="M240.2,404.1h3.7a2.66,2.66,0,0,1,2.2.9,2.84,2.84,0,0,1,.4,1.2,1.9,1.9,0,0,1-.5,1.3,1.79,1.79,0,0,1-.7.5,4.37,4.37,0,0,1,1,.6,2.11,2.11,0,0,1,.6,1.6,2.46,2.46,0,0,1-.5,1.5,2.8,2.8,0,0,1-2.5,1h-3.6v-8.6Zm3.2,3.6a2.68,2.68,0,0,0,1.1-.2,1.21,1.21,0,0,0,.6-1.2,1,1,0,0,0-.7-1.1,3.09,3.09,0,0,0-1.1-.2h-2.1v2.7Zm.4,4a1.75,1.75,0,0,0,1.5-.6,1.61,1.61,0,0,0,.3-.9,1.34,1.34,0,0,0-.8-1.3,3.73,3.73,0,0,0-1.2-.2h-2.3v3Z" transform="translate(0 0)"/><path class="cls-10" d="M248.1,404.1h1.1v8.6h-1.1Z" transform="translate(0 0)"/><path class="cls-10" d="M255.3,407a2.92,2.92,0,0,1,.8,2.4,4.09,4.09,0,0,1-.7,2.5,2.64,2.64,0,0,1-2.3,1,2.72,2.72,0,0,1-2.1-.9,3.19,3.19,0,0,1-.8-2.4,3.74,3.74,0,0,1,.8-2.5,2.79,2.79,0,0,1,2.2-.9A3,3,0,0,1,255.3,407Zm-.6,4.2a3.42,3.42,0,0,0,.4-1.8,2.65,2.65,0,0,0-.3-1.4,1.55,1.55,0,0,0-1.5-.9,1.51,1.51,0,0,0-1.4.7,3.42,3.42,0,0,0-.4,1.8,3.06,3.06,0,0,0,.4,1.7,1.51,1.51,0,0,0,1.4.7A1.6,1.6,0,0,0,254.7,411.2Z" transform="translate(0 0)"/><path class="cls-10" d="M261.5,406.7a2.53,2.53,0,0,1,.8,1.8h-1a3,3,0,0,0-.4-1,1.25,1.25,0,0,0-1.1-.4,1.31,1.31,0,0,0-1.4,1,3.81,3.81,0,0,0-.3,1.6,2.73,2.73,0,0,0,.4,1.6,1.49,1.49,0,0,0,1.3.6,1.16,1.16,0,0,0,1-.4,2.81,2.81,0,0,0,.5-1.1h1a2.61,2.61,0,0,1-.9,1.8,2.79,2.79,0,0,1-1.8.6,2.52,2.52,0,0,1-2-.9,3.23,3.23,0,0,1-.7-2.2,4,4,0,0,1,.8-2.6,2.52,2.52,0,0,1,2-.9A3,3,0,0,1,261.5,406.7Z" transform="translate(0 0)"/><path class="cls-10" d="M263.4,404.1h1v5l2.7-2.7h1.3l-2.4,2.3,2.5,3.9h-1.3l-2-3.2-.9.8v2.4h-1v-8.5Z" transform="translate(0 0)"/><path class="cls-10" d="M272.8,410.8a5.3,5.3,0,0,1,1.5-1.5l1.1-.7a3.47,3.47,0,0,0,1.1-.8,1.52,1.52,0,0,0-1.1-2.7,1.65,1.65,0,0,0-1.5.8,3.73,3.73,0,0,0-.2,1.2h-1.1a3.42,3.42,0,0,1,.4-1.8,2.62,2.62,0,0,1,2.4-1.2,2.56,2.56,0,0,1,2.1.8,2.84,2.84,0,0,1,.7,1.7,2.19,2.19,0,0,1-.7,1.7,7.64,7.64,0,0,1-1.5,1l-.8.4a3.49,3.49,0,0,0-.9.6,1.9,1.9,0,0,0-.7,1.1h4.6v1h-5.8A3.17,3.17,0,0,1,272.8,410.8Z" transform="translate(0 0)"/></g><g class="cls-8"><path class="cls-10" d="M249.7,419.1a3.21,3.21,0,0,1,1,2h-1.1a2,2,0,0,0-.8-1.3,2.54,2.54,0,0,0-1.6-.5,2.88,2.88,0,0,0-2.1.9,3.65,3.65,0,0,0-.8,2.7,4.09,4.09,0,0,0,.7,2.5,2.32,2.32,0,0,0,2.1.9,2.22,2.22,0,0,0,2-1,3.75,3.75,0,0,0,.5-1.4h1.1a3.6,3.6,0,0,1-3.8,3.4,3.66,3.66,0,0,1-2.5-.9,4.64,4.64,0,0,1-1.3-3.7,4.45,4.45,0,0,1,1-3.1,3.54,3.54,0,0,1,3-1.3A3.16,3.16,0,0,1,249.7,419.1Z" transform="translate(0 0)"/><path class="cls-10" d="M255.4,423.3a.55.55,0,0,0,.5-.3c0-.1.1-.2.1-.4a.81.81,0,0,0-.4-.8,1.82,1.82,0,0,0-1.1-.2,1.46,1.46,0,0,0-1.2.4,4.88,4.88,0,0,0-.3.7h-1a1.7,1.7,0,0,1,.8-1.6,3.1,3.1,0,0,1,1.7-.5,3.42,3.42,0,0,1,1.8.4,1.36,1.36,0,0,1,.7,1.3v3.6a.37.37,0,0,0,.1.3c.1.1.1.1.3.1h.4v.8c-.2,0-.3.1-.4.1H257a.81.81,0,0,1-.8-.4c-.1-.1-.1-.3-.2-.6a2.18,2.18,0,0,1-.9.7,2.77,2.77,0,0,1-1.3.3,1.88,1.88,0,0,1-2-1.8,2.17,2.17,0,0,1,.5-1.4,2,2,0,0,1,1.4-.6Zm-2.2,2.8a1.14,1.14,0,0,0,.8.3,2.28,2.28,0,0,0,1.1-.3,1.51,1.51,0,0,0,.9-1.4v-.8a.76.76,0,0,1-.5.2c-.2,0-.4.1-.6.1l-.6.1a6.37,6.37,0,0,0-.9.2,1.05,1.05,0,0,0-.5.9C252.8,425.7,252.9,425.9,253.2,426.1Z" transform="translate(0 0)"/><path class="cls-10" d="M258.7,420.8h1v1.1a3.28,3.28,0,0,1,.6-.8,1.61,1.61,0,0,1,1.1-.5h.3v1.1h-.4a1.66,1.66,0,0,0-1.2.5,1.59,1.59,0,0,0-.4,1.2V427h-1.1v-6.2Z" transform="translate(0 0)"/><path class="cls-10" d="M266.2,421a1.7,1.7,0,0,1,.6.6v-.8h1v5.7a3.58,3.58,0,0,1-.4,1.9,2.47,2.47,0,0,1-2.5,1.3,3.1,3.1,0,0,1-1.7-.5,1.84,1.84,0,0,1-.8-1.4h1.1a4.88,4.88,0,0,0,.3.7,1.81,1.81,0,0,0,2.7-.5,6.25,6.25,0,0,0,.2-1.8,1.78,1.78,0,0,1-.8.7,3.73,3.73,0,0,1-1.2.2,2.41,2.41,0,0,1-1.8-.7,3.29,3.29,0,0,1-.8-2.4,3.74,3.74,0,0,1,.8-2.5,2.32,2.32,0,0,1,1.9-.9A4.67,4.67,0,0,1,266.2,421Zm.1,1.2a1.43,1.43,0,0,0-1.2-.6,1.5,1.5,0,0,0-1.5,1,6.05,6.05,0,0,0-.2,1.5,2.54,2.54,0,0,0,.4,1.6,1.43,1.43,0,0,0,1.2.6,1.54,1.54,0,0,0,1.6-1,2.9,2.9,0,0,0,.3-1.4A3.37,3.37,0,0,0,266.3,422.2Z" transform="translate(0 0)"/><path class="cls-10" d="M273.9,421.4a2.92,2.92,0,0,1,.8,2.4,4.09,4.09,0,0,1-.7,2.5,2.64,2.64,0,0,1-2.3,1,2.72,2.72,0,0,1-2.1-.9,3.19,3.19,0,0,1-.8-2.4,3.74,3.74,0,0,1,.8-2.5,2.79,2.79,0,0,1,2.2-.9A2.86,2.86,0,0,1,273.9,421.4Zm-.6,4.2a3.42,3.42,0,0,0,.4-1.8,2.65,2.65,0,0,0-.3-1.4,1.55,1.55,0,0,0-1.5-.9,1.51,1.51,0,0,0-1.4.7,3.42,3.42,0,0,0-.4,1.8,3.06,3.06,0,0,0,.4,1.7,1.51,1.51,0,0,0,1.4.7A1.49,1.49,0,0,0,273.3,425.6Z" transform="translate(0 0)"/></g><g class="cls-8"><path class="cls-10" d="M248.8,36.3v5.3a2.93,2.93,0,0,0,.4,1.6,1.81,1.81,0,0,0,1.8.9c1,0,1.7-.3,2-1a3.34,3.34,0,0,0,.3-1.5V36.3h1.2v4.8a4.94,4.94,0,0,1-.4,2.4,3.08,3.08,0,0,1-3,1.6,3,3,0,0,1-3-1.6,5.46,5.46,0,0,1-.4-2.4V36.3Z" transform="translate(0 0)"/><path class="cls-10" d="M256.9,42.1a2.13,2.13,0,0,0,.3,1.2,2.26,2.26,0,0,0,2,.9,5,5,0,0,0,1.2-.2,1.27,1.27,0,0,0,1-1.3,1.05,1.05,0,0,0-.4-1,3.75,3.75,0,0,0-1.4-.5l-1.2-.3a5.35,5.35,0,0,1-1.6-.6,1.94,1.94,0,0,1-.8-1.6,2.56,2.56,0,0,1,.8-1.9,3.17,3.17,0,0,1,2.3-.7,3.51,3.51,0,0,1,2.3.7,2.45,2.45,0,0,1,.9,2.1h-1.1a2.82,2.82,0,0,0-.4-1.1,2.48,2.48,0,0,0-1.8-.7,2.08,2.08,0,0,0-1.5.4,1.39,1.39,0,0,0-.5,1,1.05,1.05,0,0,0,.5.9,10.42,10.42,0,0,0,1.6.5l1.2.3a3.2,3.2,0,0,1,1.3.5,2.2,2.2,0,0,1,.8,1.8,2,2,0,0,1-1,2,4.75,4.75,0,0,1-2.4.6,3.74,3.74,0,0,1-2.5-.8,2.79,2.79,0,0,1-.9-2.2Z" transform="translate(0 0)"/><path class="cls-10" d="M266.7,36.3H268l3.1,8.6h-1.3l-.9-2.6h-3.4l-.9,2.6h-1.2Zm1.9,5.1-1.3-3.8-1.4,3.8Z" transform="translate(0 0)"/></g><g class="cls-8"><path class="cls-10" d="M245.1,53.4v-.8a4,4,0,0,0,1.6-.4,2.23,2.23,0,0,0,.7-1.2h.8v8.4H247V53.5h-1.9Z" transform="translate(0 0)"/><path class="cls-10" d="M250.8,53.4v-.8a4,4,0,0,0,1.6-.4,2.23,2.23,0,0,0,.7-1.2h.8v8.4h-1.1V53.5h-2Z" transform="translate(0 0)"/><path class="cls-10" d="M262,52.3a5.55,5.55,0,0,1,.6,2.8,7.39,7.39,0,0,1-.5,2.8,2.45,2.45,0,0,1-2.4,1.6,2.22,2.22,0,0,1-2.2-1.3,6,6,0,0,1-.6-2.9,6.25,6.25,0,0,1,.4-2.5,2.52,2.52,0,0,1,4.7-.5Zm-1.1,5.6a5.57,5.57,0,0,0,.5-2.7,5.75,5.75,0,0,0-.4-2.4,1.3,1.3,0,0,0-1.4-.9,1.51,1.51,0,0,0-1.4.9,5.88,5.88,0,0,0-.4,2.6,6.23,6.23,0,0,0,.3,2.1c.3.8.8,1.2,1.4,1.2A2.19,2.19,0,0,0,260.9,57.9Z" transform="translate(0 0)"/><path class="cls-10" d="M264,60.5q.45,0,.6-.6a.9.9,0,0,0,.1-.5v-.2H264V58h1.3v1.2a2.13,2.13,0,0,1-.3,1.2,1.53,1.53,0,0,1-1,.7Z" transform="translate(0 0)"/><path class="cls-10" d="M271.8,51.6a2.4,2.4,0,0,1,.6,1.5h-1a6.89,6.89,0,0,0-.3-.8,1.25,1.25,0,0,0-1.2-.5,1.6,1.6,0,0,0-1.4.8,6.42,6.42,0,0,0-.6,2.4,1.76,1.76,0,0,1,.9-.8,2,2,0,0,1,1.1-.2,2.41,2.41,0,0,1,1.8.7,2.63,2.63,0,0,1,.8,2,2.88,2.88,0,0,1-.7,2,2.58,2.58,0,0,1-2.1.9,2.52,2.52,0,0,1-2-.9,4.65,4.65,0,0,1-.9-3,7.66,7.66,0,0,1,.4-2.7,2.74,2.74,0,0,1,2.7-2.1A2.11,2.11,0,0,1,271.8,51.6Zm-.7,6.4a2,2,0,0,0,.4-1.3,1.92,1.92,0,0,0-.4-1.2,1.49,1.49,0,0,0-1.3-.6,1.66,1.66,0,0,0-1.2.5,2,2,0,0,0-.5,1.4,1.9,1.9,0,0,0,.5,1.3,1.73,1.73,0,0,0,1.3.5A1.43,1.43,0,0,0,271.1,58Z" transform="translate(0 0)"/></g><path class="cls-10" d="M297.6,397.5a2.13,2.13,0,0,0,.3,1.2,2.26,2.26,0,0,0,2,.9,5,5,0,0,0,1.2-.2,1.27,1.27,0,0,0,1-1.3,1.05,1.05,0,0,0-.4-1,3.75,3.75,0,0,0-1.4-.5l-1.2-.3a5.35,5.35,0,0,1-1.6-.6,1.94,1.94,0,0,1-.8-1.6,2.56,2.56,0,0,1,.8-1.9,3.17,3.17,0,0,1,2.3-.7,3.51,3.51,0,0,1,2.3.7,2.45,2.45,0,0,1,.9,2.1h-1a2.82,2.82,0,0,0-.4-1.1,2.48,2.48,0,0,0-1.8-.7,2.08,2.08,0,0,0-1.5.4,1.39,1.39,0,0,0-.5,1,1.05,1.05,0,0,0,.5.9,10.42,10.42,0,0,0,1.6.5l1.2.3a3.2,3.2,0,0,1,1.3.5,2.2,2.2,0,0,1,.8,1.8,2,2,0,0,1-1,2,4.75,4.75,0,0,1-2.4.6,3.74,3.74,0,0,1-2.5-.8,2.79,2.79,0,0,1-.9-2.2Z" transform="translate(0 0)"/><path class="cls-10" d="M304.9,392.2H306V394h1v.9h-1V399c0,.2.1.4.2.4s.2.1.4.1h.4v.8c-.1,0-.2.1-.4.1h-.4a1.05,1.05,0,0,1-1-.4,1.69,1.69,0,0,1-.3-1v-4.2h-.8V394h.8v-1.8Z" transform="translate(0 0)"/><path class="cls-10" d="M311.4,396.5a.55.55,0,0,0,.5-.3c0-.1.1-.2.1-.4a.81.81,0,0,0-.4-.8,1.82,1.82,0,0,0-1.1-.2,1.46,1.46,0,0,0-1.2.4,4.88,4.88,0,0,0-.3.7h-1a1.7,1.7,0,0,1,.8-1.6,3.1,3.1,0,0,1,1.7-.5,3.42,3.42,0,0,1,1.8.4,1.36,1.36,0,0,1,.7,1.3v3.6a.37.37,0,0,0,.1.3c.1.1.1.1.3.1h.4v.8c-.2,0-.3.1-.4.1H313a.81.81,0,0,1-.8-.4c-.1-.1-.1-.3-.2-.6a2.18,2.18,0,0,1-.9.7,2.77,2.77,0,0,1-1.3.3,1.88,1.88,0,0,1-2-1.8,2.17,2.17,0,0,1,.5-1.4,2,2,0,0,1,1.4-.6Zm-2.2,2.8a1.14,1.14,0,0,0,.8.3,2.28,2.28,0,0,0,1.1-.3,1.51,1.51,0,0,0,.9-1.4v-.8a.76.76,0,0,1-.5.2c-.2,0-.4.1-.6.1l-.6.1a6.37,6.37,0,0,0-.9.2,1.05,1.05,0,0,0-.5.9C308.8,398.9,309,399.1,309.2,399.3Z" transform="translate(0 0)"/><path class="cls-10" d="M314.7,394h1v1.1a3.28,3.28,0,0,1,.6-.8,1.61,1.61,0,0,1,1.1-.5h.3v1.1h-.4a1.66,1.66,0,0,0-1.2.5,1.59,1.59,0,0,0-.4,1.2v3.6h-1.1V394Z" transform="translate(0 0)"/><path class="cls-10" d="M319.3,398.3a1,1,0,0,0,.3.8,1.81,1.81,0,0,0,1.4.5,1.69,1.69,0,0,0,1-.3.81.81,0,0,0,.4-.8.55.55,0,0,0-.4-.6,4.65,4.65,0,0,0-.9-.3l-.8-.2a8.34,8.34,0,0,1-1.2-.4,1.31,1.31,0,0,1-.7-1.2,1.68,1.68,0,0,1,.6-1.4,2.89,2.89,0,0,1,1.7-.6,2.48,2.48,0,0,1,2,.8,1.67,1.67,0,0,1,.4,1.1h-1a1.08,1.08,0,0,0-.3-.7c-.2-.3-.7-.4-1.3-.4a2,2,0,0,0-.9.2.71.71,0,0,0-.3.6.75.75,0,0,0,.4.7,4.88,4.88,0,0,0,.7.3l.7.2a8.09,8.09,0,0,1,1.5.5,1.49,1.49,0,0,1,.6,1.3,1.82,1.82,0,0,1-.6,1.4,2.71,2.71,0,0,1-1.9.6,2.81,2.81,0,0,1-2-.6,2.11,2.11,0,0,1-.6-1.6h1.2Z" transform="translate(0 0)"/><path class="cls-10" d="M324.7,391.6h1.1v3.2a4.62,4.62,0,0,1,.7-.7,2.5,2.5,0,0,1,1.3-.3,2,2,0,0,1,1.9,1,2.65,2.65,0,0,1,.3,1.4v4h-1.1v-4a2.15,2.15,0,0,0-.2-1,1.29,1.29,0,0,0-1.1-.5,2.08,2.08,0,0,0-1.2.5c-.4.3-.5.9-.5,1.7v3.3h-1.1v-8.6Z" transform="translate(0 0)"/><path class="cls-10" d="M331.4,391.7h1.1v1.2h-1.1Zm0,2.3h1.1v6.2h-1.1Z" transform="translate(0 0)"/><path class="cls-10" d="M334,394h1v.8a2.34,2.34,0,0,1,.7-.7,2.84,2.84,0,0,1,1.3-.4,2.5,2.5,0,0,1,1.8.8,3.17,3.17,0,0,1,.7,2.3,3.55,3.55,0,0,1-1.1,2.9,2.45,2.45,0,0,1-1.6.6,2.13,2.13,0,0,1-1.2-.3,1.7,1.7,0,0,1-.6-.6v3.2h-1Zm3.9,4.9a3,3,0,0,0,.5-1.8,5.07,5.07,0,0,0-.2-1.3,1.5,1.5,0,0,0-1.5-1,1.59,1.59,0,0,0-1.5,1.1,6.05,6.05,0,0,0-.2,1.5,3.73,3.73,0,0,0,.2,1.2,1.64,1.64,0,0,0,1.5,1A1.31,1.31,0,0,0,337.9,398.9Z" transform="translate(0 0)"/><g class="cls-8"><path class="cls-10" d="M307.8,21.2v5.3a2.93,2.93,0,0,0,.4,1.6,1.81,1.81,0,0,0,1.8.9c1,0,1.7-.3,2-1a3.34,3.34,0,0,0,.3-1.5V21.2h1.2V26a4.94,4.94,0,0,1-.4,2.4,3.08,3.08,0,0,1-3,1.6,3,3,0,0,1-3-1.6,5.46,5.46,0,0,1-.4-2.4V21.2Z" transform="translate(0 0)"/><path class="cls-10" d="M315.9,27a2.13,2.13,0,0,0,.3,1.2,2.26,2.26,0,0,0,2,.9,5,5,0,0,0,1.2-.2,1.27,1.27,0,0,0,1-1.3,1.05,1.05,0,0,0-.4-1,3.75,3.75,0,0,0-1.4-.5l-1.2-.3a5.35,5.35,0,0,1-1.6-.6,1.94,1.94,0,0,1-.8-1.6,2.56,2.56,0,0,1,.8-1.9,3.17,3.17,0,0,1,2.3-.7,3.51,3.51,0,0,1,2.3.7,2.45,2.45,0,0,1,.9,2.1h-1.1a2.82,2.82,0,0,0-.4-1.1A2.48,2.48,0,0,0,318,22a2.08,2.08,0,0,0-1.5.4,1.39,1.39,0,0,0-.5,1,1.05,1.05,0,0,0,.5.9,10.42,10.42,0,0,0,1.6.5l1.2.3a3.2,3.2,0,0,1,1.3.5,2.2,2.2,0,0,1,.8,1.8,2,2,0,0,1-1,2,4.75,4.75,0,0,1-2.4.6,3.74,3.74,0,0,1-2.5-.8,2.79,2.79,0,0,1-.9-2.2Z" transform="translate(0 0)"/><path class="cls-10" d="M325.7,21.2H327l3.1,8.6h-1.3l-.9-2.6h-3.4l-.9,2.6h-1.2Zm1.9,5.1-1.3-3.8-1.4,3.8Z" transform="translate(0 0)"/></g><g class="cls-8"><path class="cls-10" d="M302.4,38.3v-.8a4,4,0,0,0,1.6-.4,2.23,2.23,0,0,0,.7-1.2h.8v8.4h-1.1V38.4h-2Z" transform="translate(0 0)"/><path class="cls-10" d="M308.8,42.3a5.3,5.3,0,0,1,1.5-1.5l1.1-.7a3.47,3.47,0,0,0,1.1-.8,1.52,1.52,0,0,0-1.1-2.7,1.65,1.65,0,0,0-1.5.8,3.73,3.73,0,0,0-.2,1.2h-1.1a3.42,3.42,0,0,1,.4-1.8,2.62,2.62,0,0,1,2.4-1.2,2.56,2.56,0,0,1,2.1.8,2.84,2.84,0,0,1,.7,1.7,2.19,2.19,0,0,1-.7,1.7,7.64,7.64,0,0,1-1.5,1l-.8.4a3.49,3.49,0,0,0-.9.6,1.9,1.9,0,0,0-.7,1.1h4.6v1h-5.8A3.73,3.73,0,0,1,308.8,42.3Z" transform="translate(0 0)"/><path class="cls-10" d="M320.2,37.2a5.55,5.55,0,0,1,.6,2.8,7.39,7.39,0,0,1-.5,2.8,2.45,2.45,0,0,1-2.4,1.6,2.22,2.22,0,0,1-2.2-1.3,6,6,0,0,1-.6-2.9,6.25,6.25,0,0,1,.4-2.5,2.52,2.52,0,0,1,2.5-1.9A2.3,2.3,0,0,1,320.2,37.2Zm-1,5.5a5.57,5.57,0,0,0,.5-2.7,5.75,5.75,0,0,0-.4-2.4,1.3,1.3,0,0,0-1.4-.9,1.51,1.51,0,0,0-1.4.9,5.88,5.88,0,0,0-.4,2.6,6.23,6.23,0,0,0,.3,2.1c.3.8.8,1.2,1.4,1.2A1.6,1.6,0,0,0,319.2,42.7Z" transform="translate(0 0)"/><path class="cls-10" d="M325.4,37.9h1v.9a4.62,4.62,0,0,1,.7-.7,2.14,2.14,0,0,1,1.2-.4,1.59,1.59,0,0,1,1.2.4c.2.1.3.3.5.6a1.78,1.78,0,0,1,.8-.7,3.59,3.59,0,0,1,1.1-.2,1.75,1.75,0,0,1,1.7.9,2.55,2.55,0,0,1,.2,1.3v4.2h-1.1V39.8a1.22,1.22,0,0,0-.3-.9,1.08,1.08,0,0,0-.8-.2,1.5,1.5,0,0,0-1.1.4,1.81,1.81,0,0,0-.4,1.4v3.7H329V40.1a2,2,0,0,0-.2-.9,1,1,0,0,0-.9-.4,1.61,1.61,0,0,0-1.1.5,2.46,2.46,0,0,0-.5,1.7v3.3h-1.1V37.9Z" transform="translate(0 0)"/></g><rect class="cls-6" x="213.05" y="687.53" width="38.5" height="150.6"/><rect class="cls-6" x="205.35" y="668.93" width="55.1" height="18.5"/><rect class="cls-6" x="207.95" y="642.63" width="49.7" height="22.3"/><path class="cls-11" d="M211,664.93" transform="translate(0 0)"/><line class="cls-7" x1="214.45" y1="664.93" x2="214.45" y2="669.03"/><line class="cls-7" x1="211.35" y1="664.93" x2="211.35" y2="668.73"/><line class="cls-7" x1="251.15" y1="664.93" x2="251.15" y2="668.93"/><line class="cls-7" x1="254.25" y1="664.93" x2="254.25" y2="669.03"/><rect class="cls-6" x="217.65" y="664.93" width="29.9" height="3.8"/><rect class="cls-6" x="205.35" y="640.03" width="54.6" height="2.6"/><rect class="cls-6" x="217.65" y="625.63" width="29.9" height="14.3"/><rect class="cls-6" x="205.75" y="608.23" width="54.1" height="17.4"/><rect class="cls-6" x="226.75" y="566.33" width="11.6" height="41.9"/><rect class="cls-6" x="217.65" y="551.83" width="30.1" height="14.4"/><rect class="cls-6" x="224.95" y="541.33" width="16" height="8.5"/><rect class="cls-6" x="214.45" y="549.83" width="36.6" height="2"/><ellipse class="cls-6" cx="211.05" cy="634.53" rx="4.9" ry="5"/><ellipse class="cls-6" cx="254.85" cy="634.53" rx="4.9" ry="5"/><rect class="cls-6" x="205.75" y="594.03" width="54.1" height="2.1"/><rect class="cls-6" x="205.75" y="575.43" width="54.1" height="2"/><rect class="cls-6" x="222.05" y="577.43" width="1" height="30.8"/><rect class="cls-6" x="244.05" y="577.43" width="1" height="30.8"/><line class="cls-7" x1="211.05" y1="602.83" x2="256.35" y2="602.83"/><line class="cls-7" x1="211.25" y1="602.83" x2="211.25" y2="608.23"/><line class="cls-7" x1="256.35" y1="602.83" x2="256.35" y2="608.23"/><line class="cls-7" x1="211.05" y1="590.13" x2="256.35" y2="590.13"/><line class="cls-7" x1="211.25" y1="590.13" x2="211.25" y2="593.93"/><line class="cls-7" x1="256.35" y1="590.13" x2="256.35" y2="594.03"/><line class="cls-7" x1="211.05" y1="571.33" x2="254.35" y2="571.33"/><line class="cls-7" x1="211.25" y1="571.33" x2="211.25" y2="575.53"/><line class="cls-7" x1="254.35" y1="571.33" x2="254.35" y2="575.53"/><line class="cls-7" x1="215.35" y1="546.23" x2="250.15" y2="546.23"/><line class="cls-7" x1="215.45" y1="546.23" x2="215.45" y2="549.83"/><line class="cls-7" x1="250.15" y1="546.23" x2="250.15" y2="549.83"/><line class="cls-7" x1="230.15" y1="510.13" x2="230.15" y2="541.33"/><line class="cls-7" x1="235.55" y1="510.13" x2="235.55" y2="541.33"/><line class="cls-7" x1="229.15" y1="510.13" x2="236.55" y2="510.13"/><line class="cls-7" x1="233.55" y1="493.73" x2="233.55" y2="510.13"/><circle class="cls-10" cx="233.55" cy="492.93" r="0.9"/><line class="cls-7" x1="212.65" y1="642.73" x2="212.65" y2="664.63"/><line class="cls-7" x1="217.15" y1="642.93" x2="217.15" y2="664.73"/><line class="cls-7" x1="221.45" y1="642.83" x2="221.45" y2="664.73"/><line class="cls-7" x1="225.95" y1="642.93" x2="225.95" y2="664.83"/><line class="cls-7" x1="230.75" y1="642.83" x2="230.75" y2="664.73"/><line class="cls-7" x1="235.25" y1="643.03" x2="235.25" y2="664.83"/><line class="cls-7" x1="239.55" y1="642.93" x2="239.55" y2="664.83"/><line class="cls-7" x1="244.05" y1="643.03" x2="244.05" y2="664.93"/><line class="cls-7" x1="248.75" y1="642.73" x2="248.75" y2="664.53"/><line class="cls-7" x1="253.25" y1="642.83" x2="253.25" y2="664.73"/><line class="cls-2" x1="87.15" y1="837.73" x2="87.15" y2="829.63"/><path class="cls-3" d="M83.65,838.13c0,1.8-.8,2.8-2.2,2.8-1.2,0-2-1-2.1-2.7s.9-2.7,2.2-2.7S83.65,836.43,83.65,838.13Zm-3.4.1c0,1.4.5,2.1,1.3,2.1s1.3-.9,1.3-2.2-.4-2.1-1.3-2.1S80.25,836.73,80.25,838.23Z" transform="translate(0 0)"/><path class="cls-3" d="M74.55,786.23v-.4l.7-.5c1.6-1.3,2.3-2,2.3-2.8,0-.5-.3-1-1.2-1a2.11,2.11,0,0,0-1.3.5l-.3-.5a2.73,2.73,0,0,1,1.8-.5c1.3,0,1.9.8,1.9,1.5,0,1-.8,1.8-2.2,2.8l-.5.4h2.8v.6Z" transform="translate(0 0)"/><path class="cls-3" d="M83.65,783.63c0,1.8-.8,2.8-2.2,2.8-1.2,0-2-1-2.1-2.7s.9-2.7,2.2-2.7S83.65,781.83,83.65,783.63Zm-3.4,0c0,1.4.5,2.1,1.3,2.1s1.3-.9,1.3-2.2-.4-2.1-1.3-2.1-1.3.8-1.3,2.2Z" transform="translate(0 0)"/><path class="cls-3" d="M77.15,731.63v-1.4h-2.9v-.5l2.8-3.4H78v3.3h.9v.6H78v1.4Zm0-2V727h0c-.2.3-.3.5-.5.8l-1.5,1.8h2Z" transform="translate(0 0)"/><path class="cls-3" d="M83.65,728.93c0,1.8-.8,2.8-2.2,2.8-1.2,0-2-1-2.1-2.7s.9-2.7,2.2-2.7S83.65,727.23,83.65,728.93Zm-3.4.1c0,1.4.5,2.1,1.3,2.1s1.3-.9,1.3-2.2-.4-2.1-1.3-2.1-1.3.8-1.3,2.2Z" transform="translate(0 0)"/><path class="cls-3" d="M78.05,672.23h-.6a2.35,2.35,0,0,0-2.2,1.9h0a2,2,0,0,1,1.5-.6,1.77,1.77,0,0,1,1.9,1.5v.2a1.92,1.92,0,0,1-2,1.9h-.1a2.05,2.05,0,0,1-2.2-2v-.3a3.19,3.19,0,0,1,1.1-2.4,3.86,3.86,0,0,1,2-.8h.6Zm-.2,3.1a1.2,1.2,0,0,0-1.1-1.2h-.2a1.43,1.43,0,0,0-1.2.6.37.37,0,0,0-.1.3,1.42,1.42,0,0,0,1.2,1.5h.2a1.13,1.13,0,0,0,1.2-1.1Z" transform="translate(0 0)"/><path class="cls-3" d="M83.65,674.33c0,1.8-.8,2.8-2.2,2.8-1.2,0-2-1-2.1-2.7s.9-2.7,2.2-2.7S83.65,672.63,83.65,674.33Zm-3.4.1c0,1.4.5,2.1,1.3,2.1s1.3-.9,1.3-2.2-.4-2.1-1.3-2.1S80.25,673,80.25,674.43Z" transform="translate(0 0)"/><path class="cls-3" d="M74.45,621.13c0-.7.5-1.1,1.2-1.4h0a1.19,1.19,0,0,1-1-1.2c0-.8.8-1.4,1.9-1.4s1.8.6,1.8,1.3a1.43,1.43,0,0,1-1,1.2h0c.8.3,1.3.7,1.3,1.4,0,.9-.9,1.5-2.1,1.5S74.45,621.93,74.45,621.13Zm3.4,0c0-.6-.5-.9-1.4-1.1-.7.2-1.1.6-1.1,1.1a1.06,1.06,0,0,0,1.2,1c.8,0,1.3-.5,1.3-1Zm-2.4-2.6c0,.5.5.8,1.2,1,.5-.2,1-.5,1-1s-.3-.9-1.1-.9-1.1.4-1.1.9Z" transform="translate(0 0)"/><path class="cls-3" d="M83.65,619.73c0,1.8-.8,2.8-2.2,2.8-1.2,0-2-1-2.1-2.7s.9-2.7,2.2-2.7S83.65,618.13,83.65,619.73Zm-3.4.1c0,1.4.5,2.1,1.3,2.1s1.3-.9,1.3-2.2-.4-2.1-1.3-2.1S80.25,618.43,80.25,619.83Z" transform="translate(0 0)"/><path class="cls-3" d="M71.45,563.23h0l-1.1.5-.2-.6,1.3-.6h.7v5.3h-.8l.1-4.6Z" transform="translate(0 0)"/><path class="cls-3" d="M78.65,565.13c0,1.8-.8,2.8-2.2,2.8-1.2,0-2.1-1-2.1-2.7s.9-2.7,2.2-2.7S78.65,563.53,78.65,565.13Zm-3.4.1c0,1.4.5,2.2,1.3,2.2s1.3-.8,1.3-2.2-.4-2.2-1.3-2.2S75.25,563.83,75.25,565.23Z" transform="translate(0 0)"/><path class="cls-3" d="M83.65,565.13c0,1.8-.8,2.8-2.2,2.8-1.2,0-2-1-2.1-2.7s.9-2.7,2.2-2.7S83.65,563.53,83.65,565.13Zm-3.4.1c0,1.4.5,2.2,1.3,2.2s1.3-.8,1.3-2.2-.4-2.2-1.3-2.2S80.25,563.83,80.25,565.23Z" transform="translate(0 0)"/><path class="cls-3" d="M71.45,508.63h0l-1.1.5-.2-.6,1.4-.6h.7v5.3h-.8Z" transform="translate(0 0)"/><path class="cls-3" d="M74.55,513.23v-.4l.7-.5c1.6-1.3,2.3-2,2.3-2.8,0-.5-.3-1-1.2-1a2.11,2.11,0,0,0-1.3.5l-.3-.5a3.45,3.45,0,0,1,1.8-.5c1.3,0,1.9.8,1.9,1.5,0,1-.8,1.8-2.2,2.8l-.5.4h2.8v.6Z" transform="translate(0 0)"/><path class="cls-3" d="M83.65,510.63c0,1.8-.8,2.8-2.2,2.8-1.2,0-2-1-2.1-2.7s.9-2.7,2.2-2.7S83.65,508.93,83.65,510.63Zm-3.4,0c0,1.4.5,2.2,1.3,2.2s1.3-.8,1.3-2.2-.4-2.2-1.3-2.2S80.25,509.23,80.25,510.63Z" transform="translate(0 0)"/><line class="cls-4" x1="87.15" y1="837.73" x2="87.15" y2="510.23"/><line class="cls-4" x1="87.15" y1="837.73" x2="92.25" y2="837.73"/><line class="cls-4" x1="87.15" y1="783.23" x2="92.25" y2="783.23"/><line class="cls-4" x1="87.15" y1="728.63" x2="92.25" y2="728.63"/><line class="cls-4" x1="87.15" y1="674.03" x2="92.25" y2="674.03"/><line class="cls-2" x1="87.15" y1="619.43" x2="92.25" y2="619.43"/><line class="cls-4" x1="87.15" y1="564.83" x2="92.25" y2="564.83"/><line class="cls-4" x1="87.15" y1="510.23" x2="92.25" y2="510.23"/><path class="cls-10" d="M227.15,849.23v1h-2.9v7.6h-1.2v-7.6h-2.9v-1Z" transform="translate(0 0)"/><path class="cls-10" d="M231.35,852.23a2.92,2.92,0,0,1,.8,2.4,4.09,4.09,0,0,1-.7,2.5,2.64,2.64,0,0,1-2.3,1,2.72,2.72,0,0,1-2.1-.9,3.19,3.19,0,0,1-.8-2.4,3.74,3.74,0,0,1,.8-2.5,2.79,2.79,0,0,1,2.2-.9A3.23,3.23,0,0,1,231.35,852.23Zm-.7,4.2a3.42,3.42,0,0,0,.4-1.8,2.65,2.65,0,0,0-.3-1.4,1.55,1.55,0,0,0-1.5-.9,1.51,1.51,0,0,0-1.4.7,3.42,3.42,0,0,0-.4,1.8,3.06,3.06,0,0,0,.4,1.7,1.51,1.51,0,0,0,1.4.7A1.39,1.39,0,0,0,230.65,856.43Z" transform="translate(0 0)"/><path class="cls-10" d="M233.45,851.63h1v1.1a3.28,3.28,0,0,1,.6-.8,1.61,1.61,0,0,1,1.1-.5h.3v1.1h-.4a1.66,1.66,0,0,0-1.2.5,1.59,1.59,0,0,0-.4,1.2v3.6h-1.1v-6.2Z" transform="translate(0 0)"/><path class="cls-10" d="M237.45,851.63h1v1.1a3.28,3.28,0,0,1,.6-.8,1.61,1.61,0,0,1,1.1-.5h.3v1.1h-.4a1.66,1.66,0,0,0-1.2.5,1.59,1.59,0,0,0-.4,1.2v3.6h-1.1v-6.2Z" transform="translate(0 0)"/><path class="cls-10" d="M245.35,851.73a3.92,3.92,0,0,1,1,.8,2.1,2.1,0,0,1,.4,1.1,5.31,5.31,0,0,1,.1,1.4h-4.6a2.46,2.46,0,0,0,.5,1.5,1.49,1.49,0,0,0,1.3.6,1.73,1.73,0,0,0,1.3-.5,2.51,2.51,0,0,0,.4-.7h1a1.6,1.6,0,0,1-.3.8,4.23,4.23,0,0,1-.5.7,2.28,2.28,0,0,1-1.2.6,2.48,2.48,0,0,1-.9.1,2.66,2.66,0,0,1-2-.9,3.19,3.19,0,0,1-.8-2.4,4.15,4.15,0,0,1,.8-2.5,2.43,2.43,0,0,1,2.1-.9A3.53,3.53,0,0,1,245.35,851.73Zm.3,2.5a1.8,1.8,0,0,0-.3-1.1,1.6,1.6,0,0,0-1.4-.8,1.66,1.66,0,0,0-1.2.5,1.9,1.9,0,0,0-.5,1.3h3.4Z" transform="translate(0 0)"/><path class="cls-10" d="M221,863.63h6.3v1.1h-5.1v2.6H227v1h-4.8v2.9h5.2v1H221v-8.6Z" transform="translate(0 0)"/><path class="cls-10" d="M228.75,866h1v.9a3.24,3.24,0,0,1,.9-.8,2,2,0,0,1,1.1-.2,1.81,1.81,0,0,1,1.8.9,2.81,2.81,0,0,1,.3,1.5v4h-1.1v-4a2,2,0,0,0-.2-.9,1,1,0,0,0-1-.6c-.2,0-.5,0-.6.1a3.51,3.51,0,0,0-.8.5.86.86,0,0,0-.3.6c0,.2-.1.5-.1.9v3.3h-1.1V866Z" transform="translate(0 0)"/><path class="cls-10" d="M235.65,864.23h1.1V866h1v.9h-1V871c0,.2.1.4.2.4s.2.1.4.1h.4v.8c-.1,0-.2.1-.4.1H237a1.05,1.05,0,0,1-1-.4,1.69,1.69,0,0,1-.3-1v-4.2h-.8v-.9h.8v-1.7Z" transform="translate(0 0)"/><path class="cls-10" d="M242.65,866.13a3.92,3.92,0,0,1,1,.8,2.1,2.1,0,0,1,.4,1.1,5.31,5.31,0,0,1,.1,1.4h-4.6a2.46,2.46,0,0,0,.5,1.5,1.49,1.49,0,0,0,1.3.6,1.73,1.73,0,0,0,1.3-.5,2.51,2.51,0,0,0,.4-.7h1a1.6,1.6,0,0,1-.3.8,4.23,4.23,0,0,1-.5.7,2.28,2.28,0,0,1-1.2.6,2.48,2.48,0,0,1-.9.1,2.66,2.66,0,0,1-2-.9,3.19,3.19,0,0,1-.8-2.4,4.15,4.15,0,0,1,.8-2.5,2.43,2.43,0,0,1,2.1-.9A3.19,3.19,0,0,1,242.65,866.13Zm.4,2.5a1.8,1.8,0,0,0-.3-1.1,1.6,1.6,0,0,0-1.4-.8,1.66,1.66,0,0,0-1.2.5,1.9,1.9,0,0,0-.5,1.3h3.4Z" transform="translate(0 0)"/><path class="cls-10" d="M245.45,863.63h1.1v8.6h-1.1Z" transform="translate(0 0)"/><path class="cls-10" d="M220.35,475.33v-.8a4,4,0,0,0,1.6-.4,2.23,2.23,0,0,0,.7-1.2h.8v8.4h-1.2v-5.9h-1.9Z" transform="translate(0 0)"/><path class="cls-10" d="M226.65,479.33a5.3,5.3,0,0,1,1.5-1.5l1.1-.7a3.47,3.47,0,0,0,1.1-.8,1.52,1.52,0,0,0-1.1-2.7,1.65,1.65,0,0,0-1.5.8,3.73,3.73,0,0,0-.2,1.2h-1.1a3.42,3.42,0,0,1,.4-1.8,2.62,2.62,0,0,1,2.4-1.2,2.56,2.56,0,0,1,2.1.8,2.84,2.84,0,0,1,.7,1.7,2.19,2.19,0,0,1-.7,1.7,7.64,7.64,0,0,1-1.5,1l-.8.4a3.49,3.49,0,0,0-.9.6,1.9,1.9,0,0,0-.7,1.1h4.6v1h-5.8A6.18,6.18,0,0,1,226.65,479.33Z" transform="translate(0 0)"/><path class="cls-10" d="M238.75,473v.9a11.38,11.38,0,0,0-1.1,1.4,14.32,14.32,0,0,0-1.2,2.1c-.3.7-.6,1.4-.8,2a11.79,11.79,0,0,0-.4,1.9h-1.2a15.68,15.68,0,0,1,1.8-4.8,14.65,14.65,0,0,1,1.7-2.4H233V473Z" transform="translate(0 0)"/><path class="cls-10" d="M243.25,474.93h1v.9a4.62,4.62,0,0,1,.7-.7,2.14,2.14,0,0,1,1.2-.4,1.59,1.59,0,0,1,1.2.4c.2.1.3.3.5.6a1.78,1.78,0,0,1,.8-.7,3.59,3.59,0,0,1,1.1-.2,1.75,1.75,0,0,1,1.7.9,2.55,2.55,0,0,1,.2,1.3v4.2h-1.1v-4.4a1.22,1.22,0,0,0-.3-.9,1.08,1.08,0,0,0-.8-.2,1.5,1.5,0,0,0-1.1.4,1.81,1.81,0,0,0-.4,1.4v3.7h-1.1v-4.1a2,2,0,0,0-.2-.9,1,1,0,0,0-.9-.4,1.61,1.61,0,0,0-1.1.5,2.46,2.46,0,0,0-.5,1.7v3.3h-.9v-6.4Z" transform="translate(0 0)"/><path class="cls-1" d="M133.25,586.73S124.85,597,124,603a4.12,4.12,0,0,0,.1,2.2h17.1C141.15,605.33,142.55,599.33,133.25,586.73Z" transform="translate(0 0)"/><polygon class="cls-1" points="121.05 833.23 144.55 833.23 144.55 719.43 141.25 706.83 141.15 605.23 124.05 605.23 123.85 707.33 121.05 719.23 121.05 833.23"/><path class="cls-1" d="M144.65,832.43s8.9,2.1,10.6-1.3v-79s-6-13.3-10.6-13.5Z" transform="translate(0 0)"/><path class="cls-1" d="M121.25,832.63s-8.9,2.1-10.6-1.3v-79s6-13.3,10.6-13.5Z" transform="translate(0 0)"/><polygon class="cls-1" points="128.25 833.13 125.75 837.93 139.65 837.93 137.95 833.13 128.25 833.13"/><polygon class="cls-1" points="112.35 832.13 107.55 837.93 121.25 837.93 119.95 832.83 112.35 832.13"/><polygon class="cls-1" points="146.55 833.13 144.55 837.93 155.15 837.93 152.65 832.13 146.55 833.13"/><rect class="cls-1" x="130.35" y="714.83" width="5.1" height="5.1"/><rect class="cls-1" x="130.35" y="721.53" width="5.1" height="5.1"/><rect class="cls-1" x="130.35" y="728.33" width="5.1" height="5.1"/><rect class="cls-1" x="124.05" y="651.63" width="16.9" height="37.9"/><rect class="cls-1" x="124.05" y="635.63" width="16.9" height="5.1"/><rect class="cls-1" x="121.45" y="740.13" width="22.8" height="20.2"/><rect class="cls-1" x="121.45" y="793.23" width="22.8" height="9.3"/><rect class="cls-1" x="121.45" y="821.93" width="22.8" height="11"/><rect class="cls-1" x="128.25" y="752.73" width="9.7" height="80.3"/><polygon class="cls-1" points="132.85 737.73 128.25 752.73 137.95 752.73 132.85 737.73"/><g class="cls-8"><path class="cls-9" d="M119.25,848.53h1.2v7.6h4.4v1h-5.5v-8.6Z" transform="translate(0 0)"/><path class="cls-9" d="M129.15,853.33a.55.55,0,0,0,.5-.3c0-.1.1-.2.1-.4a.81.81,0,0,0-.4-.8,1.82,1.82,0,0,0-1.1-.2,1.46,1.46,0,0,0-1.2.4,4.88,4.88,0,0,0-.3.7h-1a1.7,1.7,0,0,1,.8-1.6,3.1,3.1,0,0,1,1.7-.5,3.42,3.42,0,0,1,1.8.4,1.36,1.36,0,0,1,.7,1.3v3.6a.37.37,0,0,0,.1.3c.1.1.1.1.3.1h.4v.8c-.2,0-.3.1-.4.1h-.4a.81.81,0,0,1-.8-.4c-.1-.1-.1-.3-.2-.6a2.18,2.18,0,0,1-.9.7,2.77,2.77,0,0,1-1.3.3,1.88,1.88,0,0,1-2-1.8,2.17,2.17,0,0,1,.5-1.4,2,2,0,0,1,1.4-.6Zm-2.2,2.8a1.14,1.14,0,0,0,.8.3,2.28,2.28,0,0,0,1.1-.3,1.51,1.51,0,0,0,.9-1.4v-.8a.76.76,0,0,1-.5.2c-.2,0-.4.1-.6.1l-.6.1a6.37,6.37,0,0,0-.9.2,1.05,1.05,0,0,0-.5.9A.91.91,0,0,0,127,856.13Z" transform="translate(0 0)"/><path class="cls-9" d="M132.55,850.83h1v1.1a3.28,3.28,0,0,1,.6-.8,1.61,1.61,0,0,1,1.1-.5h.3v1.1h-.4a1.66,1.66,0,0,0-1.2.5,1.59,1.59,0,0,0-.4,1.2V857h-1.1v-6.2Z" transform="translate(0 0)"/><path class="cls-9" d="M140,851a1.7,1.7,0,0,1,.6.6v-.8h1v5.7a3.58,3.58,0,0,1-.4,1.9,2.47,2.47,0,0,1-2.5,1.3,3.1,3.1,0,0,1-1.7-.5,1.84,1.84,0,0,1-.8-1.4h1.1a4.88,4.88,0,0,0,.3.7,1.81,1.81,0,0,0,2.7-.5,6.25,6.25,0,0,0,.2-1.8,1.78,1.78,0,0,1-.8.7,3.73,3.73,0,0,1-1.2.2,2.41,2.41,0,0,1-1.8-.7,3.29,3.29,0,0,1-.8-2.4,3.74,3.74,0,0,1,.8-2.5,2.32,2.32,0,0,1,1.9-.9A3.92,3.92,0,0,1,140,851Zm.2,1.2a1.43,1.43,0,0,0-1.2-.6,1.5,1.5,0,0,0-1.5,1,6.05,6.05,0,0,0-.2,1.5,2.54,2.54,0,0,0,.4,1.6,1.43,1.43,0,0,0,1.2.6,1.54,1.54,0,0,0,1.6-1,2.9,2.9,0,0,0,.3-1.4A4.07,4.07,0,0,0,140.15,852.23Z" transform="translate(0 0)"/><path class="cls-9" d="M146.55,853.33a.55.55,0,0,0,.5-.3c0-.1.1-.2.1-.4a.81.81,0,0,0-.4-.8,1.82,1.82,0,0,0-1.1-.2,1.46,1.46,0,0,0-1.2.4,4.88,4.88,0,0,0-.3.7h-1a1.7,1.7,0,0,1,.8-1.6,3.1,3.1,0,0,1,1.7-.5,3.42,3.42,0,0,1,1.8.4,1.36,1.36,0,0,1,.7,1.3v3.6a.37.37,0,0,0,.1.3c.1.1.1.1.3.1h.4v.8c-.2,0-.3.1-.4.1h-.4a.81.81,0,0,1-.8-.4c-.1-.1-.1-.3-.2-.6a2.18,2.18,0,0,1-.9.7,2.77,2.77,0,0,1-1.3.3,1.88,1.88,0,0,1-2-1.8,2.17,2.17,0,0,1,.5-1.4,2,2,0,0,1,1.4-.6Zm-2.3,2.8a1.14,1.14,0,0,0,.8.3,2.28,2.28,0,0,0,1.1-.3,1.51,1.51,0,0,0,.9-1.4v-.8a.76.76,0,0,1-.5.2c-.2,0-.4.1-.6.1l-.6.1a6.37,6.37,0,0,0-.9.2,1.05,1.05,0,0,0-.5.9A.91.91,0,0,0,144.25,856.13Z" transform="translate(0 0)"/></g><g class="cls-8"><path class="cls-9" d="M111.25,862.93H113l2.5,7.3,2.5-7.3h1.7v8.6h-1.1v-7.3l-2.5,7.3h-1.2l-2.5-7.3v7.4h-1.1v-8.7Z" transform="translate(0 0)"/><path class="cls-9" d="M124.45,867.73a.55.55,0,0,0,.5-.3c0-.1.1-.2.1-.4a.81.81,0,0,0-.4-.8,1.82,1.82,0,0,0-1.1-.2,1.46,1.46,0,0,0-1.2.4,4.88,4.88,0,0,0-.3.7h-1a1.7,1.7,0,0,1,.8-1.6,3.1,3.1,0,0,1,1.7-.5,3.42,3.42,0,0,1,1.8.4,1.36,1.36,0,0,1,.7,1.3v3.6a.37.37,0,0,0,.1.3c.1.1.1.1.3.1h.4v.8c-.2,0-.3.1-.4.1h-.4a.81.81,0,0,1-.8-.4c-.1-.1-.1-.3-.2-.6a2.18,2.18,0,0,1-.9.7,2.77,2.77,0,0,1-1.3.3,1.88,1.88,0,0,1-2-1.8,2.17,2.17,0,0,1,.5-1.4,2,2,0,0,1,1.4-.6Zm-2.2,2.8a1.14,1.14,0,0,0,.8.3,2.28,2.28,0,0,0,1.1-.3,1.51,1.51,0,0,0,.9-1.4v-.8a.76.76,0,0,1-.5.2c-.2,0-.4.1-.6.1l-.6.1a6.37,6.37,0,0,0-.9.2,1.05,1.05,0,0,0-.5.9A.91.91,0,0,0,122.25,870.53Z" transform="translate(0 0)"/><path class="cls-9" d="M127.85,865.23h1v1.1a3.28,3.28,0,0,1,.6-.8,1.61,1.61,0,0,1,1.1-.5h.3v1.1h-.4a1.66,1.66,0,0,0-1.2.5,1.59,1.59,0,0,0-.4,1.2v3.6h-1.1v-6.2Z" transform="translate(0 0)"/><path class="cls-9" d="M136,865.53a2.53,2.53,0,0,1,.8,1.8h-1a3,3,0,0,0-.4-1,1.25,1.25,0,0,0-1.1-.4,1.31,1.31,0,0,0-1.4,1,3.81,3.81,0,0,0-.3,1.6,2.73,2.73,0,0,0,.4,1.6,1.49,1.49,0,0,0,1.3.6,1.16,1.16,0,0,0,1-.4,2.81,2.81,0,0,0,.5-1.1h1a2.61,2.61,0,0,1-.9,1.8,2.79,2.79,0,0,1-1.8.6,2.52,2.52,0,0,1-2-.9,3.23,3.23,0,0,1-.7-2.2,4,4,0,0,1,.8-2.6,2.52,2.52,0,0,1,2-.9A3,3,0,0,1,136,865.53Z" transform="translate(0 0)"/><path class="cls-9" d="M137.85,862.83H139V866a4.62,4.62,0,0,1,.7-.7,2.5,2.5,0,0,1,1.3-.3,2,2,0,0,1,1.9,1,2.65,2.65,0,0,1,.3,1.4v4h-1.1v-4a2.15,2.15,0,0,0-.2-1,1.29,1.29,0,0,0-1.1-.5,2.08,2.08,0,0,0-1.2.5c-.4.3-.5.9-.5,1.7v3.3H138v-8.6Z" transform="translate(0 0)"/><path class="cls-9" d="M147.85,867.73a.55.55,0,0,0,.5-.3c0-.1.1-.2.1-.4a.81.81,0,0,0-.4-.8,1.82,1.82,0,0,0-1.1-.2,1.46,1.46,0,0,0-1.2.4,4.88,4.88,0,0,0-.3.7h-1a1.7,1.7,0,0,1,.8-1.6,3.1,3.1,0,0,1,1.7-.5,3.42,3.42,0,0,1,1.8.4,1.36,1.36,0,0,1,.7,1.3v3.6a.37.37,0,0,0,.1.3c.1.1.1.1.3.1h.4v.8c-.2,0-.3.1-.4.1h-.4a.81.81,0,0,1-.8-.4c-.1-.1-.1-.3-.2-.6a2.18,2.18,0,0,1-.9.7,2.77,2.77,0,0,1-1.3.3,1.88,1.88,0,0,1-2-1.8,2.17,2.17,0,0,1,.5-1.4,2,2,0,0,1,1.4-.6Zm-2.2,2.8a1.14,1.14,0,0,0,.8.3,2.28,2.28,0,0,0,1.1-.3,1.51,1.51,0,0,0,.9-1.4v-.8a.76.76,0,0,1-.5.2c-.2,0-.4.1-.6.1l-.6.1a6.37,6.37,0,0,0-.9.2,1.05,1.05,0,0,0-.5.9C145.25,870.13,145.35,870.33,145.65,870.53Z" transform="translate(0 0)"/><path class="cls-9" d="M155.35,869.43a1.27,1.27,0,0,0,.7,1.2,1.85,1.85,0,0,0,.7.2,1.76,1.76,0,0,0,1.3-.6,5.24,5.24,0,0,0,.8-2.6,1.76,1.76,0,0,1-.9.8,2.15,2.15,0,0,1-1.1.2,2.56,2.56,0,0,1-1.9-.8,2.64,2.64,0,0,1-.7-1.9,2.88,2.88,0,0,1,.7-2,2.58,2.58,0,0,1,2.1-.9,2.5,2.5,0,0,1,2.5,1.7,5.27,5.27,0,0,1,.4,2.3,7.63,7.63,0,0,1-.5,2.7,2.73,2.73,0,0,1-2.6,2,2.88,2.88,0,0,1-1.9-.6,1.91,1.91,0,0,1-.6-1.6h1Zm2.7-2.1a2.21,2.21,0,0,0,0-2.8,1.69,1.69,0,0,0-2.4,0,2,2,0,0,0-.5,1.4,1.84,1.84,0,0,0,.4,1.3,1.73,1.73,0,0,0,1.3.5A1.59,1.59,0,0,0,158.05,867.33Z" transform="translate(0 0)"/></g><g class="cls-8"><path class="cls-9" d="M120.65,570.53a1.27,1.27,0,0,0,.7,1.2,1.85,1.85,0,0,0,.7.2,1.76,1.76,0,0,0,1.3-.6,5.24,5.24,0,0,0,.8-2.6,1.76,1.76,0,0,1-.9.8,2.15,2.15,0,0,1-1.1.2,2.56,2.56,0,0,1-1.9-.8,2.64,2.64,0,0,1-.7-1.9,2.88,2.88,0,0,1,.7-2,2.58,2.58,0,0,1,2.1-.9,2.5,2.5,0,0,1,2.5,1.7,5.27,5.27,0,0,1,.4,2.3,7.63,7.63,0,0,1-.5,2.7,2.73,2.73,0,0,1-2.6,2,2.88,2.88,0,0,1-1.9-.6,1.91,1.91,0,0,1-.6-1.6h1Zm2.7-2.2a2.21,2.21,0,0,0,0-2.8,1.69,1.69,0,0,0-2.4,0,2,2,0,0,0-.5,1.4,1.84,1.84,0,0,0,.4,1.3,1.73,1.73,0,0,0,1.3.5A1.59,1.59,0,0,0,123.35,568.33Z" transform="translate(0 0)"/><path class="cls-9" d="M126.65,571.93a3.22,3.22,0,0,1-.7-2h1.1a2.13,2.13,0,0,0,.3,1.2,1.81,1.81,0,0,0,1.5.7,1.7,1.7,0,0,0,1.3-.4,1.61,1.61,0,0,0,.5-1.1,1.36,1.36,0,0,0-.5-1.2,2.81,2.81,0,0,0-1.5-.3h-.4v-.9h.5a3,3,0,0,0,1-.2,1.41,1.41,0,0,0,.3-2.2,1.21,1.21,0,0,0-1-.3,1.58,1.58,0,0,0-1.5.7,8.11,8.11,0,0,0-.3,1.1h-1a2.73,2.73,0,0,1,.4-1.6,2.36,2.36,0,0,1,2.3-1.2,3,3,0,0,1,2,.6,1.94,1.94,0,0,1,.7,1.7,2,2,0,0,1-.4,1.3,1.79,1.79,0,0,1-.7.5,1.83,1.83,0,0,1,1,.7,2.5,2.5,0,0,1,.4,1.3,2.79,2.79,0,0,1-.8,2,3.11,3.11,0,0,1-2.2.8A6.08,6.08,0,0,1,126.65,571.93Z" transform="translate(0 0)"/><path class="cls-9" d="M136.55,566.23h1v.9a4.62,4.62,0,0,1,.7-.7,2.14,2.14,0,0,1,1.2-.4,1.59,1.59,0,0,1,1.2.4c.2.1.3.3.5.6a1.78,1.78,0,0,1,.8-.7,3.59,3.59,0,0,1,1.1-.2,1.75,1.75,0,0,1,1.7.9,2.55,2.55,0,0,1,.2,1.3v4.2h-1.1v-4.4a1.22,1.22,0,0,0-.3-.9,1.08,1.08,0,0,0-.8-.2,1.5,1.5,0,0,0-1.1.4,1.81,1.81,0,0,0-.4,1.4v3.7h-1.1v-4.1a2,2,0,0,0-.2-.9,1,1,0,0,0-.9-.4,1.61,1.61,0,0,0-1.1.5,2.46,2.46,0,0,0-.5,1.7v3.3h-1.1v-6.4Z" transform="translate(0 0)"/></g></svg>