<?xml version="1.0" encoding="utf-8"?>
<!-- Generator: Adobe Illustrator 24.3.0, SVG Export Plug-In . SVG Version: 6.00 Build 0)  -->
<svg version="1.1" id="Layer_1" xmlns="http://www.w3.org/2000/svg" xmlns:xlink="http://www.w3.org/1999/xlink" x="0px" y="0px"
	 viewBox="0 0 435.8 448.5" style="enable-background:new 0 0 435.8 448.5;" xml:space="preserve">
<style type="text/css">
	.st0{fill:#020202;stroke:#BE965F;stroke-miterlimit:10;}
	.st1{stroke:#B64026;stroke-miterlimit:10;}
	.st2{fill:none;}
	.st3{fill:#FFFFFF;}
	.st4{fill:none;stroke:#FFFFFF;stroke-miterlimit:10;}
	.st5{fill:#020202;stroke:#BE965F;stroke-linecap:round;stroke-linejoin:round;stroke-miterlimit:10;}
	.st6{fill:none;stroke:#BE965F;stroke-miterlimit:10;}
	.st7{enable-background:new    ;}
	.st8{fill:#B64026;}
	.st9{fill:#BE965F;}
</style>
<rect y="0" class="st0" width="435.8" height="448.5"/>
<path class="st1" d="M131.2,127.3c0,0-8.4,10.3-9.3,16.3c-0.2,0.7-0.1,1.5,0.1,2.2h17.1C139.1,145.9,140.5,139.9,131.2,127.3z"/>
<polygon class="st1" points="119,373.8 142.5,373.8 142.5,260 139.2,247.4 139.1,145.8 122,145.8 121.8,247.9 119,259.8 "/>
<path class="st1" d="M142.6,373c0,0,8.9,2.1,10.6-1.3v-79c0,0-6-13.3-10.6-13.5V373z"/>
<path class="st1" d="M119.2,373.2c0,0-8.9,2.1-10.6-1.3v-79c0,0,6-13.3,10.6-13.5V373.2z"/>
<polygon class="st1" points="126.2,373.7 123.7,378.5 137.6,378.5 135.9,373.7 "/>
<polygon class="st1" points="110.3,372.7 105.5,378.5 119.2,378.5 117.9,373.4 "/>
<polygon class="st1" points="144.5,373.7 142.5,378.5 153.1,378.5 150.6,372.7 "/>
<rect x="128.3" y="255.4" class="st1" width="5.1" height="5.1"/>
<rect x="128.3" y="262.1" class="st1" width="5.1" height="5.1"/>
<rect x="128.3" y="268.9" class="st1" width="5.1" height="5.1"/>
<rect x="122" y="192.2" class="st1" width="16.9" height="37.9"/>
<rect x="122" y="176.2" class="st1" width="16.9" height="5.1"/>
<rect x="119.4" y="280.7" class="st1" width="22.8" height="20.2"/>
<rect x="119.4" y="333.8" class="st1" width="22.8" height="9.3"/>
<rect x="119.4" y="362.5" class="st1" width="22.8" height="11"/>
<rect x="126.2" y="293.3" class="st1" width="9.7" height="80.3"/>
<polygon class="st1" points="130.8,278.3 126.2,293.3 135.9,293.3 "/>
<line class="st2" x1="86.8" y1="378.5" x2="86.8" y2="370.3"/>
<path class="st3" d="M83.2,378.9c0,1.8-0.8,2.8-2.2,2.8c-1.2,0-2-1-2.1-2.7s0.9-2.7,2.2-2.7S83.2,377.2,83.2,378.9z M79.8,378.9
	c0,1.4,0.5,2.1,1.3,2.1s1.3-0.9,1.3-2.2s-0.4-2.1-1.3-2.1S79.8,377.5,79.8,378.9z"/>
<path class="st3" d="M74.2,327v-0.4l0.7-0.5c1.6-1.3,2.3-2,2.3-2.8c0-0.5-0.3-1-1.2-1c-0.5,0-0.9,0.2-1.3,0.5l-0.3-0.5
	c0.5-0.4,1.1-0.5,1.8-0.5c1.3,0,1.9,0.8,1.9,1.5c0,1-0.8,1.8-2.2,2.8l-0.5,0.4h2.8v0.6L74.2,327z"/>
<path class="st3" d="M83.2,324.3c0,1.8-0.8,2.8-2.2,2.8c-1.2,0-2-1-2.1-2.7s0.9-2.7,2.2-2.7S83.2,322.6,83.2,324.3z M79.8,324.4
	c0,1.4,0.5,2.1,1.3,2.1s1.3-0.9,1.3-2.2s-0.4-2.1-1.3-2.1S79.8,322.9,79.8,324.4L79.8,324.4z"/>
<path class="st3" d="M76.8,272.4V271h-2.9v-0.5l2.8-3.4h0.9v3.3h0.9v0.6h-0.9v1.4H76.8z M76.8,270.4v-1.8c0-0.3,0-0.5,0-0.8l0,0
	c-0.2,0.3-0.3,0.5-0.5,0.8l-1.5,1.8l0,0H76.8z"/>
<path class="st3" d="M83.2,269.7c0,1.8-0.8,2.8-2.2,2.8c-1.2,0-2-1-2.1-2.7s0.9-2.7,2.2-2.7S83.2,268,83.2,269.7z M79.8,269.8
	c0,1.4,0.5,2.1,1.3,2.1s1.3-0.9,1.3-2.2s-0.4-2.1-1.3-2.1S79.8,268.3,79.8,269.8L79.8,269.8z"/>
<path class="st3" d="M77.7,213c-0.2,0-0.4,0-0.6,0c-1.1,0.1-2,0.8-2.2,1.9l0,0c0.4-0.4,0.9-0.6,1.5-0.6c0.9-0.1,1.8,0.6,1.9,1.5
	c0,0.1,0,0.1,0,0.2c0,1.1-0.9,1.9-2,1.9h-0.1c-1.2,0.1-2.1-0.8-2.2-2c0-0.1,0-0.2,0-0.3c0-0.9,0.4-1.8,1.1-2.4
	c0.6-0.5,1.3-0.7,2-0.8c0.2,0,0.4,0,0.6,0L77.7,213z M77.5,216.1c0-0.6-0.5-1.2-1.1-1.2c-0.1,0-0.1,0-0.2,0c-0.5,0-0.9,0.2-1.2,0.6
	c-0.1,0.1-0.1,0.2-0.1,0.3c-0.1,0.7,0.5,1.4,1.2,1.5c0.1,0,0.1,0,0.2,0c0.7,0,1.2-0.5,1.2-1.1C77.5,216.1,77.5,216.1,77.5,216.1z"/>
<path class="st3" d="M83.2,215.1c0,1.8-0.8,2.8-2.2,2.8c-1.2,0-2-1-2.1-2.7s0.9-2.7,2.2-2.7S83.2,213.4,83.2,215.1z M79.8,215.2
	c0,1.4,0.5,2.1,1.3,2.1s1.3-0.9,1.3-2.2S82,213,81.1,213S79.8,213.7,79.8,215.2z"/>
<path class="st3" d="M74.1,161.9c0-0.7,0.5-1.1,1.2-1.4l0,0c-0.6-0.1-1-0.6-1-1.2c0-0.8,0.8-1.4,1.9-1.4s1.8,0.6,1.8,1.3
	c0,0.4-0.3,0.9-1,1.2l0,0c0.8,0.3,1.3,0.7,1.3,1.4c0,0.9-0.9,1.5-2.1,1.5S74.1,162.6,74.1,161.9z M77.4,161.9c0-0.6-0.5-0.9-1.4-1.1
	c-0.7,0.2-1.1,0.6-1.1,1.1s0.4,1,1.2,1S77.4,162.4,77.4,161.9L77.4,161.9z M75.1,159.2c0,0.5,0.5,0.8,1.2,1c0.5-0.2,1-0.5,1-1
	s-0.3-0.9-1.1-0.9S75.1,158.7,75.1,159.2L75.1,159.2z"/>
<path class="st3" d="M83.2,160.5c0,1.8-0.8,2.8-2.2,2.8c-1.2,0-2-1-2.1-2.7s0.9-2.7,2.2-2.7S83.2,158.8,83.2,160.5z M79.8,160.6
	c0,1.4,0.5,2.1,1.3,2.1s1.3-0.9,1.3-2.2s-0.4-2.1-1.3-2.1S79.8,159.1,79.8,160.6z"/>
<path class="st3" d="M71.1,104L71.1,104l-1.1,0.5l-0.2-0.6l1.3-0.6h0.7v5.3H71L71.1,104L71.1,104z"/>
<path class="st3" d="M78.3,105.9c0,1.8-0.8,2.8-2.2,2.8c-1.2,0-2.1-1-2.1-2.7s0.9-2.7,2.2-2.7S78.3,104.2,78.3,105.9z M74.9,106
	c0,1.4,0.5,2.2,1.3,2.2s1.3-0.8,1.3-2.2s-0.4-2.2-1.3-2.2S74.9,104.5,74.9,106z"/>
<path class="st3" d="M83.2,105.9c0,1.8-0.8,2.8-2.2,2.8c-1.2,0-2-1-2.1-2.7s0.9-2.7,2.2-2.7S83.2,104.2,83.2,105.9z M79.8,106
	c0,1.4,0.5,2.2,1.3,2.2s1.3-0.8,1.3-2.2s-0.4-2.2-1.3-2.2S79.8,104.5,79.8,106z"/>
<path class="st3" d="M71.1,49.4L71.1,49.4L70,49.9l-0.2-0.6l1.4-0.6h0.7V54h-0.8V49.4z"/>
<path class="st3" d="M74.2,54v-0.4l0.7-0.5c1.6-1.3,2.3-2,2.3-2.8c0-0.5-0.3-1-1.2-1c-0.5,0-0.9,0.2-1.3,0.5l-0.3-0.5
	c0.5-0.3,1.1-0.5,1.8-0.5c1.3,0,1.9,0.8,1.9,1.5c0,1-0.8,1.8-2.2,2.8l-0.5,0.4h2.8V54H74.2z"/>
<path class="st3" d="M83.2,51.3c0,1.8-0.8,2.8-2.2,2.8c-1.2,0-2-1-2.1-2.7s0.9-2.7,2.2-2.7S83.2,49.6,83.2,51.3z M79.8,51.4
	c0,1.4,0.5,2.2,1.3,2.2s1.3-0.8,1.3-2.2s-0.4-2.2-1.3-2.2S79.8,50,79.8,51.4z"/>
<line class="st4" x1="86.8" y1="378.5" x2="86.8" y2="51"/>
<line class="st4" x1="86.8" y1="378.5" x2="91.9" y2="378.5"/>
<line class="st4" x1="86.8" y1="323.9" x2="91.9" y2="323.9"/>
<line class="st4" x1="86.8" y1="269.3" x2="91.9" y2="269.3"/>
<line class="st4" x1="86.8" y1="214.7" x2="91.9" y2="214.7"/>
<line class="st4" x1="86.8" y1="160.1" x2="91.9" y2="160.1"/>
<line class="st4" x1="86.8" y1="105.6" x2="91.9" y2="105.6"/>
<line class="st4" x1="86.8" y1="51" x2="91.9" y2="51"/>
<path class="st5" d="M258.5,76.7c0,0-10.1,9.3-10.1,26.1v264.3c0,0,1.7,4,8.4,4.3h6c0,0,4.9-0.5,6.6-4.8V103.2
	c0,0-0.4-20.5-8.6-26.5C260.1,76.5,259.3,76.5,258.5,76.7z"/>
<path class="st0" d="M241.6,231.6c-3.7,3.3-5.9,8-5.9,12.9v131c0,0,1,2,4.9,2.1h3.5c0,0,2.9-0.3,3.9-2.4V244.7c0,0-0.2-10.2-5-13.1
	C242.5,231.5,242.1,231.5,241.6,231.6z"/>
<path class="st0" d="M276,231.7c3.7,3.3,5.9,8,5.9,13v131c0,0-1,2-4.9,2.1h-3.5c0,0-2.9-0.3-3.8-2.4V244.8c0,0,0.2-10.2,5-13.1
	C275.1,231.6,275.6,231.6,276,231.7z"/>
<rect x="248" y="160.6" class="st0" width="21.9" height="189.7"/>
<path class="st0" d="M262.1,371.4l-0.9,6.2l5.9,0.1l-0.8-7.6C265,370.7,263.6,371.1,262.1,371.4z"/>
<path class="st0" d="M255.3,371.4l0.9,6.2l-5.9,0.1l0.8-7.6C252.4,370.7,253.8,371.1,255.3,371.4z"/>
<path class="st0" d="M235.8,375.5v3.4H248v-3.5C248,375.3,243.3,380.1,235.8,375.5z"/>
<path class="st0" d="M269.5,376v3.4h12.6v-3.6C282.1,375.7,277.3,380.6,269.5,376z"/>
<polygon class="st6" points="187.3,207.8 202.5,207.8 202.5,150.4 199.4,125.6 191.6,125.6 187.3,150.4 "/>
<polygon class="st0" points="187.3,207.8 185.2,238.6 205.1,238.6 202.5,207.8 "/>
<path class="st0" d="M172.4,371.1c0,0,7.1,4.5,44.5,0.9l-3-9.5h-38.3L172.4,371.1z"/>
<line class="st4" x1="185.2" y1="252" x2="205.1" y2="252"/>
<ellipse class="st0" cx="195.3" cy="251.6" rx="10.1" ry="11.4"/>
<ellipse class="st0" cx="195.3" cy="310.2" rx="13.9" ry="12.2"/>
<polygon class="st0" points="185.2,252 205.1,252 208.3,295 181.3,295 "/>
<polygon class="st0" points="181.3,312.5 209.4,312.5 213.8,362.5 175.6,362.5 "/>
<line class="st6" x1="185.2" y1="238.6" x2="184.9" y2="254.6"/>
<line class="st6" x1="205.1" y1="238.6" x2="205.5" y2="256.7"/>
<line class="st6" x1="181.3" y1="295" x2="180.9" y2="316"/>
<line class="st6" x1="208.3" y1="295" x2="209.7" y2="316"/>
<line class="st6" x1="187.3" y1="185.4" x2="202.5" y2="185.4"/>
<line class="st6" x1="195.1" y1="91.9" x2="195.1" y2="121.4"/>
<path class="st0" d="M194.4,117.2c0.9,0.8,2.1,0,2.1,0l2.9,8.4h-7.7L194.4,117.2z"/>
<rect x="194.4" y="98.6" class="st0" width="1.7" height="18.5"/>
<path class="st0" d="M317.1,54.7c0,0-10.1,10.1-10.1,28.4v287.3c0,0,1.7,4.4,8.4,4.7h6c0,0,4.9-0.6,6.6-5.2V83.5
	c0,0-0.4-22.3-8.6-28.8C318.7,54.4,317.8,54.4,317.1,54.7z"/>
<polygon class="st0" points="307,142.3 294.3,177.9 294.3,193.9 307,193.9 "/>
<polygon class="st0" points="328.5,142.1 341.2,177.7 341.2,193.7 328.5,193.7 "/>
<polygon class="st0" points="307,350.3 296.9,367.9 296.9,375.1 307,370.4 "/>
<polygon class="st0" points="312,356.1 312,378.3 308.9,381.4 307,375.1 "/>
<polygon class="st0" points="323.2,356.1 323.2,377.8 328.1,382 327.4,371.3 "/>
<polygon class="st0" points="328.1,350.3 339,368.8 339,375.1 327.4,371.3 "/>
<path class="st0" d="M311.5,63.1L296,85.6V93l11,2.3C307,95.2,305.9,71.8,311.5,63.1z"/>
<path class="st0" d="M325.1,64.3L339,83.9v8.4l-11,2.9C328,95.2,328.9,72.6,325.1,64.3z"/>
<path class="st6" d="M307.4,79.2c0,0,5.8,1.2,20.4,0"/>
<path class="st6" d="M306.7,83.3c0,0,5.8,1.2,20.4,0"/>
<path class="st6" d="M306.7,87.5c0,0,5.8,1.2,20.4,0"/>
<path class="st6" d="M307.6,90.9c0,0,5.8,1.2,20.4,0"/>
<path class="st6" d="M307.6,94.3c0,0,5.8,1.2,20.4,0"/>
<ellipse class="st0" cx="307.8" cy="215.8" rx="3.4" ry="10.5"/>
<ellipse class="st0" cx="327.2" cy="215" rx="3.4" ry="10.5"/>
<polygon class="st0" points="186,373.3 185,378.1 190.2,378.1 189.6,373.3 "/>
<polygon class="st0" points="192.9,373.3 191.9,378.1 197.1,378.1 196.5,373.3 "/>
<polygon class="st0" points="199.6,373.3 198.7,378.1 203.9,378.1 203.2,373.3 "/>
<g class="st7">
	<path class="st8" d="M117.2,389h1.2v7.6h4.4v1h-5.5V389z"/>
	<path class="st8" d="M127.1,393.8c0.2,0,0.4-0.1,0.5-0.3c0-0.1,0.1-0.2,0.1-0.4c0-0.4-0.1-0.6-0.4-0.8s-0.6-0.2-1.1-0.2
		c-0.6,0-0.9,0.1-1.2,0.4c-0.1,0.2-0.2,0.4-0.3,0.7h-1c0-0.8,0.3-1.3,0.8-1.6s1-0.5,1.7-0.5c0.7,0,1.3,0.1,1.8,0.4
		c0.5,0.3,0.7,0.7,0.7,1.3v3.6c0,0.1,0,0.2,0.1,0.3s0.1,0.1,0.3,0.1c0,0,0.1,0,0.2,0s0.1,0,0.2,0v0.8c-0.2,0-0.3,0.1-0.4,0.1
		s-0.2,0-0.4,0c-0.4,0-0.6-0.1-0.8-0.4c-0.1-0.1-0.1-0.3-0.2-0.6c-0.2,0.3-0.5,0.5-0.9,0.7s-0.8,0.3-1.3,0.3c-0.6,0-1.1-0.2-1.4-0.5
		s-0.6-0.8-0.6-1.3c0-0.6,0.2-1,0.5-1.4s0.8-0.5,1.4-0.6L127.1,393.8z M124.9,396.7c0.2,0.2,0.5,0.3,0.8,0.3c0.4,0,0.7-0.1,1.1-0.3
		c0.6-0.3,0.9-0.8,0.9-1.4v-0.8c-0.1,0.1-0.3,0.2-0.5,0.2s-0.4,0.1-0.6,0.1l-0.6,0.1c-0.4,0.1-0.7,0.1-0.9,0.2
		c-0.3,0.2-0.5,0.5-0.5,0.9C124.6,396.2,124.7,396.5,124.9,396.7z"/>
	<path class="st8" d="M130.5,391.3h1v1.1c0.1-0.2,0.3-0.5,0.6-0.8s0.7-0.5,1.1-0.5c0,0,0.1,0,0.1,0s0.1,0,0.2,0v1.1
		c-0.1,0-0.1,0-0.2,0s-0.1,0-0.2,0c-0.5,0-0.9,0.2-1.2,0.5s-0.4,0.7-0.4,1.2v3.6h-1.1V391.3z"/>
	<path class="st8" d="M137.9,391.6c0.2,0.1,0.4,0.3,0.6,0.6v-0.8h1v5.7c0,0.8-0.1,1.4-0.4,1.9c-0.4,0.9-1.3,1.3-2.5,1.3
		c-0.7,0-1.2-0.2-1.7-0.5s-0.7-0.8-0.8-1.4h1.1c0.1,0.3,0.2,0.5,0.3,0.7c0.2,0.2,0.6,0.4,1.1,0.4c0.8,0,1.3-0.3,1.6-0.9
		c0.1-0.3,0.2-0.9,0.2-1.8c-0.2,0.3-0.5,0.6-0.8,0.7s-0.7,0.2-1.2,0.2c-0.7,0-1.3-0.2-1.8-0.7s-0.8-1.3-0.8-2.4
		c0-1.1,0.3-1.9,0.8-2.5s1.1-0.9,1.9-0.9C137.2,391.2,137.6,391.3,137.9,391.6z M138.1,392.7c-0.3-0.4-0.7-0.6-1.2-0.6
		c-0.7,0-1.2,0.3-1.5,1c-0.1,0.4-0.2,0.9-0.2,1.5c0,0.7,0.1,1.2,0.4,1.6s0.7,0.6,1.2,0.6c0.8,0,1.3-0.3,1.6-1
		c0.2-0.4,0.3-0.8,0.3-1.4C138.6,393.7,138.4,393.1,138.1,392.7z"/>
	<path class="st8" d="M144.5,393.8c0.2,0,0.4-0.1,0.5-0.3c0-0.1,0.1-0.2,0.1-0.4c0-0.4-0.1-0.6-0.4-0.8s-0.6-0.2-1.1-0.2
		c-0.6,0-0.9,0.1-1.2,0.4c-0.1,0.2-0.2,0.4-0.3,0.7h-1c0-0.8,0.3-1.3,0.8-1.6s1-0.5,1.7-0.5c0.7,0,1.3,0.1,1.8,0.4
		c0.5,0.3,0.7,0.7,0.7,1.3v3.6c0,0.1,0,0.2,0.1,0.3s0.1,0.1,0.3,0.1c0,0,0.1,0,0.2,0s0.1,0,0.2,0v0.8c-0.2,0-0.3,0.1-0.4,0.1
		s-0.2,0-0.4,0c-0.4,0-0.6-0.1-0.8-0.4c-0.1-0.1-0.1-0.3-0.2-0.6c-0.2,0.3-0.5,0.5-0.9,0.7s-0.8,0.3-1.3,0.3c-0.6,0-1.1-0.2-1.4-0.5
		s-0.6-0.8-0.6-1.3c0-0.6,0.2-1,0.5-1.4s0.8-0.5,1.4-0.6L144.5,393.8z M142.3,396.7c0.2,0.2,0.5,0.3,0.8,0.3c0.4,0,0.7-0.1,1.1-0.3
		c0.6-0.3,0.9-0.8,0.9-1.4v-0.8c-0.1,0.1-0.3,0.2-0.5,0.2s-0.4,0.1-0.6,0.1l-0.6,0.1c-0.4,0.1-0.7,0.1-0.9,0.2
		c-0.3,0.2-0.5,0.5-0.5,0.9C141.9,396.2,142,396.5,142.3,396.7z"/>
</g>
<g class="st7">
	<path class="st8" d="M109.2,403.4h1.7l2.5,7.3l2.5-7.3h1.7v8.6h-1.1v-5.1c0-0.2,0-0.5,0-0.9s0-0.8,0-1.3l-2.5,7.3h-1.2l-2.5-7.3
		v0.3c0,0.2,0,0.5,0,1s0,0.7,0,1v5.1h-1.1V403.4z"/>
	<path class="st8" d="M122.5,408.2c0.2,0,0.4-0.1,0.5-0.3c0-0.1,0.1-0.2,0.1-0.4c0-0.4-0.1-0.6-0.4-0.8s-0.6-0.2-1.1-0.2
		c-0.6,0-0.9,0.1-1.2,0.4c-0.1,0.2-0.2,0.4-0.3,0.7h-1c0-0.8,0.3-1.3,0.8-1.6s1-0.5,1.7-0.5c0.7,0,1.3,0.1,1.8,0.4
		c0.5,0.3,0.7,0.7,0.7,1.3v3.6c0,0.1,0,0.2,0.1,0.3s0.1,0.1,0.3,0.1c0,0,0.1,0,0.2,0s0.1,0,0.2,0v0.8c-0.2,0-0.3,0.1-0.4,0.1
		s-0.2,0-0.4,0c-0.4,0-0.6-0.1-0.8-0.4c-0.1-0.1-0.1-0.3-0.2-0.6c-0.2,0.3-0.5,0.5-0.9,0.7s-0.8,0.3-1.3,0.3c-0.6,0-1.1-0.2-1.4-0.5
		s-0.6-0.8-0.6-1.3c0-0.6,0.2-1,0.5-1.4s0.8-0.5,1.4-0.6L122.5,408.2z M120.2,411.1c0.2,0.2,0.5,0.3,0.8,0.3c0.4,0,0.7-0.1,1.1-0.3
		c0.6-0.3,0.9-0.8,0.9-1.4v-0.8c-0.1,0.1-0.3,0.2-0.5,0.2s-0.4,0.1-0.6,0.1l-0.6,0.1c-0.4,0.1-0.7,0.1-0.9,0.2
		c-0.3,0.2-0.5,0.5-0.5,0.9C119.9,410.6,120,410.9,120.2,411.1z"/>
	<path class="st8" d="M125.8,405.7h1v1.1c0.1-0.2,0.3-0.5,0.6-0.8s0.7-0.5,1.1-0.5c0,0,0.1,0,0.1,0s0.1,0,0.2,0v1.1
		c-0.1,0-0.1,0-0.2,0s-0.1,0-0.2,0c-0.5,0-0.9,0.2-1.2,0.5s-0.4,0.7-0.4,1.2v3.6h-1.1V405.7z"/>
	<path class="st8" d="M133.9,406.1c0.4,0.3,0.7,0.9,0.8,1.8h-1c-0.1-0.4-0.2-0.7-0.4-1s-0.6-0.4-1.1-0.4c-0.7,0-1.2,0.3-1.4,1
		c-0.2,0.4-0.3,1-0.3,1.6c0,0.6,0.1,1.2,0.4,1.6s0.7,0.6,1.3,0.6c0.4,0,0.8-0.1,1-0.4s0.4-0.6,0.5-1.1h1c-0.1,0.8-0.4,1.4-0.9,1.8
		s-1.1,0.6-1.8,0.6c-0.8,0-1.5-0.3-2-0.9s-0.7-1.3-0.7-2.2c0-1.1,0.3-2,0.8-2.6s1.2-0.9,2-0.9C132.9,405.6,133.5,405.7,133.9,406.1z
		"/>
	<path class="st8" d="M135.8,403.4h1.1v3.2c0.2-0.3,0.5-0.5,0.7-0.7c0.3-0.2,0.8-0.3,1.3-0.3c0.9,0,1.5,0.3,1.9,1
		c0.2,0.3,0.3,0.8,0.3,1.4v4h-1.1v-4c0-0.5-0.1-0.8-0.2-1c-0.2-0.3-0.6-0.5-1.1-0.5c-0.4,0-0.8,0.2-1.2,0.5s-0.5,0.9-0.5,1.7v3.3
		h-1.1V403.4z"/>
	<path class="st8" d="M145.8,408.2c0.2,0,0.4-0.1,0.5-0.3c0-0.1,0.1-0.2,0.1-0.4c0-0.4-0.1-0.6-0.4-0.8s-0.6-0.2-1.1-0.2
		c-0.6,0-0.9,0.1-1.2,0.4c-0.1,0.2-0.2,0.4-0.3,0.7h-1c0-0.8,0.3-1.3,0.8-1.6s1-0.5,1.7-0.5c0.7,0,1.3,0.1,1.8,0.4
		c0.5,0.3,0.7,0.7,0.7,1.3v3.6c0,0.1,0,0.2,0.1,0.3s0.1,0.1,0.3,0.1c0,0,0.1,0,0.2,0s0.1,0,0.2,0v0.8c-0.2,0-0.3,0.1-0.4,0.1
		s-0.2,0-0.4,0c-0.4,0-0.6-0.1-0.8-0.4c-0.1-0.1-0.1-0.3-0.2-0.6c-0.2,0.3-0.5,0.5-0.9,0.7s-0.8,0.3-1.3,0.3c-0.6,0-1.1-0.2-1.4-0.5
		s-0.6-0.8-0.6-1.3c0-0.6,0.2-1,0.5-1.4s0.8-0.5,1.4-0.6L145.8,408.2z M143.6,411.1c0.2,0.2,0.5,0.3,0.8,0.3c0.4,0,0.7-0.1,1.1-0.3
		c0.6-0.3,0.9-0.8,0.9-1.4v-0.8c-0.1,0.1-0.3,0.2-0.5,0.2s-0.4,0.1-0.6,0.1l-0.6,0.1c-0.4,0.1-0.7,0.1-0.9,0.2
		c-0.3,0.2-0.5,0.5-0.5,0.9C143.2,410.6,143.4,410.9,143.6,411.1z"/>
	<path class="st8" d="M153.3,410c0,0.6,0.3,1,0.7,1.2c0.2,0.1,0.5,0.2,0.7,0.2c0.5,0,0.9-0.2,1.3-0.6s0.6-1.3,0.8-2.6
		c-0.2,0.4-0.5,0.6-0.9,0.8s-0.7,0.2-1.1,0.2c-0.8,0-1.4-0.3-1.9-0.8s-0.7-1.2-0.7-1.9c0-0.8,0.2-1.4,0.7-2s1.2-0.9,2.1-0.9
		c1.2,0,2.1,0.6,2.5,1.7c0.3,0.6,0.4,1.4,0.4,2.3c0,1-0.2,1.9-0.5,2.7c-0.5,1.3-1.4,2-2.6,2c-0.8,0-1.4-0.2-1.9-0.6s-0.6-1-0.6-1.6
		H153.3z M156,407.9c0.3-0.3,0.5-0.8,0.5-1.4c0-0.6-0.2-1.1-0.5-1.4s-0.7-0.5-1.2-0.5c-0.5,0-0.9,0.2-1.2,0.5s-0.5,0.8-0.5,1.4
		c0,0.5,0.1,1,0.4,1.3s0.7,0.5,1.3,0.5C155.3,408.3,155.7,408.1,156,407.9z"/>
</g>
<g class="st7">
	<path class="st8" d="M121.8,90.7c0.6,0.6,0.9,1.2,1,2h-1.1c-0.1-0.6-0.4-1-0.8-1.3s-0.9-0.5-1.6-0.5c-0.8,0-1.5,0.3-2.1,0.9
		s-0.8,1.5-0.8,2.7c0,1,0.2,1.8,0.7,2.5s1.2,0.9,2.1,0.9c0.9,0,1.5-0.3,2-1c0.2-0.3,0.4-0.8,0.5-1.4h1.1c-0.1,0.9-0.4,1.7-1,2.3
		c-0.7,0.7-1.6,1.1-2.8,1.1c-1,0-1.8-0.3-2.5-0.9c-0.9-0.8-1.3-2-1.3-3.7c0-1.3,0.3-2.3,1-3.1c0.7-0.9,1.7-1.3,3-1.3
		C120.3,89.8,121.2,90.1,121.8,90.7z"/>
	<path class="st8" d="M124.2,90h1.1v3.2c0.2-0.3,0.5-0.5,0.7-0.7c0.3-0.2,0.8-0.3,1.3-0.3c0.9,0,1.5,0.3,1.9,1
		c0.2,0.3,0.3,0.8,0.3,1.4v4h-1.1v-4c0-0.5-0.1-0.8-0.2-1c-0.2-0.3-0.6-0.5-1.1-0.5c-0.4,0-0.8,0.2-1.2,0.5s-0.5,0.9-0.5,1.7v3.3
		h-1.1V90z"/>
	<path class="st8" d="M130.8,90h1.1v1.2h-1.1V90z M130.8,92.4h1.1v6.2h-1.1V92.4z"/>
	<path class="st8" d="M133.5,92.4h1v0.9c0.3-0.4,0.6-0.6,0.9-0.8s0.7-0.2,1.1-0.2c0.9,0,1.5,0.3,1.8,0.9c0.2,0.3,0.3,0.8,0.3,1.5v4
		h-1.1v-4c0-0.4-0.1-0.7-0.2-0.9c-0.2-0.4-0.5-0.6-1-0.6c-0.2,0-0.5,0-0.6,0.1c-0.3,0.1-0.5,0.3-0.8,0.5c-0.2,0.2-0.3,0.4-0.3,0.6
		s-0.1,0.5-0.1,0.9v3.3h-1.1V92.4z"/>
	<path class="st8" d="M143.5,94.8c0.2,0,0.4-0.1,0.5-0.3c0-0.1,0.1-0.2,0.1-0.4c0-0.4-0.1-0.6-0.4-0.8s-0.6-0.2-1.1-0.2
		c-0.6,0-0.9,0.1-1.2,0.4c-0.1,0.2-0.2,0.4-0.3,0.7h-1c0-0.8,0.3-1.3,0.8-1.6s1-0.5,1.7-0.5c0.7,0,1.3,0.1,1.8,0.4
		c0.5,0.3,0.7,0.7,0.7,1.3v3.6c0,0.1,0,0.2,0.1,0.3s0.1,0.1,0.3,0.1c0,0,0.1,0,0.2,0s0.1,0,0.2,0v0.8c-0.2,0-0.3,0.1-0.4,0.1
		s-0.2,0-0.4,0c-0.4,0-0.6-0.1-0.8-0.4c-0.1-0.1-0.1-0.3-0.2-0.6c-0.2,0.3-0.5,0.5-0.9,0.7s-0.8,0.3-1.3,0.3c-0.6,0-1.1-0.2-1.4-0.5
		s-0.6-0.8-0.6-1.3c0-0.6,0.2-1,0.5-1.4s0.8-0.5,1.4-0.6L143.5,94.8z M141.3,97.7c0.2,0.2,0.5,0.3,0.8,0.3c0.4,0,0.7-0.1,1.1-0.3
		c0.6-0.3,0.9-0.8,0.9-1.4v-0.8c-0.1,0.1-0.3,0.2-0.5,0.2s-0.4,0.1-0.6,0.1l-0.6,0.1c-0.4,0.1-0.7,0.1-0.9,0.2
		c-0.3,0.2-0.5,0.5-0.5,0.9C141,97.3,141.1,97.5,141.3,97.7z"/>
</g>
<g class="st7">
	<path class="st8" d="M118.6,111c0,0.6,0.3,1,0.7,1.2c0.2,0.1,0.5,0.2,0.7,0.2c0.5,0,0.9-0.2,1.3-0.6s0.6-1.3,0.8-2.6
		c-0.2,0.4-0.5,0.6-0.9,0.8s-0.7,0.2-1.1,0.2c-0.8,0-1.4-0.3-1.9-0.8s-0.7-1.2-0.7-1.9c0-0.8,0.2-1.4,0.7-2s1.2-0.9,2.1-0.9
		c1.2,0,2.1,0.6,2.5,1.7c0.3,0.6,0.4,1.4,0.4,2.3c0,1-0.2,1.9-0.5,2.7c-0.5,1.3-1.4,2-2.6,2c-0.8,0-1.4-0.2-1.9-0.6s-0.6-1-0.6-1.6
		H118.6z M121.4,108.9c0.3-0.3,0.5-0.8,0.5-1.4c0-0.6-0.2-1.1-0.5-1.4s-0.7-0.5-1.2-0.5c-0.5,0-0.9,0.2-1.2,0.5s-0.5,0.8-0.5,1.4
		c0,0.5,0.1,1,0.4,1.3s0.7,0.5,1.3,0.5C120.6,109.3,121,109.1,121.4,108.9z"/>
	<path class="st8" d="M124.6,112.4c-0.4-0.5-0.7-1.2-0.7-2h1.1c0,0.5,0.1,0.9,0.3,1.2c0.3,0.4,0.8,0.7,1.5,0.7c0.6,0,1-0.1,1.3-0.4
		s0.5-0.7,0.5-1.1c0-0.6-0.2-1-0.5-1.2s-0.8-0.3-1.5-0.3c-0.1,0-0.1,0-0.2,0s-0.1,0-0.2,0v-0.9c0.1,0,0.2,0,0.3,0s0.2,0,0.2,0
		c0.4,0,0.7-0.1,1-0.2c0.4-0.2,0.7-0.6,0.7-1.2c0-0.4-0.1-0.7-0.4-1s-0.6-0.3-1-0.3c-0.7,0-1.2,0.2-1.5,0.7
		c-0.1,0.3-0.2,0.6-0.3,1.1h-1c0-0.6,0.1-1.2,0.4-1.6c0.4-0.8,1.2-1.2,2.3-1.2c0.9,0,1.5,0.2,2,0.6s0.7,0.9,0.7,1.7
		c0,0.5-0.1,0.9-0.4,1.3c-0.2,0.2-0.4,0.4-0.7,0.5c0.4,0.1,0.8,0.4,1,0.7s0.4,0.8,0.4,1.3c0,0.8-0.3,1.5-0.8,2s-1.3,0.8-2.2,0.8
		C125.8,113.3,125.1,113,124.6,112.4z"/>
	<path class="st8" d="M134.5,106.8h1v0.9c0.2-0.3,0.5-0.5,0.7-0.7c0.3-0.2,0.7-0.4,1.2-0.4c0.5,0,0.9,0.1,1.2,0.4
		c0.2,0.1,0.3,0.3,0.5,0.6c0.2-0.3,0.5-0.6,0.8-0.7s0.7-0.2,1.1-0.2c0.8,0,1.4,0.3,1.7,0.9c0.2,0.3,0.2,0.8,0.2,1.3v4.2h-1.1v-4.4
		c0-0.4-0.1-0.7-0.3-0.9s-0.5-0.2-0.8-0.2c-0.4,0-0.8,0.1-1.1,0.4s-0.4,0.7-0.4,1.4v3.7h-1.1v-4.1c0-0.4-0.1-0.7-0.2-0.9
		c-0.2-0.3-0.5-0.4-0.9-0.4c-0.4,0-0.8,0.2-1.1,0.5s-0.5,0.9-0.5,1.7v3.3h-1.1V106.8z"/>
</g>
<g>
	<g>
		<path class="st9" d="M190.4,396.5h1.4l4.3,7v-7h1.1v8.6h-1.3l-4.4-7v7h-1.1V396.5z"/>
		<path class="st9" d="M199.3,399.2v-0.8c0.8-0.1,1.3-0.2,1.6-0.4s0.5-0.6,0.7-1.2h0.8v8.4h-1.1v-5.9H199.3z"/>
	</g>
</g>
<g>
	<g class="st7">
		<path class="st9" d="M177.4,56.6v5.3c0,0.6,0.1,1.1,0.4,1.6c0.3,0.6,0.9,0.9,1.8,0.9c1,0,1.7-0.3,2-1c0.2-0.4,0.3-0.9,0.3-1.5
			v-5.3h1.2v4.8c0,1.1-0.1,1.9-0.4,2.4c-0.5,1-1.5,1.6-3,1.6s-2.4-0.5-3-1.6c-0.3-0.6-0.4-1.4-0.4-2.4v-4.8H177.4z"/>
		<path class="st9" d="M185,56.6h4c0.7,0,1.2,0.1,1.6,0.3c0.8,0.4,1.2,1,1.2,2c0,0.5-0.1,0.9-0.3,1.3s-0.5,0.6-0.9,0.8
			c0.3,0.1,0.6,0.3,0.8,0.5s0.3,0.6,0.3,1.1l0,1.2c0,0.3,0,0.6,0.1,0.7c0.1,0.3,0.2,0.4,0.4,0.5v0.2h-1.4c0-0.1-0.1-0.2-0.1-0.3
			s0-0.3-0.1-0.7l-0.1-1.4c0-0.6-0.2-0.9-0.6-1.1c-0.2-0.1-0.6-0.2-1-0.2h-2.7v3.7H185V56.6z M188.8,60.6c0.5,0,1-0.1,1.3-0.3
			s0.5-0.6,0.5-1.2c0-0.6-0.2-1-0.7-1.3c-0.2-0.1-0.6-0.2-1-0.2h-2.8v2.9H188.8z"/>
		<path class="st9" d="M194.3,62.5c0,0.5,0.1,0.9,0.3,1.2c0.4,0.6,1.1,0.9,2,0.9c0.4,0,0.8-0.1,1.2-0.2c0.7-0.2,1-0.7,1-1.3
			c0-0.5-0.1-0.8-0.4-1c-0.3-0.2-0.8-0.4-1.4-0.5l-1.2-0.3c-0.8-0.2-1.3-0.4-1.6-0.6c-0.5-0.4-0.8-0.9-0.8-1.6
			c0-0.8,0.3-1.4,0.8-1.9s1.3-0.7,2.3-0.7c0.9,0,1.7,0.2,2.3,0.7s0.9,1.1,0.9,2.1h-1.1c-0.1-0.5-0.2-0.8-0.4-1.1
			c-0.4-0.4-1-0.7-1.8-0.7c-0.7,0-1.2,0.1-1.5,0.4s-0.5,0.6-0.5,1c0,0.4,0.2,0.7,0.5,0.9c0.2,0.1,0.8,0.3,1.6,0.5l1.2,0.3
			c0.6,0.1,1,0.3,1.3,0.5c0.5,0.4,0.8,1,0.8,1.8c0,1-0.3,1.6-1,2s-1.5,0.6-2.4,0.6c-1.1,0-1.9-0.3-2.5-0.8c-0.6-0.5-0.9-1.3-0.9-2.2
			H194.3z"/>
		<path class="st9" d="M202.3,62.5c0,0.5,0.1,0.9,0.3,1.2c0.4,0.6,1.1,0.9,2,0.9c0.4,0,0.8-0.1,1.2-0.2c0.7-0.2,1-0.7,1-1.3
			c0-0.5-0.1-0.8-0.4-1c-0.3-0.2-0.8-0.4-1.4-0.5l-1.2-0.3c-0.8-0.2-1.3-0.4-1.6-0.6c-0.5-0.4-0.8-0.9-0.8-1.6
			c0-0.8,0.3-1.4,0.8-1.9s1.3-0.7,2.3-0.7c0.9,0,1.7,0.2,2.3,0.7s0.9,1.1,0.9,2.1h-1.1c-0.1-0.5-0.2-0.8-0.4-1.1
			c-0.4-0.4-1-0.7-1.8-0.7c-0.7,0-1.2,0.1-1.5,0.4s-0.5,0.6-0.5,1c0,0.4,0.2,0.7,0.5,0.9c0.2,0.1,0.8,0.3,1.6,0.5l1.2,0.3
			c0.6,0.1,1,0.3,1.3,0.5c0.5,0.4,0.8,1,0.8,1.8c0,1-0.3,1.6-1,2s-1.5,0.6-2.4,0.6c-1.1,0-1.9-0.3-2.5-0.8c-0.6-0.5-0.9-1.3-0.9-2.2
			H202.3z"/>
	</g>
	<g class="st7">
		<path class="st9" d="M176.4,73.7v-0.8c0.8-0.1,1.3-0.2,1.6-0.4s0.5-0.6,0.7-1.2h0.8v8.4h-1.1v-5.9H176.4z"/>
		<path class="st9" d="M187.5,72.6c0.4,0.7,0.6,1.6,0.6,2.8c0,1.1-0.2,2.1-0.5,2.8c-0.5,1.1-1.3,1.6-2.4,1.6c-1,0-1.8-0.4-2.2-1.3
			c-0.4-0.7-0.6-1.7-0.6-2.9c0-1,0.1-1.8,0.4-2.5c0.5-1.3,1.3-1.9,2.5-1.9C186.3,71.2,187,71.7,187.5,72.6z M186.5,78.2
			c0.3-0.5,0.5-1.4,0.5-2.7c0-1-0.1-1.7-0.4-2.4s-0.7-0.9-1.4-0.9c-0.6,0-1.1,0.3-1.4,0.9s-0.4,1.4-0.4,2.6c0,0.9,0.1,1.5,0.3,2.1
			c0.3,0.8,0.8,1.2,1.4,1.2C185.7,78.9,186.1,78.7,186.5,78.2z"/>
		<path class="st9" d="M190.1,77.5c0.1,0.6,0.3,1,0.8,1.2c0.2,0.1,0.5,0.2,0.9,0.2c0.6,0,1.1-0.2,1.4-0.6s0.5-0.8,0.5-1.3
			c0-0.6-0.2-1-0.5-1.4s-0.8-0.5-1.3-0.5c-0.4,0-0.7,0.1-0.9,0.2s-0.5,0.3-0.7,0.6l-0.9-0.1l0.6-4.5h4.4v1h-3.6l-0.4,2.3
			c0.2-0.1,0.4-0.3,0.6-0.3c0.3-0.1,0.7-0.2,1.1-0.2c0.8,0,1.4,0.2,2,0.7s0.8,1.1,0.8,1.9c0,0.8-0.2,1.5-0.7,2.1s-1.3,0.9-2.3,0.9
			c-0.7,0-1.3-0.2-1.8-0.6s-0.8-1-0.9-1.8H190.1z"/>
		<path class="st9" d="M199.4,73.4h1v0.9c0.2-0.3,0.5-0.5,0.7-0.7c0.3-0.2,0.7-0.4,1.2-0.4c0.5,0,0.9,0.1,1.2,0.4
			c0.2,0.1,0.3,0.3,0.5,0.6c0.2-0.3,0.5-0.6,0.8-0.7s0.7-0.2,1.1-0.2c0.8,0,1.4,0.3,1.7,0.9c0.2,0.3,0.2,0.8,0.2,1.3v4.2h-1.1v-4.4
			c0-0.4-0.1-0.7-0.3-0.9s-0.5-0.2-0.8-0.2c-0.4,0-0.8,0.1-1.1,0.4s-0.4,0.7-0.4,1.4v3.7h-1.1v-4.1c0-0.4-0.1-0.7-0.2-0.9
			c-0.2-0.3-0.5-0.4-0.9-0.4c-0.4,0-0.8,0.2-1.1,0.5s-0.5,0.9-0.5,1.7v3.3h-1.1V73.4z"/>
	</g>
</g>
<g>
	<g class="st7">
		<path class="st9" d="M249.3,395.5c0,0.5,0.1,0.9,0.3,1.2c0.4,0.6,1.1,0.9,2,0.9c0.4,0,0.8-0.1,1.2-0.2c0.7-0.2,1-0.7,1-1.3
			c0-0.5-0.1-0.8-0.4-1c-0.3-0.2-0.8-0.4-1.4-0.5l-1.2-0.3c-0.8-0.2-1.3-0.4-1.6-0.6c-0.5-0.4-0.8-0.9-0.8-1.6
			c0-0.8,0.3-1.4,0.8-1.9s1.3-0.7,2.3-0.7c0.9,0,1.7,0.2,2.3,0.7s0.9,1.1,0.9,2.1h-1.1c-0.1-0.5-0.2-0.8-0.4-1.1
			c-0.4-0.4-1-0.7-1.8-0.7c-0.7,0-1.2,0.1-1.5,0.4s-0.5,0.6-0.5,1c0,0.4,0.2,0.7,0.5,0.9c0.2,0.1,0.8,0.3,1.6,0.5l1.2,0.3
			c0.6,0.1,1,0.3,1.3,0.5c0.5,0.4,0.8,1,0.8,1.8c0,1-0.3,1.6-1,2s-1.5,0.6-2.4,0.6c-1.1,0-1.9-0.3-2.5-0.8c-0.6-0.5-0.9-1.3-0.9-2.2
			H249.3z"/>
		<path class="st9" d="M256.5,389.7h1.2v7.6h4.4v1h-5.5V389.7z"/>
		<path class="st9" d="M263.9,395.5c0,0.5,0.1,0.9,0.3,1.2c0.4,0.6,1.1,0.9,2,0.9c0.4,0,0.8-0.1,1.2-0.2c0.7-0.2,1-0.7,1-1.3
			c0-0.5-0.1-0.8-0.4-1c-0.3-0.2-0.8-0.4-1.4-0.5l-1.2-0.3c-0.8-0.2-1.3-0.4-1.6-0.6c-0.5-0.4-0.8-0.9-0.8-1.6
			c0-0.8,0.3-1.4,0.8-1.9s1.3-0.7,2.3-0.7c0.9,0,1.7,0.2,2.3,0.7s0.9,1.1,0.9,2.1h-1.1c-0.1-0.5-0.2-0.8-0.4-1.1
			c-0.4-0.4-1-0.7-1.8-0.7c-0.7,0-1.2,0.1-1.5,0.4s-0.5,0.6-0.5,1c0,0.4,0.2,0.7,0.5,0.9c0.2,0.1,0.8,0.3,1.6,0.5l1.2,0.3
			c0.6,0.1,1,0.3,1.3,0.5c0.5,0.4,0.8,1,0.8,1.8c0,1-0.3,1.6-1,2s-1.5,0.6-2.4,0.6c-1.1,0-1.9-0.3-2.5-0.8c-0.6-0.5-0.9-1.3-0.9-2.2
			H263.9z"/>
	</g>
	<g class="st7">
		<path class="st9" d="M240.2,404.1h3.7c1,0,1.7,0.3,2.2,0.9c0.2,0.4,0.4,0.8,0.4,1.2c0,0.5-0.2,1-0.5,1.3c-0.2,0.2-0.4,0.4-0.7,0.5
			c0.4,0.2,0.8,0.4,1,0.6c0.4,0.4,0.6,0.9,0.6,1.6c0,0.6-0.2,1.1-0.5,1.5c-0.5,0.7-1.3,1-2.5,1h-3.6V404.1z M243.4,407.7
			c0.5,0,0.9-0.1,1.1-0.2c0.4-0.2,0.6-0.6,0.6-1.2c0-0.6-0.2-0.9-0.7-1.1c-0.3-0.1-0.6-0.2-1.1-0.2h-2.1v2.7H243.4z M243.8,411.7
			c0.7,0,1.2-0.2,1.5-0.6c0.2-0.3,0.3-0.6,0.3-0.9c0-0.6-0.3-1.1-0.8-1.3c-0.3-0.1-0.7-0.2-1.2-0.2h-2.3v3H243.8z"/>
		<path class="st9" d="M248.1,404.1h1.1v8.6h-1.1V404.1z"/>
		<path class="st9" d="M255.3,407c0.6,0.5,0.8,1.3,0.8,2.4c0,1-0.2,1.8-0.7,2.5s-1.3,1-2.3,1c-0.9,0-1.5-0.3-2.1-0.9
			s-0.8-1.4-0.8-2.4c0-1.1,0.3-1.9,0.8-2.5s1.3-0.9,2.2-0.9C254.1,406.2,254.7,406.5,255.3,407z M254.7,411.2
			c0.3-0.5,0.4-1.1,0.4-1.8c0-0.6-0.1-1.1-0.3-1.4c-0.3-0.6-0.8-0.9-1.5-0.9c-0.6,0-1.1,0.2-1.4,0.7s-0.4,1.1-0.4,1.8
			c0,0.7,0.1,1.2,0.4,1.7s0.8,0.7,1.4,0.7C253.9,412,254.4,411.7,254.7,411.2z"/>
		<path class="st9" d="M261.5,406.7c0.4,0.3,0.7,0.9,0.8,1.8h-1c-0.1-0.4-0.2-0.7-0.4-1s-0.6-0.4-1.1-0.4c-0.7,0-1.2,0.3-1.4,1
			c-0.2,0.4-0.3,1-0.3,1.6c0,0.6,0.1,1.2,0.4,1.6s0.7,0.6,1.3,0.6c0.4,0,0.8-0.1,1-0.4s0.4-0.6,0.5-1.1h1c-0.1,0.8-0.4,1.4-0.9,1.8
			s-1.1,0.6-1.8,0.6c-0.8,0-1.5-0.3-2-0.9s-0.7-1.3-0.7-2.2c0-1.1,0.3-2,0.8-2.6s1.2-0.9,2-0.9C260.5,406.2,261.1,406.4,261.5,406.7
			z"/>
		<path class="st9" d="M263.4,404.1h1v5l2.7-2.7h1.3l-2.4,2.3l2.5,3.9h-1.3l-2-3.2l-0.9,0.8v2.4h-1V404.1z"/>
		<path class="st9" d="M272.8,410.8c0.3-0.5,0.8-1,1.5-1.5l1.1-0.7c0.5-0.3,0.9-0.5,1.1-0.8c0.3-0.3,0.5-0.7,0.5-1.1
			c0-0.5-0.1-0.9-0.4-1.2s-0.7-0.4-1.2-0.4c-0.7,0-1.2,0.3-1.5,0.8c-0.1,0.3-0.2,0.7-0.2,1.2h-1.1c0-0.7,0.1-1.3,0.4-1.8
			c0.5-0.8,1.3-1.2,2.4-1.2c1,0,1.7,0.3,2.1,0.8s0.7,1.1,0.7,1.7c0,0.7-0.2,1.2-0.7,1.7c-0.3,0.3-0.8,0.6-1.5,1l-0.8,0.4
			c-0.4,0.2-0.7,0.4-0.9,0.6c-0.4,0.3-0.6,0.7-0.7,1.1h4.6v1h-5.8C272.4,411.9,272.5,411.3,272.8,410.8z"/>
	</g>
	<g class="st7">
		<path class="st9" d="M249.7,419.1c0.6,0.6,0.9,1.2,1,2h-1.1c-0.1-0.6-0.4-1-0.8-1.3s-0.9-0.5-1.6-0.5c-0.8,0-1.5,0.3-2.1,0.9
			s-0.8,1.5-0.8,2.7c0,1,0.2,1.8,0.7,2.5s1.2,0.9,2.1,0.9c0.9,0,1.5-0.3,2-1c0.2-0.3,0.4-0.8,0.5-1.4h1.1c-0.1,0.9-0.4,1.7-1,2.3
			c-0.7,0.7-1.6,1.1-2.8,1.1c-1,0-1.8-0.3-2.5-0.9c-0.9-0.8-1.3-2-1.3-3.7c0-1.3,0.3-2.3,1-3.1c0.7-0.9,1.7-1.3,3-1.3
			C248.2,418.2,249.1,418.5,249.7,419.1z"/>
		<path class="st9" d="M255.4,423.3c0.2,0,0.4-0.1,0.5-0.3c0-0.1,0.1-0.2,0.1-0.4c0-0.4-0.1-0.6-0.4-0.8s-0.6-0.2-1.1-0.2
			c-0.6,0-0.9,0.1-1.2,0.4c-0.1,0.2-0.2,0.4-0.3,0.7h-1c0-0.8,0.3-1.3,0.8-1.6s1-0.5,1.7-0.5c0.7,0,1.3,0.1,1.8,0.4
			c0.5,0.3,0.7,0.7,0.7,1.3v3.6c0,0.1,0,0.2,0.1,0.3s0.1,0.1,0.3,0.1c0,0,0.1,0,0.2,0s0.1,0,0.2,0v0.8c-0.2,0-0.3,0.1-0.4,0.1
			s-0.2,0-0.4,0c-0.4,0-0.6-0.1-0.8-0.4c-0.1-0.1-0.1-0.3-0.2-0.6c-0.2,0.3-0.5,0.5-0.9,0.7s-0.8,0.3-1.3,0.3
			c-0.6,0-1.1-0.2-1.4-0.5s-0.6-0.8-0.6-1.3c0-0.6,0.2-1,0.5-1.4s0.8-0.5,1.4-0.6L255.4,423.3z M253.2,426.1
			c0.2,0.2,0.5,0.3,0.8,0.3c0.4,0,0.7-0.1,1.1-0.3c0.6-0.3,0.9-0.8,0.9-1.4v-0.8c-0.1,0.1-0.3,0.2-0.5,0.2s-0.4,0.1-0.6,0.1
			l-0.6,0.1c-0.4,0.1-0.7,0.1-0.9,0.2c-0.3,0.2-0.5,0.5-0.5,0.9C252.8,425.7,252.9,425.9,253.2,426.1z"/>
		<path class="st9" d="M258.7,420.8h1v1.1c0.1-0.2,0.3-0.5,0.6-0.8s0.7-0.5,1.1-0.5c0,0,0.1,0,0.1,0s0.1,0,0.2,0v1.1
			c-0.1,0-0.1,0-0.2,0s-0.1,0-0.2,0c-0.5,0-0.9,0.2-1.2,0.5s-0.4,0.7-0.4,1.2v3.6h-1.1V420.8z"/>
		<path class="st9" d="M266.2,421c0.2,0.1,0.4,0.3,0.6,0.6v-0.8h1v5.7c0,0.8-0.1,1.4-0.4,1.9c-0.4,0.9-1.3,1.3-2.5,1.3
			c-0.7,0-1.2-0.2-1.7-0.5s-0.7-0.8-0.8-1.4h1.1c0.1,0.3,0.2,0.5,0.3,0.7c0.2,0.2,0.6,0.4,1.1,0.4c0.8,0,1.3-0.3,1.6-0.9
			c0.1-0.3,0.2-0.9,0.2-1.8c-0.2,0.3-0.5,0.6-0.8,0.7s-0.7,0.2-1.2,0.2c-0.7,0-1.3-0.2-1.8-0.7s-0.8-1.3-0.8-2.4
			c0-1.1,0.3-1.9,0.8-2.5s1.1-0.9,1.9-0.9C265.4,420.7,265.8,420.8,266.2,421z M266.3,422.2c-0.3-0.4-0.7-0.6-1.2-0.6
			c-0.7,0-1.2,0.3-1.5,1c-0.1,0.4-0.2,0.9-0.2,1.5c0,0.7,0.1,1.2,0.4,1.6s0.7,0.6,1.2,0.6c0.8,0,1.3-0.3,1.6-1
			c0.2-0.4,0.3-0.8,0.3-1.4C266.8,423.1,266.6,422.6,266.3,422.2z"/>
		<path class="st9" d="M273.9,421.4c0.6,0.5,0.8,1.3,0.8,2.4c0,1-0.2,1.8-0.7,2.5s-1.3,1-2.3,1c-0.9,0-1.5-0.3-2.1-0.9
			s-0.8-1.4-0.8-2.4c0-1.1,0.3-1.9,0.8-2.5s1.3-0.9,2.2-0.9C272.7,420.6,273.4,420.9,273.9,421.4z M273.3,425.6
			c0.3-0.5,0.4-1.1,0.4-1.8c0-0.6-0.1-1.1-0.3-1.4c-0.3-0.6-0.8-0.9-1.5-0.9c-0.6,0-1.1,0.2-1.4,0.7s-0.4,1.1-0.4,1.8
			c0,0.7,0.1,1.2,0.4,1.7s0.8,0.7,1.4,0.7C272.6,426.4,273,426.1,273.3,425.6z"/>
	</g>
</g>
<g>
	<g class="st7">
		<path class="st9" d="M248.8,36.3v5.3c0,0.6,0.1,1.1,0.4,1.6c0.3,0.6,0.9,0.9,1.8,0.9c1,0,1.7-0.3,2-1c0.2-0.4,0.3-0.9,0.3-1.5
			v-5.3h1.2v4.8c0,1.1-0.1,1.9-0.4,2.4c-0.5,1-1.5,1.6-3,1.6s-2.4-0.5-3-1.6c-0.3-0.6-0.4-1.4-0.4-2.4v-4.8H248.8z"/>
		<path class="st9" d="M256.9,42.1c0,0.5,0.1,0.9,0.3,1.2c0.4,0.6,1.1,0.9,2,0.9c0.4,0,0.8-0.1,1.2-0.2c0.7-0.2,1-0.7,1-1.3
			c0-0.5-0.1-0.8-0.4-1c-0.3-0.2-0.8-0.4-1.4-0.5l-1.2-0.3c-0.8-0.2-1.3-0.4-1.6-0.6c-0.5-0.4-0.8-0.9-0.8-1.6
			c0-0.8,0.3-1.4,0.8-1.9s1.3-0.7,2.3-0.7c0.9,0,1.7,0.2,2.3,0.7s0.9,1.1,0.9,2.1h-1.1c-0.1-0.5-0.2-0.8-0.4-1.1
			c-0.4-0.4-1-0.7-1.8-0.7c-0.7,0-1.2,0.1-1.5,0.4s-0.5,0.6-0.5,1c0,0.4,0.2,0.7,0.5,0.9c0.2,0.1,0.8,0.3,1.6,0.5l1.2,0.3
			c0.6,0.1,1,0.3,1.3,0.5c0.5,0.4,0.8,1,0.8,1.8c0,1-0.3,1.6-1,2s-1.5,0.6-2.4,0.6c-1.1,0-1.9-0.3-2.5-0.8c-0.6-0.5-0.9-1.3-0.9-2.2
			H256.9z"/>
		<path class="st9" d="M266.7,36.3h1.3l3.1,8.6h-1.3l-0.9-2.6h-3.4l-0.9,2.6h-1.2L266.7,36.3z M268.6,41.4l-1.3-3.8l-1.4,3.8H268.6z
			"/>
	</g>
	<g class="st7">
		<path class="st9" d="M245.1,53.4v-0.8c0.8-0.1,1.3-0.2,1.6-0.4s0.5-0.6,0.7-1.2h0.8v8.4H247v-5.9H245.1z"/>
		<path class="st9" d="M250.8,53.4v-0.8c0.8-0.1,1.3-0.2,1.6-0.4s0.5-0.6,0.7-1.2h0.8v8.4h-1.1v-5.9H250.8z"/>
		<path class="st9" d="M262,52.3c0.4,0.7,0.6,1.6,0.6,2.8c0,1.1-0.2,2.1-0.5,2.8c-0.5,1.1-1.3,1.6-2.4,1.6c-1,0-1.8-0.4-2.2-1.3
			c-0.4-0.7-0.6-1.7-0.6-2.9c0-1,0.1-1.8,0.4-2.5c0.5-1.3,1.3-1.9,2.5-1.9C260.7,50.9,261.5,51.4,262,52.3z M260.9,57.9
			c0.3-0.5,0.5-1.4,0.5-2.7c0-1-0.1-1.7-0.4-2.4s-0.7-0.9-1.4-0.9c-0.6,0-1.1,0.3-1.4,0.9s-0.4,1.4-0.4,2.6c0,0.9,0.1,1.5,0.3,2.1
			c0.3,0.8,0.8,1.2,1.4,1.2C260.1,58.6,260.6,58.3,260.9,57.9z"/>
		<path class="st9" d="M264,60.5c0.3,0,0.5-0.2,0.6-0.6c0.1-0.2,0.1-0.3,0.1-0.5c0,0,0-0.1,0-0.1s0,0,0-0.1H264V58h1.3v1.2
			c0,0.5-0.1,0.9-0.3,1.2s-0.5,0.6-1,0.7V60.5z"/>
		<path class="st9" d="M271.8,51.6c0.4,0.5,0.6,1,0.6,1.5h-1c-0.1-0.3-0.2-0.6-0.3-0.8c-0.3-0.4-0.6-0.5-1.2-0.5
			c-0.6,0-1.1,0.3-1.4,0.8S268,54,267.9,55c0.2-0.4,0.5-0.6,0.9-0.8c0.3-0.2,0.7-0.2,1.1-0.2c0.7,0,1.3,0.2,1.8,0.7s0.8,1.1,0.8,2
			c0,0.8-0.2,1.4-0.7,2s-1.2,0.9-2.1,0.9c-0.8,0-1.5-0.3-2-0.9s-0.9-1.6-0.9-3c0-1,0.1-1.9,0.4-2.7c0.5-1.4,1.4-2.1,2.7-2.1
			C270.8,50.9,271.5,51.1,271.8,51.6z M271.1,58c0.3-0.4,0.4-0.8,0.4-1.3c0-0.4-0.1-0.8-0.4-1.2s-0.7-0.6-1.3-0.6
			c-0.5,0-0.9,0.2-1.2,0.5s-0.5,0.8-0.5,1.4c0,0.5,0.2,1,0.5,1.3s0.7,0.5,1.3,0.5C270.4,58.6,270.8,58.4,271.1,58z"/>
	</g>
</g>
<g>
	<g>
		<path class="st9" d="M297.6,397.5c0,0.5,0.1,0.9,0.3,1.2c0.4,0.6,1.1,0.9,2,0.9c0.4,0,0.8-0.1,1.2-0.2c0.7-0.2,1-0.7,1-1.3
			c0-0.5-0.1-0.8-0.4-1c-0.3-0.2-0.8-0.4-1.4-0.5l-1.2-0.3c-0.8-0.2-1.3-0.4-1.6-0.6c-0.5-0.4-0.8-0.9-0.8-1.6
			c0-0.8,0.3-1.4,0.8-1.9s1.3-0.7,2.3-0.7c0.9,0,1.7,0.2,2.3,0.7s0.9,1.1,0.9,2.1H302c-0.1-0.5-0.2-0.8-0.4-1.1
			c-0.4-0.4-1-0.7-1.8-0.7c-0.7,0-1.2,0.1-1.5,0.4s-0.5,0.6-0.5,1c0,0.4,0.2,0.7,0.5,0.9c0.2,0.1,0.8,0.3,1.6,0.5l1.2,0.3
			c0.6,0.1,1,0.3,1.3,0.5c0.5,0.4,0.8,1,0.8,1.8c0,1-0.3,1.6-1,2s-1.5,0.6-2.4,0.6c-1.1,0-1.9-0.3-2.5-0.8c-0.6-0.5-0.9-1.3-0.9-2.2
			H297.6z"/>
		<path class="st9" d="M304.9,392.2h1.1v1.8h1v0.9h-1v4.1c0,0.2,0.1,0.4,0.2,0.4c0.1,0,0.2,0.1,0.4,0.1c0.1,0,0.1,0,0.2,0
			s0.1,0,0.2,0v0.8c-0.1,0-0.2,0.1-0.4,0.1s-0.3,0-0.4,0c-0.5,0-0.8-0.1-1-0.4s-0.3-0.6-0.3-1v-4.2h-0.8V394h0.8V392.2z"/>
		<path class="st9" d="M311.4,396.5c0.2,0,0.4-0.1,0.5-0.3c0-0.1,0.1-0.2,0.1-0.4c0-0.4-0.1-0.6-0.4-0.8s-0.6-0.2-1.1-0.2
			c-0.6,0-0.9,0.1-1.2,0.4c-0.1,0.2-0.2,0.4-0.3,0.7h-1c0-0.8,0.3-1.3,0.8-1.6s1-0.5,1.7-0.5c0.7,0,1.3,0.1,1.8,0.4
			c0.5,0.3,0.7,0.7,0.7,1.3v3.6c0,0.1,0,0.2,0.1,0.3s0.1,0.1,0.3,0.1c0,0,0.1,0,0.2,0s0.1,0,0.2,0v0.8c-0.2,0-0.3,0.1-0.4,0.1
			s-0.2,0-0.4,0c-0.4,0-0.6-0.1-0.8-0.4c-0.1-0.1-0.1-0.3-0.2-0.6c-0.2,0.3-0.5,0.5-0.9,0.7s-0.8,0.3-1.3,0.3
			c-0.6,0-1.1-0.2-1.4-0.5s-0.6-0.8-0.6-1.3c0-0.6,0.2-1,0.5-1.4s0.8-0.5,1.4-0.6L311.4,396.5z M309.2,399.3
			c0.2,0.2,0.5,0.3,0.8,0.3c0.4,0,0.7-0.1,1.1-0.3c0.6-0.3,0.9-0.8,0.9-1.4v-0.8c-0.1,0.1-0.3,0.2-0.5,0.2s-0.4,0.1-0.6,0.1
			l-0.6,0.1c-0.4,0.1-0.7,0.1-0.9,0.2c-0.3,0.2-0.5,0.5-0.5,0.9C308.8,398.9,309,399.1,309.2,399.3z"/>
		<path class="st9" d="M314.7,394h1v1.1c0.1-0.2,0.3-0.5,0.6-0.8s0.7-0.5,1.1-0.5c0,0,0.1,0,0.1,0s0.1,0,0.2,0v1.1
			c-0.1,0-0.1,0-0.2,0s-0.1,0-0.2,0c-0.5,0-0.9,0.2-1.2,0.5s-0.4,0.7-0.4,1.2v3.6h-1.1V394z"/>
		<path class="st9" d="M319.3,398.3c0,0.4,0.1,0.6,0.3,0.8c0.3,0.3,0.7,0.5,1.4,0.5c0.4,0,0.7-0.1,1-0.3s0.4-0.4,0.4-0.8
			c0-0.3-0.1-0.5-0.4-0.6c-0.2-0.1-0.5-0.2-0.9-0.3l-0.8-0.2c-0.5-0.1-0.9-0.3-1.2-0.4c-0.5-0.3-0.7-0.7-0.7-1.2
			c0-0.6,0.2-1.1,0.6-1.4s1-0.6,1.7-0.6c0.9,0,1.6,0.3,2,0.8c0.3,0.4,0.4,0.7,0.4,1.1h-1c0-0.2-0.1-0.5-0.3-0.7
			c-0.2-0.3-0.7-0.4-1.3-0.4c-0.4,0-0.7,0.1-0.9,0.2s-0.3,0.4-0.3,0.6c0,0.3,0.1,0.5,0.4,0.7c0.2,0.1,0.4,0.2,0.7,0.3l0.7,0.2
			c0.8,0.2,1.3,0.4,1.5,0.5c0.4,0.3,0.6,0.7,0.6,1.3c0,0.6-0.2,1-0.6,1.4s-1.1,0.6-1.9,0.6c-0.9,0-1.6-0.2-2-0.6s-0.6-0.9-0.6-1.6
			H319.3z"/>
		<path class="st9" d="M324.7,391.6h1.1v3.2c0.2-0.3,0.5-0.5,0.7-0.7c0.3-0.2,0.8-0.3,1.3-0.3c0.9,0,1.5,0.3,1.9,1
			c0.2,0.3,0.3,0.8,0.3,1.4v4h-1.1v-4c0-0.5-0.1-0.8-0.2-1c-0.2-0.3-0.6-0.5-1.1-0.5c-0.4,0-0.8,0.2-1.2,0.5s-0.5,0.9-0.5,1.7v3.3
			h-1.1V391.6z"/>
		<path class="st9" d="M331.4,391.7h1.1v1.2h-1.1V391.7z M331.4,394h1.1v6.2h-1.1V394z"/>
		<path class="st9" d="M334,394h1v0.8c0.2-0.3,0.4-0.5,0.7-0.7c0.4-0.2,0.8-0.4,1.3-0.4c0.7,0,1.3,0.3,1.8,0.8s0.7,1.3,0.7,2.3
			c0,1.4-0.4,2.3-1.1,2.9c-0.5,0.4-1,0.6-1.6,0.6c-0.5,0-0.9-0.1-1.2-0.3c-0.2-0.1-0.4-0.3-0.6-0.6v3.2H334V394z M337.9,398.9
			c0.3-0.4,0.5-1,0.5-1.8c0-0.5-0.1-0.9-0.2-1.3c-0.3-0.7-0.8-1-1.5-1c-0.7,0-1.2,0.4-1.5,1.1c-0.1,0.4-0.2,0.9-0.2,1.5
			c0,0.5,0.1,0.9,0.2,1.2c0.3,0.6,0.8,1,1.5,1C337.2,399.6,337.6,399.4,337.9,398.9z"/>
	</g>
</g>
<g>
	<g class="st7">
		<path class="st9" d="M307.8,21.2v5.3c0,0.6,0.1,1.1,0.4,1.6c0.3,0.6,0.9,0.9,1.8,0.9c1,0,1.7-0.3,2-1c0.2-0.4,0.3-0.9,0.3-1.5
			v-5.3h1.2V26c0,1.1-0.1,1.9-0.4,2.4c-0.5,1-1.5,1.6-3,1.6s-2.4-0.5-3-1.6c-0.3-0.6-0.4-1.4-0.4-2.4v-4.8H307.8z"/>
		<path class="st9" d="M315.9,27c0,0.5,0.1,0.9,0.3,1.2c0.4,0.6,1.1,0.9,2,0.9c0.4,0,0.8-0.1,1.2-0.2c0.7-0.2,1-0.7,1-1.3
			c0-0.5-0.1-0.8-0.4-1c-0.3-0.2-0.8-0.4-1.4-0.5l-1.2-0.3c-0.8-0.2-1.3-0.4-1.6-0.6c-0.5-0.4-0.8-0.9-0.8-1.6
			c0-0.8,0.3-1.4,0.8-1.9s1.3-0.7,2.3-0.7c0.9,0,1.7,0.2,2.3,0.7s0.9,1.1,0.9,2.1h-1.1c-0.1-0.5-0.2-0.8-0.4-1.1
			c-0.4-0.4-1-0.7-1.8-0.7c-0.7,0-1.2,0.1-1.5,0.4s-0.5,0.6-0.5,1c0,0.4,0.2,0.7,0.5,0.9c0.2,0.1,0.8,0.3,1.6,0.5l1.2,0.3
			c0.6,0.1,1,0.3,1.3,0.5c0.5,0.4,0.8,1,0.8,1.8c0,1-0.3,1.6-1,2s-1.5,0.6-2.4,0.6c-1.1,0-1.9-0.3-2.5-0.8c-0.6-0.5-0.9-1.3-0.9-2.2
			H315.9z"/>
		<path class="st9" d="M325.7,21.2h1.3l3.1,8.6h-1.3l-0.9-2.6h-3.4l-0.9,2.6h-1.2L325.7,21.2z M327.6,26.3l-1.3-3.8l-1.4,3.8H327.6z
			"/>
	</g>
	<g class="st7">
		<path class="st9" d="M302.4,38.3v-0.8c0.8-0.1,1.3-0.2,1.6-0.4s0.5-0.6,0.7-1.2h0.8v8.4h-1.1v-5.9H302.4z"/>
		<path class="st9" d="M308.8,42.3c0.3-0.5,0.8-1,1.5-1.5l1.1-0.7c0.5-0.3,0.9-0.5,1.1-0.8c0.3-0.3,0.5-0.7,0.5-1.1
			c0-0.5-0.1-0.9-0.4-1.2s-0.7-0.4-1.2-0.4c-0.7,0-1.2,0.3-1.5,0.8c-0.1,0.3-0.2,0.7-0.2,1.2h-1.1c0-0.7,0.1-1.3,0.4-1.8
			c0.5-0.8,1.3-1.2,2.4-1.2c1,0,1.7,0.3,2.1,0.8s0.7,1.1,0.7,1.7c0,0.7-0.2,1.2-0.7,1.7c-0.3,0.3-0.8,0.6-1.5,1l-0.8,0.4
			c-0.4,0.2-0.7,0.4-0.9,0.6c-0.4,0.3-0.6,0.7-0.7,1.1h4.6v1h-5.8C308.4,43.5,308.5,42.9,308.8,42.3z"/>
		<path class="st9" d="M320.2,37.2c0.4,0.7,0.6,1.6,0.6,2.8c0,1.1-0.2,2.1-0.5,2.8c-0.5,1.1-1.3,1.6-2.4,1.6c-1,0-1.8-0.4-2.2-1.3
			c-0.4-0.7-0.6-1.7-0.6-2.9c0-1,0.1-1.8,0.4-2.5c0.5-1.3,1.3-1.9,2.5-1.9C319,35.8,319.8,36.3,320.2,37.2z M319.2,42.7
			c0.3-0.5,0.5-1.4,0.5-2.7c0-1-0.1-1.7-0.4-2.4s-0.7-0.9-1.4-0.9c-0.6,0-1.1,0.3-1.4,0.9s-0.4,1.4-0.4,2.6c0,0.9,0.1,1.5,0.3,2.1
			c0.3,0.8,0.8,1.2,1.4,1.2C318.4,43.5,318.9,43.2,319.2,42.7z"/>
		<path class="st9" d="M325.4,37.9h1v0.9c0.2-0.3,0.5-0.5,0.7-0.7c0.3-0.2,0.7-0.4,1.2-0.4c0.5,0,0.9,0.1,1.2,0.4
			c0.2,0.1,0.3,0.3,0.5,0.6c0.2-0.3,0.5-0.6,0.8-0.7s0.7-0.2,1.1-0.2c0.8,0,1.4,0.3,1.7,0.9c0.2,0.3,0.2,0.8,0.2,1.3v4.2h-1.1v-4.4
			c0-0.4-0.1-0.7-0.3-0.9s-0.5-0.2-0.8-0.2c-0.4,0-0.8,0.1-1.1,0.4s-0.4,0.7-0.4,1.4v3.7h-1.1v-4.1c0-0.4-0.1-0.7-0.2-0.9
			c-0.2-0.3-0.5-0.4-0.9-0.4c-0.4,0-0.8,0.2-1.1,0.5s-0.5,0.9-0.5,1.7v3.3h-1.1V37.9z"/>
	</g>
</g>
</svg>
