<svg id="Layer_1" data-name="Layer 1" xmlns="http://www.w3.org/2000/svg" viewBox="0 0 425 425"><defs><style>.cls-1{fill:#231f20;stroke:#fff;}.cls-1,.cls-3{stroke-miterlimit:10;}.cls-2,.cls-3{fill:#fff;}.cls-3{stroke:#231f20;}.cls-4{fill:#f9f9fa;}</style></defs><rect width="425" height="425"/><path class="cls-1" d="M131.23,116s-8.39,10.32-9.35,16.29a4.77,4.77,0,0,0,.08,2.25h17.11S140.51,128.62,131.23,116Z"/><polygon class="cls-1" points="119.01 362.53 142.51 362.53 142.51 248.66 139.24 236.09 139.07 134.52 121.96 134.52 121.78 236.6 119.01 248.53 119.01 362.53"/><path class="cls-1" d="M142.57,361.69s8.89,2.11,10.58-1.27v-79s-6-13.29-10.58-13.49Z"/><path class="cls-1" d="M119.22,361.85s-8.9,2.1-10.58-1.27v-79s6-13.29,10.58-13.48Z"/><polygon class="cls-1" points="126.17 362.34 123.65 367.17 137.64 367.17 135.91 362.34 126.17 362.34"/><polygon class="cls-1" points="110.32 361.43 105.5 367.17 119.22 367.17 117.95 362.1 110.32 361.43"/><polygon class="cls-1" points="144.52 362.34 142.51 367.17 153.15 367.17 150.55 361.43 144.52 362.34"/><rect class="cls-1" x="128.28" y="247.05" width="5.06" height="5.06"/><rect class="cls-1" x="128.28" y="253.79" width="5.06" height="5.06"/><rect class="cls-1" x="128.28" y="260.54" width="5.06" height="5.06"/><rect class="cls-2" x="121.96" y="180.88" width="16.86" height="37.93"/><rect class="cls-2" x="121.96" y="164.87" width="16.86" height="5.06"/><rect class="cls-2" x="119.43" y="269.39" width="22.76" height="20.23"/><rect class="cls-2" x="119.43" y="322.49" width="22.76" height="9.27"/><rect class="cls-2" x="119.43" y="351.15" width="22.76" height="10.96"/><rect class="cls-1" x="126.18" y="282.03" width="9.74" height="80.31"/><polygon class="cls-1" points="130.76 267.02 126.17 282.03 135.91 282.03 130.76 267.02"/><line class="cls-2" x1="86.78" y1="367.19" x2="86.78" y2="359"/><path class="cls-2" d="M83.24,367.54c0,1.79-.79,2.79-2.17,2.79-1.22,0-2-1-2.06-2.72s.9-2.74,2.17-2.74S83.24,365.86,83.24,367.54Zm-3.39.08c0,1.37.5,2.15,1.27,2.15s1.28-.85,1.28-2.2-.4-2.15-1.27-2.15S79.85,366.19,79.85,367.62Z"/><path class="cls-2" d="M74.17,315.65v-.44l.66-.55c1.6-1.28,2.32-2,2.33-2.76,0-.53-.31-1-1.24-1a2.38,2.38,0,0,0-1.33.45l-.27-.5a3.07,3.07,0,0,1,1.77-.54c1.34,0,1.91.78,1.91,1.53,0,1-.83,1.77-2.15,2.84l-.5.39h2.8v.6Z"/><path class="cls-2" d="M83.24,313c0,1.8-.79,2.79-2.17,2.79-1.22,0-2-1-2.06-2.72s.9-2.74,2.17-2.74S83.24,311.27,83.24,313Zm-3.39.08c0,1.37.5,2.15,1.27,2.15s1.27-.85,1.27-2.2-.39-2.15-1.26-2.15S79.85,311.6,79.85,313Z"/><path class="cls-2" d="M76.78,261.06v-1.44h-2.9v-.47l2.79-3.37h.91v3.28h.87v.56h-.87v1.44Zm0-2V257.3c0-.28,0-.55,0-.83h0c-.19.31-.34.53-.52.78L74.74,259v0Z"/><path class="cls-2" d="M83.24,258.36c0,1.79-.79,2.78-2.17,2.78-1.22,0-2-1-2.06-2.71s.9-2.74,2.17-2.74S83.24,256.68,83.24,258.36Zm-3.39.08c0,1.37.5,2.15,1.27,2.15s1.27-.85,1.27-2.2-.39-2.15-1.26-2.15S79.85,257,79.85,258.44Z"/><path class="cls-2" d="M77.73,201.69a3.6,3.6,0,0,0-.63,0,2.34,2.34,0,0,0-2.17,1.88h0a2,2,0,0,1,1.5-.61,1.71,1.71,0,0,1,1.89,1.71,1.92,1.92,0,0,1-2.08,1.85,2.09,2.09,0,0,1-2.21-2.24,3.08,3.08,0,0,1,1.06-2.38,3.69,3.69,0,0,1,2-.78,5.25,5.25,0,0,1,.61,0Zm-.24,3.05a1.16,1.16,0,0,0-1.28-1.21,1.41,1.41,0,0,0-1.21.65.5.5,0,0,0-.1.31A1.36,1.36,0,0,0,76.27,206,1.18,1.18,0,0,0,77.49,204.74Z"/><path class="cls-2" d="M83.24,203.77c0,1.79-.79,2.78-2.17,2.78-1.22,0-2-1-2.06-2.71s.9-2.74,2.17-2.74S83.24,202.09,83.24,203.77Zm-3.39.08c0,1.37.5,2.15,1.27,2.15s1.27-.85,1.27-2.2-.39-2.15-1.26-2.15S79.85,202.41,79.85,203.85Z"/><path class="cls-2" d="M74.09,150.54c0-.67.47-1.14,1.24-1.42v0a1.34,1.34,0,0,1-1-1.19c0-.83.84-1.4,1.93-1.4s1.82.64,1.82,1.3c0,.44-.26.92-1,1.23v0c.78.26,1.26.72,1.26,1.36,0,.92-.93,1.53-2.12,1.53S74.09,151.31,74.09,150.54Zm3.36,0c0-.64-.52-.95-1.37-1.15-.73.18-1.12.59-1.12,1.09s.45,1,1.25,1S77.45,151.05,77.45,150.5Zm-2.32-2.64c0,.53.47.82,1.19,1,.54-.16,1-.48,1-1S77,147,76.21,147,75.13,147.41,75.13,147.86Z"/><path class="cls-2" d="M83.24,149.18c0,1.79-.79,2.78-2.17,2.78-1.22,0-2-1-2.06-2.71s.9-2.74,2.17-2.74S83.24,147.5,83.24,149.18Zm-3.39.08c0,1.37.5,2.15,1.27,2.15s1.27-.85,1.27-2.2-.39-2.15-1.26-2.15S79.85,147.82,79.85,149.26Z"/><path class="cls-2" d="M71.08,92.67h0l-1.08.5-.17-.55L71.18,92h.72v5.27h-.82Z"/><path class="cls-2" d="M78.32,94.59c0,1.79-.79,2.78-2.17,2.78-1.22,0-2.05-1-2.07-2.71s.91-2.74,2.17-2.74S78.32,92.91,78.32,94.59Zm-3.39.08c0,1.37.5,2.15,1.27,2.15s1.27-.85,1.27-2.2-.39-2.15-1.26-2.15S74.93,93.23,74.93,94.67Z"/><path class="cls-2" d="M83.24,94.59c0,1.79-.79,2.78-2.17,2.78-1.22,0-2-1-2.06-2.71s.9-2.74,2.17-2.74S83.24,92.91,83.24,94.59Zm-3.39.08c0,1.37.5,2.15,1.27,2.15s1.28-.85,1.28-2.2-.4-2.15-1.27-2.15S79.85,93.23,79.85,94.67Z"/><path class="cls-2" d="M71.08,38.08h0l-1.08.5L69.81,38l1.37-.62h.72v5.27h-.82Z"/><path class="cls-2" d="M74.17,42.69v-.43l.66-.55c1.6-1.28,2.32-2,2.33-2.76,0-.53-.31-1-1.24-1a2.38,2.38,0,0,0-1.33.45l-.27-.51a3.15,3.15,0,0,1,1.77-.53c1.34,0,1.91.78,1.91,1.53,0,1-.83,1.76-2.15,2.84l-.5.39h2.8v.59Z"/><path class="cls-2" d="M83.24,40c0,1.79-.79,2.78-2.17,2.78-1.22,0-2-1-2.06-2.71s.9-2.74,2.17-2.74S83.24,38.32,83.24,40Zm-3.39.08c0,1.37.5,2.15,1.27,2.15s1.28-.85,1.28-2.2-.4-2.15-1.27-2.15S79.85,38.64,79.85,40.08Z"/><line class="cls-2" x1="86.78" y1="367.19" x2="86.78" y2="39.65"/><line class="cls-2" x1="86.78" y1="367.19" x2="91.9" y2="367.19"/><line class="cls-2" x1="86.78" y1="312.6" x2="91.9" y2="312.6"/><line class="cls-2" x1="86.78" y1="258.01" x2="91.9" y2="258.01"/><line class="cls-2" x1="86.78" y1="203.42" x2="91.9" y2="203.42"/><line class="cls-2" x1="86.78" y1="148.83" x2="91.9" y2="148.83"/><line class="cls-2" x1="86.78" y1="94.24" x2="91.9" y2="94.24"/><line class="cls-2" x1="86.78" y1="39.65" x2="91.9" y2="39.65"/><path class="cls-1" d="M258.52,65.4S248.4,74.67,248.4,91.53V355.79s1.69,4,8.43,4.33h6s4.93-.54,6.61-4.75V91.85s-.39-20.55-8.62-26.45A3.71,3.71,0,0,0,258.52,65.4Z"/><path class="cls-1" d="M241.62,220.28a17.29,17.29,0,0,0-5.86,12.95v131s1,2,4.88,2.15h3.5S247,366.06,248,364V233.39s-.23-10.18-5-13.11A2.5,2.5,0,0,0,241.62,220.28Z"/><path class="cls-1" d="M276,220.39a17.29,17.29,0,0,1,5.86,13v131s-1,2-4.89,2.14h-3.49s-2.86-.26-3.84-2.35V233.5s.23-10.18,5-13.11A2.5,2.5,0,0,1,276,220.39Z"/><rect class="cls-3" x="247.98" y="149.27" width="21.92" height="189.66"/><path class="cls-2" d="M262.1,360.12l-.86,6.21,5.92.1-.77-7.56A24.59,24.59,0,0,1,262.1,360.12Z"/><path class="cls-2" d="M255.3,360.1l.87,6.2-5.92.11.77-7.56A24.35,24.35,0,0,0,255.3,360.1Z"/><path class="cls-2" d="M235.76,364.18v3.36H248V364S243.34,368.77,235.76,364.18Z"/><path class="cls-2" d="M269.47,364.65V368h12.61v-3.58S277.3,369.25,269.47,364.65Z"/><polygon class="cls-1" points="187.29 196.48 202.54 196.48 202.54 139.08 199.38 114.29 191.64 114.29 187.29 139.08 187.29 196.48"/><polygon class="cls-1" points="187.29 196.48 185.18 227.24 205.12 227.24 202.54 196.48 187.29 196.48"/><path class="cls-1" d="M172.41,359.74s7.07,4.51,44.48.91l-3-9.5H175.57Z"/><line class="cls-1" x1="185.18" y1="240.66" x2="205.12" y2="240.66"/><ellipse class="cls-2" cx="195.3" cy="240.31" rx="10.12" ry="11.38"/><ellipse class="cls-2" cx="195.3" cy="298.89" rx="13.91" ry="12.22"/><polygon class="cls-1" points="185.18 240.66 205.12 240.66 208.28 283.67 181.31 283.67 185.18 240.66"/><polygon class="cls-1" points="181.31 301.2 209.43 301.2 213.84 351.15 175.57 351.15 181.31 301.2"/><line class="cls-1" x1="185.18" y1="227.24" x2="184.95" y2="243.26"/><line class="cls-1" x1="205.12" y1="227.24" x2="205.47" y2="245.37"/><line class="cls-1" x1="181.31" y1="283.67" x2="180.91" y2="304.67"/><line class="cls-1" x1="208.28" y1="283.67" x2="209.73" y2="304.67"/><line class="cls-1" x1="187.29" y1="174.08" x2="202.54" y2="174.08"/><line class="cls-1" x1="195.15" y1="80.54" x2="195.15" y2="110.08"/><path class="cls-1" d="M194.45,105.86c.85.84,2.07,0,2.07,0l2.86,8.43h-7.74Z"/><rect class="cls-2" x="194.45" y="87.32" width="1.69" height="18.54"/><path class="cls-1" d="M317.1,43.38S307,53.46,307,71.79V359.08s1.69,4.39,8.43,4.72h6s4.93-.59,6.62-5.18V72.14s-.4-22.35-8.63-28.76A3.41,3.41,0,0,0,317.1,43.38Z"/><polygon class="cls-1" points="306.98 130.97 294.31 166.55 294.31 182.57 306.98 182.57 306.98 130.97"/><polygon class="cls-1" points="328.51 129.8 341.18 165.38 341.18 181.4 328.51 181.4 328.51 129.8"/><polygon class="cls-1" points="306.98 339.01 296.87 356.63 296.87 363.8 306.98 359.08 306.98 339.01"/><polygon class="cls-1" points="312.04 344.83 312.04 366.97 308.88 370.07 306.98 363.8 312.04 344.83"/><polygon class="cls-1" points="323.22 344.83 323.22 366.5 328.06 370.67 327.4 359.97 323.22 344.83"/><polygon class="cls-1" points="328.06 339.01 339.01 357.45 339.01 363.8 327.4 359.97 328.06 339.01"/><path class="cls-1" d="M311.5,51.78,296,74.25v7.36l11,2.3S305.9,60.49,311.5,51.78Z"/><path class="cls-1" d="M325.11,53,339,72.57V81l-10.95,2.87S328.91,61.26,325.11,53Z"/><path class="cls-2" d="M328.06,64.32c-4.22,1-20.26,0-20.26,0s3.4-15.57,9.3-20.94c0,0,1.69-1.15,3.37.95a22.56,22.56,0,0,1,5.91,13.18Z"/><path class="cls-1" d="M307.4,67.84s5.84,1.18,20.41,0"/><path class="cls-1" d="M306.72,72s5.84,1.18,20.42,0"/><path class="cls-1" d="M306.72,76.23s5.84,1.18,20.42,0"/><path class="cls-1" d="M307.56,79.6s5.84,1.18,20.42,0"/><path class="cls-1" d="M307.56,83s5.84,1.18,20.42,0"/><ellipse class="cls-2" cx="307.83" cy="204.48" rx="3.37" ry="10.54"/><ellipse class="cls-2" cx="327.21" cy="203.64" rx="3.37" ry="10.54"/><polygon class="cls-1" points="185.97 361.94 185.03 366.77 190.24 366.77 189.6 361.94 185.97 361.94"/><polygon class="cls-1" points="192.86 361.94 191.92 366.77 197.12 366.77 196.48 361.94 192.86 361.94"/><polygon class="cls-1" points="199.6 361.94 198.66 366.77 203.87 366.77 203.23 361.94 199.6 361.94"/><path class="cls-2" d="M120.1,68.53H121v6.08h2.92v.73h-3.8Z"/><path class="cls-2" d="M127.56,75.34l-.07-.61h0a1.85,1.85,0,0,1-1.5.73,1.4,1.4,0,0,1-1.5-1.41c0-1.18,1.05-1.83,2.94-1.82v-.1A1,1,0,0,0,126.29,71a2.45,2.45,0,0,0-1.27.37l-.21-.59a3.1,3.1,0,0,1,1.61-.43c1.5,0,1.87,1,1.87,2v1.83a6.86,6.86,0,0,0,.08,1.17Zm-.13-2.5c-1,0-2.08.16-2.08,1.11a.79.79,0,0,0,.84.85,1.22,1.22,0,0,0,1.18-.82.94.94,0,0,0,.06-.29Z"/><path class="cls-2" d="M129.72,72c0-.58,0-1.08,0-1.53h.78l0,1h0a1.46,1.46,0,0,1,1.36-1.07,1,1,0,0,1,.25,0v.84a1.32,1.32,0,0,0-.3,0,1.25,1.25,0,0,0-1.2,1.14,2.48,2.48,0,0,0,0,.41v2.61h-.88Z"/><path class="cls-2" d="M137.17,70.45c0,.35,0,.75,0,1.34v2.85a2.82,2.82,0,0,1-.7,2.23,2.59,2.59,0,0,1-1.78.59,3.08,3.08,0,0,1-1.63-.41l.22-.67a2.78,2.78,0,0,0,1.44.38c.91,0,1.58-.48,1.58-1.71V74.5h0a1.75,1.75,0,0,1-1.56.82,2.19,2.19,0,0,1-2.09-2.38,2.35,2.35,0,0,1,2.21-2.6,1.63,1.63,0,0,1,1.53.85h0l0-.74Zm-.92,1.93a1,1,0,0,0-.06-.4A1.28,1.28,0,0,0,135,71c-.85,0-1.46.72-1.46,1.86,0,1,.49,1.76,1.45,1.76a1.3,1.3,0,0,0,1.23-.91,1.38,1.38,0,0,0,.08-.48Z"/><path class="cls-2" d="M141.31,75.34l-.07-.61h0a1.83,1.83,0,0,1-1.5.73,1.39,1.39,0,0,1-1.49-1.41c0-1.18,1.05-1.83,2.94-1.82v-.1A1,1,0,0,0,140.05,71a2.49,2.49,0,0,0-1.28.37l-.2-.59a3.08,3.08,0,0,1,1.61-.43c1.5,0,1.86,1,1.86,2v1.83a6.86,6.86,0,0,0,.08,1.17Zm-.13-2.5c-1,0-2.07.16-2.07,1.11a.79.79,0,0,0,.84.85,1.23,1.23,0,0,0,1.18-.82.93.93,0,0,0,.05-.29Z"/><path class="cls-2" d="M112.34,83.91c0-.51,0-.92,0-1.32h.78l0,.78h0a1.7,1.7,0,0,1,1.54-.9,1.45,1.45,0,0,1,1.38,1h0a2,2,0,0,1,.55-.64,1.67,1.67,0,0,1,1.08-.35c.65,0,1.61.43,1.61,2.13v2.88h-.87V84.71c0-.94-.35-1.51-1.06-1.51a1.17,1.17,0,0,0-1.06.81,1.52,1.52,0,0,0-.07.45v3h-.87V84.55c0-.78-.34-1.35-1-1.35a1.22,1.22,0,0,0-1.1.89,1.27,1.27,0,0,0-.07.44v3h-.87Z"/><path class="cls-2" d="M123.49,87.48l-.08-.62h0a1.8,1.8,0,0,1-1.49.73,1.39,1.39,0,0,1-1.5-1.4c0-1.19,1-1.83,2.94-1.82v-.11a1,1,0,0,0-1.11-1.13,2.36,2.36,0,0,0-1.27.37l-.21-.59a3.11,3.11,0,0,1,1.61-.44c1.5,0,1.86,1,1.86,2v1.83a6.94,6.94,0,0,0,.08,1.17Zm-.14-2.5c-1,0-2.07.15-2.07,1.11a.79.79,0,0,0,.84.85,1.22,1.22,0,0,0,1.18-.82,1,1,0,0,0,0-.29Z"/><path class="cls-2" d="M125.65,84.11c0-.57,0-1.07,0-1.52h.78l0,1h0a1.47,1.47,0,0,1,1.35-1.08,1,1,0,0,1,.26,0v.84a1.35,1.35,0,0,0-.31,0,1.25,1.25,0,0,0-1.19,1.15,2.48,2.48,0,0,0,0,.41v2.61h-.88Z"/><path class="cls-2" d="M132.35,87.3a3.35,3.35,0,0,1-1.41.28,2.33,2.33,0,0,1-2.44-2.5,2.49,2.49,0,0,1,2.63-2.6,3,3,0,0,1,1.24.26l-.21.69a1.94,1.94,0,0,0-1-.24,1.85,1.85,0,0,0,0,3.69,2.49,2.49,0,0,0,1.09-.25Z"/><path class="cls-2" d="M133.39,80.3h.89v3h0a1.59,1.59,0,0,1,.64-.62,1.83,1.83,0,0,1,.91-.26c.65,0,1.71.41,1.71,2.1v2.91h-.89V84.67c0-.79-.3-1.46-1.14-1.46a1.29,1.29,0,0,0-1.19.89,1.12,1.12,0,0,0-.06.43v3h-.89Z"/><path class="cls-2" d="M141.71,87.48l-.07-.62h0a1.81,1.81,0,0,1-1.5.73,1.38,1.38,0,0,1-1.49-1.4c0-1.19,1-1.83,2.94-1.82v-.11a1,1,0,0,0-1.11-1.13,2.4,2.4,0,0,0-1.28.37l-.2-.59a3.08,3.08,0,0,1,1.61-.44c1.5,0,1.86,1,1.86,2v1.83a6.94,6.94,0,0,0,.08,1.17Zm-.13-2.5c-1,0-2.07.15-2.07,1.11a.79.79,0,0,0,.84.85,1.23,1.23,0,0,0,1.18-.82,1,1,0,0,0,.05-.29Z"/><path class="cls-2" d="M146.25,86.85a3.08,3.08,0,0,0,.72,0,2.51,2.51,0,0,0,1.38-.63,2.92,2.92,0,0,0,.87-1.75h0a2,2,0,0,1-1.55.71,1.91,1.91,0,0,1-1.94-2,2.26,2.26,0,0,1,2.24-2.34c1.35,0,2.18,1.1,2.18,2.78A4.17,4.17,0,0,1,149,86.65a3.28,3.28,0,0,1-1.92.88,4.15,4.15,0,0,1-.82,0Zm.33-3.78a1.26,1.26,0,0,0,1.26,1.4,1.5,1.5,0,0,0,1.3-.69.58.58,0,0,0,.08-.32c0-1.13-.42-2-1.35-2C147.11,81.47,146.58,82.14,146.58,83.07Z"/><path class="cls-2" d="M190.69,67V60.14h1l2.19,3.45a18,18,0,0,1,1.22,2.21h0c-.08-.91-.1-1.74-.1-2.8V60.14h.83V67h-.89l-2.16-3.46a22,22,0,0,1-1.28-2.28h0c.05.86.07,1.68.07,2.81V67Z"/><path class="cls-2" d="M199,61.21h0l-1.15.62-.17-.68,1.44-.77h.76V67H199Z"/><path class="cls-2" d="M252.34,27.11a3.13,3.13,0,0,0,1.58.44c.9,0,1.42-.47,1.42-1.16s-.36-1-1.28-1.35c-1.11-.4-1.8-1-1.8-1.94a2,2,0,0,1,2.2-1.85,3,3,0,0,1,1.51.34l-.24.71a2.75,2.75,0,0,0-1.3-.32c-.93,0-1.28.56-1.28,1,0,.64.41.95,1.35,1.32,1.16.44,1.75,1,1.75,2s-.78,2-2.39,2a3.54,3.54,0,0,1-1.74-.43Z"/><path class="cls-2" d="M257.45,21.36h.88v6.08h2.91v.74h-3.79Z"/><path class="cls-2" d="M262.1,27.11a3.16,3.16,0,0,0,1.58.44c.9,0,1.43-.47,1.43-1.16s-.37-1-1.29-1.35c-1.11-.4-1.8-1-1.8-1.94a2,2,0,0,1,2.2-1.85,3,3,0,0,1,1.51.34l-.24.71a2.75,2.75,0,0,0-1.3-.32c-.93,0-1.28.56-1.28,1,0,.64.41.95,1.36,1.32,1.15.44,1.74,1,1.74,2s-.78,2-2.39,2a3.54,3.54,0,0,1-1.74-.43Z"/><path class="cls-2" d="M244.82,33.59a8.58,8.58,0,0,1,1.61-.14,2.77,2.77,0,0,1,1.87.5,1.43,1.43,0,0,1,.57,1.2,1.63,1.63,0,0,1-1.16,1.5v0a1.76,1.76,0,0,1,1.41,1.71,1.81,1.81,0,0,1-.58,1.36,3.37,3.37,0,0,1-2.35.64,10.41,10.41,0,0,1-1.37-.08Zm.88,2.79h.8c.93,0,1.48-.48,1.48-1.14s-.61-1.11-1.5-1.11a3.78,3.78,0,0,0-.78.06Zm0,3.27a4.71,4.71,0,0,0,.74,0c.91,0,1.75-.33,1.75-1.32s-.8-1.32-1.76-1.32h-.73Z"/><path class="cls-2" d="M250.27,33.14h.89v7.18h-.89Z"/><path class="cls-2" d="M257.09,37.83a2.4,2.4,0,0,1-2.44,2.6,2.33,2.33,0,0,1-2.35-2.52,2.39,2.39,0,0,1,2.43-2.6A2.32,2.32,0,0,1,257.09,37.83Zm-3.88.05c0,1.07.61,1.88,1.48,1.88s1.49-.8,1.49-1.9c0-.83-.42-1.88-1.47-1.88S253.21,37,253.21,37.88Z"/><path class="cls-2" d="M261.7,40.14a3.31,3.31,0,0,1-1.41.28,2.32,2.32,0,0,1-2.43-2.5,2.49,2.49,0,0,1,2.63-2.6,2.82,2.82,0,0,1,1.23.26l-.2.68a2.08,2.08,0,0,0-1-.23,1.84,1.84,0,0,0,0,3.68,2.55,2.55,0,0,0,1.09-.24Z"/><path class="cls-2" d="M263.62,37.67h0c.12-.17.3-.39.44-.56l1.43-1.69h1.08l-1.89,2,2.15,2.88h-1.08L264.08,38l-.46.51v1.84h-.88V33.14h.88Z"/><path class="cls-2" d="M269.35,40.32v-.55l.7-.67c1.68-1.6,2.43-2.45,2.44-3.44a1.17,1.17,0,0,0-1.3-1.29,2.22,2.22,0,0,0-1.4.56l-.28-.63a2.89,2.89,0,0,1,1.86-.67,1.84,1.84,0,0,1,2,1.91c0,1.22-.88,2.2-2.26,3.54l-.53.48v0h3v.74Z"/><path class="cls-2" d="M252.05,52.24a4.43,4.43,0,0,1-1.8.32,3.18,3.18,0,0,1-3.37-3.45,3.39,3.39,0,0,1,3.56-3.58,3.69,3.69,0,0,1,1.62.3l-.22.72a3.18,3.18,0,0,0-1.37-.28,2.53,2.53,0,0,0-2.66,2.81,2.48,2.48,0,0,0,2.62,2.74,3.62,3.62,0,0,0,1.44-.28Z"/><path class="cls-2" d="M255.76,52.46l-.07-.62h0a1.82,1.82,0,0,1-1.5.73,1.4,1.4,0,0,1-1.5-1.41c0-1.18,1.06-1.83,3-1.82v-.1a1,1,0,0,0-1.11-1.13,2.46,2.46,0,0,0-1.28.36l-.2-.58a3,3,0,0,1,1.61-.44c1.49,0,1.86,1,1.86,2v1.83a7.06,7.06,0,0,0,.08,1.18Zm-.13-2.5c-1,0-2.08.15-2.08,1.1a.79.79,0,0,0,.84.85,1.22,1.22,0,0,0,1.19-.82.92.92,0,0,0,0-.28Z"/><path class="cls-2" d="M257.92,49.09c0-.58,0-1.07,0-1.53h.78l0,1h0a1.49,1.49,0,0,1,1.36-1.07,1,1,0,0,1,.25,0v.84a1.32,1.32,0,0,0-.3,0,1.25,1.25,0,0,0-1.2,1.14,2.61,2.61,0,0,0,0,.42v2.61h-.88Z"/><path class="cls-2" d="M265.37,47.56c0,.36,0,.75,0,1.35v2.84a2.82,2.82,0,0,1-.7,2.24,2.62,2.62,0,0,1-1.78.58,3.2,3.2,0,0,1-1.63-.4l.22-.68a2.81,2.81,0,0,0,1.44.38c.91,0,1.58-.47,1.58-1.71v-.54h0a1.77,1.77,0,0,1-1.56.82,2.19,2.19,0,0,1-2.08-2.39,2.35,2.35,0,0,1,2.2-2.6,1.64,1.64,0,0,1,1.53.85h0l0-.74Zm-.92,1.93a1.25,1.25,0,0,0-.05-.4,1.28,1.28,0,0,0-1.25-.94c-.85,0-1.45.72-1.45,1.85,0,1,.48,1.76,1.44,1.76a1.31,1.31,0,0,0,1.24-.91,1.55,1.55,0,0,0,.07-.48Z"/><path class="cls-2" d="M271.24,50a2.4,2.4,0,0,1-2.44,2.6,2.33,2.33,0,0,1-2.35-2.52,2.39,2.39,0,0,1,2.43-2.6A2.32,2.32,0,0,1,271.24,50Zm-3.89.05c0,1.07.62,1.88,1.49,1.88s1.48-.8,1.48-1.9c0-.83-.41-1.88-1.46-1.88S267.35,49.09,267.35,50Z"/><path class="cls-2" d="M300.76,27.11a3.16,3.16,0,0,0,1.58.44c.9,0,1.43-.47,1.43-1.16s-.37-1-1.29-1.35c-1.11-.4-1.8-1-1.8-1.94a2,2,0,0,1,2.2-1.85,3,3,0,0,1,1.51.34l-.24.71a2.75,2.75,0,0,0-1.3-.32c-.93,0-1.28.56-1.28,1,0,.64.41.95,1.36,1.32,1.15.44,1.74,1,1.74,2s-.78,2-2.39,2a3.54,3.54,0,0,1-1.74-.43Z"/><path class="cls-2" d="M306.88,21.88v1.41h1.28V24h-1.28V26.6c0,.61.17.95.67.95a2,2,0,0,0,.51-.06l0,.67a2.15,2.15,0,0,1-.78.12,1.27,1.27,0,0,1-1-.37,1.83,1.83,0,0,1-.34-1.28V24h-.76v-.67H306V22.11Z"/><path class="cls-2" d="M311.87,28.18l-.07-.62h0a1.82,1.82,0,0,1-1.5.73,1.4,1.4,0,0,1-1.5-1.4c0-1.19,1.05-1.83,2.94-1.82V25a1,1,0,0,0-1.11-1.13,2.36,2.36,0,0,0-1.27.37l-.21-.59a3.11,3.11,0,0,1,1.61-.44c1.5,0,1.86,1,1.86,2V27a6.87,6.87,0,0,0,.09,1.17Zm-.13-2.5c-1,0-2.08.15-2.08,1.11a.79.79,0,0,0,.84.85,1.22,1.22,0,0,0,1.18-.82,1.07,1.07,0,0,0,.06-.29Z"/><path class="cls-2" d="M314,24.81c0-.57,0-1.07,0-1.52h.78l0,1h0a1.47,1.47,0,0,1,1.36-1.08,1,1,0,0,1,.25,0V24a1.35,1.35,0,0,0-.31,0A1.25,1.25,0,0,0,315,25.16a2.48,2.48,0,0,0,0,.41v2.61H314Z"/><path class="cls-2" d="M317.22,27.27a2.35,2.35,0,0,0,1.17.35c.65,0,.95-.32.95-.72s-.25-.66-.91-.9c-.88-.32-1.29-.8-1.29-1.39a1.51,1.51,0,0,1,1.69-1.44,2.45,2.45,0,0,1,1.2.31l-.22.64a2,2,0,0,0-1-.28c-.52,0-.81.31-.81.67s.29.59.93.83c.85.32,1.28.75,1.28,1.48s-.67,1.46-1.83,1.46A2.84,2.84,0,0,1,317,28Z"/><path class="cls-2" d="M321.34,21h.89v3.05h0a1.73,1.73,0,0,1,.64-.62,1.78,1.78,0,0,1,.91-.26c.66,0,1.71.41,1.71,2.1v2.91h-.89V25.37c0-.79-.29-1.46-1.13-1.46a1.3,1.3,0,0,0-1.2.89,1.12,1.12,0,0,0-.06.43v2.95h-.89Z"/><path class="cls-2" d="M328,21.91a.55.55,0,1,1-1.1,0,.54.54,0,0,1,.55-.56A.53.53,0,0,1,328,21.91Zm-1,6.27V23.29h.89v4.89Z"/><path class="cls-2" d="M329.33,24.88c0-.62,0-1.13,0-1.59h.79l0,.83h0a2,2,0,0,1,1.74-.95A2.22,2.22,0,0,1,334,25.66c0,1.76-1.07,2.63-2.23,2.63a1.7,1.7,0,0,1-1.5-.77h0v2.66h-.88Zm.88,1.31a2,2,0,0,0,0,.36,1.36,1.36,0,0,0,1.33,1c.94,0,1.49-.76,1.49-1.89s-.52-1.82-1.46-1.82a1.42,1.42,0,0,0-1.34,1.1,1.59,1.59,0,0,0-.06.37Z"/><path class="cls-2" d="M121.28,384.61a4.36,4.36,0,0,1-1.8.33,3.19,3.19,0,0,1-3.37-3.45,3.4,3.4,0,0,1,3.56-3.59,3.64,3.64,0,0,1,1.62.31l-.21.72a3.11,3.11,0,0,0-1.38-.29,2.54,2.54,0,0,0-2.66,2.82,2.48,2.48,0,0,0,2.62,2.74,3.58,3.58,0,0,0,1.44-.29Z"/><path class="cls-2" d="M122.35,377.65h.89v3.06h0a1.62,1.62,0,0,1,.64-.63,1.85,1.85,0,0,1,.91-.25c.66,0,1.71.4,1.71,2.09v2.91h-.89V382c0-.79-.29-1.46-1.13-1.46a1.28,1.28,0,0,0-1.2.9,1.07,1.07,0,0,0-.06.42v2.95h-.89Z"/><path class="cls-2" d="M129,378.56a.56.56,0,0,1-1.11,0,.55.55,0,0,1,.56-.56A.54.54,0,0,1,129,378.56Zm-1,6.27v-4.89h.89v4.89Z"/><path class="cls-2" d="M130.33,381.26c0-.5,0-.92,0-1.32h.79l0,.81h0a1.79,1.79,0,0,1,1.62-.92c.68,0,1.73.4,1.73,2.08v2.92h-.89V382c0-.79-.29-1.45-1.13-1.45a1.28,1.28,0,0,0-1.2.92,1.27,1.27,0,0,0-.06.41v2.94h-.89Z"/><path class="cls-2" d="M138.66,384.83l-.07-.61h0a1.85,1.85,0,0,1-1.5.73,1.4,1.4,0,0,1-1.5-1.41c0-1.18,1.05-1.83,2.95-1.82v-.1a1,1,0,0,0-1.12-1.14,2.36,2.36,0,0,0-1.27.37l-.2-.59a3,3,0,0,1,1.6-.43c1.5,0,1.87,1,1.87,2v1.83a6.94,6.94,0,0,0,.08,1.17Zm-.13-2.5c-1,0-2.08.16-2.08,1.11a.79.79,0,0,0,.84.85,1.24,1.24,0,0,0,1.19-.82.93.93,0,0,0,.05-.29Z"/><path class="cls-2" d="M181.46,378.51v4c0,1.52.68,2.17,1.59,2.17s1.66-.67,1.66-2.17v-4h.89v4c0,2.09-1.11,2.95-2.58,2.95s-2.45-.8-2.45-2.91v-4Z"/><path class="cls-2" d="M187.12,378.6a9.37,9.37,0,0,1,1.69-.14,2.75,2.75,0,0,1,2,.56,1.66,1.66,0,0,1,.54,1.29,1.79,1.79,0,0,1-1.28,1.74v0a1.71,1.71,0,0,1,1,1.38,10.86,10.86,0,0,0,.52,1.87h-.91a8.87,8.87,0,0,1-.45-1.63c-.2-.94-.57-1.3-1.37-1.33H188v3h-.88Zm.88,3.11h.9c.94,0,1.54-.52,1.54-1.3s-.64-1.26-1.57-1.27a3.68,3.68,0,0,0-.87.08Z"/><path class="cls-2" d="M192.44,384.26a3.16,3.16,0,0,0,1.58.44c.9,0,1.43-.47,1.43-1.16s-.37-1-1.29-1.36c-1.11-.39-1.8-1-1.8-1.93a2,2,0,0,1,2.21-1.85,3.08,3.08,0,0,1,1.5.33l-.24.72a2.73,2.73,0,0,0-1.29-.32c-.93,0-1.29.55-1.29,1,0,.64.42,1,1.36,1.31,1.15.45,1.74,1,1.74,2s-.78,2-2.39,2a3.43,3.43,0,0,1-1.74-.44Z"/><path class="cls-2" d="M197.43,384.26a3.13,3.13,0,0,0,1.58.44c.9,0,1.42-.47,1.42-1.16s-.36-1-1.28-1.36c-1.11-.39-1.8-1-1.8-1.93a2,2,0,0,1,2.2-1.85,3.12,3.12,0,0,1,1.51.33l-.24.72a2.75,2.75,0,0,0-1.3-.32c-.93,0-1.28.55-1.28,1,0,.64.41,1,1.35,1.31,1.16.45,1.74,1,1.74,2s-.77,2-2.38,2a3.43,3.43,0,0,1-1.74-.44Z"/><path class="cls-4" d="M247.64,379.35v4c0,1.53.68,2.17,1.59,2.17s1.66-.66,1.66-2.17v-4h.89v4c0,2.09-1.11,2.95-2.58,2.95s-2.45-.8-2.45-2.91v-4Z"/><path class="cls-4" d="M253.18,385.1a3.16,3.16,0,0,0,1.58.44c.9,0,1.43-.47,1.43-1.16s-.37-1-1.29-1.36c-1.11-.39-1.8-1-1.8-1.93a2,2,0,0,1,2.21-1.85,3,3,0,0,1,1.5.34l-.24.71a2.73,2.73,0,0,0-1.29-.32c-.93,0-1.29.56-1.29,1,0,.64.42.95,1.36,1.32,1.15.44,1.74,1,1.74,2s-.78,2-2.39,2a3.54,3.54,0,0,1-1.74-.43Z"/><path class="cls-4" d="M259.39,384l-.7,2.14h-.91l2.31-6.82h1.06l2.33,6.82h-.94l-.73-2.14Zm2.24-.69-.67-2c-.15-.45-.25-.85-.35-1.25h0c-.1.41-.21.82-.35,1.24l-.66,2Z"/><path class="cls-2" d="M310.86,379.35v4c0,1.53.68,2.17,1.59,2.17s1.66-.66,1.66-2.17v-4H315v4c0,2.09-1.11,2.95-2.58,2.95s-2.45-.8-2.45-2.91v-4Z"/><path class="cls-2" d="M316.4,385.1a3.16,3.16,0,0,0,1.58.44c.9,0,1.43-.47,1.43-1.16s-.37-1-1.29-1.36c-1.11-.39-1.8-1-1.8-1.93a2,2,0,0,1,2.21-1.85,3,3,0,0,1,1.5.34l-.24.71a2.73,2.73,0,0,0-1.29-.32c-.94,0-1.29.56-1.29,1,0,.64.41.95,1.36,1.32,1.15.44,1.74,1,1.74,2s-.78,2-2.39,2a3.54,3.54,0,0,1-1.74-.43Z"/><path class="cls-2" d="M322.61,384l-.71,2.14H321l2.32-6.82h1.06l2.33,6.82h-.94L325,384Zm2.24-.69-.67-2c-.15-.45-.25-.85-.35-1.25h0c-.1.41-.22.82-.35,1.24l-.67,2Z"/><path class="cls-2" d="M118.77,396.56a3.67,3.67,0,0,0,.71,0,2.48,2.48,0,0,0,1.38-.63,3,3,0,0,0,.87-1.75h0a1.93,1.93,0,0,1-1.55.7,1.9,1.9,0,0,1-1.94-2,2.26,2.26,0,0,1,2.25-2.34c1.34,0,2.17,1.1,2.17,2.78a4.19,4.19,0,0,1-1.13,3.08,3.28,3.28,0,0,1-1.92.88,4.1,4.1,0,0,1-.81.05Zm.32-3.78a1.26,1.26,0,0,0,1.26,1.4,1.48,1.48,0,0,0,1.3-.69.59.59,0,0,0,.08-.33c0-1.12-.42-2-1.35-2C119.63,391.18,119.09,391.85,119.09,392.78Z"/><path class="cls-2" d="M123.65,396.17a3,3,0,0,0,1.46.41c1.14,0,1.49-.72,1.49-1.27,0-.92-.84-1.32-1.7-1.32h-.5v-.66h.5c.64,0,1.46-.34,1.46-1.12,0-.52-.33-1-1.15-1a2.38,2.38,0,0,0-1.32.44l-.23-.65a3.16,3.16,0,0,1,1.72-.51c1.3,0,1.88.77,1.88,1.57a1.63,1.63,0,0,1-1.21,1.55v0a1.71,1.71,0,0,1,1.47,1.69c0,1.05-.82,2-2.4,2a3.36,3.36,0,0,1-1.71-.44Z"/><path class="cls-2" d="M131.05,393.62c0-.51,0-.92,0-1.33h.78l0,.79h0a1.71,1.71,0,0,1,1.54-.9,1.46,1.46,0,0,1,1.39,1h0a2,2,0,0,1,.54-.63,1.66,1.66,0,0,1,1.09-.35c.64,0,1.61.43,1.61,2.13v2.88h-.87v-2.77c0-.94-.35-1.51-1.07-1.51a1.16,1.16,0,0,0-1.05.81,1.47,1.47,0,0,0-.07.45v3h-.87v-2.93c0-.78-.34-1.35-1-1.35a1.21,1.21,0,0,0-1.1.89,1.23,1.23,0,0,0-.08.44v2.95h-.87Z"/><path class="cls-2" d="M181.43,391.38h0l-1.14.62-.18-.68,1.44-.77h.76v6.58h-.86Z"/><path class="cls-2" d="M189.06,393.77c0,2.23-.83,3.47-2.29,3.47-1.28,0-2.15-1.2-2.17-3.38s1-3.42,2.28-3.42S189.06,391.67,189.06,393.77Zm-3.57.1c0,1.71.52,2.68,1.33,2.68s1.35-1.06,1.35-2.74-.42-2.68-1.34-2.68S185.49,392.08,185.49,393.87Z"/><path class="cls-2" d="M193.8,391.3h-2.51L191,393a3.48,3.48,0,0,1,.53,0,2.8,2.8,0,0,1,1.42.35,1.87,1.87,0,0,1,.94,1.69,2.28,2.28,0,0,1-2.45,2.25,3.18,3.18,0,0,1-1.64-.41l.23-.67a3,3,0,0,0,1.4.36,1.46,1.46,0,0,0,1.56-1.43c0-.84-.57-1.45-1.89-1.45a6.89,6.89,0,0,0-.91.07l.42-3.16h3.15Z"/><path class="cls-2" d="M197.49,393.56c0-.51,0-.92,0-1.33h.78l0,.79h0a1.7,1.7,0,0,1,1.54-.9,1.43,1.43,0,0,1,1.38,1h0a2.34,2.34,0,0,1,.55-.64,1.68,1.68,0,0,1,1.08-.34c.65,0,1.61.42,1.61,2.13v2.88h-.87v-2.77c0-.94-.34-1.51-1.06-1.51a1.14,1.14,0,0,0-1.05.81,1.45,1.45,0,0,0-.07.44v3h-.87v-2.94c0-.77-.35-1.34-1-1.34a1.32,1.32,0,0,0-1.18,1.32v3h-.87Z"/><path class="cls-2" d="M242.69,391.38h0l-1.14.62-.17-.68,1.43-.77h.76v6.58h-.86Z"/><path class="cls-2" d="M247.88,391.38h0l-1.14.62-.17-.68,1.43-.77h.76v6.58h-.86Z"/><path class="cls-2" d="M255.51,393.77c0,2.23-.83,3.47-2.29,3.47-1.28,0-2.15-1.2-2.17-3.38s.95-3.42,2.28-3.42S255.51,391.67,255.51,393.77Zm-3.57.1c0,1.71.52,2.68,1.33,2.68s1.35-1.06,1.35-2.74-.41-2.68-1.34-2.68C252.51,391.13,251.94,392.08,251.94,393.87Z"/><path class="cls-2" d="M256,398.37a14.51,14.51,0,0,0,.6-2.42l1-.1a11.69,11.69,0,0,1-1,2.46Z"/><path class="cls-2" d="M262.18,391.18a3.23,3.23,0,0,0-.67,0,2.66,2.66,0,0,0-2.29,2.34h0a2,2,0,0,1,3.57,1.36,2.2,2.2,0,0,1-2.18,2.32c-1.41,0-2.33-1.09-2.33-2.8a4.18,4.18,0,0,1,1.11-3,3.63,3.63,0,0,1,2.11-1,4.25,4.25,0,0,1,.65-.05Zm-.26,3.79a1.33,1.33,0,0,0-1.35-1.5,1.47,1.47,0,0,0-1.28.81.75.75,0,0,0-.1.39c0,1.08.52,1.88,1.45,1.88C261.41,396.55,261.92,395.91,261.92,395Z"/><path class="cls-2" d="M266,393.56c0-.51,0-.92,0-1.33h.78l0,.79h0a1.7,1.7,0,0,1,1.54-.9,1.44,1.44,0,0,1,1.38,1h0a2.18,2.18,0,0,1,.55-.64,1.68,1.68,0,0,1,1.08-.34c.65,0,1.61.42,1.61,2.13v2.88h-.87v-2.77c0-.94-.35-1.51-1.06-1.51a1.16,1.16,0,0,0-1.06.81,1.45,1.45,0,0,0-.07.44v3h-.87v-2.94c0-.77-.34-1.34-1-1.34a1.32,1.32,0,0,0-1.17,1.32v3H266Z"/><path class="cls-2" d="M307,392.22h0l-1.15.62-.17-.68,1.44-.77h.76V398H307Z"/><path class="cls-2" d="M310.28,398v-.55l.7-.67c1.68-1.6,2.44-2.45,2.45-3.44a1.18,1.18,0,0,0-1.31-1.29,2.25,2.25,0,0,0-1.39.56l-.29-.63a2.94,2.94,0,0,1,1.87-.67,1.85,1.85,0,0,1,2,1.92c0,1.21-.88,2.19-2.27,3.53l-.52.48v0h3V398Z"/><path class="cls-2" d="M319.84,394.61c0,2.24-.83,3.47-2.28,3.47-1.29,0-2.16-1.2-2.18-3.38s.95-3.42,2.29-3.42S319.84,392.52,319.84,394.61Zm-3.57.1c0,1.71.53,2.68,1.34,2.68s1.34-1.06,1.34-2.74-.41-2.68-1.33-2.68S316.27,392.92,316.27,394.71Z"/><path class="cls-2" d="M323.09,394.4c0-.51,0-.92,0-1.33h.78l0,.79h0a1.7,1.7,0,0,1,1.54-.9,1.45,1.45,0,0,1,1.38,1h0a2,2,0,0,1,.55-.63,1.61,1.61,0,0,1,1.08-.35c.65,0,1.61.43,1.61,2.13V398h-.87V395.2c0-.94-.35-1.51-1.06-1.51a1.17,1.17,0,0,0-1.06.81,1.47,1.47,0,0,0-.07.45v3h-.87V395c0-.78-.34-1.35-1-1.35a1.22,1.22,0,0,0-1.1.89,1.27,1.27,0,0,0-.07.44v3h-.87Z"/></svg>