<?xml version="1.0" encoding="UTF-8"?>
<svg id="Capa_2" data-name="Capa 2" xmlns="http://www.w3.org/2000/svg" viewBox="0 0 250.47 384.66">
  <defs>
    <style>
      .cls-1, .cls-2, .cls-3 {
        fill: none;
        stroke: #ca582d;
        stroke-miterlimit: 10;
      }

      .cls-4 {
        fill: #575756;
      }

      .cls-5 {
        fill: #bf4c22;
      }

      .cls-2 {
        stroke-linecap: round;
      }

      .cls-3 {
        stroke-width: .5px;
      }
    </style>
  </defs>
  <g id="ISS">
    <g>
      <circle class="cls-1" cx="87.2" cy="333.97" r="8.18"/>
      <circle class="cls-3" cx="87.2" cy="334.16" r="6.43"/>
      <circle class="cls-1" cx="87.2" cy="334.28" r="2.58"/>
      <path class="cls-1" d="M76.78,344.35c-.36-.57-.56-1.24-.56-1.96v-8.29c0-2.02,1.61-3.67,3.63-3.72"/>
      <path class="cls-1" d="M94.57,330.41c1.83,.24,3.24,1.8,3.24,3.69v8.29c0,.77-.23,1.48-.63,2.08"/>
      <path class="cls-2" d="M95.01,354.58l.06,9.99c.01,2.05,1.67,3.7,3.72,3.7h0c2.05,0,3.72-1.67,3.72-3.72v-8.37c0-4.3-1.75-8.2-4.56-11.02-.24-.24-.49-.48-.75-.7-.9-.8-1.9-1.49-2.97-2.06-.98-.52-2.02-.94-3.12-1.24"/>
      <path class="cls-2" d="M83.13,341.07c-2.38,.59-4.55,1.73-6.35,3.28-3.34,2.85-5.45,7.09-5.45,11.83v8.43c0,2.02,1.63,3.65,3.65,3.65h0c2.02,0,3.65-1.63,3.65-3.65v-9.9"/>
      <line class="cls-2" x1="77.23" y1="367.49" x2="77.23" y2="377.06"/>
      <line class="cls-2" x1="97.82" y1="368.27" x2="97.82" y2="377.06"/>
      <path class="cls-2" d="M80.6,377.92c-.91-.41-1.98-.65-3.11-.65-3.4,0-6.17,2.15-6.17,4.79,0,.75,.23,1.47,.63,2.11"/>
      <path class="cls-2" d="M101.55,384.16c.4-.64,.63-1.35,.63-2.11,0-2.64-2.76-4.79-6.17-4.79"/>
      <path class="cls-2" d="M101.55,384.16h-12.77v-17.42c0-.89-.72-1.62-1.62-1.62h0c-.89,0-1.62,.72-1.62,1.62v17.42h-13.58"/>
      <rect class="cls-2" x="81.54" y="348.47" width="10.42" height="5.11" rx="1.67" ry="1.67"/>
      <line class="cls-2" x1="93.89" y1="350.67" x2="91.96" y2="350.67"/>
      <line class="cls-2" x1="81.55" y1="350.67" x2="79.61" y2="350.67"/>
      <circle class="cls-1" cx="125.26" cy="333.97" r="8.18"/>
      <circle class="cls-3" cx="125.26" cy="334.16" r="6.43"/>
      <circle class="cls-1" cx="125.26" cy="334.28" r="2.58"/>
      <path class="cls-1" d="M114.83,344.35c-.36-.57-.56-1.24-.56-1.96v-8.29c0-2.02,1.61-3.67,3.63-3.72"/>
      <path class="cls-1" d="M132.63,330.41c1.83,.24,3.24,1.8,3.24,3.69v8.29c0,.77-.23,1.48-.63,2.08"/>
      <path class="cls-2" d="M133.06,354.58l.06,9.99c.01,2.05,1.67,3.7,3.72,3.7h0c2.05,0,3.72-1.67,3.72-3.72v-8.37c0-4.3-1.75-8.2-4.56-11.02-.24-.24-.49-.48-.75-.7-.9-.8-1.9-1.49-2.97-2.06-.98-.52-2.02-.94-3.12-1.24"/>
      <path class="cls-2" d="M121.19,341.07c-2.38,.59-4.55,1.73-6.35,3.28-3.34,2.85-5.45,7.09-5.45,11.83v8.43c0,2.02,1.63,3.65,3.65,3.65h0c2.02,0,3.65-1.63,3.65-3.65v-9.9"/>
      <line class="cls-2" x1="115.28" y1="367.49" x2="115.28" y2="377.06"/>
      <line class="cls-2" x1="135.87" y1="368.27" x2="135.87" y2="377.06"/>
      <path class="cls-2" d="M118.66,377.92c-.91-.41-1.98-.65-3.11-.65-3.4,0-6.17,2.15-6.17,4.79,0,.75,.23,1.47,.63,2.11"/>
      <path class="cls-2" d="M139.61,384.16c.4-.64,.63-1.35,.63-2.11,0-2.64-2.76-4.79-6.17-4.79"/>
      <path class="cls-2" d="M139.61,384.16h-12.77v-17.42c0-.89-.72-1.62-1.62-1.62h0c-.89,0-1.62,.72-1.62,1.62v17.42h-13.58"/>
      <rect class="cls-2" x="119.6" y="348.47" width="10.42" height="5.11" rx="1.67" ry="1.67"/>
      <line class="cls-2" x1="131.94" y1="350.67" x2="130.01" y2="350.67"/>
      <line class="cls-2" x1="119.6" y1="350.67" x2="117.66" y2="350.67"/>
      <circle class="cls-1" cx="163.84" cy="333.97" r="8.18"/>
      <circle class="cls-3" cx="163.84" cy="334.16" r="6.43"/>
      <circle class="cls-1" cx="163.84" cy="334.28" r="2.58"/>
      <path class="cls-1" d="M153.42,344.35c-.36-.57-.56-1.24-.56-1.96v-8.29c0-2.02,1.61-3.67,3.63-3.72"/>
      <path class="cls-1" d="M171.21,330.41c1.83,.24,3.24,1.8,3.24,3.69v8.29c0,.77-.23,1.48-.63,2.08"/>
      <path class="cls-2" d="M171.65,354.58l.06,9.99c.01,2.05,1.67,3.7,3.72,3.7h0c2.05,0,3.72-1.67,3.72-3.72v-8.37c0-4.3-1.75-8.2-4.56-11.02-.24-.24-.49-.48-.75-.7-.9-.8-1.9-1.49-2.97-2.06-.98-.52-2.02-.94-3.12-1.24"/>
      <path class="cls-2" d="M159.77,341.07c-2.38,.59-4.55,1.73-6.35,3.28-3.34,2.85-5.45,7.09-5.45,11.83v8.43c0,2.02,1.63,3.65,3.65,3.65h0c2.02,0,3.65-1.63,3.65-3.65v-9.9"/>
      <line class="cls-2" x1="153.87" y1="367.49" x2="153.87" y2="377.06"/>
      <line class="cls-2" x1="174.45" y1="368.27" x2="174.45" y2="377.06"/>
      <path class="cls-2" d="M157.24,377.92c-.91-.41-1.98-.65-3.11-.65-3.4,0-6.17,2.15-6.17,4.79,0,.75,.23,1.47,.63,2.11"/>
      <path class="cls-2" d="M178.19,384.16c.4-.64,.63-1.35,.63-2.11,0-2.64-2.76-4.79-6.17-4.79"/>
      <path class="cls-2" d="M178.19,384.16h-12.77v-17.42c0-.89-.72-1.62-1.62-1.62h0c-.89,0-1.62,.72-1.62,1.62v17.42h-13.58"/>
      <rect class="cls-2" x="158.18" y="348.47" width="10.42" height="5.11" rx="1.67" ry="1.67"/>
      <line class="cls-2" x1="170.53" y1="350.67" x2="168.6" y2="350.67"/>
      <line class="cls-2" x1="158.18" y1="350.67" x2="156.25" y2="350.67"/>
    </g>
  </g>
  <g id="china">
    <g>
      <polygon class="cls-4" points="131.44 37.76 130.42 36.93 135.34 30.86 135.34 1.31 115.01 1.31 115.01 30.86 119.94 36.93 118.92 37.76 113.7 31.32 113.7 0 136.65 0 136.65 31.32 131.44 37.76"/>
      <path class="cls-4" d="M137.5,55.35h-25.66v-18.66h25.66v18.66Zm-24.35-1.31h23.03v-16.03h-23.03v16.03Z"/>
      <path class="cls-4" d="M133.19,86.24h-15.91V54.03h15.91v32.21Zm-14.6-1.31h13.28v-29.59h-13.28v29.59Z"/>
      <path class="cls-4" d="M125.33,77.24c-4.33,0-7.86-3.52-7.86-7.86s3.52-7.86,7.86-7.86,7.86,3.52,7.86,7.86-3.52,7.86-7.86,7.86Zm0-14.4c-3.61,0-6.54,2.94-6.54,6.54s2.94,6.54,6.54,6.54,6.54-2.94,6.54-6.54-2.94-6.54-6.54-6.54Z"/>
      <polygon class="cls-4" points="183.45 84.91 149.7 84.91 141.94 76.19 132.53 76.19 132.53 74.88 142.53 74.88 150.29 83.6 183.1 83.6 190.49 79.24 249.15 79.24 249.15 59.7 190.49 59.7 183.1 55.35 150.29 55.35 142.53 64.06 132.53 64.06 132.53 62.75 141.94 62.75 149.7 54.03 183.45 54.03 190.85 58.39 250.47 58.39 250.47 80.55 190.85 80.55 183.45 84.91"/>
      <polygon class="cls-4" points="100.76 84.91 67.01 84.91 59.62 80.55 0 80.55 0 58.39 59.62 58.39 67.01 54.03 100.76 54.03 108.53 62.75 117.93 62.75 117.93 64.06 107.94 64.06 100.17 55.35 67.37 55.35 59.97 59.7 1.31 59.7 1.31 79.24 59.97 79.24 67.37 83.6 100.17 83.6 107.94 74.88 117.93 74.88 117.93 76.19 108.53 76.19 100.76 84.91"/>
      <path class="cls-4" d="M109.54,21.47h-35.39V5.48h35.39v16Zm-34.08-1.31h32.77V6.79h-32.77v13.37Z"/>
      <path class="cls-4" d="M115.01,16.76h-6.79v-4.76h6.79v4.76Zm-5.48-1.31h4.16v-2.13h-4.16v2.13Z"/>
      <path class="cls-4" d="M176.51,21.47h-35.4V5.48h35.4v16Zm-34.08-1.31h32.77V6.79h-32.77v13.37Z"/>
      <path class="cls-4" d="M142.13,16.76h-6.79v-4.76h6.79v4.76Zm-5.48-1.31h4.16v-2.13h-4.16v2.13Z"/>
      <path class="cls-4" d="M110.85,241.8h-35.4v-16h35.4v16Zm-34.08-1.31h32.77v-13.37h-32.77v13.37Z"/>
      <path class="cls-4" d="M116.33,237.09h-6.79v-4.76h6.79v4.76Zm-5.48-1.31h4.16v-2.13h-4.16v2.13Z"/>
      <path class="cls-4" d="M176.06,241.8h-35.39v-16h35.39v16Zm-34.08-1.31h32.77v-13.37h-32.77v13.37Z"/>
      <path class="cls-4" d="M141.98,237.09h-7.82v-4.76h7.82v4.76Zm-6.51-1.31h5.2v-2.13h-5.2v2.13Z"/>
      <path class="cls-4" d="M109.8,123.84H44.78v-25.21H109.8v25.21Zm-63.7-1.31h62.39v-22.59H46.1v22.59Z"/>
      <path class="cls-4" d="M206.12,123.84h-65.01v-25.21h65.01v25.21Zm-63.7-1.31h62.39v-22.59h-62.39v22.59Z"/>
      <path class="cls-4" d="M113.15,113.53h-4.67v-5.03h4.67v5.03Zm-3.36-1.31h2.04v-2.41h-2.04v2.41Z"/>
      <path class="cls-4" d="M141.98,113.53h-4.67v-5.03h4.67v5.03Zm-3.36-1.31h2.04v-2.41h-2.04v2.41Z"/>
      <polygon class="cls-5" points="135.47 243.94 115 243.94 115 221.9 110.24 217.14 110.24 189.06 117.28 182.01 117.28 179.78 108.49 174.27 108.49 131.18 111.84 125.23 111.84 92.55 117.41 85.19 118.46 85.98 113.15 92.99 113.15 125.57 109.8 131.52 109.8 173.54 118.59 179.06 118.59 182.56 111.55 189.6 111.55 216.59 116.31 221.35 116.31 242.63 134.16 242.63 134.16 221.35 138.92 216.59 138.92 189.6 131.87 182.56 131.87 179.06 140.67 173.54 140.67 131.52 137.31 125.57 137.31 92.99 132.01 85.98 133.05 85.19 138.62 92.55 138.62 125.23 141.98 131.18 141.98 174.27 133.19 179.78 133.19 182.01 140.23 189.06 140.23 217.14 135.47 221.9 135.47 243.94"/>
    </g>
  </g>
</svg>