<svg id="Layer_1" data-name="Layer 1" xmlns="http://www.w3.org/2000/svg" viewBox="0 0 425 425"><defs><style>.cls-1{fill:#231f20;}.cls-1,.cls-3,.cls-4,.cls-5{stroke:#fff;}.cls-1,.cls-2,.cls-3,.cls-4,.cls-5{stroke-miterlimit:10;}.cls-2,.cls-6{fill:#fff;}.cls-2{stroke:#231f20;}.cls-3,.cls-4,.cls-8{fill:none;}.cls-4{stroke-width:6px;}.cls-5{fill:#010101;}.cls-7{fill:#f9031b;}</style></defs><rect width="425" height="425"/><rect class="cls-1" x="247.3" y="227.6" width="38.5" height="150.6"/><rect class="cls-2" x="239.6" y="209" width="55.1" height="18.5"/><rect class="cls-3" x="242.2" y="182.7" width="49.7" height="22.3"/><path class="cls-4" d="M245.7,205.5" transform="translate(-0.5 -0.5)"/><line class="cls-3" x1="248.7" y1="205" x2="248.7" y2="209.8"/><line class="cls-3" x1="245.6" y1="205" x2="245.6" y2="209.8"/><line class="cls-3" x1="285.4" y1="205" x2="285.4" y2="209.8"/><line class="cls-3" x1="288.5" y1="205" x2="288.5" y2="209.8"/><rect class="cls-1" x="251.9" y="205" width="29.9" height="4.1"/><rect class="cls-5" x="239.6" y="180.1" width="54.6" height="2.6"/><rect class="cls-1" x="251.9" y="165.7" width="29.9" height="14.3"/><rect class="cls-6" x="240" y="148.3" width="54.1" height="17.4"/><rect class="cls-1" x="261" y="106.4" width="11.6" height="41.9"/><rect class="cls-1" x="251.9" y="91.9" width="30.1" height="14.4"/><rect class="cls-1" x="259.2" y="81.4" width="16" height="8.5"/><rect class="cls-6" x="248.7" y="89.9" width="36.6" height="2"/><ellipse class="cls-6" cx="245.3" cy="174.6" rx="4.9" ry="5"/><ellipse class="cls-6" cx="289.1" cy="174.6" rx="4.9" ry="5"/><rect class="cls-6" x="240" y="134.1" width="54.1" height="2.1"/><rect class="cls-6" x="240" y="115.5" width="54.1" height="2"/><rect class="cls-6" x="256.3" y="117.5" width="1" height="30.8"/><rect class="cls-6" x="278.3" y="117.5" width="1.2" height="30.8"/><line class="cls-3" x1="245.3" y1="142.9" x2="290.6" y2="142.9"/><line class="cls-3" x1="245.5" y1="142.9" x2="245.5" y2="148.3"/><line class="cls-3" x1="290.6" y1="142.9" x2="290.6" y2="148.3"/><line class="cls-3" x1="245.3" y1="130.2" x2="290.6" y2="130.2"/><line class="cls-3" x1="245.5" y1="130.2" x2="245.5" y2="134"/><line class="cls-3" x1="290.6" y1="130.2" x2="290.6" y2="135.1"/><line class="cls-3" x1="245.3" y1="111.4" x2="288.6" y2="111.4"/><line class="cls-3" x1="245.5" y1="111.4" x2="245.5" y2="115.6"/><line class="cls-3" x1="288.6" y1="111.4" x2="288.6" y2="115.6"/><line class="cls-3" x1="249.6" y1="86.3" x2="284.4" y2="86.3"/><line class="cls-3" x1="249.7" y1="86.3" x2="249.7" y2="89.9"/><line class="cls-3" x1="284.4" y1="86.3" x2="284.4" y2="89.9"/><line class="cls-3" x1="264.4" y1="50.2" x2="264.4" y2="81.4"/><line class="cls-3" x1="269.8" y1="50.2" x2="269.8" y2="81.4"/><line class="cls-3" x1="264" y1="50.2" x2="269.8" y2="50.2"/><line class="cls-3" x1="267.8" y1="33.8" x2="267.8" y2="50.2"/><circle class="cls-6" cx="267.8" cy="33" r="0.9"/><line class="cls-3" x1="246.9" y1="182.8" x2="246.9" y2="204.7"/><line class="cls-3" x1="251.4" y1="183" x2="251.4" y2="204.8"/><line class="cls-3" x1="255.7" y1="182.9" x2="255.7" y2="204.8"/><line class="cls-3" x1="260.2" y1="183" x2="260.2" y2="204.9"/><line class="cls-3" x1="265" y1="182.9" x2="265" y2="204.8"/><line class="cls-3" x1="269.5" y1="183.1" x2="269.5" y2="204.9"/><line class="cls-3" x1="273.8" y1="183" x2="273.8" y2="204.9"/><line class="cls-3" x1="278.3" y1="183.1" x2="278.3" y2="205"/><line class="cls-3" x1="283" y1="182.8" x2="283" y2="204.6"/><line class="cls-3" x1="287.5" y1="182.9" x2="287.5" y2="204.8"/><path class="cls-2" d="M166.3,125.2s-8.4,10.3-9.3,16.3a4.12,4.12,0,0,0,.1,2.2h17.1S175.6,137.8,166.3,125.2Z" transform="translate(-0.5 -0.5)"/><polygon class="cls-2" points="153.6 371.2 177.1 371.2 177.1 257.3 173.9 244.7 173.7 143.2 156.6 143.2 156.4 245.3 153.6 257.2 153.6 371.2"/><path class="cls-2" d="M177.7,370.8s8.9,2.1,10.6-1.3v-79s-6-13.3-10.6-13.5Z" transform="translate(-0.5 -0.5)"/><path class="cls-2" d="M154.3,371s-8.9,2.1-10.6-1.3v-79s6-13.3,10.6-13.5Z" transform="translate(-0.5 -0.5)"/><polygon class="cls-2" points="160.8 371 158.3 375.8 172.3 375.8 170.5 371 160.8 371"/><polygon class="cls-2" points="144.9 370.1 140.1 375.8 153.8 375.8 152.6 370.8 144.9 370.1"/><polygon class="cls-2" points="179.1 371 177.1 375.8 187.8 375.8 185.2 370.1 179.1 371"/><rect class="cls-1" x="162.9" y="255.7" width="5.1" height="5.1"/><rect class="cls-1" x="162.9" y="262.4" width="5.1" height="5.1"/><rect class="cls-1" x="162.9" y="269.2" width="5.1" height="5.1"/><rect class="cls-7" x="156.6" y="189.5" width="16.9" height="37.9"/><rect class="cls-7" x="156.6" y="173.5" width="16.9" height="5.1"/><rect class="cls-7" x="154" y="278" width="22.8" height="20.2"/><rect class="cls-7" x="154" y="331.1" width="22.8" height="9.3"/><rect class="cls-7" x="154" y="359.8" width="22.8" height="11"/><rect class="cls-2" x="160.8" y="290.7" width="9.7" height="80.3"/><polygon class="cls-2" points="165.4 275.7 160.8 290.7 170.5 290.7 165.4 275.7"/><line class="cls-8" x1="121.4" y1="375.8" x2="121.4" y2="367.7"/><path class="cls-6" d="M118.4,376.7c0,1.8-.8,2.8-2.2,2.8-1.2,0-2-1-2.1-2.7s.9-2.7,2.2-2.7S118.4,375,118.4,376.7Zm-3.4.1c0,1.4.5,2.1,1.3,2.1s1.3-.9,1.3-2.2-.4-2.1-1.3-2.1S115,375.3,115,376.8Z" transform="translate(-0.5 -0.5)"/><path class="cls-6" d="M109.3,324.8v-.4l.7-.5c1.6-1.3,2.3-2,2.3-2.8,0-.5-.3-1-1.2-1a2.11,2.11,0,0,0-1.3.5l-.3-.5a2.73,2.73,0,0,1,1.8-.5c1.3,0,1.9.8,1.9,1.5,0,1-.8,1.8-2.2,2.8l-.5.4h2.8v.6Z" transform="translate(-0.5 -0.5)"/><path class="cls-6" d="M118.4,322.2c0,1.8-.8,2.8-2.2,2.8-1.2,0-2-1-2.1-2.7s.9-2.7,2.2-2.7S118.4,320.4,118.4,322.2Zm-3.4,0c0,1.4.5,2.1,1.3,2.1s1.3-.9,1.3-2.2-.4-2.1-1.3-2.1-1.3.8-1.3,2.2Z" transform="translate(-0.5 -0.5)"/><path class="cls-6" d="M111.9,270.2v-1.4H109v-.5l2.8-3.4h.9v3.3h.9v.6h-.9v1.4Zm0-2v-2.6h0c-.2.3-.3.5-.5.8l-1.5,1.8h2Z" transform="translate(-0.5 -0.5)"/><path class="cls-6" d="M118.4,267.5c0,1.8-.8,2.8-2.2,2.8-1.2,0-2-1-2.1-2.7s.9-2.7,2.2-2.7S118.4,265.8,118.4,267.5Zm-3.4.1c0,1.4.5,2.1,1.3,2.1s1.3-.9,1.3-2.2-.4-2.1-1.3-2.1-1.3.8-1.3,2.2Z" transform="translate(-0.5 -0.5)"/><path class="cls-6" d="M112.8,210.8h-.6a2.35,2.35,0,0,0-2.2,1.9h0a2,2,0,0,1,1.5-.6,1.77,1.77,0,0,1,1.9,1.5v.2a1.92,1.92,0,0,1-2,1.9h-.1a2.05,2.05,0,0,1-2.2-2v-.3a3.19,3.19,0,0,1,1.1-2.4,3.86,3.86,0,0,1,2-.8h.6Zm-.2,3.1a1.2,1.2,0,0,0-1.1-1.2h-.2a1.43,1.43,0,0,0-1.2.6.37.37,0,0,0-.1.3,1.42,1.42,0,0,0,1.2,1.5h.2a1.13,1.13,0,0,0,1.2-1.1Z" transform="translate(-0.5 -0.5)"/><path class="cls-6" d="M118.4,212.9c0,1.8-.8,2.8-2.2,2.8-1.2,0-2-1-2.1-2.7s.9-2.7,2.2-2.7S118.4,211.2,118.4,212.9Zm-3.4.1c0,1.4.5,2.1,1.3,2.1s1.3-.9,1.3-2.2-.4-2.1-1.3-2.1S115,211.6,115,213Z" transform="translate(-0.5 -0.5)"/><path class="cls-6" d="M109.2,159.7c0-.7.5-1.1,1.2-1.4h0a1.19,1.19,0,0,1-1-1.2c0-.8.8-1.4,1.9-1.4s1.8.6,1.8,1.3a1.43,1.43,0,0,1-1,1.2h0c.8.3,1.3.7,1.3,1.4,0,.9-.9,1.5-2.1,1.5S109.2,160.5,109.2,159.7Zm3.4,0c0-.6-.5-.9-1.4-1.1-.7.2-1.1.6-1.1,1.1a1.06,1.06,0,0,0,1.2,1c.8,0,1.3-.5,1.3-1Zm-2.4-2.6c0,.5.5.8,1.2,1,.5-.2,1-.5,1-1s-.3-.9-1.1-.9-1.1.4-1.1.9Z" transform="translate(-0.5 -0.5)"/><path class="cls-6" d="M118.4,158.3c0,1.8-.8,2.8-2.2,2.8-1.2,0-2-1-2.1-2.7s.9-2.7,2.2-2.7S118.4,156.7,118.4,158.3Zm-3.4.1c0,1.4.5,2.1,1.3,2.1s1.3-.9,1.3-2.2-.4-2.1-1.3-2.1S115,157,115,158.4Z" transform="translate(-0.5 -0.5)"/><path class="cls-6" d="M106.2,101.8h0l-1.1.5-.2-.6,1.3-.6h.7v5.3h-.8v-4.6Z" transform="translate(-0.5 -0.5)"/><path class="cls-6" d="M113.4,103.7c0,1.8-.8,2.8-2.2,2.8-1.2,0-2.1-1-2.1-2.7s.9-2.7,2.2-2.7S113.4,102.1,113.4,103.7Zm-3.4.1c0,1.4.5,2.2,1.3,2.2s1.3-.8,1.3-2.2-.4-2.2-1.3-2.2S110,102.4,110,103.8Z" transform="translate(-0.5 -0.5)"/><path class="cls-6" d="M118.4,103.7c0,1.8-.8,2.8-2.2,2.8-1.2,0-2-1-2.1-2.7s.9-2.7,2.2-2.7S118.4,102.1,118.4,103.7Zm-3.4.1c0,1.4.5,2.2,1.3,2.2s1.3-.8,1.3-2.2-.4-2.2-1.3-2.2S115,102.4,115,103.8Z" transform="translate(-0.5 -0.5)"/><path class="cls-6" d="M106.2,47.2h0l-1.1.5-.2-.6,1.4-.6h.7v5.3h-.8Z" transform="translate(-0.5 -0.5)"/><path class="cls-6" d="M109.3,51.8v-.4l.7-.5c1.6-1.3,2.3-2,2.3-2.8,0-.5-.3-1-1.2-1a2.11,2.11,0,0,0-1.3.5l-.3-.5a3.45,3.45,0,0,1,1.8-.5c1.3,0,1.9.8,1.9,1.5,0,1-.8,1.8-2.2,2.8l-.5.4h2.8v.6Z" transform="translate(-0.5 -0.5)"/><path class="cls-6" d="M118.4,49.2c0,1.8-.8,2.8-2.2,2.8-1.2,0-2-1-2.1-2.7s.9-2.7,2.2-2.7S118.4,47.5,118.4,49.2Zm-3.4,0c0,1.4.5,2.2,1.3,2.2s1.3-.8,1.3-2.2-.4-2.2-1.3-2.2S115,47.8,115,49.2Z" transform="translate(-0.5 -0.5)"/><line class="cls-3" x1="121.4" y1="375.8" x2="121.4" y2="48.3"/><line class="cls-3" x1="121.4" y1="375.8" x2="126.5" y2="375.8"/><line class="cls-3" x1="121.4" y1="321.3" x2="126.5" y2="321.3"/><line class="cls-3" x1="121.4" y1="266.7" x2="126.5" y2="266.7"/><line class="cls-3" x1="121.4" y1="212.1" x2="126.5" y2="212.1"/><line class="cls-8" x1="121.4" y1="157.5" x2="126.5" y2="157.5"/><line class="cls-3" x1="121.4" y1="102.9" x2="126.5" y2="102.9"/><line class="cls-3" x1="121.4" y1="48.3" x2="126.5" y2="48.3"/><path class="cls-6" d="M152.4,386.8h1.2v7.6H158v1h-5.5v-8.6Z" transform="translate(-0.5 -0.5)"/><path class="cls-6" d="M162.2,391.7a.55.55,0,0,0,.5-.3c0-.1.1-.2.1-.4a.81.81,0,0,0-.4-.8,1.82,1.82,0,0,0-1.1-.2,1.46,1.46,0,0,0-1.2.4,4.88,4.88,0,0,0-.3.7h-1a1.7,1.7,0,0,1,.8-1.6,3.1,3.1,0,0,1,1.7-.5,3.42,3.42,0,0,1,1.8.4,1.36,1.36,0,0,1,.7,1.3v3.6a.37.37,0,0,0,.1.3c.1.1.1.1.3.1h.4v.8c-.2,0-.3.1-.4.1h-.4a.81.81,0,0,1-.8-.4c-.1-.1-.1-.3-.2-.6a2.18,2.18,0,0,1-.9.7,2.77,2.77,0,0,1-1.3.3,1.88,1.88,0,0,1-2-1.8,2.17,2.17,0,0,1,.5-1.4,2,2,0,0,1,1.4-.6Zm-2.2,2.8a1.14,1.14,0,0,0,.8.3,2.28,2.28,0,0,0,1.1-.3,1.51,1.51,0,0,0,.9-1.4v-.8a.76.76,0,0,1-.5.2c-.2,0-.4.1-.6.1l-.6.1a6.37,6.37,0,0,0-.9.2,1.05,1.05,0,0,0-.5.9A.91.91,0,0,0,160,394.5Z" transform="translate(-0.5 -0.5)"/><path class="cls-6" d="M165.6,389.2h1v1.1a3.28,3.28,0,0,1,.6-.8,1.61,1.61,0,0,1,1.1-.5h.3v1.1h-.4a1.66,1.66,0,0,0-1.2.5,1.59,1.59,0,0,0-.4,1.2v3.6h-1.1v-6.2Z" transform="translate(-0.5 -0.5)"/><path class="cls-6" d="M173.1,389.4a1.7,1.7,0,0,1,.6.6v-.8h1v5.7a3.58,3.58,0,0,1-.4,1.9,2.47,2.47,0,0,1-2.5,1.3,3.1,3.1,0,0,1-1.7-.5,1.84,1.84,0,0,1-.8-1.4h1.1a4.88,4.88,0,0,0,.3.7,1.81,1.81,0,0,0,2.7-.5,6.25,6.25,0,0,0,.2-1.8,1.78,1.78,0,0,1-.8.7,3.73,3.73,0,0,1-1.2.2,2.41,2.41,0,0,1-1.8-.7,3.29,3.29,0,0,1-.8-2.4,3.74,3.74,0,0,1,.8-2.5,2.32,2.32,0,0,1,1.9-.9A4.67,4.67,0,0,1,173.1,389.4Zm.1,1.2a1.43,1.43,0,0,0-1.2-.6,1.5,1.5,0,0,0-1.5,1,6.05,6.05,0,0,0-.2,1.5,2.54,2.54,0,0,0,.4,1.6,1.43,1.43,0,0,0,1.2.6,1.54,1.54,0,0,0,1.6-1,2.9,2.9,0,0,0,.3-1.4A3,3,0,0,0,173.2,390.6Z" transform="translate(-0.5 -0.5)"/><path class="cls-6" d="M179.6,391.7a.55.55,0,0,0,.5-.3c0-.1.1-.2.1-.4a.81.81,0,0,0-.4-.8,1.82,1.82,0,0,0-1.1-.2,1.46,1.46,0,0,0-1.2.4,4.88,4.88,0,0,0-.3.7h-1a1.7,1.7,0,0,1,.8-1.6,3.1,3.1,0,0,1,1.7-.5,3.42,3.42,0,0,1,1.8.4,1.36,1.36,0,0,1,.7,1.3v3.6a.37.37,0,0,0,.1.3c.1.1.1.1.3.1h.4v.8c-.2,0-.3.1-.4.1h-.4a.81.81,0,0,1-.8-.4c-.1-.1-.1-.3-.2-.6a2.18,2.18,0,0,1-.9.7,2.77,2.77,0,0,1-1.3.3,1.88,1.88,0,0,1-2-1.8,2.17,2.17,0,0,1,.5-1.4,2,2,0,0,1,1.4-.6Zm-2.2,2.8a1.14,1.14,0,0,0,.8.3,2.28,2.28,0,0,0,1.1-.3,1.51,1.51,0,0,0,.9-1.4v-.8a.76.76,0,0,1-.5.2c-.2,0-.4.1-.6.1l-.6.1a6.37,6.37,0,0,0-.9.2,1.05,1.05,0,0,0-.5.9C177,394.1,177.1,394.3,177.4,394.5Z" transform="translate(-0.5 -0.5)"/><path class="cls-6" d="M144.3,401.2H146l2.5,7.3,2.5-7.3h1.7v8.6h-1.1v-7.3l-2.5,7.3h-1.2l-2.5-7.3v7.4h-1.1v-8.7Z" transform="translate(-0.5 -0.5)"/><path class="cls-6" d="M157.6,406.1a.55.55,0,0,0,.5-.3c0-.1.1-.2.1-.4a.81.81,0,0,0-.4-.8,1.82,1.82,0,0,0-1.1-.2,1.46,1.46,0,0,0-1.2.4,4.88,4.88,0,0,0-.3.7h-1a1.7,1.7,0,0,1,.8-1.6,3.1,3.1,0,0,1,1.7-.5,3.42,3.42,0,0,1,1.8.4,1.36,1.36,0,0,1,.7,1.3v3.6a.37.37,0,0,0,.1.3c.1.1.1.1.3.1h.4v.8c-.2,0-.3.1-.4.1h-.4a.81.81,0,0,1-.8-.4c-.1-.1-.1-.3-.2-.6a2.18,2.18,0,0,1-.9.7,2.77,2.77,0,0,1-1.3.3,1.88,1.88,0,0,1-2-1.8,2.17,2.17,0,0,1,.5-1.4,2,2,0,0,1,1.4-.6Zm-2.2,2.8a1.14,1.14,0,0,0,.8.3,2.28,2.28,0,0,0,1.1-.3,1.51,1.51,0,0,0,.9-1.4v-.8a.76.76,0,0,1-.5.2c-.2,0-.4.1-.6.1l-.6.1a6.37,6.37,0,0,0-.9.2,1.05,1.05,0,0,0-.5.9C155,408.5,155.1,408.7,155.4,408.9Z" transform="translate(-0.5 -0.5)"/><path class="cls-6" d="M160.9,403.6h1v1.1a3.28,3.28,0,0,1,.6-.8,1.61,1.61,0,0,1,1.1-.5h.3v1.1h-.4a1.66,1.66,0,0,0-1.2.5,1.59,1.59,0,0,0-.4,1.2v3.6h-1.1v-6.2Z" transform="translate(-0.5 -0.5)"/><path class="cls-6" d="M169,403.9a2.53,2.53,0,0,1,.8,1.8h-1a3,3,0,0,0-.4-1,1.25,1.25,0,0,0-1.1-.4,1.31,1.31,0,0,0-1.4,1,3.81,3.81,0,0,0-.3,1.6,2.73,2.73,0,0,0,.4,1.6,1.49,1.49,0,0,0,1.3.6,1.16,1.16,0,0,0,1-.4,2.81,2.81,0,0,0,.5-1.1h1a2.61,2.61,0,0,1-.9,1.8,2.79,2.79,0,0,1-1.8.6,2.52,2.52,0,0,1-2-.9,3.23,3.23,0,0,1-.7-2.2,4,4,0,0,1,.8-2.6,2.52,2.52,0,0,1,2-.9A3,3,0,0,1,169,403.9Z" transform="translate(-0.5 -0.5)"/><path class="cls-6" d="M170.9,401.2H172v3.2a4.62,4.62,0,0,1,.7-.7,2.5,2.5,0,0,1,1.3-.3,2,2,0,0,1,1.9,1,2.65,2.65,0,0,1,.3,1.4v4h-1.1v-4a2.15,2.15,0,0,0-.2-1,1.29,1.29,0,0,0-1.1-.5,2.08,2.08,0,0,0-1.2.5c-.4.3-.5.9-.5,1.7v3.3H171v-8.6Z" transform="translate(-0.5 -0.5)"/><path class="cls-6" d="M180.9,406.1a.55.55,0,0,0,.5-.3c0-.1.1-.2.1-.4a.81.81,0,0,0-.4-.8,1.82,1.82,0,0,0-1.1-.2,1.46,1.46,0,0,0-1.2.4,4.88,4.88,0,0,0-.3.7h-1a1.7,1.7,0,0,1,.8-1.6,3.1,3.1,0,0,1,1.7-.5,3.42,3.42,0,0,1,1.8.4,1.36,1.36,0,0,1,.7,1.3v3.6a.37.37,0,0,0,.1.3c.1.1.1.1.3.1h.4v.8c-.2,0-.3.1-.4.1h-.4a.81.81,0,0,1-.8-.4c-.1-.1-.1-.3-.2-.6a2.18,2.18,0,0,1-.9.7,2.77,2.77,0,0,1-1.3.3,1.88,1.88,0,0,1-2-1.8,2.17,2.17,0,0,1,.5-1.4,2,2,0,0,1,1.4-.6Zm-2.2,2.8a1.14,1.14,0,0,0,.8.3,2.28,2.28,0,0,0,1.1-.3,1.51,1.51,0,0,0,.9-1.4v-.8a.76.76,0,0,1-.5.2c-.2,0-.4.1-.6.1l-.6.1a6.37,6.37,0,0,0-.9.2,1.05,1.05,0,0,0-.5.9A.91.91,0,0,0,178.7,408.9Z" transform="translate(-0.5 -0.5)"/><path class="cls-6" d="M188.4,407.8a1.27,1.27,0,0,0,.7,1.2,1.85,1.85,0,0,0,.7.2,1.76,1.76,0,0,0,1.3-.6,5.24,5.24,0,0,0,.8-2.6,1.76,1.76,0,0,1-.9.8,2.15,2.15,0,0,1-1.1.2,2.56,2.56,0,0,1-1.9-.8,2.64,2.64,0,0,1-.7-1.9,2.88,2.88,0,0,1,.7-2,2.58,2.58,0,0,1,2.1-.9,2.5,2.5,0,0,1,2.5,1.7,5.27,5.27,0,0,1,.4,2.3,7.63,7.63,0,0,1-.5,2.7,2.73,2.73,0,0,1-2.6,2,2.88,2.88,0,0,1-1.9-.6,1.91,1.91,0,0,1-.6-1.6h1Zm2.7-2.1a2.21,2.21,0,0,0,0-2.8,1.69,1.69,0,0,0-2.4,0,2,2,0,0,0-.5,1.4,1.84,1.84,0,0,0,.4,1.3,1.73,1.73,0,0,0,1.3.5A1.59,1.59,0,0,0,191.1,405.7Z" transform="translate(-0.5 -0.5)"/><path class="cls-6" d="M153.8,108.9a1.27,1.27,0,0,0,.7,1.2,1.85,1.85,0,0,0,.7.2,1.76,1.76,0,0,0,1.3-.6,5.24,5.24,0,0,0,.8-2.6,1.76,1.76,0,0,1-.9.8,2.15,2.15,0,0,1-1.1.2,2.56,2.56,0,0,1-1.9-.8,2.64,2.64,0,0,1-.7-1.9,2.88,2.88,0,0,1,.7-2,2.58,2.58,0,0,1,2.1-.9,2.5,2.5,0,0,1,2.5,1.7,5.27,5.27,0,0,1,.4,2.3,7.63,7.63,0,0,1-.5,2.7,2.73,2.73,0,0,1-2.6,2,2.88,2.88,0,0,1-1.9-.6,1.91,1.91,0,0,1-.6-1.6h1Zm2.7-2.2a2.21,2.21,0,0,0,0-2.8,1.69,1.69,0,0,0-2.4,0,2,2,0,0,0-.5,1.4,1.84,1.84,0,0,0,.4,1.3,1.73,1.73,0,0,0,1.3.5A1.59,1.59,0,0,0,156.5,106.7Z" transform="translate(-0.5 -0.5)"/><path class="cls-6" d="M159.8,110.3a3.22,3.22,0,0,1-.7-2h1.1a2.13,2.13,0,0,0,.3,1.2,1.81,1.81,0,0,0,1.5.7,1.7,1.7,0,0,0,1.3-.4,1.61,1.61,0,0,0,.5-1.1,1.36,1.36,0,0,0-.5-1.2,2.81,2.81,0,0,0-1.5-.3h-.4v-.9h.5a3,3,0,0,0,1-.2,1.41,1.41,0,0,0,.3-2.2,1.21,1.21,0,0,0-1-.3,1.58,1.58,0,0,0-1.5.7,8.11,8.11,0,0,0-.3,1.1h-1a2.73,2.73,0,0,1,.4-1.6,2.36,2.36,0,0,1,2.3-1.2,3,3,0,0,1,2,.6,1.94,1.94,0,0,1,.7,1.7,2,2,0,0,1-.4,1.3,1.79,1.79,0,0,1-.7.5,1.83,1.83,0,0,1,1,.7,2.5,2.5,0,0,1,.4,1.3,2.79,2.79,0,0,1-.8,2,3.11,3.11,0,0,1-2.2.8A5.37,5.37,0,0,1,159.8,110.3Z" transform="translate(-0.5 -0.5)"/><path class="cls-6" d="M169.6,104.6h1v.9a4.62,4.62,0,0,1,.7-.7,2.14,2.14,0,0,1,1.2-.4,1.59,1.59,0,0,1,1.2.4c.2.1.3.3.5.6a1.78,1.78,0,0,1,.8-.7,3.59,3.59,0,0,1,1.1-.2,1.75,1.75,0,0,1,1.7.9,2.55,2.55,0,0,1,.2,1.3v4.2h-1v-4.4a1.22,1.22,0,0,0-.3-.9,1.08,1.08,0,0,0-.8-.2,1.5,1.5,0,0,0-1.1.4,1.81,1.81,0,0,0-.4,1.4v3.7h-1.1v-4.1a2,2,0,0,0-.2-.9,1,1,0,0,0-.9-.4,1.61,1.61,0,0,0-1.1.5,2.46,2.46,0,0,0-.5,1.7V111h-1.1v-6.4Z" transform="translate(-0.5 -0.5)"/><path class="cls-6" d="M261.9,386.8v1H259v7.6h-1.2v-7.6h-2.9v-1Z" transform="translate(-0.5 -0.5)"/><path class="cls-6" d="M266.1,389.8a2.92,2.92,0,0,1,.8,2.4,4.09,4.09,0,0,1-.7,2.5,2.64,2.64,0,0,1-2.3,1,2.72,2.72,0,0,1-2.1-.9,3.19,3.19,0,0,1-.8-2.4,3.74,3.74,0,0,1,.8-2.5,2.79,2.79,0,0,1,2.2-.9A3.23,3.23,0,0,1,266.1,389.8Zm-.7,4.2a3.42,3.42,0,0,0,.4-1.8,2.65,2.65,0,0,0-.3-1.4,1.55,1.55,0,0,0-1.5-.9,1.51,1.51,0,0,0-1.4.7,3.42,3.42,0,0,0-.4,1.8,3.06,3.06,0,0,0,.4,1.7,1.51,1.51,0,0,0,1.4.7A1.39,1.39,0,0,0,265.4,394Z" transform="translate(-0.5 -0.5)"/><path class="cls-6" d="M268.2,389.2h1v1.1a3.28,3.28,0,0,1,.6-.8,1.61,1.61,0,0,1,1.1-.5h.3v1.1h-.4a1.66,1.66,0,0,0-1.2.5,1.59,1.59,0,0,0-.4,1.2v3.6h-1.1v-6.2Z" transform="translate(-0.5 -0.5)"/><path class="cls-6" d="M272.2,389.2h1v1.1a3.28,3.28,0,0,1,.6-.8,1.61,1.61,0,0,1,1.1-.5h.3v1.1h-.4a1.66,1.66,0,0,0-1.2.5,1.59,1.59,0,0,0-.4,1.2v3.6h-1.1v-6.2Z" transform="translate(-0.5 -0.5)"/><path class="cls-6" d="M280.1,389.3a3.92,3.92,0,0,1,1,.8,2.1,2.1,0,0,1,.4,1.1,5.31,5.31,0,0,1,.1,1.4H277a2.46,2.46,0,0,0,.5,1.5,1.49,1.49,0,0,0,1.3.6,1.73,1.73,0,0,0,1.3-.5,2.51,2.51,0,0,0,.4-.7h1a1.6,1.6,0,0,1-.3.8,4.23,4.23,0,0,1-.5.7,2.28,2.28,0,0,1-1.2.6,2.48,2.48,0,0,1-.9.1,2.66,2.66,0,0,1-2-.9,3.19,3.19,0,0,1-.8-2.4,4.15,4.15,0,0,1,.8-2.5,2.43,2.43,0,0,1,2.1-.9A3.53,3.53,0,0,1,280.1,389.3Zm.3,2.5a1.8,1.8,0,0,0-.3-1.1,1.6,1.6,0,0,0-1.4-.8,1.66,1.66,0,0,0-1.2.5,1.9,1.9,0,0,0-.5,1.3h3.4Z" transform="translate(-0.5 -0.5)"/><path class="cls-6" d="M255.7,401.2H262v1.1h-5.1v2.6h4.8v1h-4.8v2.9h5.2v1h-6.4v-8.6Z" transform="translate(-0.5 -0.5)"/><path class="cls-6" d="M263.5,403.6h1v.9a3.24,3.24,0,0,1,.9-.8,2,2,0,0,1,1.1-.2,1.81,1.81,0,0,1,1.8.9,2.81,2.81,0,0,1,.3,1.5v4h-1.1v-4a2,2,0,0,0-.2-.9,1,1,0,0,0-1-.6c-.2,0-.5,0-.6.1a3.51,3.51,0,0,0-.8.5.86.86,0,0,0-.3.6c0,.2-.1.5-.1.9v3.3h-1.1v-6.2Z" transform="translate(-0.5 -0.5)"/><path class="cls-6" d="M270.4,401.8h1.1v1.8h1v.9h-1v4.1c0,.2.1.4.2.4s.2.1.4.1h.4v.8c-.1,0-.2.1-.4.1h-.4a1.05,1.05,0,0,1-1-.4,1.69,1.69,0,0,1-.3-1v-4.2h-.8v-.9h.8v-1.7Z" transform="translate(-0.5 -0.5)"/><path class="cls-6" d="M277.4,403.7a3.92,3.92,0,0,1,1,.8,2.1,2.1,0,0,1,.4,1.1,5.31,5.31,0,0,1,.1,1.4h-4.6a2.46,2.46,0,0,0,.5,1.5,1.49,1.49,0,0,0,1.3.6,1.73,1.73,0,0,0,1.3-.5,2.51,2.51,0,0,0,.4-.7h1a1.6,1.6,0,0,1-.3.8,4.23,4.23,0,0,1-.5.7,2.28,2.28,0,0,1-1.2.6,2.48,2.48,0,0,1-.9.1,2.66,2.66,0,0,1-2-.9,3.19,3.19,0,0,1-.8-2.4,4.15,4.15,0,0,1,.8-2.5,2.43,2.43,0,0,1,2.1-.9A3.19,3.19,0,0,1,277.4,403.7Zm.4,2.5a1.8,1.8,0,0,0-.3-1.1,1.6,1.6,0,0,0-1.4-.8,1.66,1.66,0,0,0-1.2.5,1.9,1.9,0,0,0-.5,1.3h3.4Z" transform="translate(-0.5 -0.5)"/><path class="cls-6" d="M280.2,401.2h1.1v8.6h-1.1Z" transform="translate(-0.5 -0.5)"/><path class="cls-6" d="M255.1,15.9v-.8a4,4,0,0,0,1.6-.4,2.23,2.23,0,0,0,.7-1.2h.8v8.4H257V16h-1.9Z" transform="translate(-0.5 -0.5)"/><path class="cls-6" d="M261.4,19.9a5.3,5.3,0,0,1,1.5-1.5l1.1-.7a3.47,3.47,0,0,0,1.1-.8,1.52,1.52,0,0,0-1.1-2.7,1.65,1.65,0,0,0-1.5.8,3.73,3.73,0,0,0-.2,1.2h-1.1a3.42,3.42,0,0,1,.4-1.8,2.62,2.62,0,0,1,2.4-1.2,2.56,2.56,0,0,1,2.1.8,2.84,2.84,0,0,1,.7,1.7,2.19,2.19,0,0,1-.7,1.7,7.64,7.64,0,0,1-1.5,1l-.8.4a3.49,3.49,0,0,0-.9.6,1.9,1.9,0,0,0-.7,1.1h4.6v1H261A6.18,6.18,0,0,1,261.4,19.9Z" transform="translate(-0.5 -0.5)"/><path class="cls-6" d="M273.5,13.6v.9a11.38,11.38,0,0,0-1.1,1.4,14.32,14.32,0,0,0-1.2,2.1c-.3.7-.6,1.4-.8,2a11.79,11.79,0,0,0-.4,1.9h-1.2a15.68,15.68,0,0,1,1.8-4.8,14.65,14.65,0,0,1,1.7-2.4h-4.6V13.6Z" transform="translate(-0.5 -0.5)"/><path class="cls-6" d="M278,15.5h1v.9a4.62,4.62,0,0,1,.7-.7,2.14,2.14,0,0,1,1.2-.4,1.59,1.59,0,0,1,1.2.4c.2.1.3.3.5.6a1.78,1.78,0,0,1,.8-.7,3.59,3.59,0,0,1,1.1-.2,1.75,1.75,0,0,1,1.7.9,2.55,2.55,0,0,1,.2,1.3v4.2h-1.1V17.4a1.22,1.22,0,0,0-.3-.9,1.08,1.08,0,0,0-.8-.2,1.5,1.5,0,0,0-1.1.4,1.81,1.81,0,0,0-.4,1.4v3.7h-1.1V17.7a2,2,0,0,0-.2-.9,1,1,0,0,0-.9-.4,1.61,1.61,0,0,0-1.1.5,2.46,2.46,0,0,0-.5,1.7v3.3H278Z" transform="translate(-0.5 -0.5)"/></svg>