<?xml version="1.0" encoding="utf-8"?>
<!-- Generator: Adobe Illustrator 24.3.0, SVG Export Plug-In . SVG Version: 6.00 Build 0)  -->
<svg version="1.1" id="Layer_1" xmlns="http://www.w3.org/2000/svg" xmlns:xlink="http://www.w3.org/1999/xlink" x="0px" y="0px"
	 viewBox="0 0 425.2 425.2" style="enable-background:new 0 0 425.2 425.2;" xml:space="preserve">
<style type="text/css">
	.st0{fill:#020202;stroke:#BE965F;stroke-miterlimit:10;}
	.st1{fill:none;stroke:#FFFFFF;stroke-width:6;stroke-miterlimit:10;}
	.st2{fill:#BE965F;}
	.st3{fill:none;}
	.st4{fill:#FFFFFF;}
	.st5{fill:none;stroke:#FFFFFF;stroke-miterlimit:10;}
	.st6{stroke:#B64026;stroke-miterlimit:10;}
	.st7{enable-background:new    ;}
	.st8{fill:#B64026;}
</style>
<rect x="0.5" y="0.5" width="425" height="425"/>
<rect x="254" y="226.7" class="st0" width="38.5" height="150.6"/>
<rect x="246.3" y="208.1" class="st0" width="55.1" height="18.5"/>
<rect x="248.9" y="181.8" class="st0" width="49.7" height="22.3"/>
<path class="st1" d="M251.9,204.1"/>
<line class="st0" x1="255.4" y1="204.1" x2="255.4" y2="208.2"/>
<line class="st0" x1="252.3" y1="204.1" x2="252.3" y2="207.9"/>
<line class="st0" x1="292.1" y1="204.1" x2="292.1" y2="208.1"/>
<line class="st0" x1="295.2" y1="204.1" x2="295.2" y2="208.2"/>
<rect x="258.6" y="204.1" class="st0" width="29.9" height="3.8"/>
<rect x="246.3" y="179.2" class="st0" width="54.6" height="2.6"/>
<rect x="258.6" y="164.8" class="st0" width="29.9" height="14.3"/>
<rect x="246.7" y="147.4" class="st0" width="54.1" height="17.4"/>
<rect x="267.7" y="105.5" class="st0" width="11.6" height="41.9"/>
<rect x="258.6" y="91" class="st0" width="30.1" height="14.4"/>
<rect x="265.9" y="80.5" class="st0" width="16" height="8.5"/>
<rect x="255.4" y="89" class="st0" width="36.6" height="2"/>
<ellipse class="st0" cx="252" cy="173.7" rx="4.9" ry="5"/>
<ellipse class="st0" cx="295.8" cy="173.7" rx="4.9" ry="5"/>
<rect x="246.7" y="133.2" class="st0" width="54.1" height="2.1"/>
<rect x="246.7" y="114.6" class="st0" width="54.1" height="2"/>
<rect x="263" y="116.6" class="st0" width="1" height="30.8"/>
<rect x="285" y="116.6" class="st0" width="1" height="30.8"/>
<line class="st0" x1="252" y1="142" x2="297.3" y2="142"/>
<line class="st0" x1="252.2" y1="142" x2="252.2" y2="147.4"/>
<line class="st0" x1="297.3" y1="142" x2="297.3" y2="147.4"/>
<line class="st0" x1="252" y1="129.3" x2="297.3" y2="129.3"/>
<line class="st0" x1="252.2" y1="129.3" x2="252.2" y2="133.1"/>
<line class="st0" x1="297.3" y1="129.3" x2="297.3" y2="133.2"/>
<line class="st0" x1="252" y1="110.5" x2="295.3" y2="110.5"/>
<line class="st0" x1="252.2" y1="110.5" x2="252.2" y2="114.7"/>
<line class="st0" x1="295.3" y1="110.5" x2="295.3" y2="114.7"/>
<line class="st0" x1="256.3" y1="85.4" x2="291.1" y2="85.4"/>
<line class="st0" x1="256.4" y1="85.4" x2="256.4" y2="89"/>
<line class="st0" x1="291.1" y1="85.4" x2="291.1" y2="89"/>
<line class="st0" x1="271.1" y1="49.3" x2="271.1" y2="80.5"/>
<line class="st0" x1="276.5" y1="49.3" x2="276.5" y2="80.5"/>
<line class="st0" x1="270.1" y1="49.3" x2="277.5" y2="49.3"/>
<line class="st0" x1="274.5" y1="32.9" x2="274.5" y2="49.3"/>
<ellipse class="st2" cx="274.5" cy="32.1" rx="0.9" ry="0.9"/>
<line class="st0" x1="253.6" y1="181.9" x2="253.6" y2="203.8"/>
<line class="st0" x1="258.1" y1="182.1" x2="258.1" y2="203.9"/>
<line class="st0" x1="262.4" y1="182" x2="262.4" y2="203.9"/>
<line class="st0" x1="266.9" y1="182.1" x2="266.9" y2="204"/>
<line class="st0" x1="271.7" y1="182" x2="271.7" y2="203.9"/>
<line class="st0" x1="276.2" y1="182.2" x2="276.2" y2="204"/>
<line class="st0" x1="280.5" y1="182.1" x2="280.5" y2="204"/>
<line class="st0" x1="285" y1="182.2" x2="285" y2="204.1"/>
<line class="st0" x1="289.7" y1="181.9" x2="289.7" y2="203.7"/>
<line class="st0" x1="294.2" y1="182" x2="294.2" y2="203.9"/>
<line class="st3" x1="128.1" y1="376.9" x2="128.1" y2="368.8"/>
<path class="st4" d="M124.6,377.3c0,1.8-0.8,2.8-2.2,2.8c-1.2,0-2-1-2.1-2.7s0.9-2.7,2.2-2.7S124.6,375.6,124.6,377.3z M121.2,377.4
	c0,1.4,0.5,2.1,1.3,2.1s1.3-0.9,1.3-2.2s-0.4-2.1-1.3-2.1S121.2,375.9,121.2,377.4z"/>
<path class="st4" d="M115.5,325.4V325l0.7-0.5c1.6-1.3,2.3-2,2.3-2.8c0-0.5-0.3-1-1.2-1c-0.5,0-0.9,0.2-1.3,0.5l-0.3-0.5
	c0.5-0.4,1.1-0.5,1.8-0.5c1.3,0,1.9,0.8,1.9,1.5c0,1-0.8,1.8-2.2,2.8l-0.5,0.4h2.8v0.6L115.5,325.4z"/>
<path class="st4" d="M124.6,322.8c0,1.8-0.8,2.8-2.2,2.8c-1.2,0-2-1-2.1-2.7s0.9-2.7,2.2-2.7S124.6,321,124.6,322.8z M121.2,322.8
	c0,1.4,0.5,2.1,1.3,2.1s1.3-0.9,1.3-2.2s-0.4-2.1-1.3-2.1S121.2,321.4,121.2,322.8L121.2,322.8z"/>
<path class="st4" d="M118.1,270.8v-1.4h-2.9v-0.5l2.8-3.4h0.9v3.3h0.9v0.6h-0.9v1.4H118.1z M118.1,268.8V267c0-0.3,0-0.5,0-0.8l0,0
	c-0.2,0.3-0.3,0.5-0.5,0.8l-1.5,1.8l0,0H118.1z"/>
<path class="st4" d="M124.6,268.1c0,1.8-0.8,2.8-2.2,2.8c-1.2,0-2-1-2.1-2.7s0.9-2.7,2.2-2.7S124.6,266.4,124.6,268.1z M121.2,268.2
	c0,1.4,0.5,2.1,1.3,2.1s1.3-0.9,1.3-2.2s-0.4-2.1-1.3-2.1S121.2,266.8,121.2,268.2L121.2,268.2z"/>
<path class="st4" d="M119,211.4c-0.2,0-0.4,0-0.6,0c-1.1,0.1-2,0.8-2.2,1.9l0,0c0.4-0.4,0.9-0.6,1.5-0.6c0.9-0.1,1.8,0.6,1.9,1.5
	c0,0.1,0,0.1,0,0.2c0,1.1-0.9,1.9-2,1.9h-0.1c-1.2,0.1-2.1-0.8-2.2-2c0-0.1,0-0.2,0-0.3c0-0.9,0.4-1.8,1.1-2.4
	c0.6-0.5,1.3-0.7,2-0.8c0.2,0,0.4,0,0.6,0L119,211.4z M118.8,214.5c0-0.6-0.5-1.2-1.1-1.2c-0.1,0-0.1,0-0.2,0
	c-0.5,0-0.9,0.2-1.2,0.6c-0.1,0.1-0.1,0.2-0.1,0.3c-0.1,0.7,0.5,1.4,1.2,1.5c0.1,0,0.1,0,0.2,0c0.7,0,1.2-0.5,1.2-1.1V214.5z"/>
<path class="st4" d="M124.6,213.5c0,1.8-0.8,2.8-2.2,2.8c-1.2,0-2-1-2.1-2.7s0.9-2.7,2.2-2.7S124.6,211.8,124.6,213.5z M121.2,213.6
	c0,1.4,0.5,2.1,1.3,2.1s1.3-0.9,1.3-2.2s-0.4-2.1-1.3-2.1S121.2,212.2,121.2,213.6z"/>
<path class="st4" d="M115.4,160.3c0-0.7,0.5-1.1,1.2-1.4l0,0c-0.6-0.1-1-0.6-1-1.2c0-0.8,0.8-1.4,1.9-1.4s1.8,0.6,1.8,1.3
	c0,0.4-0.3,0.9-1,1.2l0,0c0.8,0.3,1.3,0.7,1.3,1.4c0,0.9-0.9,1.5-2.1,1.5S115.4,161.1,115.4,160.3z M118.8,160.3
	c0-0.6-0.5-0.9-1.4-1.1c-0.7,0.2-1.1,0.6-1.1,1.1s0.4,1,1.2,1S118.8,160.8,118.8,160.3L118.8,160.3z M116.4,157.7
	c0,0.5,0.5,0.8,1.2,1c0.5-0.2,1-0.5,1-1s-0.3-0.9-1.1-0.9S116.4,157.2,116.4,157.7L116.4,157.7z"/>
<path class="st4" d="M124.6,158.9c0,1.8-0.8,2.8-2.2,2.8c-1.2,0-2-1-2.1-2.7s0.9-2.7,2.2-2.7S124.6,157.3,124.6,158.9z M121.2,159
	c0,1.4,0.5,2.1,1.3,2.1s1.3-0.9,1.3-2.2s-0.4-2.1-1.3-2.1S121.2,157.6,121.2,159z"/>
<path class="st4" d="M112.4,102.4L112.4,102.4l-1.1,0.5l-0.2-0.6l1.3-0.6h0.7v5.3h-0.8L112.4,102.4L112.4,102.4z"/>
<path class="st4" d="M119.6,104.3c0,1.8-0.8,2.8-2.2,2.8c-1.2,0-2.1-1-2.1-2.7s0.9-2.7,2.2-2.7S119.6,102.7,119.6,104.3z
	 M116.2,104.4c0,1.4,0.5,2.2,1.3,2.2s1.3-0.8,1.3-2.2s-0.4-2.2-1.3-2.2S116.2,103,116.2,104.4z"/>
<path class="st4" d="M124.6,104.3c0,1.8-0.8,2.8-2.2,2.8c-1.2,0-2-1-2.1-2.7s0.9-2.7,2.2-2.7S124.6,102.7,124.6,104.3z M121.2,104.4
	c0,1.4,0.5,2.2,1.3,2.2s1.3-0.8,1.3-2.2s-0.4-2.2-1.3-2.2S121.2,103,121.2,104.4z"/>
<path class="st4" d="M112.4,47.8L112.4,47.8l-1.1,0.5l-0.2-0.6l1.4-0.6h0.7v5.3h-0.8V47.8z"/>
<path class="st4" d="M115.5,52.4V52l0.7-0.5c1.6-1.3,2.3-2,2.3-2.8c0-0.5-0.3-1-1.2-1c-0.5,0-0.9,0.2-1.3,0.5l-0.3-0.5
	c0.5-0.3,1.1-0.5,1.8-0.5c1.3,0,1.9,0.8,1.9,1.5c0,1-0.8,1.8-2.2,2.8l-0.5,0.4h2.8v0.6L115.5,52.4z"/>
<path class="st4" d="M124.6,49.8c0,1.8-0.8,2.8-2.2,2.8c-1.2,0-2-1-2.1-2.7s0.9-2.7,2.2-2.7S124.6,48.1,124.6,49.8z M121.2,49.8
	c0,1.4,0.5,2.2,1.3,2.2s1.3-0.8,1.3-2.2s-0.4-2.2-1.3-2.2S121.2,48.4,121.2,49.8z"/>
<line class="st5" x1="128.1" y1="376.9" x2="128.1" y2="49.4"/>
<line class="st5" x1="128.1" y1="376.9" x2="133.2" y2="376.9"/>
<line class="st5" x1="128.1" y1="322.4" x2="133.2" y2="322.4"/>
<line class="st5" x1="128.1" y1="267.8" x2="133.2" y2="267.8"/>
<line class="st5" x1="128.1" y1="213.2" x2="133.2" y2="213.2"/>
<line class="st3" x1="128.1" y1="158.6" x2="133.2" y2="158.6"/>
<line class="st5" x1="128.1" y1="104" x2="133.2" y2="104"/>
<line class="st5" x1="128.1" y1="49.4" x2="133.2" y2="49.4"/>
<g>
	<path class="st2" d="M268.1,388.4v1h-2.9v7.6H264v-7.6h-2.9v-1H268.1z"/>
	<path class="st2" d="M272.3,391.4c0.6,0.5,0.8,1.3,0.8,2.4c0,1-0.2,1.8-0.7,2.5s-1.3,1-2.3,1c-0.9,0-1.5-0.3-2.1-0.9
		s-0.8-1.4-0.8-2.4c0-1.1,0.3-1.9,0.8-2.5s1.3-0.9,2.2-0.9C271,390.6,271.7,390.9,272.3,391.4z M271.6,395.6
		c0.3-0.5,0.4-1.1,0.4-1.8c0-0.6-0.1-1.1-0.3-1.4c-0.3-0.6-0.8-0.9-1.5-0.9c-0.6,0-1.1,0.2-1.4,0.7s-0.4,1.1-0.4,1.8
		c0,0.7,0.1,1.2,0.4,1.7s0.8,0.7,1.4,0.7C270.9,396.4,271.4,396.1,271.6,395.6z"/>
	<path class="st2" d="M274.4,390.8h1v1.1c0.1-0.2,0.3-0.5,0.6-0.8s0.7-0.5,1.1-0.5h0.1c0,0,0.1,0,0.2,0v1.1c-0.1,0-0.1,0-0.2,0
		s-0.1,0-0.2,0c-0.5,0-0.9,0.2-1.2,0.5s-0.4,0.7-0.4,1.2v3.6h-1.1v-6.2H274.4z"/>
	<path class="st2" d="M278.4,390.8h1v1.1c0.1-0.2,0.3-0.5,0.6-0.8s0.7-0.5,1.1-0.5h0.1c0,0,0.1,0,0.2,0v1.1c-0.1,0-0.1,0-0.2,0
		s-0.1,0-0.2,0c-0.5,0-0.9,0.2-1.2,0.5s-0.4,0.7-0.4,1.2v3.6h-1.1v-6.2H278.4z"/>
	<path class="st2" d="M286.3,390.9c0.4,0.2,0.7,0.5,1,0.8c0.2,0.3,0.4,0.7,0.4,1.1c0.1,0.3,0.1,0.8,0.1,1.4h-4.6
		c0,0.6,0.2,1.1,0.5,1.5s0.7,0.6,1.3,0.6c0.6,0,1-0.2,1.3-0.5c0.2-0.2,0.3-0.5,0.4-0.7h1c0,0.2-0.1,0.5-0.3,0.8s-0.3,0.5-0.5,0.7
		c-0.3,0.3-0.7,0.5-1.2,0.6c-0.3,0.1-0.5,0.1-0.9,0.1c-0.8,0-1.4-0.3-2-0.9S282,395,282,394s0.3-1.8,0.8-2.5s1.3-0.9,2.1-0.9
		C285.4,390.6,285.8,390.7,286.3,390.9z M286.6,393.4c0-0.5-0.1-0.8-0.3-1.1c-0.3-0.5-0.8-0.8-1.4-0.8c-0.5,0-0.9,0.2-1.2,0.5
		s-0.5,0.8-0.5,1.3h3.4V393.4z"/>
	<path class="st2" d="M261.9,402.8h6.3v1.1h-5.1v2.6h4.8v1h-4.8v2.9h5.2v1h-6.4V402.8L261.9,402.8z"/>
	<path class="st2" d="M269.7,405.2h1v0.9c0.3-0.4,0.6-0.6,0.9-0.8s0.7-0.2,1.1-0.2c0.9,0,1.5,0.3,1.8,0.9c0.2,0.3,0.3,0.8,0.3,1.5v4
		h-1.1v-4c0-0.4-0.1-0.7-0.2-0.9c-0.2-0.4-0.5-0.6-1-0.6c-0.2,0-0.5,0-0.6,0.1c-0.3,0.1-0.5,0.3-0.8,0.5c-0.2,0.2-0.3,0.4-0.3,0.6
		s-0.1,0.5-0.1,0.9v3.3h-1.1v-6.2H269.7z"/>
	<path class="st2" d="M276.6,403.4h1.1v1.8h1v0.9h-1v4.1c0,0.2,0.1,0.4,0.2,0.4s0.2,0.1,0.4,0.1c0.1,0,0.1,0,0.2,0s0.1,0,0.2,0v0.8
		c-0.1,0-0.2,0.1-0.4,0.1s-0.3,0-0.4,0c-0.5,0-0.8-0.1-1-0.4s-0.3-0.6-0.3-1V406h-0.8v-0.9h0.8L276.6,403.4L276.6,403.4z"/>
	<path class="st2" d="M283.6,405.3c0.4,0.2,0.7,0.5,1,0.8c0.2,0.3,0.4,0.7,0.4,1.1c0.1,0.3,0.1,0.8,0.1,1.4h-4.6
		c0,0.6,0.2,1.1,0.5,1.5s0.7,0.6,1.3,0.6c0.6,0,1-0.2,1.3-0.5c0.2-0.2,0.3-0.5,0.4-0.7h1c0,0.2-0.1,0.5-0.3,0.8s-0.3,0.5-0.5,0.7
		c-0.3,0.3-0.7,0.5-1.2,0.6c-0.3,0.1-0.5,0.1-0.9,0.1c-0.8,0-1.4-0.3-2-0.9s-0.8-1.4-0.8-2.4s0.3-1.8,0.8-2.5s1.3-0.9,2.1-0.9
		C282.7,405,283.2,405.1,283.6,405.3z M284,407.8c0-0.5-0.1-0.8-0.3-1.1c-0.3-0.5-0.8-0.8-1.4-0.8c-0.5,0-0.9,0.2-1.2,0.5
		s-0.5,0.8-0.5,1.3h3.4V407.8z"/>
	<path class="st2" d="M286.4,402.8h1.1v8.6h-1.1V402.8z"/>
</g>
<g>
	<g>
		<path class="st2" d="M261.3,14.5v-0.8c0.8-0.1,1.3-0.2,1.6-0.4s0.5-0.6,0.7-1.2h0.8v8.4h-1.2v-5.9h-1.9V14.5z"/>
		<path class="st2" d="M267.6,18.5c0.3-0.5,0.8-1,1.5-1.5l1.1-0.7c0.5-0.3,0.9-0.5,1.1-0.8c0.3-0.3,0.5-0.7,0.5-1.1
			c0-0.5-0.1-0.9-0.4-1.2s-0.7-0.4-1.2-0.4c-0.7,0-1.2,0.3-1.5,0.8c-0.1,0.3-0.2,0.7-0.2,1.2h-1.1c0-0.7,0.1-1.3,0.4-1.8
			c0.5-0.8,1.3-1.2,2.4-1.2c1,0,1.7,0.3,2.1,0.8s0.7,1.1,0.7,1.7c0,0.7-0.2,1.2-0.7,1.7c-0.3,0.3-0.8,0.6-1.5,1l-0.8,0.4
			c-0.4,0.2-0.7,0.4-0.9,0.6c-0.4,0.3-0.6,0.7-0.7,1.1h4.6v1h-5.8C267.2,19.7,267.4,19.1,267.6,18.5z"/>
		<path class="st2" d="M279.7,12.2v0.9c-0.3,0.3-0.6,0.7-1.1,1.4c-0.5,0.7-0.8,1.3-1.2,2.1c-0.3,0.7-0.6,1.4-0.8,2
			c-0.1,0.4-0.3,1-0.4,1.9H275c0.3-1.6,0.9-3.2,1.8-4.8c0.5-0.9,1.1-1.7,1.7-2.4h-4.6v-1.1C273.9,12.2,279.7,12.2,279.7,12.2z"/>
		<path class="st2" d="M284.2,14.1h1V15c0.2-0.3,0.5-0.5,0.7-0.7c0.3-0.2,0.7-0.4,1.2-0.4s0.9,0.1,1.2,0.4c0.2,0.1,0.3,0.3,0.5,0.6
			c0.2-0.3,0.5-0.6,0.8-0.7s0.7-0.2,1.1-0.2c0.8,0,1.4,0.3,1.7,0.9c0.2,0.3,0.2,0.8,0.2,1.3v4.2h-1.1V16c0-0.4-0.1-0.7-0.3-0.9
			s-0.5-0.2-0.8-0.2c-0.4,0-0.8,0.1-1.1,0.4s-0.4,0.7-0.4,1.4v3.7h-1.1v-4.1c0-0.4-0.1-0.7-0.2-0.9c-0.2-0.3-0.5-0.4-0.9-0.4
			s-0.8,0.2-1.1,0.5s-0.5,0.9-0.5,1.7v3.3h-0.9V14.1z"/>
	</g>
</g>
<path class="st6" d="M174.2,125.9c0,0-8.4,10.3-9.3,16.3c-0.2,0.7-0.1,1.5,0.1,2.2h17.1C182.1,144.5,183.5,138.5,174.2,125.9z"/>
<polygon class="st6" points="162,372.4 185.5,372.4 185.5,258.6 182.2,246 182.1,144.4 165,144.4 164.8,246.5 162,258.4 "/>
<path class="st6" d="M185.6,371.6c0,0,8.9,2.1,10.6-1.3v-79c0,0-6-13.3-10.6-13.5V371.6z"/>
<path class="st6" d="M162.2,371.8c0,0-8.9,2.1-10.6-1.3v-79c0,0,6-13.3,10.6-13.5V371.8z"/>
<polygon class="st6" points="169.2,372.3 166.7,377.1 180.6,377.1 178.9,372.3 "/>
<polygon class="st6" points="153.3,371.3 148.5,377.1 162.2,377.1 160.9,372 "/>
<polygon class="st6" points="187.5,372.3 185.5,377.1 196.1,377.1 193.6,371.3 "/>
<rect x="171.3" y="254" class="st6" width="5.1" height="5.1"/>
<rect x="171.3" y="260.7" class="st6" width="5.1" height="5.1"/>
<rect x="171.3" y="267.5" class="st6" width="5.1" height="5.1"/>
<rect x="165" y="190.8" class="st6" width="16.9" height="37.9"/>
<rect x="165" y="174.8" class="st6" width="16.9" height="5.1"/>
<rect x="162.4" y="279.3" class="st6" width="22.8" height="20.2"/>
<rect x="162.4" y="332.4" class="st6" width="22.8" height="9.3"/>
<rect x="162.4" y="361.1" class="st6" width="22.8" height="11"/>
<rect x="169.2" y="291.9" class="st6" width="9.7" height="80.3"/>
<polygon class="st6" points="173.8,276.9 169.2,291.9 178.9,291.9 "/>
<g class="st7">
	<path class="st8" d="M160.2,387.7h1.2v7.6h4.4v1h-5.5V387.7z"/>
	<path class="st8" d="M170.1,392.5c0.2,0,0.4-0.1,0.5-0.3c0-0.1,0.1-0.2,0.1-0.4c0-0.4-0.1-0.6-0.4-0.8s-0.6-0.2-1.1-0.2
		c-0.6,0-0.9,0.1-1.2,0.4c-0.1,0.2-0.2,0.4-0.3,0.7h-1c0-0.8,0.3-1.3,0.8-1.6s1-0.5,1.7-0.5c0.7,0,1.3,0.1,1.8,0.4
		c0.5,0.3,0.7,0.7,0.7,1.3v3.6c0,0.1,0,0.2,0.1,0.3s0.1,0.1,0.3,0.1c0,0,0.1,0,0.2,0s0.1,0,0.2,0v0.8c-0.2,0-0.3,0.1-0.4,0.1
		s-0.2,0-0.4,0c-0.4,0-0.6-0.1-0.8-0.4c-0.1-0.1-0.1-0.3-0.2-0.6c-0.2,0.3-0.5,0.5-0.9,0.7s-0.8,0.3-1.3,0.3c-0.6,0-1.1-0.2-1.4-0.5
		s-0.6-0.8-0.6-1.3c0-0.6,0.2-1,0.5-1.4s0.8-0.5,1.4-0.6L170.1,392.5z M167.9,395.3c0.2,0.2,0.5,0.3,0.8,0.3c0.4,0,0.7-0.1,1.1-0.3
		c0.6-0.3,0.9-0.8,0.9-1.4v-0.8c-0.1,0.1-0.3,0.2-0.5,0.2s-0.4,0.1-0.6,0.1l-0.6,0.1c-0.4,0.1-0.7,0.1-0.9,0.2
		c-0.3,0.2-0.5,0.5-0.5,0.9C167.6,394.9,167.7,395.1,167.9,395.3z"/>
	<path class="st8" d="M173.5,390h1v1.1c0.1-0.2,0.3-0.5,0.6-0.8s0.7-0.5,1.1-0.5c0,0,0.1,0,0.1,0s0.1,0,0.2,0v1.1
		c-0.1,0-0.1,0-0.2,0s-0.1,0-0.2,0c-0.5,0-0.9,0.2-1.2,0.5s-0.4,0.7-0.4,1.2v3.6h-1.1V390z"/>
	<path class="st8" d="M180.9,390.2c0.2,0.1,0.4,0.3,0.6,0.6V390h1v5.7c0,0.8-0.1,1.4-0.4,1.9c-0.4,0.9-1.3,1.3-2.5,1.3
		c-0.7,0-1.2-0.2-1.7-0.5s-0.7-0.8-0.8-1.4h1.1c0.1,0.3,0.2,0.5,0.3,0.7c0.2,0.2,0.6,0.4,1.1,0.4c0.8,0,1.3-0.3,1.6-0.9
		c0.1-0.3,0.2-0.9,0.2-1.8c-0.2,0.3-0.5,0.6-0.8,0.7s-0.7,0.2-1.2,0.2c-0.7,0-1.3-0.2-1.8-0.7s-0.8-1.3-0.8-2.4
		c0-1.1,0.3-1.9,0.8-2.5s1.1-0.9,1.9-0.9C180.1,389.9,180.6,390,180.9,390.2z M181.1,391.4c-0.3-0.4-0.7-0.6-1.2-0.6
		c-0.7,0-1.2,0.3-1.5,1c-0.1,0.4-0.2,0.9-0.2,1.5c0,0.7,0.1,1.2,0.4,1.6s0.7,0.6,1.2,0.6c0.8,0,1.3-0.3,1.6-1
		c0.2-0.4,0.3-0.8,0.3-1.4C181.5,392.3,181.4,391.7,181.1,391.4z"/>
	<path class="st8" d="M187.5,392.5c0.2,0,0.4-0.1,0.5-0.3c0-0.1,0.1-0.2,0.1-0.4c0-0.4-0.1-0.6-0.4-0.8s-0.6-0.2-1.1-0.2
		c-0.6,0-0.9,0.1-1.2,0.4c-0.1,0.2-0.2,0.4-0.3,0.7h-1c0-0.8,0.3-1.3,0.8-1.6s1-0.5,1.7-0.5c0.7,0,1.3,0.1,1.8,0.4
		c0.5,0.3,0.7,0.7,0.7,1.3v3.6c0,0.1,0,0.2,0.1,0.3s0.1,0.1,0.3,0.1c0,0,0.1,0,0.2,0s0.1,0,0.2,0v0.8c-0.2,0-0.3,0.1-0.4,0.1
		s-0.2,0-0.4,0c-0.4,0-0.6-0.1-0.8-0.4c-0.1-0.1-0.1-0.3-0.2-0.6c-0.2,0.3-0.5,0.5-0.9,0.7s-0.8,0.3-1.3,0.3c-0.6,0-1.1-0.2-1.4-0.5
		s-0.6-0.8-0.6-1.3c0-0.6,0.2-1,0.5-1.4s0.8-0.5,1.4-0.6L187.5,392.5z M185.2,395.3c0.2,0.2,0.5,0.3,0.8,0.3c0.4,0,0.7-0.1,1.1-0.3
		c0.6-0.3,0.9-0.8,0.9-1.4v-0.8c-0.1,0.1-0.3,0.2-0.5,0.2s-0.4,0.1-0.6,0.1l-0.6,0.1c-0.4,0.1-0.7,0.1-0.9,0.2
		c-0.3,0.2-0.5,0.5-0.5,0.9C184.9,394.9,185,395.1,185.2,395.3z"/>
</g>
<g class="st7">
	<path class="st8" d="M152.2,402.1h1.7l2.5,7.3l2.5-7.3h1.7v8.6h-1.1v-5.1c0-0.2,0-0.5,0-0.9s0-0.8,0-1.3l-2.5,7.3h-1.2l-2.5-7.3
		v0.3c0,0.2,0,0.5,0,1s0,0.7,0,1v5.1h-1.1V402.1z"/>
	<path class="st8" d="M165.4,406.9c0.2,0,0.4-0.1,0.5-0.3c0-0.1,0.1-0.2,0.1-0.4c0-0.4-0.1-0.6-0.4-0.8s-0.6-0.2-1.1-0.2
		c-0.6,0-0.9,0.1-1.2,0.4c-0.1,0.2-0.2,0.4-0.3,0.7h-1c0-0.8,0.3-1.3,0.8-1.6s1-0.5,1.7-0.5c0.7,0,1.3,0.1,1.8,0.4
		c0.5,0.3,0.7,0.7,0.7,1.3v3.6c0,0.1,0,0.2,0.1,0.3s0.1,0.1,0.3,0.1c0,0,0.1,0,0.2,0s0.1,0,0.2,0v0.8c-0.2,0-0.3,0.1-0.4,0.1
		s-0.2,0-0.4,0c-0.4,0-0.6-0.1-0.8-0.4c-0.1-0.1-0.1-0.3-0.2-0.6c-0.2,0.3-0.5,0.5-0.9,0.7s-0.8,0.3-1.3,0.3c-0.6,0-1.1-0.2-1.4-0.5
		s-0.6-0.8-0.6-1.3c0-0.6,0.2-1,0.5-1.4s0.8-0.5,1.4-0.6L165.4,406.9z M163.2,409.7c0.2,0.2,0.5,0.3,0.8,0.3c0.4,0,0.7-0.1,1.1-0.3
		c0.6-0.3,0.9-0.8,0.9-1.4v-0.8c-0.1,0.1-0.3,0.2-0.5,0.2s-0.4,0.1-0.6,0.1l-0.6,0.1c-0.4,0.1-0.7,0.1-0.9,0.2
		c-0.3,0.2-0.5,0.5-0.5,0.9C162.9,409.3,163,409.5,163.2,409.7z"/>
	<path class="st8" d="M168.8,404.4h1v1.1c0.1-0.2,0.3-0.5,0.6-0.8s0.7-0.5,1.1-0.5c0,0,0.1,0,0.1,0s0.1,0,0.2,0v1.1
		c-0.1,0-0.1,0-0.2,0s-0.1,0-0.2,0c-0.5,0-0.9,0.2-1.2,0.5s-0.4,0.7-0.4,1.2v3.6h-1.1V404.4z"/>
	<path class="st8" d="M176.9,404.7c0.4,0.3,0.7,0.9,0.8,1.8h-1c-0.1-0.4-0.2-0.7-0.4-1s-0.6-0.4-1.1-0.4c-0.7,0-1.2,0.3-1.4,1
		c-0.2,0.4-0.3,1-0.3,1.6c0,0.6,0.1,1.2,0.4,1.6s0.7,0.6,1.3,0.6c0.4,0,0.8-0.1,1-0.4s0.4-0.6,0.5-1.1h1c-0.1,0.8-0.4,1.4-0.9,1.8
		s-1.1,0.6-1.8,0.6c-0.8,0-1.5-0.3-2-0.9s-0.7-1.3-0.7-2.2c0-1.1,0.3-2,0.8-2.6s1.2-0.9,2-0.9C175.9,404.2,176.5,404.4,176.9,404.7z
		"/>
	<path class="st8" d="M178.8,402h1.1v3.2c0.2-0.3,0.5-0.5,0.7-0.7c0.3-0.2,0.8-0.3,1.3-0.3c0.9,0,1.5,0.3,1.9,1
		c0.2,0.3,0.3,0.8,0.3,1.4v4h-1.1v-4c0-0.5-0.1-0.8-0.2-1c-0.2-0.3-0.6-0.5-1.1-0.5c-0.4,0-0.8,0.2-1.2,0.5s-0.5,0.9-0.5,1.7v3.3
		h-1.1V402z"/>
	<path class="st8" d="M188.8,406.9c0.2,0,0.4-0.1,0.5-0.3c0-0.1,0.1-0.2,0.1-0.4c0-0.4-0.1-0.6-0.4-0.8s-0.6-0.2-1.1-0.2
		c-0.6,0-0.9,0.1-1.2,0.4c-0.1,0.2-0.2,0.4-0.3,0.7h-1c0-0.8,0.3-1.3,0.8-1.6s1-0.5,1.7-0.5c0.7,0,1.3,0.1,1.8,0.4
		c0.5,0.3,0.7,0.7,0.7,1.3v3.6c0,0.1,0,0.2,0.1,0.3s0.1,0.1,0.3,0.1c0,0,0.1,0,0.2,0s0.1,0,0.2,0v0.8c-0.2,0-0.3,0.1-0.4,0.1
		s-0.2,0-0.4,0c-0.4,0-0.6-0.1-0.8-0.4c-0.1-0.1-0.1-0.3-0.2-0.6c-0.2,0.3-0.5,0.5-0.9,0.7s-0.8,0.3-1.3,0.3c-0.6,0-1.1-0.2-1.4-0.5
		s-0.6-0.8-0.6-1.3c0-0.6,0.2-1,0.5-1.4s0.8-0.5,1.4-0.6L188.8,406.9z M186.6,409.7c0.2,0.2,0.5,0.3,0.8,0.3c0.4,0,0.7-0.1,1.1-0.3
		c0.6-0.3,0.9-0.8,0.9-1.4v-0.8c-0.1,0.1-0.3,0.2-0.5,0.2s-0.4,0.1-0.6,0.1l-0.6,0.1c-0.4,0.1-0.7,0.1-0.9,0.2
		c-0.3,0.2-0.5,0.5-0.5,0.9C186.2,409.3,186.3,409.5,186.6,409.7z"/>
	<path class="st8" d="M196.3,408.6c0,0.6,0.3,1,0.7,1.2c0.2,0.1,0.5,0.2,0.7,0.2c0.5,0,0.9-0.2,1.3-0.6s0.6-1.3,0.8-2.6
		c-0.2,0.4-0.5,0.6-0.9,0.8s-0.7,0.2-1.1,0.2c-0.8,0-1.4-0.3-1.9-0.8s-0.7-1.2-0.7-1.9c0-0.8,0.2-1.4,0.7-2s1.2-0.9,2.1-0.9
		c1.2,0,2.1,0.6,2.5,1.7c0.3,0.6,0.4,1.4,0.4,2.3c0,1-0.2,1.9-0.5,2.7c-0.5,1.3-1.4,2-2.6,2c-0.8,0-1.4-0.2-1.9-0.6s-0.6-1-0.6-1.6
		H196.3z M199,406.5c0.3-0.3,0.5-0.8,0.5-1.4c0-0.6-0.2-1.1-0.5-1.4s-0.7-0.5-1.2-0.5c-0.5,0-0.9,0.2-1.2,0.5s-0.5,0.8-0.5,1.4
		c0,0.5,0.1,1,0.4,1.3s0.7,0.5,1.3,0.5C198.3,406.9,198.7,406.8,199,406.5z"/>
</g>
<g class="st7">
	<path class="st8" d="M164.8,89.3c0.6,0.6,0.9,1.2,1,2h-1.1c-0.1-0.6-0.4-1-0.8-1.3s-0.9-0.5-1.6-0.5c-0.8,0-1.5,0.3-2.1,0.9
		s-0.8,1.5-0.8,2.7c0,1,0.2,1.8,0.7,2.5s1.2,0.9,2.1,0.9c0.9,0,1.5-0.3,2-1c0.2-0.3,0.4-0.8,0.5-1.4h1.1c-0.1,0.9-0.4,1.7-1,2.3
		c-0.7,0.7-1.6,1.1-2.8,1.1c-1,0-1.8-0.3-2.5-0.9c-0.9-0.8-1.3-2-1.3-3.7c0-1.3,0.3-2.3,1-3.1c0.7-0.9,1.7-1.3,3-1.3
		C163.3,88.4,164.2,88.7,164.8,89.3z"/>
	<path class="st8" d="M167.1,88.6h1.1v3.2c0.2-0.3,0.5-0.5,0.7-0.7c0.3-0.2,0.8-0.3,1.3-0.3c0.9,0,1.5,0.3,1.9,1
		c0.2,0.3,0.3,0.8,0.3,1.4v4h-1.1v-4c0-0.5-0.1-0.8-0.2-1c-0.2-0.3-0.6-0.5-1.1-0.5c-0.4,0-0.8,0.2-1.2,0.5s-0.5,0.9-0.5,1.7v3.3
		h-1.1V88.6z"/>
	<path class="st8" d="M173.8,88.7h1.1v1.2h-1.1V88.7z M173.8,91h1.1v6.2h-1.1V91z"/>
	<path class="st8" d="M176.5,91h1v0.9c0.3-0.4,0.6-0.6,0.9-0.8s0.7-0.2,1.1-0.2c0.9,0,1.5,0.3,1.8,0.9c0.2,0.3,0.3,0.8,0.3,1.5v4
		h-1.1v-4c0-0.4-0.1-0.7-0.2-0.9c-0.2-0.4-0.5-0.6-1-0.6c-0.2,0-0.5,0-0.6,0.1c-0.3,0.1-0.5,0.3-0.8,0.5c-0.2,0.2-0.3,0.4-0.3,0.6
		s-0.1,0.5-0.1,0.9v3.3h-1.1V91z"/>
	<path class="st8" d="M186.5,93.5c0.2,0,0.4-0.1,0.5-0.3c0-0.1,0.1-0.2,0.1-0.4c0-0.4-0.1-0.6-0.4-0.8s-0.6-0.2-1.1-0.2
		c-0.6,0-0.9,0.1-1.2,0.4c-0.1,0.2-0.2,0.4-0.3,0.7h-1c0-0.8,0.3-1.3,0.8-1.6s1-0.5,1.7-0.5c0.7,0,1.3,0.1,1.8,0.4
		c0.5,0.3,0.7,0.7,0.7,1.3v3.6c0,0.1,0,0.2,0.1,0.3s0.1,0.1,0.3,0.1c0,0,0.1,0,0.2,0s0.1,0,0.2,0v0.8c-0.2,0-0.3,0.1-0.4,0.1
		s-0.2,0-0.4,0c-0.4,0-0.6-0.1-0.8-0.4c-0.1-0.1-0.1-0.3-0.2-0.6c-0.2,0.3-0.5,0.5-0.9,0.7s-0.8,0.3-1.3,0.3c-0.6,0-1.1-0.2-1.4-0.5
		s-0.6-0.8-0.6-1.3c0-0.6,0.2-1,0.5-1.4s0.8-0.5,1.4-0.6L186.5,93.5z M184.3,96.3c0.2,0.2,0.5,0.3,0.8,0.3c0.4,0,0.7-0.1,1.1-0.3
		c0.6-0.3,0.9-0.8,0.9-1.4v-0.8c-0.1,0.1-0.3,0.2-0.5,0.2s-0.4,0.1-0.6,0.1l-0.6,0.1c-0.4,0.1-0.7,0.1-0.9,0.2
		c-0.3,0.2-0.5,0.5-0.5,0.9C184,95.9,184.1,96.2,184.3,96.3z"/>
</g>
<g class="st7">
	<path class="st8" d="M161.6,109.7c0,0.6,0.3,1,0.7,1.2c0.2,0.1,0.5,0.2,0.7,0.2c0.5,0,0.9-0.2,1.3-0.6s0.6-1.3,0.8-2.6
		c-0.2,0.4-0.5,0.6-0.9,0.8s-0.7,0.2-1.1,0.2c-0.8,0-1.4-0.3-1.9-0.8s-0.7-1.2-0.7-1.9c0-0.8,0.2-1.4,0.7-2s1.2-0.9,2.1-0.9
		c1.2,0,2.1,0.6,2.5,1.7c0.3,0.6,0.4,1.4,0.4,2.3c0,1-0.2,1.9-0.5,2.7c-0.5,1.3-1.4,2-2.6,2c-0.8,0-1.4-0.2-1.9-0.6s-0.6-1-0.6-1.6
		H161.6z M164.3,107.5c0.3-0.3,0.5-0.8,0.5-1.4c0-0.6-0.2-1.1-0.5-1.4s-0.7-0.5-1.2-0.5c-0.5,0-0.9,0.2-1.2,0.5s-0.5,0.8-0.5,1.4
		c0,0.5,0.1,1,0.4,1.3s0.7,0.5,1.3,0.5C163.6,107.9,164,107.8,164.3,107.5z"/>
	<path class="st8" d="M167.6,111.1c-0.4-0.5-0.7-1.2-0.7-2h1.1c0,0.5,0.1,0.9,0.3,1.2c0.3,0.4,0.8,0.7,1.5,0.7c0.6,0,1-0.1,1.3-0.4
		s0.5-0.7,0.5-1.1c0-0.6-0.2-1-0.5-1.2s-0.8-0.3-1.5-0.3c-0.1,0-0.1,0-0.2,0s-0.1,0-0.2,0v-0.9c0.1,0,0.2,0,0.3,0s0.2,0,0.2,0
		c0.4,0,0.7-0.1,1-0.2c0.4-0.2,0.7-0.6,0.7-1.2c0-0.4-0.1-0.7-0.4-1s-0.6-0.3-1-0.3c-0.7,0-1.2,0.2-1.5,0.7
		c-0.1,0.3-0.2,0.6-0.3,1.1h-1c0-0.6,0.1-1.2,0.4-1.6c0.4-0.8,1.2-1.2,2.3-1.2c0.9,0,1.5,0.2,2,0.6s0.7,0.9,0.7,1.7
		c0,0.5-0.1,0.9-0.4,1.3c-0.2,0.2-0.4,0.4-0.7,0.5c0.4,0.1,0.8,0.4,1,0.7s0.4,0.8,0.4,1.3c0,0.8-0.3,1.5-0.8,2s-1.3,0.8-2.2,0.8
		C168.8,111.9,168.1,111.6,167.6,111.1z"/>
	<path class="st8" d="M177.5,105.4h1v0.9c0.2-0.3,0.5-0.5,0.7-0.7c0.3-0.2,0.7-0.4,1.2-0.4c0.5,0,0.9,0.1,1.2,0.4
		c0.2,0.1,0.3,0.3,0.5,0.6c0.2-0.3,0.5-0.6,0.8-0.7s0.7-0.2,1.1-0.2c0.8,0,1.4,0.3,1.7,0.9c0.2,0.3,0.2,0.8,0.2,1.3v4.2h-1.1v-4.4
		c0-0.4-0.1-0.7-0.3-0.9s-0.5-0.2-0.8-0.2c-0.4,0-0.8,0.1-1.1,0.4s-0.4,0.7-0.4,1.4v3.7h-1.1v-4.1c0-0.4-0.1-0.7-0.2-0.9
		c-0.2-0.3-0.5-0.4-0.9-0.4c-0.4,0-0.8,0.2-1.1,0.5s-0.5,0.9-0.5,1.7v3.3h-1.1V105.4z"/>
</g>
</svg>
